<svg xmlns="http://www.w3.org/2000/svg" xmlns:xlink="http://www.w3.org/1999/xlink" viewBox="0 0 302.13 532.17"><defs><style>.cls-1{fill:url(#linear-gradient);}.cls-2{font-size:24px;}.cls-2,.cls-27,.cls-28,.cls-30,.cls-45{fill:#fff;font-family:AcuminProCond-Regular, Acumin Pro Condensed;}.cls-28,.cls-3{letter-spacing:0.01em;}.cls-4{letter-spacing:0em;}.cls-5{letter-spacing:0em;}.cls-6{letter-spacing:0em;}.cls-7{letter-spacing:0em;}.cls-8{letter-spacing:0.04em;}.cls-9{letter-spacing:0.01em;}.cls-10{letter-spacing:0em;}.cls-11{letter-spacing:0.01em;}.cls-12{letter-spacing:-0.01em;}.cls-13{letter-spacing:-0.01em;}.cls-14{letter-spacing:0.01em;}.cls-15{letter-spacing:0em;}.cls-16{letter-spacing:0em;}.cls-17{letter-spacing:0em;}.cls-18{letter-spacing:-0.01em;}.cls-19{letter-spacing:0.01em;}.cls-20{letter-spacing:0.01em;}.cls-21{letter-spacing:-0.01em;}.cls-22{letter-spacing:0.01em;}.cls-23{letter-spacing:0.01em;}.cls-24{letter-spacing:0em;}.cls-25{letter-spacing:-0.01em;}.cls-26{letter-spacing:0.02em;}.cls-27,.cls-28{font-size:18px;}.cls-29{letter-spacing:0em;}.cls-30{font-size:60px;}.cls-31{letter-spacing:-0.02em;}.cls-32{letter-spacing:0em;}.cls-33{fill:#f9d423;}.cls-34{fill:#00ecbc;}.cls-35{fill:#3d3d3d;}.cls-36{fill:#cc208e;}.cls-37{letter-spacing:0.01em;}.cls-38{letter-spacing:0em;}.cls-39{letter-spacing:0em;}.cls-40{letter-spacing:0.01em;}.cls-41{letter-spacing:0em;}.cls-42{letter-spacing:0em;}.cls-43{letter-spacing:-0.07em;}.cls-44{letter-spacing:0.02em;}.cls-45{font-size:10px;}.cls-46{letter-spacing:0.02em;}.cls-47{letter-spacing:0.04em;}.cls-48{letter-spacing:0.05em;}.cls-49{letter-spacing:0.04em;}</style><linearGradient id="linear-gradient" x1="3.48" y1="52.46" x2="295.23" y2="52.46" gradientUnits="userSpaceOnUse"><stop offset="0" stop-color="#00dbde"/><stop offset="1" stop-color="#fc00ff"/></linearGradient></defs><g id="Layer_2" data-name="Layer 2"><g id="Capa_1" data-name="Capa 1"><rect class="cls-1" x="3.48" y="40.07" width="291.75" height="24.79"/><text class="cls-2" transform="translate(3.48 20.14)"><tspan class="cls-3">L</tspan><tspan class="cls-4" x="9.34" y="0">e</tspan><tspan class="cls-5" x="19.2" y="0">v</tspan><tspan class="cls-6" x="28.25" y="0">el </tspan><tspan class="cls-7" x="47.23" y="0">o</tspan><tspan x="57.38" y="0">f </tspan><tspan class="cls-8" x="67.05" y="0">E</tspan><tspan class="cls-9" x="77.81" y="0">x</tspan><tspan class="cls-10" x="86.21" y="0">p</tspan><tspan class="cls-11" x="96.77" y="0">o</tspan><tspan class="cls-12" x="106.94" y="0">s</tspan><tspan class="cls-13" x="115.68" y="0">ur</tspan><tspan class="cls-6" x="132.57" y="0">e </tspan><tspan class="cls-13" x="146.92" y="0">t</tspan><tspan x="152.54" y="0">o the </tspan><tspan class="cls-14" x="197.88" y="0">f</tspan><tspan x="203.32" y="0">l</tspan><tspan class="cls-15" x="207.96" y="0">oo</tspan><tspan class="cls-16" x="228.21" y="0">ding </tspan><tspan class="cls-17" x="269.11" y="0">r</tspan><tspan class="cls-6" x="275.66" y="0">isk</tspan></text><text class="cls-2" transform="translate(3.48 153.26)"><tspan class="cls-18">N</tspan><tspan class="cls-13" x="12.02" y="0">u</tspan><tspan x="22.42" y="0">m</tspan><tspan class="cls-10" x="38.16" y="0">b</tspan><tspan x="48.7" y="0">er </tspan><tspan class="cls-4" x="69.67" y="0">o</tspan><tspan x="79.82" y="0">f </tspan><tspan class="cls-19" x="89.49" y="0">S</tspan><tspan class="cls-12" x="100.13" y="0">t</tspan><tspan x="105.72" y="0">udent in High </tspan><tspan class="cls-17" x="219.79" y="0">r</tspan><tspan class="cls-6" x="226.34" y="0">isk a</tspan><tspan class="cls-13" x="263.68" y="0">re</tspan><tspan class="cls-6" x="279.83" y="0">a</tspan></text><text class="cls-2" transform="translate(3.48 281.84)"><tspan class="cls-9">C</tspan><tspan x="10.97" y="0">ap</tspan><tspan class="cls-20" x="31.44" y="0">i</tspan><tspan class="cls-16" x="36.33" y="0">tal </tspan><tspan class="cls-21" x="61.27" y="0">B</tspan><tspan x="72.19" y="0">udg</tspan><tspan class="cls-22" x="103.73" y="0">e</tspan><tspan x="113.76" y="0">t us</tspan><tspan class="cls-23" x="143.47" y="0">e</tspan><tspan x="153.45" y="0">d </tspan><tspan class="cls-24" x="168.52" y="0">f</tspan><tspan x="173.73" y="0">or </tspan><tspan class="cls-14" x="0" y="28.8">f</tspan><tspan class="cls-6" x="5.45" y="28.8">l</tspan><tspan class="cls-10" x="10.08" y="28.8">oo</tspan><tspan class="cls-16" x="30.33" y="28.8">ding </tspan><tspan class="cls-17" x="71.23" y="28.8">r</tspan><tspan class="cls-6" x="77.78" y="28.8">isk m</tspan><tspan class="cls-20" x="120.88" y="28.8">i</tspan><tspan class="cls-10" x="125.78" y="28.8">t</tspan><tspan class="cls-6" x="131.59" y="28.8">i</tspan><tspan class="cls-25" x="136.24" y="28.8">g</tspan><tspan class="cls-6" x="146.61" y="28.8">a</tspan><tspan class="cls-10" x="156.6" y="28.8">t</tspan><tspan x="162.4" y="28.8">ion in </tspan><tspan class="cls-15" x="212.2" y="28.8">2</tspan><tspan x="221.61" y="28.8">0</tspan><tspan class="cls-26" x="232.03" y="28.8">X</tspan><tspan x="242.27" y="28.8">X</tspan></text><text class="cls-27" transform="translate(266.81 90.44)">High</text><text class="cls-28" transform="translate(3.48 90.44)">L<tspan class="cls-29" x="7" y="0">ow</tspan></text><text class="cls-30" transform="translate(0 214.62)">0<tspan class="cls-31" x="26.04" y="0">0</tspan><tspan class="cls-32" x="51.12" y="0">,000</tspan></text><path class="cls-33" d="M146.46,432.92a73,73,0,0,0,2.47-18.82H76.21Z"/><path class="cls-34" d="M148.93,414.1a72.41,72.41,0,0,0-17-46.74L76.21,414.1Z"/><path class="cls-35" d="M131.91,367.36a72.71,72.71,0,1,0,10.21,77.47L76.21,414.1Z"/><path class="cls-36" d="M76.21,414.1l65.91,30.73a72.27,72.27,0,0,0,4.34-11.91Z"/><text class="cls-27" transform="translate(170.05 463.18)"><tspan class="cls-37">S</tspan><tspan class="cls-38" x="7.94" y="0">an</tspan><tspan class="cls-39" x="23.4" y="0">d</tspan><tspan x="31.34" y="0">y</tspan></text><text class="cls-27" transform="translate(170.05 384.81)"><tspan class="cls-40">R</tspan><tspan class="cls-41" x="8.44" y="0">o</tspan><tspan class="cls-42" x="16.04" y="0">o</tspan><tspan x="23.65" y="0">f</tspan></text><text class="cls-27" transform="translate(3.48 505.85)"><tspan class="cls-43">T</tspan><tspan class="cls-41" x="5.4" y="0">o</tspan><tspan x="13" y="0">tal</tspan><tspan x="0" y="21.6">$00 billion</tspan></text><text class="cls-27" transform="translate(29.83 419.93)"><tspan class="cls-44">O</tspan><tspan x="9.05" y="0">ther</tspan></text><text class="cls-27" transform="translate(170.05 423.55)">Fl<tspan class="cls-41" x="10.57" y="0">oo</tspan><tspan x="25.76" y="0">d</tspan></text><text class="cls-45" transform="translate(29.83 434.61)">$ <tspan class="cls-46" x="6.07" y="0">X</tspan><tspan class="cls-47" x="10.34" y="0">X</tspan><tspan class="cls-48" x="14.85" y="0">.</tspan><tspan x="16.78" y="0">X billion</tspan></text><text class="cls-45" transform="translate(170.05 397.27)">$ <tspan class="cls-49" x="6.07" y="0">X</tspan><tspan class="cls-48" x="10.58" y="0">.</tspan><tspan x="12.51" y="0">X billion</tspan></text><text class="cls-45" transform="translate(170.05 434.97)">$ <tspan class="cls-49" x="6.07" y="0">X</tspan><tspan class="cls-48" x="10.58" y="0">.</tspan><tspan x="12.51" y="0">X billion</tspan></text><text class="cls-45" transform="translate(170.05 476.3)">$ <tspan class="cls-49" x="6.07" y="0">X</tspan><tspan class="cls-48" x="10.58" y="0">.</tspan><tspan x="12.51" y="0">X billion</tspan></text></g></g></svg>