<svg xmlns="http://www.w3.org/2000/svg" xmlns:xlink="http://www.w3.org/1999/xlink" viewBox="0 0 456.65 456.63"><defs><style>.a{fill:#fff;}.b{fill:url(#a);}.c{opacity:0.8;}</style><linearGradient id="a" x1="12.52" y1="302.17" x2="304.27" y2="302.17" gradientUnits="userSpaceOnUse"><stop offset="0" stop-color="#f4eea9"/><stop offset="0.42" stop-color="#db0075"/><stop offset="1" stop-color="#ca0aff"/></linearGradient></defs><rect x="0.02" width="456.63" height="456.63"/><path class="a" d="M5,144.26H1.38v-1.58h9.05v1.58H6.81V159H5Z"/><path class="a" d="M17.82,152.76c0,4.27-1.44,6.43-4.17,6.43s-4.2-2.09-4.2-6.41,1.65-6.16,4.27-6.16S17.82,148.66,17.82,152.76Zm-6.57.05c0,3.29.81,4.87,2.4,4.87s2.37-1.61,2.37-4.9c0-3.12-.76-4.65-2.37-4.65S11.25,149.5,11.25,152.81Z"/><path class="a" d="M18.66,146.81h1.73v-3.24h1.73v3.24h2.14v1.51H22.12v8c0,.84.19,1.37,1.1,1.37a4.52,4.52,0,0,0,.87-.08V159a4.76,4.76,0,0,1-1.44.19c-1.42,0-2.26-.57-2.26-2.49v-8.33H18.66Z"/><path class="a" d="M33,156.82c0,.76,0,1.77.1,2.16H31.48a7.43,7.43,0,0,1-.12-1.4,2.84,2.84,0,0,1-2.88,1.61c-2.35,0-3.19-1.82-3.19-3.53,0-2.2,1.51-3.88,4.7-3.88a11.29,11.29,0,0,1,1.27,0v-1.63c0-.93-.19-2.16-1.82-2.16-1.8,0-1.92,1.3-2,2.11H25.77c0-1.75.86-3.52,3.72-3.52,2.35,0,3.5,1.12,3.5,3.38Zm-1.7-3.6a6.84,6.84,0,0,0-1.2-.08c-2.16,0-3.05,1-3.05,2.4a1.92,1.92,0,0,0,1.9,2.16c1.77,0,2.35-1.27,2.35-3.84Z"/><path class="a" d="M35.9,159V141.89h1.75V159Z"/><path class="a" d="M46,155.47c.08,1.3.75,2.28,2.14,2.28a1.77,1.77,0,0,0,2-1.92c0-1.25-.63-1.82-2.23-2.45-2.52-1-3.24-1.87-3.24-3.57a3.12,3.12,0,0,1,3.48-3.22,3.2,3.2,0,0,1,3.5,3.48h-1.7c0-.6-.17-2-1.85-2a1.54,1.54,0,0,0-1.68,1.68c0,1,.43,1.44,2.11,2.11,2.35.89,3.38,1.76,3.38,3.84,0,2.24-1.39,3.53-3.81,3.53a3.48,3.48,0,0,1-3.82-3.72Z"/><path class="a" d="M52.67,146.81H54.4v-3.24h1.73v3.24h2.13v1.51H56.13v8c0,.84.19,1.37,1.1,1.37a4.52,4.52,0,0,0,.87-.08V159a4.82,4.82,0,0,1-1.45.19c-1.41,0-2.25-.57-2.25-2.49v-8.33H52.67Z"/><path class="a" d="M67.43,155.64c0,1.54,0,2.76,0,3.34H65.78a12.1,12.1,0,0,1-.08-1.64,2.8,2.8,0,0,1-2.9,1.85c-1.42,0-3-.57-3-3.62v-8.76h1.78v8.33c0,1.56.43,2.49,1.82,2.49s2.31-.81,2.31-3.43v-7.39h1.77Z"/><path class="a" d="M77.9,141.89v14c0,1.17,0,2.4,0,3.12h-1.7c0-.32-.08-1.11-.08-1.64a2.65,2.65,0,0,1-2.85,1.85c-2.52,0-3.6-2.16-3.6-6.43,0-3.89,1.41-6.14,4-6.14a2.41,2.41,0,0,1,2.47,1.24v-6Zm-4.13,15.74c1.89,0,2.4-1.61,2.4-4.92,0-3.55-.51-4.56-2.26-4.56-1.44,0-2.42,1.27-2.42,4.63S72.28,157.63,73.77,157.63Z"/><path class="a" d="M82,153.22c0,2.37.41,4.46,2.33,4.46a2.23,2.23,0,0,0,2.21-2.18h1.73a3.86,3.86,0,0,1-4,3.69c-3.58,0-4.08-3.26-4.08-6.31,0-3.84,1.32-6.26,4.17-6.26,3.22,0,4,2.61,4,5.66,0,.24,0,.65,0,.94Zm4.61-1.37c0-2.11-.46-3.75-2.21-3.75-2.23,0-2.35,2.91-2.37,3.75Z"/><path class="a" d="M90.54,150.58c0-2.5,0-3.22,0-3.77h1.7a14,14,0,0,1,.08,1.58,2.86,2.86,0,0,1,2.88-1.8c1.75,0,3.12,1,3.12,3.72V159H96.52v-8.33c0-1.49-.48-2.5-1.87-2.5-1.63,0-2.33,1.08-2.33,3.58V159H90.54Z"/><path class="a" d="M99.66,146.81h1.73v-3.24h1.73v3.24h2.13v1.51h-2.13v8c0,.84.19,1.37,1.1,1.37a4.52,4.52,0,0,0,.87-.08V159a4.8,4.8,0,0,1-1.44.19c-1.42,0-2.26-.57-2.26-2.49v-8.33H99.66Z"/><path class="a" d="M108.09,155.47c.07,1.3.74,2.28,2.13,2.28a1.77,1.77,0,0,0,2-1.92c0-1.25-.62-1.82-2.23-2.45-2.52-1-3.24-1.87-3.24-3.57a3.12,3.12,0,0,1,3.48-3.22,3.2,3.2,0,0,1,3.5,3.48H112c0-.6-.17-2-1.85-2a1.54,1.54,0,0,0-1.68,1.68c0,1,.43,1.44,2.11,2.11,2.36.89,3.39,1.76,3.39,3.84,0,2.24-1.39,3.53-3.82,3.53a3.48,3.48,0,0,1-3.82-3.72Z"/><path class="a" d="M115.05,147.36a21.91,21.91,0,0,0,.84-5.54h1.7a16.74,16.74,0,0,1-1.13,5.54Z"/><path class="a" d="M124.17,163.44V150.36c0-1.66,0-2.78,0-3.55h1.71c0,.21.07,1,.07,1.63a2.79,2.79,0,0,1,2.88-1.82c2.3,0,3.55,2,3.55,6.09,0,4.39-1.51,6.48-3.89,6.48a2.54,2.54,0,0,1-2.54-1.46v5.71Zm4.1-15.29c-1.9,0-2.4,1.8-2.4,4.68s.26,4.83,2.28,4.83c1.61,0,2.42-1.88,2.42-4.85S129.85,148.15,128.27,148.15Z"/><path class="a" d="M142.5,152.76c0,4.27-1.44,6.43-4.17,6.43s-4.2-2.09-4.2-6.41,1.65-6.16,4.27-6.16S142.5,148.66,142.5,152.76Zm-6.57.05c0,3.29.81,4.87,2.4,4.87s2.37-1.61,2.37-4.9c0-3.12-.77-4.65-2.37-4.65S135.93,149.5,135.93,152.81Z"/><path class="a" d="M144.78,163.44V150.36c0-1.66,0-2.78,0-3.55h1.7c0,.21.07,1,.07,1.63a2.79,2.79,0,0,1,2.88-1.82c2.31,0,3.56,2,3.56,6.09,0,4.39-1.52,6.48-3.89,6.48a2.55,2.55,0,0,1-2.55-1.46v5.71Zm4.11-15.29c-1.9,0-2.4,1.8-2.4,4.68s.26,4.83,2.28,4.83c1.6,0,2.42-1.88,2.42-4.85S150.47,148.15,148.89,148.15Z"/><path class="a" d="M162.93,155.64c0,1.54,0,2.76,0,3.34h-1.68a12.56,12.56,0,0,1-.07-1.64,2.83,2.83,0,0,1-2.91,1.85c-1.41,0-3-.57-3-3.62v-8.76H157v8.33c0,1.56.43,2.49,1.83,2.49s2.3-.81,2.3-3.43v-7.39h1.78Z"/><path class="a" d="M165.78,159V141.89h1.75V159Z"/><path class="a" d="M177.37,156.82c0,.76,0,1.77.1,2.16h-1.61a7.43,7.43,0,0,1-.12-1.4,2.84,2.84,0,0,1-2.88,1.61c-2.35,0-3.19-1.82-3.19-3.53,0-2.2,1.51-3.88,4.7-3.88a11.49,11.49,0,0,1,1.28,0v-1.63c0-.93-.2-2.16-1.83-2.16-1.8,0-1.92,1.3-2,2.11h-1.68c0-1.75.86-3.52,3.72-3.52,2.35,0,3.5,1.12,3.5,3.38Zm-1.7-3.6a6.76,6.76,0,0,0-1.2-.08c-2.16,0-3.05,1-3.05,2.4a1.92,1.92,0,0,0,1.9,2.16c1.77,0,2.35-1.27,2.35-3.84Z"/><path class="a" d="M178.77,146.81h1.72v-3.24h1.73v3.24h2.14v1.51h-2.14v8c0,.84.19,1.37,1.11,1.37a4.49,4.49,0,0,0,.86-.08V159a4.76,4.76,0,0,1-1.44.19c-1.42,0-2.26-.57-2.26-2.49v-8.33h-1.72Z"/><path class="a" d="M186.09,144.41v-2.52h1.77v2.52Zm0,2.4h1.75V159h-1.75Z"/><path class="a" d="M198.52,152.76c0,4.27-1.44,6.43-4.18,6.43s-4.2-2.09-4.2-6.41,1.66-6.16,4.27-6.16S198.52,148.66,198.52,152.76Zm-6.58.05c0,3.29.82,4.87,2.4,4.87s2.38-1.61,2.38-4.9c0-3.12-.77-4.65-2.38-4.65S191.94,149.5,191.94,152.81Z"/><path class="a" d="M200.8,150.58c0-2.5,0-3.22,0-3.77h1.71c0,.29.07.77.07,1.58a2.86,2.86,0,0,1,2.88-1.8c1.75,0,3.12,1,3.12,3.72V159h-1.78v-8.33c0-1.49-.48-2.5-1.87-2.5-1.63,0-2.33,1.08-2.33,3.58V159H200.8Z"/><path class="a" d="M18.82,220.15V185.78a18.06,18.06,0,0,1-5.64,1.68v-3.54a15.41,15.41,0,0,0,7-3.54h3v39.77Z"/><path class="a" d="M27,227a49.55,49.55,0,0,0,3.3-14.46H34.6a38.47,38.47,0,0,1-4,14.46Z"/><path class="a" d="M59.38,199.94c0,14.45-2.76,20.81-10.38,20.81-7.92,0-10.44-7-10.44-20.87,0-15.06,3.9-19.8,10.62-19.8C56.32,180.08,59.38,185.66,59.38,199.94Zm-16.32-.19C43.06,211.09,44.2,217,49,217s5.94-5.58,5.94-17.09c0-11.7-1.44-16-5.88-16C44.8,183.86,43.06,187.88,43.06,199.75Z"/><path class="a" d="M82.36,180.56v3.54c-5.28,9.42-9.78,23-11.64,36.05H66.1c1.68-12.48,7-27.47,11.82-35.63H62.68v-4Z"/><path class="a" d="M106.3,199.94c0,14.45-2.76,20.81-10.38,20.81-7.92,0-10.44-7-10.44-20.87,0-15.06,3.9-19.8,10.62-19.8C103.24,180.08,106.3,185.66,106.3,199.94ZM90,199.75C90,211.09,91.12,217,95.92,217s5.94-5.58,5.94-17.09c0-11.7-1.44-16-5.88-16C91.72,183.86,90,187.88,90,199.75Z"/><path class="a" d="M108.1,227a49.55,49.55,0,0,0,3.3-14.46h4.26a38.47,38.47,0,0,1-4,14.46Z"/><path class="a" d="M119.62,220.15v-.3c.06-4.92,2.82-10.32,9-17.1,5-5.57,6.6-7.61,6.6-12.17,0-3.54-1-6.84-5.16-6.84-3.78,0-5.4,2.94-5.58,7.62h-4.32c.06-5.76,2.76-11.28,10-11.28s9.6,4.74,9.6,10.56c0,5.4-1.8,8.1-7.08,13.68-4.74,5.09-7.2,9.17-7.92,11.93h16.14l-.66,3.9Z"/><path class="a" d="M160,188.78c-.12-.66-.42-5-4.8-5-6.12,0-6.3,9.48-6.48,14.64a7.67,7.67,0,0,1,7.2-4.14c6.06,0,9.12,4.86,9.12,12.6,0,7.25-2.64,13.91-10.38,13.91-8.58,0-10.38-8.1-10.38-19.43,0-12.84,2.52-21.24,11.1-21.24,7.32,0,8.64,6.12,8.76,8.7Zm.6,18.41c0-5.75-1.56-9.17-5.7-9.17-4.5,0-6.18,3.71-6.18,7.49,0,5.34,1.14,11.58,6,11.58C158.38,217.09,160.6,213.85,160.6,207.19Z"/><path class="a" d="M190.54,199.94c0,14.45-2.76,20.81-10.38,20.81-7.92,0-10.44-7-10.44-20.87,0-15.06,3.9-19.8,10.62-19.8C187.48,180.08,190.54,185.66,190.54,199.94Zm-16.32-.19c0,11.34,1.14,17.22,5.94,17.22s5.94-5.58,5.94-17.09c0-11.7-1.44-16-5.88-16C176,183.86,174.22,187.88,174.22,199.75Z"/><path class="a" d="M18.82,101.31V66.94a18.31,18.31,0,0,1-5.64,1.67V65.08a15.41,15.41,0,0,0,7-3.54h3v39.77Z"/><path class="a" d="M27,108.15a49.55,49.55,0,0,0,3.3-14.46H34.6a38.47,38.47,0,0,1-4,14.46Z"/><path class="a" d="M38.68,90.15c0-6.42,3-9,5.1-10.08-2.4-1.38-4.14-4.14-4.14-8.52,0-5.46,3-10.31,9.54-10.31,6.24,0,9.12,4.43,9.12,9.89S56.26,79,54.1,80c2.82,1.26,5.16,4.26,5.16,10.26,0,6.72-3.42,11.64-10.5,11.64C41.92,101.85,38.68,96.81,38.68,90.15Zm16.14,0c0-5.4-1.8-8.16-5.88-8.16-4.44,0-5.88,3.3-5.88,8s1.74,8.16,5.88,8.16S54.82,95.07,54.82,90.15ZM44,71.37c0,4.08,1.32,6.9,5.1,6.9,3.24,0,5-2,5-6.84,0-3.53-1.38-6.59-5.1-6.59S44,68,44,71.37Z"/><path class="a" d="M67.36,101.31V66.94a18.31,18.31,0,0,1-5.64,1.67V65.08a15.41,15.41,0,0,0,7-3.54h3v39.77Z"/><path class="a" d="M96.88,61.71v3.54c-5.28,9.42-9.78,23-11.64,36.06H80.62c1.68-12.48,7-27.48,11.82-35.64H77.2v-4Z"/><path class="a" d="M3.62,25.42H0V23.84H9.05v1.58H5.42V40.14H3.62Z"/><path class="a" d="M16.44,33.92c0,4.27-1.44,6.43-4.18,6.43s-4.2-2.09-4.2-6.41,1.66-6.16,4.28-6.16S16.44,29.82,16.44,33.92ZM9.86,34c0,3.29.82,4.87,2.4,4.87s2.38-1.61,2.38-4.9c0-3.12-.77-4.65-2.38-4.65S9.86,30.66,9.86,34Z"/><path class="a" d="M17.28,28H19V24.73h1.73V28h2.13v1.51H20.74v8c0,.84.19,1.37,1.1,1.37a4.34,4.34,0,0,0,.86-.08v1.37a4.72,4.72,0,0,1-1.44.19c-1.41,0-2.25-.57-2.25-2.49V29.48H17.28Z"/><path class="a" d="M31.61,38c0,.76.05,1.77.09,2.16H30.1a6.68,6.68,0,0,1-.12-1.4,2.84,2.84,0,0,1-2.88,1.61c-2.36,0-3.2-1.82-3.2-3.53,0-2.2,1.52-3.88,4.71-3.88a11.38,11.38,0,0,1,1.27,0V31.35c0-.93-.19-2.16-1.82-2.16-1.8,0-1.92,1.3-2,2.11H24.38c.05-1.75.87-3.52,3.72-3.52,2.36,0,3.51,1.12,3.51,3.38Zm-1.71-3.6a6.68,6.68,0,0,0-1.2-.08c-2.16,0-3,1-3,2.4a1.92,1.92,0,0,0,1.89,2.16c1.78,0,2.35-1.27,2.35-3.84Z"/><path class="a" d="M34.51,40.14V23.05h1.75V40.14Z"/><path class="a" d="M43.73,31.74c0-2.5,0-3.22,0-3.77h1.71c0,.29.07.77.07,1.58a2.86,2.86,0,0,1,2.88-1.8c1.75,0,3.12,1,3.12,3.72v8.67H49.7V31.81c0-1.49-.48-2.5-1.87-2.5-1.63,0-2.33,1.08-2.33,3.58v7.25H43.73Z"/><path class="a" d="M62,36.8c0,1.54,0,2.76,0,3.34H60.36a12.56,12.56,0,0,1-.07-1.64,2.83,2.83,0,0,1-2.91,1.85c-1.41,0-3.05-.57-3.05-3.62V28h1.78V36.3c0,1.56.43,2.49,1.83,2.49s2.3-.81,2.3-3.43V28H62Z"/><path class="a" d="M64.75,31.62c0-2.16,0-3.08,0-3.65h1.7a13.45,13.45,0,0,1,.07,1.56,2.76,2.76,0,0,1,2.71-1.75,2.33,2.33,0,0,1,2.53,1.8,3,3,0,0,1,3-1.8c1.51,0,2.93.72,2.93,3.52v8.84H75.89V31.59c0-1.22-.36-2.28-1.73-2.28-1.54,0-2.06,1.39-2.06,3v7.8H70.34v-8.5c0-1.49-.5-2.3-1.7-2.3-1.44,0-2.14,1.32-2.14,3.16v7.64H64.75Z"/><path class="a" d="M80.52,23.05h1.75v6.53a2.88,2.88,0,0,1,2.9-1.8c2.33,0,3.56,1.94,3.56,6,0,3.75-1,6.58-3.89,6.58A2.59,2.59,0,0,1,82.2,38.7c0,.4,0,1,0,1.44H80.49c0-.65,0-1.85,0-3.34Zm4.17,6.26c-1.87,0-2.49,1.68-2.49,4.78,0,2.9.48,4.7,2.33,4.7,1.6,0,2.4-1.58,2.4-5C86.93,30.73,86.23,29.31,84.69,29.31Z"/><path class="a" d="M92.21,34.38c0,2.37.4,4.46,2.32,4.46a2.23,2.23,0,0,0,2.21-2.18h1.73a3.85,3.85,0,0,1-4,3.69c-3.58,0-4.08-3.26-4.08-6.31,0-3.84,1.32-6.26,4.18-6.26,3.21,0,4,2.61,4,5.66,0,.24,0,.65,0,.94ZM96.81,33c0-2.11-.45-3.75-2.2-3.75-2.24,0-2.36,2.91-2.38,3.75Z"/><path class="a" d="M100.8,32.12c0-1.94,0-3.29,0-4.15h1.68a21.16,21.16,0,0,1,.08,2.16,3.3,3.3,0,0,1,3.21-2.35v1.94c-2.09.07-3.19,1.39-3.19,3.62v6.8H100.8Z"/><path class="a" d="M119.78,33.92c0,4.27-1.44,6.43-4.17,6.43s-4.2-2.09-4.2-6.41,1.65-6.16,4.27-6.16S119.78,29.82,119.78,33.92Zm-6.57,0c0,3.29.81,4.87,2.4,4.87s2.37-1.61,2.37-4.9c0-3.12-.77-4.65-2.37-4.65S113.21,30.66,113.21,34Z"/><path class="a" d="M122.35,40.14V29.48h-1.59V28h1.59V26.29c0-1.8.65-3.39,2.86-3.39a3.69,3.69,0,0,1,1,.15v1.53a3.63,3.63,0,0,0-.81-.09c-1,0-1.3.6-1.3,1.85V28H126v1.51H124.1V40.14Z"/><path class="a" d="M132.69,36.63a2.11,2.11,0,0,0,2.14,2.28,1.77,1.77,0,0,0,2-1.92c0-1.25-.63-1.82-2.24-2.45-2.52-1-3.24-1.87-3.24-3.57a3.13,3.13,0,0,1,3.49-3.22,3.2,3.2,0,0,1,3.5,3.48H136.6c0-.6-.16-2-1.84-2a1.53,1.53,0,0,0-1.68,1.68c0,1,.43,1.44,2.11,2.11,2.35.89,3.38,1.76,3.38,3.84,0,2.24-1.39,3.53-3.81,3.53a3.48,3.48,0,0,1-3.82-3.72Z"/><path class="a" d="M148,36.42c-.05.64-.31,3.93-3.89,3.93-3.17,0-4-2.81-4-6.33s1.1-6.27,4.2-6.27c3.53,0,3.7,3.27,3.72,3.84h-1.8c0-.48-.19-2.33-1.92-2.33s-2.4,1.92-2.4,4.73c0,3,.67,4.85,2.3,4.85s2-1.78,2.07-2.42Z"/><path class="a" d="M151.89,23.05v6.41a2.88,2.88,0,0,1,2.91-1.71c1.77,0,3.07,1.13,3.07,3.72v8.67h-1.78V31.83c0-1.49-.43-2.52-1.92-2.52-1.68,0-2.28,1.39-2.28,3.51v7.32h-1.77V23.05Z"/><path class="a" d="M168.48,33.92c0,4.27-1.44,6.43-4.18,6.43s-4.2-2.09-4.2-6.41,1.66-6.16,4.27-6.16S168.48,29.82,168.48,33.92Zm-6.58,0c0,3.29.82,4.87,2.4,4.87s2.38-1.61,2.38-4.9c0-3.12-.77-4.65-2.38-4.65S161.9,30.66,161.9,34Z"/><path class="a" d="M178.6,33.92c0,4.27-1.44,6.43-4.17,6.43s-4.2-2.09-4.2-6.41,1.65-6.16,4.27-6.16S178.6,29.82,178.6,33.92ZM172,34c0,3.29.81,4.87,2.4,4.87s2.37-1.61,2.37-4.9c0-3.12-.76-4.65-2.37-4.65S172,30.66,172,34Z"/><path class="a" d="M180.88,40.14V23.05h1.76V40.14Z"/><path class="a" d="M186.38,36.63c.07,1.3.74,2.28,2.14,2.28a1.76,1.76,0,0,0,2-1.92c0-1.25-.62-1.82-2.23-2.45-2.52-1-3.24-1.87-3.24-3.57a3.12,3.12,0,0,1,3.48-3.22A3.21,3.21,0,0,1,192,31.23h-1.71c0-.6-.17-2-1.85-2a1.54,1.54,0,0,0-1.68,1.68c0,1,.44,1.44,2.12,2.11,2.35.89,3.38,1.76,3.38,3.84,0,2.24-1.39,3.53-3.82,3.53a3.48,3.48,0,0,1-3.81-3.72Z"/><rect class="b" x="12.52" y="289.78" width="291.75" height="24.79"/><path class="a" d="M283,325.93h-2.92c0,.88-.21,2.41-.26,2.91a1.69,1.69,0,0,1,1.47-.64c1.48,0,2.14,1.2,2.14,2.87s-.57,3.34-2.46,3.34a2.2,2.2,0,0,1-2.33-2.4h1c.06.63.26,1.53,1.33,1.53s1.36-1,1.36-2.37-.28-2.1-1.29-2.1c-.79,0-1.14.49-1.35,1.15l-1-.17c.16-1.07.38-3.64.48-5h3.89Z"/><path class="a" d="M284.36,334.29v-1.93h1v1.93Z"/><path class="a" d="M289.43,334.28v-2.45h-3.32V331l3-5.93h1.31V331h.91l-.11.88h-.8v2.45Zm0-5.88c0-.83,0-1.75,0-2.46-.42,1.1-1.63,3.55-2.35,5h2.31Z"/><path class="a" d="M293.39,330.53c.46-.71,1.67-2.39,2.31-3.35h1.14c-.63.89-1.3,1.8-2,2.7l2.17,4.4h-1.18l-1.69-3.57-.79,1.05v2.52h-1v-10h1Z"/><path class="a" d="M303.39,330.11l-5.59,2.57v-.92l4.63-2.05-4.63-2.11v-.93l5.59,2.59Zm-5.59,4.17v-.83h5.59v.83Z"/><path class="a" d="M231.6,334.28v-2.45h-3.32V331l3-5.93h1.32V331h.91l-.11.88h-.8v2.45Zm0-5.88c0-.83,0-1.75,0-2.46-.42,1.1-1.64,3.55-2.35,5h2.31Z"/><path class="a" d="M234.37,334.29v-1.93h1v1.93Z"/><path class="a" d="M236.72,327.25a2.13,2.13,0,0,1,2.21-2.33c1.55,0,2.12,1,2.12,2.3a1.9,1.9,0,0,1-1.12,2h0a2.17,2.17,0,0,1,1.4,2.36c0,1.41-.56,2.83-2.47,2.83a2.19,2.19,0,0,1-2.32-2.4h1c0,.73.38,1.54,1.36,1.54s1.39-1,1.39-1.95c0-1.49-.67-1.89-1.71-1.89h-.39v-.87h.39c.9,0,1.44-.36,1.44-1.56,0-.87-.26-1.5-1.13-1.5-1.07,0-1.18,1.05-1.21,1.47Z"/><path class="a" d="M243.64,330.53c.46-.71,1.67-2.39,2.31-3.35h1.13c-.63.89-1.3,1.8-2,2.7l2.17,4.4h-1.17l-1.7-3.57c-.19.26-.57.78-.78,1.05v2.52h-1v-10h1Z"/><path class="a" d="M175,327.25a2.14,2.14,0,0,1,2.22-2.33c1.54,0,2.11,1,2.11,2.3a1.9,1.9,0,0,1-1.12,2h0a2.17,2.17,0,0,1,1.4,2.36c0,1.41-.56,2.83-2.46,2.83a2.2,2.2,0,0,1-2.33-2.4h1a1.39,1.39,0,0,0,1.36,1.54c1.12,0,1.38-1,1.38-1.95,0-1.49-.67-1.89-1.71-1.89h-.39v-.87h.39c.9,0,1.45-.36,1.45-1.56,0-.87-.27-1.5-1.14-1.5-1.06,0-1.17,1.05-1.2,1.47Z"/><path class="a" d="M180.76,334.29v-1.93h1v1.93Z"/><path class="a" d="M182.94,334.28v-.07c0-1.15.66-2.41,2.1-4,1.18-1.31,1.54-1.78,1.54-2.85,0-.82-.23-1.59-1.2-1.59s-1.26.68-1.3,1.78h-1c0-1.35.64-2.64,2.32-2.64s2.24,1.11,2.24,2.47-.42,1.89-1.65,3.19a7.57,7.57,0,0,0-1.85,2.79h3.77l-.15.91Z"/><path class="a" d="M190,330.53c.46-.71,1.66-2.39,2.31-3.35h1.13c-.63.89-1.3,1.8-2,2.7l2.17,4.4h-1.17l-1.7-3.57c-.2.26-.57.78-.78,1.05v2.52h-1v-10h1Z"/><path class="a" d="M121.19,334.28v-.07c0-1.15.66-2.41,2.1-4,1.18-1.31,1.54-1.78,1.54-2.85,0-.82-.24-1.59-1.2-1.59s-1.26.68-1.31,1.78h-1c0-1.35.64-2.64,2.32-2.64s2.24,1.11,2.24,2.47-.42,1.89-1.65,3.19a7.44,7.44,0,0,0-1.85,2.79h3.77l-.16.91Z"/><path class="a" d="M127.2,334.29v-1.93h1v1.93Z"/><path class="a" d="M129.38,334.28v-.07c0-1.15.66-2.41,2.1-4,1.18-1.31,1.54-1.78,1.54-2.85,0-.82-.24-1.59-1.2-1.59s-1.26.68-1.31,1.78h-1c0-1.35.64-2.64,2.32-2.64s2.24,1.11,2.24,2.47-.42,1.89-1.65,3.19a7.44,7.44,0,0,0-1.85,2.79h3.77l-.16.91Z"/><path class="a" d="M136.4,330.53c.46-.71,1.66-2.39,2.31-3.35h1.13c-.63.89-1.3,1.8-2,2.7l2.17,4.4h-1.18l-1.69-3.57-.78,1.05v2.52h-1v-10h1Z"/><path class="a" d="M71.21,334.28v-8a4.24,4.24,0,0,1-1.31.4v-.83a3.57,3.57,0,0,0,1.63-.83h.7v9.29Z"/><path class="a" d="M73.8,334.29v-1.93h1v1.93Z"/><path class="a" d="M76.46,334.28v-8a4.24,4.24,0,0,1-1.31.4v-.83a3.57,3.57,0,0,0,1.63-.83h.7v9.29Z"/><path class="a" d="M80.4,330.53c.46-.71,1.66-2.39,2.31-3.35h1.13c-.63.89-1.3,1.8-2,2.7l2.17,4.4H82.88l-1.7-3.57c-.2.26-.57.78-.78,1.05v2.52h-1v-10h1Z"/><path class="a" d="M12.82,334.28v-.07c0-1.15.66-2.41,2.1-4,1.18-1.31,1.54-1.78,1.54-2.85,0-.82-.24-1.59-1.2-1.59s-1.26.68-1.31,1.78h-1c0-1.35.65-2.64,2.33-2.64s2.24,1.11,2.24,2.47-.42,1.89-1.65,3.19A7.44,7.44,0,0,0,14,333.37h3.77l-.16.91Z"/><path class="a" d="M23.47,329.56c0,3.37-.64,4.86-2.42,4.86s-2.44-1.64-2.44-4.87c0-3.52.91-4.63,2.48-4.63S23.47,326.23,23.47,329.56Zm-3.8,0c0,2.64.26,4,1.38,4s1.39-1.31,1.39-4-.34-3.75-1.37-3.75S19.67,326.74,19.67,329.52Z"/><path class="a" d="M25,329.25l5.59-2.58v.93L26,329.66l4.61,2.11v.91L25,330.08Zm0,5v-.83h5.59v.83Z"/><g class="c"><path class="a" d="M1.36,391.49c.09,1.4.81,2.48,2.3,2.48s2.22-.72,2.22-2.44c0-1.46-.54-2.22-2.29-3.07S.92,386.77.92,385a2.7,2.7,0,0,1,2.83-2.87c2.11,0,2.72,1.59,2.76,2.94h-.8a2.06,2.06,0,0,0-2-2.2,1.85,1.85,0,0,0-1.95,2c0,1.36.6,2,2.2,2.77,2.11,1,2.77,2.07,2.77,3.76,0,1.95-1,3.24-3.08,3.24-2.23,0-3-1.47-3.11-3.22Z"/><path class="a" d="M14,389.94c0,3.1-1,4.79-2.9,4.79S8.21,393.09,8.21,390s1.14-4.54,3-4.54S14,386.92,14,389.94Zm-5,0c0,2.79.79,4,2.09,4s2.09-1.28,2.09-4.07c0-2.5-.74-3.8-2.09-3.8S9,387.2,9,390Z"/><path class="a" d="M21.16,392.21c0,1,0,1.94,0,2.36h-.74a8.87,8.87,0,0,1-.06-1.35,2.16,2.16,0,0,1-2.23,1.51c-.9,0-2.25-.29-2.25-2.68v-6.48h.79v6.26c0,1.33.42,2.18,1.64,2.18s2-.74,2-3v-5.42h.79Z"/><path class="a" d="M23.48,388.64c0-1.4,0-2.43,0-3.07h.76c0,.27,0,.72,0,1.67a2.59,2.59,0,0,1,2.4-1.8v.85c-1.59.09-2.4,1.42-2.4,3v5.24h-.77Z"/><path class="a" d="M32.86,392c0,.33-.26,2.72-2.67,2.72-2.19,0-2.82-2.09-2.82-4.66s.84-4.65,2.95-4.65a2.53,2.53,0,0,1,2.54,2.67H32c0-.38-.18-1.95-1.71-1.95s-2.13,1.68-2.13,3.91c0,2.43.62,4,2,4s1.75-1.55,1.82-2Z"/><path class="a" d="M35,390.1c0,2.18.39,3.91,2,3.91s1.87-1.64,1.92-1.89h.79A2.75,2.75,0,0,1,37,394.73c-2.49,0-2.83-2.41-2.83-4.63,0-2.84.9-4.68,2.91-4.68,2.2,0,2.71,1.95,2.71,4.13,0,.07,0,.3,0,.55Zm4-.7c0-2-.48-3.26-1.92-3.26-2,0-2.06,2.67-2.07,3.26Z"/><path class="a" d="M1.23,416.17V403.94H2.89c3.38,8.46,3.85,9.62,4,10.14h0c-.09-1.64-.11-3.48-.11-5.47v-4.67H8.07v12.23H6.49c-3.51-8.9-3.95-10-4.09-10.5h0c.09,1.53.11,3.53.11,5.73v4.77Z"/><path class="a" d="M11.24,411.85c0,1.78.3,3.35,1.74,3.35a1.67,1.67,0,0,0,1.66-1.64h1.3a2.89,2.89,0,0,1-3,2.77c-2.69,0-3.06-2.45-3.06-4.74,0-2.88,1-4.69,3.13-4.69,2.41,0,3,2,3,4.24,0,.18,0,.49,0,.71Zm3.46-1c0-1.58-.35-2.81-1.66-2.81-1.68,0-1.77,2.18-1.78,2.81Z"/><path class="a" d="M18.28,407c.88,4.32,1.31,6.41,1.47,7.65h0c.18-1.19.56-2.61,1.69-7.65h1.26c1.07,4.79,1.48,6.63,1.61,7.62h0c.15-1,.49-2.63,1.53-7.62h1.36L25,416.17h-1.4c-.65-3-1.33-6-1.55-7.37h0c-.16,1.35-.83,4-1.62,7.37H19L16.87,407Z"/><path class="a" d="M33.92,416.17V411.5a.78.78,0,0,0-.07-.3l-3.12-7.26h1.51c.83,2.07,2,4.94,2.38,6.05.43-1.19,1.62-4.09,2.41-6.05h1.43l-3.14,7.26a.8.8,0,0,0-.07.32v4.65Z"/><path class="a" d="M44.14,411.5c0,3.21-1.08,4.83-3.13,4.83s-3.15-1.57-3.15-4.81,1.24-4.62,3.2-4.62S44.14,408.43,44.14,411.5Zm-4.93,0c0,2.47.61,3.66,1.8,3.66s1.78-1.21,1.78-3.68S42.22,408,41,408,39.21,409.06,39.21,411.54Z"/><path class="a" d="M45.85,410.15c0-1.45,0-2.46,0-3.11h1.26c0,.23.06.67.06,1.62a2.47,2.47,0,0,1,2.41-1.76v1.45c-1.57.06-2.39,1-2.39,2.72v5.1H45.85Z"/><path class="a" d="M52.13,411.34c.6-.9,2.15-3.06,3-4.3h1.46c-.81,1.15-1.67,2.32-2.52,3.47l2.79,5.66H55.32l-2.18-4.59c-.25.34-.74,1-1,1.35v3.24H50.82V403.35h1.31Z"/><path class="a" d="M67.69,412.78c-.06.71-.36,3.57-3.34,3.57-3.25,0-3.51-3.44-3.51-6.38,0-3.56,1-6.21,3.66-6.21,3,0,3.11,2.76,3.15,3.51H66.3c0-.41-.11-2.3-1.82-2.3-1.93,0-2.23,2.63-2.23,5,0,2.58.29,5.19,2.14,5.19,1.64,0,1.87-1.76,1.93-2.38Z"/><path class="a" d="M69.38,405.24v-1.89h1.33v1.89Zm0,1.8h1.31v9.13H69.38Z"/><path class="a" d="M71.91,407h1.3v-2.43h1.3V407h1.6v1.13h-1.6v6c0,.63.14,1,.82,1a3.13,3.13,0,0,0,.65-.06v1a3.6,3.6,0,0,1-1.08.14c-1.06,0-1.69-.43-1.69-1.87v-6.25h-1.3Z"/><path class="a" d="M78.3,407c1,3.82,1.73,6.55,1.86,7.53h0c.18-1.05,1-4.18,1.87-7.53H83.4l-2.67,9.6c-.73,2.66-1.44,3-2.73,3a4.8,4.8,0,0,1-.67-.05v-1.17l.61,0c1,0,1.23-.65,1.59-2.1L76.85,407Z"/><path class="a" d="M88.2,403.94h2.72c2.83,0,4.09,2,4.09,5.8,0,4.14-1.14,6.43-4.29,6.43H88.2ZM89.55,415h1.12c2.25,0,3-1.77,3-5.24,0-3.24-.83-4.69-2.93-4.69H89.55Z"/><path class="a" d="M97.89,411.85c0,1.78.3,3.35,1.74,3.35a1.68,1.68,0,0,0,1.66-1.64h1.3a2.89,2.89,0,0,1-3,2.77c-2.69,0-3.07-2.45-3.07-4.74,0-2.88,1-4.69,3.14-4.69,2.41,0,3,2,3,4.24,0,.18,0,.49,0,.71Zm3.45-1c0-1.58-.34-2.81-1.65-2.81-1.68,0-1.77,2.18-1.79,2.81Z"/><path class="a" d="M104.33,419.52V409.7c0-1.24,0-2.08,0-2.66h1.28c0,.16.06.77.06,1.22a2.08,2.08,0,0,1,2.16-1.36c1.72,0,2.66,1.53,2.66,4.57,0,3.29-1.13,4.86-2.92,4.86a1.9,1.9,0,0,1-1.9-1.1v4.29Zm3.08-11.47c-1.42,0-1.8,1.35-1.8,3.51s.2,3.62,1.71,3.62c1.21,0,1.82-1.41,1.82-3.64S108.6,408.05,107.41,408.05Z"/><path class="a" d="M117.45,414.55a16.05,16.05,0,0,0,.08,1.62h-1.21a5.77,5.77,0,0,1-.09-1.05,2.13,2.13,0,0,1-2.16,1.21,2.36,2.36,0,0,1-2.39-2.65c0-1.65,1.13-2.91,3.52-2.91a8.57,8.57,0,0,1,1,0v-1.22c0-.7-.15-1.62-1.37-1.62s-1.44,1-1.49,1.58H112a2.47,2.47,0,0,1,2.79-2.64c1.76,0,2.62.84,2.62,2.53Zm-1.27-2.7a4.9,4.9,0,0,0-.9-.06c-1.62,0-2.29.78-2.29,1.8a1.44,1.44,0,0,0,1.42,1.62c1.33,0,1.77-.95,1.77-2.88Z"/><path class="a" d="M119.63,410.15c0-1.45,0-2.46,0-3.11h1.26c0,.23.06.67.06,1.62a2.47,2.47,0,0,1,2.41-1.76v1.45c-1.57.06-2.4,1-2.4,2.72v5.1h-1.31Z"/><path class="a" d="M124.08,407h1.29v-2.43h1.3V407h1.6v1.13h-1.6v6c0,.63.14,1,.83,1a3.27,3.27,0,0,0,.65-.06v1a3.71,3.71,0,0,1-1.09.14c-1.06,0-1.69-.43-1.69-1.87v-6.25h-1.29Z"/><path class="a" d="M129.51,409.78c0-1.62,0-2.31,0-2.74h1.28a9.42,9.42,0,0,1,.06,1.17,2.08,2.08,0,0,1,2-1.31,1.75,1.75,0,0,1,1.89,1.35A2.26,2.26,0,0,1,137,406.9c1.13,0,2.19.54,2.19,2.64v6.63h-1.29v-6.41c0-.92-.27-1.71-1.3-1.71s-1.55,1-1.55,2.27v5.85h-1.31v-6.38c0-1.11-.38-1.72-1.28-1.72-1.08,0-1.6,1-1.6,2.37v5.73h-1.32Z"/><path class="a" d="M142.2,411.85c0,1.78.31,3.35,1.75,3.35a1.66,1.66,0,0,0,1.65-1.64h1.3a2.89,2.89,0,0,1-3,2.77c-2.68,0-3.06-2.45-3.06-4.74,0-2.88,1-4.69,3.13-4.69,2.41,0,3,2,3,4.24,0,.18,0,.49,0,.71Zm3.46-1c0-1.58-.34-2.81-1.66-2.81-1.67,0-1.76,2.18-1.78,2.81Z"/><path class="a" d="M148.65,409.87c0-1.88,0-2.42,0-2.83h1.28c0,.22.05.58.05,1.19a2.15,2.15,0,0,1,2.16-1.35c1.32,0,2.34.75,2.34,2.79v6.5h-1.33v-6.25c0-1.12-.36-1.87-1.41-1.87-1.22,0-1.74.81-1.74,2.68v5.44h-1.33Z"/><path class="a" d="M155.48,407h1.3v-2.43h1.3V407h1.6v1.13h-1.6v6c0,.63.14,1,.83,1a3.1,3.1,0,0,0,.64-.06v1a3.6,3.6,0,0,1-1.08.14c-1.06,0-1.69-.43-1.69-1.87v-6.25h-1.3Z"/><path class="a" d="M170.19,411.5c0,3.21-1.08,4.83-3.13,4.83s-3.15-1.57-3.15-4.81,1.24-4.62,3.2-4.62S170.19,408.43,170.19,411.5Zm-4.93,0c0,2.47.61,3.66,1.8,3.66s1.78-1.21,1.78-3.68-.57-3.49-1.78-3.49S165.26,409.06,165.26,411.54Z"/><path class="a" d="M172.12,416.17v-8h-1.19V407h1.19v-1.26c0-1.35.48-2.54,2.14-2.54a2.84,2.84,0,0,1,.76.11v1.15a2.72,2.72,0,0,0-.62-.07c-.72,0-1,.45-1,1.39V407h1.44v1.13h-1.44v8Z"/><path class="a" d="M184.77,410.3h-4.09V415h4.54l-.18,1.19h-5.69V403.94H185v1.19h-4.29v4h4.09Z"/><path class="a" d="M192.35,403.35v10.48c0,.88,0,1.8,0,2.34h-1.28c0-.24-.06-.83-.06-1.23a2,2,0,0,1-2.14,1.39c-1.89,0-2.7-1.62-2.7-4.83,0-2.91,1.06-4.6,3-4.6a1.8,1.8,0,0,1,1.85.93v-4.48Zm-3.1,11.81c1.42,0,1.8-1.21,1.8-3.69,0-2.67-.38-3.42-1.69-3.42-1.08,0-1.82.95-1.82,3.47S188.14,415.16,189.25,415.16Z"/><path class="a" d="M200.25,413.67c0,1.15,0,2.07,0,2.5H199a8.67,8.67,0,0,1-.06-1.23,2.1,2.1,0,0,1-2.17,1.39c-1.07,0-2.29-.43-2.29-2.72V407h1.33v6.25c0,1.17.33,1.87,1.37,1.87s1.73-.61,1.73-2.57V407h1.33Z"/><path class="a" d="M207.88,413.38a2.85,2.85,0,0,1-2.91,2.95c-2.38,0-3-2.11-3-4.75s.83-4.7,3.15-4.7a2.72,2.72,0,0,1,2.79,2.88h-1.35c0-.36-.14-1.75-1.44-1.75s-1.8,1.44-1.8,3.55c0,2.27.51,3.64,1.73,3.64s1.48-1.34,1.55-1.82Z"/><path class="a" d="M214.74,414.55c0,.57,0,1.33.07,1.62h-1.2a5,5,0,0,1-.09-1.05,2.14,2.14,0,0,1-2.16,1.21,2.37,2.37,0,0,1-2.4-2.65c0-1.65,1.14-2.91,3.53-2.91a8.47,8.47,0,0,1,.95,0v-1.22c0-.7-.14-1.62-1.36-1.62s-1.44,1-1.5,1.58h-1.26a2.48,2.48,0,0,1,2.79-2.64c1.77,0,2.63.84,2.63,2.53Zm-1.28-2.7a4.82,4.82,0,0,0-.9-.06c-1.62,0-2.28.78-2.28,1.8a1.44,1.44,0,0,0,1.42,1.62c1.33,0,1.76-.95,1.76-2.88Z"/><path class="a" d="M215.78,407h1.3v-2.43h1.3V407H220v1.13h-1.6v6c0,.63.14,1,.82,1a3.13,3.13,0,0,0,.65-.06v1a3.6,3.6,0,0,1-1.08.14c-1.06,0-1.69-.43-1.69-1.87v-6.25h-1.3Z"/><path class="a" d="M221.27,405.24v-1.89h1.33v1.89Zm0,1.8h1.32v9.13h-1.32Z"/><path class="a" d="M230.6,411.5c0,3.21-1.08,4.83-3.13,4.83s-3.16-1.57-3.16-4.81,1.25-4.62,3.21-4.62S230.6,408.43,230.6,411.5Zm-4.94,0c0,2.47.62,3.66,1.81,3.66s1.78-1.21,1.78-3.68-.58-3.49-1.78-3.49S225.66,409.06,225.66,411.54Z"/><path class="a" d="M232.31,409.87c0-1.88,0-2.42,0-2.83h1.28c0,.22.05.58.05,1.19a2.15,2.15,0,0,1,2.16-1.35c1.32,0,2.34.75,2.34,2.79v6.5h-1.33v-6.25c0-1.12-.36-1.87-1.4-1.87-1.23,0-1.75.81-1.75,2.68v5.44h-1.33Z"/><path class="a" d="M247.07,403.29a12.89,12.89,0,0,0-2.31,7.57,13.63,13.63,0,0,0,2.31,7.79h-1.28a13.67,13.67,0,0,1-2.27-7.81,13.16,13.16,0,0,1,2.27-7.55Z"/><path class="a" d="M247.86,416.17v-.09c0-1.48.84-3.1,2.7-5.13,1.51-1.68,2-2.29,2-3.66,0-1.06-.31-2.05-1.55-2.05s-1.62.88-1.67,2.29H248c0-1.73.83-3.39,3-3.39s2.88,1.42,2.88,3.17-.54,2.43-2.12,4.1a9.47,9.47,0,0,0-2.38,3.59h4.84l-.2,1.17Z"/><path class="a" d="M261.56,410.1c0,4.34-.83,6.25-3.12,6.25s-3.13-2.11-3.13-6.27c0-4.52,1.17-5.94,3.19-5.94S261.56,405.82,261.56,410.1Zm-4.9-.05c0,3.4.34,5.16,1.78,5.16s1.79-1.67,1.79-5.13-.44-4.81-1.77-4.81S256.66,406.48,256.66,410.05Z"/><path class="a" d="M264.24,416.17V405.85a5.43,5.43,0,0,1-1.69.51v-1.07a4.6,4.6,0,0,0,2.1-1.06h.9v11.94Z"/><path class="a" d="M268.88,413.83a1.43,1.43,0,0,0,1.5,1.4c1.72,0,1.8-2.81,1.85-4.91a2,2,0,0,1-2,1.2c-1.73,0-2.72-1.28-2.72-3.53,0-2.54,1.17-3.85,3-3.85s3,1.19,3,5c0,5.12-.73,7.17-3.23,7.17a2.54,2.54,0,0,1-2.73-2.5Zm-.09-5.93c0,1.44.45,2.51,1.68,2.51s1.72-.94,1.72-2.33-.25-2.82-1.69-2.82C269.42,405.26,268.79,406.14,268.79,407.9Z"/><path class="a" d="M278.64,410.91v1.19H275v-1.19Z"/><path class="a" d="M279.52,416.17v-.09c0-1.48.85-3.1,2.7-5.13,1.51-1.68,2-2.29,2-3.66,0-1.06-.31-2.05-1.55-2.05s-1.62.88-1.67,2.29h-1.3c0-1.73.83-3.39,3-3.39s2.88,1.42,2.88,3.17-.54,2.43-2.12,4.1a9.6,9.6,0,0,0-2.38,3.59h4.84l-.2,1.17Z"/><path class="a" d="M293.22,410.1c0,4.34-.83,6.25-3.12,6.25s-3.13-2.11-3.13-6.27c0-4.52,1.17-5.94,3.19-5.94S293.22,405.82,293.22,410.1Zm-4.9-.05c0,3.4.34,5.16,1.78,5.16s1.79-1.67,1.79-5.13-.44-4.81-1.77-4.81S288.32,406.48,288.32,410.05Z"/><path class="a" d="M294.39,416.17v-.09c0-1.48.84-3.1,2.7-5.13,1.51-1.68,2-2.29,2-3.66,0-1.06-.31-2.05-1.55-2.05s-1.62.88-1.67,2.29h-1.3c0-1.73.83-3.39,3-3.39s2.88,1.42,2.88,3.17-.54,2.43-2.13,4.1a9.54,9.54,0,0,0-2.37,3.59h4.84l-.2,1.17Z"/><path class="a" d="M308.09,410.1c0,4.34-.83,6.25-3.12,6.25s-3.13-2.11-3.13-6.27c0-4.52,1.17-5.94,3.18-5.94S308.09,405.82,308.09,410.1Zm-4.9-.05c0,3.4.34,5.16,1.78,5.16s1.78-1.67,1.78-5.13-.43-4.81-1.76-4.81S303.19,406.48,303.19,410.05Z"/><path class="a" d="M309.36,418.65a12.92,12.92,0,0,0,2.31-7.58,13.77,13.77,0,0,0-2.31-7.78h1.28a13.62,13.62,0,0,1,2.25,7.8,13.33,13.33,0,0,1-2.25,7.56Z"/></g><path class="a" d="M1.63,275V258.7H3.84C8.35,270,9,271.52,9.19,272.21h0c-.12-2.18-.15-4.63-.15-7.29V258.7h1.68V275H8.64C4,263.14,3.38,261.65,3.19,261h0c.12,2,.14,4.7.14,7.63V275Z"/><path class="a" d="M21.14,271.66c0,1.54,0,2.76,0,3.34H19.49a12.48,12.48,0,0,1-.07-1.63,2.83,2.83,0,0,1-2.91,1.84c-1.41,0-3.05-.57-3.05-3.62v-8.76h1.78v8.33c0,1.56.43,2.49,1.82,2.49s2.31-.81,2.31-3.43v-7.39h1.77Z"/><path class="a" d="M23.88,266.48c0-2.16,0-3.07,0-3.65h1.7a13.45,13.45,0,0,1,.07,1.56,2.76,2.76,0,0,1,2.71-1.75,2.33,2.33,0,0,1,2.52,1.8,3,3,0,0,1,3-1.8c1.51,0,2.93.72,2.93,3.53V275H35v-8.55c0-1.22-.36-2.28-1.73-2.28-1.54,0-2.07,1.4-2.07,3V275H29.47v-8.5c0-1.49-.5-2.3-1.7-2.3-1.44,0-2.14,1.32-2.14,3.17V275H23.88Z"/><path class="a" d="M39.65,257.91H41.4v6.53a2.89,2.89,0,0,1,2.9-1.8c2.33,0,3.56,1.94,3.56,6,0,3.75-1,6.58-3.89,6.58a2.59,2.59,0,0,1-2.64-1.63c0,.41,0,1,0,1.44H39.62c0-.65,0-1.85,0-3.34Zm4.17,6.26c-1.87,0-2.49,1.68-2.49,4.78,0,2.9.48,4.7,2.33,4.7,1.6,0,2.4-1.58,2.4-5C46.06,265.59,45.36,264.17,43.82,264.17Z"/><path class="a" d="M51.34,269.24c0,2.37.4,4.46,2.32,4.46a2.23,2.23,0,0,0,2.21-2.18H57.6a3.85,3.85,0,0,1-4,3.69c-3.58,0-4.08-3.26-4.08-6.31,0-3.84,1.32-6.26,4.18-6.26,3.21,0,4,2.61,4,5.66,0,.24,0,.65,0,.94Zm4.6-1.37c0-2.11-.45-3.74-2.2-3.74-2.24,0-2.36,2.9-2.38,3.74Z"/><path class="a" d="M59.93,267c0-1.94,0-3.29,0-4.15h1.68a21.16,21.16,0,0,1,.08,2.16,3.31,3.31,0,0,1,3.21-2.35v1.94c-2.09.07-3.19,1.39-3.19,3.63V275H59.93Z"/><path class="a" d="M78.91,268.78c0,4.27-1.44,6.43-4.17,6.43s-4.2-2.08-4.2-6.4,1.65-6.17,4.27-6.17S78.91,264.68,78.91,268.78Zm-6.57.05c0,3.29.81,4.87,2.4,4.87s2.37-1.61,2.37-4.89c0-3.12-.77-4.66-2.37-4.66S72.34,265.52,72.34,268.83Z"/><path class="a" d="M81.48,275V264.34H79.89v-1.51h1.59v-1.68c0-1.8.65-3.38,2.85-3.38a4.17,4.17,0,0,1,1,.14v1.53a4.33,4.33,0,0,0-.81-.09c-1,0-1.3.6-1.3,1.85v1.63h1.92v1.51H83.23V275Z"/><path class="a" d="M91.82,271.49A2.11,2.11,0,0,0,94,273.77a1.77,1.77,0,0,0,2-1.92c0-1.24-.63-1.82-2.23-2.44-2.53-1-3.24-1.88-3.24-3.58a3.12,3.12,0,0,1,3.47-3.22,3.2,3.2,0,0,1,3.51,3.48h-1.7c0-.6-.17-2-1.85-2a1.53,1.53,0,0,0-1.68,1.68c0,1,.43,1.44,2.11,2.12,2.35.88,3.38,1.75,3.38,3.84s-1.39,3.52-3.81,3.52a3.48,3.48,0,0,1-3.82-3.72Z"/><path class="a" d="M98.52,262.83h1.73v-3.24H102v3.24h2.13v1.51H102v8c0,.84.19,1.37,1.1,1.37a5.34,5.34,0,0,0,.86-.07V275a4.73,4.73,0,0,1-1.44.2c-1.41,0-2.25-.58-2.25-2.5v-8.33H98.52Z"/><path class="a" d="M113.28,271.66c0,1.54,0,2.76,0,3.34h-1.68a14.61,14.61,0,0,1-.07-1.63,2.82,2.82,0,0,1-2.9,1.84c-1.42,0-3.05-.57-3.05-3.62v-8.76h1.78v8.33c0,1.56.43,2.49,1.82,2.49s2.3-.81,2.3-3.43v-7.39h1.78Z"/><path class="a" d="M123.74,257.91v14c0,1.17,0,2.4,0,3.12h-1.71c0-.31-.07-1.11-.07-1.63a2.66,2.66,0,0,1-2.86,1.84c-2.52,0-3.6-2.16-3.6-6.43,0-3.89,1.42-6.14,4-6.14a2.42,2.42,0,0,1,2.47,1.25v-6Zm-4.12,15.74c1.89,0,2.39-1.6,2.39-4.92,0-3.55-.5-4.56-2.25-4.56-1.44,0-2.43,1.28-2.43,4.64S118.13,273.65,119.62,273.65Z"/><path class="a" d="M127.8,269.24c0,2.37.41,4.46,2.33,4.46a2.21,2.21,0,0,0,2.2-2.18h1.73a3.85,3.85,0,0,1-4,3.69c-3.57,0-4.08-3.26-4.08-6.31,0-3.84,1.32-6.26,4.18-6.26,3.22,0,4,2.61,4,5.66,0,.24,0,.65,0,.94Zm4.61-1.37c0-2.11-.46-3.74-2.21-3.74-2.23,0-2.35,2.9-2.38,3.74Z"/><path class="a" d="M136.39,266.6c0-2.5,0-3.22,0-3.77h1.7c0,.29.07.77.07,1.58a2.88,2.88,0,0,1,2.88-1.8c1.75,0,3.12,1,3.12,3.72V275h-1.77v-8.33c0-1.49-.48-2.5-1.87-2.5-1.64,0-2.33,1.08-2.33,3.58V275h-1.78Z"/><path class="a" d="M145.51,262.83h1.73v-3.24H149v3.24h2.13v1.51H149v8c0,.84.19,1.37,1.1,1.37a5.34,5.34,0,0,0,.86-.07V275a4.73,4.73,0,0,1-1.44.2c-1.41,0-2.25-.58-2.25-2.5v-8.33h-1.73Z"/></svg>