<svg xmlns="http://www.w3.org/2000/svg" viewBox="0 0 456.63 350.3"><defs><style>.a{fill:#fff;}.b{fill:#007adf;}.c{fill:#9ff4f9;}.d{fill:#fa00f6;}.e{opacity:0.8;}</style></defs><rect width="456.63" height="350.3"/><path class="a" d="M1.61,28.84H9.12v1.58H3.41v5.45H8.76v1.59H3.41v7.68H1.61Z"/><path class="a" d="M10.9,45.14V28.05h1.75V45.14Z"/><path class="a" d="M23.31,38.92c0,4.27-1.45,6.43-4.18,6.43s-4.2-2.09-4.2-6.41,1.65-6.16,4.27-6.16S23.31,34.82,23.31,38.92Zm-6.58,0c0,3.29.81,4.87,2.4,4.87s2.38-1.61,2.38-4.9c0-3.12-.77-4.65-2.38-4.65S16.73,35.66,16.73,39Z"/><path class="a" d="M33.43,38.92c0,4.27-1.44,6.43-4.17,6.43s-4.2-2.09-4.2-6.41,1.65-6.16,4.27-6.16S33.43,34.82,33.43,38.92Zm-6.57,0c0,3.29.81,4.87,2.4,4.87s2.37-1.61,2.37-4.9c0-3.12-.77-4.65-2.37-4.65S26.86,35.66,26.86,39Z"/><path class="a" d="M43.39,28.05V42c0,1.17,0,2.4,0,3.12H41.71c0-.32-.07-1.11-.07-1.64a2.66,2.66,0,0,1-2.86,1.85c-2.52,0-3.6-2.16-3.6-6.43,0-3.89,1.42-6.14,4-6.14A2.43,2.43,0,0,1,41.64,34v-6ZM39.26,43.79c1.9,0,2.4-1.61,2.4-4.92,0-3.55-.5-4.56-2.25-4.56C38,34.31,37,35.58,37,38.94,37,42.45,37.78,43.79,39.26,43.79Z"/><path class="a" d="M46.27,30.57V28.05h1.78v2.52Zm0,2.4H48V45.14H46.27Z"/><path class="a" d="M50.93,36.74c0-2.5,0-3.22,0-3.77h1.71c0,.29.07.77.07,1.58a2.86,2.86,0,0,1,2.88-1.8c1.75,0,3.12,1,3.12,3.72v8.67H56.9V36.81c0-1.49-.48-2.5-1.87-2.5-1.63,0-2.33,1.08-2.33,3.58v7.25H50.93Z"/><path class="a" d="M69.19,44.37c0,3.19-.77,5.42-4.27,5.42-3.15,0-3.82-2-3.89-3.33h1.78A2,2,0,0,0,65,48.3c2,0,2.45-1.48,2.45-3.93V43.24a2.75,2.75,0,0,1-2.83,1.87c-2.45,0-3.67-2.09-3.67-5.93,0-4.36,1.63-6.4,3.93-6.4,1.66,0,2.35.79,2.57,1.58a12.08,12.08,0,0,1,.1-1.39h1.68c0,.62,0,1.87,0,3.5Zm-4.1-.82c1.87,0,2.4-1.85,2.4-4.68s-.41-4.56-2.26-4.56c-1.61,0-2.47,1.68-2.47,4.85C62.76,42.11,63.57,43.55,65.09,43.55Z"/><path class="a" d="M78.48,28.05v6.41a2.87,2.87,0,0,1,2.9-1.71c1.78,0,3.08,1.13,3.08,3.72v8.67H82.68V36.83c0-1.49-.43-2.52-1.92-2.52-1.68,0-2.28,1.39-2.28,3.51v7.32H76.7V28.05Z"/><path class="a" d="M94.18,43c0,.76,0,1.77.09,2.16H92.66a7.43,7.43,0,0,1-.12-1.4,2.83,2.83,0,0,1-2.88,1.61c-2.35,0-3.19-1.82-3.19-3.53,0-2.2,1.51-3.88,4.71-3.88a11.38,11.38,0,0,1,1.27,0V36.35c0-.93-.19-2.16-1.83-2.16-1.8,0-1.92,1.3-2,2.11H87c0-1.75.86-3.52,3.72-3.52,2.35,0,3.51,1.12,3.51,3.38Zm-1.71-3.6a6.76,6.76,0,0,0-1.2-.08c-2.16,0-3,1-3,2.4a1.92,1.92,0,0,0,1.9,2.16c1.78,0,2.35-1.27,2.35-3.84Z"/><path class="a" d="M95.88,43.84c1.25-2.11,3.67-6.38,5.35-9.34h-5V33h7v1.37c-1.2,2.11-3.72,6.6-5.28,9.28h5.35l-.21,1.52h-7.2Z"/><path class="a" d="M112.17,43c0,.76,0,1.77.1,2.16h-1.61a7.43,7.43,0,0,1-.12-1.4,2.84,2.84,0,0,1-2.88,1.61c-2.35,0-3.19-1.82-3.19-3.53,0-2.2,1.51-3.88,4.7-3.88a11.49,11.49,0,0,1,1.28,0V36.35c0-.93-.2-2.16-1.83-2.16-1.8,0-1.92,1.3-2,2.11H105c0-1.75.86-3.52,3.72-3.52,2.35,0,3.5,1.12,3.5,3.38Zm-1.7-3.6a6.76,6.76,0,0,0-1.2-.08c-2.16,0-3,1-3,2.4a1.92,1.92,0,0,0,1.9,2.16c1.77,0,2.35-1.27,2.35-3.84Z"/><path class="a" d="M115.08,37.12c0-1.94,0-3.29,0-4.15h1.68a21.16,21.16,0,0,1,.08,2.16A3.3,3.3,0,0,1,120,32.78v1.94c-2.09.07-3.19,1.39-3.19,3.62v6.8h-1.75Z"/><path class="a" d="M129.19,28.05V42c0,1.17,0,2.4,0,3.12h-1.7c0-.32-.07-1.11-.07-1.64a2.66,2.66,0,0,1-2.86,1.85c-2.52,0-3.6-2.16-3.6-6.43,0-3.89,1.42-6.14,4-6.14A2.43,2.43,0,0,1,127.44,34v-6Zm-4.13,15.74c1.9,0,2.4-1.61,2.4-4.92,0-3.55-.5-4.56-2.25-4.56-1.44,0-2.43,1.27-2.43,4.63C122.78,42.45,123.57,43.79,125.06,43.79Z"/><path class="a" d="M135.6,43.84c1.25-2.11,3.67-6.38,5.35-9.34h-5V33h7v1.37c-1.2,2.11-3.72,6.6-5.28,9.28H143l-.21,1.52h-7.2Z"/><path class="a" d="M152.45,38.92c0,4.27-1.44,6.43-4.18,6.43s-4.2-2.09-4.2-6.41,1.66-6.16,4.27-6.16S152.45,34.82,152.45,38.92Zm-6.58,0c0,3.29.82,4.87,2.4,4.87s2.38-1.61,2.38-4.9c0-3.12-.77-4.65-2.38-4.65S145.87,35.66,145.87,39Z"/><path class="a" d="M154.73,36.74c0-2.5,0-3.22,0-3.77h1.7a14,14,0,0,1,.08,1.58,2.86,2.86,0,0,1,2.88-1.8c1.75,0,3.12,1,3.12,3.72v8.67H160.7V36.81c0-1.49-.48-2.5-1.87-2.5-1.63,0-2.33,1.08-2.33,3.58v7.25h-1.77Z"/><path class="a" d="M166.53,39.38c0,2.37.41,4.46,2.33,4.46a2.23,2.23,0,0,0,2.21-2.18h1.73a3.86,3.86,0,0,1-4,3.69c-3.58,0-4.08-3.26-4.08-6.31,0-3.84,1.32-6.26,4.17-6.26,3.22,0,4,2.61,4,5.66,0,.24,0,.65,0,.94ZM171.14,38c0-2.11-.45-3.75-2.21-3.75-2.23,0-2.35,2.91-2.37,3.75Z"/><rect class="b" x="12.5" y="64.96" width="25" height="25"/><path class="a" d="M50.56,84.53V74.22a5.76,5.76,0,0,1-1.7.5V73.66A4.69,4.69,0,0,0,51,72.6h.9V84.53Z"/><path class="a" d="M60.15,78.46c0,4.34-.83,6.25-3.11,6.25s-3.14-2.1-3.14-6.26c0-4.52,1.17-6,3.19-6S60.15,74.18,60.15,78.46Zm-4.9,0c0,3.4.35,5.17,1.79,5.17s1.78-1.68,1.78-5.13-.43-4.81-1.77-4.81S55.25,74.85,55.25,78.41Z"/><path class="a" d="M68,78.46c0,4.34-.83,6.25-3.11,6.25s-3.14-2.1-3.14-6.26c0-4.52,1.17-6,3.19-6S68,74.18,68,78.46Zm-4.89,0c0,3.4.34,5.17,1.78,5.17s1.78-1.68,1.78-5.13-.43-4.81-1.76-4.81S63.07,74.85,63.07,78.41Z"/><path class="a" d="M73.06,79.28v1.18H69.38V79.28Z"/><path class="a" d="M75.45,84.53V79.87a.84.84,0,0,0-.07-.31l-3.12-7.25h1.52c.82,2.07,2,4.93,2.37,6,.43-1.19,1.62-4.09,2.41-6H80l-3.14,7.25a.86.86,0,0,0-.07.33v4.64Z"/><path class="a" d="M80.72,80.21c0,1.78.31,3.35,1.75,3.35a1.68,1.68,0,0,0,1.66-1.64h1.29a2.89,2.89,0,0,1-3,2.77c-2.68,0-3.06-2.44-3.06-4.73,0-2.88,1-4.7,3.13-4.7,2.42,0,3,2,3,4.25,0,.18,0,.49,0,.7Zm3.46-1c0-1.59-.34-2.81-1.66-2.81-1.67,0-1.76,2.17-1.78,2.81Z"/><path class="a" d="M92.39,82.91c0,.58,0,1.33.07,1.62H91.25a5.78,5.78,0,0,1-.08-1A2.15,2.15,0,0,1,89,84.69a2.36,2.36,0,0,1-2.39-2.64c0-1.66,1.13-2.92,3.53-2.92a6.36,6.36,0,0,1,1,0V77.94c0-.7-.14-1.62-1.37-1.62s-1.44,1-1.49,1.59H87a2.48,2.48,0,0,1,2.79-2.65c1.76,0,2.63.85,2.63,2.54Zm-1.28-2.7a6.32,6.32,0,0,0-.9,0c-1.62,0-2.29.77-2.29,1.8a1.45,1.45,0,0,0,1.43,1.62c1.33,0,1.76-1,1.76-2.88Z"/><path class="a" d="M94.56,78.52c0-1.46,0-2.47,0-3.12h1.26c0,.24,0,.67,0,1.62a2.5,2.5,0,0,1,2.41-1.76v1.46c-1.56,0-2.39,1-2.39,2.72v5.09H94.56Z"/><path class="a" d="M103.1,72.31h5.63V73.5h-4.28v4.08h4v1.19h-4v5.76H103.1Z"/><path class="a" d="M110.06,84.53V71.71h1.32V84.53Z"/><path class="a" d="M119.37,79.87c0,3.2-1.08,4.82-3.13,4.82s-3.15-1.56-3.15-4.8,1.24-4.63,3.2-4.63S119.37,76.79,119.37,79.87Zm-4.93,0c0,2.46.61,3.65,1.8,3.65S118,82.35,118,79.89s-.58-3.5-1.78-3.5S114.44,77.42,114.44,79.91Z"/><path class="a" d="M127,79.87c0,3.2-1.08,4.82-3.14,4.82s-3.15-1.56-3.15-4.8,1.24-4.63,3.21-4.63S127,76.79,127,79.87Zm-4.94,0c0,2.46.61,3.65,1.8,3.65s1.79-1.21,1.79-3.67-.58-3.5-1.79-3.5S122,77.42,122,79.91Z"/><path class="a" d="M134.44,71.71V82.19c0,.88,0,1.8,0,2.34h-1.28c0-.23,0-.83,0-1.22A2,2,0,0,1,131,84.69c-1.89,0-2.7-1.62-2.7-4.82,0-2.92,1.06-4.61,3-4.61a1.79,1.79,0,0,1,1.85.94V71.71Zm-3.1,11.81c1.42,0,1.8-1.2,1.8-3.69,0-2.66-.38-3.42-1.69-3.42-1.08,0-1.82,1-1.82,3.48S130.22,83.52,131.34,83.52Z"/><path class="a" d="M136.59,87.88V78.07c0-1.24,0-2.09,0-2.67h1.27c0,.17.06.78.06,1.23a2.09,2.09,0,0,1,2.16-1.37c1.73,0,2.66,1.53,2.66,4.57,0,3.3-1.13,4.86-2.91,4.86a1.92,1.92,0,0,1-1.91-1.09v4.28Zm3.08-11.47c-1.42,0-1.8,1.35-1.8,3.51s.2,3.62,1.71,3.62c1.21,0,1.82-1.4,1.82-3.63S140.86,76.41,139.67,76.41Z"/><path class="a" d="M144.46,84.53V71.71h1.31V84.53Z"/><path class="a" d="M153.16,82.91c0,.58,0,1.33.07,1.62H152a5.65,5.65,0,0,1-.09-1,2.13,2.13,0,0,1-2.16,1.2,2.36,2.36,0,0,1-2.39-2.64c0-1.66,1.13-2.92,3.53-2.92a6.36,6.36,0,0,1,1,0V77.94c0-.7-.15-1.62-1.37-1.62s-1.44,1-1.49,1.59h-1.26a2.48,2.48,0,0,1,2.79-2.65c1.76,0,2.63.85,2.63,2.54Zm-1.28-2.7a6.32,6.32,0,0,0-.9,0c-1.62,0-2.29.77-2.29,1.8a1.45,1.45,0,0,0,1.42,1.62c1.34,0,1.77-1,1.77-2.88Z"/><path class="a" d="M155.33,73.6V71.71h1.33V73.6Zm0,1.8h1.32v9.13h-1.32Z"/><path class="a" d="M158.82,78.23c0-1.87,0-2.41,0-2.83h1.27a11.24,11.24,0,0,1,.06,1.19,2.15,2.15,0,0,1,2.16-1.35c1.31,0,2.34.76,2.34,2.79v6.5h-1.33V78.28c0-1.11-.36-1.87-1.41-1.87-1.22,0-1.74.81-1.74,2.69v5.43h-1.34Z"/><path class="a" d="M170.38,84.53v-8h-1.19V75.4h1.19V74.14c0-1.35.49-2.53,2.14-2.53a3.33,3.33,0,0,1,.76.1v1.16a2.58,2.58,0,0,0-.61-.08c-.72,0-1,.45-1,1.39V75.4h1.44v1.14h-1.44v8Z"/><path class="a" d="M180,79.87c0,3.2-1.08,4.82-3.13,4.82s-3.15-1.56-3.15-4.8,1.24-4.63,3.21-4.63S180,76.79,180,79.87Zm-4.93,0c0,2.46.61,3.65,1.8,3.65s1.78-1.21,1.78-3.67-.57-3.5-1.78-3.5S175,77.42,175,79.91Z"/><path class="a" d="M181.68,78.52c0-1.46,0-2.47,0-3.12h1.25c0,.24.06.67.06,1.62a2.5,2.5,0,0,1,2.41-1.76v1.46c-1.56,0-2.39,1-2.39,2.72v5.09h-1.32Z"/><path class="a" d="M189,75.4h1.3V73h1.3V75.4h1.6v1.14h-1.6v6c0,.63.14,1,.83,1a4.06,4.06,0,0,0,.64-.05v1a3.61,3.61,0,0,1-1.08.15c-1.06,0-1.69-.43-1.69-1.87V76.54H189Z"/><path class="a" d="M195.74,71.71v4.81a2.16,2.16,0,0,1,2.18-1.28c1.33,0,2.3.85,2.3,2.79v6.5h-1.33V78.3c0-1.11-.32-1.89-1.44-1.89s-1.71,1-1.71,2.63v5.49h-1.33V71.71Z"/><path class="a" d="M203.23,80.21c0,1.78.3,3.35,1.74,3.35a1.67,1.67,0,0,0,1.66-1.64h1.3a2.89,2.89,0,0,1-3,2.77c-2.69,0-3.06-2.44-3.06-4.73,0-2.88,1-4.7,3.13-4.7,2.41,0,3,2,3,4.25,0,.18,0,.49,0,.7Zm3.46-1c0-1.59-.35-2.81-1.66-2.81-1.68,0-1.77,2.17-1.78,2.81Z"/><path class="a" d="M212.41,84.53v-.09c0-1.47.84-3.09,2.7-5.13,1.51-1.67,2-2.29,2-3.65,0-1.07-.31-2.06-1.55-2.06s-1.62.89-1.67,2.29h-1.3c0-1.73.83-3.39,3-3.39s2.88,1.43,2.88,3.17-.54,2.44-2.13,4.11a9.53,9.53,0,0,0-2.37,3.58h4.84l-.2,1.17Z"/><path class="a" d="M226.11,78.46c0,4.34-.83,6.25-3.12,6.25s-3.13-2.1-3.13-6.26c0-4.52,1.17-6,3.19-6S226.11,74.18,226.11,78.46Zm-4.9,0c0,3.4.34,5.17,1.78,5.17s1.78-1.68,1.78-5.13-.43-4.81-1.76-4.81S221.21,74.85,221.21,78.41Z"/><path class="a" d="M227.27,84.53v-.09c0-1.47.85-3.09,2.71-5.13,1.51-1.67,2-2.29,2-3.65,0-1.07-.31-2.06-1.55-2.06s-1.62.89-1.68,2.29h-1.29c0-1.73.82-3.39,3-3.39s2.88,1.43,2.88,3.17-.54,2.44-2.13,4.11a9.72,9.72,0,0,0-2.38,3.58h4.85l-.2,1.17Z"/><path class="a" d="M241,78.46c0,4.34-.82,6.25-3.11,6.25s-3.13-2.1-3.13-6.26c0-4.52,1.17-6,3.18-6S241,74.18,241,78.46Zm-4.89,0c0,3.4.34,5.17,1.78,5.17s1.78-1.68,1.78-5.13-.43-4.81-1.76-4.81S236.08,74.85,236.08,78.41Z"/><path class="a" d="M243.49,81.9c.06,1,.56,1.71,1.61,1.71a1.32,1.32,0,0,0,1.47-1.44c0-.93-.47-1.36-1.67-1.83-1.89-.72-2.43-1.41-2.43-2.69a2.34,2.34,0,0,1,2.61-2.41,2.41,2.41,0,0,1,2.63,2.61h-1.28c0-.45-.13-1.53-1.39-1.53a1.16,1.16,0,0,0-1.26,1.26c0,.74.33,1.08,1.59,1.59,1.76.66,2.53,1.31,2.53,2.88s-1,2.64-2.86,2.64a2.6,2.6,0,0,1-2.86-2.79Z"/><rect class="c" x="12.5" y="97.51" width="25" height="25"/><path class="a" d="M50.56,117.08V106.77a5.47,5.47,0,0,1-1.7.5v-1.06A4.69,4.69,0,0,0,51,105.15h.9v11.93Z"/><path class="a" d="M60.15,111c0,4.34-.83,6.24-3.11,6.24s-3.14-2.1-3.14-6.26c0-4.52,1.17-5.94,3.19-5.94S60.15,106.73,60.15,111Zm-4.9-.06c0,3.41.35,5.17,1.79,5.17s1.78-1.67,1.78-5.13-.43-4.81-1.77-4.81S55.25,107.4,55.25,111Z"/><path class="a" d="M68,111c0,4.34-.83,6.24-3.11,6.24s-3.14-2.1-3.14-6.26c0-4.52,1.17-5.94,3.19-5.94S68,106.73,68,111ZM63.07,111c0,3.41.34,5.17,1.78,5.17s1.78-1.67,1.78-5.13-.43-4.81-1.76-4.81S63.07,107.4,63.07,111Z"/><path class="a" d="M73.06,111.83V113H69.38v-1.19Z"/><path class="a" d="M75.45,117.08v-4.66a.73.73,0,0,0-.07-.3l-3.12-7.26h1.52c.82,2.07,2,4.93,2.37,6,.43-1.19,1.62-4.09,2.41-6H80l-3.14,7.26a.76.76,0,0,0-.07.32v4.64Z"/><path class="a" d="M80.72,112.76c0,1.79.31,3.35,1.75,3.35a1.68,1.68,0,0,0,1.66-1.64h1.29a2.89,2.89,0,0,1-3,2.78c-2.68,0-3.06-2.45-3.06-4.74,0-2.88,1-4.7,3.13-4.7,2.42,0,3,2,3,4.25,0,.18,0,.49,0,.7Zm3.46-1c0-1.59-.34-2.81-1.66-2.81-1.67,0-1.76,2.18-1.78,2.81Z"/><path class="a" d="M92.39,115.46c0,.58,0,1.34.07,1.62H91.25a5.7,5.7,0,0,1-.08-1A2.14,2.14,0,0,1,89,117.25a2.36,2.36,0,0,1-2.39-2.65c0-1.66,1.13-2.92,3.53-2.92a6.36,6.36,0,0,1,1,0v-1.23c0-.7-.14-1.62-1.37-1.62s-1.44,1-1.49,1.59H87a2.48,2.48,0,0,1,2.79-2.65c1.76,0,2.63.85,2.63,2.54Zm-1.28-2.7a6.32,6.32,0,0,0-.9-.05c-1.62,0-2.29.77-2.29,1.8a1.44,1.44,0,0,0,1.43,1.62c1.33,0,1.76-.95,1.76-2.88Z"/><path class="a" d="M94.56,111.07c0-1.46,0-2.47,0-3.11h1.26c0,.23,0,.66,0,1.62a2.5,2.5,0,0,1,2.41-1.77v1.46c-1.56,0-2.39,1-2.39,2.72v5.09H94.56Z"/><path class="a" d="M103.1,104.86h5.63v1.19h-4.28v4.08h4v1.19h-4v5.76H103.1Z"/><path class="a" d="M110.06,117.08V104.26h1.32v12.82Z"/><path class="a" d="M119.37,112.42c0,3.21-1.08,4.83-3.13,4.83s-3.15-1.57-3.15-4.81,1.24-4.63,3.2-4.63S119.37,109.34,119.37,112.42Zm-4.93,0c0,2.46.61,3.65,1.8,3.65s1.78-1.2,1.78-3.67-.58-3.49-1.78-3.49S114.44,110,114.44,112.46Z"/><path class="a" d="M127,112.42c0,3.21-1.08,4.83-3.14,4.83s-3.15-1.57-3.15-4.81,1.24-4.63,3.21-4.63S127,109.34,127,112.42Zm-4.94,0c0,2.46.61,3.65,1.8,3.65s1.79-1.2,1.79-3.67S125,109,123.83,109,122,110,122,112.46Z"/><path class="a" d="M134.44,104.26v10.48c0,.89,0,1.8,0,2.34h-1.28c0-.23,0-.82,0-1.22a2,2,0,0,1-2.14,1.39c-1.89,0-2.7-1.62-2.7-4.83,0-2.92,1.06-4.61,3-4.61a1.8,1.8,0,0,1,1.85.94v-4.49Zm-3.1,11.82c1.42,0,1.8-1.21,1.8-3.69,0-2.67-.38-3.43-1.69-3.43-1.08,0-1.82,1-1.82,3.48S130.22,116.08,131.34,116.08Z"/><path class="a" d="M136.59,120.43v-9.81c0-1.24,0-2.09,0-2.66h1.27c0,.16.06.77.06,1.22a2.09,2.09,0,0,1,2.16-1.37c1.73,0,2.66,1.53,2.66,4.58,0,3.29-1.13,4.86-2.91,4.86a1.92,1.92,0,0,1-1.91-1.1v4.28ZM139.67,109c-1.42,0-1.8,1.35-1.8,3.52s.2,3.61,1.71,3.61c1.21,0,1.82-1.4,1.82-3.63S140.86,109,139.67,109Z"/><path class="a" d="M144.46,117.08V104.26h1.31v12.82Z"/><path class="a" d="M153.16,115.46c0,.58,0,1.34.07,1.62H152a5.57,5.57,0,0,1-.09-1,2.12,2.12,0,0,1-2.16,1.21,2.36,2.36,0,0,1-2.39-2.65c0-1.66,1.13-2.92,3.53-2.92a6.36,6.36,0,0,1,1,0v-1.23c0-.7-.15-1.62-1.37-1.62s-1.44,1-1.49,1.59h-1.26a2.48,2.48,0,0,1,2.79-2.65c1.76,0,2.63.85,2.63,2.54Zm-1.28-2.7a6.32,6.32,0,0,0-.9-.05c-1.62,0-2.29.77-2.29,1.8a1.44,1.44,0,0,0,1.42,1.62c1.34,0,1.77-.95,1.77-2.88Z"/><path class="a" d="M155.33,106.16v-1.9h1.33v1.9Zm0,1.8h1.32v9.12h-1.32Z"/><path class="a" d="M158.82,110.78c0-1.87,0-2.41,0-2.82h1.27a10.82,10.82,0,0,1,.06,1.18,2.15,2.15,0,0,1,2.16-1.35c1.31,0,2.34.76,2.34,2.79v6.5h-1.33v-6.24c0-1.12-.36-1.88-1.41-1.88-1.22,0-1.74.81-1.74,2.69v5.43h-1.34Z"/><path class="a" d="M170.38,117.08v-8h-1.19V108h1.19V106.7c0-1.36.49-2.54,2.14-2.54a3.33,3.33,0,0,1,.76.1v1.16a2.58,2.58,0,0,0-.61-.08c-.72,0-1,.45-1,1.39V108h1.44v1.13h-1.44v8Z"/><path class="a" d="M180,112.42c0,3.21-1.08,4.83-3.13,4.83s-3.15-1.57-3.15-4.81,1.24-4.63,3.21-4.63S180,109.34,180,112.42Zm-4.93,0c0,2.46.61,3.65,1.8,3.65s1.78-1.2,1.78-3.67-.57-3.49-1.78-3.49S175,110,175,112.46Z"/><path class="a" d="M181.68,111.07c0-1.46,0-2.47,0-3.11h1.25c0,.23.06.66.06,1.62a2.5,2.5,0,0,1,2.41-1.77v1.46c-1.56,0-2.39,1-2.39,2.72v5.09h-1.32Z"/><path class="a" d="M189,108h1.3v-2.44h1.3V108h1.6v1.13h-1.6v6c0,.63.14,1,.83,1a3.14,3.14,0,0,0,.64,0v1a4,4,0,0,1-1.08.14c-1.06,0-1.69-.43-1.69-1.87v-6.25H189Z"/><path class="a" d="M195.74,104.26v4.81a2.17,2.17,0,0,1,2.18-1.28c1.33,0,2.3.85,2.3,2.79v6.5h-1.33v-6.23c0-1.11-.32-1.89-1.44-1.89s-1.71,1.05-1.71,2.63v5.49h-1.33V104.26Z"/><path class="a" d="M203.23,112.76c0,1.79.3,3.35,1.74,3.35a1.67,1.67,0,0,0,1.66-1.64h1.3a2.89,2.89,0,0,1-3,2.78c-2.69,0-3.06-2.45-3.06-4.74,0-2.88,1-4.7,3.13-4.7,2.41,0,3,2,3,4.25,0,.18,0,.49,0,.7Zm3.46-1c0-1.59-.35-2.81-1.66-2.81-1.68,0-1.77,2.18-1.78,2.81Z"/><path class="a" d="M212.41,117.08V117c0-1.47.84-3.09,2.7-5.13,1.51-1.67,2-2.28,2-3.65,0-1.06-.31-2-1.55-2s-1.62.88-1.67,2.28h-1.3c0-1.73.83-3.38,3-3.38s2.88,1.42,2.88,3.17-.54,2.43-2.13,4.1a9.6,9.6,0,0,0-2.37,3.58h4.84l-.2,1.17Z"/><path class="a" d="M226.11,111c0,4.34-.83,6.24-3.12,6.24s-3.13-2.1-3.13-6.26c0-4.52,1.17-5.94,3.19-5.94S226.11,106.73,226.11,111Zm-4.9-.06c0,3.41.34,5.17,1.78,5.17s1.78-1.67,1.78-5.13-.43-4.81-1.76-4.81S221.21,107.4,221.21,111Z"/><path class="a" d="M233.16,106.35h-3.74c-.08,1.14-.27,3.1-.34,3.75a2.16,2.16,0,0,1,1.89-.83c1.9,0,2.75,1.55,2.75,3.69,0,2.31-.74,4.29-3.17,4.29-2.21,0-2.92-1.5-3-3.08h1.32c.07.81.32,2,1.71,2s1.74-1.33,1.74-3c0-1.53-.36-2.7-1.65-2.7a1.75,1.75,0,0,0-1.75,1.47l-1.22-.21c.2-1.37.48-4.68.61-6.45h5Z"/><path class="a" d="M241.37,111c0,4.34-.83,6.24-3.11,6.24s-3.14-2.1-3.14-6.26c0-4.52,1.17-5.94,3.19-5.94S241.37,106.73,241.37,111Zm-4.9-.06c0,3.41.35,5.17,1.79,5.17S240,114.46,240,111s-.43-4.81-1.77-4.81S236.47,107.4,236.47,111Z"/><path class="a" d="M243.89,114.46a1.58,1.58,0,0,0,1.6,1.71,1.33,1.33,0,0,0,1.48-1.44c0-.94-.47-1.37-1.68-1.84-1.89-.72-2.43-1.41-2.43-2.68a2.34,2.34,0,0,1,2.61-2.42,2.4,2.4,0,0,1,2.63,2.61h-1.28c0-.45-.12-1.53-1.38-1.53a1.15,1.15,0,0,0-1.26,1.26c0,.74.32,1.08,1.58,1.59,1.77.67,2.54,1.31,2.54,2.88s-1,2.65-2.86,2.65a2.62,2.62,0,0,1-2.87-2.79Z"/><circle class="a" cx="25" cy="158.56" r="4"/><path class="a" d="M50.47,161.66c.1,1.24.7,2.25,2.05,2.25s1.92-.7,1.92-2.11-.52-2-2.19-2.77c-1.91-.92-2.76-1.76-2.76-3.53a2.87,2.87,0,0,1,3.08-3c2.36,0,3,1.69,3,3.11H54.28c-.07-.57-.25-2-1.76-2a1.6,1.6,0,0,0-1.68,1.79c0,1.17.53,1.73,2.06,2.45,2.14,1,2.91,2,2.91,3.87A3.06,3.06,0,0,1,52.48,165c-2.45,0-3.26-1.61-3.35-3.37Z"/><path class="a" d="M63.12,162.07a2.87,2.87,0,0,1-2.92,3c-2.37,0-3-2.11-3-4.76s.83-4.7,3.15-4.7a2.72,2.72,0,0,1,2.79,2.89H61.77c0-.36-.14-1.75-1.44-1.75s-1.8,1.44-1.8,3.55c0,2.26.5,3.63,1.73,3.63s1.47-1.33,1.55-1.82Z"/><path class="a" d="M66,152.05v4.8a2.15,2.15,0,0,1,2.18-1.28c1.33,0,2.3.85,2.3,2.8v6.5H69.17v-6.23c0-1.12-.33-1.9-1.44-1.9-1.26,0-1.71,1-1.71,2.63v5.5H64.69V152.05Z"/><path class="a" d="M78.46,160.2c0,3.21-1.08,4.83-3.14,4.83s-3.15-1.57-3.15-4.81,1.24-4.63,3.21-4.63S78.46,157.12,78.46,160.2Zm-4.94,0c0,2.46.61,3.65,1.8,3.65s1.78-1.2,1.78-3.67-.57-3.49-1.78-3.49S73.52,157.75,73.52,160.24Z"/><path class="a" d="M86.05,160.2c0,3.21-1.08,4.83-3.13,4.83s-3.15-1.57-3.15-4.81,1.24-4.63,3.2-4.63S86.05,157.12,86.05,160.2Zm-4.93,0c0,2.46.61,3.65,1.8,3.65s1.78-1.2,1.78-3.67-.58-3.49-1.78-3.49S81.12,157.75,81.12,160.24Z"/><path class="a" d="M87.76,164.87V152.05h1.31v12.82Z"/><path class="a" d="M95.27,155.74c.88,4.32,1.31,6.41,1.47,7.65h0c.18-1.19.56-2.61,1.69-7.65h1.26c1.07,4.79,1.48,6.62,1.61,7.61h0c.15-1,.49-2.63,1.53-7.61h1.35L102,164.87h-1.4c-.65-3-1.34-6-1.55-7.37h0c-.16,1.35-.83,4-1.62,7.37H96l-2.09-9.13Z"/><path class="a" d="M105.61,153.94v-1.89H107v1.89Zm0,1.8h1.32v9.13h-1.32Z"/><path class="a" d="M108.15,155.74h1.3v-2.43h1.3v2.43h1.6v1.13h-1.6v6c0,.63.14,1,.82,1a3.13,3.13,0,0,0,.65-.06v1a3.6,3.6,0,0,1-1.08.14c-1.06,0-1.69-.43-1.69-1.87v-6.25h-1.3Z"/><path class="a" d="M114.94,152.05v4.8a2.16,2.16,0,0,1,2.18-1.28c1.33,0,2.3.85,2.3,2.8v6.5h-1.33v-6.23c0-1.12-.32-1.9-1.44-1.9s-1.71,1-1.71,2.63v5.5h-1.33V152.05Z"/><path class="a" d="M121.54,153.94v-1.89h1.34v1.89Zm0,1.8h1.32v9.13h-1.32Z"/><path class="a" d="M125,158.56c0-1.87,0-2.41,0-2.82h1.28c0,.21,0,.57,0,1.18a2.15,2.15,0,0,1,2.16-1.35c1.32,0,2.34.76,2.34,2.8v6.5h-1.33v-6.25c0-1.12-.36-1.88-1.41-1.88-1.22,0-1.74.82-1.74,2.69v5.44H125Z"/><path class="a" d="M136.59,164.87v-8H135.4v-1.13h1.19v-1.26c0-1.35.49-2.54,2.14-2.54a2.77,2.77,0,0,1,.76.11v1.15a2.63,2.63,0,0,0-.61-.07c-.72,0-1,.45-1,1.38v1.23h1.44v1.13h-1.44v8Z"/><path class="a" d="M140.53,164.87V152.05h1.32v12.82Z"/><path class="a" d="M149.84,160.2c0,3.21-1.08,4.83-3.13,4.83s-3.15-1.57-3.15-4.81,1.24-4.63,3.2-4.63S149.84,157.12,149.84,160.2Zm-4.93,0c0,2.46.61,3.65,1.8,3.65s1.78-1.2,1.78-3.67-.58-3.49-1.78-3.49S144.91,157.75,144.91,160.24Z"/><path class="a" d="M157.44,160.2c0,3.21-1.08,4.83-3.14,4.83s-3.15-1.57-3.15-4.81,1.25-4.63,3.21-4.63S157.44,157.12,157.44,160.2Zm-4.94,0c0,2.46.62,3.65,1.8,3.65s1.79-1.2,1.79-3.67-.58-3.49-1.79-3.49S152.5,157.75,152.5,160.24Z"/><path class="a" d="M164.91,152.05v10.47c0,.89,0,1.81,0,2.35h-1.27c0-.24-.06-.83-.06-1.23a2,2,0,0,1-2.14,1.39c-1.89,0-2.7-1.62-2.7-4.83,0-2.91,1.06-4.61,3-4.61a1.8,1.8,0,0,1,1.85.94v-4.48Zm-3.1,11.81c1.42,0,1.8-1.21,1.8-3.69,0-2.67-.38-3.43-1.69-3.43-1.08,0-1.82,1-1.82,3.48S160.69,163.86,161.81,163.86Z"/><path class="a" d="M167.06,168.21V158.4c0-1.24,0-2.09,0-2.66h1.28c0,.16,0,.77,0,1.22a2.1,2.1,0,0,1,2.16-1.37c1.73,0,2.66,1.53,2.66,4.58,0,3.29-1.13,4.86-2.91,4.86a1.91,1.91,0,0,1-1.91-1.1v4.28Zm3.08-11.47c-1.42,0-1.8,1.36-1.8,3.52s.2,3.62,1.71,3.62c1.21,0,1.82-1.41,1.82-3.64S171.33,156.74,170.14,156.74Z"/><path class="a" d="M174.93,164.87V152.05h1.32v12.82Z"/><path class="a" d="M183.63,163.24c0,.58,0,1.34.07,1.63h-1.21a5.77,5.77,0,0,1-.09-1.05,2.12,2.12,0,0,1-2.16,1.21,2.36,2.36,0,0,1-2.39-2.65c0-1.66,1.13-2.92,3.53-2.92a6.36,6.36,0,0,1,1,0v-1.22c0-.71-.14-1.63-1.37-1.63s-1.44,1-1.49,1.59h-1.26a2.48,2.48,0,0,1,2.79-2.65c1.76,0,2.63.85,2.63,2.54Zm-1.28-2.7a6.32,6.32,0,0,0-.9,0c-1.62,0-2.29.77-2.29,1.8a1.44,1.44,0,0,0,1.42,1.62c1.34,0,1.77-.95,1.77-2.88Z"/><path class="a" d="M185.8,153.94v-1.89h1.34v1.89Zm0,1.8h1.32v9.13H185.8Z"/><path class="a" d="M189.29,158.56c0-1.87,0-2.41,0-2.82h1.28c0,.21.05.57.05,1.18a2.15,2.15,0,0,1,2.16-1.35c1.31,0,2.34.76,2.34,2.8v6.5h-1.33v-6.25c0-1.12-.36-1.88-1.41-1.88-1.22,0-1.74.82-1.74,2.69v5.44h-1.34Z"/><path class="a" d="M199.91,163.89c.94-1.58,2.76-4.79,4-7H200.2v-1.15h5.22v1c-.9,1.59-2.79,5-4,7h4l-.16,1.14h-5.41Z"/><path class="a" d="M212.55,160.2c0,3.21-1.08,4.83-3.13,4.83s-3.15-1.57-3.15-4.81,1.24-4.63,3.2-4.63S212.55,157.12,212.55,160.2Zm-4.93,0c0,2.46.61,3.65,1.8,3.65s1.78-1.2,1.78-3.67-.57-3.49-1.78-3.49S207.62,157.75,207.62,160.24Z"/><path class="a" d="M214.26,158.56c0-1.87,0-2.41,0-2.82h1.28a11.8,11.8,0,0,1,0,1.18,2.16,2.16,0,0,1,2.17-1.35c1.31,0,2.34.76,2.34,2.8v6.5h-1.34v-6.25c0-1.12-.36-1.88-1.4-1.88-1.23,0-1.75.82-1.75,2.69v5.44h-1.33Z"/><path class="a" d="M223.12,160.54c0,1.79.3,3.35,1.74,3.35a1.68,1.68,0,0,0,1.66-1.64h1.3a2.89,2.89,0,0,1-3,2.78c-2.69,0-3.07-2.45-3.07-4.74,0-2.88,1-4.7,3.14-4.7,2.41,0,3,2,3,4.25,0,.18,0,.49,0,.7Zm3.45-1c0-1.59-.34-2.81-1.65-2.81-1.68,0-1.77,2.18-1.79,2.81Z"/><path class="a" d="M233,153.94v-1.89h1.33v1.89Zm0,1.8h1.31v9.13H233Z"/><path class="a" d="M236.49,158.56c0-1.87,0-2.41,0-2.82h1.28a11.8,11.8,0,0,1,.05,1.18,2.15,2.15,0,0,1,2.16-1.35c1.32,0,2.35.76,2.35,2.8v6.5H241v-6.25c0-1.12-.36-1.88-1.4-1.88-1.23,0-1.75.82-1.75,2.69v5.44h-1.33Z"/><path class="a" d="M247.2,164.87v-.09c0-1.48.84-3.1,2.7-5.14,1.51-1.67,2-2.28,2-3.65,0-1.06-.31-2.05-1.55-2.05s-1.62.88-1.67,2.28h-1.3c0-1.73.83-3.38,3-3.38s2.88,1.42,2.88,3.17-.54,2.43-2.12,4.1a9.67,9.67,0,0,0-2.38,3.58h4.84l-.19,1.18Z"/><path class="a" d="M260.9,158.8c0,4.34-.83,6.25-3.12,6.25s-3.13-2.11-3.13-6.27c0-4.52,1.17-5.94,3.19-5.94S260.9,154.51,260.9,158.8Zm-4.9-.06c0,3.41.34,5.17,1.78,5.17s1.79-1.67,1.79-5.13-.44-4.81-1.77-4.81S256,155.18,256,158.74Z"/><path class="a" d="M262.07,164.87v-.09c0-1.48.84-3.1,2.7-5.14,1.51-1.67,2-2.28,2-3.65,0-1.06-.31-2.05-1.55-2.05s-1.62.88-1.67,2.28h-1.3c0-1.73.83-3.38,3-3.38s2.88,1.42,2.88,3.17-.54,2.43-2.13,4.1a9.6,9.6,0,0,0-2.37,3.58h4.84l-.2,1.18Z"/><path class="a" d="M275.77,158.8c0,4.34-.83,6.25-3.12,6.25s-3.13-2.11-3.13-6.27c0-4.52,1.17-5.94,3.19-5.94S275.77,154.51,275.77,158.8Zm-4.9-.06c0,3.41.34,5.17,1.78,5.17s1.78-1.67,1.78-5.13S274,154,272.67,154,270.87,155.18,270.87,158.74Z"/><circle class="d" cx="25" cy="189.63" r="6"/><path class="a" d="M50.47,192.73c.1,1.24.7,2.25,2.05,2.25s1.92-.7,1.92-2.11-.52-2-2.19-2.77c-1.91-.92-2.76-1.76-2.76-3.53a2.87,2.87,0,0,1,3.08-3c2.36,0,3,1.69,3,3.11H54.28c-.07-.58-.25-2-1.76-2a1.6,1.6,0,0,0-1.68,1.78c0,1.18.53,1.73,2.06,2.45,2.14,1,2.91,2.06,2.91,3.87a3.06,3.06,0,0,1-3.33,3.34c-2.45,0-3.26-1.61-3.35-3.37Z"/><path class="a" d="M63.12,193.14a2.87,2.87,0,0,1-2.92,3c-2.37,0-3-2.11-3-4.76s.83-4.7,3.15-4.7a2.72,2.72,0,0,1,2.79,2.88H61.77c0-.36-.14-1.74-1.44-1.74s-1.8,1.44-1.8,3.54c0,2.27.5,3.64,1.73,3.64s1.47-1.33,1.55-1.82Z"/><path class="a" d="M66,183.11v4.81a2.15,2.15,0,0,1,2.18-1.28c1.33,0,2.3.85,2.3,2.79v6.5H69.17V189.7c0-1.11-.33-1.89-1.44-1.89-1.26,0-1.71,1.05-1.71,2.63v5.49H64.69V183.11Z"/><path class="a" d="M78.46,191.27c0,3.21-1.08,4.83-3.14,4.83s-3.15-1.57-3.15-4.81,1.24-4.63,3.21-4.63S78.46,188.19,78.46,191.27Zm-4.94,0c0,2.46.61,3.65,1.8,3.65s1.78-1.21,1.78-3.67-.57-3.49-1.78-3.49S73.52,188.82,73.52,191.31Z"/><path class="a" d="M86.05,191.27c0,3.21-1.08,4.83-3.13,4.83s-3.15-1.57-3.15-4.81,1.24-4.63,3.2-4.63S86.05,188.19,86.05,191.27Zm-4.93,0c0,2.46.61,3.65,1.8,3.65s1.78-1.21,1.78-3.67-.58-3.49-1.78-3.49S81.12,188.82,81.12,191.31Z"/><path class="a" d="M87.76,195.93V183.11h1.31v12.82Z"/><path class="a" d="M95.27,186.8c.88,4.33,1.31,6.41,1.47,7.66h0c.18-1.19.56-2.61,1.69-7.66h1.26c1.07,4.79,1.48,6.63,1.61,7.62h0c.15-1,.49-2.63,1.53-7.62h1.35L102,195.93h-1.4c-.65-3-1.34-6-1.55-7.36h0c-.16,1.35-.83,4-1.62,7.36H96l-2.09-9.13Z"/><path class="a" d="M105.61,185v-1.89H107V185Zm0,1.8h1.32v9.13h-1.32Z"/><path class="a" d="M108.15,186.8h1.3v-2.43h1.3v2.43h1.6v1.14h-1.6v6c0,.63.14,1,.82,1a3.18,3.18,0,0,0,.65-.05v1a4,4,0,0,1-1.08.14c-1.06,0-1.69-.43-1.69-1.87v-6.25h-1.3Z"/><path class="a" d="M114.94,183.11v4.81a2.16,2.16,0,0,1,2.18-1.28c1.33,0,2.3.85,2.3,2.79v6.5h-1.33V189.7c0-1.11-.32-1.89-1.44-1.89s-1.71,1.05-1.71,2.63v5.49h-1.33V183.11Z"/><path class="a" d="M121.54,185v-1.89h1.34V185Zm0,1.8h1.32v9.13h-1.32Z"/><path class="a" d="M125,189.63c0-1.87,0-2.41,0-2.83h1.28c0,.22,0,.58,0,1.19a2.15,2.15,0,0,1,2.16-1.35c1.32,0,2.34.76,2.34,2.79v6.5h-1.33v-6.24c0-1.12-.36-1.88-1.41-1.88-1.22,0-1.74.81-1.74,2.69v5.43H125Z"/><path class="a" d="M136.59,195.93v-8H135.4V186.8h1.19v-1.26c0-1.35.49-2.53,2.14-2.53a3.26,3.26,0,0,1,.76.1v1.16a2.58,2.58,0,0,0-.61-.08c-.72,0-1,.45-1,1.39v1.22h1.44v1.14h-1.44v8Z"/><path class="a" d="M140.53,195.93V183.11h1.32v12.82Z"/><path class="a" d="M149.84,191.27c0,3.21-1.08,4.83-3.13,4.83s-3.15-1.57-3.15-4.81,1.24-4.63,3.2-4.63S149.84,188.19,149.84,191.27Zm-4.93,0c0,2.46.61,3.65,1.8,3.65s1.78-1.21,1.78-3.67-.58-3.49-1.78-3.49S144.91,188.82,144.91,191.31Z"/><path class="a" d="M157.44,191.27c0,3.21-1.08,4.83-3.14,4.83s-3.15-1.57-3.15-4.81,1.25-4.63,3.21-4.63S157.44,188.19,157.44,191.27Zm-4.94,0c0,2.46.62,3.65,1.8,3.65s1.79-1.21,1.79-3.67-.58-3.49-1.79-3.49S152.5,188.82,152.5,191.31Z"/><path class="a" d="M164.91,183.11v10.48c0,.89,0,1.8,0,2.34h-1.27c0-.23-.06-.82-.06-1.22a2,2,0,0,1-2.14,1.39c-1.89,0-2.7-1.62-2.7-4.83,0-2.92,1.06-4.61,3-4.61a1.8,1.8,0,0,1,1.85.94v-4.49Zm-3.1,11.82c1.42,0,1.8-1.21,1.8-3.7,0-2.66-.38-3.42-1.69-3.42-1.08,0-1.82,1-1.82,3.48S160.69,194.93,161.81,194.93Z"/><path class="a" d="M167.06,199.28v-9.81c0-1.24,0-2.09,0-2.67h1.28c0,.17,0,.78,0,1.23a2.1,2.1,0,0,1,2.16-1.37c1.73,0,2.66,1.53,2.66,4.57,0,3.3-1.13,4.87-2.91,4.87a1.92,1.92,0,0,1-1.91-1.1v4.28Zm3.08-11.47c-1.42,0-1.8,1.35-1.8,3.51s.2,3.62,1.71,3.62c1.21,0,1.82-1.4,1.82-3.63S171.33,187.81,170.14,187.81Z"/><path class="a" d="M174.93,195.93V183.11h1.32v12.82Z"/><path class="a" d="M183.63,194.31c0,.58,0,1.34.07,1.62h-1.21a5.57,5.57,0,0,1-.09-1,2.12,2.12,0,0,1-2.16,1.21,2.36,2.36,0,0,1-2.39-2.65c0-1.66,1.13-2.92,3.53-2.92a6.36,6.36,0,0,1,1,0v-1.23c0-.7-.14-1.62-1.37-1.62s-1.44,1-1.49,1.59h-1.26a2.48,2.48,0,0,1,2.79-2.65c1.76,0,2.63.85,2.63,2.54Zm-1.28-2.7a6.32,6.32,0,0,0-.9-.05c-1.62,0-2.29.77-2.29,1.8a1.44,1.44,0,0,0,1.42,1.62c1.34,0,1.77-1,1.77-2.88Z"/><path class="a" d="M185.8,185v-1.89h1.34V185Zm0,1.8h1.32v9.13H185.8Z"/><path class="a" d="M189.29,189.63c0-1.87,0-2.41,0-2.83h1.28c0,.22.05.58.05,1.19a2.15,2.15,0,0,1,2.16-1.35c1.31,0,2.34.76,2.34,2.79v6.5h-1.33v-6.24c0-1.12-.36-1.88-1.41-1.88-1.22,0-1.74.81-1.74,2.69v5.43h-1.34Z"/><path class="a" d="M199.91,195c.94-1.58,2.76-4.79,4-7H200.2V186.8h5.22v1c-.9,1.59-2.79,4.95-4,7h4l-.16,1.13h-5.41Z"/><path class="a" d="M212.55,191.27c0,3.21-1.08,4.83-3.13,4.83s-3.15-1.57-3.15-4.81,1.24-4.63,3.2-4.63S212.55,188.19,212.55,191.27Zm-4.93,0c0,2.46.61,3.65,1.8,3.65s1.78-1.21,1.78-3.67-.57-3.49-1.78-3.49S207.62,188.82,207.62,191.31Z"/><path class="a" d="M214.26,189.63c0-1.87,0-2.41,0-2.83h1.28c0,.22,0,.58,0,1.19a2.16,2.16,0,0,1,2.17-1.35c1.31,0,2.34.76,2.34,2.79v6.5h-1.34v-6.24c0-1.12-.36-1.88-1.4-1.88-1.23,0-1.75.81-1.75,2.69v5.43h-1.33Z"/><path class="a" d="M223.12,191.61c0,1.79.3,3.35,1.74,3.35a1.68,1.68,0,0,0,1.66-1.64h1.3a2.9,2.9,0,0,1-3,2.78c-2.69,0-3.07-2.45-3.07-4.74,0-2.88,1-4.7,3.14-4.7,2.41,0,3,2,3,4.25,0,.18,0,.49,0,.7Zm3.45-1c0-1.59-.34-2.81-1.65-2.81-1.68,0-1.77,2.18-1.79,2.81Z"/><path class="a" d="M233,185v-1.89h1.33V185Zm0,1.8h1.31v9.13H233Z"/><path class="a" d="M236.49,189.63c0-1.87,0-2.41,0-2.83h1.28c0,.22.05.58.05,1.19a2.15,2.15,0,0,1,2.16-1.35c1.32,0,2.35.76,2.35,2.79v6.5H241v-6.24c0-1.12-.36-1.88-1.4-1.88-1.23,0-1.75.81-1.75,2.69v5.43h-1.33Z"/><path class="a" d="M247.2,195.93v-.09c0-1.47.84-3.09,2.7-5.13,1.51-1.67,2-2.28,2-3.65,0-1.07-.31-2.06-1.55-2.06s-1.62.89-1.67,2.29h-1.3c0-1.73.83-3.38,3-3.38s2.88,1.42,2.88,3.16-.54,2.44-2.12,4.11a9.67,9.67,0,0,0-2.38,3.58h4.84l-.19,1.17Z"/><path class="a" d="M260.9,189.87c0,4.34-.83,6.24-3.12,6.24s-3.13-2.1-3.13-6.26c0-4.52,1.17-5.94,3.19-5.94S260.9,185.58,260.9,189.87Zm-4.9-.06c0,3.4.34,5.17,1.78,5.17s1.79-1.68,1.79-5.13-.44-4.81-1.77-4.81S256,186.25,256,189.81Z"/><path class="a" d="M268,185.2h-3.75c-.07,1.14-.27,3.1-.34,3.75a2.17,2.17,0,0,1,1.89-.83c1.91,0,2.75,1.55,2.75,3.69,0,2.31-.73,4.29-3.17,4.29-2.21,0-2.91-1.5-3-3.08h1.31c.07.81.32,2,1.71,2s1.75-1.33,1.75-3c0-1.53-.36-2.7-1.66-2.7a1.75,1.75,0,0,0-1.75,1.47l-1.22-.21c.2-1.37.48-4.69.61-6.45h5Z"/><path class="a" d="M276.16,189.87c0,4.34-.83,6.24-3.11,6.24s-3.14-2.1-3.14-6.26c0-4.52,1.17-5.94,3.19-5.94S276.16,185.58,276.16,189.87Zm-4.89-.06c0,3.4.34,5.17,1.78,5.17s1.78-1.68,1.78-5.13-.43-4.81-1.77-4.81S271.27,186.25,271.27,189.81Z"/><g class="e"><path class="a" d="M1.33,245.91c.09,1.4.81,2.48,2.31,2.48s2.21-.72,2.21-2.44c0-1.46-.54-2.22-2.28-3.07S.9,241.19.9,239.45a2.7,2.7,0,0,1,2.83-2.87c2.1,0,2.72,1.59,2.75,2.94H5.69a2.07,2.07,0,0,0-2-2.2,1.84,1.84,0,0,0-1.94,2c0,1.36.59,2,2.19,2.77,2.11,1,2.78,2.07,2.78,3.76,0,2-1,3.24-3.08,3.24-2.23,0-3-1.47-3.12-3.22Z"/><path class="a" d="M14,244.36c0,3.1-1,4.79-2.9,4.79s-2.92-1.64-2.92-4.77,1.14-4.54,3-4.54S14,241.34,14,244.36Zm-5,0c0,2.79.79,4,2.09,4s2.09-1.28,2.09-4.07c0-2.5-.74-3.8-2.09-3.8S9,241.62,9,244.4Z"/><path class="a" d="M21.13,246.63c0,1,0,1.94,0,2.36h-.74a11.34,11.34,0,0,1-.05-1.35,2.18,2.18,0,0,1-2.23,1.51c-.9,0-2.25-.29-2.25-2.68V240h.79v6.26c0,1.33.41,2.18,1.64,2.18s2-.74,2-3V240h.79Z"/><path class="a" d="M23.45,243.06c0-1.4,0-2.43,0-3.07h.75c0,.27,0,.72,0,1.67a2.57,2.57,0,0,1,2.39-1.8v.85c-1.58.09-2.39,1.42-2.39,3V249h-.78Z"/><path class="a" d="M32.83,246.43a2.71,2.71,0,0,1-2.66,2.72c-2.2,0-2.83-2.09-2.83-4.66s.85-4.65,2.95-4.65a2.53,2.53,0,0,1,2.54,2.67H32c0-.38-.17-1.95-1.71-1.95s-2.12,1.68-2.12,3.91c0,2.43.61,4,2,4s1.74-1.55,1.81-2Z"/><path class="a" d="M35,244.52c0,2.18.4,3.91,2,3.91s1.87-1.64,1.93-1.89h.79A2.77,2.77,0,0,1,37,249.15c-2.48,0-2.83-2.41-2.83-4.63,0-2.84.9-4.68,2.92-4.68,2.2,0,2.7,1.95,2.7,4.12,0,.08,0,.31,0,.56Zm4-.7c0-2-.49-3.26-1.93-3.26-2,0-2.05,2.67-2.07,3.26Z"/><path class="a" d="M8.53,265.38c0-2.28,0-4.57.08-5.87h0c-.45,2.13-1.57,7.21-2.54,11.08H4.75c-.72-3.37-1.89-8.84-2.34-11.09H2.36c.07,1.42.12,4.12.12,6.21v4.88H1.22V258.36h2c1,3.84,1.95,8.5,2.24,10.1h0c.24-1.33,1.43-6.41,2.4-10.1h2v12.23H8.53Z"/><path class="a" d="M17.33,269a16.05,16.05,0,0,0,.08,1.62H16.2a5.77,5.77,0,0,1-.09-1A2.13,2.13,0,0,1,14,270.75a2.36,2.36,0,0,1-2.39-2.65c0-1.65,1.13-2.91,3.52-2.91a8.57,8.57,0,0,1,1,0V264c0-.7-.15-1.62-1.37-1.62s-1.44,1-1.49,1.58H11.92a2.48,2.48,0,0,1,2.79-2.65c1.76,0,2.62.85,2.62,2.54Zm-1.27-2.7a4.9,4.9,0,0,0-.9-.06c-1.62,0-2.29.78-2.29,1.8a1.44,1.44,0,0,0,1.42,1.62c1.34,0,1.77-.95,1.77-2.88Z"/><path class="a" d="M19.83,261.46c1,3.82,1.73,6.55,1.86,7.53h0c.18-1.05,1-4.18,1.87-7.53h1.35l-2.66,9.6c-.74,2.66-1.44,3-2.74,3a4.8,4.8,0,0,1-.67-.05v-1.17l.62,0c.95,0,1.22-.65,1.58-2.1l-2.68-9.33Z"/><path class="a" d="M32,265.92c0,3.21-1.08,4.83-3.13,4.83s-3.15-1.57-3.15-4.81,1.24-4.63,3.21-4.63S32,262.85,32,265.92Zm-4.93,0c0,2.47.61,3.66,1.8,3.66s1.78-1.21,1.78-3.68-.57-3.49-1.78-3.49S27.07,263.48,27.07,266Z"/><path class="a" d="M33.71,264.57c0-1.45,0-2.46,0-3.11H35c0,.23,0,.67,0,1.62a2.5,2.5,0,0,1,2.41-1.77v1.46c-1.56.06-2.39,1.05-2.39,2.72v5.1H33.71Z"/><path class="a" d="M39,262l-.12-2.7v-1.55h1.26v1.56L40,262Z"/><path class="a" d="M42.3,268a1.58,1.58,0,0,0,1.6,1.71,1.33,1.33,0,0,0,1.48-1.44c0-.94-.47-1.37-1.68-1.84-1.89-.72-2.43-1.4-2.43-2.68a2.34,2.34,0,0,1,2.61-2.41,2.4,2.4,0,0,1,2.63,2.61H45.23c0-.45-.12-1.53-1.38-1.53a1.15,1.15,0,0,0-1.26,1.26c0,.74.32,1.08,1.58,1.58,1.77.67,2.54,1.32,2.54,2.88s-1,2.65-2.86,2.65A2.62,2.62,0,0,1,41,268Z"/><path class="a" d="M58.61,264.36c0,4.18-1,6.41-3.64,6.41s-3.56-2.16-3.56-6.38,1.22-6.21,3.63-6.21S58.61,260.22,58.61,264.36Zm-5.82,0c0,3.49.71,5.24,2.24,5.24s2.19-1.71,2.19-5.22-.7-5-2.21-5S52.79,261,52.79,264.36Z"/><path class="a" d="M62.21,262.59v8H60.89v-8H59.7v-1.13h1.19v-1.28c0-1.33.42-2.52,2.09-2.52a2.81,2.81,0,0,1,.74.11l0,1.13a2.92,2.92,0,0,0-.54,0c-.76,0-.92.5-.92,1.37v1.24h2.41v-1.23c0-1.33.41-2.59,2.11-2.59a2.38,2.38,0,0,1,.73.11l-.07,1.13a3.05,3.05,0,0,0-.52-.05c-.74,0-.94.54-.94,1.44v1.19h1.46v1.13H65.93v8H64.62v-8Z"/><path class="a" d="M68.5,259.66v-1.89h1.34v1.89Zm0,1.8h1.32v9.13H68.5Z"/><path class="a" d="M77.49,267.8a2.87,2.87,0,0,1-2.92,2.95c-2.37,0-3-2.11-3-4.75s.83-4.7,3.15-4.7a2.73,2.73,0,0,1,2.79,2.88H76.14c0-.36-.15-1.75-1.44-1.75s-1.8,1.44-1.8,3.55c0,2.27.5,3.64,1.73,3.64s1.47-1.34,1.54-1.82Z"/><path class="a" d="M80,266.27c0,1.78.3,3.35,1.74,3.35A1.68,1.68,0,0,0,83.43,268h1.3a2.89,2.89,0,0,1-3,2.77c-2.68,0-3.06-2.45-3.06-4.74,0-2.88,1-4.7,3.14-4.7,2.41,0,3,2,3,4.25,0,.18,0,.49,0,.71Zm3.45-1c0-1.58-.34-2.81-1.65-2.81-1.68,0-1.77,2.18-1.79,2.81Z"/><path class="a" d="M95.74,265.92c0,3.21-1.08,4.83-3.13,4.83s-3.15-1.57-3.15-4.81,1.24-4.63,3.2-4.63S95.74,262.85,95.74,265.92Zm-4.93,0c0,2.47.61,3.66,1.8,3.66s1.78-1.21,1.78-3.68-.58-3.49-1.78-3.49S90.81,263.48,90.81,266Z"/><path class="a" d="M97.67,270.59v-8H96.48v-1.13h1.19V260.2c0-1.35.48-2.54,2.14-2.54a2.76,2.76,0,0,1,.75.11v1.15a2.56,2.56,0,0,0-.61-.07c-.72,0-1,.45-1,1.38v1.23h1.44v1.13H99v8Z"/><path class="a" d="M104.9,258.36h1.35v11h4.36l-.18,1.19H104.9Z"/><path class="a" d="M117.61,265.92c0,3.21-1.08,4.83-3.13,4.83s-3.15-1.57-3.15-4.81,1.24-4.63,3.2-4.63S117.61,262.85,117.61,265.92Zm-4.93,0c0,2.47.61,3.66,1.8,3.66s1.78-1.21,1.78-3.68-.58-3.49-1.78-3.49S112.68,263.48,112.68,266Z"/><path class="a" d="M119.32,264.29c0-1.88,0-2.42,0-2.83h1.28c0,.22,0,.58,0,1.19a2.15,2.15,0,0,1,2.16-1.35c1.32,0,2.34.75,2.34,2.79v6.5H123.8v-6.25c0-1.12-.36-1.87-1.4-1.87-1.23,0-1.75.81-1.75,2.68v5.44h-1.33Z"/><path class="a" d="M133,270c0,2.4-.58,4.07-3.21,4.07-2.36,0-2.86-1.53-2.91-2.5h1.33a1.47,1.47,0,0,0,1.64,1.38c1.53,0,1.83-1.11,1.83-2.95v-.84a2.07,2.07,0,0,1-2.12,1.4c-1.84,0-2.76-1.57-2.76-4.45,0-3.27,1.23-4.81,3-4.81,1.24,0,1.76.6,1.92,1.19,0-.41.06-.86.07-1H133c0,.47,0,1.4,0,2.63Zm-3.08-.61c1.4,0,1.8-1.39,1.8-3.51s-.31-3.42-1.69-3.42c-1.21,0-1.86,1.26-1.86,3.63C128.19,268.32,128.8,269.4,129.94,269.4Z"/><path class="a" d="M138.27,265.33v1.19H134.6v-1.19Z"/><path class="a" d="M140.76,259.55H138v-1.19h6.79v1.19h-2.72v11h-1.35Z"/><path class="a" d="M145.42,266.27c0,1.78.3,3.35,1.74,3.35a1.68,1.68,0,0,0,1.66-1.64h1.3a2.89,2.89,0,0,1-3,2.77c-2.69,0-3.07-2.45-3.07-4.74,0-2.88,1-4.7,3.14-4.7,2.41,0,3,2,3,4.25,0,.18,0,.49,0,.71Zm3.46-1c0-1.58-.35-2.81-1.66-2.81-1.68,0-1.77,2.18-1.78,2.81Z"/><path class="a" d="M151.86,264.57c0-1.45,0-2.46,0-3.11h1.26c0,.23.06.67.06,1.62a2.5,2.5,0,0,1,2.41-1.77v1.46c-1.57.06-2.39,1.05-2.39,2.72v5.1h-1.32Z"/><path class="a" d="M156.74,264.2c0-1.62,0-2.31,0-2.74H158a9.68,9.68,0,0,1,.05,1.17,2.09,2.09,0,0,1,2-1.32,1.76,1.76,0,0,1,1.89,1.36,2.25,2.25,0,0,1,2.21-1.36c1.14,0,2.2.55,2.2,2.65v6.63h-1.3v-6.41c0-.92-.27-1.71-1.29-1.71s-1.55,1-1.55,2.27v5.85h-1.32v-6.38c0-1.11-.37-1.72-1.27-1.72-1.08,0-1.61,1-1.61,2.37v5.73h-1.31Z"/><path class="a" d="M172.11,258.36h3.15a3.09,3.09,0,0,1,3.26,3.41,3.18,3.18,0,0,1-3.44,3.52h-1.62v5.3h-1.35Zm1.35,5.8h1.48c1.46,0,2.21-.77,2.21-2.41a2,2,0,0,0-2.07-2.25h-1.62Z"/><path class="a" d="M180,270.59V257.77h1.32v12.82Z"/><path class="a" d="M188.71,269c0,.57,0,1.33.07,1.62h-1.21a5.77,5.77,0,0,1-.09-1,2.12,2.12,0,0,1-2.16,1.21,2.36,2.36,0,0,1-2.39-2.65c0-1.65,1.13-2.91,3.53-2.91a8.47,8.47,0,0,1,.95,0V264c0-.7-.14-1.62-1.37-1.62s-1.44,1-1.49,1.58h-1.26a2.49,2.49,0,0,1,2.79-2.65c1.76,0,2.63.85,2.63,2.54Zm-1.28-2.7a4.9,4.9,0,0,0-.9-.06c-1.62,0-2.29.78-2.29,1.8a1.44,1.44,0,0,0,1.43,1.62c1.33,0,1.76-.95,1.76-2.88Z"/><path class="a" d="M190.88,264.29c0-1.88,0-2.42,0-2.83h1.27a11.24,11.24,0,0,1,.06,1.19,2.15,2.15,0,0,1,2.16-1.35c1.31,0,2.34.75,2.34,2.79v6.5h-1.33v-6.25c0-1.12-.36-1.87-1.41-1.87-1.22,0-1.74.81-1.74,2.68v5.44h-1.34Z"/><path class="a" d="M198.86,264.29c0-1.88,0-2.42,0-2.83h1.28c0,.22,0,.58,0,1.19a2.15,2.15,0,0,1,2.16-1.35c1.32,0,2.34.75,2.34,2.79v6.5h-1.33v-6.25c0-1.12-.36-1.87-1.4-1.87-1.23,0-1.75.81-1.75,2.68v5.44h-1.33Z"/><path class="a" d="M206.83,259.66v-1.89h1.33v1.89Zm0,1.8h1.32v9.13h-1.32Z"/><path class="a" d="M210.32,264.29c0-1.88,0-2.42,0-2.83h1.27a11.24,11.24,0,0,1,.06,1.19,2.15,2.15,0,0,1,2.16-1.35c1.31,0,2.34.75,2.34,2.79v6.5h-1.33v-6.25c0-1.12-.36-1.87-1.41-1.87-1.22,0-1.74.81-1.74,2.68v5.44h-1.34Z"/><path class="a" d="M224,270c0,2.4-.57,4.07-3.2,4.07-2.36,0-2.86-1.53-2.92-2.5h1.33a1.48,1.48,0,0,0,1.64,1.38c1.53,0,1.84-1.11,1.84-2.95v-.84a2.08,2.08,0,0,1-2.13,1.4c-1.83,0-2.75-1.57-2.75-4.45,0-3.27,1.22-4.81,2.95-4.81,1.24,0,1.77.6,1.93,1.19a10,10,0,0,1,.07-1H224c0,.47,0,1.4,0,2.63Zm-3.08-.61c1.41,0,1.8-1.39,1.8-3.51s-.3-3.42-1.69-3.42c-1.2,0-1.85,1.26-1.85,3.63C219.2,268.32,219.81,269.4,220.94,269.4Z"/><path class="a" d="M235,269c0,.57,0,1.33.07,1.62h-1.21a5.77,5.77,0,0,1-.09-1,2.12,2.12,0,0,1-2.16,1.21,2.36,2.36,0,0,1-2.39-2.65c0-1.65,1.13-2.91,3.53-2.91a8.47,8.47,0,0,1,1,0V264c0-.7-.14-1.62-1.37-1.62s-1.44,1-1.49,1.58h-1.26a2.49,2.49,0,0,1,2.79-2.65c1.76,0,2.63.85,2.63,2.54Zm-1.28-2.7a4.9,4.9,0,0,0-.9-.06c-1.62,0-2.29.78-2.29,1.8a1.44,1.44,0,0,0,1.43,1.62c1.33,0,1.76-.95,1.76-2.88Z"/><path class="a" d="M237.12,264.29c0-1.88,0-2.42,0-2.83h1.27a11.24,11.24,0,0,1,.06,1.19,2.15,2.15,0,0,1,2.16-1.35c1.31,0,2.34.75,2.34,2.79v6.5h-1.33v-6.25c0-1.12-.36-1.87-1.41-1.87-1.22,0-1.74.81-1.74,2.68v5.44h-1.34Z"/><path class="a" d="M250.81,257.77v10.48c0,.88,0,1.8,0,2.34h-1.28c0-.24,0-.83,0-1.23a2,2,0,0,1-2.14,1.39c-1.89,0-2.7-1.62-2.7-4.83,0-2.91,1.06-4.61,3-4.61a1.8,1.8,0,0,1,1.85.94v-4.48Zm-3.1,11.81c1.42,0,1.8-1.21,1.8-3.69,0-2.67-.38-3.42-1.69-3.42-1.08,0-1.82.95-1.82,3.47S246.59,269.58,247.71,269.58Z"/><path class="a" d="M257.12,267.38c.11,1.25.7,2.25,2.05,2.25s1.93-.7,1.93-2.1-.52-2-2.2-2.78c-1.9-.91-2.75-1.76-2.75-3.52a2.87,2.87,0,0,1,3.08-3c2.36,0,3,1.69,3,3.11h-1.31c-.07-.57-.25-2-1.77-2a1.59,1.59,0,0,0-1.67,1.78c0,1.17.52,1.73,2.05,2.45,2.15,1,2.92,2.05,2.92,3.87a3.05,3.05,0,0,1-3.33,3.33c-2.45,0-3.26-1.6-3.35-3.37Z"/><path class="a" d="M269.71,268.08c0,1.16,0,2.08,0,2.51h-1.26a11.19,11.19,0,0,1,0-1.23,2.12,2.12,0,0,1-2.18,1.39c-1.06,0-2.29-.43-2.29-2.72v-6.57h1.34v6.25c0,1.17.32,1.87,1.36,1.87s1.73-.61,1.73-2.58v-5.54h1.34Z"/><path class="a" d="M272.49,268c.06,1,.56,1.71,1.61,1.71a1.32,1.32,0,0,0,1.47-1.44c0-.94-.47-1.37-1.67-1.84-1.89-.72-2.43-1.4-2.43-2.68a2.34,2.34,0,0,1,2.61-2.41,2.4,2.4,0,0,1,2.63,2.61h-1.28c0-.45-.13-1.53-1.39-1.53a1.16,1.16,0,0,0-1.26,1.26c0,.74.33,1.08,1.59,1.58,1.76.67,2.54,1.32,2.54,2.88s-1.05,2.65-2.87,2.65a2.61,2.61,0,0,1-2.86-2.79Z"/><path class="a" d="M277.52,261.46h1.29V259h1.3v2.43h1.6v1.13h-1.6v6c0,.63.14,1,.83,1a3.1,3.1,0,0,0,.64-.06v1a3.6,3.6,0,0,1-1.08.14c-1.06,0-1.69-.43-1.69-1.87v-6.25h-1.29Z"/><path class="a" d="M288.26,269c0,.57,0,1.33.07,1.62h-1.2a5,5,0,0,1-.09-1,2.13,2.13,0,0,1-2.16,1.21,2.37,2.37,0,0,1-2.4-2.65c0-1.65,1.14-2.91,3.53-2.91a8.66,8.66,0,0,1,1,0V264c0-.7-.15-1.62-1.37-1.62s-1.44,1-1.5,1.58h-1.26a2.49,2.49,0,0,1,2.79-2.65c1.77,0,2.63.85,2.63,2.54Zm-1.28-2.7a4.75,4.75,0,0,0-.9-.06c-1.62,0-2.28.78-2.28,1.8a1.44,1.44,0,0,0,1.42,1.62c1.33,0,1.76-.95,1.76-2.88Z"/><path class="a" d="M290.44,259.66v-1.89h1.33v1.89Zm0,1.8h1.31v9.13h-1.31Z"/><path class="a" d="M293.93,264.29c0-1.88,0-2.42,0-2.83h1.28a11.24,11.24,0,0,1,.06,1.19,2.13,2.13,0,0,1,2.16-1.35c1.31,0,2.34.75,2.34,2.79v6.5h-1.34v-6.25c0-1.12-.36-1.87-1.4-1.87-1.22,0-1.75.81-1.75,2.68v5.44h-1.33Z"/><path class="a" d="M307.07,269c0,.57,0,1.33.07,1.62h-1.2a5,5,0,0,1-.09-1,2.13,2.13,0,0,1-2.16,1.21,2.37,2.37,0,0,1-2.4-2.65c0-1.65,1.14-2.91,3.53-2.91a8.66,8.66,0,0,1,1,0V264c0-.7-.15-1.62-1.37-1.62s-1.44,1-1.5,1.58h-1.26a2.49,2.49,0,0,1,2.79-2.65c1.77,0,2.63.85,2.63,2.54Zm-1.28-2.7a4.75,4.75,0,0,0-.9-.06c-1.62,0-2.28.78-2.28,1.8a1.44,1.44,0,0,0,1.42,1.62c1.33,0,1.76-.95,1.76-2.88Z"/><path class="a" d="M309.27,257.77h1.31v4.9a2.18,2.18,0,0,1,2.18-1.36c1.75,0,2.66,1.46,2.66,4.49,0,2.81-.75,4.93-2.91,4.93a1.93,1.93,0,0,1-2-1.22c0,.3,0,.72,0,1.08h-1.24c0-.49,0-1.39,0-2.51Zm3.13,4.7c-1.4,0-1.87,1.26-1.87,3.58s.36,3.53,1.74,3.53c1.21,0,1.8-1.19,1.8-3.76C314.07,263.53,313.55,262.47,312.4,262.47Z"/><path class="a" d="M317.1,259.66v-1.89h1.33v1.89Zm0,1.8h1.31v9.13H317.1Z"/><path class="a" d="M320.59,270.59V257.77h1.31v12.82Z"/><path class="a" d="M324.06,259.66v-1.89h1.33v1.89Zm0,1.8h1.32v9.13h-1.32Z"/><path class="a" d="M326.6,261.46h1.3V259h1.29v2.43h1.6v1.13h-1.6v6c0,.63.15,1,.83,1a3.13,3.13,0,0,0,.65-.06v1a3.69,3.69,0,0,1-1.08.14c-1.06,0-1.69-.43-1.69-1.87v-6.25h-1.3Z"/><path class="a" d="M333,261.46c1,3.82,1.73,6.55,1.85,7.53h0c.18-1.05,1-4.18,1.87-7.53h1.35l-2.66,9.6c-.74,2.66-1.44,3-2.74,3A4.77,4.77,0,0,1,332,274v-1.17l.61,0c.95,0,1.22-.65,1.58-2.1l-2.68-9.33Z"/><path class="a" d="M346.11,257.71a13,13,0,0,0-2.3,7.57,13.62,13.62,0,0,0,2.3,7.79h-1.28a13.75,13.75,0,0,1-2.27-7.81,13.23,13.23,0,0,1,2.27-7.55Z"/><path class="a" d="M354.34,264.36c0,4.18-1,6.41-3.64,6.41s-3.56-2.16-3.56-6.38,1.22-6.21,3.63-6.21S354.34,260.22,354.34,264.36Zm-5.82,0c0,3.49.71,5.24,2.24,5.24s2.19-1.71,2.19-5.22-.7-5-2.21-5S348.52,261,348.52,264.36Z"/><path class="a" d="M356.3,258.36h1.35v11H362l-.18,1.19H356.3Z"/><path class="a" d="M363.43,259.55h-2.72v-1.19h6.79v1.19h-2.72v11h-1.35Z"/><path class="a" d="M368.81,258.36H372a3.09,3.09,0,0,1,3.26,3.41,3.18,3.18,0,0,1-3.44,3.52h-1.62v5.3h-1.35Zm1.35,5.8h1.48c1.45,0,2.21-.77,2.21-2.41a2,2,0,0,0-2.07-2.25h-1.62Z"/><path class="a" d="M377.56,267.38c.1,1.25.7,2.25,2.05,2.25s1.93-.7,1.93-2.1-.53-2-2.2-2.78c-1.91-.91-2.76-1.76-2.76-3.52a2.87,2.87,0,0,1,3.08-3c2.36,0,3,1.69,3,3.11h-1.32c-.07-.57-.25-2-1.76-2a1.6,1.6,0,0,0-1.68,1.78c0,1.17.53,1.73,2.06,2.45,2.14,1,2.91,2.05,2.91,3.87a3.05,3.05,0,0,1-3.33,3.33c-2.45,0-3.26-1.6-3.35-3.37Z"/><path class="a" d="M383.91,273.07a12.92,12.92,0,0,0,2.31-7.58,13.77,13.77,0,0,0-2.31-7.78h1.28a13.62,13.62,0,0,1,2.25,7.8,13.33,13.33,0,0,1-2.25,7.56Z"/><path class="a" d="M398.69,265.92c0,3.21-1.08,4.83-3.13,4.83s-3.15-1.57-3.15-4.81,1.24-4.63,3.2-4.63S398.69,262.85,398.69,265.92Zm-4.93,0c0,2.47.61,3.66,1.8,3.66s1.78-1.21,1.78-3.68-.58-3.49-1.78-3.49S393.76,263.48,393.76,266Z"/><path class="a" d="M400.4,264.29c0-1.88,0-2.42,0-2.83h1.28c0,.22,0,.58,0,1.19a2.15,2.15,0,0,1,2.16-1.35c1.32,0,2.34.75,2.34,2.79v6.5h-1.33v-6.25c0-1.12-.36-1.87-1.4-1.87-1.23,0-1.75.81-1.75,2.68v5.44H400.4Z"/><path class="a" d="M1.1,279.37H2.41v4.9a2.17,2.17,0,0,1,2.18-1.35c1.75,0,2.67,1.45,2.67,4.48,0,2.81-.76,4.93-2.92,4.93a1.94,1.94,0,0,1-2-1.22c0,.3,0,.72,0,1.08H1.08c0-.49,0-1.39,0-2.5Zm3.13,4.7c-1.4,0-1.87,1.26-1.87,3.58s.36,3.53,1.75,3.53c1.2,0,1.8-1.19,1.8-3.76C5.91,285.13,5.38,284.07,4.23,284.07Z"/><path class="a" d="M9.86,287.87c0,1.78.31,3.35,1.75,3.35a1.68,1.68,0,0,0,1.66-1.64h1.29a2.89,2.89,0,0,1-3,2.77c-2.68,0-3.06-2.45-3.06-4.74,0-2.88,1-4.69,3.13-4.69,2.42,0,3,2,3,4.24,0,.18,0,.49,0,.71Zm3.46-1c0-1.58-.34-2.81-1.66-2.81-1.67,0-1.76,2.18-1.78,2.81Z"/><path class="a" d="M17.66,279.37v4.81a2.14,2.14,0,0,1,2.18-1.28c1.33,0,2.3.84,2.3,2.79v6.5H20.81V286c0-1.12-.32-1.89-1.44-1.89s-1.71,1-1.71,2.63v5.49H16.33V279.37Z"/><path class="a" d="M29.43,290.57c0,.57,0,1.33.07,1.62H28.3a5,5,0,0,1-.09-1.05,2.13,2.13,0,0,1-2.16,1.21,2.37,2.37,0,0,1-2.4-2.65c0-1.65,1.14-2.91,3.53-2.91a8.66,8.66,0,0,1,1,0V285.6c0-.7-.15-1.62-1.37-1.62s-1.44,1-1.5,1.58H24a2.48,2.48,0,0,1,2.79-2.64c1.77,0,2.63.84,2.63,2.53Zm-1.28-2.7a4.75,4.75,0,0,0-.9-.06c-1.62,0-2.28.78-2.28,1.8a1.44,1.44,0,0,0,1.42,1.62c1.33,0,1.76-1,1.76-2.88Z"/><path class="a" d="M31.61,292.19V279.37h1.31v12.82Z"/><path class="a" d="M35.33,292.19v-8H34.14v-1.13h1.19V281.8c0-1.35.49-2.54,2.15-2.54a2.76,2.76,0,0,1,.75.11v1.15a2.63,2.63,0,0,0-.61-.07c-.72,0-1,.45-1,1.38v1.23h1.44v1.13H36.65v8Z"/><path class="a" d="M48.28,287.52c0,3.21-1.08,4.83-3.14,4.83S42,290.78,42,287.54s1.24-4.62,3.21-4.62S48.28,284.45,48.28,287.52Zm-4.94,0c0,2.47.61,3.66,1.8,3.66s1.78-1.21,1.78-3.68-.57-3.49-1.78-3.49S43.34,285.08,43.34,287.56Z"/><path class="a" d="M50.2,292.19v-8H49v-1.13H50.2V281.8c0-1.35.49-2.54,2.14-2.54a2.84,2.84,0,0,1,.76.11v1.15a2.63,2.63,0,0,0-.61-.07c-.72,0-1,.45-1,1.38v1.23H53v1.13H51.51v8Z"/><path class="a" d="M63.81,288.8c-.06.71-.36,3.57-3.33,3.57-3.26,0-3.51-3.44-3.51-6.38,0-3.56,1-6.21,3.65-6.21,3,0,3.12,2.76,3.15,3.51H62.42c0-.41-.11-2.3-1.82-2.3-1.92,0-2.23,2.63-2.23,5,0,2.58.29,5.19,2.14,5.19,1.64,0,1.88-1.76,1.93-2.38Z"/><path class="a" d="M66.78,280v8.57c0,1.35.38,2.69,2,2.69s2-1.12,2-2.69V280h1.34v8.59c0,2.23-.82,3.84-3.39,3.84s-3.33-1.52-3.33-3.75V280Z"/><path class="a" d="M74.44,292.19V280H76.1c3.39,8.46,3.85,9.62,4,10.14h0c-.09-1.64-.1-3.48-.1-5.47V280h1.26v12.23H79.7c-3.51-8.9-3.94-10-4.08-10.5h0c.09,1.53.11,3.53.11,5.73v4.77Z"/><path class="a" d="M85.51,292.19v-4.67a.63.63,0,0,0-.07-.3L82.33,280h1.51c.83,2.07,2,4.94,2.38,6.05.43-1.19,1.62-4.09,2.41-6.05h1.42l-3.13,7.26a.66.66,0,0,0-.07.32v4.65Z"/><path class="a" d="M95.88,280v12.23H94.53V280Z"/><path class="a" d="M98,285.89c0-1.88,0-2.42,0-2.83h1.27a11.24,11.24,0,0,1,.06,1.19,2.15,2.15,0,0,1,2.16-1.35c1.31,0,2.34.75,2.34,2.79v6.5h-1.33v-6.25c0-1.12-.36-1.87-1.41-1.87-1.22,0-1.74.81-1.74,2.68v5.44H98Z"/><path class="a" d="M106.65,289.56a1.57,1.57,0,0,0,1.6,1.71,1.32,1.32,0,0,0,1.47-1.44c0-.94-.46-1.37-1.67-1.84-1.89-.72-2.43-1.4-2.43-2.68a2.34,2.34,0,0,1,2.61-2.41,2.4,2.4,0,0,1,2.63,2.61h-1.28c0-.45-.13-1.53-1.39-1.53a1.16,1.16,0,0,0-1.26,1.26c0,.74.33,1.08,1.59,1.58,1.76.67,2.54,1.32,2.54,2.88s-1,2.65-2.87,2.65a2.61,2.61,0,0,1-2.86-2.79Z"/><path class="a" d="M111.67,283.06H113v-2.43h1.3v2.43h1.6v1.13h-1.6v6c0,.63.14,1,.83,1a3.2,3.2,0,0,0,.65-.06v1a3.69,3.69,0,0,1-1.08.14c-1.07,0-1.7-.43-1.7-1.87v-6.25h-1.29Z"/><path class="a" d="M117.16,281.26v-1.89h1.33v1.89Zm0,1.8h1.31v9.13h-1.31Z"/><path class="a" d="M119.7,283.06H121v-2.43h1.3v2.43h1.6v1.13h-1.6v6c0,.63.14,1,.83,1a3.1,3.1,0,0,0,.64-.06v1a3.6,3.6,0,0,1-1.08.14c-1.06,0-1.69-.43-1.69-1.87v-6.25H119.7Z"/><path class="a" d="M130.77,289.69c0,1.15,0,2.07,0,2.5h-1.26a11.19,11.19,0,0,1-.05-1.23,2.12,2.12,0,0,1-2.18,1.39c-1.06,0-2.29-.43-2.29-2.72v-6.57h1.34v6.25c0,1.17.32,1.87,1.37,1.87s1.72-.61,1.72-2.57v-5.55h1.34Z"/><path class="a" d="M132,283.06h1.3v-2.43h1.3v2.43h1.6v1.13h-1.6v6c0,.63.14,1,.82,1a3.13,3.13,0,0,0,.65-.06v1a3.6,3.6,0,0,1-1.08.14c-1.06,0-1.69-.43-1.69-1.87v-6.25H132Z"/><path class="a" d="M138.18,287.87c0,1.78.31,3.35,1.75,3.35a1.66,1.66,0,0,0,1.65-1.64h1.3a2.89,2.89,0,0,1-3,2.77c-2.68,0-3.06-2.45-3.06-4.74,0-2.88,1-4.69,3.13-4.69,2.41,0,3,2,3,4.24,0,.18,0,.49,0,.71Zm3.46-1c0-1.58-.34-2.81-1.66-2.81-1.67,0-1.76,2.18-1.78,2.81Z"/><path class="a" d="M148.21,292.19v-8H147v-1.13h1.19V281.8c0-1.35.48-2.54,2.14-2.54a2.84,2.84,0,0,1,.76.11v1.15a2.72,2.72,0,0,0-.62-.07c-.72,0-1,.45-1,1.38v1.23H151v1.13h-1.44v8Z"/><path class="a" d="M157.8,287.52c0,3.21-1.08,4.83-3.13,4.83s-3.15-1.57-3.15-4.81,1.24-4.62,3.2-4.62S157.8,284.45,157.8,287.52Zm-4.93,0c0,2.47.61,3.66,1.8,3.66s1.78-1.21,1.78-3.68-.57-3.49-1.78-3.49S152.87,285.08,152.87,287.56Z"/><path class="a" d="M159.51,286.17c0-1.45,0-2.46,0-3.11h1.26c0,.23.06.67.06,1.62a2.47,2.47,0,0,1,2.41-1.76v1.45c-1.57.06-2.4,1.05-2.4,2.72v5.1h-1.31Z"/><path class="a" d="M168.64,289c.1,1.25.7,2.25,2.05,2.25s1.92-.7,1.92-2.1-.52-2-2.19-2.78c-1.91-.91-2.76-1.76-2.76-3.52a2.87,2.87,0,0,1,3.08-3c2.36,0,3,1.69,3,3.12h-1.32c-.07-.58-.25-2-1.76-2A1.6,1.6,0,0,0,169,282.7c0,1.17.53,1.73,2.06,2.45,2.14,1,2.91,2.05,2.91,3.87a3.05,3.05,0,0,1-3.33,3.33c-2.45,0-3.26-1.6-3.35-3.37Z"/><path class="a" d="M181.22,289.69c0,1.15,0,2.07,0,2.5H180a8.67,8.67,0,0,1-.06-1.23,2.11,2.11,0,0,1-2.18,1.39c-1.06,0-2.28-.43-2.28-2.72v-6.57h1.33v6.25c0,1.17.32,1.87,1.37,1.87s1.73-.61,1.73-2.57v-5.55h1.33Z"/><path class="a" d="M184,289.56a1.58,1.58,0,0,0,1.6,1.71,1.33,1.33,0,0,0,1.48-1.44c0-.94-.47-1.37-1.68-1.84-1.89-.72-2.43-1.4-2.43-2.68a2.34,2.34,0,0,1,2.61-2.41,2.4,2.4,0,0,1,2.63,2.61h-1.28c0-.45-.12-1.53-1.38-1.53a1.16,1.16,0,0,0-1.27,1.26c0,.74.33,1.08,1.59,1.58,1.76.67,2.54,1.32,2.54,2.88s-1,2.65-2.86,2.65a2.62,2.62,0,0,1-2.87-2.79Z"/><path class="a" d="M189,283.06h1.3v-2.43h1.29v2.43h1.6v1.13h-1.6v6c0,.63.15,1,.83,1a3.13,3.13,0,0,0,.65-.06v1a3.69,3.69,0,0,1-1.08.14c-1.06,0-1.69-.43-1.69-1.87v-6.25H189Z"/><path class="a" d="M199.78,290.57c0,.57,0,1.33.07,1.62h-1.21a5.77,5.77,0,0,1-.09-1.05,2.12,2.12,0,0,1-2.16,1.21A2.36,2.36,0,0,1,194,289.7c0-1.65,1.13-2.91,3.53-2.91a8.47,8.47,0,0,1,.95,0V285.6c0-.7-.14-1.62-1.37-1.62s-1.44,1-1.49,1.58h-1.26a2.47,2.47,0,0,1,2.79-2.64c1.76,0,2.63.84,2.63,2.53Zm-1.28-2.7a4.9,4.9,0,0,0-.9-.06c-1.62,0-2.29.78-2.29,1.8a1.44,1.44,0,0,0,1.42,1.62c1.34,0,1.77-1,1.77-2.88Z"/><path class="a" d="M202,281.26v-1.89h1.34v1.89Zm0,1.8h1.32v9.13H202Z"/><path class="a" d="M205.44,285.89c0-1.88,0-2.42,0-2.83h1.28c0,.22,0,.58,0,1.19a2.15,2.15,0,0,1,2.16-1.35c1.31,0,2.34.75,2.34,2.79v6.5h-1.33v-6.25c0-1.12-.36-1.87-1.41-1.87-1.22,0-1.74.81-1.74,2.68v5.44h-1.34Z"/><path class="a" d="M218.59,290.57c0,.57,0,1.33.07,1.62h-1.21a5.77,5.77,0,0,1-.09-1.05,2.12,2.12,0,0,1-2.16,1.21,2.36,2.36,0,0,1-2.39-2.65c0-1.65,1.13-2.91,3.53-2.91a8.47,8.47,0,0,1,.95,0V285.6c0-.7-.14-1.62-1.37-1.62s-1.44,1-1.49,1.58h-1.26a2.47,2.47,0,0,1,2.79-2.64c1.76,0,2.63.84,2.63,2.53Zm-1.28-2.7a4.9,4.9,0,0,0-.9-.06c-1.62,0-2.29.78-2.29,1.8a1.44,1.44,0,0,0,1.42,1.62c1.34,0,1.77-1,1.77-2.88Z"/><path class="a" d="M220.78,279.37h1.31v4.9a2.17,2.17,0,0,1,2.18-1.35c1.75,0,2.67,1.45,2.67,4.48,0,2.81-.76,4.93-2.92,4.93a1.94,1.94,0,0,1-2-1.22c0,.3,0,.72,0,1.08h-1.24c0-.49,0-1.39,0-2.5Zm3.13,4.7c-1.4,0-1.87,1.26-1.87,3.58s.36,3.53,1.75,3.53c1.2,0,1.8-1.19,1.8-3.76C225.59,285.13,225.06,284.07,223.91,284.07Z"/><path class="a" d="M228.61,292.19V279.37h1.31v12.82Z"/><path class="a" d="M233,287.87c0,1.78.3,3.35,1.74,3.35a1.68,1.68,0,0,0,1.66-1.64h1.3a2.9,2.9,0,0,1-3,2.77c-2.68,0-3.06-2.45-3.06-4.74,0-2.88,1-4.69,3.14-4.69,2.41,0,3,2,3,4.24,0,.18,0,.49,0,.71Zm3.45-1c0-1.58-.34-2.81-1.65-2.81-1.68,0-1.77,2.18-1.79,2.81Z"/><path class="a" d="M249.35,288.8c-.06.71-.36,3.57-3.33,3.57-3.26,0-3.52-3.44-3.52-6.38,0-3.56,1-6.21,3.66-6.21,3,0,3.11,2.76,3.15,3.51H248c0-.41-.11-2.3-1.82-2.3-1.92,0-2.23,2.63-2.23,5,0,2.58.29,5.19,2.14,5.19,1.64,0,1.87-1.76,1.93-2.38Z"/><path class="a" d="M251,281.26v-1.89h1.33v1.89Zm0,1.8h1.31v9.13H251Z"/><path class="a" d="M253.57,283.06h1.3v-2.43h1.3v2.43h1.6v1.13h-1.6v6c0,.63.14,1,.83,1a3.1,3.1,0,0,0,.64-.06v1a3.6,3.6,0,0,1-1.08.14c-1.06,0-1.69-.43-1.69-1.87v-6.25h-1.3Z"/><path class="a" d="M259.06,281.26v-1.89h1.34v1.89Zm0,1.8h1.32v9.13h-1.32Z"/><path class="a" d="M263.44,287.87c0,1.78.3,3.35,1.74,3.35a1.66,1.66,0,0,0,1.66-1.64h1.3a2.89,2.89,0,0,1-3,2.77c-2.69,0-3.06-2.45-3.06-4.74,0-2.88,1-4.69,3.13-4.69,2.41,0,3,2,3,4.24,0,.18,0,.49,0,.71Zm3.46-1c0-1.58-.35-2.81-1.66-2.81-1.68,0-1.77,2.18-1.78,2.81Z"/><path class="a" d="M270.64,289.56a1.58,1.58,0,0,0,1.6,1.71,1.33,1.33,0,0,0,1.48-1.44c0-.94-.47-1.37-1.68-1.84-1.89-.72-2.43-1.4-2.43-2.68a2.34,2.34,0,0,1,2.61-2.41,2.4,2.4,0,0,1,2.63,2.61h-1.28c0-.45-.12-1.53-1.38-1.53a1.15,1.15,0,0,0-1.26,1.26c0,.74.32,1.08,1.58,1.58,1.77.67,2.54,1.32,2.54,2.88s-1,2.65-2.86,2.65a2.62,2.62,0,0,1-2.87-2.79Z"/><path class="a" d="M283.44,279.31a12.89,12.89,0,0,0-2.31,7.57,13.63,13.63,0,0,0,2.31,7.79h-1.28a13.67,13.67,0,0,1-2.27-7.81,13.16,13.16,0,0,1,2.27-7.55Z"/><path class="a" d="M291.3,288.8c-.05.71-.36,3.57-3.33,3.57-3.26,0-3.51-3.44-3.51-6.38,0-3.56,1-6.21,3.66-6.21,2.95,0,3.11,2.76,3.15,3.51h-1.35c0-.41-.11-2.3-1.82-2.3-1.93,0-2.23,2.63-2.23,5,0,2.58.28,5.19,2.14,5.19,1.64,0,1.87-1.76,1.93-2.38Z"/><path class="a" d="M294.36,280v12.23H293V280Z"/><path class="a" d="M297.39,289c.1,1.25.7,2.25,2.05,2.25s1.93-.7,1.93-2.1-.53-2-2.2-2.78c-1.91-.91-2.76-1.76-2.76-3.52a2.87,2.87,0,0,1,3.08-3c2.36,0,3,1.69,3,3.12H301.2c-.07-.58-.25-2-1.76-2a1.6,1.6,0,0,0-1.68,1.78c0,1.17.53,1.73,2.06,2.45,2.14,1,2.91,2.05,2.91,3.87a3.05,3.05,0,0,1-3.33,3.33c-2.45,0-3.26-1.6-3.35-3.37Z"/><path class="a" d="M310.91,288.8c-.06.71-.36,3.57-3.33,3.57-3.26,0-3.52-3.44-3.52-6.38,0-3.56,1-6.21,3.66-6.21,2.95,0,3.11,2.76,3.15,3.51h-1.35c0-.41-.11-2.3-1.82-2.3-1.93,0-2.23,2.63-2.23,5,0,2.58.29,5.19,2.14,5.19,1.64,0,1.87-1.76,1.93-2.38Z"/><path class="a" d="M311.82,294.67a12.92,12.92,0,0,0,2.31-7.58,13.77,13.77,0,0,0-2.31-7.78h1.28a13.62,13.62,0,0,1,2.25,7.8,13.26,13.26,0,0,1-2.25,7.56Z"/><path class="a" d="M326.08,290.57c0,.57,0,1.33.07,1.62H325a5,5,0,0,1-.09-1.05,2.14,2.14,0,0,1-2.16,1.21,2.37,2.37,0,0,1-2.4-2.65c0-1.65,1.13-2.91,3.53-2.91a8.47,8.47,0,0,1,.95,0V285.6c0-.7-.14-1.62-1.36-1.62s-1.44,1-1.5,1.58h-1.26a2.48,2.48,0,0,1,2.79-2.64c1.77,0,2.63.84,2.63,2.53Zm-1.28-2.7a4.82,4.82,0,0,0-.9-.06c-1.62,0-2.28.78-2.28,1.8a1.44,1.44,0,0,0,1.42,1.62c1.33,0,1.76-1,1.76-2.88Z"/><path class="a" d="M328.26,285.89c0-1.88,0-2.42,0-2.83h1.28c0,.22.05.58.05,1.19a2.15,2.15,0,0,1,2.16-1.35c1.32,0,2.34.75,2.34,2.79v6.5h-1.33v-6.25c0-1.12-.36-1.87-1.41-1.87-1.22,0-1.74.81-1.74,2.68v5.44h-1.33Z"/><path class="a" d="M341.94,279.37v10.48c0,.88,0,1.8,0,2.34h-1.28c0-.24-.06-.83-.06-1.23a2,2,0,0,1-2.14,1.39c-1.89,0-2.7-1.62-2.7-4.83,0-2.91,1.06-4.6,3-4.6a1.8,1.8,0,0,1,1.85.93v-4.48Zm-3.1,11.81c1.42,0,1.8-1.21,1.8-3.69,0-2.67-.38-3.42-1.69-3.42-1.08,0-1.82.95-1.82,3.47S337.72,291.18,338.84,291.18Z"/><path class="a" d="M346.4,283.06h1.3v-2.43H349v2.43h1.6v1.13H349v6c0,.63.15,1,.83,1a3.13,3.13,0,0,0,.65-.06v1a3.69,3.69,0,0,1-1.08.14c-1.06,0-1.69-.43-1.69-1.87v-6.25h-1.3Z"/><path class="a" d="M353.19,279.37v4.81a2.13,2.13,0,0,1,2.17-1.28c1.34,0,2.31.84,2.31,2.79v6.5h-1.33V286c0-1.12-.33-1.89-1.44-1.89s-1.71,1-1.71,2.63v5.49h-1.34V279.37Z"/><path class="a" d="M360.67,287.87c0,1.78.31,3.35,1.75,3.35a1.68,1.68,0,0,0,1.66-1.64h1.29a2.89,2.89,0,0,1-3,2.77c-2.68,0-3.06-2.45-3.06-4.74,0-2.88,1-4.69,3.13-4.69,2.42,0,3,2,3,4.24,0,.18,0,.49,0,.71Zm3.46-1c0-1.58-.34-2.81-1.66-2.81-1.67,0-1.76,2.18-1.78,2.81Z"/><path class="a" d="M370.68,292.19V280h1.66c3.38,8.46,3.85,9.62,4,10.14h0c-.09-1.64-.11-3.48-.11-5.47V280h1.26v12.23h-1.58c-3.51-8.9-3.94-10-4.09-10.5h0c.09,1.53.11,3.53.11,5.73v4.77Z"/><path class="a" d="M380.69,287.87c0,1.78.31,3.35,1.75,3.35a1.66,1.66,0,0,0,1.65-1.64h1.3a2.89,2.89,0,0,1-3,2.77c-2.68,0-3.06-2.45-3.06-4.74,0-2.88,1-4.69,3.13-4.69,2.41,0,3,2,3,4.24,0,.18,0,.49,0,.71Zm3.46-1c0-1.58-.35-2.81-1.66-2.81-1.67,0-1.76,2.18-1.78,2.81Z"/><path class="a" d="M387.73,283.06c.88,4.32,1.31,6.41,1.47,7.65h0c.18-1.19.56-2.61,1.69-7.65h1.26c1.07,4.79,1.48,6.63,1.61,7.62h0c.15-1,.49-2.63,1.54-7.62h1.35l-2.24,9.13H393c-.65-3-1.33-6-1.55-7.37h0c-.16,1.35-.83,4-1.62,7.37h-1.44l-2.09-9.13Z"/><path class="a" d="M403.37,292.19v-4.67a.78.78,0,0,0-.07-.3L400.18,280h1.51c.83,2.07,2,4.94,2.38,6.05.43-1.19,1.62-4.09,2.41-6.05h1.43l-3.14,7.26a.8.8,0,0,0-.07.32v4.65Z"/><path class="a" d="M413.59,287.52c0,3.21-1.08,4.83-3.13,4.83s-3.15-1.57-3.15-4.81,1.24-4.62,3.2-4.62S413.59,284.45,413.59,287.52Zm-4.93,0c0,2.47.61,3.66,1.8,3.66s1.78-1.21,1.78-3.68-.57-3.49-1.78-3.49S408.66,285.08,408.66,287.56Z"/><path class="a" d="M415.3,286.17c0-1.45,0-2.46,0-3.11h1.26c0,.23.06.67.06,1.62a2.47,2.47,0,0,1,2.41-1.76v1.45c-1.57.06-2.39,1.05-2.39,2.72v5.1H415.3Z"/><path class="a" d="M421.58,287.36c.6-.9,2.15-3.06,3-4.3H426c-.81,1.15-1.67,2.32-2.52,3.47l2.79,5.66h-1.51l-2.18-4.59c-.25.34-.74,1-1,1.35v3.24h-1.31V279.37h1.31Z"/><path class="a" d="M1.21,301.56H4.36A3.09,3.09,0,0,1,7.62,305a3.18,3.18,0,0,1-3.44,3.52H2.56v5.3H1.21Zm1.35,5.8H4c1.46,0,2.22-.77,2.22-2.41a2,2,0,0,0-2.07-2.25H2.56Z"/><path class="a" d="M14.22,312.17c0,.57,0,1.33.07,1.62h-1.2a5,5,0,0,1-.09-1.05A2.13,2.13,0,0,1,10.84,314a2.37,2.37,0,0,1-2.4-2.65c0-1.65,1.14-2.91,3.53-2.91a8.66,8.66,0,0,1,1,0V307.2c0-.7-.15-1.62-1.37-1.62s-1.44,1-1.5,1.58H8.8a2.48,2.48,0,0,1,2.79-2.64c1.77,0,2.63.84,2.63,2.53Zm-1.28-2.7a4.75,4.75,0,0,0-.9-.06c-1.62,0-2.28.78-2.28,1.8a1.44,1.44,0,0,0,1.42,1.62c1.33,0,1.76-.95,1.76-2.88Z"/><path class="a" d="M16.4,307.49c0-1.88,0-2.42,0-2.83h1.28c0,.22.05.58.05,1.19a2.15,2.15,0,0,1,2.16-1.35c1.32,0,2.34.75,2.34,2.79v6.5H20.88v-6.25c0-1.12-.36-1.87-1.4-1.87-1.23,0-1.75.81-1.75,2.68v5.44H16.4Z"/><path class="a" d="M25.25,309.47c0,1.78.31,3.35,1.75,3.35a1.68,1.68,0,0,0,1.66-1.64H30A2.89,2.89,0,0,1,27,314c-2.68,0-3.06-2.45-3.06-4.74,0-2.88,1-4.69,3.13-4.69,2.42,0,3,2,3,4.24,0,.18,0,.49,0,.71Zm3.46-1c0-1.58-.34-2.81-1.66-2.81-1.67,0-1.76,2.18-1.78,2.81Z"/><path class="a" d="M31.7,313.79V301H33v12.82Z"/><path class="a" d="M44.44,309.12c0,3.21-1.08,4.83-3.13,4.83s-3.15-1.57-3.15-4.81,1.24-4.62,3.2-4.62S44.44,306.05,44.44,309.12Zm-4.93,0c0,2.47.61,3.66,1.8,3.66s1.78-1.21,1.78-3.68-.57-3.49-1.78-3.49S39.51,306.68,39.51,309.16Z"/><path class="a" d="M46.15,307.49c0-1.88,0-2.42,0-2.83h1.28c0,.22.05.58.05,1.19a2.16,2.16,0,0,1,2.17-1.35c1.31,0,2.34.75,2.34,2.79v6.5H50.63v-6.25c0-1.12-.36-1.87-1.4-1.87-1.23,0-1.75.81-1.75,2.68v5.44H46.15Z"/><path class="a" d="M64.06,310.4c0,.71-.36,3.57-3.33,3.57-3.26,0-3.51-3.44-3.51-6.38,0-3.56,1-6.21,3.66-6.21,2.95,0,3.11,2.76,3.15,3.51H62.67c0-.41-.1-2.3-1.81-2.3-1.93,0-2.24,2.63-2.24,5,0,2.58.29,5.19,2.15,5.19,1.64,0,1.87-1.76,1.92-2.38Z"/><path class="a" d="M65.73,313.79V301h1.32v12.82Z"/><path class="a" d="M69.21,302.86V301h1.33v1.89Zm0,1.8h1.31v9.13H69.21Z"/><path class="a" d="M72.7,307.4c0-1.62,0-2.31,0-2.74H74a9.68,9.68,0,0,1,.05,1.17,2.08,2.08,0,0,1,2-1.31,1.75,1.75,0,0,1,1.89,1.35,2.26,2.26,0,0,1,2.21-1.35c1.14,0,2.2.54,2.2,2.64v6.63h-1.3v-6.41c0-.92-.27-1.71-1.29-1.71s-1.55,1-1.55,2.27v5.85H76.89v-6.38c0-1.11-.37-1.72-1.27-1.72-1.08,0-1.61,1-1.61,2.37v5.73H72.7Z"/><path class="a" d="M89.67,312.17a16.05,16.05,0,0,0,.08,1.62H88.54a5.77,5.77,0,0,1-.09-1.05A2.13,2.13,0,0,1,86.29,314a2.36,2.36,0,0,1-2.39-2.65c0-1.65,1.13-2.91,3.52-2.91a8.57,8.57,0,0,1,1,0V307.2c0-.7-.15-1.62-1.37-1.62s-1.44,1-1.49,1.58H84.26a2.47,2.47,0,0,1,2.79-2.64c1.76,0,2.62.84,2.62,2.53Zm-1.27-2.7a4.9,4.9,0,0,0-.9-.06c-1.62,0-2.29.78-2.29,1.8a1.44,1.44,0,0,0,1.42,1.62c1.33,0,1.77-.95,1.77-2.88Z"/><path class="a" d="M90.72,304.66H92v-2.43h1.3v2.43h1.6v1.13h-1.6v6c0,.63.14,1,.83,1a3.27,3.27,0,0,0,.65-.06v1a3.69,3.69,0,0,1-1.08.14c-1.07,0-1.7-.43-1.7-1.87v-6.25H90.72Z"/><path class="a" d="M97,309.47c0,1.78.3,3.35,1.74,3.35a1.68,1.68,0,0,0,1.66-1.64h1.29a2.88,2.88,0,0,1-3,2.77c-2.68,0-3.06-2.45-3.06-4.74,0-2.88,1-4.69,3.14-4.69,2.41,0,3,2,3,4.24,0,.18,0,.49,0,.71Zm3.45-1c0-1.58-.34-2.81-1.65-2.81-1.68,0-1.77,2.18-1.79,2.81Z"/><path class="a" d="M113.33,310.4c-.06.71-.36,3.57-3.33,3.57-3.26,0-3.52-3.44-3.52-6.38,0-3.56,1-6.21,3.66-6.21,3,0,3.11,2.76,3.15,3.51h-1.35c0-.41-.11-2.3-1.82-2.3-1.93,0-2.23,2.63-2.23,5,0,2.58.29,5.19,2.14,5.19,1.64,0,1.87-1.76,1.93-2.38Z"/><path class="a" d="M116.35,301v4.81a2.16,2.16,0,0,1,2.18-1.28c1.33,0,2.3.84,2.3,2.79v6.5H119.5v-6.23c0-1.12-.32-1.89-1.44-1.89s-1.71,1-1.71,2.63v5.49H115V301Z"/><path class="a" d="M128.12,312.17c0,.57,0,1.33.07,1.62H127a5,5,0,0,1-.09-1.05,2.14,2.14,0,0,1-2.16,1.21,2.37,2.37,0,0,1-2.4-2.65c0-1.65,1.14-2.91,3.53-2.91a8.76,8.76,0,0,1,1,0V307.2c0-.7-.15-1.62-1.37-1.62s-1.44,1-1.5,1.58H122.7a2.48,2.48,0,0,1,2.79-2.64c1.77,0,2.63.84,2.63,2.53Zm-1.28-2.7a4.75,4.75,0,0,0-.9-.06c-1.62,0-2.28.78-2.28,1.8a1.44,1.44,0,0,0,1.42,1.62c1.33,0,1.76-.95,1.76-2.88Z"/><path class="a" d="M130.3,307.49c0-1.88,0-2.42,0-2.83h1.28c0,.22.05.58.05,1.19a2.15,2.15,0,0,1,2.16-1.35c1.32,0,2.34.75,2.34,2.79v6.5h-1.33v-6.25c0-1.12-.36-1.87-1.4-1.87-1.23,0-1.75.81-1.75,2.68v5.44H130.3Z"/><path class="a" d="M144,313.21c0,2.4-.58,4.07-3.21,4.07-2.36,0-2.86-1.53-2.91-2.5h1.33a1.47,1.47,0,0,0,1.64,1.39c1.53,0,1.83-1.12,1.83-3v-.84a2.07,2.07,0,0,1-2.12,1.4c-1.84,0-2.76-1.57-2.76-4.45,0-3.27,1.23-4.8,3-4.8,1.24,0,1.76.59,1.92,1.18,0-.41.06-.86.07-1H144c0,.47,0,1.4,0,2.63Zm-3.08-.61c1.4,0,1.8-1.39,1.8-3.51s-.31-3.42-1.69-3.42c-1.21,0-1.86,1.26-1.86,3.63C139.17,311.52,139.78,312.6,140.92,312.6Z"/><path class="a" d="M147.06,309.47c0,1.78.3,3.35,1.74,3.35a1.68,1.68,0,0,0,1.66-1.64h1.29a2.88,2.88,0,0,1-3,2.77c-2.68,0-3.06-2.45-3.06-4.74,0-2.88,1-4.69,3.14-4.69,2.41,0,3,2,3,4.24,0,.18,0,.49,0,.71Zm3.45-1c0-1.58-.34-2.81-1.65-2.81-1.68,0-1.77,2.18-1.79,2.81Z"/><path class="a" d="M160.29,300.91a12.89,12.89,0,0,0-2.31,7.57,13.63,13.63,0,0,0,2.31,7.79H159a13.67,13.67,0,0,1-2.27-7.81,13.16,13.16,0,0,1,2.27-7.55Z"/><path class="a" d="M161.91,313.79V301.56h1.65c3.39,8.46,3.86,9.62,4,10.14h0c-.1-1.64-.11-3.48-.11-5.47v-4.67h1.26v12.23h-1.59c-3.51-8.9-3.94-10-4.08-10.5h0c.09,1.53.11,3.53.11,5.73v4.77Z"/><path class="a" d="M171.16,301.56h3.15a3.09,3.09,0,0,1,3.26,3.41,3.18,3.18,0,0,1-3.44,3.52h-1.62v5.3h-1.35Zm1.35,5.8H174c1.46,0,2.22-.77,2.22-2.41a2,2,0,0,0-2.07-2.25h-1.62Z"/><path class="a" d="M185.74,310.4c-.06.71-.36,3.57-3.33,3.57-3.26,0-3.51-3.44-3.51-6.38,0-3.56.95-6.21,3.65-6.21,2.95,0,3.12,2.76,3.15,3.51h-1.35c0-.41-.11-2.3-1.82-2.3-1.92,0-2.23,2.63-2.23,5,0,2.58.29,5.19,2.14,5.19,1.64,0,1.88-1.76,1.93-2.38Z"/><path class="a" d="M194,310.4c-.06.71-.36,3.57-3.33,3.57-3.26,0-3.52-3.44-3.52-6.38,0-3.56,1-6.21,3.66-6.21,3,0,3.11,2.76,3.15,3.51h-1.35c0-.41-.11-2.3-1.82-2.3-1.92,0-2.23,2.63-2.23,5,0,2.58.29,5.19,2.14,5.19,1.64,0,1.87-1.76,1.93-2.38Z"/><path class="a" d="M194.86,316.27a12.92,12.92,0,0,0,2.31-7.58,13.77,13.77,0,0,0-2.31-7.78h1.28a13.62,13.62,0,0,1,2.25,7.8,13.26,13.26,0,0,1-2.25,7.56Z"/></g></svg>