<svg xmlns="http://www.w3.org/2000/svg" viewBox="0 0 456.63 293.87"><defs><style>.a{font-size:24px;}.a,.j{fill:#fff;font-family:AcuminProCond-Regular, Acumin Pro Condensed;}.b{letter-spacing:0em;}.c{letter-spacing:-0.01em;}.d{letter-spacing:-0.01em;}.e{letter-spacing:0em;}.f{letter-spacing:-0.01em;}.g{letter-spacing:0em;}.h{letter-spacing:0em;}.i{fill:#4facfe;}.j{font-size:18px;}.k{letter-spacing:-0.01em;}.l{letter-spacing:0em;}.m{letter-spacing:-0.01em;}.n{letter-spacing:0em;}.o{letter-spacing:0.03em;}.p{letter-spacing:0em;}.q{letter-spacing:-0.01em;}.r{letter-spacing:-0.01em;}.s{letter-spacing:0.01em;}.t{letter-spacing:0em;}.u{letter-spacing:0em;}.v{letter-spacing:0em;}.w{fill:#00d1ff;}.x{letter-spacing:-0.07em;}.y{letter-spacing:-0.06em;}.z{letter-spacing:0em;}.aa{letter-spacing:0.01em;}.ab{fill:#00f2fe;}.ac{fill:#fa00f6;}.ad{letter-spacing:0.01em;}.ae{letter-spacing:0em;}.af{letter-spacing:0.01em;}.ag{letter-spacing:0.02em;}.ah{letter-spacing:0em;}.ai{fill:#ff5cd6;}.aj{fill:#ffb3fe;}</style></defs><rect width="456.63" height="293.87"/><text class="a" transform="translate(0 46.14)">Fl<tspan class="b" x="14.09" y="0">oo</tspan><tspan x="34.34" y="0">ding </tspan><tspan class="c" x="75.24" y="0">H</tspan><tspan class="d" x="87.17" y="0">a</tspan><tspan class="e" x="97.01" y="0">z</tspan><tspan x="105.17" y="0">a</tspan><tspan class="f" x="115.15" y="0">r</tspan><tspan class="g" x="121.65" y="0">d </tspan><tspan class="h" x="136.72" y="0">z</tspan><tspan x="144.74" y="0">one</tspan></text><rect class="i" y="65.96" width="25" height="25"/><text class="j" transform="translate(36.16 85.53)"><tspan class="k">P</tspan><tspan class="l" x="7.92" y="0">r</tspan><tspan x="12.8" y="0">elimi</tspan><tspan class="m" x="42.39" y="0">n</tspan><tspan class="n" x="50.22" y="0">a</tspan><tspan class="o" x="57.71" y="0">r</tspan><tspan x="63.18" y="0">y Fl</tspan><tspan class="p" x="84.06" y="0">oo</tspan><tspan x="99.25" y="0">d </tspan><tspan class="k" x="110.55" y="0">I</tspan><tspan class="n" x="114.17" y="0">n</tspan><tspan class="q" x="122.15" y="0">s</tspan><tspan class="l" x="128.7" y="0">u</tspan><tspan class="r" x="136.49" y="0">r</tspan><tspan x="141.23" y="0">an</tspan><tspan class="s" x="156.69" y="0">c</tspan><tspan x="163.83" y="0">e </tspan><tspan class="s" x="174.6" y="0">R</tspan><tspan x="182.98" y="0">a</tspan><tspan class="l" x="190.47" y="0">t</tspan><tspan x="194.68" y="0">e </tspan><tspan class="q" x="205.45" y="0">M</tspan><tspan class="n" x="216.39" y="0">a</tspan><tspan class="t" x="223.88" y="0">p</tspan><tspan x="231.83" y="0">s </tspan><tspan class="p" x="241.93" y="0">2</tspan><tspan x="248.99" y="0">0</tspan><tspan class="u" x="256.8" y="0">1</tspan><tspan class="v" x="261.43" y="0">5</tspan></text><rect class="w" y="98.51" width="25" height="25"/><text class="j" transform="translate(36.16 118.08)"><tspan class="l">1</tspan><tspan x="4.46" y="0">00</tspan><tspan class="x" x="20.09" y="0">-</tspan><tspan class="y" x="23.76" y="0">Y</tspan><tspan class="l" x="30.1" y="0">e</tspan><tspan x="37.33" y="0">ar Fl</tspan><tspan class="p" x="63.79" y="0">oo</tspan><tspan x="78.98" y="0">dp</tspan><tspan class="z" x="94.71" y="0">l</tspan><tspan x="98.1" y="0">ain </tspan><tspan class="aa" x="120.49" y="0">f</tspan><tspan x="124.4" y="0">or the </tspan><tspan class="p" x="163.36" y="0">2</tspan><tspan x="170.42" y="0">0</tspan><tspan class="p" x="178.23" y="0">2</tspan><tspan class="n" x="185.29" y="0">0s</tspan></text><rect class="ab" y="131.06" width="25" height="25"/><text class="j" transform="translate(36.16 150.64)"><tspan class="l">1</tspan><tspan x="4.46" y="0">00</tspan><tspan class="x" x="20.09" y="0">-</tspan><tspan class="y" x="23.76" y="0">Y</tspan><tspan class="l" x="30.1" y="0">e</tspan><tspan x="37.33" y="0">ar Fl</tspan><tspan class="p" x="63.79" y="0">oo</tspan><tspan x="78.98" y="0">dp</tspan><tspan class="z" x="94.71" y="0">l</tspan><tspan x="98.1" y="0">ain </tspan><tspan class="aa" x="120.49" y="0">f</tspan><tspan x="124.4" y="0">or the </tspan><tspan class="p" x="163.36" y="0">2</tspan><tspan x="170.42" y="0">050s</tspan></text><circle class="ac" cx="12.5" cy="192.45" r="2.5"/><text class="j" transform="translate(36.16 198.75)"><tspan class="ad">S</tspan><tspan x="7.88" y="0">ch</tspan><tspan class="p" x="22.88" y="0">o</tspan><tspan x="30.47" y="0">ol </tspan><tspan class="ae" x="44.93" y="0">w</tspan><tspan class="af" x="55.87" y="0">i</tspan><tspan x="59.54" y="0">thin </tspan><tspan class="ag" x="86.7" y="0">f</tspan><tspan x="90.79" y="0">l</tspan><tspan class="p" x="94.26" y="0">oo</tspan><tspan x="109.45" y="0">d </tspan><tspan class="ah" x="120.76" y="0">z</tspan><tspan class="v" x="126.77" y="0">one in </tspan><tspan class="p" x="167.95" y="0">2</tspan><tspan x="175.01" y="0">0</tspan><tspan class="u" x="182.82" y="0">1</tspan><tspan x="187.45" y="0">5</tspan></text><circle class="ai" cx="12.5" cy="223.52" r="3.5"/><text class="j" transform="translate(36.16 229.82)"><tspan class="ad">S</tspan><tspan x="7.88" y="0">ch</tspan><tspan class="p" x="22.88" y="0">o</tspan><tspan x="30.47" y="0">ol </tspan><tspan class="ae" x="44.93" y="0">w</tspan><tspan class="af" x="55.87" y="0">i</tspan><tspan x="59.54" y="0">thin </tspan><tspan class="ag" x="86.7" y="0">f</tspan><tspan x="90.79" y="0">l</tspan><tspan class="p" x="94.26" y="0">oo</tspan><tspan x="109.45" y="0">d </tspan><tspan class="ah" x="120.76" y="0">z</tspan><tspan class="v" x="126.77" y="0">one in </tspan><tspan class="p" x="167.95" y="0">2</tspan><tspan x="175.01" y="0">0</tspan><tspan class="p" x="182.82" y="0">2</tspan><tspan class="n" x="189.88" y="0">0</tspan></text><circle class="aj" cx="12.5" cy="254.59" r="5"/><text class="j" transform="translate(36.16 260.89)"><tspan class="ad">S</tspan><tspan x="7.88" y="0">ch</tspan><tspan class="p" x="22.88" y="0">o</tspan><tspan x="30.47" y="0">ol </tspan><tspan class="ae" x="44.93" y="0">w</tspan><tspan class="af" x="55.87" y="0">i</tspan><tspan x="59.54" y="0">thin </tspan><tspan class="ag" x="86.7" y="0">f</tspan><tspan x="90.79" y="0">l</tspan><tspan class="p" x="94.26" y="0">oo</tspan><tspan x="109.45" y="0">d </tspan><tspan class="ah" x="120.76" y="0">z</tspan><tspan class="v" x="126.77" y="0">one in </tspan><tspan class="p" x="167.95" y="0">2</tspan><tspan x="175.01" y="0">050</tspan></text></svg>