<svg xmlns="http://www.w3.org/2000/svg" viewBox="0 0 456.63 229.82"><defs><style>.a{font-size:24px;}.a,.i{fill:#fff;font-family:AcuminProCond-Regular, Acumin Pro Condensed;}.b{letter-spacing:0em;}.c{letter-spacing:-0.01em;}.d{letter-spacing:-0.01em;}.e{letter-spacing:0em;}.f{letter-spacing:-0.01em;}.g{letter-spacing:0em;}.h{fill:#007adf;}.i{font-size:18px;}.j{letter-spacing:0em;}.k{letter-spacing:-0.07em;}.l{letter-spacing:-0.06em;}.m{letter-spacing:0em;}.n{letter-spacing:0em;}.o{letter-spacing:0.01em;}.p{letter-spacing:0em;}.q{fill:#9ff4f9;}.r{fill:#fa00f6;}.s{letter-spacing:0.01em;}.t{letter-spacing:0em;}.u{letter-spacing:0.01em;}.v{letter-spacing:0.02em;}.w{letter-spacing:0em;}.x{letter-spacing:0em;}.y{fill:#ff8ffd;}</style></defs><rect width="456.63" height="229.82"/><text class="a" transform="translate(0 45.14)">Fl<tspan class="b" x="14.09" y="0">oo</tspan><tspan x="34.34" y="0">ding </tspan><tspan class="c" x="75.24" y="0">h</tspan><tspan class="d" x="85.65" y="0">a</tspan><tspan class="e" x="95.49" y="0">z</tspan><tspan x="103.65" y="0">a</tspan><tspan class="f" x="113.64" y="0">r</tspan><tspan x="120.14" y="0">d </tspan><tspan class="g" x="135.21" y="0">z</tspan><tspan x="143.23" y="0">one</tspan></text><rect class="h" y="64.96" width="25" height="25"/><text class="i" transform="translate(36.16 84.53)"><tspan class="j">1</tspan><tspan x="4.46" y="0">00</tspan><tspan class="k" x="20.09" y="0">-</tspan><tspan class="l" x="23.76" y="0">Y</tspan><tspan class="j" x="30.1" y="0">e</tspan><tspan x="37.33" y="0">ar Fl</tspan><tspan class="m" x="63.79" y="0">oo</tspan><tspan x="78.98" y="0">dp</tspan><tspan class="n" x="94.71" y="0">l</tspan><tspan x="98.1" y="0">ain </tspan><tspan class="o" x="120.49" y="0">f</tspan><tspan x="124.4" y="0">or the </tspan><tspan class="m" x="163.36" y="0">2</tspan><tspan x="170.42" y="0">0</tspan><tspan class="m" x="178.23" y="0">2</tspan><tspan class="p" x="185.29" y="0">0s</tspan></text><rect class="q" y="97.51" width="25" height="25"/><text class="i" transform="translate(36.16 117.08)"><tspan class="j">1</tspan><tspan x="4.46" y="0">00</tspan><tspan class="k" x="20.09" y="0">-</tspan><tspan class="l" x="23.76" y="0">Y</tspan><tspan class="j" x="30.1" y="0">e</tspan><tspan x="37.33" y="0">ar Fl</tspan><tspan class="m" x="63.79" y="0">oo</tspan><tspan x="78.98" y="0">dp</tspan><tspan class="n" x="94.71" y="0">l</tspan><tspan x="98.1" y="0">ain </tspan><tspan class="o" x="120.49" y="0">f</tspan><tspan x="124.4" y="0">or the </tspan><tspan class="m" x="163.36" y="0">2</tspan><tspan x="170.42" y="0">050s</tspan></text><circle class="r" cx="12.5" cy="158.56" r="3.5"/><text class="i" transform="translate(36.16 164.87)"><tspan class="s">S</tspan><tspan x="7.88" y="0">ch</tspan><tspan class="m" x="22.88" y="0">o</tspan><tspan x="30.47" y="0">ol </tspan><tspan class="t" x="44.93" y="0">w</tspan><tspan class="u" x="55.87" y="0">i</tspan><tspan x="59.54" y="0">thin </tspan><tspan class="v" x="86.7" y="0">f</tspan><tspan x="90.79" y="0">l</tspan><tspan class="m" x="94.26" y="0">oo</tspan><tspan x="109.45" y="0">d </tspan><tspan class="w" x="120.76" y="0">z</tspan><tspan class="x" x="126.77" y="0">one in </tspan><tspan class="m" x="167.95" y="0">2</tspan><tspan x="175.01" y="0">0</tspan><tspan class="m" x="182.82" y="0">2</tspan><tspan class="p" x="189.88" y="0">0</tspan></text><circle class="y" cx="12.5" cy="189.63" r="5"/><text class="i" transform="translate(36.16 195.93)"><tspan class="s">S</tspan><tspan x="7.88" y="0">ch</tspan><tspan class="m" x="22.88" y="0">o</tspan><tspan x="30.47" y="0">ol </tspan><tspan class="t" x="44.93" y="0">w</tspan><tspan class="u" x="55.87" y="0">i</tspan><tspan x="59.54" y="0">thin </tspan><tspan class="v" x="86.7" y="0">f</tspan><tspan x="90.79" y="0">l</tspan><tspan class="m" x="94.26" y="0">oo</tspan><tspan x="109.45" y="0">d </tspan><tspan class="w" x="120.76" y="0">z</tspan><tspan class="x" x="126.77" y="0">one in </tspan><tspan class="m" x="167.95" y="0">2</tspan><tspan x="175.01" y="0">050</tspan></text></svg>