<svg xmlns="http://www.w3.org/2000/svg" viewBox="0 0 456.63 293.87"><defs><style>.a{fill:#232323;}.b{font-size:24px;}.b,.k{fill:#fff;font-family:AcuminProCond-Regular, Acumin Pro Condensed;}.c{letter-spacing:0em;}.d{letter-spacing:-0.01em;}.e{letter-spacing:-0.01em;}.f{letter-spacing:0em;}.g{letter-spacing:-0.01em;}.h{letter-spacing:0em;}.i{letter-spacing:0em;}.j{fill:#4facfe;}.k{font-size:18px;}.l{letter-spacing:-0.01em;}.m{letter-spacing:0em;}.n{letter-spacing:-0.01em;}.o{letter-spacing:0em;}.p{letter-spacing:0.03em;}.q{letter-spacing:0em;}.r{letter-spacing:-0.01em;}.s{letter-spacing:-0.01em;}.t{letter-spacing:0.01em;}.u{letter-spacing:0em;}.v{letter-spacing:0em;}.w{letter-spacing:0em;}.x{fill:#00d1ff;}.y{letter-spacing:-0.07em;}.z{letter-spacing:-0.06em;}.aa{letter-spacing:0em;}.ab{letter-spacing:0.01em;}.ac{fill:#00f2fe;}.ad{fill:#fa00f6;}.ae{letter-spacing:0.01em;}.af{letter-spacing:0em;}.ag{letter-spacing:0.01em;}.ah{letter-spacing:0.02em;}.ai{letter-spacing:0em;}.aj{fill:#ff5cd6;}.ak{fill:#ffb3fe;}</style></defs><rect class="a" width="456.63" height="293.87"/><text class="b" transform="translate(25 46.14)">Fl<tspan class="c" x="14.09" y="0">oo</tspan><tspan x="34.34" y="0">ding </tspan><tspan class="d" x="75.24" y="0">H</tspan><tspan class="e" x="87.17" y="0">a</tspan><tspan class="f" x="97.01" y="0">z</tspan><tspan x="105.17" y="0">a</tspan><tspan class="g" x="115.15" y="0">r</tspan><tspan class="h" x="121.65" y="0">d </tspan><tspan class="i" x="136.72" y="0">z</tspan><tspan x="144.74" y="0">one</tspan></text><rect class="j" x="25" y="65.96" width="25" height="25"/><text class="k" transform="translate(61.16 85.53)"><tspan class="l">P</tspan><tspan class="m" x="7.92" y="0">r</tspan><tspan x="12.8" y="0">elimi</tspan><tspan class="n" x="42.39" y="0">n</tspan><tspan class="o" x="50.22" y="0">a</tspan><tspan class="p" x="57.71" y="0">r</tspan><tspan x="63.18" y="0">y Fl</tspan><tspan class="q" x="84.06" y="0">oo</tspan><tspan x="99.25" y="0">d </tspan><tspan class="l" x="110.55" y="0">I</tspan><tspan class="o" x="114.17" y="0">n</tspan><tspan class="r" x="122.15" y="0">s</tspan><tspan class="m" x="128.7" y="0">u</tspan><tspan class="s" x="136.49" y="0">r</tspan><tspan x="141.23" y="0">an</tspan><tspan class="t" x="156.69" y="0">c</tspan><tspan x="163.83" y="0">e </tspan><tspan class="t" x="174.6" y="0">R</tspan><tspan x="182.98" y="0">a</tspan><tspan class="m" x="190.47" y="0">t</tspan><tspan x="194.68" y="0">e </tspan><tspan class="r" x="205.45" y="0">M</tspan><tspan class="o" x="216.39" y="0">a</tspan><tspan class="u" x="223.88" y="0">p</tspan><tspan x="231.83" y="0">s </tspan><tspan class="q" x="241.93" y="0">2</tspan><tspan x="248.99" y="0">0</tspan><tspan class="v" x="256.8" y="0">1</tspan><tspan class="w" x="261.43" y="0">5</tspan></text><rect class="x" x="25" y="98.51" width="25" height="25"/><text class="k" transform="translate(61.16 118.08)"><tspan class="m">1</tspan><tspan x="4.46" y="0">00</tspan><tspan class="y" x="20.09" y="0">-</tspan><tspan class="z" x="23.76" y="0">Y</tspan><tspan class="m" x="30.1" y="0">e</tspan><tspan x="37.33" y="0">ar Fl</tspan><tspan class="q" x="63.79" y="0">oo</tspan><tspan x="78.98" y="0">dp</tspan><tspan class="aa" x="94.71" y="0">l</tspan><tspan x="98.1" y="0">ain </tspan><tspan class="ab" x="120.49" y="0">f</tspan><tspan x="124.4" y="0">or the </tspan><tspan class="q" x="163.36" y="0">2</tspan><tspan x="170.42" y="0">0</tspan><tspan class="q" x="178.23" y="0">2</tspan><tspan class="o" x="185.29" y="0">0s</tspan></text><rect class="ac" x="25" y="131.06" width="25" height="25"/><text class="k" transform="translate(61.16 150.64)"><tspan class="m">1</tspan><tspan x="4.46" y="0">00</tspan><tspan class="y" x="20.09" y="0">-</tspan><tspan class="z" x="23.76" y="0">Y</tspan><tspan class="m" x="30.1" y="0">e</tspan><tspan x="37.33" y="0">ar Fl</tspan><tspan class="q" x="63.79" y="0">oo</tspan><tspan x="78.98" y="0">dp</tspan><tspan class="aa" x="94.71" y="0">l</tspan><tspan x="98.1" y="0">ain </tspan><tspan class="ab" x="120.49" y="0">f</tspan><tspan x="124.4" y="0">or the </tspan><tspan class="q" x="163.36" y="0">2</tspan><tspan x="170.42" y="0">050s</tspan></text><circle class="ad" cx="37.5" cy="192.45" r="2.5"/><text class="k" transform="translate(61.16 198.75)"><tspan class="ae">S</tspan><tspan x="7.88" y="0">ch</tspan><tspan class="q" x="22.88" y="0">o</tspan><tspan x="30.47" y="0">ol </tspan><tspan class="af" x="44.93" y="0">w</tspan><tspan class="ag" x="55.87" y="0">i</tspan><tspan x="59.54" y="0">thin </tspan><tspan class="ah" x="86.7" y="0">f</tspan><tspan x="90.79" y="0">l</tspan><tspan class="q" x="94.26" y="0">oo</tspan><tspan x="109.45" y="0">d </tspan><tspan class="ai" x="120.76" y="0">z</tspan><tspan class="w" x="126.77" y="0">one in </tspan><tspan class="q" x="167.95" y="0">2</tspan><tspan x="175.01" y="0">0</tspan><tspan class="v" x="182.82" y="0">1</tspan><tspan x="187.45" y="0">5</tspan></text><circle class="aj" cx="37.5" cy="223.52" r="3.5"/><text class="k" transform="translate(61.16 229.82)"><tspan class="ae">S</tspan><tspan x="7.88" y="0">ch</tspan><tspan class="q" x="22.88" y="0">o</tspan><tspan x="30.47" y="0">ol </tspan><tspan class="af" x="44.93" y="0">w</tspan><tspan class="ag" x="55.87" y="0">i</tspan><tspan x="59.54" y="0">thin </tspan><tspan class="ah" x="86.7" y="0">f</tspan><tspan x="90.79" y="0">l</tspan><tspan class="q" x="94.26" y="0">oo</tspan><tspan x="109.45" y="0">d </tspan><tspan class="ai" x="120.76" y="0">z</tspan><tspan class="w" x="126.77" y="0">one in </tspan><tspan class="q" x="167.95" y="0">2</tspan><tspan x="175.01" y="0">0</tspan><tspan class="q" x="182.82" y="0">2</tspan><tspan class="o" x="189.88" y="0">0</tspan></text><circle class="ak" cx="37.5" cy="254.59" r="5"/><text class="k" transform="translate(61.16 260.89)"><tspan class="ae">S</tspan><tspan x="7.88" y="0">ch</tspan><tspan class="q" x="22.88" y="0">o</tspan><tspan x="30.47" y="0">ol </tspan><tspan class="af" x="44.93" y="0">w</tspan><tspan class="ag" x="55.87" y="0">i</tspan><tspan x="59.54" y="0">thin </tspan><tspan class="ah" x="86.7" y="0">f</tspan><tspan x="90.79" y="0">l</tspan><tspan class="q" x="94.26" y="0">oo</tspan><tspan x="109.45" y="0">d </tspan><tspan class="ai" x="120.76" y="0">z</tspan><tspan class="w" x="126.77" y="0">one in </tspan><tspan class="q" x="167.95" y="0">2</tspan><tspan x="175.01" y="0">050</tspan></text></svg>