<svg xmlns="http://www.w3.org/2000/svg" viewBox="0 0 456.63 411.09"><defs><style>.a{font-size:24px;}.a,.ah,.r{fill:#fff;}.a,.r{font-family:AcuminProCond-Regular, Acumin Pro Condensed;}.b{letter-spacing:-0.01em;}.c{letter-spacing:0.01em;}.d{letter-spacing:0em;}.e{letter-spacing:0em;}.f{letter-spacing:0em;}.g{letter-spacing:0.01em;}.h{letter-spacing:0.01em;}.i{letter-spacing:0.02em;}.j{letter-spacing:0em;}.k{letter-spacing:0em;}.l{letter-spacing:0.01em;}.m{letter-spacing:-0.01em;}.n{letter-spacing:-0.01em;}.o{letter-spacing:0.01em;}.p{letter-spacing:0.01em;}.q{fill:none;stroke:#bfbfbf;stroke-miterlimit:10;}.ah,.r{font-size:18px;}.s{letter-spacing:0em;}.t{letter-spacing:0.02em;}.u{letter-spacing:0em;}.v{letter-spacing:0em;}.w{letter-spacing:0em;}.x{letter-spacing:0em;}.y{letter-spacing:0.01em;}.z{letter-spacing:0.01em;}.aa{letter-spacing:0em;}.ab{letter-spacing:0.01em;}.ac{letter-spacing:0em;}.ad{letter-spacing:0em;}.ae{letter-spacing:0.01em;}.af{letter-spacing:0em;}.ag{letter-spacing:0.02em;}.ah{font-family:AcuminProCond-ExtraLight, Acumin Pro Condensed;font-weight:200;}.ai{letter-spacing:0.01em;}.aj{letter-spacing:0em;}.ak{letter-spacing:0em;}.al{letter-spacing:0em;}.am{letter-spacing:-0.01em;}.an{letter-spacing:0.01em;}.ao{letter-spacing:0.02em;}.ap{letter-spacing:0.01em;}.aq{letter-spacing:-0.01em;}.ar{letter-spacing:0em;}.as{letter-spacing:-0.01em;}.at{letter-spacing:0.01em;}.au{letter-spacing:0.01em;}.av{letter-spacing:0.03em;}.aw{letter-spacing:0.01em;}.ax{fill:#00ecbc;}.ay{fill:#f9d423;}.az{fill:#cc208e;}.ba{fill:#bfbfbf;}</style></defs><rect width="456.63" height="411.09"/><text class="a" transform="translate(0 46.14)"><tspan class="b">B</tspan><tspan x="10.92" y="0">udg</tspan><tspan class="c" x="42.46" y="0">e</tspan><tspan class="d" x="52.49" y="0">t all</tspan><tspan class="e" x="82.05" y="0">o</tspan><tspan x="92.18" y="0">ca</tspan><tspan class="f" x="111.55" y="0">t</tspan><tspan x="117.36" y="0">ion </tspan><tspan class="g" x="147.28" y="0">f</tspan><tspan x="152.49" y="0">or </tspan><tspan class="h" x="173.75" y="0">A</tspan><tspan class="i" x="184.72" y="0">c</tspan><tspan class="e" x="194.61" y="0">t</tspan><tspan class="j" x="200.42" y="0">i</tspan><tspan class="k" x="205.07" y="0">v</tspan><tspan x="214.12" y="0">e </tspan><tspan class="h" x="228.47" y="0">C</tspan><tspan x="239.44" y="0">ap</tspan><tspan class="l" x="259.91" y="0">i</tspan><tspan class="d" x="264.81" y="0">tal </tspan><tspan class="m" x="289.74" y="0">P</tspan><tspan class="n" x="300.3" y="0">r</tspan><tspan class="f" x="306.81" y="0">o</tspan><tspan class="d" x="316.94" y="0">j</tspan><tspan class="o" x="321.64" y="0">e</tspan><tspan class="i" x="331.62" y="0">c</tspan><tspan class="p" x="341.51" y="0">t</tspan><tspan x="347.56" y="0">s</tspan></text><circle class="q" cx="134.33" cy="197.86" r="94.39"/><circle class="q" cx="134.33" cy="197.86" r="69.39"/><circle class="q" cx="134.33" cy="197.86" r="44.39"/><rect x="134.33" y="86.88" width="129.55" height="110.98"/><rect x="3.4" y="197.86" width="260.48" height="110.98"/><text class="r" transform="translate(142.34 135.7)">500k</text><text class="r" transform="translate(142.34 159.59)">1k</text><text class="r" transform="translate(142.34 110.27)"><tspan class="s">1</tspan><tspan x="4.46" y="0">000k</tspan></text><text class="r" transform="translate(142.34 191.45)">No a<tspan class="t" x="27.72" y="0">c</tspan><tspan class="u" x="35.13" y="0">t</tspan><tspan class="v" x="39.49" y="0">i</tspan><tspan class="w" x="42.98" y="0">v</tspan><tspan x="49.77" y="0">e p</tspan><tspan class="s" x="68.4" y="0">r</tspan><tspan class="x" x="73.28" y="0">o</tspan><tspan x="80.87" y="0">j.</tspan></text><text class="a" transform="translate(0 259.09)"><tspan class="m">P</tspan><tspan class="n" x="10.56" y="0">r</tspan><tspan class="e" x="17.06" y="0">o</tspan><tspan x="27.19" y="0">j</tspan><tspan class="y" x="31.9" y="0">e</tspan><tspan class="i" x="41.88" y="0">c</tspan><tspan x="51.77" y="0">t </tspan><tspan class="y" x="62.09" y="0">D</tspan><tspan class="z" x="73.99" y="0">e</tspan><tspan x="83.9" y="0">sc</tspan><tspan class="aa" x="102.17" y="0">r</tspan><tspan x="108.72" y="0">i</tspan><tspan class="f" x="113.37" y="0">pt</tspan><tspan x="129.74" y="0">ion</tspan></text><text class="r" transform="translate(39.96 355.2)"><tspan class="ab">S</tspan><tspan class="ac" x="7.94" y="0">an</tspan><tspan class="ad" x="23.4" y="0">d</tspan><tspan x="31.34" y="0">y</tspan></text><text class="r" transform="translate(39.96 308.06)"><tspan class="ae">R</tspan><tspan class="x" x="8.44" y="0">o</tspan><tspan class="af" x="16.04" y="0">o</tspan><tspan x="23.65" y="0">f</tspan></text><text class="r" transform="translate(39.96 378.77)"><tspan class="ag">O</tspan><tspan x="9.05" y="0">ther</tspan></text><text class="r" transform="translate(39.96 331.63)">Fl<tspan class="x" x="10.57" y="0">oo</tspan><tspan x="25.76" y="0">d</tspan></text><text class="ah" transform="translate(92.15 308.53)"><tspan class="ai">R</tspan><tspan x="8.15" y="0">o</tspan><tspan class="af" x="15.37" y="0">o</tspan><tspan x="22.66" y="0">f imp</tspan><tspan class="m" x="51.51" y="0">r</tspan><tspan class="aj" x="55.87" y="0">o</tspan><tspan class="ak" x="63.18" y="0">v</tspan><tspan x="69.53" y="0">ement </tspan><tspan class="m" x="109.85" y="0">r</tspan><tspan x="114.21" y="0">e</tspan><tspan class="al" x="121.17" y="0">l</tspan><tspan x="124.21" y="0">a</tspan><tspan class="am" x="131.34" y="0">t</tspan><tspan class="ae" x="135.11" y="0">e</tspan><tspan x="142.23" y="0">d p</tspan><tspan class="m" x="160.77" y="0">r</tspan><tspan class="aj" x="165.13" y="0">o</tspan><tspan x="172.44" y="0">j</tspan><tspan class="an" x="175.62" y="0">e</tspan><tspan class="ao" x="182.75" y="0">c</tspan><tspan x="189.86" y="0">t</tspan></text><text class="ah" transform="translate(92.15 331.63)"><tspan class="ap">F</tspan><tspan x="6.82" y="0">lood imp</tspan><tspan class="aq" x="57.35" y="0">r</tspan><tspan class="aj" x="61.7" y="0">o</tspan><tspan class="ar" x="69.01" y="0">v</tspan><tspan x="75.36" y="0">ement </tspan><tspan class="aq" x="115.68" y="0">r</tspan><tspan x="120.04" y="0">e</tspan><tspan class="w" x="127" y="0">l</tspan><tspan x="130.05" y="0">a</tspan><tspan class="as" x="137.17" y="0">t</tspan><tspan class="an" x="140.94" y="0">e</tspan><tspan x="148.06" y="0">d p</tspan><tspan class="aq" x="166.6" y="0">r</tspan><tspan class="aj" x="170.96" y="0">o</tspan><tspan class="ac" x="178.27" y="0">j</tspan><tspan class="ae" x="181.45" y="0">e</tspan><tspan class="ag" x="188.58" y="0">c</tspan><tspan x="195.69" y="0">t</tspan></text><text class="ah" transform="translate(92.15 355.2)">Da<tspan class="aq" x="15.59" y="0">m</tspan><tspan x="26.75" y="0">age </tspan><tspan class="at" x="51.93" y="0">f</tspan><tspan class="aq" x="55.6" y="0">r</tspan><tspan x="59.96" y="0">om </tspan><tspan class="au" x="82.01" y="0">S</tspan><tspan x="89.51" y="0">an</tspan><tspan class="ae" x="104.31" y="0">d</tspan><tspan x="111.99" y="0">y </tspan><tspan class="m" x="121.93" y="0">r</tspan><tspan class="an" x="126.29" y="0">e</tspan><tspan class="ad" x="133.41" y="0">c</tspan><tspan class="aj" x="140.24" y="0">o</tspan><tspan class="ar" x="147.54" y="0">v</tspan><tspan x="153.9" y="0">e</tspan><tspan class="av" x="160.86" y="0">r</tspan><tspan x="165.9" y="0">y </tspan><tspan class="aq" x="175.84" y="0">r</tspan><tspan x="180.19" y="0">e</tspan><tspan class="w" x="187.16" y="0">l</tspan><tspan x="190.2" y="0">a</tspan><tspan class="am" x="197.33" y="0">t</tspan><tspan class="ae" x="201.09" y="0">e</tspan><tspan x="208.22" y="0">d p</tspan><tspan class="m" x="226.76" y="0">r</tspan><tspan class="aj" x="231.12" y="0">o</tspan><tspan x="238.42" y="0">j</tspan><tspan class="ae" x="241.61" y="0">e</tspan><tspan class="ag" x="248.74" y="0">c</tspan><tspan x="255.85" y="0">t</tspan></text><text class="ah" transform="translate(92.15 378.3)"><tspan class="i">O</tspan><tspan x="8.73" y="0">ther p</tspan><tspan class="m" x="42.77" y="0">r</tspan><tspan class="aj" x="47.12" y="0">o</tspan><tspan x="54.43" y="0">j</tspan><tspan class="an" x="57.62" y="0">e</tspan><tspan class="ao" x="64.74" y="0">c</tspan><tspan class="aw" x="71.85" y="0">t</tspan><tspan x="75.99" y="0">s</tspan></text><circle class="ax" cx="21.2" cy="301.6" r="7.32"/><circle class="ay" cx="21.2" cy="324.31" r="7.32"/><circle class="az" cx="21.2" cy="347.88" r="7.32"/><circle class="ba" cx="21.2" cy="371.45" r="7.32"/></svg>