<svg xmlns="http://www.w3.org/2000/svg" viewBox="0 0 455.65 313.44"><defs><style>.a{fill:none;}.b{fill:#fff;}.c{fill:#00ecbc;}.d{fill:#f9d423;}.e{fill:#9d00c6;}.f{fill:#469fe7;}.g{fill:#cc208e;}.h{fill:#bfbfbf;}.i{opacity:0.8;}</style></defs><rect class="a" x="0.02" width="455.63" height="313.44"/><path class="b" d="M1.63,28.84h4.2c2.56,0,4.34,1.61,4.34,4.53s-1.61,4.71-4.58,4.71H3.43v7.06H1.63Zm1.8,7.73h2c2,0,3-1,3-3.22,0-1.8-.94-3-2.76-3H3.43Z"/><path class="b" d="M12,37.12c0-1.94,0-3.29,0-4.15h1.68a21.16,21.16,0,0,1,.08,2.16A3.3,3.3,0,0,1,17,32.78v1.94c-2.09.07-3.19,1.39-3.19,3.62v6.8H12Z"/><path class="b" d="M26.3,38.92c0,4.27-1.44,6.43-4.18,6.43s-4.2-2.09-4.2-6.41,1.66-6.16,4.27-6.16S26.3,34.82,26.3,38.92Zm-6.58,0c0,3.29.82,4.87,2.4,4.87s2.38-1.61,2.38-4.9c0-3.12-.77-4.65-2.38-4.65S19.72,35.66,19.72,39Z"/><path class="b" d="M30.45,33V45.9c0,2.21-.29,3.89-2.66,3.89a4.11,4.11,0,0,1-.75-.07V48.18a3.91,3.91,0,0,0,.55,0c.94,0,1.08-.58,1.08-1.92V33Zm-1.73-2.4V28.05h1.75v2.52Z"/><path class="b" d="M34.53,39.38c0,2.37.41,4.46,2.33,4.46a2.23,2.23,0,0,0,2.21-2.18h1.72a3.85,3.85,0,0,1-4,3.69c-3.57,0-4.08-3.26-4.08-6.31,0-3.84,1.32-6.26,4.18-6.26,3.22,0,4,2.61,4,5.66,0,.24,0,.65,0,.94ZM39.14,38c0-2.11-.46-3.75-2.21-3.75-2.23,0-2.35,2.91-2.38,3.75Z"/><path class="b" d="M50.66,41.42c0,.64-.31,3.93-3.89,3.93-3.17,0-4-2.81-4-6.33s1.1-6.27,4.2-6.27c3.52,0,3.69,3.27,3.72,3.84h-1.8c0-.48-.19-2.33-1.92-2.33s-2.4,1.92-2.4,4.73c0,3,.67,4.85,2.3,4.85s2-1.78,2.07-2.42Z"/><path class="b" d="M51.71,33h1.73V29.73h1.73V33H57.3v1.51H55.17v8c0,.84.19,1.37,1.1,1.37a4.52,4.52,0,0,0,.87-.08v1.37a4.8,4.8,0,0,1-1.44.19c-1.42,0-2.26-.57-2.26-2.49V34.48H51.71Z"/><path class="b" d="M63.71,28.84h3.63c3.77,0,5.45,2.61,5.45,7.73,0,5.52-1.52,8.57-5.72,8.57H63.71Zm1.8,14.76H67c3,0,3.94-2.35,3.94-7,0-4.33-1.11-6.25-3.91-6.25H65.51Z"/><path class="b" d="M76.62,39.38c0,2.37.41,4.46,2.33,4.46a2.23,2.23,0,0,0,2.21-2.18h1.73a3.86,3.86,0,0,1-4,3.69c-3.58,0-4.08-3.26-4.08-6.31,0-3.84,1.32-6.26,4.17-6.26,3.22,0,4,2.61,4,5.66,0,.24,0,.65,0,.94ZM81.23,38c0-2.11-.45-3.75-2.21-3.75-2.23,0-2.35,2.91-2.37,3.75Z"/><path class="b" d="M86.22,41.63c.08,1.3.75,2.28,2.14,2.28a1.77,1.77,0,0,0,2-1.92c0-1.25-.63-1.82-2.23-2.45-2.52-1-3.24-1.87-3.24-3.57a3.12,3.12,0,0,1,3.48-3.22,3.2,3.2,0,0,1,3.5,3.48h-1.7c0-.6-.17-2-1.85-2a1.54,1.54,0,0,0-1.68,1.68c0,1,.43,1.44,2.11,2.11,2.35.89,3.38,1.76,3.38,3.84,0,2.24-1.39,3.53-3.81,3.53a3.48,3.48,0,0,1-3.82-3.72Z"/><path class="b" d="M101.56,41.42c0,.64-.31,3.93-3.89,3.93-3.17,0-4-2.81-4-6.33s1.1-6.27,4.2-6.27c3.53,0,3.7,3.27,3.72,3.84h-1.8c0-.48-.19-2.33-1.92-2.33s-2.4,1.92-2.4,4.73c0,3,.67,4.85,2.3,4.85s2-1.78,2.07-2.42Z"/><path class="b" d="M103.62,37.12c0-1.94,0-3.29,0-4.15h1.68c0,.31.07.89.07,2.16a3.31,3.31,0,0,1,3.22-2.35v1.94c-2.09.07-3.19,1.39-3.19,3.62v6.8h-1.76Z"/><path class="b" d="M110.18,30.57V28.05H112v2.52Zm0,2.4h1.75V45.14h-1.75Z"/><path class="b" d="M114.83,49.6V36.52c0-1.66,0-2.78,0-3.55h1.7c0,.21.07,1,.07,1.63a2.79,2.79,0,0,1,2.88-1.82c2.31,0,3.56,2,3.56,6.09,0,4.39-1.52,6.48-3.89,6.48a2.55,2.55,0,0,1-2.55-1.46V49.6Zm4.11-15.29c-1.9,0-2.4,1.8-2.4,4.68s.26,4.83,2.28,4.83c1.6,0,2.42-1.88,2.42-4.85S120.52,34.31,118.94,34.31Z"/><path class="b" d="M123.88,33h1.73V29.73h1.73V33h2.13v1.51h-2.13v8c0,.84.19,1.37,1.1,1.37a4.34,4.34,0,0,0,.86-.08v1.37a4.72,4.72,0,0,1-1.44.19c-1.41,0-2.25-.57-2.25-2.49V34.48h-1.73Z"/><path class="b" d="M131.2,30.57V28.05H133v2.52Zm0,2.4H133V45.14H131.2Z"/><path class="b" d="M143.63,38.92c0,4.27-1.44,6.43-4.18,6.43s-4.2-2.09-4.2-6.41,1.66-6.16,4.28-6.16S143.63,34.82,143.63,38.92Zm-6.58,0c0,3.29.82,4.87,2.4,4.87s2.38-1.61,2.38-4.9c0-3.12-.77-4.65-2.38-4.65S137.05,35.66,137.05,39Z"/><path class="b" d="M145.91,36.74c0-2.5,0-3.22,0-3.77h1.7c0,.29.07.77.07,1.58a2.88,2.88,0,0,1,2.88-1.8c1.75,0,3.12,1,3.12,3.72v8.67h-1.77V36.81c0-1.49-.48-2.5-1.88-2.5-1.63,0-2.32,1.08-2.32,3.58v7.25h-1.78Z"/><path class="b" d="M41.78,138c.11,1.24.7,2.25,2,2.25s1.93-.7,1.93-2.1-.52-2-2.2-2.78c-1.91-.92-2.75-1.76-2.75-3.53a2.86,2.86,0,0,1,3.07-3c2.36,0,3,1.69,3,3.11H45.59c-.07-.57-.25-2-1.76-2a1.6,1.6,0,0,0-1.67,1.79c0,1.17.52,1.73,2.05,2.45,2.14,1,2.92,2,2.92,3.87a3.07,3.07,0,0,1-3.34,3.33c-2.44,0-3.25-1.6-3.34-3.37Z"/><path class="b" d="M54.31,139.63c0,.57,0,1.33.07,1.62H53.17a5.77,5.77,0,0,1-.09-1.05,2.12,2.12,0,0,1-2.16,1.21,2.36,2.36,0,0,1-2.39-2.65c0-1.65,1.13-2.92,3.53-2.92a6.36,6.36,0,0,1,.95,0v-1.22c0-.71-.14-1.62-1.37-1.62s-1.44,1-1.49,1.58H48.89A2.48,2.48,0,0,1,51.68,132c1.76,0,2.63.85,2.63,2.54ZM53,136.93a4.9,4.9,0,0,0-.9-.06c-1.62,0-2.29.78-2.29,1.8a1.44,1.44,0,0,0,1.42,1.62c1.34,0,1.77-.95,1.77-2.88Z"/><path class="b" d="M56.48,134.94c0-1.87,0-2.41,0-2.82h1.27a10.89,10.89,0,0,1,.06,1.19A2.14,2.14,0,0,1,60,132c1.31,0,2.34.75,2.34,2.79v6.5H61V135c0-1.12-.36-1.87-1.41-1.87-1.22,0-1.74.81-1.74,2.68v5.44H56.48Z"/><path class="b" d="M70.17,128.43v10.48c0,.88,0,1.8,0,2.34H68.9c0-.24-.05-.83-.05-1.23a2,2,0,0,1-2.14,1.39c-1.89,0-2.7-1.62-2.7-4.83,0-2.91,1.06-4.61,3-4.61a1.82,1.82,0,0,1,1.85.94v-4.48Zm-3.1,11.81c1.42,0,1.8-1.21,1.8-3.69,0-2.67-.38-3.42-1.69-3.42-1.08,0-1.82,1-1.82,3.47S66,140.24,67.07,140.24Z"/><path class="b" d="M72.93,132.12c1,3.81,1.73,6.55,1.86,7.52h0c.18-1,1-4.17,1.87-7.52H78l-2.66,9.59c-.74,2.67-1.45,3-2.74,3a4.8,4.8,0,0,1-.67-.05v-1.18a5.23,5.23,0,0,0,.62,0c1,0,1.22-.65,1.58-2.11l-2.68-9.32Z"/><path class="b" d="M42.53,88.47V94.1H41.18V81.88h3.21A2.82,2.82,0,0,1,47.5,85c0,1.83-.88,2.61-1.63,2.86,1.13.4,1.49,1.4,1.49,3.11v.49a13,13,0,0,0,.18,2.61H46.19A12.22,12.22,0,0,1,46,91.45V91c0-1.73-.34-2.57-2-2.57Zm0-1.14h1.55c1.5,0,2.06-.84,2.06-2.27,0-1.22-.56-2-1.91-2h-1.7Z"/><path class="b" d="M55.33,89.44c0,3.2-1.08,4.82-3.13,4.82s-3.15-1.56-3.15-4.8,1.24-4.63,3.2-4.63S55.33,86.36,55.33,89.44Zm-4.93,0c0,2.47.61,3.66,1.8,3.66S54,91.92,54,89.46,53.41,86,52.2,86,50.4,87,50.4,89.47Z"/><path class="b" d="M62.93,89.44c0,3.2-1.08,4.82-3.13,4.82s-3.16-1.56-3.16-4.8,1.25-4.63,3.21-4.63S62.93,86.36,62.93,89.44Zm-4.93,0c0,2.47.61,3.66,1.8,3.66s1.78-1.21,1.78-3.67S61,86,59.8,86,58,87,58,89.47Z"/><path class="b" d="M64.85,94.1v-8H63.67V85h1.18V83.71c0-1.35.49-2.54,2.15-2.54a3.21,3.21,0,0,1,.75.11v1.15a3.31,3.31,0,0,0-.61-.07c-.72,0-1,.45-1,1.39V85h1.44v1.14H66.17v8Z"/><path class="b" d="M42.68,164.82l-2.41-12.23h1.42c.81,4.34,1.6,8.68,1.74,10.37h0c.24-1.71,1.5-7.47,2.07-10.37h1.3c.56,2.79,1.82,8.72,2,10.3h0c.25-2.14,1.41-7.52,1.91-10.3h1.35l-2.61,12.23H48.1c-.56-2.79-1.71-8.3-2-10.12h0c-.27,2-1.44,7.36-2,10.12Z"/><path class="b" d="M58.12,163.2a16.05,16.05,0,0,0,.08,1.62H57a5,5,0,0,1-.09-1A2.13,2.13,0,0,1,54.74,165a2.37,2.37,0,0,1-2.4-2.65c0-1.65,1.14-2.91,3.53-2.91a8.66,8.66,0,0,1,1,0v-1.22c0-.7-.15-1.62-1.37-1.62s-1.44,1-1.5,1.58H52.7a2.48,2.48,0,0,1,2.79-2.64c1.77,0,2.63.84,2.63,2.53Zm-1.28-2.7a4.75,4.75,0,0,0-.9-.06c-1.62,0-2.28.78-2.28,1.8a1.44,1.44,0,0,0,1.42,1.62c1.33,0,1.76-1,1.76-2.88Z"/><path class="b" d="M59.17,155.69h1.29v-2.43h1.3v2.43h1.6v1.13h-1.6v6c0,.63.14,1,.83,1a3.27,3.27,0,0,0,.65-.06v1a3.71,3.71,0,0,1-1.09.14c-1.06,0-1.69-.43-1.69-1.87v-6.25H59.17Z"/><path class="b" d="M65.39,160.5c0,1.78.31,3.35,1.75,3.35a1.68,1.68,0,0,0,1.66-1.64h1.29a2.88,2.88,0,0,1-3,2.77c-2.68,0-3.06-2.45-3.06-4.74,0-2.88,1-4.69,3.13-4.69,2.42,0,3,2,3,4.24,0,.18,0,.49,0,.71Zm3.46-1c0-1.58-.34-2.81-1.66-2.81-1.67,0-1.76,2.18-1.78,2.81Z"/><path class="b" d="M71.84,158.8c0-1.45,0-2.46,0-3.11h1.26c0,.23,0,.67,0,1.62a2.48,2.48,0,0,1,2.42-1.76V157c-1.57.06-2.4,1.05-2.4,2.72v5.1H71.84Z"/><path class="b" d="M80.37,152.59h3.15A3.09,3.09,0,0,1,86.78,156a3.18,3.18,0,0,1-3.44,3.52H81.72v5.3H80.37Zm1.35,5.8H83.2c1.45,0,2.21-.77,2.21-2.41a2,2,0,0,0-2.07-2.25H81.72Z"/><path class="b" d="M89,160.5c0,1.78.31,3.35,1.75,3.35a1.66,1.66,0,0,0,1.65-1.64h1.3a2.89,2.89,0,0,1-3,2.77c-2.68,0-3.06-2.45-3.06-4.74,0-2.88,1-4.69,3.13-4.69,2.42,0,3,2,3,4.24,0,.18,0,.49,0,.71Zm3.46-1c0-1.58-.34-2.81-1.66-2.81-1.67,0-1.76,2.18-1.78,2.81Z"/><path class="b" d="M95.43,158.52c0-1.88,0-2.42,0-2.83H96.7c0,.22,0,.58,0,1.19a2.15,2.15,0,0,1,2.16-1.35c1.31,0,2.34.75,2.34,2.79v6.5H99.92v-6.25c0-1.12-.36-1.87-1.41-1.87-1.22,0-1.74.81-1.74,2.68v5.44H95.43Z"/><path class="b" d="M104.29,160.5c0,1.78.31,3.35,1.75,3.35a1.66,1.66,0,0,0,1.65-1.64H109a2.89,2.89,0,0,1-3,2.77c-2.68,0-3.06-2.45-3.06-4.74,0-2.88,1-4.69,3.13-4.69,2.41,0,3,2,3,4.24,0,.18,0,.49,0,.71Zm3.46-1c0-1.58-.34-2.81-1.66-2.81-1.67,0-1.76,2.18-1.78,2.81Z"/><path class="b" d="M109.8,155.69h1.29v-2.43h1.3v2.43H114v1.13h-1.6v6c0,.63.15,1,.83,1a3.13,3.13,0,0,0,.65-.06v1a3.69,3.69,0,0,1-1.08.14c-1.06,0-1.7-.43-1.7-1.87v-6.25H109.8Z"/><path class="b" d="M115.23,158.8c0-1.45,0-2.46,0-3.11h1.26c0,.23,0,.67,0,1.62a2.47,2.47,0,0,1,2.41-1.76V157c-1.56.06-2.39,1.05-2.39,2.72v5.1h-1.32Z"/><path class="b" d="M125.28,163.2c0,.57,0,1.33.07,1.62h-1.2a5,5,0,0,1-.09-1A2.14,2.14,0,0,1,121.9,165a2.37,2.37,0,0,1-2.4-2.65c0-1.65,1.13-2.91,3.53-2.91a8.47,8.47,0,0,1,1,0v-1.22c0-.7-.14-1.62-1.36-1.62s-1.44,1-1.5,1.58h-1.26a2.48,2.48,0,0,1,2.79-2.64c1.77,0,2.63.84,2.63,2.53ZM124,160.5a4.82,4.82,0,0,0-.9-.06c-1.62,0-2.28.78-2.28,1.8a1.44,1.44,0,0,0,1.42,1.62c1.33,0,1.76-1,1.76-2.88Z"/><path class="b" d="M126.32,155.69h1.3v-2.43h1.3v2.43h1.6v1.13h-1.6v6c0,.63.14,1,.82,1a3.13,3.13,0,0,0,.65-.06v1a3.64,3.64,0,0,1-1.08.14c-1.06,0-1.69-.43-1.69-1.87v-6.25h-1.3Z"/><path class="b" d="M131.81,153.89V152h1.34v1.89Zm0,1.8h1.32v9.13h-1.32Z"/><path class="b" d="M141.14,160.15c0,3.21-1.08,4.83-3.14,4.83s-3.15-1.57-3.15-4.81,1.25-4.62,3.21-4.62S141.14,157.08,141.14,160.15Zm-4.94,0c0,2.47.62,3.66,1.8,3.66s1.79-1.21,1.79-3.68-.58-3.49-1.79-3.49S136.2,157.71,136.2,160.19Z"/><path class="b" d="M142.85,158.52c0-1.88,0-2.42,0-2.83h1.28c0,.22,0,.58,0,1.19a2.15,2.15,0,0,1,2.16-1.35c1.32,0,2.34.75,2.34,2.79v6.5h-1.33v-6.25c0-1.12-.36-1.87-1.41-1.87-1.22,0-1.74.81-1.74,2.68v5.44h-1.33Z"/><path class="b" d="M41.18,105.45h5.64v1.19H42.53v4.08h4v1.19h-4v5.76H41.18Z"/><path class="b" d="M48.15,117.67V104.85h1.31v12.82Z"/><path class="b" d="M57.46,113c0,3.21-1.08,4.83-3.14,4.83s-3.15-1.57-3.15-4.81,1.25-4.63,3.21-4.63S57.46,109.93,57.46,113Zm-4.94,0c0,2.46.62,3.65,1.8,3.65s1.79-1.21,1.79-3.67-.58-3.49-1.79-3.49S52.52,110.56,52.52,113.05Z"/><path class="b" d="M65.05,113c0,3.21-1.08,4.83-3.13,4.83s-3.15-1.57-3.15-4.81S60,108.4,62,108.4,65.05,109.93,65.05,113Zm-4.93,0c0,2.46.61,3.65,1.8,3.65s1.78-1.21,1.78-3.67-.57-3.49-1.78-3.49S60.12,110.56,60.12,113.05Z"/><path class="b" d="M72.52,104.85v10.48c0,.89,0,1.8,0,2.34H71.26c0-.23-.05-.82-.05-1.22a2,2,0,0,1-2.14,1.39c-1.9,0-2.71-1.62-2.71-4.83,0-2.92,1.07-4.61,3-4.61a1.83,1.83,0,0,1,1.86.94v-4.49Zm-3.09,11.82c1.42,0,1.8-1.21,1.8-3.7,0-2.66-.38-3.42-1.7-3.42-1.08,0-1.82,1-1.82,3.48S68.31,116.67,69.43,116.67Z"/><path class="b" d="M168.72,88.67v5.91h-.8V82.32h2.85a2.7,2.7,0,0,1,2.92,3c0,1.87-.89,2.66-1.68,2.92,1.24.37,1.53,1.51,1.53,3.17v.48a14.49,14.49,0,0,0,.18,2.65h-.83a13,13,0,0,1-.16-2.68v-.4c0-1.82-.34-2.83-2.18-2.83Zm0-.74h1.9c1.61,0,2.2-1,2.2-2.55,0-1.35-.61-2.33-2.12-2.33h-2Z"/><path class="b" d="M181.28,90c0,3.1-1,4.79-2.9,4.79s-2.92-1.64-2.92-4.77,1.14-4.54,3-4.54S181.28,86.93,181.28,90Zm-5,0c0,2.79.79,4,2.09,4s2.09-1.28,2.09-4.07c0-2.5-.74-3.8-2.09-3.8S176.29,87.21,176.29,90Z"/><path class="b" d="M188.5,90c0,3.1-1,4.79-2.9,4.79s-2.92-1.64-2.92-4.77,1.14-4.54,3-4.54S188.5,86.93,188.5,90Zm-5,0c0,2.79.79,4,2.09,4s2.09-1.28,2.09-4.07c0-2.5-.74-3.8-2.09-3.8S183.51,87.21,183.51,90Z"/><path class="b" d="M190.55,94.58V86.3h-1.26v-.72h1.26v-1.5c0-1.21.34-2.43,1.89-2.43a2.62,2.62,0,0,1,.65.09v.76a2.78,2.78,0,0,0-.67-.09c-.79,0-1.08.52-1.08,1.63v1.54h1.5v.72h-1.5v8.28Z"/><path class="b" d="M197.35,83.49V81.74h.8v1.75Zm0,2.09h.78v9h-.78Z"/><path class="b" d="M200.47,88.28c0-1.5,0-2.25,0-2.7h.75a11.87,11.87,0,0,1,0,1.29,2.06,2.06,0,0,1,2-1.44,1.75,1.75,0,0,1,1.9,1.41,2.2,2.2,0,0,1,2.17-1.41c1,0,2.11.47,2.11,2.56v6.59h-.79V88.15c0-1-.29-2-1.48-2-1.35,0-1.82,1.26-1.82,2.54v5.87h-.79V88.19c0-1.3-.43-2-1.44-2-1.24,0-1.89,1.24-1.89,2.72v5.69h-.77Z"/><path class="b" d="M211.79,97.93V88.22c0-1.24,0-2.09,0-2.64h.76c0,.14,0,.82,0,1.35a2.21,2.21,0,0,1,2.24-1.5c1.72,0,2.62,1.55,2.62,4.54s-1.09,4.77-2.88,4.77a2,2,0,0,1-2-1.24v4.43Zm2.86-11.76c-1.62,0-2.12,1.55-2.12,3.92,0,2.2.27,3.91,2,3.91,1.35,0,2.07-1.65,2.07-4S216,86.17,214.65,86.17Z"/><path class="b" d="M219.29,88.65c0-1.4,0-2.43,0-3.07H220c0,.27,0,.72,0,1.67a2.57,2.57,0,0,1,2.39-1.8v.85c-1.58.09-2.39,1.42-2.39,3v5.24h-.78Z"/><path class="b" d="M229,90c0,3.1-1,4.79-2.9,4.79s-2.92-1.64-2.92-4.77,1.14-4.54,3-4.54S229,86.93,229,90Zm-5,0c0,2.79.79,4,2.09,4s2.09-1.28,2.09-4.07c0-2.5-.74-3.8-2.09-3.8S224,87.21,224,90Z"/><path class="b" d="M230.85,85.58c.85,3.15,1.94,7.14,2.11,8h0c.09-.74,1.84-6.66,2.2-8H236l-2.61,9h-.86l-2.49-9Z"/><path class="b" d="M237.65,90.11c0,2.18.4,3.91,2,3.91s1.87-1.64,1.93-1.89h.79a2.77,2.77,0,0,1-2.72,2.61c-2.48,0-2.83-2.41-2.83-4.63,0-2.84.9-4.68,2.92-4.68,2.2,0,2.7,1.95,2.7,4.12,0,.08,0,.31,0,.56Zm4-.7c0-2-.49-3.26-1.93-3.26-2,0-2.05,2.67-2.07,3.26Z"/><path class="b" d="M244.28,88.28c0-1.5,0-2.25,0-2.7H245c0,.3,0,.79,0,1.29a2.07,2.07,0,0,1,2-1.44A1.75,1.75,0,0,1,249,86.84a2.2,2.2,0,0,1,2.18-1.41c1,0,2.1.47,2.1,2.56v6.59h-.79V88.15c0-1-.29-2-1.48-2-1.35,0-1.82,1.26-1.82,2.54v5.87h-.79V88.19c0-1.3-.43-2-1.44-2-1.24,0-1.89,1.24-1.89,2.72v5.69h-.77Z"/><path class="b" d="M255.94,90.11c0,2.18.4,3.91,2,3.91a2,2,0,0,0,1.92-1.89h.8A2.77,2.77,0,0,1,258,94.74c-2.49,0-2.83-2.41-2.83-4.63,0-2.84.9-4.68,2.92-4.68,2.19,0,2.7,1.95,2.7,4.12,0,.08,0,.31,0,.56Zm4-.7c0-2-.49-3.26-1.93-3.26-2,0-2,2.67-2.07,3.26Z"/><path class="b" d="M262.56,88.35c0-1.84,0-2.4,0-2.77h.75c0,.21,0,.55,0,1.33a2.2,2.2,0,0,1,2.23-1.48c1.21,0,2.32.61,2.32,2.74v6.41h-.79v-6.3c0-1.23-.48-2.11-1.64-2.11-1.49,0-2.1,1-2.1,3.19v5.22h-.8Z"/><path class="b" d="M269,85.58h1.33V83.07h.77v2.51h1.68v.72h-1.68v6.55c0,.68.16,1.13.85,1.13a3.94,3.94,0,0,0,.72,0v.65a3.06,3.06,0,0,1-.92.12c-.81,0-1.42-.36-1.42-1.65V86.3H269Z"/><path class="b" d="M277.63,88.65c0-1.4,0-2.43,0-3.07h.76c0,.27,0,.72,0,1.67a2.59,2.59,0,0,1,2.4-1.8v.85c-1.59.09-2.4,1.42-2.4,3v5.24h-.77Z"/><path class="b" d="M282.33,90.11c0,2.18.39,3.91,2,3.91s1.87-1.64,1.92-1.89h.79a2.75,2.75,0,0,1-2.71,2.61c-2.49,0-2.83-2.41-2.83-4.63,0-2.84.9-4.68,2.92-4.68,2.19,0,2.7,1.95,2.7,4.12,0,.08,0,.31,0,.56Zm4-.7c0-2-.48-3.26-1.92-3.26-2,0-2.05,2.67-2.07,3.26Z"/><path class="b" d="M289,94.58V81.74h.78V94.58Z"/><path class="b" d="M296.77,93.23a13.21,13.21,0,0,0,.07,1.35h-.72a6,6,0,0,1-.09-1.15,2.14,2.14,0,0,1-2.2,1.31,2.28,2.28,0,0,1-2.32-2.56c0-1.53,1-2.84,3.42-2.84.5,0,.77,0,1.08,0V88c0-.83-.18-1.89-1.62-1.89-1.62,0-1.69,1.19-1.75,1.8h-.77a2.34,2.34,0,0,1,2.55-2.52c1.62,0,2.35.83,2.35,2.45ZM296,90.09a9.21,9.21,0,0,0-1,0c-1.87,0-2.68.9-2.68,2.09A1.68,1.68,0,0,0,294,94c1.47,0,2.07-1,2.07-3.3Z"/><path class="b" d="M297.92,85.58h1.33V83.07H300v2.51h1.68v.72H300v6.55c0,.68.16,1.13.85,1.13a4,4,0,0,0,.72,0v.65a3.06,3.06,0,0,1-.92.12c-.81,0-1.42-.36-1.42-1.65V86.3h-1.33Z"/><path class="b" d="M303.23,90.11c0,2.18.39,3.91,2,3.91a2,2,0,0,0,1.93-1.89H308a2.76,2.76,0,0,1-2.72,2.61c-2.48,0-2.82-2.41-2.82-4.63,0-2.84.9-4.68,2.91-4.68,2.2,0,2.71,1.95,2.71,4.12,0,.08,0,.31,0,.56Zm4-.7c0-2-.48-3.26-1.93-3.26-2,0-2.05,2.67-2.07,3.26Z"/><path class="b" d="M315.2,81.74V92.38c0,.76,0,1.66,0,2.2h-.75c0-.24,0-.92,0-1.39a2.07,2.07,0,0,1-2.19,1.55c-1.86,0-2.69-1.51-2.69-4.77,0-3,1.16-4.54,2.92-4.54,1.3,0,1.75.58,2,1.08V81.74ZM312.35,94c1.61,0,2.07-1.44,2.07-4,0-3-.5-3.76-2-3.76-1.22,0-2.09,1.13-2.09,3.8C310.37,92.9,311.09,94,312.35,94Z"/><path class="b" d="M321,97.93V88.22c0-1.24,0-2.09,0-2.64h.75c0,.14,0,.82,0,1.35a2.2,2.2,0,0,1,2.23-1.5c1.73,0,2.63,1.55,2.63,4.54s-1.1,4.77-2.88,4.77a2,2,0,0,1-2-1.24v4.43Zm2.87-11.76c-1.62,0-2.13,1.55-2.13,3.92,0,2.2.27,3.91,2,3.91,1.35,0,2.07-1.65,2.07-4S325.29,86.17,323.91,86.17Z"/><path class="b" d="M328.55,88.65c0-1.4,0-2.43,0-3.07h.76c0,.27,0,.72,0,1.67a2.57,2.57,0,0,1,2.39-1.8v.85c-1.58.09-2.39,1.42-2.39,3v5.24h-.78Z"/><path class="b" d="M338.26,90c0,3.1-1,4.79-2.9,4.79s-2.92-1.64-2.92-4.77,1.13-4.54,2.95-4.54S338.26,86.93,338.26,90Zm-5,0c0,2.79.79,4,2.09,4s2.09-1.28,2.09-4.07c0-2.5-.74-3.8-2.09-3.8S333.27,87.21,333.27,90Z"/><path class="b" d="M341,85.58v9.83c0,1.53-.2,2.66-1.68,2.66l-.41,0v-.72h.39c.78,0,.92-.5.92-1.67V85.58Zm-.74-2.09V81.74h.77v1.75Z"/><path class="b" d="M343.74,90.11c0,2.18.4,3.91,2,3.91s1.87-1.64,1.93-1.89h.79a2.77,2.77,0,0,1-2.72,2.61c-2.48,0-2.83-2.41-2.83-4.63,0-2.84.9-4.68,2.92-4.68,2.2,0,2.7,1.95,2.7,4.12,0,.08,0,.31,0,.56Zm4-.7c0-2-.49-3.26-1.93-3.26-2,0-2.05,2.67-2.07,3.26Z"/><path class="b" d="M355.55,92a2.71,2.71,0,0,1-2.66,2.72c-2.2,0-2.83-2.09-2.83-4.66s.85-4.65,2.95-4.65a2.53,2.53,0,0,1,2.54,2.67h-.83c0-.38-.18-1.95-1.71-1.95s-2.12,1.68-2.12,3.91c0,2.43.61,4,2,4s1.75-1.55,1.82-2Z"/><path class="b" d="M356.43,85.58h1.33V83.07h.78v2.51h1.67v.72h-1.67v6.55c0,.68.16,1.13.84,1.13a4.12,4.12,0,0,0,.73,0v.65a3.14,3.14,0,0,1-.92.12c-.81,0-1.43-.36-1.43-1.65V86.3h-1.33Z"/><path class="b" d="M167.92,105.41h5.23v.76h-4.43v4.68h4.14v.74h-4.14v6.08h-.8Z"/><path class="b" d="M174.6,117.67V104.84h.77v12.83Z"/><path class="b" d="M183.06,113.05c0,3.09-1,4.79-2.9,4.79s-2.91-1.64-2.91-4.78,1.13-4.53,2.95-4.53S183.06,110,183.06,113.05Zm-5,0c0,2.79.8,4,2.09,4s2.09-1.28,2.09-4.07c0-2.51-.74-3.8-2.09-3.8S178.07,110.31,178.07,113.08Z"/><path class="b" d="M190.28,113.05c0,3.09-1,4.79-2.9,4.79s-2.92-1.64-2.92-4.78,1.14-4.53,3-4.53S190.28,110,190.28,113.05Zm-5,0c0,2.79.79,4,2.09,4s2.09-1.28,2.09-4.07c0-2.51-.74-3.8-2.09-3.8S185.29,110.31,185.29,113.08Z"/><path class="b" d="M197.34,104.84v10.64c0,.75,0,1.65,0,2.19h-.75c0-.23,0-.91,0-1.38a2.07,2.07,0,0,1-2.2,1.55c-1.85,0-2.68-1.52-2.68-4.78,0-3,1.15-4.53,2.92-4.53,1.3,0,1.75.57,2,1.08v-4.77Zm-2.85,12.24c1.6,0,2.07-1.44,2.07-4,0-3-.5-3.76-2-3.76-1.23,0-2.09,1.13-2.09,3.79C192.51,116,193.23,117.08,194.49,117.08Z"/><path class="b" d="M203.18,106.58v-1.74h.8v1.74Zm0,2.09H204v9h-.78Z"/><path class="b" d="M206.3,111.37c0-1.49,0-2.25,0-2.7H207c0,.31,0,.79,0,1.3a2.06,2.06,0,0,1,2-1.44,1.75,1.75,0,0,1,1.89,1.4,2.21,2.21,0,0,1,2.18-1.4c1,0,2.1.47,2.1,2.55v6.59h-.79v-6.42c0-1-.29-2-1.48-2-1.35,0-1.82,1.26-1.82,2.53v5.87h-.79v-6.39c0-1.29-.43-2-1.44-2-1.24,0-1.89,1.24-1.89,2.71v5.69h-.77Z"/><path class="b" d="M217.62,121v-9.7c0-1.24,0-2.09,0-2.65h.76c0,.15,0,.83,0,1.35a2.21,2.21,0,0,1,2.24-1.49c1.73,0,2.63,1.55,2.63,4.53s-1.1,4.78-2.89,4.78a2,2,0,0,1-2-1.25V121Zm2.86-11.75c-1.62,0-2.12,1.54-2.12,3.92,0,2.2.27,3.91,2,3.91,1.36,0,2.08-1.66,2.08-4S221.87,109.27,220.48,109.27Z"/><path class="b" d="M225.13,111.75c0-1.4,0-2.43,0-3.08h.75c0,.27,0,.72,0,1.68a2.55,2.55,0,0,1,2.39-1.8v.84c-1.58.09-2.39,1.42-2.39,3v5.24h-.77Z"/><path class="b" d="M234.83,113.05c0,3.09-1,4.79-2.9,4.79S229,116.2,229,113.06s1.14-4.53,3-4.53S234.83,110,234.83,113.05Zm-5,0c0,2.79.79,4,2.09,4s2.09-1.28,2.09-4.07c0-2.51-.74-3.8-2.09-3.8S229.84,110.31,229.84,113.08Z"/><path class="b" d="M236.68,108.67c.85,3.15,1.95,7.15,2.11,8h0c.1-.74,1.84-6.67,2.2-8h.81l-2.61,9h-.86l-2.49-9Z"/><path class="b" d="M243.49,113.21c0,2.18.39,3.91,2,3.91a2,2,0,0,0,1.93-1.89h.79a2.78,2.78,0,0,1-2.72,2.61c-2.48,0-2.82-2.42-2.82-4.63,0-2.85.9-4.68,2.91-4.68,2.2,0,2.7,1.94,2.7,4.12,0,.07,0,.31,0,.56Zm4-.7c0-2-.49-3.26-1.93-3.26-2,0-2,2.66-2.07,3.26Z"/><path class="b" d="M250.11,111.37c0-1.49,0-2.25,0-2.7h.76c0,.31,0,.79,0,1.3a2.07,2.07,0,0,1,2-1.44,1.75,1.75,0,0,1,1.89,1.4,2.23,2.23,0,0,1,2.18-1.4c1,0,2.1.47,2.1,2.55v6.59h-.79v-6.42c0-1-.29-2-1.47-2-1.36,0-1.82,1.26-1.82,2.53v5.87h-.8v-6.39c0-1.29-.43-2-1.44-2-1.24,0-1.89,1.24-1.89,2.71v5.69h-.77Z"/><path class="b" d="M261.77,113.21c0,2.18.4,3.91,2,3.91s1.87-1.64,1.93-1.89h.79a2.78,2.78,0,0,1-2.72,2.61c-2.49,0-2.83-2.42-2.83-4.63,0-2.85.9-4.68,2.92-4.68,2.2,0,2.7,1.94,2.7,4.12,0,.07,0,.31,0,.56Zm4-.7c0-2-.49-3.26-1.93-3.26-2,0-2.05,2.66-2.07,3.26Z"/><path class="b" d="M268.4,111.44c0-1.83,0-2.39,0-2.77h.75c0,.22,0,.56,0,1.33a2.22,2.22,0,0,1,2.23-1.47c1.21,0,2.33.61,2.33,2.73v6.41h-.79v-6.3c0-1.22-.49-2.1-1.64-2.1-1.5,0-2.11,1-2.11,3.18v5.22h-.79Z"/><path class="b" d="M274.86,108.67h1.33v-2.5H277v2.5h1.68v.72H277V116c0,.68.17,1.13.85,1.13a5.08,5.08,0,0,0,.72,0v.64a3.05,3.05,0,0,1-.92.13c-.81,0-1.42-.36-1.42-1.66v-6.75h-1.33Z"/><path class="b" d="M283.46,111.75c0-1.4,0-2.43,0-3.08h.75c0,.27,0,.72,0,1.68a2.55,2.55,0,0,1,2.39-1.8v.84c-1.58.09-2.39,1.42-2.39,3v5.24h-.78Z"/><path class="b" d="M288.16,113.21c0,2.18.4,3.91,2,3.91s1.87-1.64,1.92-1.89h.8a2.78,2.78,0,0,1-2.72,2.61c-2.49,0-2.83-2.42-2.83-4.63,0-2.85.9-4.68,2.92-4.68,2.19,0,2.7,1.94,2.7,4.12,0,.07,0,.31,0,.56Zm4-.7c0-2-.49-3.26-1.93-3.26-2,0-2.05,2.66-2.07,3.26Z"/><path class="b" d="M294.78,117.67V104.84h.78v12.83Z"/><path class="b" d="M302.6,116.32a13,13,0,0,0,.07,1.35H302a5.87,5.87,0,0,1-.09-1.15,2.11,2.11,0,0,1-2.2,1.32,2.28,2.28,0,0,1-2.32-2.56c0-1.53,1-2.85,3.42-2.85a8,8,0,0,1,1.08,0v-1.33c0-.83-.18-1.89-1.62-1.89-1.62,0-1.69,1.19-1.75,1.8h-.77a2.35,2.35,0,0,1,2.56-2.52c1.62,0,2.34.83,2.34,2.45Zm-.74-3.13a6.85,6.85,0,0,0-1.05,0c-1.87,0-2.68.91-2.68,2.09a1.68,1.68,0,0,0,1.66,1.88c1.48,0,2.07-1,2.07-3.3Z"/><path class="b" d="M303.75,108.67h1.33v-2.5h.77v2.5h1.68v.72h-1.68V116c0,.68.17,1.13.85,1.13a5.08,5.08,0,0,0,.72,0v.64a3.05,3.05,0,0,1-.92.13c-.81,0-1.42-.36-1.42-1.66v-6.75h-1.33Z"/><path class="b" d="M309.06,113.21c0,2.18.39,3.91,2,3.91a2,2,0,0,0,1.93-1.89h.79a2.76,2.76,0,0,1-2.72,2.61c-2.48,0-2.82-2.42-2.82-4.63,0-2.85.9-4.68,2.91-4.68,2.2,0,2.71,1.94,2.71,4.12,0,.07,0,.31,0,.56Zm4-.7c0-2-.48-3.26-1.92-3.26-2,0-2.06,2.66-2.07,3.26Z"/><path class="b" d="M321,104.84v10.64c0,.75,0,1.65,0,2.19h-.76c0-.23,0-.91,0-1.38a2.08,2.08,0,0,1-2.2,1.55c-1.86,0-2.68-1.52-2.68-4.78,0-3,1.15-4.53,2.91-4.53,1.3,0,1.75.57,2,1.08v-4.77Zm-2.85,12.24c1.61,0,2.08-1.44,2.08-4,0-3-.51-3.76-2-3.76-1.22,0-2.09,1.13-2.09,3.79C316.2,116,316.92,117.08,318.18,117.08Z"/><path class="b" d="M326.88,121v-9.7c0-1.24,0-2.09,0-2.65h.76c0,.15,0,.83,0,1.35a2.2,2.2,0,0,1,2.23-1.49c1.73,0,2.63,1.55,2.63,4.53s-1.09,4.78-2.88,4.78a2,2,0,0,1-2-1.25V121Zm2.86-11.75c-1.62,0-2.12,1.54-2.12,3.92,0,2.2.27,3.91,2,3.91,1.35,0,2.07-1.66,2.07-4S331.13,109.27,329.74,109.27Z"/><path class="b" d="M334.38,111.75c0-1.4,0-2.43,0-3.08h.75c0,.27,0,.72,0,1.68a2.55,2.55,0,0,1,2.39-1.8v.84c-1.58.09-2.39,1.42-2.39,3v5.24h-.78Z"/><path class="b" d="M344.09,113.05c0,3.09-1,4.79-2.9,4.79s-2.92-1.64-2.92-4.78,1.14-4.53,3-4.53S344.09,110,344.09,113.05Zm-5,0c0,2.79.79,4,2.09,4s2.09-1.28,2.09-4.07c0-2.51-.74-3.8-2.09-3.8S339.1,110.31,339.1,113.08Z"/><path class="b" d="M346.86,108.67v9.83c0,1.53-.2,2.67-1.68,2.67a3.32,3.32,0,0,1-.41,0v-.72a2.89,2.89,0,0,0,.39,0c.78,0,.92-.5.92-1.68V108.67Zm-.74-2.09v-1.74h.77v1.74Z"/><path class="b" d="M349.58,113.21c0,2.18.39,3.91,2,3.91s1.87-1.64,1.93-1.89h.79a2.78,2.78,0,0,1-2.72,2.61c-2.48,0-2.82-2.42-2.82-4.63,0-2.85.9-4.68,2.91-4.68,2.2,0,2.7,1.94,2.7,4.12,0,.07,0,.31,0,.56Zm4-.7c0-2-.49-3.26-1.93-3.26-2,0-2.05,2.66-2.07,3.26Z"/><path class="b" d="M361.38,115.12a2.72,2.72,0,0,1-2.66,2.72c-2.2,0-2.83-2.09-2.83-4.67s.85-4.64,3-4.64a2.52,2.52,0,0,1,2.53,2.66h-.83c0-.38-.17-1.94-1.7-1.94s-2.13,1.67-2.13,3.9c0,2.44.61,4,2,4s1.74-1.55,1.81-2Z"/><path class="b" d="M362.26,108.67h1.34v-2.5h.77v2.5H366v.72h-1.67V116c0,.68.16,1.13.85,1.13a5.19,5.19,0,0,0,.72,0v.64a3.05,3.05,0,0,1-.92.13c-.81,0-1.42-.36-1.42-1.66v-6.75h-1.34Z"/><path class="b" d="M168.72,135.34v5.91h-.8V129h2.85c1.94,0,2.92,1.18,2.92,3.05s-.89,2.66-1.68,2.91c1.24.38,1.53,1.52,1.53,3.17v.49a14.49,14.49,0,0,0,.18,2.65h-.83a13.07,13.07,0,0,1-.16-2.69v-.39c0-1.82-.34-2.83-2.18-2.83Zm0-.74h1.9c1.61,0,2.2-1,2.2-2.55,0-1.35-.61-2.33-2.12-2.33h-2Z"/><path class="b" d="M176.27,136.78c0,2.18.4,3.91,2,3.91s1.87-1.64,1.93-1.89H181a2.77,2.77,0,0,1-2.72,2.61c-2.48,0-2.83-2.41-2.83-4.63,0-2.84.9-4.68,2.92-4.68,2.2,0,2.7,1.94,2.7,4.12,0,.08,0,.31,0,.56Zm4-.7c0-2-.49-3.26-1.93-3.26-2,0-2.05,2.66-2.07,3.26Z"/><path class="b" d="M188.08,138.69a2.72,2.72,0,0,1-2.66,2.72c-2.2,0-2.83-2.09-2.83-4.66s.85-4.65,3-4.65a2.52,2.52,0,0,1,2.53,2.66h-.82c0-.37-.18-1.94-1.71-1.94s-2.13,1.67-2.13,3.91c0,2.43.61,4,2,4s1.74-1.55,1.81-2Z"/><path class="b" d="M195.23,136.62c0,3.1-1,4.79-2.9,4.79s-2.92-1.64-2.92-4.77,1.14-4.54,3-4.54S195.23,133.59,195.23,136.62Zm-5,0c0,2.8.79,4,2.09,4s2.09-1.28,2.09-4.07c0-2.5-.74-3.8-2.09-3.8S190.24,133.88,190.24,136.65Z"/><path class="b" d="M197.08,132.24c.85,3.15,1.95,7.15,2.11,8h0c.09-.74,1.83-6.66,2.19-8h.81l-2.61,9h-.86l-2.49-9Z"/><path class="b" d="M203.89,136.78c0,2.18.39,3.91,2,3.91s1.87-1.64,1.93-1.89h.79a2.77,2.77,0,0,1-2.72,2.61c-2.48,0-2.82-2.41-2.82-4.63,0-2.84.9-4.68,2.91-4.68,2.2,0,2.7,1.94,2.7,4.12,0,.08,0,.31,0,.56Zm4-.7c0-2-.49-3.26-1.92-3.26-2,0-2.06,2.66-2.08,3.26Z"/><path class="b" d="M210.51,135.32c0-1.4,0-2.43,0-3.08h.76c0,.27,0,.72,0,1.68a2.58,2.58,0,0,1,2.4-1.8V133c-1.59.09-2.4,1.43-2.4,3v5.24h-.77Z"/><path class="b" d="M215.48,132.24c1.17,4.34,2,7.19,2.12,8.09h0c.16-.88,1.1-4.27,2.12-8.09h.87l-2.67,9.49c-.7,2.52-1.2,3-2.5,3a3.19,3.19,0,0,1-.54-.05v-.76a2.45,2.45,0,0,0,.58,0c1,0,1.28-.81,1.73-2.5l-2.6-9.24Z"/><path class="b" d="M225.59,141.25V133h-1.26v-.72h1.26v-1.49c0-1.21.35-2.43,1.89-2.43a2.22,2.22,0,0,1,.65.09v.75a3.28,3.28,0,0,0-.66-.09c-.8,0-1.08.53-1.08,1.64v1.53h1.49V133h-1.49v8.29Z"/><path class="b" d="M229.16,135.32c0-1.4,0-2.43,0-3.08h.75c0,.27,0,.72,0,1.68a2.57,2.57,0,0,1,2.4-1.8V133c-1.59.09-2.4,1.43-2.4,3v5.24h-.77Z"/><path class="b" d="M238.86,136.62c0,3.1-1,4.79-2.9,4.79s-2.92-1.64-2.92-4.77,1.14-4.54,3-4.54S238.86,133.59,238.86,136.62Zm-5,0c0,2.8.8,4,2.09,4s2.09-1.28,2.09-4.07c0-2.5-.74-3.8-2.09-3.8S233.87,133.88,233.87,136.65Z"/><path class="b" d="M240.73,134.94c0-1.49,0-2.25,0-2.7h.76a12.17,12.17,0,0,1,0,1.3,2,2,0,0,1,2-1.44,1.74,1.74,0,0,1,1.89,1.4,2.23,2.23,0,0,1,2.18-1.4c1,0,2.11.47,2.11,2.56v6.59h-.8v-6.43c0-1-.29-2-1.47-2-1.35,0-1.82,1.26-1.82,2.54v5.87h-.79v-6.4c0-1.29-.44-2-1.44-2-1.25,0-1.89,1.24-1.89,2.72v5.69h-.78Z"/><path class="b" d="M255.71,129h.79v5.39h4.63V129h.81v12.27h-.81v-6.13H256.5v6.13h-.79Z"/><path class="b" d="M269.41,138.89c0,1,0,1.94,0,2.36h-.73a9,9,0,0,1-.06-1.35,2.18,2.18,0,0,1-2.23,1.51c-.9,0-2.25-.29-2.25-2.68v-6.49h.79v6.27c0,1.33.42,2.18,1.64,2.18s2-.74,2-3v-5.42h.8Z"/><path class="b" d="M271.73,135.32c0-1.4,0-2.43,0-3.08h.75c0,.27,0,.72,0,1.68a2.56,2.56,0,0,1,2.39-1.8V133c-1.58.09-2.39,1.43-2.39,3v5.24h-.77Z"/><path class="b" d="M276.15,135.32c0-1.4,0-2.43,0-3.08h.75c0,.27,0,.72,0,1.68a2.56,2.56,0,0,1,2.39-1.8V133c-1.58.09-2.39,1.43-2.39,3v5.24h-.78Z"/><path class="b" d="M280.58,130.16v-1.75h.8v1.75Zm0,2.08h.78v9h-.78Z"/><path class="b" d="M288.72,138.69c0,.32-.25,2.72-2.67,2.72-2.19,0-2.82-2.09-2.82-4.66s.84-4.65,2.95-4.65a2.52,2.52,0,0,1,2.54,2.66h-.83c0-.37-.18-1.94-1.71-1.94s-2.12,1.67-2.12,3.91c0,2.43.61,4,2,4s1.75-1.55,1.82-2Z"/><path class="b" d="M295.22,139.9a13.41,13.41,0,0,0,.07,1.35h-.72a7,7,0,0,1-.09-1.16,2.11,2.11,0,0,1-2.2,1.32,2.28,2.28,0,0,1-2.32-2.56c0-1.53,1-2.84,3.42-2.84a10.75,10.75,0,0,1,1.08,0v-1.33c0-.83-.18-1.89-1.62-1.89-1.62,0-1.69,1.19-1.75,1.8h-.77a2.35,2.35,0,0,1,2.56-2.52c1.62,0,2.34.83,2.34,2.45Zm-.74-3.14a9,9,0,0,0-1,0c-1.88,0-2.69.9-2.69,2.09a1.68,1.68,0,0,0,1.66,1.87c1.47,0,2.07-1,2.07-3.3Z"/><path class="b" d="M297.57,135c0-1.84,0-2.4,0-2.78h.75c0,.22,0,.56,0,1.34a2.2,2.2,0,0,1,2.23-1.48c1.21,0,2.32.61,2.32,2.74v6.41h-.79v-6.31c0-1.22-.48-2.1-1.64-2.1-1.49,0-2.1,1-2.1,3.18v5.23h-.8Z"/><path class="b" d="M305.58,136.78c0,2.18.4,3.91,2,3.91s1.87-1.64,1.93-1.89h.79a2.77,2.77,0,0,1-2.72,2.61c-2.48,0-2.83-2.41-2.83-4.63,0-2.84.9-4.68,2.92-4.68,2.2,0,2.7,1.94,2.7,4.12,0,.08,0,.31,0,.56Zm4-.7c0-2-.49-3.26-1.93-3.26-2,0-2.05,2.66-2.07,3.26Z"/><path class="b" d="M315.88,138.17c.09,1.4.81,2.48,2.3,2.48s2.22-.72,2.22-2.45c0-1.45-.54-2.21-2.29-3.06s-2.66-1.69-2.66-3.44a2.7,2.7,0,0,1,2.83-2.86c2.1,0,2.71,1.59,2.75,2.94h-.79c-.06-.54-.24-2.2-2-2.2a1.84,1.84,0,0,0-1.94,2c0,1.37.59,2,2.19,2.78,2.11,1,2.78,2.07,2.78,3.76,0,1.94-1.05,3.24-3.08,3.24-2.24,0-3-1.48-3.12-3.22Z"/><path class="b" d="M328,139.9a12.48,12.48,0,0,0,.08,1.35h-.72a6.06,6.06,0,0,1-.09-1.16,2.12,2.12,0,0,1-2.2,1.32,2.28,2.28,0,0,1-2.32-2.56c0-1.53,1-2.84,3.42-2.84.5,0,.77,0,1.08,0v-1.33c0-.83-.18-1.89-1.62-1.89-1.62,0-1.69,1.19-1.75,1.8h-.77a2.34,2.34,0,0,1,2.55-2.52c1.63,0,2.34.83,2.34,2.45Zm-.73-3.14a9.31,9.31,0,0,0-1.05,0c-1.87,0-2.68.9-2.68,2.09a1.68,1.68,0,0,0,1.66,1.87c1.47,0,2.07-1,2.07-3.3Z"/><path class="b" d="M330.35,135c0-1.84,0-2.4,0-2.78h.76c0,.22,0,.56,0,1.34a2.2,2.2,0,0,1,2.23-1.48c1.2,0,2.32.61,2.32,2.74v6.41h-.79v-6.31c0-1.22-.49-2.1-1.64-2.1-1.49,0-2.11,1-2.11,3.18v5.23h-.79Z"/><path class="b" d="M343.21,128.41v10.64c0,.76,0,1.66,0,2.2h-.75c0-.24,0-.92,0-1.39a2.07,2.07,0,0,1-2.2,1.55c-1.85,0-2.68-1.51-2.68-4.77,0-3,1.15-4.54,2.92-4.54a1.85,1.85,0,0,1,2,1.08v-4.77Zm-2.85,12.24c1.6,0,2.07-1.44,2.07-4.05,0-3-.5-3.76-2-3.76-1.23,0-2.09,1.13-2.09,3.8C338.38,139.57,339.1,140.65,340.36,140.65Z"/><path class="b" d="M345.63,132.24c1.17,4.34,2,7.19,2.13,8.09h0c.16-.88,1.1-4.27,2.12-8.09h.87l-2.67,9.49c-.7,2.52-1.21,3-2.5,3a3.1,3.1,0,0,1-.54-.05v-.76a2.37,2.37,0,0,0,.57,0c1,0,1.28-.81,1.73-2.5l-2.59-9.24Z"/><path class="b" d="M355.64,135.32c0-1.4,0-2.43,0-3.08h.76c0,.27,0,.72,0,1.68a2.56,2.56,0,0,1,2.39-1.8V133c-1.58.09-2.39,1.43-2.39,3v5.24h-.78Z"/><path class="b" d="M360.34,136.78c0,2.18.39,3.91,2,3.91s1.87-1.64,1.92-1.89h.79a2.75,2.75,0,0,1-2.71,2.61c-2.49,0-2.83-2.41-2.83-4.63,0-2.84.9-4.68,2.92-4.68,2.19,0,2.7,1.94,2.7,4.12,0,.08,0,.31,0,.56Zm4-.7c0-2-.48-3.26-1.92-3.26-2,0-2.05,2.66-2.07,3.26Z"/><path class="b" d="M367,141.25V128.41h.78v12.84Z"/><path class="b" d="M374.78,139.9a13.41,13.41,0,0,0,.07,1.35h-.72a6.06,6.06,0,0,1-.09-1.16,2.12,2.12,0,0,1-2.2,1.32,2.28,2.28,0,0,1-2.32-2.56c0-1.53,1-2.84,3.42-2.84.5,0,.77,0,1.08,0v-1.33c0-.83-.18-1.89-1.62-1.89-1.62,0-1.69,1.19-1.75,1.8h-.77a2.34,2.34,0,0,1,2.56-2.52c1.62,0,2.34.83,2.34,2.45Zm-.74-3.14a9.21,9.21,0,0,0-1.05,0c-1.87,0-2.68.9-2.68,2.09a1.68,1.68,0,0,0,1.66,1.87c1.47,0,2.07-1,2.07-3.3Z"/><path class="b" d="M375.93,132.24h1.33v-2.5H378v2.5h1.68V133H378v6.56c0,.68.17,1.13.85,1.13a5.08,5.08,0,0,0,.72-.05v.65a3.06,3.06,0,0,1-.92.12c-.81,0-1.42-.36-1.42-1.65V133h-1.33Z"/><path class="b" d="M381.24,136.78c0,2.18.39,3.91,2,3.91a2,2,0,0,0,1.93-1.89H386a2.75,2.75,0,0,1-2.72,2.61c-2.48,0-2.82-2.41-2.82-4.63,0-2.84.9-4.68,2.91-4.68,2.2,0,2.7,1.94,2.7,4.12,0,.08,0,.31,0,.56Zm4-.7c0-2-.48-3.26-1.92-3.26-2,0-2.06,2.66-2.07,3.26Z"/><path class="b" d="M393.21,128.41v10.64c0,.76,0,1.66,0,2.2h-.76c0-.24,0-.92,0-1.39a2.06,2.06,0,0,1-2.19,1.55c-1.86,0-2.69-1.51-2.69-4.77,0-3,1.16-4.54,2.92-4.54,1.3,0,1.75.58,2,1.08v-4.77Zm-2.85,12.24c1.6,0,2.07-1.44,2.07-4.05,0-3-.5-3.76-2-3.76-1.22,0-2.09,1.13-2.09,3.8C388.38,139.57,389.1,140.65,390.36,140.65Z"/><path class="b" d="M399.06,144.6v-9.71c0-1.24,0-2.09,0-2.65h.75c0,.15,0,.83,0,1.35a2.2,2.2,0,0,1,2.23-1.49c1.73,0,2.63,1.55,2.63,4.54s-1.1,4.77-2.88,4.77a2,2,0,0,1-2-1.24v4.43Zm2.86-11.76c-1.62,0-2.13,1.55-2.13,3.92,0,2.2.27,3.91,2,3.91,1.35,0,2.07-1.66,2.07-4S403.31,132.84,401.92,132.84Z"/><path class="b" d="M406.56,135.32c0-1.4,0-2.43,0-3.08h.76c0,.27,0,.72,0,1.68a2.56,2.56,0,0,1,2.39-1.8V133c-1.58.09-2.39,1.43-2.39,3v5.24h-.78Z"/><path class="b" d="M416.27,136.62c0,3.1-1,4.79-2.9,4.79s-2.92-1.64-2.92-4.77,1.14-4.54,2.95-4.54S416.27,133.59,416.27,136.62Zm-5,0c0,2.8.79,4,2.09,4s2.09-1.28,2.09-4.07c0-2.5-.74-3.8-2.09-3.8S411.28,133.88,411.28,136.65Z"/><path class="b" d="M419,132.24v9.83c0,1.53-.2,2.67-1.68,2.67a3.32,3.32,0,0,1-.41,0V144a2.89,2.89,0,0,0,.39,0c.78,0,.92-.5.92-1.67V132.24Zm-.74-2.08v-1.75h.77v1.75Z"/><path class="b" d="M421.75,136.78c0,2.18.4,3.91,2,3.91s1.87-1.64,1.93-1.89h.79a2.77,2.77,0,0,1-2.72,2.61c-2.48,0-2.83-2.41-2.83-4.63,0-2.84.9-4.68,2.92-4.68,2.2,0,2.7,1.94,2.7,4.12,0,.08,0,.31,0,.56Zm4-.7c0-2-.49-3.26-1.93-3.26-2,0-2,2.66-2.07,3.26Z"/><path class="b" d="M433.56,138.69a2.72,2.72,0,0,1-2.66,2.72c-2.2,0-2.83-2.09-2.83-4.66s.85-4.65,2.95-4.65a2.52,2.52,0,0,1,2.54,2.66h-.83c0-.37-.18-1.94-1.71-1.94s-2.12,1.67-2.12,3.91c0,2.43.61,4,2,4s1.75-1.55,1.82-2Z"/><path class="b" d="M434.44,132.24h1.34v-2.5h.77v2.5h1.67V133h-1.67v6.56c0,.68.16,1.13.85,1.13a5.31,5.31,0,0,0,.72-.05v.65a3.1,3.1,0,0,1-.92.12c-.81,0-1.42-.36-1.42-1.65V133h-1.34Z"/><path class="b" d="M169.42,164.34,167,152.08h.85c1,5.29,2,9.85,2.1,11.15h0c.13-1.28,1.66-8.07,2.29-11.15h.86c.63,3,2.15,10,2.25,11.13h0c.25-1.87,1.69-8.05,2.3-11.13h.83l-2.7,12.26h-.95c-.6-2.93-2-9.61-2.22-11.11h0c-.23,1.71-1.62,8.11-2.26,11.11Z"/><path class="b" d="M184.11,163a13.21,13.21,0,0,0,.07,1.35h-.72a5.87,5.87,0,0,1-.09-1.15,2.11,2.11,0,0,1-2.2,1.31,2.28,2.28,0,0,1-2.32-2.55c0-1.53,1-2.85,3.42-2.85a8.15,8.15,0,0,1,1.08,0v-1.33c0-.83-.18-1.89-1.62-1.89-1.62,0-1.69,1.18-1.75,1.8h-.77a2.34,2.34,0,0,1,2.56-2.52c1.62,0,2.34.82,2.34,2.44Zm-.74-3.13a6.92,6.92,0,0,0-1.05,0c-1.87,0-2.68.9-2.68,2.09a1.68,1.68,0,0,0,1.66,1.87c1.47,0,2.07-1,2.07-3.29Z"/><path class="b" d="M185.26,155.34h1.33v-2.5h.77v2.5H189v.72h-1.68v6.55c0,.69.16,1.14.85,1.14a3.88,3.88,0,0,0,.72-.06v.65a3.05,3.05,0,0,1-.92.13c-.81,0-1.42-.36-1.42-1.66v-6.75h-1.33Z"/><path class="b" d="M190.57,159.88c0,2.18.39,3.9,2,3.9a2,2,0,0,0,1.93-1.89h.79a2.76,2.76,0,0,1-2.72,2.61c-2.48,0-2.82-2.41-2.82-4.62,0-2.85.9-4.68,2.91-4.68,2.2,0,2.71,1.94,2.71,4.12,0,.07,0,.3,0,.56Zm4-.71c0-2-.48-3.25-1.92-3.25-2,0-2.06,2.66-2.07,3.25Z"/><path class="b" d="M197.19,158.42c0-1.41,0-2.43,0-3.08h.76c0,.27,0,.72,0,1.67a2.57,2.57,0,0,1,2.39-1.8v.85c-1.58.09-2.39,1.42-2.39,3v5.24h-.78Z"/><path class="b" d="M205.22,167.69V158c0-1.25,0-2.09,0-2.65H206c0,.14,0,.83,0,1.35a2.21,2.21,0,0,1,2.24-1.49c1.72,0,2.62,1.54,2.62,4.53s-1.09,4.77-2.88,4.77a2,2,0,0,1-2-1.24v4.43Zm2.86-11.76c-1.62,0-2.12,1.55-2.12,3.93,0,2.2.27,3.91,2,3.91,1.35,0,2.07-1.66,2.07-4S209.47,155.93,208.08,155.93Z"/><path class="b" d="M213.07,159.88c0,2.18.39,3.9,2,3.9a2,2,0,0,0,1.93-1.89h.79a2.76,2.76,0,0,1-2.72,2.61c-2.48,0-2.82-2.41-2.82-4.62,0-2.85.9-4.68,2.91-4.68,2.2,0,2.7,1.94,2.7,4.12,0,.07,0,.3,0,.56Zm4-.71c0-2-.48-3.25-1.93-3.25-2,0-2.05,2.66-2.07,3.25Z"/><path class="b" d="M219.69,158.11c0-1.83,0-2.39,0-2.77h.76c0,.22,0,.56,0,1.33a2.21,2.21,0,0,1,2.24-1.47c1.2,0,2.32.61,2.32,2.73v6.41h-.79V158c0-1.22-.49-2.11-1.64-2.11-1.49,0-2.11,1-2.11,3.19v5.22h-.79Z"/><path class="b" d="M227.7,159.88c0,2.18.4,3.9,2,3.9a2,2,0,0,0,1.92-1.89h.8a2.77,2.77,0,0,1-2.72,2.61c-2.49,0-2.83-2.41-2.83-4.62,0-2.85.9-4.68,2.92-4.68,2.19,0,2.7,1.94,2.7,4.12,0,.07,0,.3,0,.56Zm4-.71c0-2-.48-3.25-1.92-3.25-2,0-2,2.66-2.07,3.25Z"/><path class="b" d="M233.33,155.34h1.34v-2.5h.77v2.5h1.68v.72h-1.68v6.55c0,.69.16,1.14.85,1.14a4,4,0,0,0,.72-.06v.65a3.1,3.1,0,0,1-.92.13c-.81,0-1.42-.36-1.42-1.66v-6.75h-1.34Z"/><path class="b" d="M238.43,158.42c0-1.41,0-2.43,0-3.08h.76c0,.27,0,.72,0,1.67a2.59,2.59,0,0,1,2.4-1.8v.85c-1.59.09-2.4,1.42-2.4,3v5.24h-.77Z"/><path class="b" d="M247.46,163a12.29,12.29,0,0,0,.08,1.35h-.72a5.87,5.87,0,0,1-.09-1.15,2.11,2.11,0,0,1-2.2,1.31,2.28,2.28,0,0,1-2.32-2.55c0-1.53,1-2.85,3.42-2.85a8.15,8.15,0,0,1,1.08,0v-1.33c0-.83-.18-1.89-1.62-1.89-1.62,0-1.69,1.18-1.75,1.8h-.77a2.34,2.34,0,0,1,2.56-2.52c1.62,0,2.33.82,2.33,2.44Zm-.73-3.13a6.92,6.92,0,0,0-1,0c-1.87,0-2.68.9-2.68,2.09a1.68,1.68,0,0,0,1.66,1.87c1.47,0,2.07-1,2.07-3.29Z"/><path class="b" d="M248.62,155.34H250v-2.5h.77v2.5h1.68v.72h-1.68v6.55c0,.69.16,1.14.85,1.14a3.88,3.88,0,0,0,.72-.06v.65a3.05,3.05,0,0,1-.92.13c-.81,0-1.42-.36-1.42-1.66v-6.75h-1.33Z"/><path class="b" d="M253.78,153.25V151.5h.79v1.75Zm0,2.09h.77v9h-.77Z"/><path class="b" d="M262.24,159.72c0,3.09-1,4.78-2.9,4.78s-2.91-1.63-2.91-4.77,1.13-4.53,2.95-4.53S262.24,156.69,262.24,159.72Zm-5,0c0,2.79.79,4,2.08,4s2.09-1.27,2.09-4.06c0-2.51-.73-3.8-2.09-3.8S257.26,157,257.26,159.75Z"/><path class="b" d="M264.11,158.11c0-1.83,0-2.39,0-2.77h.75c0,.22,0,.56,0,1.33a2.2,2.2,0,0,1,2.23-1.47c1.21,0,2.32.61,2.32,2.73v6.41h-.79V158c0-1.22-.49-2.11-1.64-2.11-1.49,0-2.1,1-2.1,3.19v5.22h-.8Z"/><path class="b" d="M275.29,158.42c0-1.41,0-2.43,0-3.08H276c0,.27,0,.72,0,1.67a2.59,2.59,0,0,1,2.4-1.8v.85c-1.58.09-2.4,1.42-2.4,3v5.24h-.77Z"/><path class="b" d="M280,159.88c0,2.18.39,3.9,2,3.9a2,2,0,0,0,1.92-1.89h.79A2.75,2.75,0,0,1,282,164.5c-2.49,0-2.83-2.41-2.83-4.62,0-2.85.9-4.68,2.92-4.68,2.19,0,2.7,1.94,2.7,4.12,0,.07,0,.3,0,.56Zm4-.71c0-2-.48-3.25-1.92-3.25-2,0-2.05,2.66-2.07,3.25Z"/><path class="b" d="M286.61,164.34V151.5h.78v12.84Z"/><path class="b" d="M294.43,163a13.21,13.21,0,0,0,.07,1.35h-.72a5.87,5.87,0,0,1-.09-1.15,2.11,2.11,0,0,1-2.2,1.31,2.28,2.28,0,0,1-2.32-2.55c0-1.53,1-2.85,3.42-2.85a8.15,8.15,0,0,1,1.08,0v-1.33c0-.83-.18-1.89-1.62-1.89-1.62,0-1.69,1.18-1.75,1.8h-.77a2.34,2.34,0,0,1,2.55-2.52c1.63,0,2.35.82,2.35,2.44Zm-.74-3.13a6.92,6.92,0,0,0-1.05,0c-1.87,0-2.68.9-2.68,2.09a1.68,1.68,0,0,0,1.66,1.87c1.47,0,2.07-1,2.07-3.29Z"/><path class="b" d="M295.58,155.34h1.33v-2.5h.77v2.5h1.68v.72h-1.68v6.55c0,.69.16,1.14.85,1.14a4,4,0,0,0,.72-.06v.65a3.05,3.05,0,0,1-.92.13c-.81,0-1.42-.36-1.42-1.66v-6.75h-1.33Z"/><path class="b" d="M300.89,159.88c0,2.18.39,3.9,2,3.9a2,2,0,0,0,1.93-1.89h.79a2.76,2.76,0,0,1-2.72,2.61c-2.48,0-2.82-2.41-2.82-4.62,0-2.85.9-4.68,2.91-4.68,2.2,0,2.71,1.94,2.71,4.12,0,.07,0,.3,0,.56Zm4-.71c0-2-.48-3.25-1.93-3.25-2,0-2.05,2.66-2.07,3.25Z"/><path class="b" d="M312.86,151.5v10.65c0,.75,0,1.65,0,2.19h-.76c0-.23,0-.92,0-1.38a2.06,2.06,0,0,1-2.19,1.54c-1.86,0-2.69-1.51-2.69-4.77,0-2.95,1.16-4.53,2.92-4.53,1.3,0,1.75.57,2,1.08V151.5ZM310,163.75c1.61,0,2.07-1.44,2.07-4.05,0-3-.5-3.77-2-3.77-1.22,0-2.09,1.14-2.09,3.8C308,162.67,308.75,163.75,310,163.75Z"/><path class="b" d="M318.71,167.69V158c0-1.25,0-2.09,0-2.65h.75c0,.14,0,.83,0,1.35a2.2,2.2,0,0,1,2.23-1.49c1.73,0,2.63,1.54,2.63,4.53s-1.1,4.77-2.88,4.77a2,2,0,0,1-2-1.24v4.43Zm2.86-11.76c-1.62,0-2.13,1.55-2.13,3.93,0,2.2.27,3.91,2,3.91,1.35,0,2.07-1.66,2.07-4S323,155.93,321.57,155.93Z"/><path class="b" d="M326.21,158.42c0-1.41,0-2.43,0-3.08H327c0,.27,0,.72,0,1.67a2.57,2.57,0,0,1,2.39-1.8v.85c-1.58.09-2.39,1.42-2.39,3v5.24h-.78Z"/><path class="b" d="M335.92,159.72c0,3.09-1,4.78-2.9,4.78s-2.92-1.63-2.92-4.77,1.13-4.53,2.95-4.53S335.92,156.69,335.92,159.72Zm-5,0c0,2.79.79,4,2.09,4s2.09-1.27,2.09-4.06c0-2.51-.74-3.8-2.09-3.8S330.93,157,330.93,159.75Z"/><path class="b" d="M338.69,155.34v9.83c0,1.53-.2,2.67-1.68,2.67a3.32,3.32,0,0,1-.41,0v-.72a2.89,2.89,0,0,0,.39,0c.78,0,.92-.51.92-1.68V155.34Zm-.74-2.09V151.5h.77v1.75Z"/><path class="b" d="M341.4,159.88c0,2.18.4,3.9,2,3.9s1.87-1.63,1.93-1.89h.79a2.77,2.77,0,0,1-2.72,2.61c-2.48,0-2.83-2.41-2.83-4.62,0-2.85.9-4.68,2.92-4.68,2.2,0,2.7,1.94,2.7,4.12,0,.07,0,.3,0,.56Zm4-.71c0-2-.49-3.25-1.93-3.25-2,0-2.05,2.66-2.07,3.25Z"/><path class="b" d="M353.21,161.79a2.71,2.71,0,0,1-2.66,2.71c-2.2,0-2.83-2.08-2.83-4.66s.85-4.64,2.95-4.64a2.52,2.52,0,0,1,2.54,2.66h-.83c0-.38-.17-1.94-1.71-1.94s-2.12,1.67-2.12,3.9c0,2.43.61,4,2,4s1.75-1.54,1.82-2Z"/><path class="b" d="M354.09,155.34h1.33v-2.5h.78v2.5h1.67v.72H356.2v6.55c0,.69.16,1.14.84,1.14a4.07,4.07,0,0,0,.73-.06v.65a3.15,3.15,0,0,1-.92.13c-.81,0-1.43-.36-1.43-1.66v-6.75h-1.33Z"/><circle class="c" cx="21.21" cy="87.64" r="7.32"/><circle class="d" cx="21.21" cy="110.35" r="7.32"/><circle class="e" cx="21.21" cy="133.92" r="7.32"/><circle class="f" cx="21.21" cy="157.5" r="7.32"/><path class="b" d="M41.18,188.81V176.58h1.66c3.39,8.46,3.85,9.62,4,10.14h0c-.09-1.64-.1-3.48-.1-5.48v-4.66H48v12.23H46.44c-3.51-8.9-3.94-10-4.09-10.5h0c.09,1.53.1,3.53.1,5.73v4.77Z"/><path class="b" d="M51.19,184.49c0,1.78.31,3.34,1.75,3.34a1.66,1.66,0,0,0,1.65-1.63h1.3a2.89,2.89,0,0,1-3,2.77c-2.68,0-3.06-2.45-3.06-4.74,0-2.88,1-4.7,3.13-4.7,2.42,0,3,2,3,4.25,0,.18,0,.49,0,.71Zm3.46-1c0-1.59-.34-2.81-1.66-2.81-1.67,0-1.76,2.18-1.78,2.81Z"/><path class="b" d="M58.23,179.68c.88,4.32,1.31,6.41,1.48,7.65h0c.18-1.19.56-2.61,1.7-7.65h1.26c1.06,4.79,1.47,6.62,1.6,7.61h0c.14-1,.48-2.62,1.53-7.61h1.35L65,188.81H63.54c-.65-3-1.33-6-1.55-7.37h0c-.17,1.35-.83,4-1.63,7.37H58.91l-2.08-9.13Z"/><path class="b" d="M72.65,185.6c.11,1.24.7,2.25,2,2.25s1.93-.7,1.93-2.1-.52-2-2.2-2.78c-1.91-.91-2.75-1.76-2.75-3.53a2.86,2.86,0,0,1,3.07-3c2.36,0,3,1.69,3,3.11H76.47c-.08-.57-.26-2-1.77-2A1.59,1.59,0,0,0,73,179.32c0,1.17.52,1.73,2,2.45,2.14,1,2.92,2,2.92,3.87A3.05,3.05,0,0,1,74.67,189c-2.45,0-3.26-1.6-3.35-3.37Z"/><path class="b" d="M85.3,186A2.85,2.85,0,0,1,82.39,189c-2.38,0-3-2.11-3-4.75s.83-4.7,3.15-4.7a2.71,2.71,0,0,1,2.79,2.88H84c0-.36-.14-1.75-1.44-1.75s-1.8,1.44-1.8,3.55c0,2.27.51,3.63,1.73,3.63S83.92,186.5,84,186Z"/><path class="b" d="M88.2,176v4.8a2.16,2.16,0,0,1,2.18-1.27c1.33,0,2.3.84,2.3,2.79v6.5H91.35v-6.23c0-1.12-.32-1.89-1.44-1.89s-1.71,1-1.71,2.63v5.49H86.87V176Z"/><path class="b" d="M100.64,184.14c0,3.21-1.08,4.83-3.13,4.83s-3.16-1.57-3.16-4.81,1.25-4.63,3.21-4.63S100.64,181.07,100.64,184.14Zm-4.93,0c0,2.47.61,3.65,1.8,3.65s1.78-1.2,1.78-3.67-.58-3.49-1.78-3.49S95.71,181.7,95.71,184.18Z"/><path class="b" d="M108.23,184.14c0,3.21-1.08,4.83-3.13,4.83S102,187.4,102,184.16s1.24-4.63,3.21-4.63S108.23,181.07,108.23,184.14Zm-4.93,0c0,2.47.61,3.65,1.8,3.65s1.78-1.2,1.78-3.67-.57-3.49-1.78-3.49S103.3,181.7,103.3,184.18Z"/><path class="b" d="M109.94,188.81V176h1.32v12.82Z"/><path class="b" d="M114.06,186.18c.06,1,.56,1.71,1.61,1.71a1.33,1.33,0,0,0,1.47-1.44c0-.94-.47-1.37-1.67-1.84-1.89-.72-2.43-1.4-2.43-2.68a2.33,2.33,0,0,1,2.61-2.41,2.4,2.4,0,0,1,2.63,2.61H117c0-.45-.13-1.53-1.39-1.53a1.16,1.16,0,0,0-1.26,1.26c0,.74.33,1.08,1.59,1.58,1.76.67,2.54,1.32,2.54,2.88s-1,2.65-2.87,2.65a2.61,2.61,0,0,1-2.86-2.79Z"/><path class="b" d="M47.92,206.15c0,4.18-1,6.41-3.64,6.41s-3.56-2.16-3.56-6.37S41.94,200,44.35,200,47.92,202,47.92,206.15Zm-5.82,0c0,3.49.7,5.24,2.23,5.24s2.2-1.71,2.2-5.22-.7-5-2.21-5S42.1,202.82,42.1,206.15Z"/><path class="b" d="M49,203.25h1.29v-2.43h1.3v2.43h1.6v1.13h-1.6v6c0,.63.14,1,.83,1a3.27,3.27,0,0,0,.65-.06v1a3.69,3.69,0,0,1-1.08.14c-1.07,0-1.7-.43-1.7-1.87v-6.25H49Z"/><path class="b" d="M55.76,199.56v4.81a2.16,2.16,0,0,1,2.18-1.28c1.33,0,2.31.84,2.31,2.79v6.5H58.92v-6.23c0-1.12-.33-1.89-1.45-1.89s-1.71,1-1.71,2.63v5.49H54.43V199.56Z"/><path class="b" d="M63.25,208.06c0,1.78.31,3.35,1.75,3.35a1.66,1.66,0,0,0,1.65-1.64H68a2.89,2.89,0,0,1-3,2.77c-2.68,0-3.06-2.45-3.06-4.73,0-2.89,1-4.7,3.13-4.7,2.41,0,3,2,3,4.25,0,.18,0,.48,0,.7Zm3.46-1c0-1.58-.34-2.81-1.66-2.81-1.67,0-1.76,2.18-1.78,2.81Z"/><path class="b" d="M69.7,206.37c0-1.46,0-2.47,0-3.12h1.26c0,.23,0,.67,0,1.62a2.47,2.47,0,0,1,2.41-1.76v1.45c-1.56.06-2.39,1.05-2.39,2.72v5.1H69.7Z"/><path class="b" d="M79.58,200.15v12.23H78.23V200.15Z"/><path class="b" d="M81.72,206.08c0-1.88,0-2.42,0-2.83H83c0,.22,0,.58,0,1.19a2.15,2.15,0,0,1,2.16-1.35c1.32,0,2.35.75,2.35,2.79v6.5H86.2v-6.25c0-1.12-.36-1.87-1.4-1.87-1.23,0-1.75.81-1.75,2.68v5.44H81.72Z"/><path class="b" d="M88.56,203.25h1.29v-2.43h1.3v2.43h1.6v1.13h-1.6v6c0,.63.14,1,.83,1a3.13,3.13,0,0,0,.65-.06v1a3.69,3.69,0,0,1-1.08.14c-1.06,0-1.7-.43-1.7-1.87v-6.25H88.56Z"/><path class="b" d="M94.79,208.06c0,1.78.3,3.35,1.74,3.35a1.68,1.68,0,0,0,1.66-1.64h1.3a2.89,2.89,0,0,1-3,2.77c-2.69,0-3.07-2.45-3.07-4.73,0-2.89,1-4.7,3.14-4.7,2.41,0,3,2,3,4.25,0,.18,0,.48,0,.7Zm3.45-1c0-1.58-.34-2.81-1.65-2.81-1.68,0-1.77,2.18-1.79,2.81Z"/><path class="b" d="M101.23,206.37c0-1.46,0-2.47,0-3.12h1.26c0,.23.06.67.06,1.62a2.47,2.47,0,0,1,2.41-1.76v1.45c-1.57.06-2.4,1.05-2.4,2.72v5.1h-1.31Z"/><path class="b" d="M107.19,203.25c.75,2.95,1.65,6.52,1.84,7.65h0c.13-1,1.5-5.79,1.95-7.65h1.31l-2.61,9.13h-1.42l-2.49-9.13Z"/><path class="b" d="M114.37,208.06c0,1.78.31,3.35,1.75,3.35a1.66,1.66,0,0,0,1.65-1.64h1.3a2.89,2.89,0,0,1-3,2.77c-2.68,0-3.06-2.45-3.06-4.73,0-2.89,1-4.7,3.13-4.7,2.41,0,3,2,3,4.25,0,.18,0,.48,0,.7Zm3.46-1c0-1.58-.34-2.81-1.66-2.81-1.67,0-1.76,2.18-1.78,2.81Z"/><path class="b" d="M120.81,206.08c0-1.88,0-2.42,0-2.83h1.28c0,.22,0,.58,0,1.19a2.15,2.15,0,0,1,2.16-1.35c1.31,0,2.34.75,2.34,2.79v6.5H125.3v-6.25c0-1.12-.36-1.87-1.41-1.87-1.22,0-1.74.81-1.74,2.68v5.44h-1.34Z"/><path class="b" d="M127.65,203.25H129v-2.43h1.3v2.43h1.6v1.13h-1.6v6c0,.63.14,1,.83,1a3.1,3.1,0,0,0,.64-.06v1a3.6,3.6,0,0,1-1.08.14c-1.06,0-1.69-.43-1.69-1.87v-6.25h-1.3Z"/><path class="b" d="M133.14,201.45v-1.89h1.34v1.89Zm0,1.8h1.32v9.13h-1.32Z"/><path class="b" d="M142.47,207.72c0,3.2-1.08,4.82-3.13,4.82s-3.15-1.57-3.15-4.81,1.24-4.62,3.2-4.62S142.47,204.64,142.47,207.72Zm-4.93,0c0,2.47.61,3.66,1.8,3.66s1.78-1.21,1.78-3.68-.58-3.49-1.78-3.49S137.54,205.27,137.54,207.75Z"/><path class="b" d="M144.18,206.08c0-1.88,0-2.42,0-2.83h1.28c0,.22.05.58.05,1.19a2.15,2.15,0,0,1,2.16-1.35c1.32,0,2.34.75,2.34,2.79v6.5h-1.33v-6.25c0-1.12-.36-1.87-1.4-1.87-1.23,0-1.75.81-1.75,2.68v5.44h-1.33Z"/><path class="b" d="M152.8,209.75a1.58,1.58,0,0,0,1.6,1.71,1.33,1.33,0,0,0,1.48-1.44c0-.94-.47-1.37-1.68-1.84-1.89-.72-2.43-1.4-2.43-2.68a2.34,2.34,0,0,1,2.61-2.41A2.4,2.4,0,0,1,157,205.7h-1.28c0-.45-.12-1.53-1.38-1.53a1.15,1.15,0,0,0-1.26,1.26c0,.74.32,1.08,1.58,1.58,1.77.67,2.54,1.32,2.54,2.88s-1,2.65-2.86,2.65a2.6,2.6,0,0,1-2.86-2.79Z"/><path class="b" d="M173.79,185.53c0,.76-.41,3.44-3.09,3.44-3.14,0-3.28-3.69-3.28-6.43,0-3.31.79-6.16,3.44-6.16s2.86,2.76,2.88,3.37h-.83c0-.41-.13-2.59-2.07-2.59-2.29,0-2.56,3.24-2.56,5.36,0,2.78.31,5.68,2.45,5.68,1.84,0,2.18-2,2.23-2.67Z"/><path class="b" d="M181.08,184.18c0,3.1-1,4.79-2.9,4.79s-2.91-1.64-2.91-4.77,1.13-4.54,2.95-4.54S181.08,181.16,181.08,184.18Zm-5,0c0,2.79.79,4,2.08,4s2.09-1.28,2.09-4.07c0-2.5-.74-3.8-2.09-3.8S176.1,181.44,176.1,184.22Z"/><path class="b" d="M183,182.58c0-1.84,0-2.4,0-2.78h.75c0,.22,0,.56,0,1.34a2.2,2.2,0,0,1,2.23-1.48c1.21,0,2.32.61,2.32,2.74v6.41h-.79v-6.3c0-1.23-.49-2.11-1.64-2.11-1.49,0-2.1,1-2.1,3.19v5.22H183Z"/><path class="b" d="M190.71,186.3a1.82,1.82,0,0,0,1.87,1.95,1.62,1.62,0,0,0,1.75-1.73c0-1.13-.61-1.6-1.87-2.11-1.68-.68-2.23-1.29-2.23-2.52a2.12,2.12,0,0,1,2.35-2.23,2.18,2.18,0,0,1,2.36,2.4h-.79a1.55,1.55,0,0,0-1.6-1.68,1.36,1.36,0,0,0-1.51,1.5c0,.82.3,1.22,1.67,1.76,1.64.65,2.43,1.24,2.43,2.83a2.35,2.35,0,0,1-2.61,2.5,2.46,2.46,0,0,1-2.63-2.67Z"/><path class="b" d="M195.84,179.8h1.33v-2.5H198v2.5h1.67v.73H198v6.55c0,.68.16,1.13.84,1.13a3.94,3.94,0,0,0,.72-.05v.65a3,3,0,0,1-.91.12c-.82,0-1.43-.36-1.43-1.65v-6.75h-1.33Z"/><path class="b" d="M200.93,182.88c0-1.4,0-2.43,0-3.08h.75c0,.28,0,.73,0,1.68a2.56,2.56,0,0,1,2.39-1.8v.85c-1.58.09-2.39,1.42-2.39,3v5.24h-.78Z"/><path class="b" d="M210.64,186.45c0,1,0,1.94,0,2.36h-.74a8.87,8.87,0,0,1-.06-1.35,2.17,2.17,0,0,1-2.23,1.51c-.9,0-2.25-.29-2.25-2.68V179.8h.79v6.27c0,1.33.42,2.18,1.64,2.18s2-.74,2-3V179.8h.79Z"/><path class="b" d="M218,186.25a2.71,2.71,0,0,1-2.66,2.72c-2.2,0-2.83-2.09-2.83-4.66s.85-4.65,2.95-4.65a2.53,2.53,0,0,1,2.54,2.67h-.83c0-.38-.18-2-1.71-2s-2.12,1.68-2.12,3.91c0,2.43.61,4,2,4s1.75-1.55,1.82-2Z"/><path class="b" d="M218.86,179.8h1.33v-2.5H221v2.5h1.67v.73H221v6.55c0,.68.16,1.13.84,1.13a3.94,3.94,0,0,0,.72-.05v.65a3,3,0,0,1-.91.12c-.81,0-1.43-.36-1.43-1.65v-6.75h-1.33Z"/><path class="b" d="M224,177.72V176h.79v1.75Zm0,2.08h.77v9H224Z"/><path class="b" d="M232.49,184.18c0,3.1-1,4.79-2.9,4.79s-2.92-1.64-2.92-4.77,1.14-4.54,3-4.54S232.49,181.16,232.49,184.18Zm-5,0c0,2.79.79,4,2.09,4s2.09-1.28,2.09-4.07c0-2.5-.74-3.8-2.09-3.8S227.5,181.44,227.5,184.22Z"/><path class="b" d="M234.36,182.58c0-1.84,0-2.4,0-2.78h.76c0,.22,0,.56,0,1.34a2.22,2.22,0,0,1,2.24-1.48c1.2,0,2.32.61,2.32,2.74v6.41h-.79v-6.3c0-1.23-.49-2.11-1.64-2.11-1.5,0-2.11,1-2.11,3.19v5.22h-.79Z"/><path class="b" d="M250.88,184.18c0,3.1-1,4.79-2.89,4.79s-2.92-1.64-2.92-4.77,1.13-4.54,3-4.54S250.88,181.16,250.88,184.18Zm-5,0c0,2.79.79,4,2.09,4s2.08-1.28,2.08-4.07c0-2.5-.73-3.8-2.08-3.8S245.9,181.44,245.9,184.22Z"/><path class="b" d="M252.94,188.81v-8.28h-1.27v-.73h1.27v-1.49c0-1.21.34-2.43,1.89-2.43a2.6,2.6,0,0,1,.64.09v.76a2.69,2.69,0,0,0-.66-.09c-.79,0-1.08.52-1.08,1.63v1.53h1.49v.73h-1.49v8.28Z"/><path class="b" d="M259.74,182.58c0-1.84,0-2.4,0-2.78h.76c0,.22,0,.56,0,1.34a2.21,2.21,0,0,1,2.23-1.48c1.21,0,2.33.61,2.33,2.74v6.41h-.79v-6.3c0-1.23-.49-2.11-1.64-2.11-1.5,0-2.11,1-2.11,3.19v5.22h-.79Z"/><path class="b" d="M267.75,184.34c0,2.18.39,3.91,2,3.91s1.87-1.64,1.92-1.89h.79a2.76,2.76,0,0,1-2.71,2.61c-2.49,0-2.83-2.41-2.83-4.63,0-2.84.9-4.68,2.92-4.68,2.19,0,2.7,2,2.7,4.12,0,.08,0,.31,0,.56Zm4-.7c0-2-.48-3.26-1.92-3.26-2,0-2,2.67-2.07,3.26Z"/><path class="b" d="M274.41,179.8c1,4.47,1.55,6.79,1.73,8.07h0c.2-1.15.56-2.61,1.88-8.07h.84c1.3,5.6,1.64,7.08,1.79,8h0c.15-1,.6-2.85,1.79-8h.84l-2.21,9h-.92c-.72-3.08-1.53-6.54-1.75-8h0c-.18,1.39-.91,4.31-1.81,8h-.94l-2.09-9Z"/><path class="b" d="M288.36,186.3a1.82,1.82,0,0,0,1.87,1.95,1.62,1.62,0,0,0,1.75-1.73c0-1.13-.61-1.6-1.88-2.11-1.67-.68-2.23-1.29-2.23-2.52a2.13,2.13,0,0,1,2.36-2.23,2.18,2.18,0,0,1,2.36,2.4h-.79a1.55,1.55,0,0,0-1.61-1.68,1.36,1.36,0,0,0-1.51,1.5c0,.82.31,1.22,1.68,1.76,1.63.65,2.43,1.24,2.43,2.83a2.35,2.35,0,0,1-2.61,2.5,2.46,2.46,0,0,1-2.63-2.67Z"/><path class="b" d="M299.57,186.25a2.71,2.71,0,0,1-2.66,2.72c-2.2,0-2.83-2.09-2.83-4.66s.85-4.65,3-4.65a2.52,2.52,0,0,1,2.53,2.67h-.83c0-.38-.18-2-1.7-2s-2.13,1.68-2.13,3.91c0,2.43.61,4,2,4s1.74-1.55,1.81-2Z"/><path class="b" d="M302.11,176v5.08a2.21,2.21,0,0,1,2.25-1.39c1.23,0,2.29.72,2.29,2.72v6.43h-.79v-6.27c0-1.24-.44-2.14-1.7-2.14-1.44,0-2.05,1.22-2.05,3.06v5.35h-.79V176Z"/><path class="b" d="M314.3,184.18c0,3.1-1,4.79-2.9,4.79s-2.92-1.64-2.92-4.77,1.14-4.54,3-4.54S314.3,181.16,314.3,184.18Zm-5,0c0,2.79.79,4,2.09,4s2.09-1.28,2.09-4.07c0-2.5-.74-3.8-2.09-3.8S309.31,181.44,309.31,184.22Z"/><path class="b" d="M321.52,184.18c0,3.1-1,4.79-2.9,4.79s-2.92-1.64-2.92-4.77,1.13-4.54,2.95-4.54S321.52,181.16,321.52,184.18Zm-5,0c0,2.79.79,4,2.09,4s2.09-1.28,2.09-4.07c0-2.5-.74-3.8-2.09-3.8S316.53,181.44,316.53,184.22Z"/><path class="b" d="M323.38,188.81V176h.78v12.84Z"/><path class="b" d="M330,182.88c0-1.4,0-2.43,0-3.08h.76c0,.28,0,.73,0,1.68a2.58,2.58,0,0,1,2.4-1.8v.85c-1.59.09-2.4,1.42-2.4,3v5.24H330Z"/><path class="b" d="M334.71,184.34c0,2.18.39,3.91,2,3.91a2,2,0,0,0,1.93-1.89h.79a2.76,2.76,0,0,1-2.72,2.61c-2.48,0-2.82-2.41-2.82-4.63,0-2.84.9-4.68,2.91-4.68,2.2,0,2.71,2,2.71,4.12,0,.08,0,.31,0,.56Zm4-.7c0-2-.48-3.26-1.93-3.26-2,0-2.05,2.67-2.07,3.26Z"/><path class="b" d="M341.33,188.81V176h.78v12.84Z"/><path class="b" d="M349.14,187.46a12.29,12.29,0,0,0,.08,1.35h-.72a6,6,0,0,1-.09-1.15,2.14,2.14,0,0,1-2.2,1.31,2.28,2.28,0,0,1-2.32-2.56c0-1.53,1-2.84,3.42-2.84.5,0,.77,0,1.08,0v-1.33c0-.83-.18-1.89-1.62-1.89-1.62,0-1.7,1.19-1.75,1.8h-.77a2.34,2.34,0,0,1,2.55-2.52c1.62,0,2.34.83,2.34,2.45Zm-.73-3.14a9.31,9.31,0,0,0-1.05,0c-1.87,0-2.68.9-2.68,2.09a1.68,1.68,0,0,0,1.66,1.87c1.47,0,2.07-1,2.07-3.3Z"/><path class="b" d="M350.29,179.8h1.34v-2.5h.77v2.5h1.68v.73H352.4v6.55c0,.68.16,1.13.85,1.13a4.07,4.07,0,0,0,.72-.05v.65a3.1,3.1,0,0,1-.92.12c-.81,0-1.42-.36-1.42-1.65v-6.75h-1.34Z"/><path class="b" d="M355.61,184.34c0,2.18.39,3.91,2,3.91s1.87-1.64,1.93-1.89h.79a2.77,2.77,0,0,1-2.72,2.61c-2.48,0-2.83-2.41-2.83-4.63,0-2.84.91-4.68,2.92-4.68,2.2,0,2.7,2,2.7,4.12,0,.08,0,.31,0,.56Zm4-.7c0-2-.49-3.26-1.93-3.26-2,0-2.05,2.67-2.07,3.26Z"/><path class="b" d="M367.58,176v10.64c0,.76,0,1.66,0,2.2h-.75c0-.24,0-.92,0-1.39a2.07,2.07,0,0,1-2.19,1.55c-1.86,0-2.69-1.51-2.69-4.77,0-3,1.15-4.54,2.92-4.54a1.84,1.84,0,0,1,2,1.08V176Zm-2.85,12.24c1.6,0,2.07-1.44,2.07-4.05,0-3-.5-3.76-2-3.76-1.22,0-2.09,1.13-2.09,3.8C362.75,187.13,363.47,188.21,364.73,188.21Z"/><path class="b" d="M373.42,192.16v-9.71c0-1.24,0-2.09,0-2.65h.75c0,.15,0,.83,0,1.36a2.18,2.18,0,0,1,2.23-1.5c1.73,0,2.63,1.55,2.63,4.54S378,189,376.18,189a2,2,0,0,1-2-1.24v4.43Zm2.87-11.76c-1.62,0-2.13,1.55-2.13,3.92,0,2.2.27,3.91,2,3.91,1.35,0,2.07-1.65,2.07-4S377.67,180.4,376.29,180.4Z"/><path class="b" d="M380.93,182.88c0-1.4,0-2.43,0-3.08h.76c0,.28,0,.73,0,1.68a2.58,2.58,0,0,1,2.4-1.8v.85c-1.59.09-2.4,1.42-2.4,3v5.24h-.77Z"/><path class="b" d="M390.63,184.18c0,3.1-1,4.79-2.9,4.79s-2.91-1.64-2.91-4.77,1.13-4.54,2.95-4.54S390.63,181.16,390.63,184.18Zm-5,0c0,2.79.79,4,2.08,4s2.09-1.28,2.09-4.07c0-2.5-.73-3.8-2.09-3.8S385.65,181.44,385.65,184.22Z"/><path class="b" d="M393.4,179.8v9.84c0,1.53-.19,2.66-1.67,2.66a3.66,3.66,0,0,1-.42,0v-.72a3.11,3.11,0,0,0,.4,0c.78,0,.92-.5.92-1.67V179.8Zm-.73-2.08V176h.77v1.75Z"/><path class="b" d="M396.12,184.34c0,2.18.4,3.91,2,3.91s1.87-1.64,1.92-1.89h.8a2.77,2.77,0,0,1-2.72,2.61c-2.49,0-2.83-2.41-2.83-4.63,0-2.84.9-4.68,2.92-4.68,2.19,0,2.7,2,2.7,4.12,0,.08,0,.31,0,.56Zm4-.7c0-2-.49-3.26-1.93-3.26-2,0-2,2.67-2.07,3.26Z"/><path class="b" d="M407.93,186.25c0,.33-.25,2.72-2.66,2.72-2.2,0-2.83-2.09-2.83-4.66s.85-4.65,2.95-4.65a2.53,2.53,0,0,1,2.54,2.67h-.83c0-.38-.18-2-1.71-2s-2.12,1.68-2.12,3.91c0,2.43.61,4,2,4s1.75-1.55,1.82-2Z"/><path class="b" d="M408.81,179.8h1.33v-2.5h.78v2.5h1.67v.73h-1.67v6.55c0,.68.16,1.13.84,1.13a3.94,3.94,0,0,0,.72-.05v.65a3.06,3.06,0,0,1-.92.12c-.81,0-1.42-.36-1.42-1.65v-6.75h-1.33Z"/><path class="b" d="M174.15,205.66c0,4-.84,6.41-3.38,6.41s-3.35-2.31-3.35-6.36,1-6.23,3.38-6.23S174.15,201.57,174.15,205.66Zm-5.88,0c0,3.87.86,5.66,2.53,5.66s2.52-1.79,2.52-5.62c0-4-.9-5.49-2.53-5.49S168.27,202,168.27,205.67Z"/><path class="b" d="M175.3,202.9h1.34v-2.5h.77v2.5h1.67v.72h-1.67v6.55c0,.69.16,1.14.85,1.14a4,4,0,0,0,.72-.06v.65a3.1,3.1,0,0,1-.92.13c-.81,0-1.42-.36-1.42-1.66v-6.75H175.3Z"/><path class="b" d="M181.21,199.07v5.07a2.21,2.21,0,0,1,2.25-1.38c1.22,0,2.28.72,2.28,2.72v6.42H185v-6.26c0-1.24-.43-2.15-1.69-2.15-1.44,0-2,1.23-2,3.07v5.34h-.8V199.07Z"/><path class="b" d="M188.39,207.44c0,2.18.39,3.9,2,3.9a2,2,0,0,0,1.92-1.89h.79a2.76,2.76,0,0,1-2.71,2.62c-2.49,0-2.83-2.42-2.83-4.63,0-2.85.9-4.68,2.92-4.68,2.19,0,2.7,1.94,2.7,4.12,0,.07,0,.31,0,.56Zm4-.7c0-2-.48-3.26-1.92-3.26-2,0-2,2.66-2.07,3.26Z"/><path class="b" d="M195,206c0-1.4,0-2.43,0-3.08h.76c0,.27,0,.72,0,1.68a2.57,2.57,0,0,1,2.39-1.81v.85c-1.58.09-2.39,1.42-2.39,3v5.24H195Z"/><path class="b" d="M203,200.81v-1.74h.79v1.74Zm0,2.09h.77v9H203Z"/><path class="b" d="M206.15,205.6c0-1.49,0-2.25,0-2.7h.75a12.07,12.07,0,0,1,0,1.3,2,2,0,0,1,2-1.44,1.73,1.73,0,0,1,1.89,1.4,2.23,2.23,0,0,1,2.18-1.4c1,0,2.11.46,2.11,2.55v6.59h-.79v-6.42c0-1-.29-2-1.48-2-1.35,0-1.82,1.26-1.82,2.54v5.87h-.79v-6.39c0-1.3-.43-2-1.44-2-1.24,0-1.89,1.25-1.89,2.72v5.69h-.78Z"/><path class="b" d="M217.48,215.25v-9.7c0-1.25,0-2.09,0-2.65h.75c0,.14,0,.83,0,1.35a2.19,2.19,0,0,1,2.23-1.49c1.73,0,2.63,1.54,2.63,4.53s-1.1,4.78-2.88,4.78a2,2,0,0,1-2-1.25v4.43Zm2.86-11.76c-1.62,0-2.13,1.55-2.13,3.93,0,2.2.27,3.91,2,3.91,1.35,0,2.07-1.66,2.07-4S221.73,203.49,220.34,203.49Z"/><path class="b" d="M225,206c0-1.4,0-2.43,0-3.08h.76c0,.27,0,.72,0,1.68a2.57,2.57,0,0,1,2.39-1.81v.85c-1.58.09-2.39,1.42-2.39,3v5.24H225Z"/><path class="b" d="M234.69,207.28c0,3.09-1,4.79-2.9,4.79s-2.92-1.64-2.92-4.78,1.13-4.53,2.95-4.53S234.69,204.25,234.69,207.28Zm-5,0c0,2.79.79,4,2.09,4s2.09-1.27,2.09-4.06c0-2.51-.74-3.8-2.09-3.8S229.7,204.54,229.7,207.31Z"/><path class="b" d="M236.54,202.9c.84,3.15,1.94,7.15,2.1,8h0c.09-.73,1.84-6.66,2.2-8h.81l-2.61,9h-.87l-2.48-9Z"/><path class="b" d="M243.34,207.44c0,2.18.4,3.9,2,3.9s1.87-1.63,1.93-1.89h.79a2.78,2.78,0,0,1-2.72,2.62c-2.49,0-2.83-2.42-2.83-4.63,0-2.85.9-4.68,2.92-4.68,2.19,0,2.7,1.94,2.7,4.12,0,.07,0,.31,0,.56Zm4-.7c0-2-.49-3.26-1.93-3.26-2,0-2.05,2.66-2.07,3.26Z"/><path class="b" d="M250,205.6c0-1.49,0-2.25,0-2.7h.75a12.07,12.07,0,0,1,0,1.3,2,2,0,0,1,2-1.44,1.73,1.73,0,0,1,1.89,1.4,2.23,2.23,0,0,1,2.18-1.4c1,0,2.11.46,2.11,2.55v6.59h-.79v-6.42c0-1-.29-2-1.48-2-1.35,0-1.82,1.26-1.82,2.54v5.87h-.79v-6.39c0-1.3-.43-2-1.44-2-1.24,0-1.89,1.25-1.89,2.72v5.69H250Z"/><path class="b" d="M261.63,207.44c0,2.18.4,3.9,2,3.9a2,2,0,0,0,1.92-1.89h.8a2.78,2.78,0,0,1-2.72,2.62c-2.49,0-2.83-2.42-2.83-4.63,0-2.85.9-4.68,2.92-4.68,2.19,0,2.7,1.94,2.7,4.12,0,.07,0,.31,0,.56Zm4-.7c0-2-.48-3.26-1.92-3.26-2,0-2.05,2.66-2.07,3.26Z"/><path class="b" d="M268.25,205.67c0-1.83,0-2.39,0-2.77H269c0,.22,0,.56,0,1.33a2.2,2.2,0,0,1,2.23-1.47c1.21,0,2.32.61,2.32,2.73v6.41h-.79v-6.3c0-1.22-.49-2.11-1.64-2.11-1.49,0-2.11,1-2.11,3.19v5.22h-.79Z"/><path class="b" d="M274.71,202.9h1.34v-2.5h.77v2.5h1.68v.72h-1.68v6.55c0,.69.16,1.14.85,1.14a4,4,0,0,0,.72-.06v.65a3.1,3.1,0,0,1-.92.13c-.81,0-1.42-.36-1.42-1.66v-6.75h-1.34Z"/><path class="b" d="M280.15,209.4a1.81,1.81,0,0,0,1.87,1.94,1.61,1.61,0,0,0,1.75-1.72c0-1.14-.61-1.61-1.87-2.11-1.68-.68-2.24-1.3-2.24-2.52a2.13,2.13,0,0,1,2.36-2.23,2.17,2.17,0,0,1,2.36,2.39h-.79a1.55,1.55,0,0,0-1.6-1.67,1.36,1.36,0,0,0-1.52,1.49c0,.83.31,1.23,1.68,1.77,1.64.64,2.43,1.24,2.43,2.82a2.35,2.35,0,0,1-2.61,2.51,2.46,2.46,0,0,1-2.63-2.67Z"/><path class="b" d="M289.85,206c0-1.4,0-2.43,0-3.08h.76c0,.27,0,.72,0,1.68a2.57,2.57,0,0,1,2.39-1.81v.85c-1.58.09-2.39,1.42-2.39,3v5.24h-.78Z"/><path class="b" d="M294.55,207.44c0,2.18.4,3.9,2,3.9a2,2,0,0,0,1.92-1.89h.8a2.78,2.78,0,0,1-2.72,2.62c-2.49,0-2.83-2.42-2.83-4.63,0-2.85.9-4.68,2.92-4.68,2.19,0,2.7,1.94,2.7,4.12,0,.07,0,.31,0,.56Zm4-.7c0-2-.49-3.26-1.93-3.26-2,0-2.05,2.66-2.07,3.26Z"/><path class="b" d="M301.17,211.9V199.07H302V211.9Z"/><path class="b" d="M309,210.55a13.21,13.21,0,0,0,.07,1.35h-.72a6.77,6.77,0,0,1-.09-1.15,2.11,2.11,0,0,1-2.2,1.32,2.28,2.28,0,0,1-2.32-2.56c0-1.53,1-2.85,3.42-2.85a8.07,8.07,0,0,1,1.08,0v-1.33c0-.83-.18-1.89-1.62-1.89-1.62,0-1.69,1.18-1.75,1.8h-.77a2.35,2.35,0,0,1,2.56-2.52c1.62,0,2.34.82,2.34,2.44Zm-.74-3.13a6.77,6.77,0,0,0-1,0c-1.88,0-2.69.9-2.69,2.09a1.68,1.68,0,0,0,1.66,1.87c1.47,0,2.07-1,2.07-3.29Z"/><path class="b" d="M310.14,202.9h1.33v-2.5h.77v2.5h1.68v.72h-1.68v6.55c0,.69.17,1.14.85,1.14a3.88,3.88,0,0,0,.72-.06v.65a3.05,3.05,0,0,1-.92.13c-.81,0-1.42-.36-1.42-1.66v-6.75h-1.33Z"/><path class="b" d="M315.45,207.44c0,2.18.39,3.9,2,3.9a2,2,0,0,0,1.93-1.89h.79a2.76,2.76,0,0,1-2.72,2.62c-2.48,0-2.82-2.42-2.82-4.63,0-2.85.9-4.68,2.91-4.68,2.2,0,2.71,1.94,2.71,4.12,0,.07,0,.31,0,.56Zm4-.7c0-2-.48-3.26-1.92-3.26-2,0-2.06,2.66-2.07,3.26Z"/><path class="b" d="M327.42,199.07v10.64c0,.75,0,1.65,0,2.19h-.76c0-.23,0-.91,0-1.38a2.06,2.06,0,0,1-2.19,1.55c-1.86,0-2.68-1.52-2.68-4.78,0-2.95,1.15-4.53,2.91-4.53,1.3,0,1.75.57,2,1.08v-4.77Zm-2.85,12.24c1.61,0,2.07-1.44,2.07-4.05,0-3-.5-3.77-2-3.77-1.22,0-2.09,1.14-2.09,3.8C322.59,210.23,323.31,211.31,324.57,211.31Z"/><path class="b" d="M333.27,215.25v-9.7c0-1.25,0-2.09,0-2.65H334c0,.14,0,.83,0,1.35a2.2,2.2,0,0,1,2.23-1.49c1.73,0,2.63,1.54,2.63,4.53s-1.1,4.78-2.88,4.78a2,2,0,0,1-2-1.25v4.43Zm2.86-11.76c-1.62,0-2.12,1.55-2.12,3.93,0,2.2.27,3.91,2,3.91,1.35,0,2.07-1.66,2.07-4S337.52,203.49,336.13,203.49Z"/><path class="b" d="M340.77,206c0-1.4,0-2.43,0-3.08h.75c0,.27,0,.72,0,1.68a2.57,2.57,0,0,1,2.39-1.81v.85c-1.58.09-2.39,1.42-2.39,3v5.24h-.78Z"/><path class="b" d="M350.48,207.28c0,3.09-1,4.79-2.9,4.79s-2.92-1.64-2.92-4.78,1.14-4.53,3-4.53S350.48,204.25,350.48,207.28Zm-5,0c0,2.79.79,4,2.09,4s2.09-1.27,2.09-4.06c0-2.51-.74-3.8-2.09-3.8S345.49,204.54,345.49,207.31Z"/><path class="b" d="M353.25,202.9v9.83c0,1.53-.2,2.67-1.68,2.67a3.32,3.32,0,0,1-.41,0v-.72a2.89,2.89,0,0,0,.39,0c.78,0,.92-.51.92-1.68V202.9Zm-.74-2.09v-1.74h.77v1.74Z"/><path class="b" d="M356,207.44c0,2.18.4,3.9,2,3.9s1.87-1.63,1.93-1.89h.79a2.78,2.78,0,0,1-2.72,2.62c-2.48,0-2.83-2.42-2.83-4.63,0-2.85.9-4.68,2.92-4.68,2.2,0,2.7,1.94,2.7,4.12,0,.07,0,.31,0,.56Zm4-.7c0-2-.49-3.26-1.93-3.26-2,0-2.05,2.66-2.07,3.26Z"/><path class="b" d="M367.77,209.35a2.72,2.72,0,0,1-2.66,2.72c-2.2,0-2.83-2.09-2.83-4.67s.85-4.64,3-4.64a2.52,2.52,0,0,1,2.53,2.66H367c0-.38-.18-1.94-1.71-1.94s-2.13,1.67-2.13,3.9c0,2.43.61,4,2,4s1.74-1.54,1.81-2Z"/><path class="b" d="M368.65,202.9H370v-2.5h.77v2.5h1.68v.72h-1.68v6.55c0,.69.16,1.14.85,1.14a4,4,0,0,0,.72-.06v.65a3.1,3.1,0,0,1-.92.13c-.81,0-1.42-.36-1.42-1.66v-6.75h-1.34Z"/><circle class="g" cx="21.21" cy="181.48" r="7.32"/><circle class="h" cx="21.21" cy="205.06" r="7.32"/><g class="i"><path class="b" d="M1.35,265.19c.09,1.41.81,2.49,2.3,2.49s2.22-.72,2.22-2.45c0-1.46-.54-2.22-2.29-3.06S.92,260.48.92,258.73a2.7,2.7,0,0,1,2.83-2.86c2.1,0,2.71,1.58,2.75,2.93H5.71a2.07,2.07,0,0,0-2-2.19,1.84,1.84,0,0,0-1.94,2c0,1.37.59,2,2.19,2.77,2.11,1,2.78,2.07,2.78,3.77,0,1.94-1,3.24-3.08,3.24-2.24,0-3-1.48-3.12-3.23Z"/><path class="b" d="M14,263.65c0,3.09-1,4.78-2.89,4.78s-2.92-1.63-2.92-4.77,1.13-4.53,2.95-4.53S14,260.62,14,263.65Zm-5,0c0,2.79.79,4,2.09,4s2.08-1.27,2.08-4.06c0-2.51-.73-3.8-2.08-3.8S9,260.91,9,263.68Z"/><path class="b" d="M21.15,265.91c0,1,0,1.95,0,2.36h-.74a11.22,11.22,0,0,1-.05-1.35,2.17,2.17,0,0,1-2.24,1.51c-.9,0-2.25-.28-2.25-2.68v-6.48h.8v6.27c0,1.33.41,2.17,1.64,2.17s2-.73,2-3v-5.42h.79Z"/><path class="b" d="M23.47,262.35c0-1.41,0-2.43,0-3.08h.76c0,.27,0,.72,0,1.67a2.57,2.57,0,0,1,2.39-1.8V260c-1.58.09-2.39,1.42-2.39,3v5.24h-.78Z"/><path class="b" d="M32.85,265.72a2.71,2.71,0,0,1-2.66,2.71c-2.2,0-2.83-2.08-2.83-4.66s.85-4.64,2.95-4.64a2.52,2.52,0,0,1,2.54,2.66H32c0-.38-.18-1.94-1.71-1.94s-2.12,1.67-2.12,3.9c0,2.43.61,4,2,4s1.75-1.54,1.82-2Z"/><path class="b" d="M35,263.81c0,2.18.4,3.9,2,3.9s1.87-1.63,1.93-1.89h.79A2.77,2.77,0,0,1,37,268.43c-2.49,0-2.83-2.41-2.83-4.62,0-2.85.9-4.68,2.92-4.68,2.19,0,2.7,1.94,2.7,4.12,0,.07,0,.31,0,.56Zm4-.7c0-2-.49-3.26-1.93-3.26-2,0-2,2.66-2.07,3.26Z"/><path class="b" d="M2.72,278.83H0v-1.18H6.79v1.18H4.07v11H2.72Z"/><path class="b" d="M9.11,277.05v4.81a2.15,2.15,0,0,1,2.18-1.28c1.33,0,2.3.85,2.3,2.79v6.5H12.26v-6.23c0-1.11-.32-1.89-1.44-1.89s-1.71,1.05-1.71,2.63v5.49H7.78V277.05Z"/><path class="b" d="M16.6,285.55c0,1.78.3,3.35,1.74,3.35A1.68,1.68,0,0,0,20,287.26h1.3a2.89,2.89,0,0,1-3,2.77c-2.69,0-3.07-2.44-3.07-4.73,0-2.88,1-4.7,3.14-4.7,2.41,0,3,2,3,4.25,0,.18,0,.48,0,.7Zm3.45-1c0-1.58-.34-2.8-1.65-2.8-1.68,0-1.77,2.17-1.79,2.8Z"/><path class="b" d="M27.2,286.67c.11,1.24.7,2.25,2.05,2.25s1.93-.7,1.93-2.11-.52-2-2.2-2.77c-1.91-.92-2.75-1.77-2.75-3.53a2.87,2.87,0,0,1,3.07-3c2.36,0,3,1.7,3,3.12H31c-.07-.58-.25-2-1.76-2a1.59,1.59,0,0,0-1.67,1.78c0,1.17.52,1.73,2.05,2.45,2.14,1,2.92,2.05,2.92,3.87A3.06,3.06,0,0,1,29.21,290c-2.44,0-3.25-1.6-3.34-3.36Z"/><path class="b" d="M39.85,287.08A2.85,2.85,0,0,1,36.94,290c-2.38,0-3-2.1-3-4.75s.83-4.7,3.15-4.7a2.72,2.72,0,0,1,2.79,2.88H38.5c0-.36-.14-1.74-1.44-1.74s-1.8,1.44-1.8,3.54c0,2.27.51,3.64,1.73,3.64s1.48-1.33,1.55-1.82Z"/><path class="b" d="M42.75,277.05v4.81a2.16,2.16,0,0,1,2.18-1.28c1.33,0,2.3.85,2.3,2.79v6.5H45.9v-6.23c0-1.11-.32-1.89-1.44-1.89s-1.71,1.05-1.71,2.63v5.49H41.42V277.05Z"/><path class="b" d="M55.19,285.21c0,3.2-1.08,4.82-3.13,4.82s-3.15-1.56-3.15-4.8,1.24-4.63,3.2-4.63S55.19,282.13,55.19,285.21Zm-4.93,0c0,2.47.61,3.66,1.8,3.66s1.78-1.21,1.78-3.67-.58-3.5-1.78-3.5S50.26,282.76,50.26,285.24Z"/><path class="b" d="M62.79,285.21c0,3.2-1.08,4.82-3.14,4.82s-3.15-1.56-3.15-4.8,1.25-4.63,3.21-4.63S62.79,282.13,62.79,285.21Zm-4.94,0c0,2.47.61,3.66,1.8,3.66s1.79-1.21,1.79-3.67-.58-3.5-1.79-3.5S57.85,282.76,57.85,285.24Z"/><path class="b" d="M64.49,289.87V277.05h1.32v12.82Z"/><path class="b" d="M77.91,286.49c-.06.7-.37,3.56-3.34,3.56-3.25,0-3.51-3.44-3.51-6.37,0-3.57,1-6.21,3.66-6.21,3,0,3.11,2.75,3.15,3.51H76.52c0-.42-.11-2.31-1.82-2.31-1.93,0-2.23,2.63-2.23,5,0,2.57.29,5.18,2.14,5.18,1.64,0,1.87-1.76,1.93-2.37Z"/><path class="b" d="M85.48,285.21c0,3.2-1.08,4.82-3.13,4.82s-3.15-1.56-3.15-4.8,1.24-4.63,3.2-4.63S85.48,282.13,85.48,285.21Zm-4.93,0c0,2.47.61,3.66,1.8,3.66s1.78-1.21,1.78-3.67-.57-3.5-1.78-3.5S80.55,282.76,80.55,285.24Z"/><path class="b" d="M87.19,283.57c0-1.87,0-2.41,0-2.83h1.28c0,.22,0,.58,0,1.19a2.16,2.16,0,0,1,2.17-1.35c1.31,0,2.34.76,2.34,2.79v6.5H91.67v-6.25c0-1.11-.36-1.87-1.4-1.87-1.23,0-1.75.81-1.75,2.68v5.44H87.19Z"/><path class="b" d="M95.81,287.24c.06,1,.56,1.71,1.61,1.71a1.32,1.32,0,0,0,1.47-1.44c0-.93-.47-1.36-1.67-1.83-1.89-.72-2.43-1.41-2.43-2.69a2.34,2.34,0,0,1,2.61-2.41,2.41,2.41,0,0,1,2.63,2.61H98.75c0-.45-.13-1.53-1.39-1.53a1.16,1.16,0,0,0-1.26,1.26c0,.74.32,1.08,1.58,1.59,1.77.66,2.54,1.31,2.54,2.88s-1,2.64-2.86,2.64a2.6,2.6,0,0,1-2.86-2.79Z"/><path class="b" d="M100.83,280.74h1.3v-2.43h1.3v2.43H105v1.14h-1.6v6c0,.63.14,1,.83,1a4.06,4.06,0,0,0,.64-.05v1a3.61,3.61,0,0,1-1.08.15c-1.06,0-1.69-.43-1.69-1.87v-6.25h-1.3Z"/><path class="b" d="M106.27,283.86c0-1.46,0-2.47,0-3.12h1.26c0,.24.06.67.06,1.62A2.5,2.5,0,0,1,110,280.6v1.46c-1.57.05-2.4,1-2.4,2.72v5.09h-1.31Z"/><path class="b" d="M116.91,287.37c0,1.15,0,2.07,0,2.5h-1.26a8.6,8.6,0,0,1-.06-1.22,2.1,2.1,0,0,1-2.18,1.38c-1.06,0-2.28-.43-2.28-2.71v-6.58h1.33V287c0,1.17.32,1.87,1.37,1.87s1.73-.61,1.73-2.57v-5.55h1.33Z"/><path class="b" d="M124.54,287.08a2.85,2.85,0,0,1-2.91,2.95c-2.38,0-3-2.1-3-4.75s.83-4.7,3.15-4.7a2.72,2.72,0,0,1,2.79,2.88h-1.35c0-.36-.14-1.74-1.44-1.74s-1.8,1.44-1.8,3.54c0,2.27.5,3.64,1.73,3.64s1.48-1.33,1.55-1.82Z"/><path class="b" d="M125.33,280.74h1.3v-2.43h1.29v2.43h1.61v1.14h-1.61v6c0,.63.15,1,.83,1a4.09,4.09,0,0,0,.65-.05v1a3.66,3.66,0,0,1-1.08.15c-1.06,0-1.69-.43-1.69-1.87v-6.25h-1.3Z"/><path class="b" d="M130.82,278.94v-1.89h1.33v1.89Zm0,1.8h1.32v9.13h-1.32Z"/><path class="b" d="M140.15,285.21c0,3.2-1.08,4.82-3.14,4.82s-3.15-1.56-3.15-4.8,1.25-4.63,3.21-4.63S140.15,282.13,140.15,285.21Zm-4.94,0c0,2.47.62,3.66,1.8,3.66s1.79-1.21,1.79-3.67-.58-3.5-1.79-3.5S135.21,282.76,135.21,285.24Z"/><path class="b" d="M141.86,283.57c0-1.87,0-2.41,0-2.83h1.28c0,.22,0,.58,0,1.19a2.15,2.15,0,0,1,2.16-1.35c1.32,0,2.34.76,2.34,2.79v6.5h-1.33v-6.25c0-1.11-.36-1.87-1.41-1.87-1.22,0-1.74.81-1.74,2.68v5.44h-1.33Z"/><path class="b" d="M154.6,286l-.9,3.87h-1.33l2.95-12.22h1.75l3,12.22h-1.44l-.9-3.87Zm2.9-1.21c-.7-3-1.17-4.91-1.33-5.88h0c-.18,1.06-.67,3.26-1.28,5.88Z"/><path class="b" d="M167,287.37c0,1.15,0,2.07,0,2.5h-1.26a8.6,8.6,0,0,1-.06-1.22,2.1,2.1,0,0,1-2.18,1.38c-1.06,0-2.28-.43-2.28-2.71v-6.58h1.33V287c0,1.17.33,1.87,1.37,1.87s1.73-.61,1.73-2.57v-5.55H167Z"/><path class="b" d="M168.21,280.74h1.29v-2.43h1.3v2.43h1.6v1.14h-1.6v6c0,.63.14,1,.83,1a4.29,4.29,0,0,0,.65-.05v1a3.7,3.7,0,0,1-1.08.15c-1.07,0-1.7-.43-1.7-1.87v-6.25h-1.29Z"/><path class="b" d="M175,277.05v4.81a2.16,2.16,0,0,1,2.18-1.28c1.33,0,2.31.85,2.31,2.79v6.5h-1.34v-6.23c0-1.11-.32-1.89-1.44-1.89S175,282.8,175,284.38v5.49h-1.33V277.05Z"/><path class="b" d="M187.43,285.21c0,3.2-1.08,4.82-3.13,4.82s-3.15-1.56-3.15-4.8,1.24-4.63,3.2-4.63S187.43,282.13,187.43,285.21Zm-4.93,0c0,2.47.61,3.66,1.8,3.66s1.78-1.21,1.78-3.67-.57-3.5-1.78-3.5S182.5,282.76,182.5,285.24Z"/><path class="b" d="M189.14,283.86c0-1.46,0-2.47,0-3.12h1.26c0,.24.06.67.06,1.62a2.5,2.5,0,0,1,2.41-1.76v1.46c-1.57.05-2.39,1-2.39,2.72v5.09h-1.32Z"/><path class="b" d="M194.05,278.94v-1.89h1.34v1.89Zm0,1.8h1.32v9.13h-1.32Z"/><path class="b" d="M196.59,280.74h1.3v-2.43h1.3v2.43h1.6v1.14h-1.6v6c0,.63.14,1,.82,1a4.09,4.09,0,0,0,.65-.05v1a3.61,3.61,0,0,1-1.08.15c-1.06,0-1.69-.43-1.69-1.87v-6.25h-1.3Z"/><path class="b" d="M203,280.74c1,3.82,1.73,6.56,1.86,7.53h0c.18-1,1-4.18,1.88-7.53h1.35l-2.67,9.6c-.74,2.66-1.44,3-2.73,3a3.63,3.63,0,0,1-.67-.06v-1.17a5,5,0,0,0,.61,0c1,0,1.23-.65,1.59-2.11l-2.69-9.33Z"/><path class="b" d="M209.39,281.3l-.13-2.7v-1.55h1.26v1.57l-.12,2.68Z"/><path class="b" d="M212.68,287.24c.06,1,.56,1.71,1.61,1.71a1.32,1.32,0,0,0,1.47-1.44c0-.93-.47-1.36-1.67-1.83-1.89-.72-2.43-1.41-2.43-2.69a2.34,2.34,0,0,1,2.61-2.41,2.41,2.41,0,0,1,2.63,2.61h-1.28c0-.45-.13-1.53-1.39-1.53a1.16,1.16,0,0,0-1.26,1.26c0,.74.33,1.08,1.59,1.59,1.76.66,2.53,1.31,2.53,2.88s-1,2.64-2.86,2.64a2.61,2.61,0,0,1-2.86-2.79Z"/><path class="b" d="M225.48,277a13,13,0,0,0-2.3,7.56,13.65,13.65,0,0,0,2.3,7.8H224.2a13.76,13.76,0,0,1-2.27-7.82A13.2,13.2,0,0,1,224.2,277Z"/><path class="b" d="M227.64,286.67c.11,1.24.7,2.25,2.06,2.25s1.92-.7,1.92-2.11-.52-2-2.2-2.77c-1.9-.92-2.75-1.77-2.75-3.53a2.87,2.87,0,0,1,3.08-3c2.36,0,3,1.7,3,3.12h-1.31c-.07-.58-.25-2-1.76-2a1.6,1.6,0,0,0-1.68,1.78c0,1.17.52,1.73,2,2.45,2.15,1,2.92,2.05,2.92,3.87a3.05,3.05,0,0,1-3.33,3.33c-2.45,0-3.26-1.6-3.35-3.36Z"/><path class="b" d="M241.16,286.49c0,.7-.36,3.56-3.33,3.56-3.26,0-3.51-3.44-3.51-6.37,0-3.57,1-6.21,3.66-6.21,3,0,3.11,2.75,3.15,3.51h-1.35c0-.42-.11-2.31-1.82-2.31-1.93,0-2.24,2.63-2.24,5,0,2.57.29,5.18,2.15,5.18,1.64,0,1.87-1.76,1.92-2.37Z"/><path class="b" d="M244.27,286l-.9,3.87H242l3-12.22h1.75l3,12.22h-1.44l-.9-3.87Zm2.9-1.21c-.7-3-1.17-4.91-1.33-5.88h0c-.18,1.06-.66,3.26-1.27,5.88Z"/><path class="b" d="M250.66,292.36a13,13,0,0,0,2.31-7.58,13.72,13.72,0,0,0-2.31-7.78h1.28a13.56,13.56,0,0,1,2.25,7.79,13.27,13.27,0,0,1-2.25,7.57Z"/><path class="b" d="M265.44,285.21c0,3.2-1.08,4.82-3.13,4.82s-3.15-1.56-3.15-4.8,1.24-4.63,3.2-4.63S265.44,282.13,265.44,285.21Zm-4.93,0c0,2.47.61,3.66,1.8,3.66s1.78-1.21,1.78-3.67-.57-3.5-1.78-3.5S260.51,282.76,260.51,285.24Z"/><path class="b" d="M267.37,289.87v-8h-1.19v-1.14h1.19v-1.26c0-1.35.48-2.54,2.14-2.54a3.3,3.3,0,0,1,.76.11v1.15a3.43,3.43,0,0,0-.62-.07c-.72,0-1,.45-1,1.39v1.22h1.44v1.14h-1.44v8Z"/><path class="b" d="M274.6,289.87V277.65h1.66c3.38,8.46,3.85,9.61,4,10.13h0c-.09-1.63-.11-3.47-.11-5.47v-4.66h1.26v12.22h-1.58c-3.51-8.89-3.94-10-4.09-10.5h0c.09,1.54.11,3.53.11,5.73v4.77Z"/><path class="b" d="M284.61,285.55c0,1.78.31,3.35,1.75,3.35a1.66,1.66,0,0,0,1.65-1.64h1.3a2.89,2.89,0,0,1-3,2.77c-2.68,0-3.06-2.44-3.06-4.73,0-2.88,1-4.7,3.13-4.7,2.41,0,3,2,3,4.25,0,.18,0,.48,0,.7Zm3.46-1c0-1.58-.35-2.8-1.66-2.8-1.67,0-1.76,2.17-1.78,2.8Z"/><path class="b" d="M291.65,280.74c.88,4.32,1.31,6.41,1.48,7.66h0c.18-1.19.56-2.61,1.69-7.66h1.27c1.06,4.79,1.47,6.63,1.6,7.62h0c.14-1,.48-2.63,1.53-7.62h1.35l-2.24,9.13H297c-.65-3-1.33-6-1.55-7.36h0c-.16,1.35-.82,4-1.62,7.36h-1.44l-2.09-9.13Z"/><path class="b" d="M307.29,289.87v-4.66a.79.79,0,0,0-.07-.31l-3.12-7.25h1.52c.82,2.07,2,4.93,2.37,6.05.43-1.19,1.62-4.09,2.41-6.05h1.43l-3.14,7.25a.81.81,0,0,0-.07.33v4.64Z"/><path class="b" d="M317.51,285.21c0,3.2-1.08,4.82-3.13,4.82s-3.15-1.56-3.15-4.8,1.24-4.63,3.21-4.63S317.51,282.13,317.51,285.21Zm-4.93,0c0,2.47.61,3.66,1.8,3.66s1.78-1.21,1.78-3.67-.57-3.5-1.78-3.5S312.58,282.76,312.58,285.24Z"/><path class="b" d="M319.22,283.86c0-1.46,0-2.47,0-3.12h1.25c0,.24.06.67.06,1.62a2.5,2.5,0,0,1,2.41-1.76v1.46c-1.56.05-2.39,1-2.39,2.72v5.09h-1.32Z"/><path class="b" d="M325.5,285.05c.6-.9,2.15-3.06,3-4.31h1.45c-.81,1.16-1.67,2.33-2.52,3.48l2.79,5.65h-1.51l-2.18-4.59c-.25.34-.73,1-1,1.35v3.24h-1.31V277.05h1.31Z"/><path class="b" d="M341.06,286.49c-.06.7-.36,3.56-3.33,3.56-3.26,0-3.51-3.44-3.51-6.37,0-3.57.95-6.21,3.65-6.21,2.95,0,3.12,2.75,3.15,3.51h-1.35c0-.42-.11-2.31-1.82-2.31-1.92,0-2.23,2.63-2.23,5,0,2.57.29,5.18,2.14,5.18,1.64,0,1.88-1.76,1.93-2.37Z"/><path class="b" d="M342.75,278.94v-1.89h1.33v1.89Zm0,1.8h1.31v9.13h-1.31Z"/><path class="b" d="M345.29,280.74h1.29v-2.43h1.3v2.43h1.6v1.14h-1.6v6c0,.63.14,1,.83,1a4.29,4.29,0,0,0,.65-.05v1a3.72,3.72,0,0,1-1.09.15c-1.06,0-1.69-.43-1.69-1.87v-6.25h-1.29Z"/><path class="b" d="M351.67,280.74c1,3.82,1.73,6.56,1.86,7.53h0c.18-1,1-4.18,1.87-7.53h1.35l-2.66,9.6c-.74,2.66-1.44,3-2.74,3a3.63,3.63,0,0,1-.67-.06v-1.17a5.23,5.23,0,0,0,.62,0c.95,0,1.22-.65,1.58-2.11l-2.68-9.33Z"/></g></svg>