<svg xmlns="http://www.w3.org/2000/svg" xmlns:xlink="http://www.w3.org/1999/xlink" viewBox="0 0 456.63 598.23"><defs><style>.a{fill:url(#a);}.b{font-size:24px;}.aa,.ab,.ad,.as,.b{fill:#fff;font-family:AcuminProCond-Regular, Acumin Pro Condensed;}.ab,.c{letter-spacing:0.01em;}.d{letter-spacing:0em;}.e{letter-spacing:0em;}.f{letter-spacing:0em;}.g{letter-spacing:0em;}.h{letter-spacing:0.04em;}.i{letter-spacing:0.01em;}.j{letter-spacing:0em;}.k{letter-spacing:0.01em;}.l{letter-spacing:-0.01em;}.m{letter-spacing:-0.01em;}.n{letter-spacing:0.01em;}.o{letter-spacing:0em;}.p{letter-spacing:0em;}.q{letter-spacing:0em;}.r{letter-spacing:-0.01em;}.s{letter-spacing:0.01em;}.t{letter-spacing:0.01em;}.u{letter-spacing:-0.01em;}.v{letter-spacing:0.01em;}.w{letter-spacing:0.01em;}.x{letter-spacing:0em;}.y{letter-spacing:-0.01em;}.z{letter-spacing:0.02em;}.aa,.ab{font-size:18px;}.ac{letter-spacing:0em;}.ad{font-size:60px;}.ae{letter-spacing:-0.02em;}.af{letter-spacing:0em;}.ag{fill:#f9d423;}.ah{fill:#00ecbc;}.ai{fill:#3d3d3d;}.aj{fill:#cc208e;}.ak{letter-spacing:0.01em;}.al{letter-spacing:0em;}.am{letter-spacing:0em;}.an{letter-spacing:0.01em;}.ao{letter-spacing:0em;}.ap{letter-spacing:0em;}.aq{letter-spacing:-0.07em;}.ar{letter-spacing:0.02em;}.as{font-size:10px;}.at{letter-spacing:0.02em;}.au{letter-spacing:0.04em;}.av{letter-spacing:0.05em;}.aw{letter-spacing:0.04em;}</style><linearGradient id="a" x1="0.52" y1="78.46" x2="292.26" y2="78.46" gradientUnits="userSpaceOnUse"><stop offset="0" stop-color="#00dbde"/><stop offset="1" stop-color="#fc00ff"/></linearGradient></defs><rect width="456.63" height="598.23"/><rect class="a" x="0.52" y="66.07" width="291.75" height="24.79"/><text class="b" transform="translate(0.52 46.14)"><tspan class="c">L</tspan><tspan class="d" x="9.34" y="0">e</tspan><tspan class="e" x="19.2" y="0">v</tspan><tspan class="f" x="28.25" y="0">el </tspan><tspan class="g" x="47.23" y="0">o</tspan><tspan x="57.38" y="0">f </tspan><tspan class="h" x="67.05" y="0">E</tspan><tspan class="i" x="77.81" y="0">x</tspan><tspan class="j" x="86.21" y="0">p</tspan><tspan class="k" x="96.77" y="0">o</tspan><tspan class="l" x="106.94" y="0">s</tspan><tspan class="m" x="115.68" y="0">ur</tspan><tspan class="f" x="132.57" y="0">e </tspan><tspan class="m" x="146.92" y="0">t</tspan><tspan x="152.54" y="0">o the </tspan><tspan class="n" x="197.88" y="0">f</tspan><tspan x="203.32" y="0">l</tspan><tspan class="o" x="207.96" y="0">oo</tspan><tspan class="p" x="228.21" y="0">ding </tspan><tspan class="q" x="269.11" y="0">r</tspan><tspan class="f" x="275.66" y="0">isk</tspan></text><text class="b" transform="translate(0.52 179.26)"><tspan class="r">N</tspan><tspan class="m" x="12.02" y="0">u</tspan><tspan x="22.42" y="0">m</tspan><tspan class="j" x="38.16" y="0">b</tspan><tspan x="48.7" y="0">er </tspan><tspan class="d" x="69.67" y="0">o</tspan><tspan x="79.82" y="0">f </tspan><tspan class="s" x="89.49" y="0">S</tspan><tspan class="l" x="100.13" y="0">t</tspan><tspan x="105.72" y="0">udent in High </tspan><tspan class="q" x="219.79" y="0">r</tspan><tspan class="f" x="226.34" y="0">isk a</tspan><tspan class="m" x="263.68" y="0">re</tspan><tspan class="f" x="279.83" y="0">a</tspan></text><text class="b" transform="translate(0.52 307.84)"><tspan class="i">C</tspan><tspan x="10.97" y="0">ap</tspan><tspan class="t" x="31.44" y="0">i</tspan><tspan class="p" x="36.33" y="0">tal </tspan><tspan class="u" x="61.27" y="0">B</tspan><tspan x="72.19" y="0">udg</tspan><tspan class="v" x="103.73" y="0">e</tspan><tspan x="113.76" y="0">t us</tspan><tspan class="w" x="143.47" y="0">e</tspan><tspan x="153.45" y="0">d </tspan><tspan class="x" x="168.52" y="0">f</tspan><tspan x="173.73" y="0">or </tspan><tspan class="n" x="0" y="28.8">f</tspan><tspan class="f" x="5.45" y="28.8">l</tspan><tspan class="j" x="10.08" y="28.8">oo</tspan><tspan class="p" x="30.33" y="28.8">ding </tspan><tspan class="q" x="71.23" y="28.8">r</tspan><tspan class="f" x="77.78" y="28.8">isk m</tspan><tspan class="t" x="120.88" y="28.8">i</tspan><tspan class="j" x="125.78" y="28.8">t</tspan><tspan class="f" x="131.59" y="28.8">i</tspan><tspan class="y" x="136.24" y="28.8">g</tspan><tspan class="f" x="146.61" y="28.8">a</tspan><tspan class="j" x="156.6" y="28.8">t</tspan><tspan x="162.4" y="28.8">ion in </tspan><tspan class="o" x="212.2" y="28.8">2</tspan><tspan x="221.61" y="28.8">0</tspan><tspan class="z" x="232.03" y="28.8">X</tspan><tspan x="242.27" y="28.8">X</tspan></text><text class="aa" transform="translate(263.84 116.44)">High</text><text class="ab" transform="translate(0.52 116.44)">L<tspan class="ac" x="7" y="0">ow</tspan></text><text class="ad" transform="translate(0.52 240.62)">0<tspan class="ae" x="26.04" y="0">0</tspan><tspan class="af" x="51.12" y="0">,000</tspan></text><path class="ag" d="M143.5,458.92A73,73,0,0,0,146,440.1H73.24Z"/><path class="ah" d="M146,440.1a72.46,72.46,0,0,0-17-46.74L73.24,440.1Z"/><path class="ai" d="M129,393.36a72.71,72.71,0,1,0,10.21,77.47L73.24,440.1Z"/><path class="aj" d="M73.24,440.1l65.92,30.73a73.2,73.2,0,0,0,4.34-11.91Z"/><text class="aa" transform="translate(167.09 489.18)"><tspan class="ak">S</tspan><tspan class="al" x="7.94" y="0">an</tspan><tspan class="am" x="23.4" y="0">d</tspan><tspan x="31.34" y="0">y</tspan></text><text class="aa" transform="translate(167.09 410.81)"><tspan class="an">R</tspan><tspan class="ao" x="8.44" y="0">o</tspan><tspan class="ap" x="16.04" y="0">o</tspan><tspan x="23.65" y="0">f</tspan></text><text class="aa" transform="translate(0.52 531.85)"><tspan class="aq">T</tspan><tspan class="ao" x="5.4" y="0">o</tspan><tspan x="13" y="0">tal</tspan><tspan x="0" y="21.6">$00 billion</tspan></text><text class="aa" transform="translate(26.87 445.93)"><tspan class="ar">O</tspan><tspan x="9.05" y="0">ther</tspan></text><text class="aa" transform="translate(167.09 449.55)">Fl<tspan class="ao" x="10.57" y="0">oo</tspan><tspan x="25.76" y="0">d</tspan></text><text class="as" transform="translate(26.87 460.61)">$ <tspan class="at" x="6.07" y="0">X</tspan><tspan class="au" x="10.34" y="0">X</tspan><tspan class="av" x="14.85" y="0">.</tspan><tspan x="16.78" y="0">X billion</tspan></text><text class="as" transform="translate(167.09 423.27)">$ <tspan class="aw" x="6.07" y="0">X</tspan><tspan class="av" x="10.58" y="0">.</tspan><tspan x="12.51" y="0">X billion</tspan></text><text class="as" transform="translate(167.09 460.97)">$ <tspan class="aw" x="6.07" y="0">X</tspan><tspan class="av" x="10.58" y="0">.</tspan><tspan x="12.51" y="0">X billion</tspan></text><text class="as" transform="translate(167.09 502.3)">$ <tspan class="aw" x="6.07" y="0">X</tspan><tspan class="av" x="10.58" y="0">.</tspan><tspan x="12.51" y="0">X billion</tspan></text></svg>