<svg xmlns="http://www.w3.org/2000/svg" xmlns:xlink="http://www.w3.org/1999/xlink" viewBox="0 0 456.63 598.23"><defs><style>.a{fill:#232323;}.b{fill:url(#a);}.c{font-size:24px;}.ab,.ac,.ae,.at,.c{fill:#fff;font-family:AcuminProCond-Regular, Acumin Pro Condensed;}.ac,.d{letter-spacing:0.01em;}.e{letter-spacing:0em;}.f{letter-spacing:0em;}.g{letter-spacing:0em;}.h{letter-spacing:0em;}.i{letter-spacing:0.04em;}.j{letter-spacing:0.01em;}.k{letter-spacing:0em;}.l{letter-spacing:0.01em;}.m{letter-spacing:-0.01em;}.n{letter-spacing:-0.01em;}.o{letter-spacing:0.01em;}.p{letter-spacing:0em;}.q{letter-spacing:0em;}.r{letter-spacing:0em;}.s{letter-spacing:-0.01em;}.t{letter-spacing:0.01em;}.u{letter-spacing:0.01em;}.v{letter-spacing:-0.01em;}.w{letter-spacing:0.01em;}.x{letter-spacing:0.01em;}.y{letter-spacing:0em;}.z{letter-spacing:-0.01em;}.aa{letter-spacing:0.02em;}.ab,.ac{font-size:18px;}.ad{letter-spacing:0em;}.ae{font-size:60px;}.af{letter-spacing:-0.02em;}.ag{letter-spacing:0em;}.ah{fill:#f9d423;}.ai{fill:#00ecbc;}.aj{fill:#3d3d3d;}.ak{fill:#cc208e;}.al{letter-spacing:0.01em;}.am{letter-spacing:0em;}.an{letter-spacing:0em;}.ao{letter-spacing:0.01em;}.ap{letter-spacing:0em;}.aq{letter-spacing:0em;}.ar{letter-spacing:-0.07em;}.as{letter-spacing:0.02em;}.at{font-size:10px;}.au{letter-spacing:0.02em;}.av{letter-spacing:0.04em;}.aw{letter-spacing:0.05em;}.ax{letter-spacing:0.04em;}</style><linearGradient id="a" x1="28.98" y1="78.46" x2="320.73" y2="78.46" gradientUnits="userSpaceOnUse"><stop offset="0" stop-color="#00dbde"/><stop offset="1" stop-color="#fc00ff"/></linearGradient></defs><rect class="a" width="456.63" height="598.23"/><rect class="b" x="28.98" y="66.07" width="291.75" height="24.79"/><text class="c" transform="translate(28.98 46.14)"><tspan class="d">L</tspan><tspan class="e" x="9.34" y="0">e</tspan><tspan class="f" x="19.2" y="0">v</tspan><tspan class="g" x="28.25" y="0">el </tspan><tspan class="h" x="47.23" y="0">o</tspan><tspan x="57.38" y="0">f </tspan><tspan class="i" x="67.05" y="0">E</tspan><tspan class="j" x="77.81" y="0">x</tspan><tspan class="k" x="86.21" y="0">p</tspan><tspan class="l" x="96.77" y="0">o</tspan><tspan class="m" x="106.94" y="0">s</tspan><tspan class="n" x="115.68" y="0">ur</tspan><tspan class="g" x="132.57" y="0">e </tspan><tspan class="n" x="146.92" y="0">t</tspan><tspan x="152.54" y="0">o the </tspan><tspan class="o" x="197.88" y="0">f</tspan><tspan x="203.32" y="0">l</tspan><tspan class="p" x="207.96" y="0">oo</tspan><tspan class="q" x="228.21" y="0">ding </tspan><tspan class="r" x="269.11" y="0">r</tspan><tspan class="g" x="275.66" y="0">isk</tspan></text><text class="c" transform="translate(28.98 179.26)"><tspan class="s">N</tspan><tspan class="n" x="12.02" y="0">u</tspan><tspan x="22.42" y="0">m</tspan><tspan class="k" x="38.16" y="0">b</tspan><tspan x="48.7" y="0">er </tspan><tspan class="e" x="69.67" y="0">o</tspan><tspan x="79.82" y="0">f </tspan><tspan class="t" x="89.49" y="0">S</tspan><tspan class="m" x="100.13" y="0">t</tspan><tspan x="105.72" y="0">udent in High </tspan><tspan class="r" x="219.79" y="0">r</tspan><tspan class="g" x="226.34" y="0">isk a</tspan><tspan class="n" x="263.68" y="0">re</tspan><tspan class="g" x="279.83" y="0">a</tspan></text><text class="c" transform="translate(28.98 307.84)"><tspan class="j">C</tspan><tspan x="10.97" y="0">ap</tspan><tspan class="u" x="31.44" y="0">i</tspan><tspan class="q" x="36.33" y="0">tal </tspan><tspan class="v" x="61.27" y="0">B</tspan><tspan x="72.19" y="0">udg</tspan><tspan class="w" x="103.73" y="0">e</tspan><tspan x="113.76" y="0">t us</tspan><tspan class="x" x="143.47" y="0">e</tspan><tspan x="153.45" y="0">d </tspan><tspan class="y" x="168.52" y="0">f</tspan><tspan x="173.73" y="0">or </tspan><tspan class="o" x="0" y="28.8">f</tspan><tspan class="g" x="5.45" y="28.8">l</tspan><tspan class="k" x="10.08" y="28.8">oo</tspan><tspan class="q" x="30.33" y="28.8">ding </tspan><tspan class="r" x="71.23" y="28.8">r</tspan><tspan class="g" x="77.78" y="28.8">isk m</tspan><tspan class="u" x="120.88" y="28.8">i</tspan><tspan class="k" x="125.78" y="28.8">t</tspan><tspan class="g" x="131.59" y="28.8">i</tspan><tspan class="z" x="136.24" y="28.8">g</tspan><tspan class="g" x="146.61" y="28.8">a</tspan><tspan class="k" x="156.6" y="28.8">t</tspan><tspan x="162.4" y="28.8">ion in </tspan><tspan class="p" x="212.2" y="28.8">2</tspan><tspan x="221.61" y="28.8">0</tspan><tspan class="aa" x="232.03" y="28.8">X</tspan><tspan x="242.27" y="28.8">X</tspan></text><text class="ab" transform="translate(292.31 116.44)">High</text><text class="ac" transform="translate(28.98 116.44)">L<tspan class="ad" x="7" y="0">ow</tspan></text><text class="ae" transform="translate(25.5 240.62)">0<tspan class="af" x="26.04" y="0">0</tspan><tspan class="ag" x="51.12" y="0">,000</tspan></text><path class="ah" d="M172,458.92a73,73,0,0,0,2.47-18.82H101.71Z"/><path class="ai" d="M174.43,440.1a72.41,72.41,0,0,0-17-46.74l-55.7,46.74Z"/><path class="aj" d="M157.41,393.36a72.71,72.71,0,1,0,10.21,77.47L101.71,440.1Z"/><path class="ak" d="M101.71,440.1l65.91,30.73A72.27,72.27,0,0,0,172,458.92Z"/><text class="ab" transform="translate(195.55 489.18)"><tspan class="al">S</tspan><tspan class="am" x="7.94" y="0">an</tspan><tspan class="an" x="23.4" y="0">d</tspan><tspan x="31.34" y="0">y</tspan></text><text class="ab" transform="translate(195.55 410.81)"><tspan class="ao">R</tspan><tspan class="ap" x="8.44" y="0">o</tspan><tspan class="aq" x="16.04" y="0">o</tspan><tspan x="23.65" y="0">f</tspan></text><text class="ab" transform="translate(28.98 531.85)"><tspan class="ar">T</tspan><tspan class="ap" x="5.4" y="0">o</tspan><tspan x="13" y="0">tal</tspan><tspan x="0" y="21.6">$00 billion</tspan></text><text class="ab" transform="translate(55.33 445.93)"><tspan class="as">O</tspan><tspan x="9.05" y="0">ther</tspan></text><text class="ab" transform="translate(195.55 449.55)">Fl<tspan class="ap" x="10.57" y="0">oo</tspan><tspan x="25.76" y="0">d</tspan></text><text class="at" transform="translate(55.33 460.61)">$ <tspan class="au" x="6.07" y="0">X</tspan><tspan class="av" x="10.34" y="0">X</tspan><tspan class="aw" x="14.85" y="0">.</tspan><tspan x="16.78" y="0">X billion</tspan></text><text class="at" transform="translate(195.55 423.27)">$ <tspan class="ax" x="6.07" y="0">X</tspan><tspan class="aw" x="10.58" y="0">.</tspan><tspan x="12.51" y="0">X billion</tspan></text><text class="at" transform="translate(195.55 460.97)">$ <tspan class="ax" x="6.07" y="0">X</tspan><tspan class="aw" x="10.58" y="0">.</tspan><tspan x="12.51" y="0">X billion</tspan></text><text class="at" transform="translate(195.55 502.3)">$ <tspan class="ax" x="6.07" y="0">X</tspan><tspan class="aw" x="10.58" y="0">.</tspan><tspan x="12.51" y="0">X billion</tspan></text></svg>