<svg xmlns="http://www.w3.org/2000/svg" viewBox="0 0 455.61 652.45"><defs><style>.a,.h{fill:none;}.b{fill:#fff;}.c{fill:#9d00c6;}.d{fill:#469fe7;}.e{fill:#f9d423;}.f{fill:#00ecbc;}.g{fill:#bfbfbf;}.h{stroke:#fff;stroke-miterlimit:10;stroke-width:0.25px;}</style></defs><rect class="a" width="455.61" height="652.45"/><path class="b" d="M10.1,321.71c-.07.94-.47,4.75-4.44,4.75C1.32,326.46,1,321.88,1,318c0-4.76,1.28-8.28,4.88-8.28,3.93,0,4.15,3.67,4.2,4.68H8.26c0-.55-.15-3.08-2.43-3.08-2.57,0-3,3.51-3,6.68,0,3.43.38,6.91,2.85,6.91,2.19,0,2.5-2.35,2.57-3.17Z" transform="translate(-0.02)"/><path class="b" d="M19.49,324.06c0,.77.05,1.78.09,2.16H18a6.51,6.51,0,0,1-.12-1.39A2.84,2.84,0,0,1,15,326.44c-2.36,0-3.2-1.82-3.2-3.53,0-2.21,1.52-3.89,4.71-3.89a9.12,9.12,0,0,1,1.27.05v-1.63c0-.94-.19-2.16-1.82-2.16-1.8,0-1.92,1.29-2,2.11H12.26c.05-1.75.87-3.53,3.72-3.53,2.36,0,3.51,1.13,3.51,3.39Zm-1.71-3.6a8.11,8.11,0,0,0-1.2-.07c-2.16,0-3,1-3,2.4A1.92,1.92,0,0,0,15.43,325c1.78,0,2.35-1.27,2.35-3.84Z" transform="translate(-0.02)"/><path class="b" d="M22.39,330.69V317.61c0-1.66,0-2.79,0-3.55h1.7c0,.21.07,1,.07,1.63A2.8,2.8,0,0,1,27,313.86c2.31,0,3.56,2,3.56,6.1,0,4.39-1.52,6.48-3.89,6.48A2.56,2.56,0,0,1,24.14,325v5.71ZM26.5,315.4c-1.9,0-2.4,1.8-2.4,4.68s.26,4.82,2.28,4.82c1.6,0,2.42-1.87,2.42-4.84S28.08,315.4,26.5,315.4Z" transform="translate(-0.02)"/><path class="b" d="M32.88,311.65v-2.52h1.78v2.52Zm0,2.41h1.75v12.16H32.88Z" transform="translate(-0.02)"/><path class="b" d="M36.26,314.06H38v-3.24h1.73v3.24h2.14v1.51H39.72v8c0,.84.19,1.36,1.1,1.36a4.58,4.58,0,0,0,.87-.07v1.37a5.09,5.09,0,0,1-1.44.19c-1.42,0-2.26-.57-2.26-2.49v-8.33H36.26Z" transform="translate(-0.02)"/><path class="b" d="M50.59,324.06c0,.77,0,1.78.1,2.16H49.08a7.24,7.24,0,0,1-.12-1.39,2.84,2.84,0,0,1-2.88,1.61c-2.35,0-3.19-1.82-3.19-3.53,0-2.21,1.51-3.89,4.7-3.89a9,9,0,0,1,1.27.05v-1.63c0-.94-.19-2.16-1.82-2.16-1.8,0-1.92,1.29-2,2.11H43.37c0-1.75.86-3.53,3.72-3.53,2.35,0,3.5,1.13,3.5,3.39Zm-1.7-3.6a8.32,8.32,0,0,0-1.2-.07c-2.16,0-3,1-3,2.4a1.92,1.92,0,0,0,1.9,2.16c1.77,0,2.35-1.27,2.35-3.84Z" transform="translate(-0.02)"/><path class="b" d="M53.5,326.22V309.13h1.75v17.09Z" transform="translate(-0.02)"/><path class="b" d="M62.88,309.93h4.25a3.63,3.63,0,0,1,3.93,4c0,2.18-1,3.14-2,3.48,1.24.43,2.54,1.56,2.54,4.08,0,2.93-1.78,4.77-4.58,4.77H62.88Zm3.62,6.79c2.07,0,2.81-.91,2.81-2.66a2.36,2.36,0,0,0-2.57-2.65H64.63v5.31Zm-1.87,8h2.21c1.92,0,3-1.18,3-3.31s-1.1-3.27-3.31-3.27H64.63Z" transform="translate(-0.02)"/><path class="b" d="M81.29,322.89c0,1.53,0,2.76,0,3.33H79.63a12.48,12.48,0,0,1-.07-1.63,2.82,2.82,0,0,1-2.9,1.85c-1.42,0-3-.58-3-3.62v-8.76h1.77v8.32c0,1.56.43,2.5,1.83,2.5s2.3-.82,2.3-3.43v-7.39h1.78Z" transform="translate(-0.02)"/><path class="b" d="M91.75,309.13v14c0,1.18,0,2.4,0,3.12H90.07c0-.31-.07-1.1-.07-1.63a2.66,2.66,0,0,1-2.86,1.85c-2.52,0-3.6-2.16-3.6-6.43,0-3.89,1.42-6.15,4-6.15A2.42,2.42,0,0,1,90,315.11v-6Zm-4.13,15.75c1.9,0,2.4-1.61,2.4-4.92,0-3.55-.5-4.56-2.25-4.56-1.44,0-2.43,1.27-2.43,4.63C85.34,323.54,86.13,324.88,87.62,324.88Z" transform="translate(-0.02)"/><path class="b" d="M102.26,325.46c0,3.19-.77,5.42-4.27,5.42-3.14,0-3.82-2-3.89-3.34h1.78a2,2,0,0,0,2.18,1.85c2,0,2.45-1.49,2.45-3.93v-1.13a2.75,2.75,0,0,1-2.83,1.87c-2.45,0-3.67-2.09-3.67-5.93,0-4.37,1.63-6.41,3.93-6.41,1.66,0,2.35.79,2.57,1.59a11.9,11.9,0,0,1,.1-1.39h1.68c0,.62,0,1.87,0,3.5Zm-4.1-.82c1.87,0,2.4-1.85,2.4-4.68s-.41-4.56-2.26-4.56c-1.61,0-2.47,1.68-2.47,4.85C95.83,323.2,96.65,324.64,98.16,324.64Z" transform="translate(-0.02)"/><path class="b" d="M106.34,320.46c0,2.38.41,4.47,2.33,4.47a2.23,2.23,0,0,0,2.21-2.19h1.73a3.86,3.86,0,0,1-4,3.7c-3.58,0-4.08-3.26-4.08-6.31,0-3.84,1.32-6.27,4.17-6.27,3.22,0,4,2.62,4,5.67,0,.24,0,.65,0,.93ZM111,319.1c0-2.12-.46-3.75-2.21-3.75-2.23,0-2.35,2.91-2.37,3.75Z" transform="translate(-0.02)"/><path class="b" d="M113.68,314.06h1.73v-3.24h1.73v3.24h2.14v1.51h-2.14v8c0,.84.19,1.36,1.11,1.36a4.54,4.54,0,0,0,.86-.07v1.37a5.09,5.09,0,0,1-1.44.19c-1.42,0-2.26-.57-2.26-2.49v-8.33h-1.73Z" transform="translate(-0.02)"/><path class="b" d="M133.17,322.89c0,1.53,0,2.76,0,3.33h-1.68a12.48,12.48,0,0,1-.07-1.63,2.83,2.83,0,0,1-2.91,1.85c-1.41,0-3-.58-3-3.62v-8.76h1.78v8.32c0,1.56.43,2.5,1.82,2.5s2.31-.82,2.31-3.43v-7.39h1.77Z" transform="translate(-0.02)"/><path class="b" d="M136.89,322.72A2.11,2.11,0,0,0,139,325a1.77,1.77,0,0,0,2-1.92c0-1.25-.63-1.82-2.23-2.45-2.52-1-3.24-1.87-3.24-3.57a3.11,3.11,0,0,1,3.47-3.22,3.2,3.2,0,0,1,3.51,3.48h-1.7c-.05-.6-.17-2-1.85-2a1.53,1.53,0,0,0-1.68,1.68c0,1,.43,1.44,2.11,2.11,2.35.89,3.38,1.75,3.38,3.84s-1.39,3.53-3.81,3.53a3.48,3.48,0,0,1-3.82-3.72Z" transform="translate(-0.02)"/><path class="b" d="M146.08,320.46c0,2.38.41,4.47,2.33,4.47a2.23,2.23,0,0,0,2.21-2.19h1.73a3.85,3.85,0,0,1-4,3.7c-3.58,0-4.08-3.26-4.08-6.31,0-3.84,1.32-6.27,4.18-6.27,3.21,0,4,2.62,4,5.67,0,.24,0,.65,0,.93Zm4.61-1.36c0-2.12-.45-3.75-2.2-3.75-2.24,0-2.36,2.91-2.38,3.75Z" transform="translate(-0.02)"/><path class="b" d="M162.5,309.13v14c0,1.18,0,2.4,0,3.12h-1.71c0-.31-.07-1.1-.07-1.63a2.66,2.66,0,0,1-2.86,1.85c-2.52,0-3.6-2.16-3.6-6.43,0-3.89,1.42-6.15,4-6.15a2.42,2.42,0,0,1,2.47,1.25v-6Zm-4.13,15.75c1.9,0,2.4-1.61,2.4-4.92,0-3.55-.5-4.56-2.25-4.56-1.44,0-2.43,1.27-2.43,4.63C156.09,323.54,156.88,324.88,158.37,324.88Z" transform="translate(-0.02)"/><path class="b" d="M170,311.65v-2.52h1.78v2.52Zm0,2.41h1.76v12.16H170Z" transform="translate(-0.02)"/><path class="b" d="M174.62,317.82c0-2.49,0-3.21,0-3.76h1.7c0,.28.07.76.07,1.58a2.87,2.87,0,0,1,2.88-1.8c1.75,0,3.12,1,3.12,3.72v8.66H180.6V317.9c0-1.49-.48-2.5-1.88-2.5-1.63,0-2.32,1.08-2.32,3.58v7.24h-1.78Z" transform="translate(-0.02)"/><path class="b" d="M190,326.22V315.57h-1.59v-1.51H190v-1.69c0-1.8.65-3.38,2.85-3.38a4.17,4.17,0,0,1,1,.14v1.54a3.57,3.57,0,0,0-.81-.1c-1,0-1.3.6-1.3,1.85v1.64h1.92v1.51h-1.92v10.65Z" transform="translate(-0.02)"/><path class="b" d="M195.28,326.22V309.13H197v17.09Z" transform="translate(-0.02)"/><path class="b" d="M207.69,320c0,4.27-1.44,6.43-4.18,6.43s-4.2-2.09-4.2-6.41,1.66-6.17,4.28-6.17S207.69,315.9,207.69,320Zm-6.57.05c0,3.28.81,4.87,2.39,4.87s2.38-1.61,2.38-4.9c0-3.12-.77-4.66-2.38-4.66S201.12,316.74,201.12,320.06Z" transform="translate(-0.02)"/><path class="b" d="M217.82,320c0,4.27-1.44,6.43-4.18,6.43s-4.2-2.09-4.2-6.41,1.66-6.17,4.27-6.17S217.82,315.9,217.82,320Zm-6.58.05c0,3.28.82,4.87,2.4,4.87S216,323.32,216,320c0-3.12-.77-4.66-2.38-4.66S211.24,316.74,211.24,320.06Z" transform="translate(-0.02)"/><path class="b" d="M227.78,309.13v14c0,1.18,0,2.4,0,3.12h-1.7c0-.31-.07-1.1-.07-1.63a2.66,2.66,0,0,1-2.86,1.85c-2.52,0-3.6-2.16-3.6-6.43,0-3.89,1.42-6.15,4-6.15a2.42,2.42,0,0,1,2.48,1.25v-6Zm-4.13,15.75c1.9,0,2.4-1.61,2.4-4.92,0-3.55-.5-4.56-2.26-4.56-1.44,0-2.42,1.27-2.42,4.63C221.37,323.54,222.16,324.88,223.65,324.88Z" transform="translate(-0.02)"/><path class="b" d="M230.66,330.69V317.61c0-1.66,0-2.79,0-3.55h1.71c0,.21.07,1,.07,1.63a2.79,2.79,0,0,1,2.88-1.83c2.3,0,3.55,2,3.55,6.1,0,4.39-1.51,6.48-3.89,6.48a2.55,2.55,0,0,1-2.54-1.46v5.71Zm4.1-15.29c-1.89,0-2.4,1.8-2.4,4.68s.27,4.82,2.28,4.82c1.61,0,2.43-1.87,2.43-4.84S236.35,315.4,234.76,315.4Z" transform="translate(-0.02)"/><path class="b" d="M241.15,326.22V309.13h1.75v17.09Z" transform="translate(-0.02)"/><path class="b" d="M252.74,324.06c0,.77,0,1.78.09,2.16h-1.6a6.51,6.51,0,0,1-.12-1.39,2.84,2.84,0,0,1-2.88,1.61c-2.36,0-3.2-1.82-3.2-3.53,0-2.21,1.52-3.89,4.71-3.89a9.12,9.12,0,0,1,1.27.05v-1.63c0-.94-.19-2.16-1.82-2.16-1.8,0-1.92,1.29-2,2.11h-1.68c.05-1.75.87-3.53,3.72-3.53,2.36,0,3.51,1.13,3.51,3.39Zm-1.71-3.6a8.11,8.11,0,0,0-1.2-.07c-2.16,0-3,1-3,2.4a1.92,1.92,0,0,0,1.89,2.16c1.78,0,2.35-1.27,2.35-3.84Z" transform="translate(-0.02)"/><path class="b" d="M255.64,311.65v-2.52h1.78v2.52Zm0,2.41h1.75v12.16h-1.75Z" transform="translate(-0.02)"/><path class="b" d="M260.3,317.82c0-2.49,0-3.21,0-3.76H262c0,.28.07.76.07,1.58a2.85,2.85,0,0,1,2.88-1.8c1.75,0,3.12,1,3.12,3.72v8.66h-1.78V317.9c0-1.49-.48-2.5-1.87-2.5-1.63,0-2.33,1.08-2.33,3.58v7.24H260.3Z" transform="translate(-0.02)"/><path class="b" d="M274.46,324.93c1.25-2.11,3.67-6.39,5.35-9.34h-5v-1.53h7v1.36c-1.2,2.11-3.72,6.6-5.28,9.29h5.35l-.21,1.51h-7.2Z" transform="translate(-0.02)"/><path class="b" d="M291.31,320c0,4.27-1.44,6.43-4.18,6.43s-4.2-2.09-4.2-6.41,1.65-6.17,4.27-6.17S291.31,315.9,291.31,320Zm-6.58.05c0,3.28.81,4.87,2.4,4.87s2.38-1.61,2.38-4.9c0-3.12-.77-4.66-2.38-4.66S284.73,316.74,284.73,320.06Z" transform="translate(-0.02)"/><path class="b" d="M293.58,317.82c0-2.49,0-3.21,0-3.76h1.7a13.63,13.63,0,0,1,.08,1.58,2.85,2.85,0,0,1,2.88-1.8c1.75,0,3.12,1,3.12,3.72v8.66h-1.78V317.9c0-1.49-.48-2.5-1.87-2.5-1.63,0-2.33,1.08-2.33,3.58v7.24h-1.78Z" transform="translate(-0.02)"/><path class="b" d="M305.39,320.46c0,2.38.41,4.47,2.33,4.47a2.23,2.23,0,0,0,2.21-2.19h1.73a3.86,3.86,0,0,1-4,3.7c-3.58,0-4.08-3.26-4.08-6.31,0-3.84,1.32-6.27,4.17-6.27,3.22,0,4,2.62,4,5.67,0,.24,0,.65,0,.93ZM310,319.1c0-2.12-.46-3.75-2.21-3.75-2.23,0-2.35,2.91-2.37,3.75Z" transform="translate(-0.02)"/><path class="b" d="M315,322.72a2.11,2.11,0,0,0,2.14,2.28,1.77,1.77,0,0,0,2-1.92c0-1.25-.63-1.82-2.23-2.45-2.53-1-3.24-1.87-3.24-3.57a3.11,3.11,0,0,1,3.47-3.22,3.2,3.2,0,0,1,3.51,3.48h-1.7c-.05-.6-.17-2-1.85-2a1.53,1.53,0,0,0-1.68,1.68c0,1,.43,1.44,2.11,2.11,2.35.89,3.38,1.75,3.38,3.84s-1.39,3.53-3.81,3.53a3.48,3.48,0,0,1-3.82-3.72Z" transform="translate(-0.02)"/><path class="b" d="M1.63,45.14V28.84h2.2C8.35,40.12,9,41.66,9.19,42.35h0c-.12-2.18-.14-4.63-.14-7.29V28.84h1.68v16.3H8.64C4,33.28,3.38,31.79,3.19,31.14h0c.12,2,.15,4.71.15,7.64v6.36Z" transform="translate(-0.02)"/><path class="b" d="M21.14,41.8c0,1.54,0,2.76,0,3.34H19.48a14.69,14.69,0,0,1-.07-1.64,2.8,2.8,0,0,1-2.9,1.85c-1.42,0-3.05-.57-3.05-3.62V33h1.78V41.3c0,1.56.43,2.49,1.82,2.49s2.3-.81,2.3-3.43V33h1.78Z" transform="translate(-0.02)"/><path class="b" d="M23.88,36.62c0-2.17,0-3.08,0-3.65h1.7a13.16,13.16,0,0,1,.08,1.56,2.77,2.77,0,0,1,2.71-1.76,2.34,2.34,0,0,1,2.52,1.8,3,3,0,0,1,3-1.8c1.51,0,2.93.72,2.93,3.53v8.84H35V36.59c0-1.22-.36-2.28-1.73-2.28-1.53,0-2.06,1.39-2.06,3v7.8H29.47v-8.5c0-1.49-.51-2.3-1.71-2.3-1.44,0-2.13,1.31-2.13,3.16v7.64H23.88Z" transform="translate(-0.02)"/><path class="b" d="M39.64,28.05h1.75v6.52a2.92,2.92,0,0,1,2.91-1.8c2.33,0,3.55,1.95,3.55,6,0,3.75-1,6.58-3.89,6.58a2.6,2.6,0,0,1-2.64-1.63c0,.4,0,1,0,1.44H39.62c0-.65,0-1.85,0-3.34Zm4.18,6.26c-1.87,0-2.5,1.68-2.5,4.78,0,2.9.48,4.7,2.33,4.7,1.61,0,2.4-1.58,2.4-5C46.05,35.73,45.36,34.31,43.82,34.31Z" transform="translate(-0.02)"/><path class="b" d="M51.33,39.38c0,2.37.41,4.46,2.33,4.46a2.23,2.23,0,0,0,2.21-2.18h1.72a3.85,3.85,0,0,1-4,3.69c-3.57,0-4.08-3.26-4.08-6.31,0-3.84,1.32-6.27,4.18-6.27,3.22,0,4,2.62,4,5.67,0,.24,0,.65,0,.94ZM55.94,38c0-2.11-.46-3.75-2.21-3.75-2.23,0-2.35,2.91-2.38,3.75Z" transform="translate(-0.02)"/><path class="b" d="M59.92,37.12c0-1.94,0-3.29,0-4.15h1.68c0,.31.07.89.07,2.16a3.32,3.32,0,0,1,3.22-2.36v1.95c-2.09.07-3.2,1.39-3.2,3.62v6.8H59.92Z" transform="translate(-0.02)"/><path class="b" d="M78.91,38.92c0,4.27-1.44,6.43-4.18,6.43s-4.2-2.09-4.2-6.41,1.66-6.17,4.27-6.17S78.91,34.82,78.91,38.92Zm-6.58,0c0,3.29.82,4.87,2.4,4.87s2.38-1.61,2.38-4.9c0-3.12-.77-4.65-2.38-4.65S72.33,35.65,72.33,39Z" transform="translate(-0.02)"/><path class="b" d="M81.47,45.14V34.48H79.89V33h1.58V31.29c0-1.8.65-3.39,2.86-3.39a3.71,3.71,0,0,1,1,.15v1.53a3.8,3.8,0,0,0-.82-.09c-1,0-1.29.6-1.29,1.84V33h1.92v1.51H83.23V45.14Z" transform="translate(-0.02)"/><path class="b" d="M91.91,40.86c.15,1.66.94,3,2.74,3s2.57-.93,2.57-2.8c0-1.71-.7-2.64-2.93-3.7-2.54-1.22-3.67-2.35-3.67-4.71a3.82,3.82,0,0,1,4.1-4c3.15,0,4,2.26,4,4.15H97c-.09-.76-.33-2.66-2.35-2.66a2.13,2.13,0,0,0-2.23,2.38c0,1.56.69,2.3,2.73,3.26C98,37.12,99,38.49,99,40.91a4.07,4.07,0,0,1-4.44,4.44c-3.26,0-4.34-2.13-4.46-4.49Z" transform="translate(-0.02)"/><path class="b" d="M100.07,33h1.73V29.73h1.73V33h2.14v1.51h-2.14v8c0,.84.19,1.37,1.1,1.37a4.52,4.52,0,0,0,.87-.08v1.37a4.8,4.8,0,0,1-1.44.19c-1.42,0-2.26-.57-2.26-2.49V34.48h-1.73Z" transform="translate(-0.02)"/><path class="b" d="M114.83,41.8c0,1.54,0,2.76,0,3.34h-1.68a12.1,12.1,0,0,1-.08-1.64,2.8,2.8,0,0,1-2.9,1.85c-1.42,0-3-.57-3-3.62V33h1.78V41.3c0,1.56.43,2.49,1.82,2.49s2.31-.81,2.31-3.43V33h1.77Z" transform="translate(-0.02)"/><path class="b" d="M125.3,28.05V42c0,1.17,0,2.4,0,3.12h-1.7c0-.32-.08-1.11-.08-1.64a2.65,2.65,0,0,1-2.85,1.85c-2.52,0-3.6-2.16-3.6-6.43,0-3.89,1.41-6.15,4-6.15A2.41,2.41,0,0,1,123.54,34v-6Zm-4.13,15.74c1.89,0,2.4-1.61,2.4-4.92,0-3.55-.51-4.56-2.26-4.56-1.44,0-2.42,1.27-2.42,4.63C118.89,42.45,119.68,43.79,121.17,43.79Z" transform="translate(-0.02)"/><path class="b" d="M129.35,39.38c0,2.37.41,4.46,2.33,4.46a2.23,2.23,0,0,0,2.21-2.18h1.73a3.86,3.86,0,0,1-4,3.69c-3.58,0-4.08-3.26-4.08-6.31,0-3.84,1.32-6.27,4.17-6.27,3.22,0,4,2.62,4,5.67,0,.24,0,.65,0,.94ZM134,38c0-2.11-.46-3.75-2.21-3.75-2.23,0-2.35,2.91-2.37,3.75Z" transform="translate(-0.02)"/><path class="b" d="M137.94,36.73c0-2.49,0-3.21,0-3.76h1.7a13.79,13.79,0,0,1,.08,1.58,2.85,2.85,0,0,1,2.88-1.8c1.75,0,3.12,1,3.12,3.72v8.67h-1.78V36.81c0-1.49-.48-2.5-1.87-2.5-1.63,0-2.33,1.08-2.33,3.58v7.25h-1.78Z" transform="translate(-0.02)"/><path class="b" d="M147.06,33h1.73V29.73h1.73V33h2.14v1.51h-2.14v8c0,.84.19,1.37,1.1,1.37a4.52,4.52,0,0,0,.87-.08v1.37a4.76,4.76,0,0,1-1.44.19c-1.42,0-2.26-.57-2.26-2.49V34.48h-1.73Z" transform="translate(-0.02)"/><path class="b" d="M158.9,30.57V28.05h1.77v2.52Zm0,2.4h1.75V45.14H158.9Z" transform="translate(-0.02)"/><path class="b" d="M163.55,36.73c0-2.49,0-3.21,0-3.76h1.7a14.64,14.64,0,0,1,.07,1.58,2.87,2.87,0,0,1,2.88-1.8c1.76,0,3.12,1,3.12,3.72v8.67h-1.77V36.81c0-1.49-.48-2.5-1.87-2.5-1.64,0-2.33,1.08-2.33,3.58v7.25h-1.78Z" transform="translate(-0.02)"/><path class="b" d="M178.94,28.84h1.8v6.89H186V28.84h1.8v16.3H186V37.31h-5.28v7.83h-1.8Z" transform="translate(-0.02)"/><path class="b" d="M190.86,30.57V28.05h1.78v2.52Zm0,2.4h1.76V45.14h-1.76Z" transform="translate(-0.02)"/><path class="b" d="M203.15,44.37c0,3.19-.77,5.42-4.27,5.42-3.15,0-3.82-2-3.89-3.33h1.78A2,2,0,0,0,199,48.3c2,0,2.45-1.48,2.45-3.93V43.24a2.76,2.76,0,0,1-2.83,1.87c-2.45,0-3.68-2.09-3.68-5.93,0-4.36,1.64-6.41,3.94-6.41,1.66,0,2.35.8,2.57,1.59a12.08,12.08,0,0,1,.1-1.39h1.67c0,.62,0,1.87,0,3.5Zm-4.1-.82c1.87,0,2.4-1.85,2.4-4.68s-.41-4.56-2.26-4.56c-1.61,0-2.47,1.68-2.47,4.85C196.72,42.11,197.53,43.55,199.05,43.55Z" transform="translate(-0.02)"/><path class="b" d="M207.85,28.05v6.4a2.89,2.89,0,0,1,2.91-1.7c1.78,0,3.07,1.13,3.07,3.72v8.67h-1.78V36.83c0-1.49-.43-2.52-1.92-2.52-1.68,0-2.28,1.39-2.28,3.51v7.32h-1.77V28.05Z" transform="translate(-0.02)"/><path class="b" d="M221.25,37.12c0-1.94,0-3.29,0-4.15h1.68c0,.31.07.89.07,2.16a3.33,3.33,0,0,1,3.22-2.36v1.95c-2.09.07-3.19,1.39-3.19,3.62v6.8h-1.75Z" transform="translate(-0.02)"/><path class="b" d="M227.8,30.57V28.05h1.77v2.52Zm0,2.4h1.75V45.14H227.8Z" transform="translate(-0.02)"/><path class="b" d="M233.32,41.63c.07,1.3.74,2.28,2.13,2.28a1.77,1.77,0,0,0,2-1.92c0-1.25-.62-1.82-2.23-2.45-2.52-1-3.24-1.87-3.24-3.57a3.12,3.12,0,0,1,3.48-3.22,3.2,3.2,0,0,1,3.5,3.48h-1.7c0-.6-.17-2-1.85-2a1.54,1.54,0,0,0-1.68,1.68c0,1,.43,1.44,2.11,2.11,2.36.89,3.39,1.76,3.39,3.84,0,2.24-1.39,3.53-3.82,3.53a3.47,3.47,0,0,1-3.81-3.72Z" transform="translate(-0.02)"/><path class="b" d="M243.09,38.7c.79-1.2,2.85-4.08,4-5.73H249c-1.08,1.53-2.23,3.09-3.36,4.63l3.72,7.54h-2L244.43,39c-.34.45-1,1.34-1.34,1.8v4.32h-1.76V28.05h1.76Z" transform="translate(-0.02)"/><path class="b" d="M262.24,43c0,.76.05,1.77.09,2.16h-1.6a6.68,6.68,0,0,1-.12-1.4,2.84,2.84,0,0,1-2.88,1.61c-2.36,0-3.2-1.82-3.2-3.53,0-2.2,1.51-3.88,4.71-3.88a11.38,11.38,0,0,1,1.27,0V36.35c0-.93-.19-2.16-1.82-2.16-1.81,0-1.93,1.3-2,2.11H255c.05-1.75.87-3.53,3.72-3.53,2.35,0,3.51,1.13,3.51,3.39Zm-1.71-3.6a6.68,6.68,0,0,0-1.2-.08c-2.16,0-3,1-3,2.4a1.92,1.92,0,0,0,1.89,2.16c1.78,0,2.35-1.27,2.35-3.84Z" transform="translate(-0.02)"/><path class="b" d="M265.14,37.12c0-1.94,0-3.29,0-4.15h1.68c0,.31.07.89.07,2.16a3.32,3.32,0,0,1,3.21-2.36v1.95c-2.08.07-3.19,1.39-3.19,3.62v6.8h-1.75Z" transform="translate(-0.02)"/><path class="b" d="M272.82,39.38c0,2.37.41,4.46,2.33,4.46a2.23,2.23,0,0,0,2.21-2.18h1.72a3.85,3.85,0,0,1-3.95,3.69c-3.58,0-4.09-3.26-4.09-6.31,0-3.84,1.32-6.27,4.18-6.27,3.22,0,4,2.62,4,5.67,0,.24,0,.65,0,.94ZM277.43,38c0-2.11-.46-3.75-2.21-3.75-2.23,0-2.35,2.91-2.38,3.75Z" transform="translate(-0.02)"/><path class="b" d="M288.37,43c0,.76.05,1.77.1,2.16h-1.61a7.43,7.43,0,0,1-.12-1.4,2.84,2.84,0,0,1-2.88,1.61c-2.35,0-3.19-1.82-3.19-3.53,0-2.2,1.51-3.88,4.7-3.88a11.49,11.49,0,0,1,1.28,0V36.35c0-.93-.2-2.16-1.83-2.16-1.8,0-1.92,1.3-2,2.11h-1.68c.05-1.75.86-3.53,3.72-3.53,2.35,0,3.5,1.13,3.5,3.39Zm-1.7-3.6a6.84,6.84,0,0,0-1.2-.08c-2.16,0-3.05,1-3.05,2.4a1.92,1.92,0,0,0,1.9,2.16c1.77,0,2.35-1.27,2.35-3.84Z" transform="translate(-0.02)"/><path class="b" d="M18.8,111.5V77.12a18.06,18.06,0,0,1-5.64,1.68V75.26a15.41,15.41,0,0,0,7-3.54h3V111.5Z" transform="translate(-0.02)"/><path class="b" d="M33.32,111.5V77.12a18.06,18.06,0,0,1-5.64,1.68V75.26a15.41,15.41,0,0,0,7-3.54h3V111.5Z" transform="translate(-0.02)"/><path class="b" d="M62.84,71.9v3.54c-5.28,9.42-9.78,23-11.64,36.06H46.58C48.26,99,53.6,84,58.4,75.86H43.16v-4Z" transform="translate(-0.02)"/><path class="b" d="M56.84,118.34a49.55,49.55,0,0,0,3.3-14.46H64.4a38.47,38.47,0,0,1-4,14.46Z" transform="translate(-0.02)"/><path class="b" d="M69.44,81.38c.06-4.14,2-10,9.48-10,6.6,0,9.06,4.32,9.06,9.84,0,5-2.22,7.56-4.8,8.52v.06c3.48,1.2,6,4,6,10.08S86.78,112,78.62,112c-7.32,0-9.78-5-10-10.26h4.26c.12,3.12,1.62,6.6,5.82,6.6,4.8,0,5.94-4.26,5.94-8.34,0-6.42-2.88-8.1-7.32-8.1H75.68V88.22h1.68c3.84,0,6.18-1.56,6.18-6.72,0-3.72-1.14-6.42-4.86-6.42-4.56,0-5,4.5-5.16,6.3Z" transform="translate(-0.02)"/><path class="b" d="M107.48,111.5V101H93.26V97.28L106,71.9h5.64V97.22h3.9L115.1,101h-3.42v10.5Zm0-25.2c0-3.54,0-7.5.18-10.5-1.8,4.68-7,15.18-10.08,21.42h9.9Z" transform="translate(-0.02)"/><path class="b" d="M119.6,100.34c0-6.42,3-9,5.1-10.08-2.4-1.38-4.14-4.14-4.14-8.52,0-5.46,3-10.32,9.54-10.32,6.24,0,9.12,4.44,9.12,9.9s-2,7.86-4.2,8.82c2.82,1.26,5.16,4.26,5.16,10.26,0,6.72-3.42,11.64-10.5,11.64C122.84,112,119.6,107,119.6,100.34Zm16.14,0c0-5.4-1.8-8.16-5.88-8.16-4.44,0-5.88,3.3-5.88,8s1.74,8.16,5.88,8.16S135.74,105.26,135.74,100.34ZM124.88,81.56c0,4.08,1.32,6.9,5.1,6.9,3.24,0,5-2,5-6.84,0-3.54-1.38-6.6-5.1-6.6S124.88,78.2,124.88,81.56Z" transform="translate(-0.02)"/><path class="b" d="M10.12,174.5c-.07.94-.48,4.75-4.44,4.75-4.34,0-4.68-4.58-4.68-8.49,0-4.76,1.27-8.29,4.88-8.29,3.93,0,4.15,3.68,4.2,4.68H8.28c0-.55-.15-3.07-2.43-3.07-2.57,0-3,3.51-3,6.68,0,3.43.38,6.91,2.85,6.91,2.19,0,2.5-2.35,2.57-3.17Z" transform="translate(-0.02)"/><path class="b" d="M19.51,176.85c0,.77,0,1.78.09,2.16H18a6.51,6.51,0,0,1-.12-1.39A2.84,2.84,0,0,1,15,179.23c-2.36,0-3.2-1.83-3.2-3.53,0-2.21,1.51-3.89,4.71-3.89a9.12,9.12,0,0,1,1.27.05v-1.63c0-.94-.19-2.16-1.82-2.16-1.81,0-1.93,1.29-2,2.11H12.28c.05-1.75.87-3.53,3.72-3.53,2.35,0,3.51,1.13,3.51,3.39Zm-1.71-3.6a7,7,0,0,0-1.2-.07c-2.16,0-3.05,1-3.05,2.4a1.92,1.92,0,0,0,1.9,2.16c1.78,0,2.35-1.27,2.35-3.84Z" transform="translate(-0.02)"/><path class="b" d="M22.41,183.48V170.4c0-1.66,0-2.79,0-3.56h1.7c0,.22.07,1,.07,1.64A2.79,2.79,0,0,1,27,166.65c2.31,0,3.55,2,3.55,6.1,0,4.39-1.51,6.48-3.88,6.48a2.55,2.55,0,0,1-2.55-1.47v5.72Zm4.1-15.29c-1.89,0-2.4,1.8-2.4,4.68s.27,4.82,2.28,4.82c1.61,0,2.43-1.87,2.43-4.85S28.1,168.19,26.51,168.19Z" transform="translate(-0.02)"/><path class="b" d="M32.9,164.44v-2.52h1.77v2.52Zm0,2.4h1.75V179H32.9Z" transform="translate(-0.02)"/><path class="b" d="M36.28,166.84H38V163.6h1.73v3.24h2.13v1.52H39.74v8c0,.84.19,1.37,1.1,1.37a4.58,4.58,0,0,0,.87-.07V179a5.14,5.14,0,0,1-1.44.19c-1.42,0-2.26-.58-2.26-2.5v-8.32H36.28Z" transform="translate(-0.02)"/><path class="b" d="M50.61,176.85c0,.77,0,1.78.1,2.16H49.1a7.24,7.24,0,0,1-.12-1.39,2.84,2.84,0,0,1-2.88,1.61c-2.35,0-3.19-1.83-3.19-3.53,0-2.21,1.51-3.89,4.7-3.89a9,9,0,0,1,1.27.05v-1.63c0-.94-.19-2.16-1.82-2.16-1.8,0-1.92,1.29-2,2.11H43.38c0-1.75.87-3.53,3.73-3.53,2.35,0,3.5,1.13,3.5,3.39Zm-1.7-3.6a7.07,7.07,0,0,0-1.2-.07c-2.17,0-3.05,1-3.05,2.4a1.92,1.92,0,0,0,1.89,2.16c1.78,0,2.36-1.27,2.36-3.84Z" transform="translate(-0.02)"/><path class="b" d="M53.51,179V161.92h1.76V179Z" transform="translate(-0.02)"/><path class="b" d="M62.9,162.71h4.24a3.65,3.65,0,0,1,3.94,4c0,2.18-1.06,3.14-2,3.47,1.25.44,2.55,1.57,2.55,4.09,0,2.92-1.78,4.77-4.59,4.77H62.9Zm3.62,6.8c2.06,0,2.81-.91,2.81-2.67a2.36,2.36,0,0,0-2.57-2.64H64.65v5.31Zm-1.87,8h2.21c1.92,0,3-1.18,3-3.31S68.71,171,66.5,171H64.65Z" transform="translate(-0.02)"/><path class="b" d="M81.31,175.68c0,1.53,0,2.76,0,3.33H79.65a12.48,12.48,0,0,1-.07-1.63,2.84,2.84,0,0,1-2.91,1.85c-1.41,0-3-.58-3-3.63v-8.76H75.4v8.33c0,1.56.43,2.5,1.83,2.5s2.3-.82,2.3-3.43v-7.4h1.78Z" transform="translate(-0.02)"/><path class="b" d="M91.77,161.92v14c0,1.18,0,2.4,0,3.12h-1.7c0-.31-.07-1.1-.07-1.63a2.66,2.66,0,0,1-2.86,1.85c-2.52,0-3.6-2.16-3.6-6.43,0-3.89,1.42-6.15,4-6.15A2.42,2.42,0,0,1,90,167.9v-6Zm-4.13,15.75c1.9,0,2.4-1.61,2.4-4.92,0-3.56-.5-4.56-2.25-4.56-1.45,0-2.43,1.27-2.43,4.63S86.15,177.67,87.64,177.67Z" transform="translate(-0.02)"/><path class="b" d="M102.28,178.24c0,3.2-.77,5.43-4.27,5.43-3.15,0-3.82-2-3.89-3.34H95.9a2,2,0,0,0,2.18,1.85c2,0,2.45-1.49,2.45-3.94v-1.12A2.77,2.77,0,0,1,97.7,179c-2.45,0-3.68-2.09-3.68-5.93,0-4.37,1.64-6.41,3.94-6.41,1.66,0,2.35.79,2.57,1.58a12.08,12.08,0,0,1,.1-1.39h1.67c0,.63,0,1.88,0,3.51Zm-4.1-.81c1.87,0,2.4-1.85,2.4-4.68s-.41-4.56-2.26-4.56c-1.61,0-2.47,1.68-2.47,4.85C95.85,176,96.66,177.43,98.18,177.43Z" transform="translate(-0.02)"/><path class="b" d="M106.36,173.25c0,2.38.41,4.47,2.33,4.47a2.23,2.23,0,0,0,2.21-2.19h1.73a3.87,3.87,0,0,1-4,3.7c-3.58,0-4.09-3.27-4.09-6.31,0-3.85,1.32-6.27,4.18-6.27,3.22,0,4,2.62,4,5.67,0,.24,0,.64,0,.93Zm4.61-1.37c0-2.11-.46-3.74-2.21-3.74-2.23,0-2.35,2.9-2.38,3.74Z" transform="translate(-0.02)"/><path class="b" d="M113.7,166.84h1.73V163.6h1.73v3.24h2.14v1.52h-2.14v8c0,.84.19,1.37,1.1,1.37a4.58,4.58,0,0,0,.87-.07V179a5.09,5.09,0,0,1-1.44.19c-1.42,0-2.26-.58-2.26-2.5v-8.32H113.7Z" transform="translate(-0.02)"/><path class="b" d="M133.19,175.68c0,1.53,0,2.76,0,3.33h-1.68a12,12,0,0,1-.08-1.63,2.82,2.82,0,0,1-2.9,1.85c-1.42,0-3-.58-3-3.63v-8.76h1.78v8.33c0,1.56.43,2.5,1.82,2.5s2.31-.82,2.31-3.43v-7.4h1.77Z" transform="translate(-0.02)"/><path class="b" d="M136.91,175.51a2.11,2.11,0,0,0,2.14,2.28,1.77,1.77,0,0,0,2-1.92c0-1.25-.63-1.83-2.24-2.45-2.52-1-3.24-1.87-3.24-3.58a3.12,3.12,0,0,1,3.48-3.21,3.2,3.2,0,0,1,3.51,3.48h-1.71c0-.6-.16-2-1.84-2a1.53,1.53,0,0,0-1.68,1.68c0,1,.43,1.44,2.11,2.11,2.35.89,3.38,1.75,3.38,3.84s-1.39,3.53-3.81,3.53a3.48,3.48,0,0,1-3.82-3.72Z" transform="translate(-0.02)"/><path class="b" d="M146.1,173.25c0,2.38.41,4.47,2.33,4.47a2.23,2.23,0,0,0,2.21-2.19h1.73a3.86,3.86,0,0,1-4,3.7c-3.58,0-4.08-3.27-4.08-6.31,0-3.85,1.32-6.27,4.17-6.27,3.22,0,4,2.62,4,5.67,0,.24,0,.64,0,.93Zm4.61-1.37c0-2.11-.45-3.74-2.21-3.74-2.23,0-2.35,2.9-2.37,3.74Z" transform="translate(-0.02)"/><path class="b" d="M162.52,161.92v14c0,1.18,0,2.4,0,3.12h-1.7c0-.31-.07-1.1-.07-1.63a2.66,2.66,0,0,1-2.86,1.85c-2.52,0-3.6-2.16-3.6-6.43,0-3.89,1.42-6.15,4-6.15a2.42,2.42,0,0,1,2.48,1.25v-6Zm-4.13,15.75c1.9,0,2.4-1.61,2.4-4.92,0-3.56-.5-4.56-2.25-4.56-1.45,0-2.43,1.27-2.43,4.63S156.9,177.67,158.39,177.67Z" transform="translate(-0.02)"/><path class="b" d="M170,164.44v-2.52h1.78v2.52Zm0,2.4h1.76V179H170Z" transform="translate(-0.02)"/><path class="b" d="M174.64,170.61c0-2.5,0-3.21,0-3.77h1.71c0,.29.07.77.07,1.59a2.85,2.85,0,0,1,2.88-1.8c1.75,0,3.12,1,3.12,3.72V179h-1.77v-8.33c0-1.49-.49-2.49-1.88-2.49-1.63,0-2.33,1.08-2.33,3.57V179h-1.77Z" transform="translate(-0.02)"/><path class="b" d="M190.05,179V168.36h-1.59v-1.52h1.59v-1.68c0-1.8.64-3.38,2.85-3.38a4.17,4.17,0,0,1,1,.14v1.54a3.67,3.67,0,0,0-.82-.1c-1,0-1.29.6-1.29,1.85v1.63h1.92v1.52H191.8V179Z" transform="translate(-0.02)"/><path class="b" d="M195.3,179V161.92h1.75V179Z" transform="translate(-0.02)"/><path class="b" d="M207.71,172.8c0,4.27-1.44,6.43-4.18,6.43s-4.2-2.09-4.2-6.41,1.66-6.17,4.28-6.17S207.71,168.69,207.71,172.8Zm-6.58,0c0,3.29.82,4.88,2.4,4.88s2.38-1.61,2.38-4.9c0-3.12-.77-4.66-2.38-4.66S201.13,169.53,201.13,172.84Z" transform="translate(-0.02)"/><path class="b" d="M217.84,172.8c0,4.27-1.44,6.43-4.18,6.43s-4.2-2.09-4.2-6.41,1.66-6.17,4.27-6.17S217.84,168.69,217.84,172.8Zm-6.58,0c0,3.29.82,4.88,2.4,4.88s2.38-1.61,2.38-4.9c0-3.12-.77-4.66-2.38-4.66S211.26,169.53,211.26,172.84Z" transform="translate(-0.02)"/><path class="b" d="M227.8,161.92v14c0,1.18,0,2.4,0,3.12h-1.7c0-.31-.07-1.1-.07-1.63a2.67,2.67,0,0,1-2.86,1.85c-2.52,0-3.6-2.16-3.6-6.43,0-3.89,1.41-6.15,4-6.15a2.42,2.42,0,0,1,2.48,1.25v-6Zm-4.13,15.75c1.9,0,2.4-1.61,2.4-4.92,0-3.56-.5-4.56-2.26-4.56-1.44,0-2.42,1.27-2.42,4.63S222.18,177.67,223.67,177.67Z" transform="translate(-0.02)"/><path class="b" d="M230.68,183.48V170.4c0-1.66,0-2.79,0-3.56h1.71c0,.22.07,1,.07,1.64a2.79,2.79,0,0,1,2.88-1.83c2.3,0,3.55,2,3.55,6.1,0,4.39-1.51,6.48-3.89,6.48a2.55,2.55,0,0,1-2.54-1.47v5.72Zm4.1-15.29c-1.9,0-2.4,1.8-2.4,4.68s.26,4.82,2.28,4.82c1.61,0,2.42-1.87,2.42-4.85S236.37,168.19,234.78,168.19Z" transform="translate(-0.02)"/><path class="b" d="M241.17,179V161.92h1.75V179Z" transform="translate(-0.02)"/><path class="b" d="M252.76,176.85c0,.77,0,1.78.09,2.16h-1.6a6.51,6.51,0,0,1-.12-1.39,2.84,2.84,0,0,1-2.88,1.61c-2.36,0-3.2-1.83-3.2-3.53,0-2.21,1.51-3.89,4.71-3.89a9.12,9.12,0,0,1,1.27.05v-1.63c0-.94-.19-2.16-1.82-2.16-1.81,0-1.93,1.29-2,2.11h-1.68c.05-1.75.87-3.53,3.72-3.53,2.35,0,3.51,1.13,3.51,3.39Zm-1.71-3.6a7,7,0,0,0-1.2-.07c-2.16,0-3,1-3,2.4a1.92,1.92,0,0,0,1.9,2.16c1.78,0,2.35-1.27,2.35-3.84Z" transform="translate(-0.02)"/><path class="b" d="M255.66,164.44v-2.52h1.78v2.52Zm0,2.4h1.75V179h-1.75Z" transform="translate(-0.02)"/><path class="b" d="M260.32,170.61c0-2.5,0-3.21,0-3.77H262c0,.29.07.77.07,1.59a2.85,2.85,0,0,1,2.88-1.8c1.75,0,3.12,1,3.12,3.72V179h-1.78v-8.33c0-1.49-.48-2.49-1.87-2.49-1.63,0-2.33,1.08-2.33,3.57V179h-1.77Z" transform="translate(-0.02)"/><path class="b" d="M274.48,177.72c1.24-2.12,3.67-6.39,5.35-9.34h-5v-1.54h7v1.37c-1.2,2.11-3.72,6.6-5.28,9.29h5.35l-.21,1.51h-7.2Z" transform="translate(-0.02)"/><path class="b" d="M291.32,172.8c0,4.27-1.44,6.43-4.17,6.43s-4.2-2.09-4.2-6.41,1.65-6.17,4.27-6.17S291.32,168.69,291.32,172.8Zm-6.57,0c0,3.29.81,4.88,2.4,4.88s2.37-1.61,2.37-4.9c0-3.12-.76-4.66-2.37-4.66S284.75,169.53,284.75,172.84Z" transform="translate(-0.02)"/><path class="b" d="M293.6,170.61c0-2.5,0-3.21,0-3.77h1.7a14,14,0,0,1,.08,1.59,2.85,2.85,0,0,1,2.88-1.8c1.75,0,3.12,1,3.12,3.72V179h-1.78v-8.33c0-1.49-.48-2.49-1.87-2.49-1.63,0-2.33,1.08-2.33,3.57V179H293.6Z" transform="translate(-0.02)"/><path class="b" d="M305.41,173.25c0,2.38.41,4.47,2.33,4.47a2.23,2.23,0,0,0,2.21-2.19h1.73a3.86,3.86,0,0,1-4,3.7c-3.58,0-4.09-3.27-4.09-6.31,0-3.85,1.33-6.27,4.18-6.27,3.22,0,4,2.62,4,5.67,0,.24,0,.64,0,.93Zm4.61-1.37c0-2.11-.46-3.74-2.21-3.74-2.23,0-2.35,2.9-2.37,3.74Z" transform="translate(-0.02)"/><path class="b" d="M315,175.51a2.11,2.11,0,0,0,2.14,2.28,1.77,1.77,0,0,0,2-1.92c0-1.25-.63-1.83-2.24-2.45-2.52-1-3.24-1.87-3.24-3.58a3.12,3.12,0,0,1,3.48-3.21,3.2,3.2,0,0,1,3.51,3.48h-1.71c0-.6-.16-2-1.84-2a1.53,1.53,0,0,0-1.68,1.68c0,1,.43,1.44,2.11,2.11,2.35.89,3.38,1.75,3.38,3.84s-1.39,3.53-3.81,3.53a3.48,3.48,0,0,1-3.82-3.72Z" transform="translate(-0.02)"/><path class="c" d="M108.06,597a83.35,83.35,0,0,0,40.57-14.91L100.4,513.55Z" transform="translate(-0.02)"/><path class="d" d="M100.4,597.36c2.58,0,5.13-.13,7.66-.36l-7.66-83.45Z" transform="translate(-0.02)"/><path class="e" d="M148.63,582.09A83.87,83.87,0,0,0,183,499.27L100.4,513.55Z" transform="translate(-0.02)"/><path class="f" d="M183,499.27a83.8,83.8,0,0,0-92.42-68.95l9.84,83.23Z" transform="translate(-0.02)"/><path class="g" d="M16.59,513.55a83.81,83.81,0,0,0,83.81,83.81V513.55l-9.84-83.23A83.81,83.81,0,0,0,16.59,513.55Z" transform="translate(-0.02)"/><path class="b" d="M237.45,364.92v5.63h-1.36V358.33h3.21a2.82,2.82,0,0,1,3.12,3.15c0,1.83-.89,2.61-1.64,2.86,1.13.4,1.49,1.4,1.49,3.11v.49a13.07,13.07,0,0,0,.18,2.61H241.1a12.22,12.22,0,0,1-.18-2.65v-.41c0-1.73-.34-2.57-2-2.57Zm0-1.14H239c1.5,0,2.06-.84,2.06-2.27,0-1.22-.56-2.05-1.91-2.05h-1.69Z" transform="translate(-0.02)"/><path class="b" d="M250.24,365.89c0,3.2-1.08,4.82-3.13,4.82s-3.15-1.56-3.15-4.8,1.24-4.63,3.21-4.63S250.24,362.81,250.24,365.89Zm-4.93,0c0,2.47.61,3.66,1.8,3.66s1.78-1.21,1.78-3.67-.57-3.5-1.78-3.5S245.31,363.44,245.31,365.92Z" transform="translate(-0.02)"/><path class="b" d="M257.84,365.89c0,3.2-1.08,4.82-3.13,4.82s-3.15-1.56-3.15-4.8,1.24-4.63,3.2-4.63S257.84,362.81,257.84,365.89Zm-4.93,0c0,2.47.61,3.66,1.8,3.66s1.78-1.21,1.78-3.67-.58-3.5-1.78-3.5S252.91,363.44,252.91,365.92Z" transform="translate(-0.02)"/><path class="b" d="M259.76,370.55v-8h-1.18v-1.14h1.18v-1.26c0-1.35.49-2.54,2.15-2.54a3.21,3.21,0,0,1,.75.11v1.15a3.21,3.21,0,0,0-.61-.07c-.72,0-1,.45-1,1.39v1.22h1.44v1.14h-1.44v8Z" transform="translate(-0.02)"/><path class="b" d="M235.52,399.43v-.12c0-1.86,1.35-4.8,4.5-8.22,2.7-2.91,3.6-4.11,3.6-6.57,0-1.95-.6-4-3.09-4-2.1,0-3.18,1.59-3.3,4.2h-1.32c0-2.79,1.41-5.4,4.62-5.4,3.42,0,4.47,2.49,4.47,5.13,0,3-1.11,4.38-3.78,7.2s-3.87,5.16-4.17,6.57h8.52l-.21,1.2Z" transform="translate(-0.02)"/><path class="b" d="M253.4,399.43v-5.61h-7.23v-1.2L253,379.57h1.68v13h2l-.18,1.23h-1.86v5.61Zm0-13.23c0-1.5,0-3.75.06-5.16-1.08,2.46-4.11,8.19-5.85,11.55h5.79Z" transform="translate(-0.02)"/><path class="b" d="M265.31,384.64c0,3.42-.9,5.64-3.51,5.67s-3.42-2.22-3.42-5.58c0-3.51,1.32-5.4,3.48-5.4S265.31,380.92,265.31,384.64Zm-5.67.09c0,3.21.75,4.44,2.22,4.44s2.22-1.23,2.22-4.47c0-2.7-.6-4.23-2.25-4.23C260.39,380.47,259.64,381.64,259.64,384.73Zm.93,14.7,10.92-19.86h1.32l-10.95,19.86ZM275,394.06c0,3.42-.87,5.64-3.48,5.67s-3.45-2.16-3.45-5.58,1.32-5.4,3.51-5.4S275,390.43,275,394.06Zm-5.67.09c0,3.15.75,4.44,2.25,4.44s2.19-1.26,2.19-4.47c0-2.64-.6-4.23-2.22-4.23C270.11,389.89,269.36,391.24,269.36,394.15Z" transform="translate(-0.02)"/><path class="b" d="M285.27,400.87V399.5a2.81,2.81,0,0,1-2.77-2.9h.79a2.28,2.28,0,0,0,2,2.22v-5.37c-1.51-.77-2.48-1.58-2.48-3.18a2.55,2.55,0,0,1,2.48-2.81v-1.08H286v1.08a2.55,2.55,0,0,1,2.37,2.68h-.77a1.94,1.94,0,0,0-1.6-2v4.73c1.76.9,2.61,1.91,2.61,3.53s-.8,2.94-2.61,3.06v1.37Zm0-8.3v-4.41a1.79,1.79,0,0,0-1.73,2C283.54,391.31,284.1,391.94,285.27,392.57Zm.69,1.24v5c1.17-.13,1.79-.81,1.79-2.36C287.75,395.31,287.23,394.57,286,393.81Z" transform="translate(-0.02)"/><path class="b" d="M291.28,399.43V388.52a5.39,5.39,0,0,1-1.94.81v-.68a6.46,6.46,0,0,0,2.16-1.17h.56v11.95Z" transform="translate(-0.02)"/><path class="b" d="M295,397.27a1.67,1.67,0,0,0,1.77,1.6c1.91,0,2.07-2.88,2.14-5.6a2.14,2.14,0,0,1-2.18,1.41c-1.74,0-2.63-1.34-2.63-3.53,0-2.61,1.21-3.78,2.83-3.78s2.77,1,2.77,5c0,5-.61,7.25-3,7.25a2.36,2.36,0,0,1-2.52-2.32Zm-.1-6.12c0,1.49.48,2.79,1.92,2.79s2-1.17,2-2.63-.27-3.22-1.95-3.22C295.73,388.09,294.94,389.08,294.94,391.15Z" transform="translate(-0.02)"/><path class="b" d="M306.49,388.25h-3.78c-.09,1.35-.3,3.71-.38,4.45a2.16,2.16,0,0,1,2-1c1.89,0,2.65,1.54,2.65,3.69s-.68,4.19-2.88,4.19-2.7-1.58-2.79-2.93h.83c.07.83.32,2.21,2,2.21s2-1.53,2-3.44c0-1.62-.43-3-1.89-3a2,2,0,0,0-2,1.64l-.76-.18c.16-1.32.43-4.49.56-6.38h4.59Z" transform="translate(-0.02)"/><path class="b" d="M307.66,401.57a12.7,12.7,0,0,0,.94-4.14h.79a10.65,10.65,0,0,1-1,4.14Z" transform="translate(-0.02)"/><path class="b" d="M316.45,387.51v.69a35.65,35.65,0,0,0-3.66,11.23H312a35.32,35.32,0,0,1,3.68-11.16h-4.83v-.76Z" transform="translate(-0.02)"/><path class="b" d="M317.38,396.14c0-2.09.94-2.81,1.59-3.16a2.71,2.71,0,0,1-1.28-2.59c0-1.44.72-3,2.63-3s2.48,1.51,2.48,2.91c0,1.66-.65,2.4-1.31,2.67.92.38,1.6,1.35,1.6,3.19s-.9,3.45-2.9,3.45S317.38,398,317.38,396.14Zm4.92,0c0-1.8-.6-2.79-2.06-2.79s-2.07,1.23-2.07,2.72.6,2.77,2.06,2.77S322.3,397.76,322.3,396.17Zm-3.8-5.87c0,1.28.41,2.34,1.78,2.34,1.1,0,1.75-.65,1.75-2.32,0-1.12-.47-2.23-1.77-2.23S318.5,389.26,318.5,390.3Z" transform="translate(-0.02)"/><path class="b" d="M328.69,399.43v-3.37h-4.34v-.72l4.12-7.83h1v7.81h1.22l-.1.74h-1.12v3.37Zm0-7.94c0-.9,0-2.25,0-3.1-.65,1.48-2.46,4.92-3.51,6.93h3.48Z" transform="translate(-0.02)"/><path class="b" d="M331,401.57a13,13,0,0,0,.94-4.14h.79a10.46,10.46,0,0,1-1.05,4.14Z" transform="translate(-0.02)"/><path class="b" d="M338.51,389.85c0-.12-.1-1.76-1.65-1.76-2.18,0-2.23,3.45-2.29,5a2.43,2.43,0,0,1,2.31-1.4c1.92,0,2.7,1.6,2.7,3.79s-.72,4.09-2.9,4.09c-2.47,0-2.92-2.52-2.92-6,0-3.73.74-6.28,3.13-6.28a2.39,2.39,0,0,1,2.38,2.48Zm.24,5.71c0-1.8-.52-3.12-2-3.12a2.26,2.26,0,0,0-2.22,2.45c0,1.61.34,4,2.13,4C337.92,398.89,338.75,397.86,338.75,395.56Z" transform="translate(-0.02)"/><path class="b" d="M345.14,399.43v-3.37H340.8v-.72l4.12-7.83h1v7.81h1.23l-.11.74h-1.12v3.37Zm0-7.94c0-.9,0-2.25,0-3.1-.64,1.48-2.46,4.92-3.51,6.93h3.48Z" transform="translate(-0.02)"/><path class="b" d="M349.6,399.43V388.52a5.39,5.39,0,0,1-1.94.81v-.68a6.46,6.46,0,0,0,2.16-1.17h.56v11.95Z" transform="translate(-0.02)"/><path class="b" d="M236.09,420.48h5.64v1.19h-4.28v4.09h4V427h-4v5.76h-1.36Z" transform="translate(-0.02)"/><path class="b" d="M243.06,432.71V419.89h1.32v12.82Z" transform="translate(-0.02)"/><path class="b" d="M252.37,428.05c0,3.2-1.08,4.82-3.13,4.82s-3.16-1.56-3.16-4.8,1.25-4.63,3.21-4.63S252.37,425,252.37,428.05Zm-4.94,0c0,2.47.62,3.66,1.81,3.66s1.78-1.21,1.78-3.67-.58-3.5-1.78-3.5S247.43,425.6,247.43,428.08Z" transform="translate(-0.02)"/><path class="b" d="M260,428.05c0,3.2-1.08,4.82-3.13,4.82s-3.15-1.56-3.15-4.8,1.24-4.63,3.2-4.63S260,425,260,428.05Zm-4.93,0c0,2.47.61,3.66,1.8,3.66s1.78-1.21,1.78-3.67-.57-3.5-1.78-3.5S255,425.6,255,428.08Z" transform="translate(-0.02)"/><path class="b" d="M267.43,419.89v10.48c0,.88,0,1.8,0,2.34h-1.28c0-.23-.05-.83-.05-1.22a2,2,0,0,1-2.14,1.38c-1.89,0-2.7-1.62-2.7-4.82,0-2.92,1.06-4.61,3-4.61a1.83,1.83,0,0,1,1.86.93v-4.48Zm-3.09,11.81c1.42,0,1.8-1.2,1.8-3.69,0-2.66-.38-3.42-1.7-3.42-1.08,0-1.81,1-1.81,3.48S263.22,431.7,264.34,431.7Z" transform="translate(-0.02)"/><path class="b" d="M238.28,461.59V443.41a9,9,0,0,1-3.24,1.35v-1.14a10.31,10.31,0,0,0,3.6-1.95h.93v19.92Z" transform="translate(-0.02)"/><path class="b" d="M243.11,456.1c0-3.48,1.56-4.68,2.64-5.25-1.23-.63-2.13-2.1-2.13-4.32,0-2.4,1.2-5,4.38-5s4.14,2.52,4.14,4.86c0,2.76-1.08,4-2.19,4.44,1.53.63,2.67,2.25,2.67,5.31,0,3.24-1.5,5.76-4.83,5.76S243.11,459.16,243.11,456.1Zm8.19.06c0-3-1-4.65-3.42-4.65-2.67,0-3.45,2-3.45,4.53s1,4.62,3.42,4.62S251.3,458.8,251.3,456.16ZM245,446.38c0,2.13.69,3.9,3,3.9,1.83,0,2.91-1.08,2.91-3.87,0-1.86-.78-3.72-2.94-3.72S245,444.64,245,446.38Z" transform="translate(-0.02)"/><path class="b" d="M261.65,446.8c0,3.42-.9,5.64-3.51,5.67s-3.42-2.22-3.42-5.58,1.32-5.4,3.48-5.4S261.65,443.08,261.65,446.8Zm-5.67.09c0,3.21.75,4.44,2.22,4.44s2.22-1.23,2.22-4.47c0-2.7-.6-4.23-2.25-4.23C256.73,442.63,256,443.8,256,446.89Zm.93,14.7,10.92-19.86h1.32L258.2,461.59Zm14.46-5.37c0,3.42-.87,5.64-3.48,5.67s-3.45-2.16-3.45-5.58,1.32-5.4,3.51-5.4S271.37,452.59,271.37,456.22Zm-5.67.09c0,3.15.75,4.44,2.25,4.44s2.19-1.26,2.19-4.47c0-2.64-.6-4.23-2.22-4.23S265.7,453.4,265.7,456.31Z" transform="translate(-0.02)"/><path class="b" d="M281.61,463v-1.37a2.81,2.81,0,0,1-2.77-2.9h.79a2.28,2.28,0,0,0,2,2.22v-5.37c-1.51-.77-2.48-1.58-2.48-3.19a2.54,2.54,0,0,1,2.48-2.8v-1.08h.69v1.08a2.54,2.54,0,0,1,2.37,2.68h-.77a1.93,1.93,0,0,0-1.6-2v4.73c1.76.9,2.61,1.91,2.61,3.53s-.8,2.94-2.61,3.06V463Zm0-8.3v-4.41a1.79,1.79,0,0,0-1.73,2.05C279.88,453.47,280.44,454.1,281.61,454.73Zm.69,1.24v5c1.17-.13,1.8-.81,1.8-2.36C284.1,457.47,283.57,456.73,282.3,456Z" transform="translate(-0.02)"/><path class="b" d="M287.62,461.59V450.68a5.39,5.39,0,0,1-1.94.81v-.69a6.12,6.12,0,0,0,2.16-1.17h.56v12Z" transform="translate(-0.02)"/><path class="b" d="M294.63,461.59v-3.37h-4.34v-.72l4.12-7.83h1v7.81h1.22l-.11.74h-1.11v3.37Zm0-7.94c0-.9,0-2.25,0-3.1-.65,1.48-2.46,4.92-3.51,6.93h3.48Z" transform="translate(-0.02)"/><path class="b" d="M303,450.41h-3.79c-.08,1.35-.3,3.71-.37,4.45a2.13,2.13,0,0,1,2-1c1.9,0,2.65,1.55,2.65,3.7s-.68,4.19-2.88,4.19-2.7-1.58-2.79-2.93h.83c.07.83.32,2.21,2,2.21s2-1.53,2-3.44c0-1.62-.43-3-1.89-3a2,2,0,0,0-2,1.63L298,456c.16-1.31.43-4.48.56-6.37h4.59Z" transform="translate(-0.02)"/><path class="b" d="M304.16,463.73a12.7,12.7,0,0,0,.94-4.14h.79a10.65,10.65,0,0,1-1,4.14Z" transform="translate(-0.02)"/><path class="b" d="M307.55,452.3a2.56,2.56,0,0,1,2.61-2.77c1.87,0,2.47,1.36,2.47,2.89s-.67,2.35-1.44,2.62h0c1.09.38,1.8,1.26,1.8,3.15,0,1.68-.67,3.55-2.92,3.55s-2.76-1.65-2.81-3H308a2.1,2.1,0,0,0,2.06,2.25c1.73,0,2.09-1.6,2.09-2.79,0-2.3-1.16-2.79-2.43-2.79h-.53v-.7h.53c1.18,0,2.08-.56,2.08-2.31,0-1.24-.45-2.19-1.71-2.19-1.65,0-1.8,1.6-1.83,2.05Z" transform="translate(-0.02)"/><path class="b" d="M319.84,449.67v.68a35.54,35.54,0,0,0-3.65,11.24h-.83A35.31,35.31,0,0,1,319,450.43h-4.82v-.76Z" transform="translate(-0.02)"/><path class="b" d="M325.66,452c0-.13-.11-1.76-1.66-1.76-2.18,0-2.23,3.45-2.29,5a2.44,2.44,0,0,1,2.31-1.41c1.93,0,2.7,1.61,2.7,3.8s-.72,4.09-2.9,4.09c-2.47,0-2.92-2.52-2.92-6,0-3.73.74-6.28,3.14-6.28a2.37,2.37,0,0,1,2.37,2.48Zm.23,5.71c0-1.8-.52-3.12-2-3.12a2.27,2.27,0,0,0-2.22,2.45c0,1.6.35,4,2.13,4C325.06,461.05,325.89,460,325.89,457.72Z" transform="translate(-0.02)"/><path class="b" d="M327.42,463.73a13,13,0,0,0,.94-4.14h.79a10.46,10.46,0,0,1-1,4.14Z" transform="translate(-0.02)"/><path class="b" d="M335,452c0-.13-.11-1.76-1.66-1.76-2.18,0-2.23,3.45-2.29,5a2.44,2.44,0,0,1,2.31-1.41c1.92,0,2.7,1.61,2.7,3.8s-.72,4.09-2.9,4.09c-2.47,0-2.92-2.52-2.92-6,0-3.73.74-6.28,3.13-6.28A2.38,2.38,0,0,1,335.7,452Zm.23,5.71c0-1.8-.52-3.12-2-3.12a2.26,2.26,0,0,0-2.22,2.45c0,1.6.34,4,2.13,4C334.35,461.05,335.18,460,335.18,457.72Z" transform="translate(-0.02)"/><path class="b" d="M337.54,452.3a2.56,2.56,0,0,1,2.61-2.77c1.87,0,2.46,1.36,2.46,2.89s-.66,2.35-1.44,2.62h0c1.1.38,1.8,1.26,1.8,3.15,0,1.68-.66,3.55-2.91,3.55s-2.76-1.65-2.81-3H338a2.1,2.1,0,0,0,2.05,2.25c1.73,0,2.09-1.6,2.09-2.79,0-2.3-1.15-2.79-2.43-2.79h-.52v-.7h.52c1.19,0,2.09-.56,2.09-2.31,0-1.24-.45-2.19-1.71-2.19-1.66,0-1.8,1.6-1.84,2.05Z" transform="translate(-0.02)"/><path class="b" d="M350.44,455.49c0,4.21-.72,6.28-2.91,6.28s-2.9-2.32-2.9-6.3c0-4.32,1-5.94,2.95-5.94C349.74,449.53,350.44,451.43,350.44,455.49Zm-5,0c0,3.67.46,5.58,2.08,5.58s2.08-1.8,2.08-5.55-.58-5.25-2.06-5.25S345.46,451.49,345.46,455.47Z" transform="translate(-0.02)"/><path class="b" d="M236.69,491.66c.11,1.25.7,2.25,2.05,2.25s1.93-.7,1.93-2.1-.52-2-2.2-2.77c-1.91-.92-2.75-1.77-2.75-3.53a2.86,2.86,0,0,1,3.07-3c2.36,0,3,1.69,3,3.12H240.5c-.07-.58-.25-2-1.76-2a1.59,1.59,0,0,0-1.67,1.78c0,1.17.52,1.73,2.05,2.45,2.14,1,2.92,2.05,2.92,3.87a3.05,3.05,0,0,1-3.33,3.33c-2.45,0-3.26-1.6-3.35-3.37Z" transform="translate(-0.02)"/><path class="b" d="M249.22,493.25c0,.57,0,1.33.07,1.62h-1.21a5.69,5.69,0,0,1-.09-1.05,2.12,2.12,0,0,1-2.16,1.21,2.36,2.36,0,0,1-2.39-2.65c0-1.65,1.13-2.91,3.53-2.91a8.47,8.47,0,0,1,.95,0v-1.22c0-.7-.14-1.62-1.37-1.62s-1.44,1-1.49,1.58H243.8a2.48,2.48,0,0,1,2.79-2.64c1.76,0,2.63.84,2.63,2.54Zm-1.28-2.7a4.9,4.9,0,0,0-.9-.06c-1.62,0-2.29.78-2.29,1.8a1.44,1.44,0,0,0,1.42,1.62c1.34,0,1.77-1,1.77-2.88Z" transform="translate(-0.02)"/><path class="b" d="M251.39,488.57c0-1.88,0-2.42,0-2.83h1.27a11.24,11.24,0,0,1,.06,1.19,2.15,2.15,0,0,1,2.16-1.35c1.31,0,2.34.75,2.34,2.79v6.5h-1.33v-6.25c0-1.12-.36-1.87-1.41-1.87-1.22,0-1.74.81-1.74,2.68v5.44h-1.34Z" transform="translate(-0.02)"/><path class="b" d="M265.08,482.05v10.48c0,.88,0,1.8,0,2.34h-1.28c0-.23-.05-.83-.05-1.22a2,2,0,0,1-2.14,1.38c-1.89,0-2.7-1.62-2.7-4.82,0-2.92,1.06-4.61,3-4.61a1.82,1.82,0,0,1,1.85.93v-4.48ZM262,493.86c1.42,0,1.8-1.21,1.8-3.69,0-2.67-.38-3.42-1.69-3.42-1.08,0-1.82.95-1.82,3.47S260.86,493.86,262,493.86Z" transform="translate(-0.02)"/><path class="b" d="M267.84,485.74c1,3.82,1.73,6.55,1.86,7.53h0c.18-1,1-4.18,1.87-7.53h1.35l-2.66,9.6c-.74,2.66-1.45,3-2.74,3a4.8,4.8,0,0,1-.67-.05v-1.17a5.46,5.46,0,0,0,.62,0c.95,0,1.22-.64,1.58-2.1l-2.68-9.33Z" transform="translate(-0.02)"/><path class="b" d="M236.18,518.26c0-3.48,1.56-4.68,2.64-5.25-1.23-.63-2.13-2.1-2.13-4.32,0-2.4,1.2-5,4.38-5s4.14,2.52,4.14,4.86c0,2.76-1.08,4-2.19,4.44,1.53.63,2.67,2.25,2.67,5.31,0,3.24-1.5,5.76-4.83,5.76S236.18,521.32,236.18,518.26Zm8.19.06c0-3-1-4.65-3.42-4.65-2.67,0-3.45,2-3.45,4.53s1,4.62,3.42,4.62S244.37,521,244.37,518.32ZM238,508.54c0,2.13.69,3.9,3,3.9,1.83,0,2.91-1.08,2.91-3.87,0-1.86-.78-3.72-2.94-3.72S238,506.8,238,508.54Z" transform="translate(-0.02)"/><path class="b" d="M254.72,509c0,3.42-.9,5.64-3.51,5.67s-3.42-2.22-3.42-5.58c0-3.51,1.32-5.4,3.48-5.4S254.72,505.24,254.72,509Zm-5.67.09c0,3.21.75,4.44,2.22,4.44s2.22-1.23,2.22-4.47c0-2.7-.6-4.23-2.25-4.23C249.8,504.79,249.05,506,249.05,509.05Zm.93,14.7,10.92-19.86h1.32l-11,19.86Zm14.46-5.37c0,3.42-.87,5.64-3.48,5.67s-3.45-2.16-3.45-5.58,1.32-5.4,3.51-5.4S264.44,514.75,264.44,518.38Zm-5.67.09c0,3.15.75,4.44,2.25,4.44s2.19-1.26,2.19-4.47c0-2.64-.6-4.23-2.22-4.23S258.77,515.56,258.77,518.47Z" transform="translate(-0.02)"/><path class="b" d="M274.68,525.19v-1.37a2.81,2.81,0,0,1-2.77-2.9h.79a2.28,2.28,0,0,0,2,2.22v-5.37c-1.51-.77-2.48-1.58-2.48-3.19a2.55,2.55,0,0,1,2.48-2.81v-1.08h.69v1.08a2.55,2.55,0,0,1,2.37,2.69H277a1.93,1.93,0,0,0-1.6-2v4.73c1.76.9,2.61,1.91,2.61,3.53s-.8,2.93-2.61,3.06v1.37Zm0-8.3v-4.41a1.79,1.79,0,0,0-1.73,2C273,515.63,273.51,516.26,274.68,516.89Zm.69,1.24v5c1.17-.13,1.8-.81,1.8-2.36C277.17,519.63,276.64,518.89,275.37,518.13Z" transform="translate(-0.02)"/><path class="b" d="M284.26,514.17c0-.13-.11-1.77-1.66-1.77-2.18,0-2.23,3.46-2.29,5.05a2.44,2.44,0,0,1,2.31-1.41c1.93,0,2.7,1.61,2.7,3.8s-.72,4.09-2.9,4.09c-2.47,0-2.92-2.52-2.92-6,0-3.73.74-6.28,3.14-6.28a2.37,2.37,0,0,1,2.37,2.48Zm.23,5.71c0-1.8-.52-3.12-2-3.12a2.27,2.27,0,0,0-2.22,2.45c0,1.6.35,4,2.13,4C283.66,523.21,284.49,522.18,284.49,519.88Z" transform="translate(-0.02)"/><path class="b" d="M291.94,511.83v.68a35.54,35.54,0,0,0-3.65,11.24h-.83a35.31,35.31,0,0,1,3.67-11.16h-4.82v-.76Z" transform="translate(-0.02)"/><path class="b" d="M290.12,525.89a12.76,12.76,0,0,0,.94-4.14h.79a10.65,10.65,0,0,1-1,4.14Z" transform="translate(-0.02)"/><path class="b" d="M297,523.75v-3.37h-4.34v-.72l4.13-7.83h1v7.81H299l-.11.74h-1.12v3.37Zm0-7.94c0-.9,0-2.25,0-3.1-.65,1.48-2.47,4.92-3.51,6.93H297Z" transform="translate(-0.02)"/><path class="b" d="M300,523.75v-.07c0-1.12.81-2.88,2.7-4.94,1.62-1.74,2.16-2.46,2.16-3.94,0-1.17-.36-2.4-1.85-2.4-1.27,0-1.91,1-2,2.53h-.79c0-1.68.85-3.24,2.78-3.24s2.68,1.49,2.68,3.07c0,1.79-.67,2.63-2.27,4.33a9,9,0,0,0-2.5,3.94H306l-.13.72Z" transform="translate(-0.02)"/><path class="b" d="M307,523.75v-.07c0-1.12.81-2.88,2.7-4.94,1.62-1.74,2.17-2.46,2.17-3.94,0-1.17-.37-2.4-1.86-2.4-1.26,0-1.91,1-2,2.53h-.79c0-1.68.84-3.24,2.77-3.24s2.68,1.49,2.68,3.07c0,1.79-.66,2.63-2.27,4.33A9.08,9.08,0,0,0,308,523h5.12l-.13.72Z" transform="translate(-0.02)"/><path class="b" d="M313.76,525.89a13,13,0,0,0,.93-4.14h.8a10.46,10.46,0,0,1-1.05,4.14Z" transform="translate(-0.02)"/><path class="b" d="M322.56,517.65c0,4.21-.72,6.28-2.92,6.28s-2.89-2.32-2.89-6.3c0-4.32,1-5.94,2.95-5.94C321.86,511.69,322.56,513.59,322.56,517.65Zm-5,0c0,3.67.47,5.58,2.09,5.58s2.07-1.8,2.07-5.55-.57-5.26-2.05-5.26S317.57,513.65,317.57,517.63Z" transform="translate(-0.02)"/><path class="b" d="M329,514.17c0-.13-.1-1.77-1.65-1.77-2.18,0-2.23,3.46-2.29,5.05a2.42,2.42,0,0,1,2.31-1.41c1.92,0,2.7,1.61,2.7,3.8s-.72,4.09-2.9,4.09c-2.47,0-2.92-2.52-2.92-6,0-3.73.74-6.28,3.13-6.28a2.39,2.39,0,0,1,2.38,2.48Zm.24,5.71c0-1.8-.52-3.12-2-3.12a2.26,2.26,0,0,0-2.22,2.45c0,1.6.34,4,2.13,4C328.41,523.21,329.24,522.18,329.24,519.88Z" transform="translate(-0.02)"/><path class="b" d="M331.68,520.45c0-2.09.94-2.8,1.59-3.15a2.73,2.73,0,0,1-1.28-2.59c0-1.44.72-3,2.63-3s2.48,1.51,2.48,2.91c0,1.66-.64,2.4-1.31,2.67.92.38,1.6,1.35,1.6,3.18s-.9,3.46-2.9,3.46S331.68,522.29,331.68,520.45Zm4.92,0c0-1.8-.59-2.79-2.05-2.79s-2.07,1.22-2.07,2.72.59,2.77,2,2.77S336.6,522.07,336.6,520.49Zm-3.8-5.87c0,1.28.41,2.34,1.78,2.34,1.1,0,1.75-.65,1.75-2.32,0-1.12-.47-2.24-1.76-2.24S332.8,513.58,332.8,514.62Z" transform="translate(-0.02)"/><path class="b" d="M237.59,557l-2.41-12.23h1.42c.81,4.34,1.6,8.68,1.74,10.37h0c.24-1.71,1.5-7.47,2.07-10.37h1.3c.56,2.79,1.82,8.72,2,10.3h0c.25-2.14,1.41-7.53,1.91-10.3H247L244.43,557H243c-.56-2.79-1.71-8.3-2-10.12h0c-.27,2-1.44,7.36-2,10.12Z" transform="translate(-0.02)"/><path class="b" d="M253,555.41a16.05,16.05,0,0,0,.08,1.62H251.9a5,5,0,0,1-.09-1,2.13,2.13,0,0,1-2.16,1.21,2.37,2.37,0,0,1-2.4-2.65c0-1.65,1.14-2.91,3.53-2.91a8.66,8.66,0,0,1,1,0v-1.22c0-.7-.15-1.62-1.37-1.62s-1.44,1-1.5,1.58h-1.26a2.49,2.49,0,0,1,2.79-2.65c1.77,0,2.63.85,2.63,2.54Zm-1.28-2.7a4.75,4.75,0,0,0-.9-.06c-1.62,0-2.28.78-2.28,1.8a1.44,1.44,0,0,0,1.42,1.62c1.33,0,1.76-1,1.76-2.88Z" transform="translate(-0.02)"/><path class="b" d="M254.08,547.9h1.29v-2.43h1.3v2.43h1.6V549h-1.6v6c0,.63.14,1,.83,1a3.27,3.27,0,0,0,.65-.06v1a3.71,3.71,0,0,1-1.09.14c-1.06,0-1.69-.43-1.69-1.87V549h-1.29Z" transform="translate(-0.02)"/><path class="b" d="M260.3,552.71c0,1.78.31,3.35,1.75,3.35a1.68,1.68,0,0,0,1.66-1.64H265a2.88,2.88,0,0,1-3,2.77c-2.68,0-3.06-2.45-3.06-4.74,0-2.88,1-4.7,3.13-4.7,2.42,0,3,2,3,4.25,0,.18,0,.49,0,.71Zm3.46-1c0-1.58-.34-2.81-1.66-2.81-1.67,0-1.76,2.18-1.78,2.81Z" transform="translate(-0.02)"/><path class="b" d="M266.75,551c0-1.45,0-2.46,0-3.11H268c0,.23.05.67.05,1.62a2.5,2.5,0,0,1,2.42-1.77v1.46c-1.57.06-2.4,1-2.4,2.72V557h-1.31Z" transform="translate(-0.02)"/><path class="b" d="M275.28,544.8h3.15a3.09,3.09,0,0,1,3.26,3.4,3.18,3.18,0,0,1-3.44,3.53h-1.62V557h-1.35Zm1.35,5.8h1.48c1.45,0,2.21-.77,2.21-2.41a2,2,0,0,0-2.07-2.25h-1.62Z" transform="translate(-0.02)"/><path class="b" d="M283.9,552.71c0,1.78.31,3.35,1.75,3.35a1.66,1.66,0,0,0,1.65-1.64h1.3a2.89,2.89,0,0,1-3,2.77c-2.68,0-3.06-2.45-3.06-4.74,0-2.88,1-4.7,3.13-4.7,2.42,0,3,2,3,4.25,0,.18,0,.49,0,.71Zm3.46-1c0-1.58-.34-2.81-1.66-2.81-1.67,0-1.76,2.18-1.78,2.81Z" transform="translate(-0.02)"/><path class="b" d="M290.34,550.73c0-1.88,0-2.42,0-2.83h1.28c0,.21.05.58.05,1.19a2.15,2.15,0,0,1,2.16-1.35c1.31,0,2.34.75,2.34,2.79V557h-1.33v-6.25c0-1.12-.36-1.87-1.41-1.87-1.22,0-1.74.81-1.74,2.68V557h-1.34Z" transform="translate(-0.02)"/><path class="b" d="M299.2,552.71c0,1.78.31,3.35,1.75,3.35a1.66,1.66,0,0,0,1.65-1.64h1.3a2.89,2.89,0,0,1-3,2.77c-2.68,0-3.06-2.45-3.06-4.74,0-2.88,1-4.7,3.13-4.7,2.42,0,3,2,3,4.25,0,.18,0,.49,0,.71Zm3.46-1c0-1.58-.34-2.81-1.66-2.81-1.67,0-1.76,2.18-1.78,2.81Z" transform="translate(-0.02)"/><path class="b" d="M304.71,547.9H306v-2.43h1.3v2.43h1.6V549h-1.6v6c0,.63.15,1,.83,1a3.13,3.13,0,0,0,.65-.06v1a3.69,3.69,0,0,1-1.08.14c-1.06,0-1.7-.43-1.7-1.87V549h-1.29Z" transform="translate(-0.02)"/><path class="b" d="M310.14,551c0-1.45,0-2.46,0-3.11h1.26c0,.23.05.67.05,1.62a2.5,2.5,0,0,1,2.41-1.77v1.46c-1.56.06-2.39,1-2.39,2.72V557h-1.32Z" transform="translate(-0.02)"/><path class="b" d="M320.19,555.41c0,.57,0,1.33.07,1.62h-1.2a5,5,0,0,1-.09-1,2.14,2.14,0,0,1-2.16,1.21,2.37,2.37,0,0,1-2.4-2.65c0-1.65,1.13-2.91,3.53-2.91a8.47,8.47,0,0,1,.95,0v-1.22c0-.7-.14-1.62-1.36-1.62s-1.44,1-1.5,1.58h-1.26a2.49,2.49,0,0,1,2.79-2.65c1.77,0,2.63.85,2.63,2.54Zm-1.28-2.7a4.82,4.82,0,0,0-.9-.06c-1.62,0-2.28.78-2.28,1.8a1.44,1.44,0,0,0,1.42,1.62c1.33,0,1.76-1,1.76-2.88Z" transform="translate(-0.02)"/><path class="b" d="M321.23,547.9h1.3v-2.43h1.3v2.43h1.6V549h-1.6v6c0,.63.14,1,.82,1a3.13,3.13,0,0,0,.65-.06v1a3.6,3.6,0,0,1-1.08.14c-1.06,0-1.69-.43-1.69-1.87V549h-1.3Z" transform="translate(-0.02)"/><path class="b" d="M326.72,546.1v-1.89h1.34v1.89Zm0,1.8H328V557h-1.32Z" transform="translate(-0.02)"/><path class="b" d="M336.05,552.36c0,3.21-1.08,4.83-3.13,4.83s-3.16-1.57-3.16-4.81,1.25-4.63,3.21-4.63S336.05,549.29,336.05,552.36Zm-4.94,0c0,2.47.62,3.66,1.81,3.66s1.78-1.21,1.78-3.68-.58-3.49-1.78-3.49S331.11,549.92,331.11,552.4Z" transform="translate(-0.02)"/><path class="b" d="M337.76,550.73c0-1.88,0-2.42,0-2.83H339c0,.21.05.58.05,1.19a2.15,2.15,0,0,1,2.16-1.35c1.32,0,2.34.75,2.34,2.79V557h-1.33v-6.25c0-1.12-.36-1.87-1.41-1.87-1.22,0-1.74.81-1.74,2.68V557h-1.33Z" transform="translate(-0.02)"/><path class="b" d="M235.52,585.91v-.12c0-1.86,1.35-4.8,4.5-8.22,2.7-2.91,3.6-4.11,3.6-6.57,0-2-.6-4-3.09-4-2.1,0-3.18,1.59-3.3,4.2h-1.32c0-2.79,1.41-5.4,4.62-5.4,3.42,0,4.47,2.49,4.47,5.13,0,3-1.11,4.38-3.78,7.2s-3.87,5.16-4.17,6.57h8.52l-.21,1.2Z" transform="translate(-0.02)"/><path class="b" d="M254.78,571.12c0,3.42-.9,5.64-3.51,5.67s-3.42-2.22-3.42-5.58,1.32-5.4,3.48-5.4S254.78,567.4,254.78,571.12Zm-5.67.09c0,3.21.75,4.44,2.22,4.44s2.22-1.23,2.22-4.47c0-2.7-.6-4.23-2.25-4.23C249.86,567,249.11,568.12,249.11,571.21Zm.93,14.7L261,566.05h1.32l-10.95,19.86Zm14.46-5.37c0,3.42-.87,5.64-3.48,5.67s-3.45-2.16-3.45-5.58,1.32-5.4,3.51-5.4S264.5,576.91,264.5,580.54Zm-5.67.09c0,3.15.75,4.44,2.25,4.44s2.19-1.26,2.19-4.47c0-2.64-.6-4.23-2.22-4.23S258.83,577.72,258.83,580.63Z" transform="translate(-0.02)"/><path class="b" d="M274.74,587.35V586a2.82,2.82,0,0,1-2.77-2.9h.79a2.26,2.26,0,0,0,2,2.21v-5.36c-1.51-.78-2.49-1.59-2.49-3.19a2.56,2.56,0,0,1,2.49-2.81v-1.08h.68v1.08a2.56,2.56,0,0,1,2.38,2.69H277a2,2,0,0,0-1.61-2v4.74c1.77.9,2.62,1.91,2.62,3.53a2.73,2.73,0,0,1-2.62,3.06v1.37Zm0-8.3v-4.41a1.79,1.79,0,0,0-1.73,2.05C273,577.79,273.57,578.42,274.74,579.05Zm.68,1.24v5c1.17-.12,1.8-.81,1.8-2.35C277.22,581.78,276.7,581.05,275.42,580.29Z" transform="translate(-0.02)"/><path class="b" d="M280.75,585.91V575a5.57,5.57,0,0,1-1.94.81v-.69A6.21,6.21,0,0,0,281,574h.56v12Z" transform="translate(-0.02)"/><path class="b" d="M283.29,585.91v-.08c0-1.11.81-2.88,2.7-4.93,1.62-1.75,2.16-2.47,2.16-3.94,0-1.17-.36-2.4-1.85-2.4-1.26,0-1.91,1-2,2.52h-.8c0-1.67.85-3.24,2.78-3.24s2.68,1.5,2.68,3.08c0,1.78-.67,2.63-2.27,4.32a9,9,0,0,0-2.5,4h5.11l-.13.72Z" transform="translate(-0.02)"/><path class="b" d="M290,588.05a12.82,12.82,0,0,0,.94-4.14h.79a10.65,10.65,0,0,1-1,4.14Z" transform="translate(-0.02)"/><path class="b" d="M293.82,585.91V575a5.54,5.54,0,0,1-1.95.81v-.69A6.18,6.18,0,0,0,294,574h.55v12Z" transform="translate(-0.02)"/><path class="b" d="M296.72,582.61c0-2.09.93-2.81,1.58-3.15a2.73,2.73,0,0,1-1.28-2.59c0-1.44.72-3,2.63-3s2.49,1.52,2.49,2.92c0,1.66-.65,2.39-1.32,2.66.92.38,1.6,1.35,1.6,3.19s-.9,3.46-2.89,3.46S296.72,584.45,296.72,582.61Zm4.91,0c0-1.8-.59-2.79-2.05-2.79s-2.07,1.22-2.07,2.72.59,2.77,2.05,2.77S301.63,584.23,301.63,582.65Zm-3.8-5.87c0,1.28.42,2.34,1.79,2.34,1.09,0,1.74-.65,1.74-2.32,0-1.12-.47-2.24-1.76-2.24S297.83,575.73,297.83,576.78Z" transform="translate(-0.02)"/><path class="b" d="M309.08,574.73H305.3c-.09,1.35-.3,3.7-.38,4.44a2.16,2.16,0,0,1,2-1c1.89,0,2.65,1.55,2.65,3.69s-.68,4.2-2.88,4.2-2.7-1.59-2.79-2.94h.83c.07.83.32,2.22,2,2.22s2-1.53,2-3.44c0-1.62-.43-3-1.89-3a2,2,0,0,0-2,1.64l-.76-.18c.16-1.31.43-4.48.56-6.37h4.59Z" transform="translate(-0.02)"/><path class="b" d="M310.25,588.05a12.82,12.82,0,0,0,.94-4.14H312a10.65,10.65,0,0,1-1,4.14Z" transform="translate(-0.02)"/><path class="b" d="M313.19,585.91v-.08c0-1.11.81-2.88,2.7-4.93,1.62-1.75,2.16-2.47,2.16-3.94,0-1.17-.36-2.4-1.86-2.4-1.26,0-1.9,1-2,2.52h-.79c0-1.67.85-3.24,2.77-3.24s2.69,1.5,2.69,3.08c0,1.78-.67,2.63-2.27,4.32a9.2,9.2,0,0,0-2.51,4h5.12l-.13.72Z" transform="translate(-0.02)"/><path class="b" d="M320.35,582.61c0-2.09.94-2.81,1.58-3.15a2.74,2.74,0,0,1-1.27-2.59c0-1.44.72-3,2.63-3s2.48,1.52,2.48,2.92c0,1.66-.65,2.39-1.31,2.66.91.38,1.6,1.35,1.6,3.19s-.9,3.46-2.9,3.46S320.35,584.45,320.35,582.61Zm4.92,0c0-1.8-.6-2.79-2.06-2.79s-2.07,1.22-2.07,2.72.6,2.77,2.06,2.77S325.27,584.23,325.27,582.65Zm-3.8-5.87c0,1.28.41,2.34,1.78,2.34,1.1,0,1.75-.65,1.75-2.32,0-1.12-.47-2.24-1.77-2.24S321.47,575.73,321.47,576.78Z" transform="translate(-0.02)"/><path class="b" d="M331.66,585.91v-3.37h-4.34v-.72l4.12-7.83h1v7.81h1.22l-.11.74h-1.11v3.37Zm0-7.94c0-.9,0-2.25,0-3.1-.65,1.48-2.47,4.91-3.51,6.93h3.48Z" transform="translate(-0.02)"/><path class="b" d="M242.83,612.81c0,4.18-1,6.41-3.64,6.41s-3.56-2.16-3.56-6.37,1.22-6.21,3.63-6.21S242.83,608.67,242.83,612.81Zm-5.82,0c0,3.5.71,5.24,2.24,5.24s2.19-1.71,2.19-5.22-.7-5-2.21-5S237,609.48,237,612.81Z" transform="translate(-0.02)"/><path class="b" d="M243.89,609.92h1.29v-2.44h1.3v2.44h1.6v1.13h-1.6v6c0,.63.15,1,.83,1a3.18,3.18,0,0,0,.65,0v1a4.06,4.06,0,0,1-1.08.14c-1.07,0-1.7-.43-1.7-1.87v-6.25h-1.29Z" transform="translate(-0.02)"/><path class="b" d="M250.67,606.22V611a2.17,2.17,0,0,1,2.18-1.28c1.34,0,2.31.85,2.31,2.79V619h-1.33v-6.23c0-1.11-.33-1.89-1.44-1.89s-1.72,1.05-1.72,2.63V619h-1.33V606.22Z" transform="translate(-0.02)"/><path class="b" d="M258.16,614.72c0,1.79.31,3.35,1.75,3.35a1.68,1.68,0,0,0,1.66-1.64h1.29a2.89,2.89,0,0,1-3,2.78c-2.68,0-3.06-2.45-3.06-4.74,0-2.88,1-4.7,3.13-4.7,2.42,0,3,2,3,4.25,0,.18,0,.49,0,.7Zm3.46-1c0-1.59-.34-2.81-1.66-2.81-1.67,0-1.76,2.18-1.78,2.81Z" transform="translate(-0.02)"/><path class="b" d="M264.61,613c0-1.46,0-2.47,0-3.11h1.26c0,.23,0,.66,0,1.62a2.5,2.5,0,0,1,2.42-1.77v1.46c-1.57,0-2.4,1-2.4,2.72V619h-1.31Z" transform="translate(-0.02)"/><path class="b" d="M274.49,606.82V619h-1.35V606.82Z" transform="translate(-0.02)"/><path class="b" d="M276.63,612.74c0-1.87,0-2.41,0-2.82h1.28a11.8,11.8,0,0,1,.05,1.18,2.16,2.16,0,0,1,2.17-1.35c1.31,0,2.34.76,2.34,2.79V619h-1.34V612.8c0-1.12-.36-1.88-1.4-1.88-1.23,0-1.75.81-1.75,2.69V619h-1.33Z" transform="translate(-0.02)"/><path class="b" d="M283.47,609.92h1.3v-2.44h1.29v2.44h1.61v1.13h-1.61v6c0,.63.15,1,.83,1a3.18,3.18,0,0,0,.65,0v1a4.06,4.06,0,0,1-1.08.14c-1.06,0-1.69-.43-1.69-1.87v-6.25h-1.3Z" transform="translate(-0.02)"/><path class="b" d="M289.7,614.72c0,1.79.3,3.35,1.74,3.35a1.68,1.68,0,0,0,1.66-1.64h1.3a2.89,2.89,0,0,1-3,2.78c-2.69,0-3.06-2.45-3.06-4.74,0-2.88,1-4.7,3.13-4.7,2.41,0,3,2,3,4.25,0,.18,0,.49,0,.7Zm3.46-1c0-1.59-.35-2.81-1.66-2.81-1.68,0-1.77,2.18-1.78,2.81Z" transform="translate(-0.02)"/><path class="b" d="M296.14,613c0-1.46,0-2.47,0-3.11h1.26c0,.23.06.66.06,1.62a2.5,2.5,0,0,1,2.41-1.77v1.46c-1.57,0-2.39,1-2.39,2.72V619h-1.32Z" transform="translate(-0.02)"/><path class="b" d="M302.1,609.92c.76,3,1.66,6.51,1.84,7.65h0c.13-1,1.5-5.8,1.95-7.65h1.31L304.6,619h-1.42l-2.48-9.12Z" transform="translate(-0.02)"/><path class="b" d="M309.28,614.72c0,1.79.31,3.35,1.75,3.35a1.66,1.66,0,0,0,1.65-1.64H314a2.89,2.89,0,0,1-3,2.78c-2.68,0-3.06-2.45-3.06-4.74,0-2.88,1-4.7,3.13-4.7,2.42,0,3,2,3,4.25,0,.18,0,.49,0,.7Zm3.46-1c0-1.59-.34-2.81-1.66-2.81-1.67,0-1.76,2.18-1.78,2.81Z" transform="translate(-0.02)"/><path class="b" d="M315.73,612.74c0-1.87,0-2.41,0-2.82H317c0,.21.05.57.05,1.18a2.15,2.15,0,0,1,2.16-1.35c1.32,0,2.34.76,2.34,2.79V619h-1.33V612.8c0-1.12-.36-1.88-1.41-1.88-1.22,0-1.74.81-1.74,2.69V619h-1.33Z" transform="translate(-0.02)"/><path class="b" d="M322.57,609.92h1.29v-2.44h1.3v2.44h1.6v1.13h-1.6v6c0,.63.14,1,.83,1a3.14,3.14,0,0,0,.64,0v1a4,4,0,0,1-1.08.14c-1.06,0-1.69-.43-1.69-1.87v-6.25h-1.29Z" transform="translate(-0.02)"/><path class="b" d="M328.05,608.11v-1.89h1.34v1.89Zm0,1.81h1.32V619h-1.32Z" transform="translate(-0.02)"/><path class="b" d="M337.38,614.38c0,3.21-1.08,4.83-3.13,4.83s-3.15-1.57-3.15-4.81,1.24-4.63,3.2-4.63S337.38,611.3,337.38,614.38Zm-4.93,0c0,2.46.61,3.65,1.8,3.65s1.78-1.2,1.78-3.67-.58-3.49-1.78-3.49S332.45,611.93,332.45,614.42Z" transform="translate(-0.02)"/><path class="b" d="M339.09,612.74c0-1.87,0-2.41,0-2.82h1.28a11.8,11.8,0,0,1,0,1.18,2.15,2.15,0,0,1,2.16-1.35c1.32,0,2.35.76,2.35,2.79V619h-1.34V612.8c0-1.12-.36-1.88-1.4-1.88-1.23,0-1.75.81-1.75,2.69V619h-1.33Z" transform="translate(-0.02)"/><path class="b" d="M347.71,616.42a1.58,1.58,0,0,0,1.6,1.71,1.33,1.33,0,0,0,1.48-1.44c0-.94-.47-1.37-1.67-1.84-1.9-.72-2.44-1.41-2.44-2.68a2.34,2.34,0,0,1,2.61-2.42,2.4,2.4,0,0,1,2.63,2.61h-1.27c0-.45-.13-1.53-1.39-1.53a1.16,1.16,0,0,0-1.26,1.26c0,.74.32,1.08,1.58,1.59,1.77.67,2.54,1.31,2.54,2.88s-1,2.65-2.86,2.65a2.61,2.61,0,0,1-2.86-2.79Z" transform="translate(-0.02)"/><path class="b" d="M242.78,648.21V642.6h-7.23v-1.2l6.87-13h1.68v13h2L246,642.6H244.1v5.61Zm0-13.23c0-1.5,0-3.75.06-5.16-1.08,2.46-4.11,8.19-5.85,11.55h5.79Z" transform="translate(-0.02)"/><path class="b" d="M248.33,642.72c0-3.48,1.56-4.68,2.64-5.25-1.23-.63-2.13-2.1-2.13-4.32,0-2.4,1.2-5,4.38-5s4.14,2.52,4.14,4.86c0,2.76-1.08,4-2.19,4.44,1.53.63,2.67,2.25,2.67,5.31,0,3.24-1.5,5.76-4.83,5.76S248.33,645.78,248.33,642.72Zm8.19.06c0-3-1-4.65-3.42-4.65-2.67,0-3.45,2-3.45,4.53s1,4.62,3.42,4.62S256.52,645.42,256.52,642.78ZM250.19,633c0,2.13.69,3.9,3,3.9,1.83,0,2.91-1.08,2.91-3.87,0-1.86-.78-3.72-2.94-3.72S250.19,631.26,250.19,633Z" transform="translate(-0.02)"/><path class="b" d="M266.87,633.42c0,3.42-.9,5.64-3.51,5.67s-3.42-2.22-3.42-5.58,1.32-5.4,3.48-5.4S266.87,629.7,266.87,633.42Zm-5.67.09c0,3.21.75,4.44,2.22,4.44s2.22-1.23,2.22-4.47c0-2.7-.6-4.23-2.25-4.23C262,629.25,261.2,630.42,261.2,633.51Zm.93,14.7,10.92-19.86h1.32l-10.95,19.86Zm14.46-5.37c0,3.42-.87,5.64-3.48,5.67s-3.45-2.16-3.45-5.58,1.32-5.4,3.51-5.4S276.59,639.21,276.59,642.84Zm-5.67.09c0,3.15.75,4.44,2.25,4.44s2.19-1.26,2.19-4.47c0-2.64-.6-4.23-2.22-4.23C271.67,638.67,270.92,640,270.92,642.93Z" transform="translate(-0.02)"/><path class="b" d="M286.83,649.65v-1.37a2.82,2.82,0,0,1-2.77-2.9h.79a2.26,2.26,0,0,0,2,2.21v-5.36c-1.51-.78-2.48-1.59-2.48-3.19a2.55,2.55,0,0,1,2.48-2.81v-1.08h.68v1.08a2.55,2.55,0,0,1,2.38,2.69h-.77a2,2,0,0,0-1.61-2v4.74c1.77.9,2.62,1.91,2.62,3.53a2.73,2.73,0,0,1-2.62,3.06v1.37Zm0-8.3v-4.41c-1.17.08-1.73.84-1.73,2S285.66,640.72,286.83,641.35Zm.68,1.24v5c1.18-.12,1.81-.81,1.81-2.35C289.32,644.08,288.79,643.35,287.51,642.59Z" transform="translate(-0.02)"/><path class="b" d="M291.51,638.92a2.57,2.57,0,0,1,2.61-2.78c1.87,0,2.47,1.37,2.47,2.9s-.67,2.34-1.44,2.61v0c1.1.38,1.8,1.26,1.8,3.15,0,1.68-.67,3.55-2.92,3.55s-2.75-1.66-2.81-3H292a2.09,2.09,0,0,0,2.05,2.25c1.73,0,2.09-1.6,2.09-2.79,0-2.31-1.15-2.79-2.43-2.79h-.53v-.71h.53c1.19,0,2.08-.55,2.08-2.3,0-1.24-.45-2.2-1.71-2.2-1.65,0-1.8,1.61-1.83,2.06Z" transform="translate(-0.02)"/><path class="b" d="M299.25,646.05a1.67,1.67,0,0,0,1.76,1.6c1.91,0,2.07-2.88,2.15-5.6a2.13,2.13,0,0,1-2.18,1.4c-1.75,0-2.63-1.33-2.63-3.53,0-2.61,1.21-3.78,2.83-3.78s2.77,1,2.77,5c0,5-.61,7.26-3,7.26a2.36,2.36,0,0,1-2.52-2.32Zm-.11-6.13c0,1.5.49,2.8,1.93,2.8s2-1.18,2-2.63-.26-3.23-1.94-3.23C299.93,636.86,299.14,637.85,299.14,639.92Z" transform="translate(-0.02)"/><path class="b" d="M305.24,648.21v-.08c0-1.11.81-2.88,2.7-4.93,1.62-1.75,2.16-2.47,2.16-3.94,0-1.17-.36-2.4-1.85-2.4-1.26,0-1.91,1-2,2.52h-.79c0-1.67.84-3.24,2.77-3.24s2.68,1.5,2.68,3.08c0,1.78-.66,2.63-2.27,4.32a9.15,9.15,0,0,0-2.5,4h5.11l-.12.72Z" transform="translate(-0.02)"/><path class="b" d="M312,650.35a13.08,13.08,0,0,0,.93-4.14h.8a10.69,10.69,0,0,1-1.05,4.14Z" transform="translate(-0.02)"/><path class="b" d="M315.74,646.05a1.67,1.67,0,0,0,1.76,1.6c1.91,0,2.07-2.88,2.14-5.6a2.12,2.12,0,0,1-2.17,1.4c-1.75,0-2.63-1.33-2.63-3.53,0-2.61,1.2-3.78,2.82-3.78s2.78,1,2.78,5c0,5-.62,7.26-3,7.26a2.36,2.36,0,0,1-2.52-2.32Zm-.11-6.13c0,1.5.49,2.8,1.93,2.8s2-1.18,2-2.63-.27-3.23-1.94-3.23C316.42,636.86,315.63,637.85,315.63,639.92Z" transform="translate(-0.02)"/><path class="b" d="M322.07,644.91c0-2.09.94-2.81,1.59-3.15a2.73,2.73,0,0,1-1.28-2.59c0-1.44.72-3,2.63-3s2.48,1.52,2.48,2.92c0,1.66-.65,2.39-1.31,2.66.92.38,1.6,1.35,1.6,3.19s-.9,3.46-2.9,3.46S322.07,646.75,322.07,644.91Zm4.92,0c0-1.8-.6-2.79-2.05-2.79-1.61,0-2.07,1.22-2.07,2.72s.59,2.77,2.05,2.77S327,646.53,327,645Zm-3.8-5.87c0,1.28.41,2.34,1.78,2.34,1.1,0,1.75-.65,1.75-2.32,0-1.12-.47-2.24-1.77-2.24S323.19,638,323.19,639.08Z" transform="translate(-0.02)"/><path class="b" d="M328.93,648.21v-.08c0-1.11.81-2.88,2.7-4.93,1.62-1.75,2.16-2.47,2.16-3.94,0-1.17-.36-2.4-1.85-2.4-1.26,0-1.91,1-2,2.52h-.79c0-1.67.84-3.24,2.77-3.24s2.68,1.5,2.68,3.08c0,1.78-.67,2.63-2.27,4.32a9.15,9.15,0,0,0-2.5,4H335l-.12.72Z" transform="translate(-0.02)"/><path class="b" d="M335.64,650.35a12.82,12.82,0,0,0,.94-4.14h.79a10.7,10.7,0,0,1-1,4.14Z" transform="translate(-0.02)"/><path class="b" d="M343.17,638.63c0-.13-.11-1.77-1.66-1.77-2.18,0-2.23,3.46-2.28,5a2.42,2.42,0,0,1,2.3-1.4c1.93,0,2.7,1.6,2.7,3.8s-.72,4.09-2.9,4.09c-2.46,0-2.91-2.52-2.91-6,0-3.73.73-6.29,3.13-6.29a2.39,2.39,0,0,1,2.38,2.49Zm.23,5.71c0-1.81-.52-3.12-2-3.12a2.26,2.26,0,0,0-2.21,2.45c0,1.6.34,4,2.12,4C342.58,647.67,343.4,646.64,343.4,644.34Z" transform="translate(-0.02)"/><path class="b" d="M345.29,648.21v-.08c0-1.11.81-2.88,2.7-4.93,1.62-1.75,2.16-2.47,2.16-3.94,0-1.17-.36-2.4-1.85-2.4-1.26,0-1.91,1-2,2.52h-.79c0-1.67.84-3.24,2.77-3.24s2.68,1.5,2.68,3.08c0,1.78-.66,2.63-2.27,4.32a9.15,9.15,0,0,0-2.5,4h5.11l-.12.72Z" transform="translate(-0.02)"/><path class="b" d="M357.75,636.29V637a35.71,35.71,0,0,0-3.66,11.24h-.82A35.12,35.12,0,0,1,356.94,637h-4.83v-.75Z" transform="translate(-0.02)"/><polyline class="h" points="219.79 429.74 193.9 429.74 193.9 540.68 179.1 540.68"/><polyline class="h" points="219.79 363.37 184.18 363.37 184.18 471.65 172.96 471.65"/><polyline class="h" points="219.79 489.86 203.8 489.86 203.8 594.16 124.5 594.16"/><circle class="f" cx="219.79" cy="363.36" r="3.45"/><circle class="e" cx="219.79" cy="429.74" r="3.45"/><circle class="c" cx="219.79" cy="489.86" r="3.45"/><polyline class="h" points="219.79 552 212.89 552 212.89 616.51 104.21 616.51 104.21 597.36"/><circle class="d" cx="219.79" cy="552" r="3.45"/><circle class="g" cx="219.79" cy="613.06" r="3.45"/><polyline class="h" points="219.79 616.51 219.79 639.86 76.95 639.86 76.95 594.16"/><path class="b" d="M19,265.29c0,3.1-1,4.79-2.9,4.79s-2.92-1.64-2.92-4.77,1.14-4.54,3-4.54S19,262.27,19,265.29Zm-5,0c0,2.79.79,4,2.09,4s2.09-1.28,2.09-4.07c0-2.5-.74-3.8-2.09-3.8S14,262.55,14,265.33Z" transform="translate(-0.02)"/><path class="b" d="M21.07,269.92v-8.28H19.81v-.73h1.26v-1.49c0-1.21.34-2.43,1.89-2.43a2.62,2.62,0,0,1,.65.09v.76a2.78,2.78,0,0,0-.67-.09c-.79,0-1.08.52-1.08,1.63v1.53h1.5v.73h-1.5v8.28Z" transform="translate(-0.02)"/><path class="b" d="M26.67,260.91H28v-2.5h.77v2.5h1.68v.73H28.77v6.55c0,.68.16,1.13.85,1.13a4,4,0,0,0,.72-.05v.65a3.06,3.06,0,0,1-.92.12c-.81,0-1.42-.36-1.42-1.65v-6.75H26.67Z" transform="translate(-0.02)"/><path class="b" d="M32.57,257.08v5.08a2.21,2.21,0,0,1,2.25-1.39c1.22,0,2.29.72,2.29,2.72v6.43h-.8v-6.27c0-1.24-.43-2.14-1.69-2.14-1.44,0-2,1.22-2,3.06v5.35h-.79V257.08Z" transform="translate(-0.02)"/><path class="b" d="M39.75,265.45c0,2.18.4,3.91,2,3.91s1.87-1.64,1.93-1.89h.79a2.77,2.77,0,0,1-2.72,2.61c-2.49,0-2.83-2.41-2.83-4.63,0-2.84.9-4.68,2.92-4.68,2.19,0,2.7,2,2.7,4.12,0,.08,0,.31,0,.56Zm4-.7c0-2-.49-3.26-1.93-3.26-2,0-2.05,2.67-2.07,3.26Z" transform="translate(-0.02)"/><path class="b" d="M49.9,257.08h.78v5.22a2.23,2.23,0,0,1,2.25-1.53c1.65,0,2.63,1.31,2.63,4.43,0,2.74-.78,4.86-2.87,4.86a2,2,0,0,1-2-1.33c0,.36,0,.77,0,1.19h-.73c0-.4,0-1.21,0-2.43Zm2.92,4.43c-1.64,0-2.18,1.57-2.18,3.91,0,2.19.4,3.9,2,3.9,1.33,0,2.07-1.33,2.07-4.1C54.75,262.63,54,261.51,52.82,261.51Z" transform="translate(-0.02)"/><path class="b" d="M62.65,267.56c0,1,0,1.94,0,2.36h-.74a8.87,8.87,0,0,1-.06-1.35,2.16,2.16,0,0,1-2.23,1.51c-.9,0-2.25-.29-2.25-2.68v-6.49h.79v6.27c0,1.33.42,2.18,1.64,2.18s2-.74,2-3v-5.42h.79Z" transform="translate(-0.02)"/><path class="b" d="M70.15,257.08v10.64c0,.76,0,1.66,0,2.2h-.75c0-.24,0-.92,0-1.39a2.07,2.07,0,0,1-2.2,1.55c-1.85,0-2.68-1.51-2.68-4.77,0-2.95,1.15-4.54,2.92-4.54a1.85,1.85,0,0,1,2,1.08v-4.77Zm-2.84,12.24c1.6,0,2.07-1.44,2.07-4.05,0-3-.5-3.76-2-3.76-1.23,0-2.09,1.13-2.09,3.8C65.33,268.24,66.05,269.32,67.31,269.32Z" transform="translate(-0.02)"/><path class="b" d="M77.7,269.45c0,2.23-.45,4-2.94,4a2.42,2.42,0,0,1-2.7-2.39h.83a1.73,1.73,0,0,0,1.89,1.67c1.76,0,2.14-1.28,2.14-3.24v-1.1a2.12,2.12,0,0,1-2.21,1.57c-1.75,0-2.7-1.44-2.7-4.4,0-3.34,1.26-4.75,2.9-4.75a1.83,1.83,0,0,1,2,1.31,7.89,7.89,0,0,1,.06-1.17h.73c0,.42,0,1.34,0,2.53Zm-2.87-.27c1.62,0,2.11-1.64,2.11-3.84,0-2.44-.43-3.83-2-3.83s-2.15,1.46-2.15,4S73.52,269.18,74.83,269.18Z" transform="translate(-0.02)"/><path class="b" d="M80.41,265.45c0,2.18.4,3.91,2,3.91s1.87-1.64,1.93-1.89h.79a2.77,2.77,0,0,1-2.72,2.61c-2.49,0-2.83-2.41-2.83-4.63,0-2.84.9-4.68,2.92-4.68,2.2,0,2.7,2,2.7,4.12,0,.08,0,.31,0,.56Zm4-.7c0-2-.49-3.26-1.93-3.26-2,0-2,2.67-2.07,3.26Z" transform="translate(-0.02)"/><path class="b" d="M86.05,260.91h1.33v-2.5h.77v2.5h1.68v.73H88.15v6.55c0,.68.16,1.13.85,1.13a4,4,0,0,0,.72-.05v.65a3.06,3.06,0,0,1-.92.12c-.81,0-1.42-.36-1.42-1.65v-6.75H86.05Z" transform="translate(-0.02)"/><path class="b" d="M94.65,258.83v-1.75h.79v1.75Zm0,2.08h.77v9h-.77Z" transform="translate(-0.02)"/><path class="b" d="M97.85,267.41a1.82,1.82,0,0,0,1.88,1.95,1.61,1.61,0,0,0,1.74-1.73c0-1.13-.61-1.6-1.87-2.11-1.67-.68-2.23-1.29-2.23-2.52a2.13,2.13,0,0,1,2.36-2.23,2.17,2.17,0,0,1,2.35,2.4h-.79a1.54,1.54,0,0,0-1.6-1.68A1.36,1.36,0,0,0,98.18,263c0,.83.3,1.23,1.67,1.77,1.64.65,2.43,1.24,2.43,2.83a2.35,2.35,0,0,1-2.61,2.5A2.47,2.47,0,0,1,97,267.41Z" transform="translate(-0.02)"/><path class="b" d="M107.66,269.92v-8.28H106.4v-.73h1.26v-1.49c0-1.21.35-2.43,1.89-2.43a2.62,2.62,0,0,1,.65.09v.76a2.69,2.69,0,0,0-.66-.09c-.8,0-1.08.52-1.08,1.63v1.53H110v.73h-1.49v8.28Z" transform="translate(-0.02)"/><path class="b" d="M116.38,265.29c0,3.1-1,4.79-2.9,4.79s-2.92-1.64-2.92-4.77,1.14-4.54,3-4.54S116.38,262.27,116.38,265.29Zm-5,0c0,2.79.79,4,2.09,4s2.09-1.28,2.09-4.07c0-2.5-.74-3.8-2.09-3.8S111.39,262.55,111.39,265.33Z" transform="translate(-0.02)"/><path class="b" d="M118.25,264c0-1.4,0-2.43,0-3.08H119c0,.28,0,.73,0,1.68a2.57,2.57,0,0,1,2.4-1.8v.85c-1.59.09-2.4,1.42-2.4,3v5.24h-.77Z" transform="translate(-0.02)"/><path class="b" d="M126.38,269.92v-8.28h-1.26v-.73h1.26v-1.49c0-1.21.34-2.43,1.89-2.43a2.62,2.62,0,0,1,.65.09v.76a2.69,2.69,0,0,0-.66-.09c-.8,0-1.09.52-1.09,1.63v1.53h1.5v.73h-1.5v8.28Z" transform="translate(-0.02)"/><path class="b" d="M130,269.92V257.08h.78v12.84Z" transform="translate(-0.02)"/><path class="b" d="M138.43,265.29c0,3.1-1,4.79-2.9,4.79s-2.92-1.64-2.92-4.77,1.14-4.54,2.95-4.54S138.43,262.27,138.43,265.29Zm-5,0c0,2.79.79,4,2.09,4s2.09-1.28,2.09-4.07c0-2.5-.74-3.8-2.09-3.8S133.44,262.55,133.44,265.33Z" transform="translate(-0.02)"/><path class="b" d="M145.64,265.29c0,3.1-1,4.79-2.89,4.79s-2.92-1.64-2.92-4.77,1.13-4.54,2.95-4.54S145.64,262.27,145.64,265.29Zm-5,0c0,2.79.79,4,2.09,4s2.08-1.28,2.08-4.07c0-2.5-.73-3.8-2.08-3.8S140.66,262.55,140.66,265.33Z" transform="translate(-0.02)"/><path class="b" d="M152.7,257.08v10.64c0,.76,0,1.66,0,2.2H152c0-.24,0-.92,0-1.39a2.08,2.08,0,0,1-2.2,1.55c-1.86,0-2.68-1.51-2.68-4.77,0-2.95,1.15-4.54,2.91-4.54a1.86,1.86,0,0,1,2,1.08v-4.77Zm-2.85,12.24c1.61,0,2.08-1.44,2.08-4.05,0-3-.51-3.76-2-3.76-1.22,0-2.09,1.13-2.09,3.8C147.87,268.24,148.59,269.32,149.85,269.32Z" transform="translate(-0.02)"/><path class="b" d="M158.55,263.62c0-1.5,0-2.26,0-2.71h.76c0,.31,0,.8,0,1.3a2.07,2.07,0,0,1,2-1.44,1.75,1.75,0,0,1,1.89,1.41,2.2,2.2,0,0,1,2.18-1.41c1,0,2.1.47,2.1,2.56v6.59h-.79v-6.43c0-1.05-.29-2-1.48-2-1.35,0-1.81,1.26-1.81,2.54v5.87h-.8v-6.4c0-1.29-.43-2-1.44-2-1.24,0-1.89,1.24-1.89,2.72v5.69h-.77Z" transform="translate(-0.02)"/><path class="b" d="M169.87,258.83v-1.75h.79v1.75Zm0,2.08h.77v9h-.77Z" transform="translate(-0.02)"/><path class="b" d="M171.94,260.91h1.33v-2.5H174v2.5h1.68v.73H174v6.55c0,.68.17,1.13.85,1.13a3.94,3.94,0,0,0,.72-.05v.65a3.06,3.06,0,0,1-.92.12c-.81,0-1.42-.36-1.42-1.65v-6.75h-1.33Z" transform="translate(-0.02)"/><path class="b" d="M177.1,258.83v-1.75h.8v1.75Zm0,2.08h.78v9h-.78Z" transform="translate(-0.02)"/><path class="b" d="M185.42,269.45c0,2.23-.45,4-2.93,4a2.42,2.42,0,0,1-2.7-2.39h.83a1.73,1.73,0,0,0,1.89,1.67c1.76,0,2.14-1.28,2.14-3.24v-1.1a2.14,2.14,0,0,1-2.22,1.57c-1.74,0-2.7-1.44-2.7-4.4,0-3.34,1.26-4.75,2.9-4.75a1.85,1.85,0,0,1,2,1.31,8.27,8.27,0,0,1,0-1.17h.74c0,.42,0,1.34,0,2.53Zm-2.86-.27c1.62,0,2.11-1.64,2.11-3.84,0-2.44-.44-3.83-2-3.83s-2.14,1.46-2.14,4S181.25,269.18,182.56,269.18Z" transform="translate(-0.02)"/><path class="b" d="M192.44,268.57c0,.65.06,1.15.07,1.35h-.72a7,7,0,0,1-.09-1.15,2.11,2.11,0,0,1-2.19,1.31,2.28,2.28,0,0,1-2.32-2.56c0-1.53,1-2.84,3.42-2.84.5,0,.77,0,1.08,0v-1.33c0-.83-.18-1.89-1.62-1.89-1.62,0-1.7,1.19-1.75,1.8h-.78a2.35,2.35,0,0,1,2.56-2.52c1.62,0,2.34.83,2.34,2.45Zm-.74-3.14a9,9,0,0,0-1,0c-1.87,0-2.68.9-2.68,2.09a1.68,1.68,0,0,0,1.65,1.87c1.48,0,2.07-1,2.07-3.3Z" transform="translate(-0.02)"/><path class="b" d="M193.59,260.91h1.34v-2.5h.77v2.5h1.67v.73H195.7v6.55c0,.68.16,1.13.85,1.13a4.07,4.07,0,0,0,.72-.05v.65a3.1,3.1,0,0,1-.92.12c-.81,0-1.42-.36-1.42-1.65v-6.75h-1.34Z" transform="translate(-0.02)"/><path class="b" d="M198.76,258.83v-1.75h.79v1.75Zm0,2.08h.77v9h-.77Z" transform="translate(-0.02)"/><path class="b" d="M207.22,265.29c0,3.1-1,4.79-2.9,4.79s-2.92-1.64-2.92-4.77,1.14-4.54,3-4.54S207.22,262.27,207.22,265.29Zm-5,0c0,2.79.79,4,2.09,4s2.09-1.28,2.09-4.07c0-2.5-.74-3.8-2.09-3.8S202.23,262.55,202.23,265.33Z" transform="translate(-0.02)"/><path class="b" d="M209.09,263.69c0-1.84,0-2.4,0-2.78h.76c0,.22,0,.56,0,1.34a2.22,2.22,0,0,1,2.24-1.48c1.2,0,2.32.61,2.32,2.74v6.41h-.79v-6.3c0-1.23-.49-2.11-1.64-2.11-1.49,0-2.11,1-2.11,3.19v5.22h-.79Z" transform="translate(-0.02)"/><path class="b" d="M33.38,210.56H20.9c-.24,3.78-.9,10.32-1.14,12.48,1.14-1.56,3.06-2.76,6.3-2.76,6.36,0,9.18,5.16,9.18,12.3,0,7.68-2.46,14.28-10.56,14.28-7.38,0-9.72-5-10-10.26H19.1c.24,2.7,1.08,6.54,5.7,6.54s5.82-4.44,5.82-10.14c0-5.1-1.2-9-5.52-9-3.42,0-4.92,2.1-5.82,4.92l-4.08-.72c.66-4.56,1.62-15.6,2-21.48H33.92Z" transform="translate(-0.02)"/><path class="b" d="M38.6,246.32V246c.06-4.92,2.82-10.32,9-17.1,5-5.58,6.6-7.62,6.6-12.18,0-3.54-1-6.84-5.16-6.84-3.78,0-5.4,2.94-5.58,7.62H39.14c.06-5.76,2.76-11.28,10-11.28s9.6,4.74,9.6,10.56c0,5.4-1.8,8.1-7.08,13.68-4.74,5.1-7.2,9.18-7.92,11.94H59.84l-.66,3.9Z" transform="translate(-0.02)"/><path class="b" d="M78.56,217.1c0,7-2.22,11.34-7.56,11.4-5.16,0-7.38-4-7.38-11.22s2.88-11,7.5-11S78.56,209.48,78.56,217.1Zm-11.34.12c0,5.76,1.26,8.1,3.9,8.1s3.84-2.4,3.84-8.16c0-5.16-1-7.74-3.9-7.74C68.54,209.42,67.22,211.58,67.22,217.22Zm1.68,29.1,21.6-39.6h3.36l-21.6,39.6Zm30.36-10.8c0,7-2.22,11.34-7.5,11.4s-7.44-4-7.44-11.28c0-7.08,2.88-11,7.5-11S99.26,228,99.26,235.52Zm-11.34.12c0,5.7,1.26,8.1,3.9,8.1s3.9-2.4,3.9-8.16c0-5.1-1.08-7.8-3.9-7.8C89.24,227.78,87.92,230.24,87.92,235.64Z" transform="translate(-0.02)"/></svg>