<svg xmlns="http://www.w3.org/2000/svg" viewBox="0 0 455.65 253.46"><defs><style>.a{fill:none;}.b{fill:#fff;}.c{fill:#00ecbc;}.d{fill:#f9d423;}.e{fill:#9d00c6;}.f{fill:#469fe7;}.g{fill:#cc208e;}.h{fill:#bfbfbf;}.i{opacity:0.8;}</style></defs><rect class="a" x="0.02" width="455.63" height="253.46"/><path class="b" d="M1.63,3.84h4.2c2.56,0,4.34,1.61,4.34,4.54s-1.61,4.7-4.58,4.7H3.43v7.06H1.63Zm1.8,7.73h2c2,0,3-1,3-3.22,0-1.8-.94-3-2.76-3H3.43Z" transform="translate(0 -1.24)"/><path class="b" d="M12,12.12c0-1.94,0-3.29,0-4.15h1.68a21.16,21.16,0,0,1,.08,2.16A3.3,3.3,0,0,1,17,7.78V9.72c-2.09.07-3.19,1.39-3.19,3.62v6.8H12Z" transform="translate(0 -1.24)"/><path class="b" d="M26.3,13.92c0,4.27-1.44,6.43-4.18,6.43s-4.2-2.09-4.2-6.41,1.66-6.16,4.27-6.16S26.3,9.82,26.3,13.92ZM19.72,14c0,3.29.82,4.87,2.4,4.87s2.38-1.61,2.38-4.9c0-3.12-.77-4.65-2.38-4.65S19.72,10.66,19.72,14Z" transform="translate(0 -1.24)"/><path class="b" d="M30.45,8V20.9c0,2.21-.29,3.89-2.66,3.89a4.11,4.11,0,0,1-.75-.07V23.18a3.91,3.91,0,0,0,.55,0c.94,0,1.08-.58,1.08-1.92V8Zm-1.73-2.4V3.05h1.75V5.57Z" transform="translate(0 -1.24)"/><path class="b" d="M34.53,14.38c0,2.37.41,4.46,2.33,4.46a2.23,2.23,0,0,0,2.21-2.18h1.72a3.85,3.85,0,0,1-4,3.69c-3.57,0-4.08-3.26-4.08-6.31,0-3.84,1.32-6.26,4.18-6.26,3.22,0,4,2.61,4,5.66,0,.24,0,.65,0,.94ZM39.14,13c0-2.11-.46-3.75-2.21-3.75-2.23,0-2.35,2.91-2.38,3.75Z" transform="translate(0 -1.24)"/><path class="b" d="M50.66,16.42c0,.64-.31,3.93-3.89,3.93-3.17,0-4-2.81-4-6.33s1.1-6.27,4.2-6.27c3.52,0,3.69,3.27,3.72,3.84h-1.8c0-.48-.19-2.33-1.92-2.33s-2.4,1.92-2.4,4.73c0,3,.67,4.85,2.3,4.85s2-1.78,2.07-2.42Z" transform="translate(0 -1.24)"/><path class="b" d="M51.71,8h1.73V4.73h1.73V8H57.3V9.48H55.17v8c0,.84.19,1.37,1.1,1.37a4.52,4.52,0,0,0,.87-.08v1.37a4.8,4.8,0,0,1-1.44.19c-1.42,0-2.26-.57-2.26-2.49V9.48H51.71Z" transform="translate(0 -1.24)"/><path class="b" d="M63.71,3.84h3.63c3.77,0,5.45,2.62,5.45,7.73,0,5.52-1.52,8.57-5.72,8.57H63.71Zm1.8,14.76H67c3,0,3.94-2.35,3.94-7,0-4.33-1.11-6.24-3.91-6.24H65.51Z" transform="translate(0 -1.24)"/><path class="b" d="M76.62,14.38c0,2.37.41,4.46,2.33,4.46a2.23,2.23,0,0,0,2.21-2.18h1.73a3.86,3.86,0,0,1-4,3.69c-3.58,0-4.08-3.26-4.08-6.31,0-3.84,1.32-6.26,4.17-6.26,3.22,0,4,2.61,4,5.66,0,.24,0,.65,0,.94ZM81.23,13c0-2.11-.45-3.75-2.21-3.75-2.23,0-2.35,2.91-2.37,3.75Z" transform="translate(0 -1.24)"/><path class="b" d="M86.22,16.63c.08,1.3.75,2.28,2.14,2.28a1.77,1.77,0,0,0,2-1.92c0-1.25-.63-1.82-2.23-2.45-2.52-1-3.24-1.87-3.24-3.57a3.12,3.12,0,0,1,3.48-3.22,3.2,3.2,0,0,1,3.5,3.48h-1.7c0-.6-.17-2-1.85-2a1.54,1.54,0,0,0-1.68,1.68c0,1,.43,1.44,2.11,2.11,2.35.89,3.38,1.76,3.38,3.84,0,2.24-1.39,3.53-3.81,3.53a3.48,3.48,0,0,1-3.82-3.72Z" transform="translate(0 -1.24)"/><path class="b" d="M101.56,16.42c0,.64-.31,3.93-3.89,3.93-3.17,0-4-2.81-4-6.33s1.1-6.27,4.2-6.27c3.53,0,3.7,3.27,3.72,3.84h-1.8c0-.48-.19-2.33-1.92-2.33s-2.4,1.92-2.4,4.73c0,3,.67,4.85,2.3,4.85s2-1.78,2.07-2.42Z" transform="translate(0 -1.24)"/><path class="b" d="M103.62,12.12c0-1.94,0-3.29,0-4.15h1.68c0,.31.07.89.07,2.16a3.31,3.31,0,0,1,3.22-2.35V9.72c-2.09.07-3.19,1.39-3.19,3.62v6.8h-1.76Z" transform="translate(0 -1.24)"/><path class="b" d="M110.18,5.57V3.05H112V5.57Zm0,2.4h1.75V20.14h-1.75Z" transform="translate(0 -1.24)"/><path class="b" d="M114.83,24.6V11.52c0-1.66,0-2.78,0-3.55h1.7c0,.21.07,1,.07,1.63a2.79,2.79,0,0,1,2.88-1.82c2.31,0,3.56,2,3.56,6.09,0,4.39-1.52,6.48-3.89,6.48a2.55,2.55,0,0,1-2.55-1.46V24.6Zm4.11-15.29c-1.9,0-2.4,1.8-2.4,4.68s.26,4.83,2.28,4.83c1.6,0,2.42-1.88,2.42-4.85S120.52,9.31,118.94,9.31Z" transform="translate(0 -1.24)"/><path class="b" d="M123.88,8h1.73V4.73h1.73V8h2.13V9.48h-2.13v8c0,.84.19,1.37,1.1,1.37a4.34,4.34,0,0,0,.86-.08v1.37a4.72,4.72,0,0,1-1.44.19c-1.41,0-2.25-.57-2.25-2.49V9.48h-1.73Z" transform="translate(0 -1.24)"/><path class="b" d="M131.2,5.57V3.05H133V5.57Zm0,2.4H133V20.14H131.2Z" transform="translate(0 -1.24)"/><path class="b" d="M143.63,13.92c0,4.27-1.44,6.43-4.18,6.43s-4.2-2.09-4.2-6.41,1.66-6.16,4.28-6.16S143.63,9.82,143.63,13.92Zm-6.58.05c0,3.29.82,4.87,2.4,4.87s2.38-1.61,2.38-4.9c0-3.12-.77-4.65-2.38-4.65S137.05,10.66,137.05,14Z" transform="translate(0 -1.24)"/><path class="b" d="M145.91,11.74c0-2.5,0-3.22,0-3.77h1.7c0,.29.07.77.07,1.58a2.88,2.88,0,0,1,2.88-1.8c1.75,0,3.12,1,3.12,3.72v8.67h-1.77V11.81c0-1.49-.48-2.5-1.88-2.5-1.63,0-2.32,1.08-2.32,3.58v7.25h-1.78Z" transform="translate(0 -1.24)"/><path class="b" d="M41.78,113c.1,1.24.7,2.25,2,2.25s1.93-.7,1.93-2.1-.53-2-2.2-2.78c-1.91-.92-2.76-1.76-2.76-3.53a2.87,2.87,0,0,1,3.08-3c2.36,0,3,1.69,3,3.11H45.59c-.07-.57-.25-2-1.76-2a1.6,1.6,0,0,0-1.67,1.79c0,1.17.52,1.73,2.05,2.45,2.14,1,2.92,2.05,2.92,3.87a3.07,3.07,0,0,1-3.34,3.33c-2.44,0-3.25-1.6-3.34-3.37Z" transform="translate(0 -1.24)"/><path class="b" d="M54.31,114.63c0,.57,0,1.33.07,1.62H53.17a5.77,5.77,0,0,1-.09-1,2.12,2.12,0,0,1-2.16,1.21,2.36,2.36,0,0,1-2.39-2.65c0-1.65,1.13-2.92,3.53-2.92a6.36,6.36,0,0,1,.95,0v-1.22c0-.71-.14-1.62-1.37-1.62s-1.44,1-1.49,1.58H48.89A2.48,2.48,0,0,1,51.68,107c1.76,0,2.63.85,2.63,2.54ZM53,111.92a6.32,6.32,0,0,0-.9,0c-1.62,0-2.29.78-2.29,1.8a1.44,1.44,0,0,0,1.42,1.62c1.34,0,1.77-1,1.77-2.88Z" transform="translate(0 -1.24)"/><path class="b" d="M56.48,109.94c0-1.87,0-2.41,0-2.82h1.28a10.89,10.89,0,0,1,.06,1.19A2.13,2.13,0,0,1,60,107c1.31,0,2.34.75,2.34,2.79v6.5H61V110c0-1.12-.36-1.87-1.41-1.87-1.22,0-1.74.81-1.74,2.68v5.44H56.48Z" transform="translate(0 -1.24)"/><path class="b" d="M70.16,103.43v10.48c0,.88,0,1.8,0,2.34H68.9c0-.24-.05-.83-.05-1.23a2,2,0,0,1-2.14,1.39c-1.89,0-2.7-1.62-2.7-4.83,0-2.91,1.06-4.61,3-4.61a1.82,1.82,0,0,1,1.85.94v-4.48Zm-3.09,11.81c1.42,0,1.8-1.21,1.8-3.69,0-2.67-.38-3.42-1.69-3.42-1.08,0-1.82,1-1.82,3.47S66,115.24,67.07,115.24Z" transform="translate(0 -1.24)"/><path class="b" d="M72.93,107.12c1,3.81,1.73,6.55,1.86,7.52h0c.18-1,1-4.17,1.87-7.52H78l-2.66,9.59c-.74,2.67-1.45,3-2.74,3a4.8,4.8,0,0,1-.67,0v-1.18a5.19,5.19,0,0,0,.61,0c1,0,1.23-.65,1.59-2.11l-2.68-9.32Z" transform="translate(0 -1.24)"/><path class="b" d="M42.53,63.47V69.1H41.18V56.88h3.21A2.82,2.82,0,0,1,47.5,60c0,1.83-.88,2.61-1.63,2.86,1.13.4,1.49,1.4,1.49,3.11v.49a12.3,12.3,0,0,0,.18,2.61H46.19A12.17,12.17,0,0,1,46,66.46V66c0-1.73-.34-2.57-2-2.57Zm0-1.14h1.55c1.5,0,2.05-.84,2.05-2.27,0-1.22-.55-2.05-1.9-2.05h-1.7Z" transform="translate(0 -1.24)"/><path class="b" d="M55.33,64.44c0,3.2-1.08,4.82-3.13,4.82s-3.15-1.56-3.15-4.8,1.24-4.63,3.2-4.63S55.33,61.36,55.33,64.44Zm-4.93,0c0,2.47.61,3.66,1.8,3.66S54,66.92,54,64.46,53.41,61,52.2,61,50.4,62,50.4,64.47Z" transform="translate(0 -1.24)"/><path class="b" d="M62.93,64.44c0,3.2-1.08,4.82-3.14,4.82s-3.15-1.56-3.15-4.8,1.25-4.63,3.21-4.63S62.93,61.36,62.93,64.44Zm-4.94,0c0,2.47.62,3.66,1.8,3.66s1.79-1.21,1.79-3.67S61,61,59.79,61,58,62,58,64.47Z" transform="translate(0 -1.24)"/><path class="b" d="M64.85,69.1v-8H63.66V60h1.19V58.71c0-1.35.49-2.54,2.15-2.54a3.21,3.21,0,0,1,.75.11v1.15a3.31,3.31,0,0,0-.61-.07c-.72,0-1,.45-1,1.39V60h1.44v1.14H66.17v8Z" transform="translate(0 -1.24)"/><path class="b" d="M42.68,139.82l-2.41-12.23h1.42c.81,4.34,1.6,8.68,1.74,10.37h0c.24-1.71,1.5-7.47,2.07-10.37h1.3c.56,2.79,1.82,8.72,2,10.3h0c.25-2.14,1.41-7.52,1.91-10.3h1.35l-2.61,12.23H48.1c-.56-2.79-1.71-8.3-2-10.12h0c-.27,2-1.44,7.36-2,10.12Z" transform="translate(0 -1.24)"/><path class="b" d="M58.12,138.2a16.05,16.05,0,0,0,.08,1.62H57a5,5,0,0,1-.09-1A2.13,2.13,0,0,1,54.74,140a2.37,2.37,0,0,1-2.4-2.65c0-1.65,1.14-2.91,3.53-2.91a8.66,8.66,0,0,1,1,0v-1.22c0-.7-.15-1.62-1.37-1.62s-1.44,1-1.5,1.58H52.7a2.48,2.48,0,0,1,2.79-2.64c1.77,0,2.63.84,2.63,2.53Zm-1.28-2.7a4.75,4.75,0,0,0-.9-.06c-1.62,0-2.28.78-2.28,1.8a1.44,1.44,0,0,0,1.42,1.62c1.33,0,1.76-1,1.76-2.88Z" transform="translate(0 -1.24)"/><path class="b" d="M59.17,130.69h1.29v-2.43h1.3v2.43h1.6v1.13h-1.6v6c0,.63.14,1,.83,1a3.27,3.27,0,0,0,.65-.06v1a3.71,3.71,0,0,1-1.09.14c-1.06,0-1.69-.43-1.69-1.87v-6.25H59.17Z" transform="translate(0 -1.24)"/><path class="b" d="M65.39,135.5c0,1.78.31,3.35,1.75,3.35a1.68,1.68,0,0,0,1.66-1.64h1.29a2.88,2.88,0,0,1-3,2.77c-2.68,0-3.06-2.45-3.06-4.73,0-2.89,1-4.7,3.13-4.7,2.42,0,3,2,3,4.24,0,.19,0,.49,0,.71Zm3.46-1c0-1.58-.34-2.81-1.66-2.81-1.67,0-1.76,2.18-1.78,2.81Z" transform="translate(0 -1.24)"/><path class="b" d="M71.84,133.8c0-1.45,0-2.46,0-3.11h1.26c0,.23,0,.67,0,1.62a2.48,2.48,0,0,1,2.42-1.76V132c-1.57.06-2.4,1.05-2.4,2.72v5.1H71.84Z" transform="translate(0 -1.24)"/><path class="b" d="M80.37,127.59h3.15A3.09,3.09,0,0,1,86.78,131a3.18,3.18,0,0,1-3.44,3.52H81.72v5.3H80.37Zm1.35,5.8H83.2c1.45,0,2.21-.77,2.21-2.41a2,2,0,0,0-2.07-2.25H81.72Z" transform="translate(0 -1.24)"/><path class="b" d="M89,135.5c0,1.78.31,3.35,1.75,3.35a1.66,1.66,0,0,0,1.65-1.64h1.3a2.89,2.89,0,0,1-3,2.77c-2.68,0-3.06-2.45-3.06-4.73,0-2.89,1-4.7,3.13-4.7,2.42,0,3,2,3,4.24,0,.19,0,.49,0,.71Zm3.46-1c0-1.58-.34-2.81-1.66-2.81-1.67,0-1.76,2.18-1.78,2.81Z" transform="translate(0 -1.24)"/><path class="b" d="M95.43,133.52c0-1.88,0-2.42,0-2.83H96.7c0,.22,0,.58,0,1.19a2.15,2.15,0,0,1,2.16-1.35c1.31,0,2.34.75,2.34,2.79v6.5H99.92v-6.25c0-1.12-.36-1.87-1.41-1.87-1.22,0-1.74.81-1.74,2.68v5.44H95.43Z" transform="translate(0 -1.24)"/><path class="b" d="M104.29,135.5c0,1.78.31,3.35,1.75,3.35a1.66,1.66,0,0,0,1.65-1.64H109a2.89,2.89,0,0,1-3,2.77c-2.68,0-3.06-2.45-3.06-4.73,0-2.89,1-4.7,3.13-4.7,2.41,0,3,2,3,4.24,0,.19,0,.49,0,.71Zm3.46-1c0-1.58-.34-2.81-1.66-2.81-1.67,0-1.76,2.18-1.78,2.81Z" transform="translate(0 -1.24)"/><path class="b" d="M109.8,130.69h1.29v-2.43h1.3v2.43H114v1.13h-1.6v6c0,.63.15,1,.83,1a3.13,3.13,0,0,0,.65-.06v1a3.69,3.69,0,0,1-1.08.14c-1.06,0-1.7-.43-1.7-1.87v-6.25H109.8Z" transform="translate(0 -1.24)"/><path class="b" d="M115.23,133.8c0-1.45,0-2.46,0-3.11h1.26c0,.23,0,.67,0,1.62a2.47,2.47,0,0,1,2.41-1.76V132c-1.56.06-2.39,1.05-2.39,2.72v5.1h-1.32Z" transform="translate(0 -1.24)"/><path class="b" d="M125.28,138.2c0,.57,0,1.33.07,1.62h-1.2a5,5,0,0,1-.09-1A2.14,2.14,0,0,1,121.9,140a2.37,2.37,0,0,1-2.4-2.65c0-1.65,1.13-2.91,3.53-2.91a8.47,8.47,0,0,1,1,0v-1.22c0-.7-.14-1.62-1.36-1.62s-1.44,1-1.5,1.58h-1.26a2.48,2.48,0,0,1,2.79-2.64c1.77,0,2.63.84,2.63,2.53ZM124,135.5a4.82,4.82,0,0,0-.9-.06c-1.62,0-2.28.78-2.28,1.8a1.44,1.44,0,0,0,1.42,1.62c1.33,0,1.76-1,1.76-2.88Z" transform="translate(0 -1.24)"/><path class="b" d="M126.32,130.69h1.3v-2.43h1.3v2.43h1.6v1.13h-1.6v6c0,.63.14,1,.82,1a3.13,3.13,0,0,0,.65-.06v1a3.64,3.64,0,0,1-1.08.14c-1.06,0-1.69-.43-1.69-1.87v-6.25h-1.3Z" transform="translate(0 -1.24)"/><path class="b" d="M131.81,128.89V127h1.34v1.89Zm0,1.8h1.32v9.13h-1.32Z" transform="translate(0 -1.24)"/><path class="b" d="M141.14,135.15c0,3.21-1.08,4.83-3.14,4.83s-3.15-1.57-3.15-4.81,1.25-4.62,3.21-4.62S141.14,132.08,141.14,135.15Zm-4.94,0c0,2.47.62,3.66,1.8,3.66s1.79-1.21,1.79-3.68-.58-3.49-1.79-3.49S136.2,132.71,136.2,135.19Z" transform="translate(0 -1.24)"/><path class="b" d="M142.85,133.52c0-1.88,0-2.42,0-2.83h1.28c0,.22,0,.58,0,1.19a2.15,2.15,0,0,1,2.16-1.35c1.32,0,2.34.75,2.34,2.79v6.5h-1.33v-6.25c0-1.12-.36-1.87-1.41-1.87-1.22,0-1.74.81-1.74,2.68v5.44h-1.33Z" transform="translate(0 -1.24)"/><path class="b" d="M41.18,80.45h5.64v1.19H42.53v4.08h4v1.19h-4v5.76H41.18Z" transform="translate(0 -1.24)"/><path class="b" d="M48.15,92.67V79.85h1.31V92.67Z" transform="translate(0 -1.24)"/><path class="b" d="M57.46,88c0,3.21-1.08,4.83-3.14,4.83S51.17,91.27,51.17,88s1.24-4.63,3.21-4.63S57.46,84.93,57.46,88Zm-4.94,0c0,2.46.61,3.65,1.8,3.65s1.79-1.2,1.79-3.67-.58-3.49-1.79-3.49S52.52,85.56,52.52,88.05Z" transform="translate(0 -1.24)"/><path class="b" d="M65.05,88c0,3.21-1.08,4.83-3.13,4.83S58.77,91.27,58.77,88,60,83.4,62,83.4,65.05,84.93,65.05,88Zm-4.93,0c0,2.46.61,3.65,1.8,3.65S63.7,90.5,63.7,88s-.57-3.49-1.78-3.49S60.12,85.56,60.12,88.05Z" transform="translate(0 -1.24)"/><path class="b" d="M72.52,79.85V90.33c0,.89,0,1.8,0,2.34H71.26c0-.23-.05-.82-.05-1.22a2,2,0,0,1-2.15,1.39c-1.89,0-2.7-1.62-2.7-4.83,0-2.92,1.07-4.61,3-4.61a1.83,1.83,0,0,1,1.86.94V79.85ZM69.43,91.67c1.42,0,1.79-1.21,1.79-3.7,0-2.66-.37-3.42-1.69-3.42-1.08,0-1.82,1-1.82,3.48S68.31,91.67,69.43,91.67Z" transform="translate(0 -1.24)"/><path class="b" d="M168.71,63.67v5.91h-.79V57.32h2.85a2.7,2.7,0,0,1,2.92,3c0,1.87-.89,2.66-1.68,2.92,1.24.37,1.53,1.51,1.53,3.17v.48a14.49,14.49,0,0,0,.18,2.65h-.83a13,13,0,0,1-.16-2.68v-.4c0-1.82-.34-2.83-2.18-2.83Zm0-.74h1.92c1.6,0,2.19-1,2.19-2.55,0-1.35-.61-2.33-2.12-2.33h-2Z" transform="translate(0 -1.24)"/><path class="b" d="M181.28,65c0,3.1-1,4.79-2.9,4.79s-2.92-1.64-2.92-4.77,1.14-4.54,3-4.54S181.28,61.93,181.28,65Zm-5,0c0,2.79.79,4,2.09,4s2.09-1.28,2.09-4.07c0-2.5-.74-3.8-2.09-3.8S176.29,62.21,176.29,65Z" transform="translate(0 -1.24)"/><path class="b" d="M188.5,65c0,3.1-1,4.79-2.9,4.79s-2.92-1.64-2.92-4.77,1.14-4.54,2.95-4.54S188.5,61.93,188.5,65Zm-5,0c0,2.79.79,4,2.09,4s2.09-1.28,2.09-4.07c0-2.5-.74-3.8-2.09-3.8S183.51,62.21,183.51,65Z" transform="translate(0 -1.24)"/><path class="b" d="M190.55,69.58V61.3h-1.26v-.72h1.26v-1.5c0-1.2.34-2.43,1.89-2.43a2.62,2.62,0,0,1,.65.09v.76a2.78,2.78,0,0,0-.67-.09c-.79,0-1.08.52-1.08,1.63v1.54h1.5v.72h-1.5v8.28Z" transform="translate(0 -1.24)"/><path class="b" d="M197.35,58.49V56.74h.79v1.75Zm0,2.09h.78v9h-.78Z" transform="translate(0 -1.24)"/><path class="b" d="M200.46,63.28c0-1.5,0-2.25,0-2.7h.75a11.87,11.87,0,0,1,0,1.29,2.07,2.07,0,0,1,2-1.44,1.75,1.75,0,0,1,1.89,1.41,2.2,2.2,0,0,1,2.17-1.41c1,0,2.11.47,2.11,2.56v6.59h-.79V63.15c0-1-.29-2-1.48-2-1.35,0-1.82,1.26-1.82,2.54v5.87h-.79V63.19c0-1.3-.43-2-1.44-2-1.24,0-1.89,1.24-1.89,2.72v5.69h-.78Z" transform="translate(0 -1.24)"/><path class="b" d="M211.79,72.93V63.22c0-1.24,0-2.09,0-2.64h.76c0,.14,0,.82,0,1.35a2.2,2.2,0,0,1,2.23-1.5c1.73,0,2.63,1.55,2.63,4.54s-1.09,4.77-2.88,4.77a2,2,0,0,1-2-1.24v4.43Zm2.86-11.76c-1.62,0-2.12,1.55-2.12,3.92,0,2.2.27,3.91,2,3.91,1.35,0,2.07-1.65,2.07-4S216,61.17,214.65,61.17Z" transform="translate(0 -1.24)"/><path class="b" d="M219.29,63.65c0-1.4,0-2.43,0-3.07H220c0,.27,0,.72,0,1.67a2.57,2.57,0,0,1,2.39-1.8v.85c-1.58.09-2.39,1.42-2.39,3v5.24h-.78Z" transform="translate(0 -1.24)"/><path class="b" d="M229,65c0,3.1-1,4.79-2.9,4.79s-2.92-1.64-2.92-4.77,1.14-4.54,2.95-4.54S229,61.93,229,65Zm-5,0c0,2.79.79,4,2.09,4s2.09-1.28,2.09-4.07c0-2.5-.74-3.8-2.09-3.8S224,62.21,224,65Z" transform="translate(0 -1.24)"/><path class="b" d="M230.85,60.58c.85,3.15,1.94,7.14,2.11,8h0c.09-.74,1.84-6.66,2.2-8H236l-2.61,9h-.86l-2.49-9Z" transform="translate(0 -1.24)"/><path class="b" d="M237.65,65.11c0,2.18.4,3.91,2,3.91s1.87-1.64,1.93-1.89h.79a2.77,2.77,0,0,1-2.72,2.61c-2.48,0-2.83-2.41-2.83-4.63,0-2.84.9-4.68,2.92-4.68,2.2,0,2.7,2,2.7,4.12,0,.08,0,.31,0,.56Zm4-.7c0-2-.49-3.26-1.93-3.26-2,0-2.05,2.67-2.07,3.26Z" transform="translate(0 -1.24)"/><path class="b" d="M244.28,63.28c0-1.5,0-2.25,0-2.7H245c0,.3,0,.79,0,1.29a2.07,2.07,0,0,1,2-1.44A1.75,1.75,0,0,1,249,61.84a2.2,2.2,0,0,1,2.18-1.41c1,0,2.1.47,2.1,2.56v6.59h-.79V63.15c0-1-.29-2-1.48-2-1.35,0-1.82,1.26-1.82,2.54v5.87h-.79V63.19c0-1.3-.43-2-1.44-2-1.24,0-1.89,1.24-1.89,2.72v5.69h-.77Z" transform="translate(0 -1.24)"/><path class="b" d="M255.94,65.11c0,2.18.4,3.91,2,3.91a2,2,0,0,0,1.92-1.89h.8A2.77,2.77,0,0,1,258,69.74c-2.49,0-2.83-2.41-2.83-4.63,0-2.84.9-4.68,2.92-4.68,2.19,0,2.7,2,2.7,4.12,0,.08,0,.31,0,.56Zm4-.7c0-2-.49-3.26-1.93-3.26-2,0-2,2.67-2.07,3.26Z" transform="translate(0 -1.24)"/><path class="b" d="M262.56,63.35c0-1.84,0-2.4,0-2.77h.75c0,.21,0,.55,0,1.33a2.2,2.2,0,0,1,2.23-1.48c1.21,0,2.32.61,2.32,2.74v6.41h-.79v-6.3c0-1.23-.48-2.11-1.64-2.11-1.49,0-2.1,1-2.1,3.19v5.22h-.8Z" transform="translate(0 -1.24)"/><path class="b" d="M269,60.58h1.33V58.07h.77v2.51h1.68v.72h-1.68v6.55c0,.68.16,1.13.85,1.13a3.94,3.94,0,0,0,.72,0v.65a3.06,3.06,0,0,1-.92.12c-.81,0-1.42-.36-1.42-1.65V61.3H269Z" transform="translate(0 -1.24)"/><path class="b" d="M277.63,63.65c0-1.4,0-2.43,0-3.07h.76c0,.27,0,.72,0,1.67a2.59,2.59,0,0,1,2.4-1.8v.85c-1.59.09-2.4,1.42-2.4,3v5.24h-.77Z" transform="translate(0 -1.24)"/><path class="b" d="M282.33,65.11c0,2.18.39,3.91,2,3.91s1.87-1.64,1.92-1.89h.79a2.75,2.75,0,0,1-2.71,2.61c-2.49,0-2.83-2.41-2.83-4.63,0-2.84.9-4.68,2.92-4.68,2.19,0,2.7,2,2.7,4.12,0,.08,0,.31,0,.56Zm4-.7c0-2-.48-3.26-1.92-3.26-2,0-2.05,2.67-2.07,3.26Z" transform="translate(0 -1.24)"/><path class="b" d="M289,69.58V56.74h.78V69.58Z" transform="translate(0 -1.24)"/><path class="b" d="M296.77,68.23a13.21,13.21,0,0,0,.07,1.35h-.72a6,6,0,0,1-.09-1.15,2.14,2.14,0,0,1-2.2,1.31,2.28,2.28,0,0,1-2.32-2.56c0-1.53,1-2.84,3.42-2.84a8.15,8.15,0,0,1,1.08,0V63c0-.83-.18-1.89-1.62-1.89-1.62,0-1.69,1.19-1.75,1.8h-.77a2.34,2.34,0,0,1,2.55-2.52c1.62,0,2.35.83,2.35,2.45ZM296,65.09a9.21,9.21,0,0,0-1,0c-1.87,0-2.68.9-2.68,2.09A1.68,1.68,0,0,0,294,69c1.47,0,2.07-1,2.07-3.3Z" transform="translate(0 -1.24)"/><path class="b" d="M297.92,60.58h1.33V58.07H300v2.51h1.68v.72H300v6.55c0,.68.16,1.13.85,1.13a4,4,0,0,0,.72,0v.65a3.06,3.06,0,0,1-.92.12c-.81,0-1.42-.36-1.42-1.65V61.3h-1.33Z" transform="translate(0 -1.24)"/><path class="b" d="M303.23,65.11c0,2.18.39,3.91,2,3.91a2,2,0,0,0,1.93-1.89H308a2.76,2.76,0,0,1-2.72,2.61c-2.48,0-2.82-2.41-2.82-4.63,0-2.84.9-4.68,2.91-4.68,2.2,0,2.71,2,2.71,4.12,0,.08,0,.31,0,.56Zm4-.7c0-2-.48-3.26-1.93-3.26-2,0-2.05,2.67-2.07,3.26Z" transform="translate(0 -1.24)"/><path class="b" d="M315.2,56.74V67.38c0,.76,0,1.66,0,2.2h-.75c0-.24,0-.92,0-1.39a2.07,2.07,0,0,1-2.19,1.55c-1.86,0-2.69-1.51-2.69-4.77,0-2.95,1.16-4.54,2.92-4.54,1.3,0,1.75.58,2,1.08V56.74ZM312.35,69c1.61,0,2.07-1.44,2.07-4,0-3-.5-3.76-2-3.76-1.22,0-2.09,1.13-2.09,3.8C310.37,67.9,311.09,69,312.35,69Z" transform="translate(0 -1.24)"/><path class="b" d="M321,72.93V63.22c0-1.24,0-2.09,0-2.64h.75c0,.14,0,.82,0,1.35a2.2,2.2,0,0,1,2.23-1.5c1.73,0,2.63,1.55,2.63,4.54s-1.1,4.77-2.88,4.77a2,2,0,0,1-2-1.24v4.43Zm2.87-11.76c-1.62,0-2.13,1.55-2.13,3.92,0,2.2.27,3.91,2,3.91,1.35,0,2.07-1.65,2.07-4S325.29,61.17,323.91,61.17Z" transform="translate(0 -1.24)"/><path class="b" d="M328.55,63.65c0-1.4,0-2.43,0-3.07h.76c0,.27,0,.72,0,1.67a2.57,2.57,0,0,1,2.39-1.8v.85c-1.58.09-2.39,1.42-2.39,3v5.24h-.78Z" transform="translate(0 -1.24)"/><path class="b" d="M338.26,65c0,3.1-1,4.79-2.9,4.79s-2.92-1.64-2.92-4.77,1.13-4.54,2.95-4.54S338.26,61.93,338.26,65Zm-5,0c0,2.79.79,4,2.09,4s2.09-1.28,2.09-4.07c0-2.5-.74-3.8-2.09-3.8S333.27,62.21,333.27,65Z" transform="translate(0 -1.24)"/><path class="b" d="M341,60.58v9.83c0,1.53-.2,2.66-1.68,2.66l-.41,0v-.72h.39c.78,0,.92-.5.92-1.67V60.58Zm-.74-2.09V56.74h.77v1.75Z" transform="translate(0 -1.24)"/><path class="b" d="M343.74,65.11c0,2.18.4,3.91,2,3.91s1.87-1.64,1.93-1.89h.79a2.77,2.77,0,0,1-2.72,2.61c-2.48,0-2.83-2.41-2.83-4.63,0-2.84.9-4.68,2.92-4.68,2.2,0,2.7,2,2.7,4.12,0,.08,0,.31,0,.56Zm4-.7c0-2-.49-3.26-1.93-3.26-2,0-2.05,2.67-2.07,3.26Z" transform="translate(0 -1.24)"/><path class="b" d="M355.55,67a2.71,2.71,0,0,1-2.66,2.72c-2.2,0-2.83-2.09-2.83-4.66s.85-4.65,2.95-4.65a2.53,2.53,0,0,1,2.54,2.67h-.83c0-.38-.18-2-1.71-2s-2.12,1.68-2.12,3.91c0,2.43.61,4,2,4s1.75-1.55,1.82-2Z" transform="translate(0 -1.24)"/><path class="b" d="M356.43,60.58h1.33V58.07h.78v2.51h1.67v.72h-1.67v6.55c0,.68.16,1.13.84,1.13a4.12,4.12,0,0,0,.73,0v.65a3.14,3.14,0,0,1-.92.12c-.81,0-1.43-.36-1.43-1.65V61.3h-1.33Z" transform="translate(0 -1.24)"/><path class="b" d="M167.92,80.41h5.22v.76h-4.43v4.68h4.15v.74h-4.15v6.08h-.79Z" transform="translate(0 -1.24)"/><path class="b" d="M174.6,92.67V79.84h.78V92.67Z" transform="translate(0 -1.24)"/><path class="b" d="M183.06,88.05c0,3.09-1,4.79-2.9,4.79s-2.91-1.64-2.91-4.78,1.13-4.53,2.95-4.53S183.06,85,183.06,88.05Zm-5,0c0,2.79.8,4,2.09,4s2.09-1.28,2.09-4.07c0-2.51-.74-3.8-2.09-3.8S178.07,85.31,178.07,88.08Z" transform="translate(0 -1.24)"/><path class="b" d="M190.28,88.05c0,3.09-1,4.79-2.9,4.79s-2.92-1.64-2.92-4.78,1.14-4.53,3-4.53S190.28,85,190.28,88.05Zm-5,0c0,2.79.79,4,2.09,4s2.09-1.28,2.09-4.07c0-2.51-.74-3.8-2.09-3.8S185.29,85.31,185.29,88.08Z" transform="translate(0 -1.24)"/><path class="b" d="M197.34,79.84V90.48c0,.75,0,1.65,0,2.19h-.75c0-.23,0-.91,0-1.38a2.07,2.07,0,0,1-2.19,1.55c-1.86,0-2.69-1.52-2.69-4.78,0-3,1.15-4.53,2.92-4.53,1.29,0,1.75.57,2,1.08V79.84Zm-2.85,12.24c1.6,0,2.07-1.44,2.07-4,0-3-.5-3.76-2-3.76-1.22,0-2.09,1.13-2.09,3.79C192.51,91,193.23,92.08,194.49,92.08Z" transform="translate(0 -1.24)"/><path class="b" d="M203.18,81.58V79.84h.8v1.74Zm0,2.09H204v9h-.78Z" transform="translate(0 -1.24)"/><path class="b" d="M206.3,86.37c0-1.49,0-2.25,0-2.7H207c0,.31,0,.79,0,1.3a2.06,2.06,0,0,1,2-1.44,1.75,1.75,0,0,1,1.89,1.4,2.21,2.21,0,0,1,2.18-1.4c1,0,2.1.47,2.1,2.55v6.59h-.79V86.25c0-1-.29-2-1.48-2-1.35,0-1.81,1.26-1.81,2.53v5.87h-.8V86.28c0-1.29-.43-2-1.44-2-1.24,0-1.89,1.24-1.89,2.71v5.69h-.77Z" transform="translate(0 -1.24)"/><path class="b" d="M217.62,96v-9.7c0-1.24,0-2.09,0-2.65h.76c0,.15,0,.83,0,1.35a2.21,2.21,0,0,1,2.24-1.49c1.73,0,2.63,1.55,2.63,4.53s-1.1,4.78-2.88,4.78a2,2,0,0,1-2-1.25V96Zm2.86-11.75c-1.62,0-2.12,1.54-2.12,3.92,0,2.2.27,3.91,2,3.91,1.34,0,2.07-1.66,2.07-4S221.87,84.27,220.48,84.27Z" transform="translate(0 -1.24)"/><path class="b" d="M225.13,86.75c0-1.4,0-2.43,0-3.08h.75c0,.27,0,.72,0,1.68a2.55,2.55,0,0,1,2.39-1.8v.84c-1.58.09-2.39,1.42-2.39,3v5.23h-.77Z" transform="translate(0 -1.24)"/><path class="b" d="M234.83,88.05c0,3.09-1,4.79-2.9,4.79S229,91.2,229,88.06s1.14-4.53,3-4.53S234.83,85,234.83,88.05Zm-5,0c0,2.79.79,4,2.09,4S234,90.84,234,88.05c0-2.51-.74-3.8-2.09-3.8S229.84,85.31,229.84,88.08Z" transform="translate(0 -1.24)"/><path class="b" d="M236.68,83.67c.85,3.15,1.95,7.15,2.11,8h0c.1-.74,1.84-6.67,2.2-8h.81l-2.61,9h-.86l-2.49-9Z" transform="translate(0 -1.24)"/><path class="b" d="M243.49,88.21c0,2.18.39,3.91,2,3.91a2,2,0,0,0,1.93-1.89h.79a2.78,2.78,0,0,1-2.72,2.61c-2.48,0-2.82-2.42-2.82-4.63,0-2.85.9-4.68,2.91-4.68,2.2,0,2.7,1.94,2.7,4.12,0,.07,0,.31,0,.56Zm4-.7c0-2-.49-3.26-1.93-3.26-2,0-2,2.66-2.07,3.26Z" transform="translate(0 -1.24)"/><path class="b" d="M250.11,86.37c0-1.49,0-2.25,0-2.7h.76c0,.31,0,.79,0,1.3a2.07,2.07,0,0,1,2-1.44,1.75,1.75,0,0,1,1.89,1.4,2.23,2.23,0,0,1,2.18-1.4c1,0,2.1.47,2.1,2.55v6.59h-.79V86.25c0-1-.29-2-1.47-2-1.36,0-1.82,1.26-1.82,2.53v5.87h-.8V86.28c0-1.29-.43-2-1.44-2-1.24,0-1.89,1.24-1.89,2.71v5.69h-.77Z" transform="translate(0 -1.24)"/><path class="b" d="M261.77,88.21c0,2.18.4,3.91,2,3.91s1.87-1.64,1.93-1.89h.79a2.78,2.78,0,0,1-2.72,2.61c-2.49,0-2.83-2.42-2.83-4.63,0-2.85.9-4.68,2.92-4.68,2.2,0,2.7,1.94,2.7,4.12,0,.07,0,.31,0,.56Zm4-.7c0-2-.49-3.26-1.93-3.26-2,0-2.05,2.66-2.07,3.26Z" transform="translate(0 -1.24)"/><path class="b" d="M268.4,86.44c0-1.83,0-2.39,0-2.77h.75c0,.22,0,.56,0,1.33a2.22,2.22,0,0,1,2.23-1.47c1.21,0,2.33.61,2.33,2.73v6.41h-.79v-6.3c0-1.22-.49-2.1-1.64-2.1-1.5,0-2.11,1-2.11,3.18v5.22h-.79Z" transform="translate(0 -1.24)"/><path class="b" d="M274.86,83.67h1.33v-2.5H277v2.5h1.68v.72H277V91c0,.68.17,1.13.85,1.13a5.08,5.08,0,0,0,.72,0v.64a3.05,3.05,0,0,1-.92.13c-.81,0-1.42-.36-1.42-1.66V84.39h-1.33Z" transform="translate(0 -1.24)"/><path class="b" d="M283.46,86.75c0-1.4,0-2.43,0-3.08h.75c0,.27,0,.72,0,1.68a2.55,2.55,0,0,1,2.39-1.8v.84c-1.58.09-2.39,1.42-2.39,3v5.23h-.78Z" transform="translate(0 -1.24)"/><path class="b" d="M288.16,88.21c0,2.18.4,3.91,2,3.91s1.87-1.64,1.92-1.89h.8a2.78,2.78,0,0,1-2.72,2.61c-2.49,0-2.83-2.42-2.83-4.63,0-2.85.9-4.68,2.92-4.68,2.19,0,2.7,1.94,2.7,4.12,0,.07,0,.31,0,.56Zm4-.7c0-2-.49-3.26-1.93-3.26-2,0-2.05,2.66-2.07,3.26Z" transform="translate(0 -1.24)"/><path class="b" d="M294.78,92.67V79.84h.78V92.67Z" transform="translate(0 -1.24)"/><path class="b" d="M302.6,91.32a13,13,0,0,0,.07,1.35H302a5.87,5.87,0,0,1-.09-1.15,2.11,2.11,0,0,1-2.2,1.32,2.28,2.28,0,0,1-2.32-2.56c0-1.53,1-2.84,3.42-2.84a10.64,10.64,0,0,1,1.08,0V86.14c0-.83-.18-1.89-1.62-1.89-1.62,0-1.69,1.19-1.75,1.8h-.77a2.35,2.35,0,0,1,2.56-2.52c1.62,0,2.34.83,2.34,2.45Zm-.74-3.13a6.85,6.85,0,0,0-1.05,0c-1.87,0-2.68.91-2.68,2.09a1.68,1.68,0,0,0,1.66,1.88c1.48,0,2.07-1,2.07-3.3Z" transform="translate(0 -1.24)"/><path class="b" d="M303.75,83.67h1.33v-2.5h.77v2.5h1.68v.72h-1.68V91c0,.68.17,1.13.85,1.13a5.08,5.08,0,0,0,.72,0v.64a3.05,3.05,0,0,1-.92.13c-.81,0-1.42-.36-1.42-1.66V84.39h-1.33Z" transform="translate(0 -1.24)"/><path class="b" d="M309.06,88.21c0,2.18.39,3.91,2,3.91A2,2,0,0,0,313,90.23h.79a2.76,2.76,0,0,1-2.72,2.61c-2.48,0-2.82-2.42-2.82-4.63,0-2.85.9-4.68,2.91-4.68,2.2,0,2.71,1.94,2.71,4.12,0,.07,0,.31,0,.56Zm4-.7c0-2-.48-3.26-1.92-3.26-2,0-2.06,2.66-2.07,3.26Z" transform="translate(0 -1.24)"/><path class="b" d="M321,79.84V90.48c0,.75,0,1.65,0,2.19h-.76c0-.23,0-.91,0-1.38a2.08,2.08,0,0,1-2.2,1.55c-1.86,0-2.68-1.52-2.68-4.78,0-3,1.15-4.53,2.91-4.53,1.3,0,1.75.57,2,1.08V79.84Zm-2.85,12.24c1.61,0,2.08-1.44,2.08-4,0-3-.51-3.76-2-3.76-1.22,0-2.09,1.13-2.09,3.79C316.2,91,316.92,92.08,318.18,92.08Z" transform="translate(0 -1.24)"/><path class="b" d="M326.88,96v-9.7c0-1.24,0-2.09,0-2.65h.76c0,.15,0,.83,0,1.35a2.2,2.2,0,0,1,2.23-1.49c1.73,0,2.63,1.55,2.63,4.53s-1.09,4.78-2.88,4.78a2,2,0,0,1-2-1.25V96Zm2.86-11.75c-1.62,0-2.12,1.54-2.12,3.92,0,2.2.27,3.91,2,3.91,1.35,0,2.07-1.66,2.07-4S331.13,84.27,329.74,84.27Z" transform="translate(0 -1.24)"/><path class="b" d="M334.38,86.75c0-1.4,0-2.43,0-3.08h.75c0,.27,0,.72,0,1.68a2.55,2.55,0,0,1,2.39-1.8v.84c-1.58.09-2.39,1.42-2.39,3v5.23h-.78Z" transform="translate(0 -1.24)"/><path class="b" d="M344.09,88.05c0,3.09-1,4.79-2.9,4.79s-2.92-1.64-2.92-4.78,1.14-4.53,3-4.53S344.09,85,344.09,88.05Zm-5,0c0,2.79.79,4,2.09,4s2.09-1.28,2.09-4.07c0-2.51-.74-3.8-2.09-3.8S339.1,85.31,339.1,88.08Z" transform="translate(0 -1.24)"/><path class="b" d="M346.86,83.67V93.5c0,1.53-.2,2.67-1.68,2.67a3.32,3.32,0,0,1-.41,0v-.72a2.89,2.89,0,0,0,.39,0c.78,0,.92-.5.92-1.68V83.67Zm-.74-2.09V79.84h.77v1.74Z" transform="translate(0 -1.24)"/><path class="b" d="M349.58,88.21c0,2.18.39,3.91,2,3.91s1.87-1.64,1.93-1.89h.79a2.78,2.78,0,0,1-2.72,2.61c-2.48,0-2.82-2.42-2.82-4.63,0-2.85.9-4.68,2.91-4.68,2.2,0,2.7,1.94,2.7,4.12,0,.07,0,.31,0,.56Zm4-.7c0-2-.49-3.26-1.93-3.26-2,0-2.05,2.66-2.07,3.26Z" transform="translate(0 -1.24)"/><path class="b" d="M361.38,90.12a2.72,2.72,0,0,1-2.66,2.72c-2.2,0-2.83-2.09-2.83-4.67s.85-4.64,3-4.64a2.52,2.52,0,0,1,2.53,2.66h-.83c0-.38-.17-1.94-1.7-1.94s-2.13,1.67-2.13,3.9c0,2.44.61,4,2,4s1.74-1.55,1.81-2Z" transform="translate(0 -1.24)"/><path class="b" d="M362.26,83.67h1.34v-2.5h.77v2.5H366v.72h-1.67V91c0,.68.16,1.13.85,1.13a5.19,5.19,0,0,0,.72,0v.64a3.05,3.05,0,0,1-.92.13c-.81,0-1.42-.36-1.42-1.66V84.39h-1.34Z" transform="translate(0 -1.24)"/><path class="b" d="M168.71,110.34v5.91h-.79V104h2.85c1.94,0,2.92,1.18,2.92,3s-.89,2.66-1.68,2.91c1.24.38,1.53,1.52,1.53,3.17v.49a14.49,14.49,0,0,0,.18,2.65h-.83a13.07,13.07,0,0,1-.16-2.69v-.39c0-1.82-.34-2.83-2.18-2.83Zm0-.74h1.92c1.6,0,2.19-1,2.19-2.55,0-1.35-.61-2.33-2.12-2.33h-2Z" transform="translate(0 -1.24)"/><path class="b" d="M176.28,111.78c0,2.18.39,3.91,2,3.91s1.87-1.64,1.93-1.89H181a2.77,2.77,0,0,1-2.72,2.61c-2.48,0-2.83-2.41-2.83-4.63,0-2.84.91-4.68,2.92-4.68,2.2,0,2.7,1.94,2.7,4.12,0,.08,0,.31,0,.56Zm4-.7c0-2-.49-3.26-1.93-3.26-2,0-2.05,2.66-2.07,3.26Z" transform="translate(0 -1.24)"/><path class="b" d="M188.08,113.69a2.72,2.72,0,0,1-2.66,2.72c-2.2,0-2.83-2.09-2.83-4.66s.85-4.65,2.95-4.65a2.53,2.53,0,0,1,2.54,2.67h-.82c0-.38-.18-2-1.72-2s-2.12,1.67-2.12,3.91c0,2.43.61,4,2,4s1.74-1.55,1.81-2Z" transform="translate(0 -1.24)"/><path class="b" d="M195.23,111.62c0,3.1-1,4.79-2.9,4.79s-2.92-1.64-2.92-4.77,1.14-4.54,3-4.54S195.23,108.59,195.23,111.62Zm-5,0c0,2.8.8,4,2.09,4s2.09-1.28,2.09-4.07c0-2.5-.74-3.8-2.09-3.8S190.24,108.88,190.24,111.65Z" transform="translate(0 -1.24)"/><path class="b" d="M197.08,107.24c.85,3.16,1.95,7.15,2.11,8h0c.09-.74,1.83-6.66,2.19-8h.81l-2.61,9h-.86l-2.49-9Z" transform="translate(0 -1.24)"/><path class="b" d="M203.89,111.78c0,2.18.39,3.91,2,3.91a2,2,0,0,0,1.93-1.89h.79a2.77,2.77,0,0,1-2.72,2.61c-2.48,0-2.82-2.41-2.82-4.63,0-2.84.9-4.68,2.91-4.68,2.2,0,2.7,1.94,2.7,4.12,0,.08,0,.31,0,.56Zm4-.7c0-2-.49-3.26-1.93-3.26-2,0-2.05,2.66-2.07,3.26Z" transform="translate(0 -1.24)"/><path class="b" d="M210.51,110.32c0-1.4,0-2.43,0-3.08h.76c0,.27,0,.72,0,1.68a2.58,2.58,0,0,1,2.4-1.8V108c-1.59.09-2.4,1.43-2.4,3.05v5.24h-.77Z" transform="translate(0 -1.24)"/><path class="b" d="M215.48,107.24c1.17,4.34,2,7.19,2.12,8.09h0c.16-.88,1.1-4.27,2.12-8.09h.87L218,116.73c-.71,2.52-1.21,3-2.51,3a3.1,3.1,0,0,1-.54,0v-.76a2.45,2.45,0,0,0,.58,0c1,0,1.28-.81,1.73-2.5l-2.6-9.24Z" transform="translate(0 -1.24)"/><path class="b" d="M225.59,116.25V108h-1.26v-.72h1.26v-1.49c0-1.21.35-2.43,1.89-2.43a2.22,2.22,0,0,1,.65.09v.75a3.28,3.28,0,0,0-.66-.09c-.8,0-1.09.53-1.09,1.64v1.53h1.5V108h-1.5v8.29Z" transform="translate(0 -1.24)"/><path class="b" d="M229.16,110.32c0-1.4,0-2.43,0-3.08h.75c0,.27,0,.72,0,1.68a2.57,2.57,0,0,1,2.4-1.8V108c-1.59.09-2.4,1.43-2.4,3.05v5.24h-.77Z" transform="translate(0 -1.24)"/><path class="b" d="M238.86,111.62c0,3.1-1,4.79-2.9,4.79s-2.92-1.64-2.92-4.77,1.14-4.54,3-4.54S238.86,108.59,238.86,111.62Zm-5,0c0,2.8.8,4,2.09,4s2.09-1.28,2.09-4.07c0-2.5-.74-3.8-2.09-3.8S233.87,108.88,233.87,111.65Z" transform="translate(0 -1.24)"/><path class="b" d="M240.73,109.94c0-1.49,0-2.25,0-2.7h.76a12.17,12.17,0,0,1,0,1.3,2,2,0,0,1,2-1.44,1.74,1.74,0,0,1,1.89,1.4,2.23,2.23,0,0,1,2.18-1.4c1,0,2.11.47,2.11,2.56v6.59h-.8v-6.43c0-1-.29-2-1.47-2-1.35,0-1.82,1.26-1.82,2.54v5.87h-.79v-6.4c0-1.29-.44-2-1.44-2-1.25,0-1.89,1.24-1.89,2.72v5.69h-.78Z" transform="translate(0 -1.24)"/><path class="b" d="M255.71,104h.79v5.39h4.63V104h.81v12.27h-.81v-6.13H256.5v6.13h-.79Z" transform="translate(0 -1.24)"/><path class="b" d="M269.41,113.89c0,1,0,1.94,0,2.36h-.73a9,9,0,0,1-.06-1.35,2.18,2.18,0,0,1-2.23,1.51c-.9,0-2.25-.29-2.25-2.68v-6.49h.79v6.27c0,1.33.42,2.18,1.64,2.18s2-.74,2-3v-5.42h.8Z" transform="translate(0 -1.24)"/><path class="b" d="M271.73,110.32c0-1.4,0-2.43,0-3.08h.75c0,.27,0,.72,0,1.68a2.56,2.56,0,0,1,2.39-1.8V108c-1.58.09-2.39,1.43-2.39,3.05v5.24h-.77Z" transform="translate(0 -1.24)"/><path class="b" d="M276.15,110.32c0-1.4,0-2.43,0-3.08h.75c0,.27,0,.72,0,1.68a2.56,2.56,0,0,1,2.39-1.8V108c-1.58.09-2.39,1.43-2.39,3.05v5.24h-.78Z" transform="translate(0 -1.24)"/><path class="b" d="M280.58,105.16v-1.75h.8v1.75Zm0,2.08h.78v9h-.78Z" transform="translate(0 -1.24)"/><path class="b" d="M288.72,113.69c0,.32-.25,2.72-2.67,2.72-2.19,0-2.82-2.09-2.82-4.66s.84-4.65,2.95-4.65a2.53,2.53,0,0,1,2.54,2.67h-.83c0-.38-.18-2-1.71-2s-2.12,1.67-2.12,3.91c0,2.43.61,4,2,4s1.75-1.55,1.82-2Z" transform="translate(0 -1.24)"/><path class="b" d="M295.22,114.9a13.41,13.41,0,0,0,.07,1.35h-.72a7,7,0,0,1-.09-1.16,2.11,2.11,0,0,1-2.2,1.32,2.28,2.28,0,0,1-2.32-2.56c0-1.53,1-2.84,3.42-2.84a10.75,10.75,0,0,1,1.08,0v-1.33c0-.83-.18-1.89-1.62-1.89-1.62,0-1.69,1.19-1.75,1.8h-.77a2.35,2.35,0,0,1,2.56-2.52c1.62,0,2.34.83,2.34,2.45Zm-.74-3.14a9,9,0,0,0-1,0c-1.88,0-2.69.9-2.69,2.09a1.68,1.68,0,0,0,1.66,1.87c1.47,0,2.07-1,2.07-3.3Z" transform="translate(0 -1.24)"/><path class="b" d="M297.57,110c0-1.84,0-2.4,0-2.78h.75c0,.22,0,.56,0,1.34a2.2,2.2,0,0,1,2.23-1.48c1.21,0,2.32.61,2.32,2.74v6.41h-.79v-6.31c0-1.22-.48-2.1-1.64-2.1-1.49,0-2.1,1-2.1,3.18v5.23h-.8Z" transform="translate(0 -1.24)"/><path class="b" d="M305.58,111.78c0,2.18.4,3.91,2,3.91s1.87-1.64,1.93-1.89h.79a2.77,2.77,0,0,1-2.72,2.61c-2.48,0-2.83-2.41-2.83-4.63,0-2.84.9-4.68,2.92-4.68,2.2,0,2.7,1.94,2.7,4.12,0,.08,0,.31,0,.56Zm4-.7c0-2-.49-3.26-1.93-3.26-2,0-2.05,2.66-2.07,3.26Z" transform="translate(0 -1.24)"/><path class="b" d="M315.88,113.17c.09,1.4.81,2.48,2.3,2.48s2.22-.72,2.22-2.45c0-1.45-.54-2.21-2.29-3.06s-2.66-1.69-2.66-3.44a2.7,2.7,0,0,1,2.83-2.86c2.1,0,2.71,1.59,2.75,2.94h-.79c-.06-.54-.24-2.2-2-2.2a1.84,1.84,0,0,0-1.94,2c0,1.37.59,2,2.19,2.78,2.11,1,2.78,2.07,2.78,3.76,0,1.94-1.05,3.24-3.08,3.24-2.24,0-3-1.48-3.12-3.22Z" transform="translate(0 -1.24)"/><path class="b" d="M328,114.9a12.48,12.48,0,0,0,.08,1.35h-.72a6.06,6.06,0,0,1-.09-1.16,2.12,2.12,0,0,1-2.2,1.32,2.28,2.28,0,0,1-2.32-2.56c0-1.53,1-2.84,3.42-2.84.5,0,.77,0,1.08,0v-1.33c0-.83-.18-1.89-1.62-1.89-1.62,0-1.69,1.19-1.75,1.8h-.77a2.34,2.34,0,0,1,2.55-2.52c1.63,0,2.34.83,2.34,2.45Zm-.73-3.14a9.31,9.31,0,0,0-1.05,0c-1.87,0-2.68.9-2.68,2.09a1.68,1.68,0,0,0,1.66,1.87c1.47,0,2.07-1,2.07-3.3Z" transform="translate(0 -1.24)"/><path class="b" d="M330.35,110c0-1.84,0-2.4,0-2.78h.76c0,.22,0,.56,0,1.34a2.2,2.2,0,0,1,2.23-1.48c1.2,0,2.32.61,2.32,2.74v6.41h-.79v-6.31c0-1.22-.49-2.1-1.64-2.1-1.49,0-2.11,1-2.11,3.18v5.23h-.79Z" transform="translate(0 -1.24)"/><path class="b" d="M343.21,103.41v10.64c0,.76,0,1.66,0,2.2h-.75c0-.24,0-.92,0-1.39a2.07,2.07,0,0,1-2.2,1.55c-1.85,0-2.68-1.51-2.68-4.77,0-3,1.15-4.54,2.92-4.54a1.85,1.85,0,0,1,2,1.08v-4.77Zm-2.85,12.24c1.6,0,2.07-1.44,2.07-4.05,0-3-.5-3.76-2-3.76-1.23,0-2.09,1.13-2.09,3.8C338.38,114.57,339.1,115.65,340.36,115.65Z" transform="translate(0 -1.24)"/><path class="b" d="M345.63,107.24c1.17,4.34,2,7.19,2.13,8.09h0c.16-.88,1.1-4.27,2.12-8.09h.87l-2.67,9.49c-.7,2.52-1.21,3-2.5,3a3.1,3.1,0,0,1-.54,0v-.76a2.37,2.37,0,0,0,.57,0c1,0,1.28-.81,1.73-2.5l-2.59-9.24Z" transform="translate(0 -1.24)"/><path class="b" d="M355.64,110.32c0-1.4,0-2.43,0-3.08h.76c0,.27,0,.72,0,1.68a2.56,2.56,0,0,1,2.39-1.8V108c-1.58.09-2.39,1.43-2.39,3.05v5.24h-.78Z" transform="translate(0 -1.24)"/><path class="b" d="M360.34,111.78c0,2.18.39,3.91,2,3.91s1.87-1.64,1.92-1.89h.79a2.75,2.75,0,0,1-2.71,2.61c-2.49,0-2.83-2.41-2.83-4.63,0-2.84.9-4.68,2.92-4.68,2.19,0,2.7,1.94,2.7,4.12,0,.08,0,.31,0,.56Zm4-.7c0-2-.48-3.26-1.92-3.26-2,0-2.05,2.66-2.07,3.26Z" transform="translate(0 -1.24)"/><path class="b" d="M367,116.25V103.41h.78v12.84Z" transform="translate(0 -1.24)"/><path class="b" d="M374.78,114.9a13.41,13.41,0,0,0,.07,1.35h-.72a6.06,6.06,0,0,1-.09-1.16,2.12,2.12,0,0,1-2.2,1.32,2.28,2.28,0,0,1-2.32-2.56c0-1.53,1-2.84,3.42-2.84.5,0,.77,0,1.08,0v-1.33c0-.83-.18-1.89-1.62-1.89-1.62,0-1.69,1.19-1.75,1.8h-.77a2.34,2.34,0,0,1,2.56-2.52c1.62,0,2.34.83,2.34,2.45Zm-.74-3.14a9.21,9.21,0,0,0-1.05,0c-1.87,0-2.68.9-2.68,2.09a1.68,1.68,0,0,0,1.66,1.87c1.47,0,2.07-1,2.07-3.3Z" transform="translate(0 -1.24)"/><path class="b" d="M375.93,107.24h1.33v-2.5H378v2.5h1.68V108H378v6.56c0,.68.17,1.13.85,1.13a5.08,5.08,0,0,0,.72-.05v.65a3.06,3.06,0,0,1-.92.12c-.81,0-1.42-.36-1.42-1.65V108h-1.33Z" transform="translate(0 -1.24)"/><path class="b" d="M381.24,111.78c0,2.18.39,3.91,2,3.91a2,2,0,0,0,1.93-1.89H386a2.75,2.75,0,0,1-2.72,2.61c-2.48,0-2.82-2.41-2.82-4.63,0-2.84.9-4.68,2.91-4.68,2.2,0,2.7,1.94,2.7,4.12,0,.08,0,.31,0,.56Zm4-.7c0-2-.48-3.26-1.92-3.26-2,0-2.06,2.66-2.07,3.26Z" transform="translate(0 -1.24)"/><path class="b" d="M393.21,103.41v10.64c0,.76,0,1.66,0,2.2h-.76c0-.24,0-.92,0-1.39a2.06,2.06,0,0,1-2.19,1.55c-1.86,0-2.69-1.51-2.69-4.77,0-3,1.16-4.54,2.92-4.54,1.3,0,1.75.58,2,1.08v-4.77Zm-2.85,12.24c1.6,0,2.07-1.44,2.07-4.05,0-3-.5-3.76-2-3.76-1.22,0-2.09,1.13-2.09,3.8C388.38,114.57,389.1,115.65,390.36,115.65Z" transform="translate(0 -1.24)"/><path class="b" d="M399.06,119.6v-9.71c0-1.24,0-2.09,0-2.65h.75c0,.15,0,.83,0,1.35a2.2,2.2,0,0,1,2.23-1.49c1.73,0,2.63,1.55,2.63,4.54s-1.1,4.77-2.88,4.77a2,2,0,0,1-2-1.24v4.43Zm2.86-11.76c-1.62,0-2.13,1.55-2.13,3.92,0,2.2.27,3.91,2,3.91,1.35,0,2.07-1.66,2.07-4S403.31,107.84,401.92,107.84Z" transform="translate(0 -1.24)"/><path class="b" d="M406.56,110.32c0-1.4,0-2.43,0-3.08h.76c0,.27,0,.72,0,1.68a2.56,2.56,0,0,1,2.39-1.8V108c-1.58.09-2.39,1.43-2.39,3.05v5.24h-.78Z" transform="translate(0 -1.24)"/><path class="b" d="M416.27,111.62c0,3.1-1,4.79-2.9,4.79s-2.92-1.64-2.92-4.77,1.14-4.54,2.95-4.54S416.27,108.59,416.27,111.62Zm-5,0c0,2.8.79,4,2.09,4s2.09-1.28,2.09-4.07c0-2.5-.74-3.8-2.09-3.8S411.28,108.88,411.28,111.65Z" transform="translate(0 -1.24)"/><path class="b" d="M419,107.24v9.83c0,1.53-.2,2.67-1.68,2.67a3.32,3.32,0,0,1-.41,0V119a2.89,2.89,0,0,0,.39,0c.78,0,.92-.5.92-1.67V107.24Zm-.74-2.08v-1.75h.77v1.75Z" transform="translate(0 -1.24)"/><path class="b" d="M421.75,111.78c0,2.18.4,3.91,2,3.91s1.87-1.64,1.93-1.89h.79a2.77,2.77,0,0,1-2.72,2.61c-2.48,0-2.83-2.41-2.83-4.63,0-2.84.9-4.68,2.92-4.68,2.2,0,2.7,1.94,2.7,4.12,0,.08,0,.31,0,.56Zm4-.7c0-2-.49-3.26-1.93-3.26-2,0-2,2.66-2.07,3.26Z" transform="translate(0 -1.24)"/><path class="b" d="M433.56,113.69a2.72,2.72,0,0,1-2.66,2.72c-2.2,0-2.83-2.09-2.83-4.66s.85-4.65,2.95-4.65a2.53,2.53,0,0,1,2.54,2.67h-.83c0-.38-.18-2-1.71-2s-2.12,1.67-2.12,3.91c0,2.43.61,4,2,4s1.75-1.55,1.82-2Z" transform="translate(0 -1.24)"/><path class="b" d="M434.44,107.24h1.34v-2.5h.77v2.5h1.67V108h-1.67v6.56c0,.68.16,1.13.85,1.13a5.31,5.31,0,0,0,.72-.05v.65a3.1,3.1,0,0,1-.92.12c-.81,0-1.42-.36-1.42-1.65V108h-1.34Z" transform="translate(0 -1.24)"/><path class="b" d="M169.42,139.34,167,127.08h.85c1,5.3,2,9.85,2.1,11.15h0c.13-1.28,1.66-8.07,2.29-11.15h.86c.63,3,2.14,10,2.25,11.13h0c.25-1.87,1.69-8.05,2.3-11.13h.83l-2.7,12.26h-.95c-.6-2.93-2-9.61-2.22-11.11h0c-.24,1.71-1.63,8.11-2.27,11.11Z" transform="translate(0 -1.24)"/><path class="b" d="M184.11,138a13.21,13.21,0,0,0,.07,1.35h-.72a5.87,5.87,0,0,1-.09-1.15,2.11,2.11,0,0,1-2.2,1.31,2.28,2.28,0,0,1-2.32-2.55c0-1.53,1-2.85,3.42-2.85a8.15,8.15,0,0,1,1.08,0v-1.33c0-.83-.18-1.89-1.62-1.89-1.62,0-1.69,1.18-1.75,1.8h-.77a2.34,2.34,0,0,1,2.56-2.52c1.62,0,2.34.82,2.34,2.44Zm-.74-3.13a6.92,6.92,0,0,0-1.05,0c-1.87,0-2.68.9-2.68,2.09a1.68,1.68,0,0,0,1.66,1.87c1.47,0,2.07-1,2.07-3.29Z" transform="translate(0 -1.24)"/><path class="b" d="M185.26,130.34h1.33v-2.5h.77v2.5H189v.72h-1.68v6.55c0,.69.17,1.14.85,1.14a3.88,3.88,0,0,0,.72-.06v.65a3.05,3.05,0,0,1-.92.13c-.81,0-1.42-.36-1.42-1.66v-6.75h-1.33Z" transform="translate(0 -1.24)"/><path class="b" d="M190.57,134.88c0,2.18.39,3.9,2,3.9a2,2,0,0,0,1.93-1.89h.79a2.75,2.75,0,0,1-2.72,2.61c-2.48,0-2.82-2.41-2.82-4.62,0-2.85.9-4.68,2.91-4.68,2.2,0,2.71,1.94,2.71,4.12,0,.07,0,.31,0,.56Zm4-.71c0-2-.48-3.25-1.92-3.25-2,0-2.06,2.66-2.07,3.25Z" transform="translate(0 -1.24)"/><path class="b" d="M197.19,133.42c0-1.41,0-2.43,0-3.08h.76c0,.27,0,.72,0,1.67a2.59,2.59,0,0,1,2.4-1.8v.85c-1.58.09-2.4,1.42-2.4,3v5.24h-.77Z" transform="translate(0 -1.24)"/><path class="b" d="M205.22,142.69V133c0-1.25,0-2.09,0-2.65H206c0,.14,0,.83,0,1.35a2.2,2.2,0,0,1,2.23-1.49c1.73,0,2.63,1.54,2.63,4.53s-1.09,4.77-2.88,4.77a2,2,0,0,1-2-1.24v4.43Zm2.86-11.76c-1.62,0-2.12,1.55-2.12,3.93,0,2.2.27,3.91,2,3.91,1.35,0,2.07-1.66,2.07-4S209.47,130.93,208.08,130.93Z" transform="translate(0 -1.24)"/><path class="b" d="M213.07,134.88c0,2.18.39,3.9,2,3.9a2,2,0,0,0,1.93-1.89h.79a2.76,2.76,0,0,1-2.72,2.61c-2.48,0-2.82-2.41-2.82-4.62,0-2.85.9-4.68,2.91-4.68,2.2,0,2.71,1.94,2.71,4.12,0,.07,0,.31,0,.56Zm4-.71c0-2-.48-3.25-1.93-3.25-2,0-2.05,2.66-2.07,3.25Z" transform="translate(0 -1.24)"/><path class="b" d="M219.69,133.11c0-1.83,0-2.39,0-2.77h.76c0,.22,0,.56,0,1.33a2.22,2.22,0,0,1,2.24-1.47c1.2,0,2.32.61,2.32,2.73v6.41h-.79V133c0-1.22-.49-2.11-1.64-2.11-1.49,0-2.11,1-2.11,3.19v5.22h-.79Z" transform="translate(0 -1.24)"/><path class="b" d="M227.7,134.88c0,2.18.4,3.9,2,3.9a2,2,0,0,0,1.92-1.89h.8a2.77,2.77,0,0,1-2.72,2.61c-2.49,0-2.83-2.41-2.83-4.62,0-2.85.9-4.68,2.92-4.68,2.19,0,2.7,1.94,2.7,4.12,0,.07,0,.31,0,.56Zm4-.71c0-2-.48-3.25-1.92-3.25-2,0-2,2.66-2.07,3.25Z" transform="translate(0 -1.24)"/><path class="b" d="M233.33,130.34h1.34v-2.5h.77v2.5h1.68v.72h-1.68v6.55c0,.69.16,1.14.85,1.14a4,4,0,0,0,.72-.06v.65a3.1,3.1,0,0,1-.92.13c-.81,0-1.42-.36-1.42-1.66v-6.75h-1.34Z" transform="translate(0 -1.24)"/><path class="b" d="M238.43,133.42c0-1.41,0-2.43,0-3.08h.76c0,.27,0,.72,0,1.67a2.59,2.59,0,0,1,2.4-1.8v.85c-1.59.09-2.4,1.42-2.4,3v5.24h-.77Z" transform="translate(0 -1.24)"/><path class="b" d="M247.46,138a12.29,12.29,0,0,0,.08,1.35h-.72a5.87,5.87,0,0,1-.09-1.15,2.11,2.11,0,0,1-2.2,1.31,2.28,2.28,0,0,1-2.32-2.55c0-1.53,1-2.85,3.42-2.85a8.15,8.15,0,0,1,1.08,0v-1.33c0-.83-.18-1.89-1.62-1.89-1.62,0-1.69,1.18-1.75,1.8h-.77a2.34,2.34,0,0,1,2.56-2.52c1.62,0,2.33.82,2.33,2.44Zm-.73-3.13a6.92,6.92,0,0,0-1,0c-1.87,0-2.68.9-2.68,2.09a1.68,1.68,0,0,0,1.66,1.87c1.47,0,2.07-1,2.07-3.29Z" transform="translate(0 -1.24)"/><path class="b" d="M248.62,130.34H250v-2.5h.77v2.5h1.68v.72h-1.68v6.55c0,.69.16,1.14.85,1.14a3.88,3.88,0,0,0,.72-.06v.65a3.05,3.05,0,0,1-.92.13c-.81,0-1.42-.36-1.42-1.66v-6.75h-1.33Z" transform="translate(0 -1.24)"/><path class="b" d="M253.78,128.25V126.5h.79v1.75Zm0,2.09h.77v9h-.77Z" transform="translate(0 -1.24)"/><path class="b" d="M262.24,134.72c0,3.09-1,4.78-2.9,4.78s-2.91-1.63-2.91-4.77,1.13-4.53,2.95-4.53S262.24,131.69,262.24,134.72Zm-5,0c0,2.79.79,4,2.08,4s2.09-1.27,2.09-4.06c0-2.51-.73-3.8-2.09-3.8S257.26,132,257.26,134.75Z" transform="translate(0 -1.24)"/><path class="b" d="M264.11,133.11c0-1.83,0-2.39,0-2.77h.75c0,.22,0,.56,0,1.33a2.2,2.2,0,0,1,2.23-1.47c1.21,0,2.32.61,2.32,2.73v6.41h-.79V133c0-1.22-.49-2.11-1.64-2.11-1.49,0-2.1,1-2.1,3.19v5.22h-.8Z" transform="translate(0 -1.24)"/><path class="b" d="M275.29,133.42c0-1.41,0-2.43,0-3.08H276c0,.27,0,.72,0,1.67a2.59,2.59,0,0,1,2.4-1.8v.85c-1.58.09-2.4,1.42-2.4,3v5.24h-.77Z" transform="translate(0 -1.24)"/><path class="b" d="M280,134.88c0,2.18.39,3.9,2,3.9a2,2,0,0,0,1.92-1.89h.79A2.75,2.75,0,0,1,282,139.5c-2.49,0-2.83-2.41-2.83-4.62,0-2.85.9-4.68,2.92-4.68,2.19,0,2.7,1.94,2.7,4.12,0,.07,0,.31,0,.56Zm4-.71c0-2-.48-3.25-1.92-3.25-2,0-2.05,2.66-2.07,3.25Z" transform="translate(0 -1.24)"/><path class="b" d="M286.61,139.34V126.5h.78v12.84Z" transform="translate(0 -1.24)"/><path class="b" d="M294.43,138a13.21,13.21,0,0,0,.07,1.35h-.72a5.87,5.87,0,0,1-.09-1.15,2.11,2.11,0,0,1-2.2,1.31,2.28,2.28,0,0,1-2.32-2.55c0-1.53,1-2.85,3.42-2.85a8.15,8.15,0,0,1,1.08,0v-1.33c0-.83-.18-1.89-1.62-1.89-1.62,0-1.69,1.18-1.75,1.8h-.77a2.34,2.34,0,0,1,2.55-2.52c1.63,0,2.35.82,2.35,2.44Zm-.74-3.13a6.92,6.92,0,0,0-1.05,0c-1.87,0-2.68.9-2.68,2.09a1.68,1.68,0,0,0,1.66,1.87c1.47,0,2.07-1,2.07-3.29Z" transform="translate(0 -1.24)"/><path class="b" d="M295.58,130.34h1.33v-2.5h.77v2.5h1.68v.72h-1.68v6.55c0,.69.16,1.14.85,1.14a4,4,0,0,0,.72-.06v.65a3.05,3.05,0,0,1-.92.13c-.81,0-1.42-.36-1.42-1.66v-6.75h-1.33Z" transform="translate(0 -1.24)"/><path class="b" d="M300.89,134.88c0,2.18.39,3.9,2,3.9a2,2,0,0,0,1.93-1.89h.79a2.76,2.76,0,0,1-2.72,2.61c-2.48,0-2.82-2.41-2.82-4.62,0-2.85.9-4.68,2.91-4.68,2.2,0,2.71,1.94,2.71,4.12,0,.07,0,.31,0,.56Zm4-.71c0-2-.48-3.25-1.93-3.25-2,0-2.05,2.66-2.07,3.25Z" transform="translate(0 -1.24)"/><path class="b" d="M312.86,126.5v10.65c0,.75,0,1.65,0,2.19h-.76c0-.23,0-.92,0-1.38a2.06,2.06,0,0,1-2.19,1.54c-1.86,0-2.69-1.51-2.69-4.77,0-2.95,1.16-4.53,2.92-4.53,1.3,0,1.75.57,2,1.08V126.5ZM310,138.75c1.61,0,2.07-1.44,2.07-4.05,0-3-.5-3.77-2-3.77-1.22,0-2.09,1.14-2.09,3.8C308,137.67,308.75,138.75,310,138.75Z" transform="translate(0 -1.24)"/><path class="b" d="M318.71,142.69V133c0-1.25,0-2.09,0-2.65h.75c0,.14,0,.83,0,1.35a2.2,2.2,0,0,1,2.23-1.49c1.73,0,2.63,1.54,2.63,4.53s-1.1,4.77-2.88,4.77a2,2,0,0,1-2-1.24v4.43Zm2.86-11.76c-1.62,0-2.13,1.55-2.13,3.93,0,2.2.27,3.91,2,3.91,1.35,0,2.07-1.66,2.07-4S323,130.93,321.57,130.93Z" transform="translate(0 -1.24)"/><path class="b" d="M326.21,133.42c0-1.41,0-2.43,0-3.08H327c0,.27,0,.72,0,1.67a2.57,2.57,0,0,1,2.39-1.8v.85c-1.58.09-2.39,1.42-2.39,3v5.24h-.78Z" transform="translate(0 -1.24)"/><path class="b" d="M335.92,134.72c0,3.09-1,4.78-2.9,4.78s-2.92-1.63-2.92-4.77,1.13-4.53,2.95-4.53S335.92,131.69,335.92,134.72Zm-5,0c0,2.79.79,4,2.09,4s2.09-1.27,2.09-4.06c0-2.51-.74-3.8-2.09-3.8S330.93,132,330.93,134.75Z" transform="translate(0 -1.24)"/><path class="b" d="M338.69,130.34v9.83c0,1.53-.2,2.67-1.68,2.67a3.32,3.32,0,0,1-.41,0v-.72a2.89,2.89,0,0,0,.39,0c.78,0,.92-.51.92-1.68V130.34Zm-.74-2.09V126.5h.77v1.75Z" transform="translate(0 -1.24)"/><path class="b" d="M341.4,134.88c0,2.18.4,3.9,2,3.9s1.87-1.63,1.93-1.89h.79a2.77,2.77,0,0,1-2.72,2.61c-2.48,0-2.83-2.41-2.83-4.62,0-2.85.9-4.68,2.92-4.68,2.2,0,2.7,1.94,2.7,4.12,0,.07,0,.31,0,.56Zm4-.71c0-2-.49-3.25-1.93-3.25-2,0-2.05,2.66-2.07,3.25Z" transform="translate(0 -1.24)"/><path class="b" d="M353.21,136.79a2.71,2.71,0,0,1-2.66,2.71c-2.2,0-2.83-2.08-2.83-4.66s.85-4.64,2.95-4.64a2.52,2.52,0,0,1,2.54,2.66h-.83c0-.38-.17-1.94-1.71-1.94s-2.12,1.67-2.12,3.9c0,2.43.61,4,2,4s1.75-1.54,1.82-2Z" transform="translate(0 -1.24)"/><path class="b" d="M354.09,130.34h1.33v-2.5h.78v2.5h1.67v.72H356.2v6.55c0,.69.16,1.14.84,1.14a4.07,4.07,0,0,0,.73-.06v.65a3.15,3.15,0,0,1-.92.13c-.81,0-1.43-.36-1.43-1.66v-6.75h-1.33Z" transform="translate(0 -1.24)"/><circle class="c" cx="21.21" cy="61.41" r="7.32"/><circle class="d" cx="21.21" cy="84.12" r="7.32"/><circle class="e" cx="21.21" cy="107.69" r="7.32"/><circle class="f" cx="21.21" cy="131.26" r="7.32"/><path class="b" d="M41.18,163.81V151.58h1.66c3.38,8.46,3.85,9.62,4,10.14h0c-.09-1.64-.1-3.48-.1-5.47v-4.67H48v12.23H46.44c-3.51-8.9-3.94-10-4.09-10.5h0c.09,1.53.1,3.53.1,5.73v4.77Z" transform="translate(0 -1.24)"/><path class="b" d="M51.19,159.49c0,1.78.31,3.34,1.75,3.34a1.66,1.66,0,0,0,1.65-1.63h1.3a2.89,2.89,0,0,1-3,2.77c-2.68,0-3.06-2.45-3.06-4.74,0-2.88,1-4.7,3.13-4.7,2.41,0,3,2,3,4.25,0,.18,0,.49,0,.71Zm3.46-1c0-1.58-.34-2.81-1.66-2.81-1.67,0-1.76,2.18-1.78,2.81Z" transform="translate(0 -1.24)"/><path class="b" d="M58.23,154.68c.88,4.32,1.31,6.41,1.48,7.65h0c.18-1.19.56-2.61,1.7-7.65h1.26c1.06,4.79,1.47,6.62,1.6,7.61h0c.14-1,.48-2.62,1.53-7.61h1.35L65,163.81H63.54c-.65-3-1.33-6-1.55-7.37h0c-.16,1.35-.82,4-1.62,7.37H58.91l-2.08-9.13Z" transform="translate(0 -1.24)"/><path class="b" d="M72.65,160.6c.11,1.24.7,2.25,2,2.25s1.93-.7,1.93-2.1-.52-2-2.2-2.78c-1.91-.91-2.75-1.76-2.75-3.53a2.86,2.86,0,0,1,3.07-3c2.36,0,3,1.69,3,3.11H76.46c-.07-.57-.25-2-1.76-2A1.59,1.59,0,0,0,73,154.32c0,1.17.52,1.73,2,2.45,2.14,1,2.92,2,2.92,3.87A3.07,3.07,0,0,1,74.66,164c-2.45,0-3.25-1.6-3.35-3.37Z" transform="translate(0 -1.24)"/><path class="b" d="M85.3,161A2.85,2.85,0,0,1,82.39,164c-2.38,0-3-2.11-3-4.75s.83-4.7,3.15-4.7a2.71,2.71,0,0,1,2.79,2.88H84c0-.36-.14-1.75-1.44-1.75s-1.8,1.44-1.8,3.55c0,2.27.5,3.63,1.73,3.63S83.92,161.5,84,161Z" transform="translate(0 -1.24)"/><path class="b" d="M88.2,151v4.8a2.15,2.15,0,0,1,2.18-1.27c1.33,0,2.3.84,2.3,2.79v6.5H91.35v-6.23c0-1.12-.32-1.89-1.44-1.89s-1.71,1-1.71,2.63v5.49H86.87V151Z" transform="translate(0 -1.24)"/><path class="b" d="M100.64,159.14c0,3.21-1.08,4.83-3.13,4.83s-3.16-1.57-3.16-4.81,1.25-4.63,3.21-4.63S100.64,156.06,100.64,159.14Zm-4.93,0c0,2.47.61,3.65,1.8,3.65s1.78-1.2,1.78-3.67-.58-3.49-1.78-3.49S95.71,156.69,95.71,159.18Z" transform="translate(0 -1.24)"/><path class="b" d="M108.23,159.14c0,3.21-1.08,4.83-3.13,4.83S102,162.4,102,159.16s1.24-4.63,3.2-4.63S108.23,156.06,108.23,159.14Zm-4.93,0c0,2.47.61,3.65,1.8,3.65s1.78-1.2,1.78-3.67-.57-3.49-1.78-3.49S103.3,156.69,103.3,159.18Z" transform="translate(0 -1.24)"/><path class="b" d="M109.94,163.81V151h1.32v12.82Z" transform="translate(0 -1.24)"/><path class="b" d="M114.06,161.18c.06,1,.56,1.71,1.61,1.71a1.33,1.33,0,0,0,1.47-1.44c0-.94-.47-1.37-1.67-1.84-1.89-.72-2.43-1.4-2.43-2.68a2.33,2.33,0,0,1,2.61-2.41,2.4,2.4,0,0,1,2.63,2.61H117c0-.45-.13-1.53-1.39-1.53a1.16,1.16,0,0,0-1.26,1.26c0,.74.33,1.08,1.59,1.58,1.76.67,2.53,1.32,2.53,2.88s-1,2.65-2.86,2.65a2.61,2.61,0,0,1-2.86-2.79Z" transform="translate(0 -1.24)"/><path class="b" d="M47.92,181.15c0,4.18-1,6.41-3.64,6.41s-3.56-2.16-3.56-6.37S41.94,175,44.35,175,47.92,177,47.92,181.15Zm-5.82,0c0,3.49.7,5.24,2.23,5.24s2.2-1.71,2.2-5.22-.7-5-2.21-5S42.1,177.82,42.1,181.15Z" transform="translate(0 -1.24)"/><path class="b" d="M49,178.25h1.29v-2.43h1.3v2.43h1.6v1.13h-1.6v6c0,.63.14,1,.83,1a3.27,3.27,0,0,0,.65-.06v1a3.69,3.69,0,0,1-1.08.14c-1.07,0-1.7-.43-1.7-1.87v-6.25H49Z" transform="translate(0 -1.24)"/><path class="b" d="M55.76,174.56v4.81a2.16,2.16,0,0,1,2.18-1.28c1.33,0,2.31.84,2.31,2.79v6.5H58.92v-6.23c0-1.12-.33-1.89-1.45-1.89s-1.71,1-1.71,2.63v5.49H54.43V174.56Z" transform="translate(0 -1.24)"/><path class="b" d="M63.25,183.06c0,1.78.31,3.35,1.75,3.35a1.66,1.66,0,0,0,1.65-1.64H68a2.89,2.89,0,0,1-3,2.77c-2.68,0-3.06-2.45-3.06-4.73,0-2.89,1-4.7,3.13-4.7,2.41,0,3,2,3,4.25,0,.18,0,.48,0,.7Zm3.46-1c0-1.58-.34-2.81-1.66-2.81-1.67,0-1.76,2.18-1.78,2.81Z" transform="translate(0 -1.24)"/><path class="b" d="M69.7,181.37c0-1.46,0-2.47,0-3.12h1.26c0,.23,0,.67,0,1.62a2.47,2.47,0,0,1,2.41-1.76v1.45c-1.56.06-2.39,1.05-2.39,2.72v5.1H69.7Z" transform="translate(0 -1.24)"/><path class="b" d="M79.58,175.15v12.23H78.23V175.15Z" transform="translate(0 -1.24)"/><path class="b" d="M81.72,181.08c0-1.88,0-2.42,0-2.83H83c0,.22,0,.58,0,1.19a2.15,2.15,0,0,1,2.16-1.35c1.32,0,2.35.75,2.35,2.79v6.5H86.2v-6.25c0-1.12-.36-1.87-1.4-1.87-1.23,0-1.75.81-1.75,2.68v5.44H81.72Z" transform="translate(0 -1.24)"/><path class="b" d="M88.56,178.25h1.29v-2.43h1.3v2.43h1.6v1.13h-1.6v6c0,.63.14,1,.83,1a3.13,3.13,0,0,0,.65-.06v1a3.69,3.69,0,0,1-1.08.14c-1.06,0-1.7-.43-1.7-1.87v-6.25H88.56Z" transform="translate(0 -1.24)"/><path class="b" d="M94.79,183.06c0,1.78.3,3.35,1.74,3.35a1.68,1.68,0,0,0,1.66-1.64h1.3a2.89,2.89,0,0,1-3,2.77c-2.69,0-3.07-2.45-3.07-4.73,0-2.89,1-4.7,3.14-4.7,2.41,0,3,2,3,4.25,0,.18,0,.48,0,.7Zm3.45-1c0-1.58-.34-2.81-1.65-2.81-1.68,0-1.77,2.18-1.79,2.81Z" transform="translate(0 -1.24)"/><path class="b" d="M101.23,181.37c0-1.46,0-2.47,0-3.12h1.26c0,.23.06.67.06,1.62a2.47,2.47,0,0,1,2.41-1.76v1.45c-1.57.06-2.4,1.05-2.4,2.72v5.1h-1.31Z" transform="translate(0 -1.24)"/><path class="b" d="M107.19,178.25c.75,2.95,1.65,6.52,1.84,7.65h0c.13-1,1.5-5.8,1.95-7.65h1.31l-2.61,9.13h-1.42l-2.49-9.13Z" transform="translate(0 -1.24)"/><path class="b" d="M114.37,183.06c0,1.78.31,3.35,1.75,3.35a1.66,1.66,0,0,0,1.65-1.64h1.3a2.89,2.89,0,0,1-3,2.77c-2.68,0-3.06-2.45-3.06-4.73,0-2.89,1-4.7,3.13-4.7,2.41,0,3,2,3,4.25,0,.18,0,.48,0,.7Zm3.46-1c0-1.58-.34-2.81-1.66-2.81-1.67,0-1.76,2.18-1.78,2.81Z" transform="translate(0 -1.24)"/><path class="b" d="M120.81,181.08c0-1.88,0-2.42,0-2.83h1.28c0,.22,0,.58,0,1.19a2.15,2.15,0,0,1,2.16-1.35c1.31,0,2.34.75,2.34,2.79v6.5H125.3v-6.25c0-1.12-.36-1.87-1.41-1.87-1.22,0-1.74.81-1.74,2.68v5.44h-1.34Z" transform="translate(0 -1.24)"/><path class="b" d="M127.65,178.25H129v-2.43h1.3v2.43h1.6v1.13h-1.6v6c0,.63.14,1,.83,1a3.1,3.1,0,0,0,.64-.06v1a3.6,3.6,0,0,1-1.08.14c-1.06,0-1.69-.43-1.69-1.87v-6.25h-1.3Z" transform="translate(0 -1.24)"/><path class="b" d="M133.14,176.45v-1.89h1.34v1.89Zm0,1.8h1.32v9.13h-1.32Z" transform="translate(0 -1.24)"/><path class="b" d="M142.47,182.72c0,3.2-1.08,4.82-3.13,4.82s-3.15-1.57-3.15-4.81,1.24-4.62,3.2-4.62S142.47,179.64,142.47,182.72Zm-4.93,0c0,2.47.61,3.66,1.8,3.66s1.78-1.21,1.78-3.68-.58-3.49-1.78-3.49S137.54,180.27,137.54,182.75Z" transform="translate(0 -1.24)"/><path class="b" d="M144.18,181.08c0-1.88,0-2.42,0-2.83h1.28c0,.22.05.58.05,1.19a2.15,2.15,0,0,1,2.16-1.35c1.32,0,2.34.75,2.34,2.79v6.5h-1.33v-6.25c0-1.12-.36-1.87-1.4-1.87-1.23,0-1.75.81-1.75,2.68v5.44h-1.33Z" transform="translate(0 -1.24)"/><path class="b" d="M152.8,184.75a1.58,1.58,0,0,0,1.6,1.71,1.33,1.33,0,0,0,1.48-1.44c0-.94-.47-1.37-1.68-1.84-1.89-.72-2.43-1.4-2.43-2.68a2.34,2.34,0,0,1,2.61-2.41A2.4,2.4,0,0,1,157,180.7h-1.28c0-.45-.12-1.53-1.38-1.53a1.15,1.15,0,0,0-1.26,1.26c0,.74.32,1.08,1.58,1.58,1.77.67,2.54,1.32,2.54,2.88s-1,2.65-2.86,2.65a2.6,2.6,0,0,1-2.86-2.79Z" transform="translate(0 -1.24)"/><path class="b" d="M173.79,160.53c0,.76-.41,3.44-3.09,3.44-3.14,0-3.28-3.69-3.28-6.43,0-3.31.79-6.16,3.44-6.16s2.86,2.76,2.88,3.37h-.83c0-.41-.12-2.59-2.07-2.59-2.29,0-2.56,3.24-2.56,5.36,0,2.78.31,5.67,2.45,5.67,1.84,0,2.18-2,2.23-2.66Z" transform="translate(0 -1.24)"/><path class="b" d="M181.08,159.18c0,3.1-1,4.79-2.9,4.79s-2.91-1.64-2.91-4.77,1.13-4.54,2.95-4.54S181.08,156.15,181.08,159.18Zm-5,0c0,2.79.79,4,2.08,4s2.09-1.28,2.09-4.07c0-2.5-.73-3.8-2.09-3.8S176.1,156.44,176.1,159.22Z" transform="translate(0 -1.24)"/><path class="b" d="M183,157.58c0-1.84,0-2.4,0-2.78h.75c0,.22,0,.56,0,1.34a2.2,2.2,0,0,1,2.23-1.48c1.21,0,2.32.61,2.32,2.74v6.41h-.79v-6.3c0-1.23-.49-2.11-1.64-2.11-1.49,0-2.1,1-2.1,3.19v5.22H183Z" transform="translate(0 -1.24)"/><path class="b" d="M190.71,161.3a1.82,1.82,0,0,0,1.87,1.95,1.62,1.62,0,0,0,1.75-1.73c0-1.13-.61-1.6-1.87-2.11-1.68-.68-2.24-1.29-2.24-2.52a2.13,2.13,0,0,1,2.36-2.23,2.18,2.18,0,0,1,2.36,2.4h-.79a1.55,1.55,0,0,0-1.6-1.68,1.36,1.36,0,0,0-1.51,1.5c0,.82.3,1.22,1.67,1.76,1.64.65,2.43,1.24,2.43,2.83a2.35,2.35,0,0,1-2.61,2.5,2.46,2.46,0,0,1-2.63-2.67Z" transform="translate(0 -1.24)"/><path class="b" d="M195.84,154.8h1.33v-2.5H198v2.5h1.67v.72H198v6.56c0,.68.16,1.13.84,1.13a5.08,5.08,0,0,0,.72-.05v.65a3,3,0,0,1-.91.12c-.81,0-1.43-.36-1.43-1.65v-6.76h-1.33Z" transform="translate(0 -1.24)"/><path class="b" d="M200.93,157.88c0-1.4,0-2.43,0-3.08h.75c0,.27,0,.72,0,1.68a2.56,2.56,0,0,1,2.39-1.8v.84c-1.58.09-2.39,1.43-2.39,3v5.24h-.78Z" transform="translate(0 -1.24)"/><path class="b" d="M210.64,161.45c0,1,0,1.94,0,2.36h-.74a8.87,8.87,0,0,1-.06-1.35,2.17,2.17,0,0,1-2.23,1.51c-.9,0-2.25-.29-2.25-2.68V154.8h.79v6.27c0,1.33.42,2.18,1.64,2.18s2-.74,2-3V154.8h.79Z" transform="translate(0 -1.24)"/><path class="b" d="M218,161.25a2.72,2.72,0,0,1-2.66,2.72c-2.2,0-2.83-2.09-2.83-4.66s.85-4.65,2.95-4.65a2.53,2.53,0,0,1,2.54,2.67h-.83c0-.38-.18-2-1.71-2s-2.12,1.68-2.12,3.91c0,2.43.61,4,2,4s1.75-1.55,1.82-2Z" transform="translate(0 -1.24)"/><path class="b" d="M218.86,154.8h1.33v-2.5H221v2.5h1.67v.72H221v6.56c0,.68.16,1.13.84,1.13a5.35,5.35,0,0,0,.73-.05v.65a3.14,3.14,0,0,1-.92.12c-.81,0-1.43-.36-1.43-1.65v-6.76h-1.33Z" transform="translate(0 -1.24)"/><path class="b" d="M224,152.72V151h.79v1.75Zm0,2.08h.77v9H224Z" transform="translate(0 -1.24)"/><path class="b" d="M232.49,159.18c0,3.1-1,4.79-2.9,4.79s-2.92-1.64-2.92-4.77,1.14-4.54,3-4.54S232.49,156.15,232.49,159.18Zm-5,0c0,2.79.79,4,2.09,4s2.09-1.28,2.09-4.07c0-2.5-.74-3.8-2.09-3.8S227.5,156.44,227.5,159.22Z" transform="translate(0 -1.24)"/><path class="b" d="M234.36,157.58c0-1.84,0-2.4,0-2.78h.76c0,.22,0,.56,0,1.34a2.22,2.22,0,0,1,2.24-1.48c1.2,0,2.32.61,2.32,2.74v6.41h-.79v-6.3c0-1.23-.49-2.11-1.64-2.11-1.5,0-2.11,1-2.11,3.19v5.22h-.79Z" transform="translate(0 -1.24)"/><path class="b" d="M250.88,159.18c0,3.1-1,4.79-2.89,4.79s-2.92-1.64-2.92-4.77,1.13-4.54,3-4.54S250.88,156.15,250.88,159.18Zm-5,0c0,2.79.79,4,2.09,4s2.08-1.28,2.08-4.07c0-2.5-.73-3.8-2.08-3.8S245.9,156.44,245.9,159.22Z" transform="translate(0 -1.24)"/><path class="b" d="M252.94,163.81v-8.29h-1.27v-.72h1.27v-1.49c0-1.21.34-2.43,1.89-2.43a2.6,2.6,0,0,1,.64.09v.76a2.69,2.69,0,0,0-.66-.09c-.79,0-1.08.52-1.08,1.63v1.53h1.49v.72h-1.49v8.29Z" transform="translate(0 -1.24)"/><path class="b" d="M259.74,157.58c0-1.84,0-2.4,0-2.78h.76c0,.22,0,.56,0,1.34a2.21,2.21,0,0,1,2.23-1.48c1.21,0,2.33.61,2.33,2.74v6.41h-.79v-6.3c0-1.23-.49-2.11-1.64-2.11-1.5,0-2.11,1-2.11,3.19v5.22h-.79Z" transform="translate(0 -1.24)"/><path class="b" d="M267.75,159.34c0,2.18.39,3.91,2,3.91s1.87-1.64,1.92-1.89h.79a2.76,2.76,0,0,1-2.71,2.61c-2.49,0-2.83-2.41-2.83-4.63,0-2.84.9-4.68,2.92-4.68,2.19,0,2.7,1.94,2.7,4.12,0,.08,0,.31,0,.56Zm4-.7c0-2-.48-3.26-1.92-3.26-2,0-2,2.67-2.07,3.26Z" transform="translate(0 -1.24)"/><path class="b" d="M274.41,154.8c1,4.47,1.55,6.79,1.73,8.07h0c.2-1.15.56-2.61,1.88-8.07h.84c1.3,5.6,1.64,7.08,1.79,8h0c.15-1,.6-2.85,1.79-8h.84l-2.21,9h-.92c-.72-3.08-1.53-6.54-1.75-8h0c-.18,1.39-.91,4.31-1.81,8h-.94l-2.09-9Z" transform="translate(0 -1.24)"/><path class="b" d="M288.36,161.3a1.82,1.82,0,0,0,1.87,1.95,1.62,1.62,0,0,0,1.75-1.73c0-1.13-.61-1.6-1.88-2.11-1.67-.68-2.23-1.29-2.23-2.52a2.13,2.13,0,0,1,2.36-2.23,2.18,2.18,0,0,1,2.36,2.4h-.79a1.55,1.55,0,0,0-1.61-1.68,1.36,1.36,0,0,0-1.51,1.5c0,.82.31,1.22,1.68,1.76,1.63.65,2.43,1.24,2.43,2.83a2.35,2.35,0,0,1-2.61,2.5,2.46,2.46,0,0,1-2.63-2.67Z" transform="translate(0 -1.24)"/><path class="b" d="M299.57,161.25a2.72,2.72,0,0,1-2.66,2.72c-2.2,0-2.83-2.09-2.83-4.66s.85-4.65,3-4.65a2.52,2.52,0,0,1,2.53,2.67h-.83c0-.38-.18-2-1.7-2s-2.13,1.68-2.13,3.91c0,2.43.61,4,2,4s1.74-1.55,1.81-2Z" transform="translate(0 -1.24)"/><path class="b" d="M302.11,151v5.08a2.21,2.21,0,0,1,2.25-1.39c1.23,0,2.29.72,2.29,2.72v6.43h-.79v-6.27c0-1.24-.44-2.14-1.7-2.14-1.44,0-2.05,1.22-2.05,3.06v5.35h-.79V151Z" transform="translate(0 -1.24)"/><path class="b" d="M314.3,159.18c0,3.1-1,4.79-2.9,4.79s-2.92-1.64-2.92-4.77,1.14-4.54,3-4.54S314.3,156.15,314.3,159.18Zm-5,0c0,2.79.79,4,2.09,4s2.09-1.28,2.09-4.07c0-2.5-.74-3.8-2.09-3.8S309.31,156.44,309.31,159.22Z" transform="translate(0 -1.24)"/><path class="b" d="M321.52,159.18c0,3.1-1,4.79-2.9,4.79s-2.92-1.64-2.92-4.77,1.13-4.54,2.95-4.54S321.52,156.15,321.52,159.18Zm-5,0c0,2.79.79,4,2.09,4s2.09-1.28,2.09-4.07c0-2.5-.74-3.8-2.09-3.8S316.53,156.44,316.53,159.22Z" transform="translate(0 -1.24)"/><path class="b" d="M323.38,163.81V151h.78v12.84Z" transform="translate(0 -1.24)"/><path class="b" d="M330,157.88c0-1.4,0-2.43,0-3.08h.76c0,.27,0,.72,0,1.68a2.58,2.58,0,0,1,2.4-1.8v.84c-1.59.09-2.4,1.43-2.4,3v5.24H330Z" transform="translate(0 -1.24)"/><path class="b" d="M334.71,159.34c0,2.18.39,3.91,2,3.91a2,2,0,0,0,1.93-1.89h.79a2.76,2.76,0,0,1-2.72,2.61c-2.48,0-2.82-2.41-2.82-4.63,0-2.84.9-4.68,2.91-4.68,2.2,0,2.71,1.94,2.71,4.12,0,.08,0,.31,0,.56Zm4-.7c0-2-.48-3.26-1.93-3.26-2,0-2.05,2.67-2.07,3.26Z" transform="translate(0 -1.24)"/><path class="b" d="M341.33,163.81V151h.78v12.84Z" transform="translate(0 -1.24)"/><path class="b" d="M349.14,162.46a12.48,12.48,0,0,0,.08,1.35h-.72a6.06,6.06,0,0,1-.09-1.16,2.13,2.13,0,0,1-2.2,1.32,2.28,2.28,0,0,1-2.32-2.56c0-1.53,1-2.84,3.42-2.84.5,0,.77,0,1.08,0v-1.33c0-.83-.18-1.89-1.62-1.89-1.62,0-1.7,1.19-1.75,1.8h-.77a2.34,2.34,0,0,1,2.55-2.52c1.62,0,2.34.83,2.34,2.45Zm-.73-3.14a9.31,9.31,0,0,0-1.05,0c-1.87,0-2.68.9-2.68,2.09a1.68,1.68,0,0,0,1.66,1.87c1.47,0,2.07-1,2.07-3.3Z" transform="translate(0 -1.24)"/><path class="b" d="M350.29,154.8h1.34v-2.5h.77v2.5h1.68v.72H352.4v6.56c0,.68.16,1.13.85,1.13a5.31,5.31,0,0,0,.72-.05v.65a3.1,3.1,0,0,1-.92.12c-.81,0-1.42-.36-1.42-1.65v-6.76h-1.34Z" transform="translate(0 -1.24)"/><path class="b" d="M355.61,159.34c0,2.18.39,3.91,2,3.91s1.87-1.64,1.93-1.89h.79a2.77,2.77,0,0,1-2.72,2.61c-2.48,0-2.83-2.41-2.83-4.63,0-2.84.91-4.68,2.92-4.68,2.2,0,2.7,1.94,2.7,4.12,0,.08,0,.31,0,.56Zm4-.7c0-2-.49-3.26-1.93-3.26-2,0-2.05,2.67-2.07,3.26Z" transform="translate(0 -1.24)"/><path class="b" d="M367.58,151v10.64c0,.76,0,1.66,0,2.2h-.75c0-.24,0-.92,0-1.39a2.07,2.07,0,0,1-2.19,1.55c-1.86,0-2.69-1.51-2.69-4.77,0-3,1.15-4.54,2.92-4.54a1.84,1.84,0,0,1,2,1.08V151Zm-2.85,12.24c1.6,0,2.07-1.44,2.07-4.05,0-3-.5-3.76-2-3.76-1.22,0-2.09,1.13-2.09,3.8C362.75,162.13,363.47,163.21,364.73,163.21Z" transform="translate(0 -1.24)"/><path class="b" d="M373.42,167.16v-9.71c0-1.24,0-2.09,0-2.65h.75c0,.15,0,.83,0,1.35a2.19,2.19,0,0,1,2.23-1.49c1.73,0,2.63,1.55,2.63,4.54S378,164,376.18,164a2,2,0,0,1-2-1.24v4.43Zm2.87-11.76c-1.62,0-2.13,1.55-2.13,3.92,0,2.2.27,3.91,2,3.91,1.35,0,2.07-1.66,2.07-4S377.67,155.4,376.29,155.4Z" transform="translate(0 -1.24)"/><path class="b" d="M380.93,157.88c0-1.4,0-2.43,0-3.08h.76c0,.27,0,.72,0,1.68a2.58,2.58,0,0,1,2.4-1.8v.84c-1.59.09-2.4,1.43-2.4,3v5.24h-.77Z" transform="translate(0 -1.24)"/><path class="b" d="M390.63,159.18c0,3.1-1,4.79-2.9,4.79s-2.91-1.64-2.91-4.77,1.13-4.54,2.95-4.54S390.63,156.15,390.63,159.18Zm-5,0c0,2.79.79,4,2.08,4s2.09-1.28,2.09-4.07c0-2.5-.73-3.8-2.09-3.8S385.65,156.44,385.65,159.22Z" transform="translate(0 -1.24)"/><path class="b" d="M393.4,154.8v9.84c0,1.53-.19,2.66-1.67,2.66a3.66,3.66,0,0,1-.42,0v-.72a3.11,3.11,0,0,0,.4,0c.78,0,.92-.5.92-1.67V154.8Zm-.73-2.08V151h.77v1.75Z" transform="translate(0 -1.24)"/><path class="b" d="M396.12,159.34c0,2.18.4,3.91,2,3.91s1.87-1.64,1.92-1.89h.8a2.77,2.77,0,0,1-2.72,2.61c-2.49,0-2.83-2.41-2.83-4.63,0-2.84.9-4.68,2.92-4.68,2.19,0,2.7,1.94,2.7,4.12,0,.08,0,.31,0,.56Zm4-.7c0-2-.49-3.26-1.93-3.26-2,0-2,2.67-2.07,3.26Z" transform="translate(0 -1.24)"/><path class="b" d="M407.93,161.25c0,.32-.25,2.72-2.66,2.72-2.2,0-2.83-2.09-2.83-4.66s.85-4.65,2.95-4.65a2.53,2.53,0,0,1,2.54,2.67h-.83c0-.38-.18-2-1.71-2s-2.12,1.68-2.12,3.91c0,2.43.61,4,2,4s1.75-1.55,1.82-2Z" transform="translate(0 -1.24)"/><path class="b" d="M408.81,154.8h1.33v-2.5h.78v2.5h1.67v.72h-1.67v6.56c0,.68.16,1.13.84,1.13a5.08,5.08,0,0,0,.72-.05v.65a3.06,3.06,0,0,1-.92.12c-.81,0-1.42-.36-1.42-1.65v-6.76h-1.33Z" transform="translate(0 -1.24)"/><path class="b" d="M174.15,180.66c0,4-.84,6.41-3.38,6.41s-3.35-2.31-3.35-6.36,1-6.23,3.38-6.23S174.15,176.57,174.15,180.66Zm-5.88,0c0,3.87.86,5.66,2.53,5.66s2.52-1.79,2.52-5.62c0-4-.9-5.49-2.53-5.49S168.27,177,168.27,180.67Z" transform="translate(0 -1.24)"/><path class="b" d="M175.3,177.9h1.33v-2.5h.78v2.5h1.67v.72h-1.67v6.55c0,.69.16,1.14.85,1.14a3.84,3.84,0,0,0,.71-.06v.65a3,3,0,0,1-.91.13c-.81,0-1.43-.36-1.43-1.66v-6.75H175.3Z" transform="translate(0 -1.24)"/><path class="b" d="M181.21,174.07v5.07a2.2,2.2,0,0,1,2.25-1.38c1.22,0,2.28.72,2.28,2.72v6.42H185v-6.26c0-1.24-.43-2.14-1.69-2.14-1.44,0-2,1.22-2,3.06v5.34h-.8V174.07Z" transform="translate(0 -1.24)"/><path class="b" d="M188.39,182.44c0,2.18.4,3.9,2,3.9a2,2,0,0,0,1.92-1.88h.8a2.78,2.78,0,0,1-2.72,2.61c-2.49,0-2.83-2.42-2.83-4.63,0-2.85.9-4.68,2.92-4.68,2.19,0,2.7,1.94,2.7,4.12,0,.07,0,.31,0,.56Zm4-.7c0-2-.48-3.26-1.92-3.26-2,0-2,2.66-2.07,3.26Z" transform="translate(0 -1.24)"/><path class="b" d="M195,181c0-1.4,0-2.43,0-3.08h.76c0,.27,0,.72,0,1.68a2.57,2.57,0,0,1,2.39-1.81v.85c-1.58.09-2.39,1.42-2.39,3v5.24H195Z" transform="translate(0 -1.24)"/><path class="b" d="M203,175.81v-1.74h.79v1.74Zm0,2.09h.77v9H203Z" transform="translate(0 -1.24)"/><path class="b" d="M206.15,180.6c0-1.49,0-2.25,0-2.7h.75a12.07,12.07,0,0,1,0,1.3,2,2,0,0,1,2-1.44,1.73,1.73,0,0,1,1.89,1.4,2.23,2.23,0,0,1,2.18-1.4c1,0,2.11.46,2.11,2.55v6.59h-.79v-6.42c0-1-.29-2-1.48-2-1.35,0-1.82,1.25-1.82,2.53v5.87h-.79v-6.39c0-1.3-.43-2-1.44-2-1.24,0-1.89,1.24-1.89,2.71v5.69h-.78Z" transform="translate(0 -1.24)"/><path class="b" d="M217.47,190.25v-9.7c0-1.25,0-2.09,0-2.65h.75c0,.14,0,.83,0,1.35a2.19,2.19,0,0,1,2.23-1.49c1.73,0,2.63,1.54,2.63,4.53s-1.1,4.78-2.88,4.78a2,2,0,0,1-2-1.25v4.43Zm2.87-11.75c-1.62,0-2.13,1.54-2.13,3.92,0,2.2.27,3.91,2,3.91,1.35,0,2.07-1.66,2.07-4S221.72,178.5,220.34,178.5Z" transform="translate(0 -1.24)"/><path class="b" d="M225,181c0-1.4,0-2.43,0-3.08h.76c0,.27,0,.72,0,1.68a2.57,2.57,0,0,1,2.39-1.81v.85c-1.58.09-2.39,1.42-2.39,3v5.24H225Z" transform="translate(0 -1.24)"/><path class="b" d="M234.69,182.28c0,3.09-1,4.79-2.9,4.79s-2.92-1.64-2.92-4.78,1.13-4.53,2.95-4.53S234.69,179.25,234.69,182.28Zm-5,0c0,2.79.79,4,2.09,4s2.09-1.27,2.09-4.06c0-2.51-.74-3.8-2.09-3.8S229.7,179.54,229.7,182.31Z" transform="translate(0 -1.24)"/><path class="b" d="M236.54,177.9c.84,3.15,1.94,7.15,2.1,8h0c.09-.73,1.84-6.66,2.2-8h.81l-2.61,9h-.87l-2.48-9Z" transform="translate(0 -1.24)"/><path class="b" d="M243.34,182.44c0,2.18.4,3.9,2,3.9s1.87-1.63,1.93-1.88h.79a2.78,2.78,0,0,1-2.72,2.61c-2.49,0-2.83-2.42-2.83-4.63,0-2.85.9-4.68,2.92-4.68,2.19,0,2.7,1.94,2.7,4.12,0,.07,0,.31,0,.56Zm4-.7c0-2-.49-3.26-1.93-3.26-2,0-2.05,2.66-2.07,3.26Z" transform="translate(0 -1.24)"/><path class="b" d="M250,180.6c0-1.49,0-2.25,0-2.7h.75a12.07,12.07,0,0,1,0,1.3,2,2,0,0,1,2-1.44,1.73,1.73,0,0,1,1.89,1.4,2.23,2.23,0,0,1,2.18-1.4c1,0,2.11.46,2.11,2.55v6.59h-.79v-6.42c0-1-.29-2-1.48-2-1.35,0-1.82,1.25-1.82,2.53v5.87h-.79v-6.39c0-1.3-.43-2-1.44-2-1.24,0-1.89,1.24-1.89,2.71v5.69H250Z" transform="translate(0 -1.24)"/><path class="b" d="M261.63,182.44c0,2.18.4,3.9,2,3.9a2,2,0,0,0,1.92-1.88h.8a2.78,2.78,0,0,1-2.72,2.61c-2.49,0-2.83-2.42-2.83-4.63,0-2.85.9-4.68,2.92-4.68,2.19,0,2.7,1.94,2.7,4.12,0,.07,0,.31,0,.56Zm4-.7c0-2-.48-3.26-1.92-3.26-2,0-2.05,2.66-2.07,3.26Z" transform="translate(0 -1.24)"/><path class="b" d="M268.25,180.67c0-1.83,0-2.39,0-2.77H269c0,.22,0,.56,0,1.33a2.2,2.2,0,0,1,2.23-1.47c1.21,0,2.32.61,2.32,2.73v6.41h-.79v-6.3c0-1.22-.49-2.1-1.64-2.1-1.49,0-2.11,1-2.11,3.18v5.22h-.79Z" transform="translate(0 -1.24)"/><path class="b" d="M274.71,177.9h1.34v-2.5h.77v2.5h1.68v.72h-1.68v6.55c0,.69.16,1.14.85,1.14a4,4,0,0,0,.72-.06v.65a3.1,3.1,0,0,1-.92.13c-.81,0-1.42-.36-1.42-1.66v-6.75h-1.34Z" transform="translate(0 -1.24)"/><path class="b" d="M280.15,184.4a1.81,1.81,0,0,0,1.87,1.94,1.61,1.61,0,0,0,1.75-1.72c0-1.14-.61-1.61-1.87-2.11-1.68-.68-2.24-1.3-2.24-2.52a2.13,2.13,0,0,1,2.36-2.23,2.17,2.17,0,0,1,2.36,2.39h-.79a1.55,1.55,0,0,0-1.6-1.67,1.36,1.36,0,0,0-1.52,1.49c0,.83.31,1.23,1.68,1.77,1.64.64,2.43,1.24,2.43,2.82a2.35,2.35,0,0,1-2.61,2.51,2.46,2.46,0,0,1-2.63-2.67Z" transform="translate(0 -1.24)"/><path class="b" d="M289.85,181c0-1.4,0-2.43,0-3.08h.76c0,.27,0,.72,0,1.68a2.57,2.57,0,0,1,2.39-1.81v.85c-1.58.09-2.39,1.42-2.39,3v5.24h-.78Z" transform="translate(0 -1.24)"/><path class="b" d="M294.55,182.44c0,2.18.4,3.9,2,3.9a2,2,0,0,0,1.92-1.88h.8a2.78,2.78,0,0,1-2.72,2.61c-2.49,0-2.83-2.42-2.83-4.63,0-2.85.9-4.68,2.92-4.68,2.19,0,2.7,1.94,2.7,4.12,0,.07,0,.31,0,.56Zm4-.7c0-2-.49-3.26-1.93-3.26-2,0-2.05,2.66-2.07,3.26Z" transform="translate(0 -1.24)"/><path class="b" d="M301.17,186.9V174.07H302V186.9Z" transform="translate(0 -1.24)"/><path class="b" d="M309,185.55a13,13,0,0,0,.07,1.35h-.72a6.77,6.77,0,0,1-.09-1.15,2.11,2.11,0,0,1-2.2,1.32,2.28,2.28,0,0,1-2.32-2.56c0-1.53,1-2.85,3.42-2.85a8.07,8.07,0,0,1,1.08,0v-1.33c0-.83-.18-1.89-1.62-1.89-1.62,0-1.69,1.19-1.75,1.8h-.77a2.35,2.35,0,0,1,2.56-2.52c1.62,0,2.34.82,2.34,2.45Zm-.74-3.13a6.77,6.77,0,0,0-1,0c-1.88,0-2.69.9-2.69,2.09a1.68,1.68,0,0,0,1.66,1.87c1.47,0,2.07-1,2.07-3.29Z" transform="translate(0 -1.24)"/><path class="b" d="M310.14,177.9h1.33v-2.5h.77v2.5h1.68v.72h-1.68v6.55c0,.69.17,1.14.85,1.14a3.88,3.88,0,0,0,.72-.06v.65a3.05,3.05,0,0,1-.92.13c-.81,0-1.42-.36-1.42-1.66v-6.75h-1.33Z" transform="translate(0 -1.24)"/><path class="b" d="M315.45,182.44c0,2.18.39,3.9,2,3.9a2,2,0,0,0,1.93-1.88h.79a2.76,2.76,0,0,1-2.72,2.61c-2.48,0-2.82-2.42-2.82-4.63,0-2.85.9-4.68,2.91-4.68,2.2,0,2.71,1.94,2.71,4.12,0,.07,0,.31,0,.56Zm4-.7c0-2-.48-3.26-1.92-3.26-2,0-2.06,2.66-2.07,3.26Z" transform="translate(0 -1.24)"/><path class="b" d="M327.42,174.07v10.64c0,.75,0,1.65,0,2.19h-.76c0-.23,0-.91,0-1.38a2.06,2.06,0,0,1-2.19,1.55c-1.86,0-2.68-1.52-2.68-4.78,0-2.95,1.15-4.53,2.91-4.53,1.3,0,1.75.57,2,1.08v-4.77Zm-2.85,12.24c1.61,0,2.07-1.44,2.07-4.05,0-3-.5-3.76-2-3.76-1.22,0-2.09,1.13-2.09,3.79C322.59,185.23,323.31,186.31,324.57,186.31Z" transform="translate(0 -1.24)"/><path class="b" d="M333.27,190.25v-9.7c0-1.25,0-2.09,0-2.65H334c0,.14,0,.83,0,1.35a2.2,2.2,0,0,1,2.23-1.49c1.73,0,2.63,1.54,2.63,4.53s-1.1,4.78-2.88,4.78a2,2,0,0,1-2-1.25v4.43Zm2.86-11.75c-1.62,0-2.12,1.54-2.12,3.92,0,2.2.27,3.91,2,3.91,1.35,0,2.07-1.66,2.07-4S337.52,178.5,336.13,178.5Z" transform="translate(0 -1.24)"/><path class="b" d="M340.77,181c0-1.4,0-2.43,0-3.08h.75c0,.27,0,.72,0,1.68a2.57,2.57,0,0,1,2.39-1.81v.85c-1.58.09-2.39,1.42-2.39,3v5.24h-.78Z" transform="translate(0 -1.24)"/><path class="b" d="M350.48,182.28c0,3.09-1,4.79-2.9,4.79s-2.92-1.64-2.92-4.78,1.14-4.53,3-4.53S350.48,179.25,350.48,182.28Zm-5,0c0,2.79.79,4,2.09,4s2.09-1.27,2.09-4.06c0-2.51-.74-3.8-2.09-3.8S345.49,179.54,345.49,182.31Z" transform="translate(0 -1.24)"/><path class="b" d="M353.25,177.9v9.83c0,1.53-.2,2.67-1.68,2.67a3.32,3.32,0,0,1-.41,0v-.72a2.89,2.89,0,0,0,.39,0c.78,0,.92-.51.92-1.68V177.9Zm-.74-2.09v-1.74h.77v1.74Z" transform="translate(0 -1.24)"/><path class="b" d="M356,182.44c0,2.18.4,3.9,2,3.9a2,2,0,0,0,1.93-1.88h.79a2.78,2.78,0,0,1-2.72,2.61c-2.48,0-2.83-2.42-2.83-4.63,0-2.85.9-4.68,2.92-4.68,2.2,0,2.7,1.94,2.7,4.12,0,.07,0,.31,0,.56Zm4-.7c0-2-.49-3.26-1.93-3.26-2,0-2.05,2.66-2.07,3.26Z" transform="translate(0 -1.24)"/><path class="b" d="M367.77,184.35a2.72,2.72,0,0,1-2.66,2.72c-2.2,0-2.83-2.09-2.83-4.67s.85-4.64,3-4.64a2.52,2.52,0,0,1,2.53,2.66H367c0-.38-.18-1.94-1.71-1.94s-2.13,1.67-2.13,3.9c0,2.43.61,4,2,4s1.74-1.54,1.81-2Z" transform="translate(0 -1.24)"/><path class="b" d="M368.65,177.9H370v-2.5h.77v2.5h1.68v.72h-1.68v6.55c0,.69.16,1.14.85,1.14a4,4,0,0,0,.72-.06v.65a3.1,3.1,0,0,1-.92.13c-.81,0-1.42-.36-1.42-1.66v-6.75h-1.34Z" transform="translate(0 -1.24)"/><circle class="g" cx="21.21" cy="155.25" r="7.32"/><circle class="h" cx="21.21" cy="178.82" r="7.32"/><g class="i"><path class="b" d="M1.35,222c.09,1.4.81,2.48,2.3,2.48s2.22-.72,2.22-2.44c0-1.46-.54-2.22-2.29-3.07S.92,217.31.92,215.57a2.7,2.7,0,0,1,2.83-2.87c2.1,0,2.71,1.59,2.75,2.94H5.71c-.06-.54-.24-2.2-2-2.2a1.84,1.84,0,0,0-1.94,2c0,1.36.59,2,2.19,2.77,2.11,1,2.78,2.07,2.78,3.76,0,2-1,3.24-3.08,3.24-2.24,0-3-1.47-3.12-3.22Z" transform="translate(0 -1.24)"/><path class="b" d="M14,220.48c0,3.1-1,4.79-2.89,4.79s-2.92-1.64-2.92-4.77S9.34,216,11.16,216,14,217.46,14,220.48Zm-5,0c0,2.79.79,4,2.09,4s2.08-1.28,2.08-4.07c0-2.5-.73-3.8-2.08-3.8S9,217.74,9,220.52Z" transform="translate(0 -1.24)"/><path class="b" d="M21.15,222.75c0,1,0,1.94,0,2.36h-.74a11.34,11.34,0,0,1-.05-1.35,2.18,2.18,0,0,1-2.24,1.51c-.9,0-2.25-.29-2.25-2.68v-6.48h.8v6.26c0,1.33.41,2.18,1.64,2.18s2-.74,2-3v-5.42h.79Z" transform="translate(0 -1.24)"/><path class="b" d="M23.47,219.19c0-1.41,0-2.44,0-3.08h.76c0,.27,0,.72,0,1.67a2.57,2.57,0,0,1,2.39-1.8v.85c-1.58.09-2.39,1.42-2.39,3v5.24h-.78Z" transform="translate(0 -1.24)"/><path class="b" d="M32.85,222.55a2.71,2.71,0,0,1-2.66,2.72c-2.2,0-2.83-2.09-2.83-4.66s.85-4.65,2.95-4.65a2.53,2.53,0,0,1,2.54,2.67H32c0-.38-.18-1.95-1.71-1.95s-2.12,1.68-2.12,3.91c0,2.43.61,4,2,4S32,223,32,222.55Z" transform="translate(0 -1.24)"/><path class="b" d="M35,220.64c0,2.18.4,3.91,2,3.91s1.87-1.64,1.93-1.89h.79A2.77,2.77,0,0,1,37,225.27c-2.49,0-2.83-2.41-2.83-4.63,0-2.84.9-4.68,2.92-4.68,2.19,0,2.7,1.95,2.7,4.13,0,.07,0,.3,0,.55Zm4-.7c0-2-.49-3.26-1.93-3.26-2,0-2,2.67-2.07,3.26Z" transform="translate(0 -1.24)"/><path class="b" d="M2.72,235.67H0v-1.19H6.79v1.19H4.07v11H2.72Z" transform="translate(0 -1.24)"/><path class="b" d="M9.11,233.89v4.81a2.15,2.15,0,0,1,2.18-1.28c1.33,0,2.3.84,2.3,2.79v6.5H12.26v-6.23c0-1.12-.32-1.89-1.44-1.89s-1.71,1-1.71,2.63v5.49H7.78V233.89Z" transform="translate(0 -1.24)"/><path class="b" d="M16.6,242.39c0,1.78.3,3.35,1.74,3.35A1.68,1.68,0,0,0,20,244.1h1.3a2.89,2.89,0,0,1-3,2.77c-2.69,0-3.07-2.45-3.07-4.73,0-2.89,1-4.7,3.14-4.7,2.41,0,3,2,3,4.25,0,.18,0,.48,0,.7Zm3.45-1c0-1.58-.34-2.81-1.65-2.81-1.68,0-1.77,2.18-1.79,2.81Z" transform="translate(0 -1.24)"/><path class="b" d="M27.2,243.5c.11,1.25.7,2.25,2.05,2.25s1.93-.7,1.93-2.1-.52-2-2.2-2.78c-1.91-.91-2.75-1.76-2.75-3.52a2.86,2.86,0,0,1,3.07-3c2.36,0,3,1.69,3,3.12H31c-.07-.58-.25-2-1.76-2a1.59,1.59,0,0,0-1.67,1.78c0,1.17.52,1.73,2.05,2.45,2.14,1,2.92,2.05,2.92,3.87a3.06,3.06,0,0,1-3.34,3.33c-2.44,0-3.25-1.6-3.34-3.37Z" transform="translate(0 -1.24)"/><path class="b" d="M39.85,243.92a2.85,2.85,0,0,1-2.91,3c-2.38,0-3-2.11-3-4.75s.83-4.7,3.15-4.7a2.72,2.72,0,0,1,2.79,2.88H38.5c0-.36-.14-1.75-1.44-1.75s-1.8,1.44-1.8,3.55c0,2.27.51,3.64,1.73,3.64s1.48-1.34,1.55-1.82Z" transform="translate(0 -1.24)"/><path class="b" d="M42.75,233.89v4.81a2.16,2.16,0,0,1,2.18-1.28c1.33,0,2.3.84,2.3,2.79v6.5H45.9v-6.23c0-1.12-.32-1.89-1.44-1.89s-1.71,1-1.71,2.63v5.49H41.42V233.89Z" transform="translate(0 -1.24)"/><path class="b" d="M55.19,242c0,3.21-1.08,4.83-3.13,4.83s-3.15-1.57-3.15-4.81,1.24-4.62,3.2-4.62S55.19,239,55.19,242Zm-4.93,0c0,2.47.61,3.66,1.8,3.66s1.78-1.21,1.78-3.68-.58-3.49-1.78-3.49S50.26,239.6,50.26,242.08Z" transform="translate(0 -1.24)"/><path class="b" d="M62.79,242c0,3.21-1.08,4.83-3.14,4.83s-3.15-1.57-3.15-4.81,1.25-4.62,3.21-4.62S62.79,239,62.79,242Zm-4.94,0c0,2.47.61,3.66,1.8,3.66s1.79-1.21,1.79-3.68-.58-3.49-1.79-3.49S57.85,239.6,57.85,242.08Z" transform="translate(0 -1.24)"/><path class="b" d="M64.49,246.71V233.89h1.32v12.82Z" transform="translate(0 -1.24)"/><path class="b" d="M77.91,243.32c-.06.71-.37,3.57-3.34,3.57-3.25,0-3.51-3.44-3.51-6.38,0-3.56,1-6.21,3.66-6.21,3,0,3.11,2.76,3.15,3.51H76.52c0-.41-.11-2.3-1.82-2.3-1.93,0-2.23,2.63-2.23,5,0,2.58.29,5.19,2.14,5.19,1.64,0,1.87-1.76,1.93-2.38Z" transform="translate(0 -1.24)"/><path class="b" d="M85.48,242c0,3.21-1.08,4.83-3.13,4.83s-3.15-1.57-3.15-4.81,1.24-4.62,3.2-4.62S85.48,239,85.48,242Zm-4.93,0c0,2.47.61,3.66,1.8,3.66s1.78-1.21,1.78-3.68-.57-3.49-1.78-3.49S80.55,239.6,80.55,242.08Z" transform="translate(0 -1.24)"/><path class="b" d="M87.19,240.41c0-1.88,0-2.42,0-2.83h1.28c0,.22,0,.58,0,1.19a2.16,2.16,0,0,1,2.17-1.35c1.31,0,2.34.75,2.34,2.79v6.5H91.67v-6.25c0-1.12-.36-1.87-1.4-1.87-1.23,0-1.75.81-1.75,2.68v5.44H87.19Z" transform="translate(0 -1.24)"/><path class="b" d="M95.81,244.08c.06,1,.56,1.71,1.61,1.71a1.32,1.32,0,0,0,1.47-1.44c0-.94-.47-1.37-1.67-1.84-1.89-.72-2.43-1.4-2.43-2.68a2.34,2.34,0,0,1,2.61-2.41A2.4,2.4,0,0,1,100,240H98.75c0-.45-.13-1.53-1.39-1.53a1.16,1.16,0,0,0-1.26,1.26c0,.74.32,1.08,1.58,1.58,1.77.67,2.54,1.32,2.54,2.88s-1,2.65-2.86,2.65a2.6,2.6,0,0,1-2.86-2.79Z" transform="translate(0 -1.24)"/><path class="b" d="M100.83,237.58h1.3v-2.43h1.3v2.43H105v1.13h-1.6v6c0,.63.14,1,.83,1a3.1,3.1,0,0,0,.64-.06v1a3.6,3.6,0,0,1-1.08.14c-1.06,0-1.69-.43-1.69-1.87v-6.25h-1.3Z" transform="translate(0 -1.24)"/><path class="b" d="M106.27,240.69c0-1.45,0-2.46,0-3.11h1.26c0,.23.06.67.06,1.62a2.47,2.47,0,0,1,2.41-1.76v1.45c-1.57.06-2.4,1.05-2.4,2.72v5.1h-1.31Z" transform="translate(0 -1.24)"/><path class="b" d="M116.91,244.21c0,1.15,0,2.07,0,2.5h-1.26a8.67,8.67,0,0,1-.06-1.23,2.11,2.11,0,0,1-2.18,1.39c-1.06,0-2.28-.43-2.28-2.72v-6.57h1.33v6.25c0,1.17.32,1.87,1.37,1.87s1.73-.61,1.73-2.57v-5.55h1.33Z" transform="translate(0 -1.24)"/><path class="b" d="M124.54,243.92a2.85,2.85,0,0,1-2.91,3c-2.38,0-3-2.11-3-4.75s.83-4.7,3.15-4.7a2.72,2.72,0,0,1,2.79,2.88h-1.35c0-.36-.14-1.75-1.44-1.75S120,240,120,242.1c0,2.27.5,3.64,1.73,3.64s1.48-1.34,1.55-1.82Z" transform="translate(0 -1.24)"/><path class="b" d="M125.33,237.58h1.3v-2.43h1.29v2.43h1.61v1.13h-1.61v6c0,.63.15,1,.83,1a3.13,3.13,0,0,0,.65-.06v1a3.64,3.64,0,0,1-1.08.14c-1.06,0-1.69-.43-1.69-1.87v-6.25h-1.3Z" transform="translate(0 -1.24)"/><path class="b" d="M130.82,235.78v-1.89h1.33v1.89Zm0,1.8h1.32v9.13h-1.32Z" transform="translate(0 -1.24)"/><path class="b" d="M140.15,242c0,3.21-1.08,4.83-3.14,4.83s-3.15-1.57-3.15-4.81,1.25-4.62,3.21-4.62S140.15,239,140.15,242Zm-4.94,0c0,2.47.62,3.66,1.8,3.66s1.79-1.21,1.79-3.68-.58-3.49-1.79-3.49S135.21,239.6,135.21,242.08Z" transform="translate(0 -1.24)"/><path class="b" d="M141.86,240.41c0-1.88,0-2.42,0-2.83h1.28c0,.22,0,.58,0,1.19a2.15,2.15,0,0,1,2.16-1.35c1.32,0,2.34.75,2.34,2.79v6.5h-1.33v-6.25c0-1.12-.36-1.87-1.41-1.87-1.22,0-1.74.81-1.74,2.68v5.44h-1.33Z" transform="translate(0 -1.24)"/><path class="b" d="M154.6,242.84l-.9,3.87h-1.33l2.95-12.23h1.75l3,12.23h-1.44l-.9-3.87Zm2.9-1.21c-.7-3-1.17-4.91-1.33-5.89h0c-.18,1.07-.67,3.26-1.28,5.89Z" transform="translate(0 -1.24)"/><path class="b" d="M167,244.21c0,1.15,0,2.07,0,2.5h-1.26a8.67,8.67,0,0,1-.06-1.23,2.11,2.11,0,0,1-2.18,1.39c-1.06,0-2.28-.43-2.28-2.72v-6.57h1.33v6.25c0,1.17.33,1.87,1.37,1.87s1.73-.61,1.73-2.57v-5.55H167Z" transform="translate(0 -1.24)"/><path class="b" d="M168.21,237.58h1.29v-2.43h1.3v2.43h1.6v1.13h-1.6v6c0,.63.14,1,.83,1a3.27,3.27,0,0,0,.65-.06v1a3.69,3.69,0,0,1-1.08.14c-1.07,0-1.7-.43-1.7-1.87v-6.25h-1.29Z" transform="translate(0 -1.24)"/><path class="b" d="M175,233.89v4.81a2.16,2.16,0,0,1,2.18-1.28c1.33,0,2.31.84,2.31,2.79v6.5h-1.34v-6.23c0-1.12-.32-1.89-1.44-1.89s-1.71,1-1.71,2.63v5.49h-1.33V233.89Z" transform="translate(0 -1.24)"/><path class="b" d="M187.43,242c0,3.21-1.08,4.83-3.13,4.83s-3.15-1.57-3.15-4.81,1.24-4.62,3.2-4.62S187.43,239,187.43,242Zm-4.93,0c0,2.47.61,3.66,1.8,3.66s1.78-1.21,1.78-3.68-.57-3.49-1.78-3.49S182.5,239.6,182.5,242.08Z" transform="translate(0 -1.24)"/><path class="b" d="M189.14,240.69c0-1.45,0-2.46,0-3.11h1.26c0,.23.06.67.06,1.62a2.47,2.47,0,0,1,2.41-1.76v1.45c-1.57.06-2.39,1.05-2.39,2.72v5.1h-1.32Z" transform="translate(0 -1.24)"/><path class="b" d="M194.05,235.78v-1.89h1.34v1.89Zm0,1.8h1.32v9.13h-1.32Z" transform="translate(0 -1.24)"/><path class="b" d="M196.59,237.58h1.3v-2.43h1.3v2.43h1.6v1.13h-1.6v6c0,.63.14,1,.82,1a3.13,3.13,0,0,0,.65-.06v1a3.6,3.6,0,0,1-1.08.14c-1.06,0-1.69-.43-1.69-1.87v-6.25h-1.3Z" transform="translate(0 -1.24)"/><path class="b" d="M203,237.58c1,3.82,1.73,6.55,1.86,7.53h0c.18-1.05,1-4.18,1.88-7.53h1.35l-2.67,9.6c-.74,2.66-1.44,3-2.73,3a4.8,4.8,0,0,1-.67,0V249a5.28,5.28,0,0,0,.61,0c1,0,1.23-.65,1.59-2.1l-2.69-9.33Z" transform="translate(0 -1.24)"/><path class="b" d="M209.39,238.14l-.13-2.7v-1.55h1.26v1.57l-.12,2.68Z" transform="translate(0 -1.24)"/><path class="b" d="M212.68,244.08c.06,1,.56,1.71,1.61,1.71a1.32,1.32,0,0,0,1.47-1.44c0-.94-.47-1.37-1.67-1.84-1.89-.72-2.43-1.4-2.43-2.68a2.34,2.34,0,0,1,2.61-2.41A2.4,2.4,0,0,1,216.9,240h-1.28c0-.45-.13-1.53-1.39-1.53a1.16,1.16,0,0,0-1.26,1.26c0,.74.33,1.08,1.59,1.58,1.76.67,2.53,1.32,2.53,2.88s-1,2.65-2.86,2.65a2.61,2.61,0,0,1-2.86-2.79Z" transform="translate(0 -1.24)"/><path class="b" d="M225.48,233.83a13,13,0,0,0-2.3,7.57,13.62,13.62,0,0,0,2.3,7.79H224.2a13.75,13.75,0,0,1-2.27-7.81,13.26,13.26,0,0,1,2.27-7.55Z" transform="translate(0 -1.24)"/><path class="b" d="M227.64,243.5c.11,1.25.7,2.25,2.06,2.25s1.92-.7,1.92-2.1-.52-2-2.2-2.78c-1.9-.91-2.75-1.76-2.75-3.52a2.87,2.87,0,0,1,3.08-3c2.36,0,3,1.69,3,3.12h-1.31c-.07-.58-.25-2-1.76-2a1.6,1.6,0,0,0-1.68,1.78c0,1.17.52,1.73,2,2.45,2.15,1,2.92,2.05,2.92,3.87a3.05,3.05,0,0,1-3.33,3.33c-2.45,0-3.26-1.6-3.35-3.37Z" transform="translate(0 -1.24)"/><path class="b" d="M241.16,243.32c0,.71-.36,3.57-3.33,3.57-3.26,0-3.51-3.44-3.51-6.38,0-3.56,1-6.21,3.66-6.21,3,0,3.11,2.76,3.15,3.51h-1.35c0-.41-.11-2.3-1.82-2.3-1.93,0-2.24,2.63-2.24,5,0,2.58.29,5.19,2.15,5.19,1.64,0,1.87-1.76,1.92-2.38Z" transform="translate(0 -1.24)"/><path class="b" d="M244.27,242.84l-.9,3.87H242l3-12.23h1.75l3,12.23h-1.44l-.9-3.87Zm2.9-1.21c-.7-3-1.17-4.91-1.33-5.89h0c-.18,1.07-.66,3.26-1.27,5.89Z" transform="translate(0 -1.24)"/><path class="b" d="M250.66,249.19a12.92,12.92,0,0,0,2.31-7.58,13.77,13.77,0,0,0-2.31-7.78h1.28a13.62,13.62,0,0,1,2.25,7.8,13.23,13.23,0,0,1-2.25,7.56Z" transform="translate(0 -1.24)"/><path class="b" d="M265.44,242c0,3.21-1.08,4.83-3.13,4.83s-3.15-1.57-3.15-4.81,1.24-4.62,3.2-4.62S265.44,239,265.44,242Zm-4.93,0c0,2.47.61,3.66,1.8,3.66s1.78-1.21,1.78-3.68-.57-3.49-1.78-3.49S260.51,239.6,260.51,242.08Z" transform="translate(0 -1.24)"/><path class="b" d="M267.37,246.71v-8h-1.19v-1.13h1.19v-1.26c0-1.35.48-2.54,2.14-2.54a2.84,2.84,0,0,1,.76.11V235a2.72,2.72,0,0,0-.62-.07c-.72,0-1,.45-1,1.39v1.22h1.44v1.13h-1.44v8Z" transform="translate(0 -1.24)"/><path class="b" d="M274.6,246.71V234.48h1.66c3.38,8.47,3.85,9.62,4,10.14h0c-.09-1.64-.11-3.47-.11-5.47v-4.67h1.26v12.23h-1.58c-3.51-8.9-3.94-10-4.09-10.5h0c.09,1.53.11,3.53.11,5.73v4.77Z" transform="translate(0 -1.24)"/><path class="b" d="M284.61,242.39c0,1.78.31,3.35,1.75,3.35A1.66,1.66,0,0,0,288,244.1h1.3a2.89,2.89,0,0,1-3,2.77c-2.68,0-3.06-2.45-3.06-4.73,0-2.89,1-4.7,3.13-4.7,2.41,0,3,2,3,4.25,0,.18,0,.48,0,.7Zm3.46-1c0-1.58-.35-2.81-1.66-2.81-1.67,0-1.76,2.18-1.78,2.81Z" transform="translate(0 -1.24)"/><path class="b" d="M291.65,237.58c.88,4.32,1.31,6.41,1.48,7.65h0c.18-1.19.56-2.61,1.69-7.65h1.27c1.06,4.79,1.47,6.63,1.6,7.62h0c.14-1,.48-2.63,1.53-7.62h1.35l-2.24,9.13H297c-.65-3-1.33-6-1.55-7.37h0c-.16,1.35-.82,4-1.62,7.37h-1.44l-2.09-9.13Z" transform="translate(0 -1.24)"/><path class="b" d="M307.29,246.71V242a.78.78,0,0,0-.07-.3l-3.12-7.26h1.52c.82,2.07,2,4.94,2.37,6.05.43-1.19,1.62-4.08,2.41-6.05h1.43l-3.14,7.26a.8.8,0,0,0-.07.32v4.65Z" transform="translate(0 -1.24)"/><path class="b" d="M317.51,242c0,3.21-1.08,4.83-3.13,4.83s-3.15-1.57-3.15-4.81,1.24-4.62,3.21-4.62S317.51,239,317.51,242Zm-4.93,0c0,2.47.61,3.66,1.8,3.66s1.78-1.21,1.78-3.68-.57-3.49-1.78-3.49S312.58,239.6,312.58,242.08Z" transform="translate(0 -1.24)"/><path class="b" d="M319.22,240.69c0-1.45,0-2.46,0-3.11h1.25c0,.23.06.67.06,1.62a2.47,2.47,0,0,1,2.41-1.76v1.45c-1.56.06-2.39,1.05-2.39,2.72v5.1h-1.32Z" transform="translate(0 -1.24)"/><path class="b" d="M325.5,241.88c.6-.9,2.15-3.06,3-4.3h1.45c-.81,1.15-1.67,2.32-2.52,3.47l2.79,5.66h-1.51l-2.18-4.59c-.25.34-.73,1-1,1.35v3.24h-1.31V233.89h1.31Z" transform="translate(0 -1.24)"/><path class="b" d="M341.06,243.32c-.06.71-.36,3.57-3.33,3.57-3.26,0-3.51-3.44-3.51-6.38,0-3.56.95-6.21,3.65-6.21,2.95,0,3.12,2.76,3.15,3.51h-1.35c0-.41-.11-2.3-1.82-2.3-1.92,0-2.23,2.63-2.23,5,0,2.58.29,5.19,2.14,5.19,1.64,0,1.88-1.76,1.93-2.38Z" transform="translate(0 -1.24)"/><path class="b" d="M342.75,235.78v-1.89h1.33v1.89Zm0,1.8h1.31v9.13h-1.31Z" transform="translate(0 -1.24)"/><path class="b" d="M345.29,237.58h1.29v-2.43h1.3v2.43h1.6v1.13h-1.6v6c0,.63.14,1,.83,1a3.27,3.27,0,0,0,.65-.06v1a3.71,3.71,0,0,1-1.09.14c-1.06,0-1.69-.43-1.69-1.87v-6.25h-1.29Z" transform="translate(0 -1.24)"/><path class="b" d="M351.67,237.58c1,3.82,1.73,6.55,1.86,7.53h0c.18-1.05,1-4.18,1.87-7.53h1.35l-2.66,9.6c-.74,2.66-1.44,3-2.74,3a4.8,4.8,0,0,1-.67,0V249a5.46,5.46,0,0,0,.62,0c.95,0,1.22-.65,1.58-2.1l-2.68-9.33Z" transform="translate(0 -1.24)"/></g></svg>