<svg xmlns="http://www.w3.org/2000/svg" xmlns:xlink="http://www.w3.org/1999/xlink" viewBox="0 0 456.63 369.86"><defs><style>.a{fill:url(#a);}.b{fill:#fff;}.c{opacity:0.8;}</style><linearGradient id="a" x1="12.5" y1="214.75" x2="304.25" y2="214.75" gradientUnits="userSpaceOnUse"><stop offset="0" stop-color="#f4eea9"/><stop offset="0.42" stop-color="#db0075"/><stop offset="1" stop-color="#ca0aff"/></linearGradient></defs><rect width="456.63" height="369.86"/><rect class="a" x="12.5" y="202.36" width="291.75" height="24.79"/><path class="b" d="M283,238.51h-2.91c-.06.89-.21,2.41-.27,2.92a1.69,1.69,0,0,1,1.47-.65c1.49,0,2.15,1.21,2.15,2.88S282.84,247,281,247a2.18,2.18,0,0,1-2.32-2.4h1c.06.63.25,1.53,1.33,1.53s1.36-1,1.36-2.37-.28-2.1-1.29-2.1a1.36,1.36,0,0,0-1.36,1.15l-.95-.17c.15-1.06.38-3.64.47-5h3.9Z"/><path class="b" d="M284.34,246.88v-1.94h1v1.94Z"/><path class="b" d="M289.41,246.86v-2.45h-3.32v-.87l3-5.92h1.32v5.91h.91l-.11.88h-.8v2.45Zm0-5.88c0-.83,0-1.75,0-2.45-.42,1.09-1.64,3.54-2.35,5h2.31Z"/><path class="b" d="M293.37,243.11c.46-.7,1.67-2.38,2.31-3.35h1.13c-.63.9-1.3,1.81-2,2.7l2.17,4.4h-1.17l-1.7-3.57c-.19.27-.57.79-.78,1.05v2.52h-1v-10h1Z"/><path class="b" d="M303.37,242.69l-5.59,2.58v-.93l4.62-2-4.62-2.12v-.92l5.59,2.59Zm-5.59,4.17V246h5.59v.82Z"/><path class="b" d="M231.58,246.86v-2.45h-3.32v-.87l3-5.92h1.32v5.91h.91l-.11.88h-.8v2.45Zm0-5.88c0-.83,0-1.75,0-2.45-.42,1.09-1.64,3.54-2.35,5h2.31Z"/><path class="b" d="M234.35,246.88v-1.94h1v1.94Z"/><path class="b" d="M236.7,239.83a2.12,2.12,0,0,1,2.21-2.32c1.54,0,2.12,1,2.12,2.29a1.88,1.88,0,0,1-1.13,2v0a2.15,2.15,0,0,1,1.41,2.35c0,1.41-.56,2.83-2.47,2.83a2.19,2.19,0,0,1-2.32-2.4h1c0,.73.38,1.54,1.36,1.54s1.39-1,1.39-1.94c0-1.5-.68-1.89-1.71-1.89h-.4v-.87h.4c.89,0,1.44-.37,1.44-1.57,0-.87-.27-1.5-1.13-1.5-1.07,0-1.18,1-1.21,1.47Z"/><path class="b" d="M243.62,243.11c.46-.7,1.66-2.38,2.31-3.35h1.13c-.63.9-1.3,1.81-2,2.7l2.17,4.4h-1.18l-1.69-3.57-.78,1.05v2.52h-1v-10h1Z"/><path class="b" d="M175,239.83a2.12,2.12,0,0,1,2.21-2.32c1.54,0,2.12,1,2.12,2.29a1.89,1.89,0,0,1-1.12,2v0a2.15,2.15,0,0,1,1.4,2.35c0,1.41-.56,2.83-2.47,2.83a2.19,2.19,0,0,1-2.32-2.4h1c0,.73.38,1.54,1.36,1.54s1.39-1,1.39-1.94c0-1.5-.67-1.89-1.71-1.89h-.39v-.87h.39c.9,0,1.44-.37,1.44-1.57,0-.87-.26-1.5-1.13-1.5-1.07,0-1.18,1-1.21,1.47Z"/><path class="b" d="M180.73,246.88v-1.94h1v1.94Z"/><path class="b" d="M182.92,246.86v-.07c0-1.15.66-2.41,2.1-4,1.18-1.3,1.54-1.78,1.54-2.84,0-.83-.24-1.6-1.21-1.6s-1.26.69-1.3,1.78h-1c0-1.35.65-2.63,2.33-2.63s2.24,1.1,2.24,2.46-.42,1.89-1.65,3.2a7.5,7.5,0,0,0-1.85,2.78h3.77l-.16.91Z"/><path class="b" d="M189.93,243.11c.47-.7,1.67-2.38,2.31-3.35h1.14c-.63.9-1.3,1.81-2,2.7l2.17,4.4h-1.18l-1.69-3.57c-.2.27-.58.79-.79,1.05v2.52h-1v-10h1Z"/><path class="b" d="M121.17,246.86v-.07c0-1.15.65-2.41,2.1-4,1.17-1.3,1.54-1.78,1.54-2.84,0-.83-.24-1.6-1.21-1.6s-1.26.69-1.3,1.78h-1c0-1.35.65-2.63,2.33-2.63s2.24,1.1,2.24,2.46-.42,1.89-1.65,3.2a7.5,7.5,0,0,0-1.85,2.78h3.77l-.16.91Z"/><path class="b" d="M127.17,246.88v-1.94h1v1.94Z"/><path class="b" d="M129.36,246.86v-.07c0-1.15.65-2.41,2.1-4C132.63,241.5,133,241,133,240c0-.83-.24-1.6-1.21-1.6s-1.26.69-1.3,1.78h-1c0-1.35.65-2.63,2.33-2.63s2.24,1.1,2.24,2.46-.42,1.89-1.65,3.2a7.37,7.37,0,0,0-1.85,2.78h3.76l-.15.91Z"/><path class="b" d="M136.37,243.11c.46-.7,1.67-2.38,2.31-3.35h1.14c-.63.9-1.31,1.81-2,2.7l2.17,4.4h-1.18l-1.69-3.57c-.2.27-.58.79-.79,1.05v2.52h-1v-10h1Z"/><path class="b" d="M71.19,246.86v-8a4.48,4.48,0,0,1-1.32.39v-.83a3.65,3.65,0,0,0,1.64-.82h.7v9.28Z"/><path class="b" d="M73.78,246.88v-1.94h1v1.94Z"/><path class="b" d="M76.44,246.86v-8a4.48,4.48,0,0,1-1.32.39v-.83a3.65,3.65,0,0,0,1.64-.82h.7v9.28Z"/><path class="b" d="M80.37,243.11c.46-.7,1.67-2.38,2.31-3.35h1.14c-.63.9-1.3,1.81-2,2.7l2.17,4.4H82.85l-1.69-3.57c-.2.27-.58.79-.79,1.05v2.52h-1v-10h1Z"/><path class="b" d="M12.79,246.86v-.07c0-1.15.66-2.41,2.11-4,1.17-1.3,1.54-1.78,1.54-2.84,0-.83-.24-1.6-1.21-1.6s-1.26.69-1.3,1.78h-1c0-1.35.64-2.63,2.33-2.63s2.24,1.1,2.24,2.46-.42,1.89-1.66,3.2A7.63,7.63,0,0,0,14,246h3.77l-.15.91Z"/><path class="b" d="M23.45,242.14c0,3.38-.64,4.86-2.42,4.86s-2.44-1.64-2.44-4.87c0-3.52.91-4.62,2.48-4.62S23.45,238.81,23.45,242.14Zm-3.81,0c0,2.65.27,4,1.39,4s1.38-1.3,1.38-4-.33-3.74-1.37-3.74S19.64,239.33,19.64,242.1Z"/><path class="b" d="M25,241.83l5.59-2.57v.92l-4.61,2.06,4.61,2.12v.91L25,242.66Zm0,5V246h5.59v.82Z"/><path class="b" d="M5,30.42H1.36V28.84h9.05v1.58H6.78V45.14H5Z"/><path class="b" d="M17.8,38.92c0,4.27-1.44,6.43-4.18,6.43s-4.2-2.09-4.2-6.41,1.66-6.16,4.28-6.16S17.8,34.82,17.8,38.92Zm-6.58,0c0,3.29.82,4.87,2.4,4.87S16,42.23,16,38.94c0-3.12-.77-4.65-2.38-4.65S11.22,35.66,11.22,39Z"/><path class="b" d="M18.64,33h1.73V29.73H22.1V33h2.13v1.51H22.1v8c0,.84.19,1.37,1.1,1.37a4.34,4.34,0,0,0,.86-.08v1.37a4.72,4.72,0,0,1-1.44.19c-1.41,0-2.25-.57-2.25-2.49V34.48H18.64Z"/><path class="b" d="M33,43c0,.76.05,1.77.09,2.16h-1.6a6.68,6.68,0,0,1-.12-1.4,2.84,2.84,0,0,1-2.88,1.61c-2.36,0-3.2-1.82-3.2-3.53,0-2.2,1.52-3.88,4.71-3.88a11.38,11.38,0,0,1,1.27,0V36.35c0-.93-.19-2.16-1.82-2.16-1.8,0-1.92,1.3-2,2.11H25.74c.05-1.75.87-3.52,3.72-3.52,2.36,0,3.51,1.12,3.51,3.38Zm-1.71-3.6a6.68,6.68,0,0,0-1.2-.08c-2.16,0-3,1-3,2.4a1.92,1.92,0,0,0,1.89,2.16c1.78,0,2.35-1.27,2.35-3.84Z"/><path class="b" d="M35.87,45.14V28.05h1.75V45.14Z"/><path class="b" d="M46,41.63c.07,1.3.74,2.28,2.14,2.28a1.76,1.76,0,0,0,2-1.92c0-1.25-.62-1.82-2.23-2.45-2.52-1-3.24-1.87-3.24-3.57a3.12,3.12,0,0,1,3.48-3.22,3.2,3.2,0,0,1,3.51,3.48H49.86c0-.6-.16-2-1.85-2a1.54,1.54,0,0,0-1.68,1.68c0,1,.44,1.44,2.12,2.11,2.35.89,3.38,1.76,3.38,3.84,0,2.24-1.39,3.53-3.82,3.53a3.48,3.48,0,0,1-3.81-3.72Z"/><path class="b" d="M52.65,33h1.73V29.73H56.1V33h2.14v1.51H56.1v8c0,.84.19,1.37,1.11,1.37a4.34,4.34,0,0,0,.86-.08v1.37a4.76,4.76,0,0,1-1.44.19c-1.42,0-2.25-.57-2.25-2.49V34.48H52.65Z"/><path class="b" d="M67.41,41.8c0,1.54,0,2.76,0,3.34H65.75a12.56,12.56,0,0,1-.07-1.64,2.81,2.81,0,0,1-2.9,1.85c-1.42,0-3.05-.57-3.05-3.62V33H61.5V41.3c0,1.56.44,2.49,1.83,2.49s2.3-.81,2.3-3.43V33h1.78Z"/><path class="b" d="M77.87,28.05V42c0,1.17,0,2.4,0,3.12H76.19c0-.32-.07-1.11-.07-1.64a2.66,2.66,0,0,1-2.86,1.85c-2.52,0-3.6-2.16-3.6-6.43,0-3.89,1.42-6.14,4-6.14A2.43,2.43,0,0,1,76.12,34v-6ZM73.74,43.79c1.9,0,2.4-1.61,2.4-4.92,0-3.55-.5-4.56-2.25-4.56-1.44,0-2.43,1.27-2.43,4.63C71.46,42.45,72.26,43.79,73.74,43.79Z"/><path class="b" d="M81.93,39.38c0,2.37.41,4.46,2.33,4.46a2.21,2.21,0,0,0,2.2-2.18h1.73a3.85,3.85,0,0,1-4,3.69c-3.57,0-4.08-3.26-4.08-6.31,0-3.84,1.32-6.26,4.18-6.26,3.21,0,4,2.61,4,5.66,0,.24,0,.65,0,.94ZM86.54,38c0-2.11-.46-3.75-2.21-3.75C82.1,34.26,82,37.17,82,38Z"/><path class="b" d="M90.52,36.74c0-2.5,0-3.22,0-3.77h1.7c0,.29.07.77.07,1.58a2.88,2.88,0,0,1,2.88-1.8c1.75,0,3.12,1,3.12,3.72v8.67H96.5V36.81c0-1.49-.48-2.5-1.88-2.5-1.63,0-2.33,1.08-2.33,3.58v7.25H90.52Z"/><path class="b" d="M99.64,33h1.73V29.73h1.72V33h2.14v1.51h-2.14v8c0,.84.2,1.37,1.11,1.37a4.34,4.34,0,0,0,.86-.08v1.37a4.76,4.76,0,0,1-1.44.19c-1.41,0-2.25-.57-2.25-2.49V34.48H99.64Z"/><path class="b" d="M108.06,41.63a2.11,2.11,0,0,0,2.14,2.28,1.77,1.77,0,0,0,2-1.92c0-1.25-.63-1.82-2.23-2.45-2.52-1-3.24-1.87-3.24-3.57a3.12,3.12,0,0,1,3.47-3.22,3.2,3.2,0,0,1,3.51,3.48H112c0-.6-.17-2-1.85-2a1.53,1.53,0,0,0-1.68,1.68c0,1,.43,1.44,2.11,2.11,2.35.89,3.38,1.76,3.38,3.84,0,2.24-1.39,3.53-3.81,3.53a3.48,3.48,0,0,1-3.82-3.72Z"/><path class="b" d="M115,33.52a21.48,21.48,0,0,0,.84-5.55h1.71a16.75,16.75,0,0,1-1.13,5.55Z"/><path class="b" d="M124.14,49.6V36.52c0-1.66,0-2.78,0-3.55h1.7c0,.21.07,1,.07,1.63a2.79,2.79,0,0,1,2.88-1.82c2.31,0,3.56,2,3.56,6.09,0,4.39-1.52,6.48-3.89,6.48a2.55,2.55,0,0,1-2.55-1.46V49.6Zm4.11-15.29c-1.9,0-2.4,1.8-2.4,4.68s.26,4.83,2.28,4.83c1.6,0,2.42-1.88,2.42-4.85S129.83,34.31,128.25,34.31Z"/><path class="b" d="M142.48,38.92c0,4.27-1.44,6.43-4.18,6.43s-4.2-2.09-4.2-6.41,1.66-6.16,4.27-6.16S142.48,34.82,142.48,38.92Zm-6.58,0c0,3.29.82,4.87,2.4,4.87s2.38-1.61,2.38-4.9c0-3.12-.77-4.65-2.38-4.65S135.9,35.66,135.9,39Z"/><path class="b" d="M144.76,49.6V36.52c0-1.66,0-2.78,0-3.55h1.71c0,.21.07,1,.07,1.63a2.79,2.79,0,0,1,2.88-1.82c2.3,0,3.55,2,3.55,6.09,0,4.39-1.51,6.48-3.89,6.48a2.54,2.54,0,0,1-2.54-1.46V49.6Zm4.1-15.29c-1.89,0-2.4,1.8-2.4,4.68s.27,4.83,2.28,4.83c1.61,0,2.43-1.88,2.43-4.85S150.45,34.31,148.86,34.31Z"/><path class="b" d="M162.9,41.8c0,1.54,0,2.76,0,3.34h-1.68a12.1,12.1,0,0,1-.08-1.64,2.8,2.8,0,0,1-2.9,1.85c-1.42,0-3.05-.57-3.05-3.62V33H157V41.3c0,1.56.43,2.49,1.82,2.49s2.31-.81,2.31-3.43V33h1.77Z"/><path class="b" d="M165.76,45.14V28.05h1.75V45.14Z"/><path class="b" d="M177.35,43c0,.76.05,1.77.1,2.16h-1.61a7.43,7.43,0,0,1-.12-1.4,2.84,2.84,0,0,1-2.88,1.61c-2.35,0-3.19-1.82-3.19-3.53,0-2.2,1.51-3.88,4.7-3.88a11.29,11.29,0,0,1,1.27,0V36.35c0-.93-.19-2.16-1.82-2.16-1.8,0-1.92,1.3-2,2.11h-1.68c0-1.75.86-3.52,3.72-3.52,2.35,0,3.5,1.12,3.5,3.38Zm-1.7-3.6a6.84,6.84,0,0,0-1.2-.08c-2.16,0-3,1-3,2.4a1.92,1.92,0,0,0,1.89,2.16c1.78,0,2.36-1.27,2.36-3.84Z"/><path class="b" d="M178.74,33h1.73V29.73h1.73V33h2.13v1.51H182.2v8c0,.84.19,1.37,1.1,1.37a4.52,4.52,0,0,0,.87-.08v1.37a4.8,4.8,0,0,1-1.44.19c-1.42,0-2.26-.57-2.26-2.49V34.48h-1.73Z"/><path class="b" d="M186.06,30.57V28.05h1.78v2.52Zm0,2.4h1.75V45.14h-1.75Z"/><path class="b" d="M198.49,38.92c0,4.27-1.44,6.43-4.17,6.43s-4.2-2.09-4.2-6.41,1.65-6.16,4.27-6.16S198.49,34.82,198.49,38.92Zm-6.57,0c0,3.29.81,4.87,2.4,4.87s2.37-1.61,2.37-4.9c0-3.12-.77-4.65-2.37-4.65S191.92,35.66,191.92,39Z"/><path class="b" d="M200.77,36.74c0-2.5,0-3.22,0-3.77h1.7a14.8,14.8,0,0,1,.07,1.58,2.88,2.88,0,0,1,2.88-1.8c1.76,0,3.12,1,3.12,3.72v8.67h-1.77V36.81c0-1.49-.48-2.5-1.87-2.5-1.64,0-2.33,1.08-2.33,3.58v7.25h-1.78Z"/><g class="c"><path class="b" d="M1.33,311.07c.09,1.41.81,2.49,2.31,2.49s2.21-.72,2.21-2.45c0-1.46-.54-2.22-2.28-3.06S.9,306.36.9,304.61a2.7,2.7,0,0,1,2.83-2.86c2.1,0,2.72,1.58,2.75,2.93H5.69a2.07,2.07,0,0,0-2-2.2,1.85,1.85,0,0,0-1.94,2c0,1.37.59,2,2.19,2.77,2.11,1,2.78,2.07,2.78,3.77,0,1.94-1,3.24-3.08,3.24-2.23,0-3-1.48-3.12-3.23Z"/><path class="b" d="M14,309.52c0,3.1-1,4.79-2.9,4.79s-2.92-1.63-2.92-4.77,1.14-4.53,3-4.53S14,306.5,14,309.52Zm-5,0c0,2.79.79,4,2.09,4s2.09-1.27,2.09-4.07c0-2.5-.74-3.79-2.09-3.79S9,306.79,9,309.56Z"/><path class="b" d="M21.13,311.79c0,1,0,1.95,0,2.36h-.74a11.22,11.22,0,0,1-.05-1.35,2.17,2.17,0,0,1-2.23,1.51c-.9,0-2.25-.28-2.25-2.68v-6.48h.79v6.27c0,1.33.41,2.17,1.64,2.17s2-.73,2-3v-5.42h.79Z"/><path class="b" d="M23.45,308.23c0-1.41,0-2.43,0-3.08h.75c0,.27,0,.72,0,1.67a2.57,2.57,0,0,1,2.39-1.8v.85c-1.58.09-2.39,1.42-2.39,3v5.24h-.78Z"/><path class="b" d="M32.83,311.6a2.71,2.71,0,0,1-2.66,2.71c-2.2,0-2.83-2.08-2.83-4.66s.85-4.64,2.95-4.64a2.52,2.52,0,0,1,2.54,2.66H32c0-.38-.17-1.94-1.71-1.94s-2.12,1.67-2.12,3.9c0,2.43.61,4,2,4s1.74-1.54,1.81-2Z"/><path class="b" d="M35,309.69c0,2.18.4,3.9,2,3.9s1.87-1.63,1.93-1.89h.79A2.77,2.77,0,0,1,37,314.31c-2.48,0-2.83-2.41-2.83-4.62,0-2.85.9-4.68,2.92-4.68,2.2,0,2.7,1.94,2.7,4.12,0,.07,0,.3,0,.56Zm4-.71c0-2-.49-3.25-1.93-3.25-2,0-2.05,2.66-2.07,3.25Z"/><path class="b" d="M1.21,335.75V323.53H2.86c3.39,8.46,3.86,9.61,4,10.13h0c-.09-1.64-.11-3.47-.11-5.47v-4.66H8.05v12.22H6.46c-3.51-8.89-3.94-10-4.08-10.5h0c.09,1.54.11,3.53.11,5.73v4.77Z"/><path class="b" d="M11.21,331.43c0,1.78.31,3.35,1.75,3.35a1.68,1.68,0,0,0,1.66-1.64h1.29a2.88,2.88,0,0,1-3,2.77c-2.68,0-3.06-2.44-3.06-4.73,0-2.88,1-4.7,3.13-4.7,2.42,0,3,2,3,4.25,0,.18,0,.48,0,.7Zm3.46-1c0-1.58-.34-2.8-1.66-2.8-1.67,0-1.76,2.17-1.78,2.8Z"/><path class="b" d="M18.25,326.62c.88,4.32,1.32,6.41,1.48,7.66h0c.18-1.19.56-2.62,1.69-7.66H22.7c1.06,4.79,1.48,6.63,1.6,7.62h0c.14-1,.49-2.63,1.53-7.62H27.2L25,335.75H23.56c-.64-3-1.33-6-1.54-7.36h0c-.16,1.35-.83,4-1.62,7.36H18.94l-2.09-9.13Z"/><path class="b" d="M33.89,335.75v-4.66a.65.65,0,0,0-.07-.31l-3.11-7.25h1.51c.83,2.07,2,4.93,2.38,6.05.43-1.19,1.62-4.09,2.41-6.05h1.42l-3.13,7.25a.68.68,0,0,0-.07.33v4.64Z"/><path class="b" d="M44.12,331.09c0,3.2-1.08,4.82-3.13,4.82s-3.16-1.56-3.16-4.8,1.25-4.63,3.21-4.63S44.12,328,44.12,331.09Zm-4.93,0c0,2.47.61,3.66,1.8,3.66s1.78-1.21,1.78-3.67-.58-3.5-1.78-3.5S39.19,328.64,39.19,331.12Z"/><path class="b" d="M45.83,329.74c0-1.46,0-2.47,0-3.12h1.26c0,.24,0,.67,0,1.62a2.5,2.5,0,0,1,2.42-1.76v1.46c-1.57.05-2.4,1-2.4,2.72v5.09H45.83Z"/><path class="b" d="M52.11,330.93c.59-.9,2.14-3.06,3-4.31h1.46c-.81,1.16-1.68,2.33-2.52,3.48l2.79,5.65H55.3l-2.18-4.59c-.25.34-.74,1-1,1.35v3.24H50.79V322.93h1.32Z"/><path class="b" d="M67.66,332.37c0,.7-.36,3.56-3.33,3.56-3.26,0-3.51-3.44-3.51-6.37,0-3.57,1-6.21,3.66-6.21,3,0,3.11,2.75,3.15,3.51H66.28c0-.42-.11-2.31-1.82-2.31-1.93,0-2.24,2.63-2.24,5,0,2.57.29,5.18,2.15,5.18,1.64,0,1.87-1.76,1.92-2.37Z"/><path class="b" d="M69.35,324.82v-1.89h1.33v1.89Zm0,1.8h1.32v9.13H69.35Z"/><path class="b" d="M71.89,326.62h1.3v-2.43h1.29v2.43h1.6v1.14h-1.6v6c0,.63.15,1,.83,1a4.09,4.09,0,0,0,.65-.05v1a3.7,3.7,0,0,1-1.08.15c-1.06,0-1.69-.43-1.69-1.87v-6.25h-1.3Z"/><path class="b" d="M78.28,326.62c1,3.82,1.73,6.56,1.85,7.53h0c.18-1,1-4.18,1.87-7.53h1.36l-2.67,9.6c-.74,2.66-1.44,3-2.74,3a3.6,3.6,0,0,1-.66-.05V338a4.9,4.9,0,0,0,.61,0c1,0,1.22-.65,1.58-2.11l-2.68-9.33Z"/><path class="b" d="M88.18,323.53H90.9c2.82,0,4.09,2,4.09,5.79,0,4.15-1.14,6.43-4.29,6.43H88.18Zm1.35,11.07h1.12c2.25,0,2.95-1.77,2.95-5.24,0-3.24-.83-4.68-2.94-4.68H89.53Z"/><path class="b" d="M97.86,331.43c0,1.78.31,3.35,1.75,3.35a1.68,1.68,0,0,0,1.66-1.64h1.29a2.89,2.89,0,0,1-3,2.77c-2.68,0-3.06-2.44-3.06-4.73,0-2.88,1-4.7,3.13-4.7,2.42,0,3,2,3,4.25,0,.18,0,.48,0,.7Zm3.46-1c0-1.58-.34-2.8-1.66-2.8-1.67,0-1.76,2.17-1.78,2.8Z"/><path class="b" d="M104.31,339.1v-9.81c0-1.24,0-2.09,0-2.67h1.28c0,.17.05.78.05,1.23a2.11,2.11,0,0,1,2.16-1.37c1.73,0,2.67,1.53,2.67,4.57,0,3.3-1.14,4.86-2.92,4.86a1.92,1.92,0,0,1-1.91-1.09v4.28Zm3.08-11.47c-1.43,0-1.81,1.35-1.81,3.51s.2,3.62,1.72,3.62c1.2,0,1.81-1.4,1.81-3.64S108.57,327.63,107.39,327.63Z"/><path class="b" d="M117.43,334.13c0,.58,0,1.33.07,1.62h-1.2a4.89,4.89,0,0,1-.09-1,2.15,2.15,0,0,1-2.16,1.2,2.36,2.36,0,0,1-2.4-2.64c0-1.66,1.14-2.92,3.53-2.92a6.36,6.36,0,0,1,.95,0v-1.23c0-.7-.14-1.62-1.36-1.62s-1.44,1-1.5,1.59H112a2.49,2.49,0,0,1,2.79-2.65c1.77,0,2.63.85,2.63,2.54Zm-1.28-2.7a5,5,0,0,0-.9-.05c-1.62,0-2.28.77-2.28,1.8a1.45,1.45,0,0,0,1.42,1.62c1.33,0,1.76-1,1.76-2.88Z"/><path class="b" d="M119.61,329.74c0-1.46,0-2.47,0-3.12h1.26c0,.24.05.67.05,1.62a2.5,2.5,0,0,1,2.42-1.76v1.46c-1.57.05-2.4,1-2.4,2.72v5.09h-1.31Z"/><path class="b" d="M124.05,326.62h1.3v-2.43h1.29v2.43h1.61v1.14h-1.61v6c0,.63.15,1,.83,1a4.09,4.09,0,0,0,.65-.05v1a3.66,3.66,0,0,1-1.08.15c-1.06,0-1.69-.43-1.69-1.87v-6.25h-1.3Z"/><path class="b" d="M129.49,329.36c0-1.62,0-2.3,0-2.74h1.28c0,.27.05.74.05,1.17a2.08,2.08,0,0,1,2-1.31,1.76,1.76,0,0,1,1.89,1.35,2.25,2.25,0,0,1,2.21-1.35c1.14,0,2.2.54,2.2,2.65v6.62h-1.3v-6.41c0-.92-.27-1.71-1.29-1.71S135,328.68,135,329.9v5.85h-1.32v-6.37c0-1.12-.38-1.73-1.28-1.73-1.08,0-1.6,1-1.6,2.38v5.72h-1.31Z"/><path class="b" d="M142.18,331.43c0,1.78.3,3.35,1.74,3.35a1.68,1.68,0,0,0,1.66-1.64h1.3a2.89,2.89,0,0,1-3,2.77c-2.69,0-3.07-2.44-3.07-4.73,0-2.88,1-4.7,3.14-4.7,2.41,0,3,2,3,4.25,0,.18,0,.48,0,.7Zm3.45-1c0-1.58-.34-2.8-1.65-2.8-1.68,0-1.77,2.17-1.78,2.8Z"/><path class="b" d="M148.62,329.45c0-1.87,0-2.41,0-2.83h1.28a11.24,11.24,0,0,1,.06,1.19,2.13,2.13,0,0,1,2.16-1.35c1.31,0,2.34.76,2.34,2.79v6.5H153.1V329.5c0-1.11-.36-1.87-1.4-1.87-1.22,0-1.75.81-1.75,2.68v5.44h-1.33Z"/><path class="b" d="M155.46,326.62h1.3v-2.43h1.29v2.43h1.61v1.14h-1.61v6c0,.63.15,1,.83,1a4.09,4.09,0,0,0,.65-.05v1a3.66,3.66,0,0,1-1.08.15c-1.06,0-1.69-.43-1.69-1.87v-6.25h-1.3Z"/><path class="b" d="M170.17,331.09c0,3.2-1.08,4.82-3.13,4.82s-3.16-1.56-3.16-4.8,1.25-4.63,3.21-4.63S170.17,328,170.17,331.09Zm-4.94,0c0,2.47.62,3.66,1.81,3.66s1.78-1.21,1.78-3.67-.58-3.5-1.78-3.5S165.23,328.64,165.23,331.12Z"/><path class="b" d="M172.09,335.75v-8H170.9v-1.14h1.19v-1.26c0-1.35.49-2.54,2.15-2.54a3.21,3.21,0,0,1,.75.11v1.15a3.31,3.31,0,0,0-.61-.07c-.72,0-1,.45-1,1.39v1.22h1.44v1.14h-1.44v8Z"/><path class="b" d="M184.75,329.88h-4.09v4.68h4.54l-.18,1.19h-5.69V323.53H185v1.18h-4.29v4h4.09Z"/><path class="b" d="M192.33,322.93v10.48c0,.88,0,1.8,0,2.34h-1.28c0-.23-.05-.83-.05-1.22a2,2,0,0,1-2.14,1.38c-1.89,0-2.7-1.62-2.7-4.82,0-2.92,1.06-4.61,3-4.61a1.81,1.81,0,0,1,1.85.94v-4.49Zm-3.1,11.81c1.42,0,1.8-1.2,1.8-3.69,0-2.66-.38-3.42-1.69-3.42-1.08,0-1.82,1-1.82,3.48S188.11,334.74,189.23,334.74Z"/><path class="b" d="M200.23,333.25c0,1.15,0,2.07,0,2.5H199a8.6,8.6,0,0,1-.06-1.22,2.11,2.11,0,0,1-2.18,1.38c-1.06,0-2.28-.43-2.28-2.71v-6.58h1.33v6.25c0,1.17.32,1.87,1.37,1.87s1.72-.61,1.72-2.57v-5.55h1.34Z"/><path class="b" d="M207.86,333a2.86,2.86,0,0,1-2.92,3c-2.37,0-3-2.1-3-4.75s.83-4.7,3.15-4.7a2.73,2.73,0,0,1,2.79,2.88h-1.35c0-.36-.15-1.74-1.44-1.74s-1.8,1.44-1.8,3.54c0,2.27.5,3.64,1.73,3.64s1.47-1.33,1.54-1.82Z"/><path class="b" d="M214.72,334.13c0,.58,0,1.33.07,1.62h-1.21a5.65,5.65,0,0,1-.09-1,2.13,2.13,0,0,1-2.16,1.2,2.36,2.36,0,0,1-2.39-2.64c0-1.66,1.13-2.92,3.53-2.92a6.36,6.36,0,0,1,.95,0v-1.23c0-.7-.14-1.62-1.37-1.62s-1.44,1-1.49,1.59H209.3a2.48,2.48,0,0,1,2.79-2.65c1.76,0,2.63.85,2.63,2.54Zm-1.28-2.7a5.1,5.1,0,0,0-.9-.05c-1.62,0-2.29.77-2.29,1.8a1.45,1.45,0,0,0,1.42,1.62c1.34,0,1.77-1,1.77-2.88Z"/><path class="b" d="M215.76,326.62h1.29v-2.43h1.3v2.43H220v1.14h-1.6v6c0,.63.15,1,.83,1a4.09,4.09,0,0,0,.65-.05v1a3.7,3.7,0,0,1-1.08.15c-1.07,0-1.7-.43-1.7-1.87v-6.25h-1.29Z"/><path class="b" d="M221.25,324.82v-1.89h1.33v1.89Zm0,1.8h1.31v9.13h-1.31Z"/><path class="b" d="M230.57,331.09c0,3.2-1.08,4.82-3.13,4.82s-3.15-1.56-3.15-4.8,1.24-4.63,3.21-4.63S230.57,328,230.57,331.09Zm-4.93,0c0,2.47.61,3.66,1.8,3.66s1.78-1.21,1.78-3.67-.57-3.5-1.78-3.5S225.64,328.64,225.64,331.12Z"/><path class="b" d="M232.28,329.45c0-1.87,0-2.41,0-2.83h1.28a11.24,11.24,0,0,1,.06,1.19,2.13,2.13,0,0,1,2.16-1.35c1.31,0,2.34.76,2.34,2.79v6.5h-1.33V329.5c0-1.11-.36-1.87-1.41-1.87-1.22,0-1.74.81-1.74,2.68v5.44h-1.34Z"/><path class="b" d="M247,322.88a13,13,0,0,0-2.3,7.56,13.65,13.65,0,0,0,2.3,7.8h-1.28a13.77,13.77,0,0,1-2.26-7.82,13.2,13.2,0,0,1,2.26-7.54Z"/><path class="b" d="M247.83,335.75v-.09c0-1.47.85-3.1,2.71-5.13,1.51-1.67,2-2.29,2-3.65,0-1.07-.31-2.06-1.55-2.06s-1.62.88-1.68,2.29H248c0-1.73.82-3.39,3-3.39s2.88,1.43,2.88,3.17-.54,2.43-2.13,4.11a9.72,9.72,0,0,0-2.38,3.58h4.85l-.2,1.17Z"/><path class="b" d="M261.53,329.68c0,4.34-.82,6.25-3.11,6.25s-3.13-2.1-3.13-6.26c0-4.52,1.17-5.95,3.18-5.95S261.53,325.4,261.53,329.68Zm-4.89-.05c0,3.4.34,5.17,1.78,5.17s1.78-1.68,1.78-5.13-.43-4.81-1.76-4.81S256.64,326.06,256.64,329.63Z"/><path class="b" d="M264.21,335.75V325.43a5.43,5.43,0,0,1-1.69.51v-1.06a4.6,4.6,0,0,0,2.11-1.07h.9v11.94Z"/><path class="b" d="M268.86,333.41a1.43,1.43,0,0,0,1.49,1.41c1.73,0,1.8-2.81,1.86-4.92a2,2,0,0,1-2,1.21c-1.73,0-2.72-1.28-2.72-3.53,0-2.54,1.17-3.86,3.05-3.86s3,1.19,3,5c0,5.11-.72,7.16-3.22,7.16a2.55,2.55,0,0,1-2.74-2.5Zm-.09-5.92c0,1.44.45,2.5,1.67,2.5s1.73-.94,1.73-2.32-.25-2.83-1.69-2.83C269.4,324.84,268.77,325.72,268.77,327.49Z"/><path class="b" d="M278.62,330.49v1.19h-3.68v-1.19Z"/><path class="b" d="M279.5,335.75v-.09c0-1.47.84-3.1,2.7-5.13,1.51-1.67,2-2.29,2-3.65,0-1.07-.31-2.06-1.55-2.06s-1.62.88-1.68,2.29h-1.29c0-1.73.83-3.39,3-3.39s2.88,1.43,2.88,3.17-.54,2.43-2.13,4.11a9.53,9.53,0,0,0-2.37,3.58h4.84l-.2,1.17Z"/><path class="b" d="M293.2,329.68c0,4.34-.83,6.25-3.12,6.25s-3.13-2.1-3.13-6.26c0-4.52,1.17-5.95,3.18-5.95S293.2,325.4,293.2,329.68Zm-4.9-.05c0,3.4.34,5.17,1.78,5.17s1.78-1.68,1.78-5.13-.43-4.81-1.76-4.81S288.3,326.06,288.3,329.63Z"/><path class="b" d="M294.36,335.75v-.09c0-1.47.85-3.1,2.7-5.13,1.52-1.67,2-2.29,2-3.65,0-1.07-.3-2.06-1.54-2.06s-1.62.88-1.68,2.29h-1.3c0-1.73.83-3.39,3-3.39s2.88,1.43,2.88,3.17-.54,2.43-2.12,4.11a9.72,9.72,0,0,0-2.38,3.58h4.85l-.2,1.17Z"/><path class="b" d="M308.06,329.68c0,4.34-.83,6.25-3.11,6.25s-3.14-2.1-3.14-6.26c0-4.52,1.17-5.95,3.19-5.95S308.06,325.4,308.06,329.68Zm-4.89-.05c0,3.4.34,5.17,1.78,5.17s1.78-1.68,1.78-5.13-.43-4.81-1.77-4.81S303.17,326.06,303.17,329.63Z"/><path class="b" d="M309.34,338.24a13,13,0,0,0,2.3-7.58,13.72,13.72,0,0,0-2.3-7.78h1.28a13.64,13.64,0,0,1,2.25,7.79,13.34,13.34,0,0,1-2.25,7.57Z"/></g><path class="b" d="M21.65,106.31V71.93A18.06,18.06,0,0,1,16,73.61V70.08a15.61,15.61,0,0,0,7-3.54h3v39.77Z"/><path class="b" d="M29.87,113.15a49.55,49.55,0,0,0,3.3-14.46h4.26a38.47,38.47,0,0,1-4,14.46Z"/><path class="b" d="M62.2,86.09c0,14.46-2.76,20.82-10.38,20.82-7.92,0-10.43-7-10.43-20.88C41.39,71,45.29,66.24,52,66.24,59.14,66.24,62.2,71.81,62.2,86.09Zm-16.32-.18c0,11.34,1.14,17.22,5.94,17.22s5.94-5.58,5.94-17.1c0-11.69-1.44-16-5.88-16C47.63,70,45.88,74,45.88,85.91Z"/><path class="b" d="M85.18,66.72v3.54c-5.28,9.42-9.78,23-11.64,36.05H68.92c1.68-12.48,7-27.48,11.82-35.63H65.5v-4Z"/><path class="b" d="M109.12,86.09c0,14.46-2.76,20.82-10.38,20.82-7.92,0-10.44-7-10.44-20.88,0-15.06,3.9-19.79,10.62-19.79C106.06,66.24,109.12,71.81,109.12,86.09ZM92.8,85.91c0,11.34,1.14,17.22,5.94,17.22s5.94-5.58,5.94-17.1c0-11.69-1.44-16-5.88-16C94.54,70,92.8,74,92.8,85.91Z"/><path class="b" d="M110.92,113.15a49.55,49.55,0,0,0,3.3-14.46h4.26a38.47,38.47,0,0,1-4,14.46Z"/><path class="b" d="M122.44,106.31V106c.06-4.92,2.82-10.32,9-17.1,5-5.58,6.6-7.62,6.6-12.18,0-3.54-1-6.84-5.16-6.84-3.78,0-5.4,3-5.58,7.62H123c.06-5.75,2.76-11.27,10-11.27s9.6,4.73,9.6,10.56c0,5.39-1.8,8.09-7.08,13.67-4.74,5.1-7.2,9.18-7.92,11.94h16.14l-.66,3.9Z"/><path class="b" d="M162.82,74.93c-.12-.66-.42-5-4.8-5-6.12,0-6.3,9.48-6.48,14.64a7.67,7.67,0,0,1,7.2-4.14c6.06,0,9.12,4.86,9.12,12.6,0,7.26-2.64,13.92-10.38,13.92-8.58,0-10.38-8.1-10.38-19.44,0-12.83,2.52-21.23,11.1-21.23,7.32,0,8.64,6.11,8.76,8.69Zm.6,18.42c0-5.76-1.56-9.18-5.7-9.18-4.5,0-6.18,3.72-6.18,7.5,0,5.34,1.14,11.58,6,11.58C161.2,103.25,163.42,100,163.42,93.35Z"/><path class="b" d="M193.36,86.09c0,14.46-2.76,20.82-10.38,20.82-7.92,0-10.44-7-10.44-20.88,0-15.06,3.9-19.79,10.62-19.79C190.3,66.24,193.36,71.81,193.36,86.09ZM177,85.91c0,11.34,1.14,17.22,5.94,17.22s5.94-5.58,5.94-17.1c0-11.69-1.44-16-5.88-16C178.78,70,177,74,177,85.91Z"/><path class="b" d="M289.26,106.31V71.94a18.33,18.33,0,0,1-5.64,1.68V70.08a15.41,15.41,0,0,0,7-3.54h3v39.77Z"/><path class="b" d="M297.48,113.15a49.55,49.55,0,0,0,3.3-14.46H305a38.47,38.47,0,0,1-4,14.46Z"/><path class="b" d="M309.12,95.15c0-6.42,3-9,5.1-10.08-2.4-1.38-4.14-4.14-4.14-8.51,0-5.46,3-10.32,9.54-10.32,6.24,0,9.12,4.44,9.12,9.9s-2,7.85-4.2,8.81c2.82,1.26,5.16,4.26,5.16,10.26,0,6.72-3.42,11.64-10.5,11.64C312.36,106.85,309.12,101.81,309.12,95.15Zm16.13,0c0-5.4-1.79-8.16-5.87-8.16-4.44,0-5.88,3.3-5.88,8s1.74,8.16,5.88,8.16S325.25,100.07,325.25,95.15ZM314.4,76.37c0,4.08,1.32,6.9,5.1,6.9,3.24,0,5-2,5-6.84,0-3.53-1.38-6.59-5.1-6.59S314.4,73,314.4,76.37Z"/><path class="b" d="M337.8,106.31V71.94a18.33,18.33,0,0,1-5.64,1.68V70.08a15.41,15.41,0,0,0,7-3.54h3v39.77Z"/><path class="b" d="M367.31,66.72v3.54c-5.28,9.42-9.77,23-11.64,36.05h-4.62c1.69-12.48,7-27.48,11.82-35.63H347.63v-4Z"/><path class="b" d="M232.53,30.42H228.9V28.84h9v1.58h-3.62V45.14h-1.8Z"/><path class="b" d="M245.35,38.92c0,4.27-1.44,6.43-4.18,6.43s-4.2-2.09-4.2-6.41,1.66-6.16,4.27-6.16S245.35,34.82,245.35,38.92Zm-6.58,0c0,3.29.81,4.87,2.4,4.87s2.37-1.61,2.37-4.9c0-3.12-.76-4.65-2.37-4.65S238.77,35.66,238.77,39Z"/><path class="b" d="M246.18,33h1.73V29.73h1.73V33h2.14v1.51h-2.14v8c0,.84.19,1.37,1.1,1.37a4.52,4.52,0,0,0,.87-.08v1.37a4.76,4.76,0,0,1-1.44.19c-1.42,0-2.26-.57-2.26-2.49V34.48h-1.73Z"/><path class="b" d="M260.51,43c0,.76.05,1.77.1,2.16H259a7.43,7.43,0,0,1-.12-1.4A2.84,2.84,0,0,1,256,45.35c-2.35,0-3.19-1.82-3.19-3.53,0-2.2,1.51-3.88,4.7-3.88a11.29,11.29,0,0,1,1.27,0V36.35c0-.93-.19-2.16-1.82-2.16-1.8,0-1.92,1.3-2,2.11h-1.68c.05-1.75.86-3.52,3.72-3.52,2.35,0,3.5,1.12,3.5,3.38Zm-1.7-3.6a6.84,6.84,0,0,0-1.2-.08c-2.16,0-3.05,1-3.05,2.4a1.92,1.92,0,0,0,1.9,2.16c1.77,0,2.35-1.27,2.35-3.84Z"/><path class="b" d="M263.42,45.14V28.05h1.75V45.14Z"/><path class="b" d="M272.63,36.74c0-2.5,0-3.22,0-3.77h1.7c0,.29.07.77.07,1.58a2.88,2.88,0,0,1,2.88-1.8c1.76,0,3.12,1,3.12,3.72v8.67h-1.77V36.81c0-1.49-.48-2.5-1.87-2.5-1.64,0-2.33,1.08-2.33,3.58v7.25h-1.78Z"/><path class="b" d="M290.92,41.8c0,1.54,0,2.76,0,3.34h-1.68a14.69,14.69,0,0,1-.07-1.64,2.8,2.8,0,0,1-2.9,1.85c-1.42,0-3.05-.57-3.05-3.62V33H285V41.3c0,1.56.43,2.49,1.82,2.49s2.3-.81,2.3-3.43V33h1.78Z"/><path class="b" d="M293.66,36.62c0-2.17,0-3.08,0-3.65h1.7a13.16,13.16,0,0,1,.08,1.56,2.76,2.76,0,0,1,2.71-1.75,2.33,2.33,0,0,1,2.52,1.8,3,3,0,0,1,2.95-1.8c1.51,0,2.93.71,2.93,3.52v8.84h-1.73V36.59c0-1.22-.36-2.28-1.73-2.28-1.53,0-2.06,1.39-2.06,3v7.8h-1.75v-8.5c0-1.49-.51-2.3-1.71-2.3-1.44,0-2.13,1.32-2.13,3.16v7.64h-1.75Z"/><path class="b" d="M309.42,28.05h1.75v6.53a2.91,2.91,0,0,1,2.91-1.8c2.33,0,3.55,1.94,3.55,6,0,3.75-1,6.58-3.89,6.58a2.6,2.6,0,0,1-2.64-1.63c0,.4,0,1-.05,1.44H309.4c0-.65,0-1.85,0-3.34Zm4.18,6.26c-1.87,0-2.5,1.68-2.5,4.78,0,2.9.48,4.7,2.33,4.7,1.61,0,2.4-1.58,2.4-5C315.83,35.73,315.13,34.31,313.6,34.31Z"/><path class="b" d="M321.11,39.38c0,2.37.41,4.46,2.33,4.46a2.23,2.23,0,0,0,2.21-2.18h1.73a3.87,3.87,0,0,1-4,3.69c-3.58,0-4.09-3.26-4.09-6.31,0-3.84,1.32-6.26,4.18-6.26,3.22,0,4,2.61,4,5.66,0,.24,0,.65,0,.94ZM325.72,38c0-2.11-.46-3.75-2.21-3.75-2.23,0-2.35,2.91-2.38,3.75Z"/><path class="b" d="M329.7,37.12c0-1.94,0-3.29,0-4.15h1.68c0,.31.07.89.07,2.16a3.3,3.3,0,0,1,3.22-2.35v1.94c-2.09.07-3.2,1.39-3.2,3.62v6.8H329.7Z"/><path class="b" d="M348.69,38.92c0,4.27-1.44,6.43-4.18,6.43s-4.2-2.09-4.2-6.41,1.66-6.16,4.27-6.16S348.69,34.82,348.69,38.92Zm-6.58,0c0,3.29.82,4.87,2.4,4.87s2.38-1.61,2.38-4.9c0-3.12-.77-4.65-2.38-4.65S342.11,35.66,342.11,39Z"/><path class="b" d="M351.25,45.14V34.48h-1.58V33h1.58V31.29c0-1.8.65-3.39,2.86-3.39a3.71,3.71,0,0,1,1,.15v1.53a3.8,3.8,0,0,0-.82-.09c-1,0-1.29.6-1.29,1.84V33h1.92v1.51H353V45.14Z"/><path class="b" d="M361.6,41.63c.07,1.3.74,2.28,2.13,2.28a1.77,1.77,0,0,0,2-1.92c0-1.25-.62-1.82-2.23-2.45-2.52-1-3.24-1.87-3.24-3.57a3.12,3.12,0,0,1,3.48-3.22,3.2,3.2,0,0,1,3.5,3.48h-1.7c-.05-.6-.17-2-1.85-2A1.54,1.54,0,0,0,362,35.87c0,1,.43,1.44,2.11,2.11,2.36.89,3.39,1.76,3.39,3.84,0,2.24-1.39,3.53-3.82,3.53a3.47,3.47,0,0,1-3.81-3.72Z"/><path class="b" d="M376.93,41.42c0,.64-.31,3.93-3.88,3.93-3.17,0-4-2.81-4-6.33s1.11-6.27,4.2-6.27c3.53,0,3.7,3.27,3.72,3.84h-1.8c0-.48-.19-2.33-1.92-2.33s-2.4,1.92-2.4,4.73c0,3,.68,4.85,2.31,4.85s2-1.78,2.06-2.42Z"/><path class="b" d="M380.8,28.05v6.4a2.88,2.88,0,0,1,2.9-1.7c1.78,0,3.07,1.13,3.07,3.72v8.67H385V36.83c0-1.49-.43-2.52-1.92-2.52-1.68,0-2.28,1.39-2.28,3.51v7.32H379V28.05Z"/><path class="b" d="M397.38,38.92c0,4.27-1.44,6.43-4.17,6.43S389,43.26,389,38.94s1.66-6.16,4.28-6.16S397.38,34.82,397.38,38.92Zm-6.58,0c0,3.29.82,4.87,2.41,4.87s2.37-1.61,2.37-4.9c0-3.12-.77-4.65-2.37-4.65S390.8,35.66,390.8,39Z"/><path class="b" d="M407.51,38.92c0,4.27-1.44,6.43-4.18,6.43s-4.2-2.09-4.2-6.41,1.66-6.16,4.27-6.16S407.51,34.82,407.51,38.92Zm-6.58,0c0,3.29.82,4.87,2.4,4.87s2.38-1.61,2.38-4.9c0-3.12-.77-4.65-2.38-4.65S400.93,35.66,400.93,39Z"/><path class="b" d="M409.79,45.14V28.05h1.75V45.14Z"/><path class="b" d="M415.28,41.63c.08,1.3.75,2.28,2.14,2.28a1.77,1.77,0,0,0,2-1.92c0-1.25-.63-1.82-2.23-2.45-2.52-1-3.24-1.87-3.24-3.57a3.12,3.12,0,0,1,3.48-3.22,3.2,3.2,0,0,1,3.5,3.48h-1.7c-.05-.6-.17-2-1.85-2a1.54,1.54,0,0,0-1.68,1.68c0,1,.43,1.44,2.11,2.11,2.35.89,3.38,1.76,3.38,3.84,0,2.24-1.39,3.53-3.81,3.53a3.48,3.48,0,0,1-3.82-3.72Z"/><path class="b" d="M1.61,187.58v-16.3H3.82C8.33,182.57,9,184.1,9.17,184.8h0c-.12-2.19-.14-4.63-.14-7.3v-6.22h1.68v16.3H8.62c-4.68-11.86-5.26-13.34-5.45-14h0c.12,2,.15,4.7.15,7.63v6.36Z"/><path class="b" d="M21.12,184.25c0,1.53,0,2.76,0,3.33H19.46a14.61,14.61,0,0,1-.07-1.63,2.82,2.82,0,0,1-2.9,1.85c-1.42,0-3-.58-3-3.63v-8.76h1.78v8.33c0,1.56.43,2.5,1.82,2.5s2.3-.82,2.3-3.43v-7.4h1.78Z"/><path class="b" d="M23.86,179.06c0-2.16,0-3.07,0-3.65h1.71c0,.36.07,1,.07,1.56a2.78,2.78,0,0,1,2.71-1.75,2.34,2.34,0,0,1,2.52,1.8,3,3,0,0,1,2.95-1.8c1.51,0,2.93.72,2.93,3.53v8.83H35V179c0-1.23-.36-2.28-1.73-2.28-1.53,0-2.06,1.39-2.06,3v7.8H29.45v-8.49c0-1.49-.51-2.31-1.71-2.31-1.44,0-2.13,1.32-2.13,3.17v7.63H23.86Z"/><path class="b" d="M39.62,170.49h1.76V177a2.89,2.89,0,0,1,2.9-1.8c2.33,0,3.55,1.95,3.55,6,0,3.74-1,6.57-3.89,6.57a2.59,2.59,0,0,1-2.64-1.63c0,.41,0,1,0,1.44H39.6c0-.65,0-1.85,0-3.33Zm4.18,6.27c-1.87,0-2.5,1.68-2.5,4.77,0,2.91.48,4.71,2.33,4.71,1.61,0,2.4-1.59,2.4-5C46,178.17,45.34,176.76,43.8,176.76Z"/><path class="b" d="M51.31,181.82c0,2.38.41,4.47,2.33,4.47a2.23,2.23,0,0,0,2.21-2.19h1.73a3.86,3.86,0,0,1-4,3.7c-3.58,0-4.08-3.27-4.08-6.31,0-3.84,1.32-6.27,4.17-6.27,3.22,0,4,2.62,4,5.67,0,.24,0,.64,0,.93Zm4.61-1.37c0-2.11-.46-3.74-2.21-3.74-2.23,0-2.35,2.9-2.37,3.74Z"/><path class="b" d="M59.9,179.57c0-1.95,0-3.29,0-4.16h1.68c0,.31.07.89.07,2.16a3.34,3.34,0,0,1,3.22-2.35v1.95c-2.09.07-3.19,1.39-3.19,3.62v6.79H59.9Z"/><path class="b" d="M78.89,181.37c0,4.27-1.44,6.43-4.18,6.43s-4.2-2.09-4.2-6.41,1.66-6.17,4.27-6.17S78.89,177.26,78.89,181.37Zm-6.58,0c0,3.29.82,4.88,2.4,4.88s2.38-1.61,2.38-4.9c0-3.12-.77-4.66-2.38-4.66S72.31,178.1,72.31,181.41Z"/><path class="b" d="M81.45,187.58V176.93H79.87v-1.52h1.58v-1.68c0-1.8.65-3.38,2.86-3.38a4.17,4.17,0,0,1,1,.14V172a3.75,3.75,0,0,0-.82-.1c-1,0-1.29.6-1.29,1.85v1.63h1.92v1.52H83.21v10.65Z"/><path class="b" d="M91.8,184.08a2.11,2.11,0,0,0,2.14,2.28,1.76,1.76,0,0,0,2-1.92c0-1.25-.62-1.83-2.23-2.45-2.52-1-3.24-1.87-3.24-3.58a3.12,3.12,0,0,1,3.48-3.21,3.21,3.21,0,0,1,3.51,3.48H95.71c0-.6-.17-2-1.85-2a1.54,1.54,0,0,0-1.68,1.68c0,1,.43,1.44,2.12,2.11,2.35.89,3.38,1.75,3.38,3.84s-1.39,3.53-3.82,3.53a3.47,3.47,0,0,1-3.81-3.72Z"/><path class="b" d="M98.49,175.41h1.73v-3.24H102v3.24h2.14v1.52H102v8c0,.84.19,1.37,1.11,1.37a4.54,4.54,0,0,0,.86-.07v1.37a5.09,5.09,0,0,1-1.44.19c-1.42,0-2.26-.58-2.26-2.5v-8.32H98.49Z"/><path class="b" d="M113.26,184.25c0,1.53,0,2.76,0,3.33H111.6a12.48,12.48,0,0,1-.07-1.63,2.84,2.84,0,0,1-2.91,1.85c-1.41,0-3.05-.58-3.05-3.63v-8.76h1.78v8.33c0,1.56.43,2.5,1.83,2.5s2.3-.82,2.3-3.43v-7.4h1.78Z"/><path class="b" d="M123.72,170.49v14c0,1.18,0,2.4,0,3.12H122c0-.31-.07-1.1-.07-1.63a2.67,2.67,0,0,1-2.86,1.85c-2.52,0-3.6-2.16-3.6-6.43,0-3.89,1.42-6.15,4-6.15a2.42,2.42,0,0,1,2.48,1.25v-6Zm-4.13,15.75c1.9,0,2.4-1.61,2.4-4.92,0-3.55-.5-4.56-2.26-4.56-1.44,0-2.42,1.27-2.42,4.63S118.1,186.24,119.59,186.24Z"/><path class="b" d="M127.77,181.82c0,2.38.41,4.47,2.33,4.47a2.23,2.23,0,0,0,2.21-2.19H134a3.85,3.85,0,0,1-4,3.7c-3.58,0-4.08-3.27-4.08-6.31,0-3.84,1.32-6.27,4.18-6.27,3.21,0,4,2.62,4,5.67,0,.24,0,.64,0,.93Zm4.61-1.37c0-2.11-.45-3.74-2.2-3.74-2.24,0-2.36,2.9-2.38,3.74Z"/><path class="b" d="M136.37,179.18c0-2.49,0-3.21,0-3.77h1.71c0,.29.07.77.07,1.59a2.85,2.85,0,0,1,2.88-1.8c1.75,0,3.12,1,3.12,3.72v8.66h-1.78v-8.33c0-1.48-.48-2.49-1.87-2.49-1.63,0-2.33,1.08-2.33,3.57v7.25h-1.77Z"/><path class="b" d="M145.49,175.41h1.72v-3.24h1.73v3.24h2.14v1.52h-2.14v8c0,.84.19,1.37,1.11,1.37a4.54,4.54,0,0,0,.86-.07v1.37a5.09,5.09,0,0,1-1.44.19c-1.42,0-2.26-.58-2.26-2.5v-8.32h-1.72Z"/></svg>