<svg xmlns="http://www.w3.org/2000/svg" viewBox="0 0 455.65 421.33"><defs><style>.a,.i{fill:none;}.b{opacity:0.8;}.c{fill:#fff;}.d{fill:#9d00c6;}.e{fill:#469fe7;}.f{fill:#f9d423;}.g{fill:#00ecbc;}.h{fill:#bfbfbf;}.i{stroke:#fff;stroke-miterlimit:10;stroke-width:0.25px;}</style></defs><rect class="a" x="0.02" width="455.63" height="421.33"/><g class="b"><path class="c" d="M1.35,392.23c.09,1.4.81,2.48,2.3,2.48s2.22-.72,2.22-2.45c0-1.45-.54-2.21-2.29-3.06S.92,387.51.92,385.76a2.7,2.7,0,0,1,2.83-2.86c2.1,0,2.71,1.59,2.75,2.94H5.71c-.06-.54-.24-2.2-2-2.2a1.84,1.84,0,0,0-1.94,2c0,1.37.59,2,2.19,2.78,2.11,1,2.78,2.07,2.78,3.76,0,1.94-1,3.24-3.08,3.24-2.24,0-3-1.48-3.12-3.22Z"/><path class="c" d="M14,390.68c0,3.1-1,4.79-2.89,4.79s-2.92-1.64-2.92-4.77,1.13-4.54,2.95-4.54S14,387.65,14,390.68Zm-5,0c0,2.79.79,4,2.09,4s2.08-1.28,2.08-4.07c0-2.5-.73-3.8-2.08-3.8S9,387.94,9,390.72Z"/><path class="c" d="M21.15,393c0,1,0,1.94,0,2.36h-.74a11.34,11.34,0,0,1-.05-1.35,2.18,2.18,0,0,1-2.24,1.51c-.9,0-2.25-.29-2.25-2.68V386.3h.8v6.27c0,1.33.41,2.18,1.64,2.18s2-.74,2-3V386.3h.79Z"/><path class="c" d="M23.47,389.38c0-1.4,0-2.43,0-3.08h.76c0,.27,0,.72,0,1.68a2.56,2.56,0,0,1,2.39-1.8V387c-1.58.09-2.39,1.43-2.39,3.05v5.24h-.78Z"/><path class="c" d="M32.85,392.75a2.72,2.72,0,0,1-2.66,2.72c-2.2,0-2.83-2.09-2.83-4.66s.85-4.65,2.95-4.65a2.53,2.53,0,0,1,2.54,2.67H32c0-.38-.18-1.95-1.71-1.95s-2.12,1.68-2.12,3.91c0,2.43.61,4,2,4s1.75-1.55,1.82-2Z"/><path class="c" d="M35,390.84c0,2.18.4,3.91,2,3.91s1.87-1.64,1.93-1.89h.79A2.77,2.77,0,0,1,37,395.47c-2.49,0-2.83-2.41-2.83-4.63,0-2.84.9-4.68,2.92-4.68,2.19,0,2.7,1.95,2.7,4.12,0,.08,0,.31,0,.56Zm4-.7c0-2-.49-3.26-1.93-3.26-2,0-2,2.67-2.07,3.26Z"/><path class="c" d="M2.72,405.87H0v-1.19H6.79v1.19H4.07v11H2.72Z"/><path class="c" d="M9.11,404.09v4.8a2.16,2.16,0,0,1,2.18-1.27c1.33,0,2.3.84,2.3,2.79v6.5H12.26v-6.23c0-1.12-.32-1.89-1.44-1.89s-1.71,1-1.71,2.63v5.49H7.78V404.09Z"/><path class="c" d="M16.6,412.59c0,1.78.3,3.34,1.74,3.34A1.67,1.67,0,0,0,20,414.3h1.3a2.89,2.89,0,0,1-3,2.77c-2.69,0-3.07-2.45-3.07-4.74,0-2.88,1-4.7,3.14-4.7,2.41,0,3,2,3,4.25,0,.18,0,.49,0,.71Zm3.45-1c0-1.59-.34-2.81-1.65-2.81-1.68,0-1.77,2.18-1.79,2.81Z"/><path class="c" d="M27.2,413.7c.11,1.24.7,2.25,2.05,2.25s1.93-.7,1.93-2.1-.52-2-2.2-2.78c-1.91-.92-2.75-1.76-2.75-3.53a2.86,2.86,0,0,1,3.07-3c2.36,0,3,1.69,3,3.11H31c-.07-.57-.25-2-1.76-2a1.59,1.59,0,0,0-1.67,1.78c0,1.17.52,1.73,2.05,2.45,2.14,1,2.92,2.05,2.92,3.87a3.07,3.07,0,0,1-3.34,3.33c-2.44,0-3.25-1.6-3.34-3.37Z"/><path class="c" d="M39.85,414.12a2.85,2.85,0,0,1-2.91,2.95c-2.38,0-3-2.11-3-4.75s.83-4.7,3.15-4.7a2.72,2.72,0,0,1,2.79,2.88H38.5c0-.36-.14-1.75-1.44-1.75s-1.8,1.44-1.8,3.55c0,2.27.51,3.63,1.73,3.63s1.48-1.33,1.55-1.81Z"/><path class="c" d="M42.75,404.09v4.8a2.16,2.16,0,0,1,2.18-1.27c1.33,0,2.3.84,2.3,2.79v6.5H45.9v-6.23c0-1.12-.32-1.89-1.44-1.89s-1.71,1-1.71,2.63v5.49H41.42V404.09Z"/><path class="c" d="M55.19,412.24c0,3.21-1.08,4.83-3.13,4.83s-3.15-1.57-3.15-4.81,1.24-4.63,3.2-4.63S55.19,409.16,55.19,412.24Zm-4.93,0c0,2.47.61,3.65,1.8,3.65s1.78-1.2,1.78-3.67-.58-3.49-1.78-3.49S50.26,409.79,50.26,412.28Z"/><path class="c" d="M62.79,412.24c0,3.21-1.08,4.83-3.14,4.83s-3.15-1.57-3.15-4.81,1.25-4.63,3.21-4.63S62.79,409.16,62.79,412.24Zm-4.94,0c0,2.47.61,3.65,1.8,3.65s1.79-1.2,1.79-3.67-.58-3.49-1.79-3.49S57.85,409.79,57.85,412.28Z"/><path class="c" d="M64.49,416.91V404.09h1.32v12.82Z"/><path class="c" d="M77.91,413.52c-.06.7-.37,3.57-3.34,3.57-3.25,0-3.51-3.44-3.51-6.38,0-3.56,1-6.21,3.66-6.21,3,0,3.11,2.76,3.15,3.51H76.52c0-.41-.11-2.3-1.82-2.3-1.93,0-2.23,2.63-2.23,5,0,2.58.29,5.19,2.14,5.19,1.64,0,1.87-1.77,1.93-2.38Z"/><path class="c" d="M85.48,412.24c0,3.21-1.08,4.83-3.13,4.83s-3.15-1.57-3.15-4.81,1.24-4.63,3.2-4.63S85.48,409.16,85.48,412.24Zm-4.93,0c0,2.47.61,3.65,1.8,3.65s1.78-1.2,1.78-3.67-.57-3.49-1.78-3.49S80.55,409.79,80.55,412.28Z"/><path class="c" d="M87.19,410.61c0-1.88,0-2.42,0-2.83h1.28a11.88,11.88,0,0,1,0,1.19,2.14,2.14,0,0,1,2.17-1.35c1.31,0,2.34.75,2.34,2.79v6.5H91.67v-6.25c0-1.12-.36-1.87-1.4-1.87-1.23,0-1.75.81-1.75,2.68v5.44H87.19Z"/><path class="c" d="M95.81,414.28c.06,1,.56,1.71,1.61,1.71a1.33,1.33,0,0,0,1.47-1.44c0-.94-.47-1.37-1.67-1.84-1.89-.72-2.43-1.4-2.43-2.68a2.33,2.33,0,0,1,2.61-2.41,2.4,2.4,0,0,1,2.63,2.61H98.75c0-.45-.13-1.53-1.39-1.53A1.16,1.16,0,0,0,96.1,410c0,.73.32,1.08,1.58,1.58,1.77.67,2.54,1.32,2.54,2.88s-1,2.65-2.86,2.65a2.61,2.61,0,0,1-2.86-2.79Z"/><path class="c" d="M100.83,407.78h1.3v-2.43h1.3v2.43H105v1.13h-1.6v6c0,.63.14,1,.83,1a3.1,3.1,0,0,0,.64-.06v1a3.6,3.6,0,0,1-1.08.14c-1.06,0-1.69-.43-1.69-1.87v-6.25h-1.3Z"/><path class="c" d="M106.27,410.89c0-1.46,0-2.46,0-3.11h1.26c0,.23.06.66.06,1.62a2.5,2.5,0,0,1,2.41-1.77v1.46c-1.57.06-2.4,1.05-2.4,2.72v5.1h-1.31Z"/><path class="c" d="M116.91,414.4c0,1.16,0,2.07,0,2.51h-1.26a8.67,8.67,0,0,1-.06-1.23,2.11,2.11,0,0,1-2.18,1.39c-1.06,0-2.28-.43-2.28-2.72v-6.57h1.33V414c0,1.17.32,1.87,1.37,1.87s1.73-.61,1.73-2.58v-5.54h1.33Z"/><path class="c" d="M124.54,414.12a2.85,2.85,0,0,1-2.91,2.95c-2.38,0-3-2.11-3-4.75s.83-4.7,3.15-4.7a2.72,2.72,0,0,1,2.79,2.88h-1.35c0-.36-.14-1.75-1.44-1.75s-1.8,1.44-1.8,3.55c0,2.27.5,3.63,1.73,3.63s1.48-1.33,1.55-1.81Z"/><path class="c" d="M125.33,407.78h1.3v-2.43h1.29v2.43h1.61v1.13h-1.61v6c0,.63.15,1,.83,1a3.13,3.13,0,0,0,.65-.06v1a3.64,3.64,0,0,1-1.08.14c-1.06,0-1.69-.43-1.69-1.87v-6.25h-1.3Z"/><path class="c" d="M130.82,406v-1.89h1.33V406Zm0,1.8h1.32v9.13h-1.32Z"/><path class="c" d="M140.15,412.24c0,3.21-1.08,4.83-3.14,4.83s-3.15-1.57-3.15-4.81,1.25-4.63,3.21-4.63S140.15,409.16,140.15,412.24Zm-4.94,0c0,2.47.62,3.65,1.8,3.65s1.79-1.2,1.79-3.67-.58-3.49-1.79-3.49S135.21,409.79,135.21,412.28Z"/><path class="c" d="M141.86,410.61c0-1.88,0-2.42,0-2.83h1.28c0,.21,0,.57,0,1.19a2.14,2.14,0,0,1,2.16-1.35c1.32,0,2.34.75,2.34,2.79v6.5h-1.33v-6.25c0-1.12-.36-1.87-1.41-1.87-1.22,0-1.74.81-1.74,2.68v5.44h-1.33Z"/><path class="c" d="M154.6,413l-.9,3.87h-1.33l2.95-12.23h1.75l3,12.23h-1.44l-.9-3.87Zm2.9-1.21c-.7-3-1.17-4.92-1.33-5.89h0c-.18,1.06-.67,3.26-1.28,5.89Z"/><path class="c" d="M167,414.4c0,1.16,0,2.07,0,2.51h-1.26a8.67,8.67,0,0,1-.06-1.23,2.11,2.11,0,0,1-2.18,1.39c-1.06,0-2.28-.43-2.28-2.72v-6.57h1.33V414c0,1.17.33,1.87,1.37,1.87s1.73-.61,1.73-2.58v-5.54H167Z"/><path class="c" d="M168.21,407.78h1.29v-2.43h1.3v2.43h1.6v1.13h-1.6v6c0,.63.14,1,.83,1a3.27,3.27,0,0,0,.65-.06v1a3.69,3.69,0,0,1-1.08.14c-1.07,0-1.7-.43-1.7-1.87v-6.25h-1.29Z"/><path class="c" d="M175,404.09v4.8a2.16,2.16,0,0,1,2.18-1.27c1.33,0,2.31.84,2.31,2.79v6.5h-1.34v-6.23c0-1.12-.32-1.89-1.44-1.89s-1.71,1-1.71,2.63v5.49h-1.33V404.09Z"/><path class="c" d="M187.43,412.24c0,3.21-1.08,4.83-3.13,4.83s-3.15-1.57-3.15-4.81,1.24-4.63,3.2-4.63S187.43,409.16,187.43,412.24Zm-4.93,0c0,2.47.61,3.65,1.8,3.65s1.78-1.2,1.78-3.67-.57-3.49-1.78-3.49S182.5,409.79,182.5,412.28Z"/><path class="c" d="M189.14,410.89c0-1.46,0-2.46,0-3.11h1.26c0,.23.06.66.06,1.62a2.5,2.5,0,0,1,2.41-1.77v1.46c-1.57.06-2.39,1.05-2.39,2.72v5.1h-1.32Z"/><path class="c" d="M194.05,406v-1.89h1.34V406Zm0,1.8h1.32v9.13h-1.32Z"/><path class="c" d="M196.59,407.78h1.3v-2.43h1.3v2.43h1.6v1.13h-1.6v6c0,.63.14,1,.82,1a3.13,3.13,0,0,0,.65-.06v1a3.6,3.6,0,0,1-1.08.14c-1.06,0-1.69-.43-1.69-1.87v-6.25h-1.3Z"/><path class="c" d="M203,407.78c1,3.82,1.73,6.55,1.86,7.52h0c.18-1,1-4.17,1.88-7.52h1.35l-2.67,9.6c-.74,2.66-1.44,3-2.73,3a4.8,4.8,0,0,1-.67,0v-1.17l.61,0c1,0,1.23-.65,1.59-2.1l-2.69-9.33Z"/><path class="c" d="M209.39,408.34l-.13-2.7v-1.55h1.26v1.56l-.12,2.69Z"/><path class="c" d="M212.68,414.28c.06,1,.56,1.71,1.61,1.71a1.33,1.33,0,0,0,1.47-1.44c0-.94-.47-1.37-1.67-1.84-1.89-.72-2.43-1.4-2.43-2.68a2.33,2.33,0,0,1,2.61-2.41,2.4,2.4,0,0,1,2.63,2.61h-1.28c0-.45-.13-1.53-1.39-1.53A1.16,1.16,0,0,0,213,410c0,.73.33,1.08,1.59,1.58,1.76.67,2.53,1.32,2.53,2.88s-1,2.65-2.86,2.65a2.61,2.61,0,0,1-2.86-2.79Z"/><path class="c" d="M225.48,404a13,13,0,0,0-2.3,7.57,13.62,13.62,0,0,0,2.3,7.79H224.2a13.75,13.75,0,0,1-2.27-7.81A13.23,13.23,0,0,1,224.2,404Z"/><path class="c" d="M227.64,413.7c.11,1.24.7,2.25,2.06,2.25s1.92-.7,1.92-2.1-.52-2-2.2-2.78c-1.9-.92-2.75-1.76-2.75-3.53a2.87,2.87,0,0,1,3.08-3c2.36,0,3,1.69,3,3.11h-1.31c-.07-.57-.25-2-1.76-2a1.6,1.6,0,0,0-1.68,1.78c0,1.17.52,1.73,2,2.45,2.15,1,2.92,2.05,2.92,3.87a3.06,3.06,0,0,1-3.33,3.33c-2.45,0-3.26-1.6-3.35-3.37Z"/><path class="c" d="M241.16,413.52c0,.7-.36,3.57-3.33,3.57-3.26,0-3.51-3.44-3.51-6.38,0-3.56,1-6.21,3.66-6.21,3,0,3.11,2.76,3.15,3.51h-1.35c0-.41-.11-2.3-1.82-2.3-1.93,0-2.24,2.63-2.24,5,0,2.58.29,5.19,2.15,5.19,1.64,0,1.87-1.77,1.92-2.38Z"/><path class="c" d="M244.27,413l-.9,3.87H242l3-12.23h1.75l3,12.23h-1.44l-.9-3.87Zm2.9-1.21c-.7-3-1.17-4.92-1.33-5.89h0c-.18,1.06-.66,3.26-1.27,5.89Z"/><path class="c" d="M250.66,419.39a13,13,0,0,0,2.31-7.58,13.77,13.77,0,0,0-2.31-7.78h1.28a13.6,13.6,0,0,1,2.25,7.8,13.26,13.26,0,0,1-2.25,7.56Z"/><path class="c" d="M265.44,412.24c0,3.21-1.08,4.83-3.13,4.83s-3.15-1.57-3.15-4.81,1.24-4.63,3.2-4.63S265.44,409.16,265.44,412.24Zm-4.93,0c0,2.47.61,3.65,1.8,3.65s1.78-1.2,1.78-3.67-.57-3.49-1.78-3.49S260.51,409.79,260.51,412.28Z"/><path class="c" d="M267.37,416.91v-8h-1.19v-1.13h1.19v-1.26c0-1.35.48-2.54,2.14-2.54a2.84,2.84,0,0,1,.76.11v1.15a2.72,2.72,0,0,0-.62-.07c-.72,0-1,.45-1,1.38v1.23h1.44v1.13h-1.44v8Z"/><path class="c" d="M274.6,416.91V404.68h1.66c3.38,8.46,3.85,9.62,4,10.14h0c-.09-1.64-.11-3.48-.11-5.48v-4.66h1.26v12.23h-1.58c-3.51-8.9-3.94-10-4.09-10.5h0c.09,1.53.11,3.53.11,5.73v4.77Z"/><path class="c" d="M284.61,412.59c0,1.78.31,3.34,1.75,3.34A1.66,1.66,0,0,0,288,414.3h1.3a2.89,2.89,0,0,1-3,2.77c-2.68,0-3.06-2.45-3.06-4.74,0-2.88,1-4.7,3.13-4.7,2.41,0,3,2,3,4.25,0,.18,0,.49,0,.71Zm3.46-1c0-1.59-.35-2.81-1.66-2.81-1.67,0-1.76,2.18-1.78,2.81Z"/><path class="c" d="M291.65,407.78c.88,4.32,1.31,6.41,1.48,7.65h0c.18-1.19.56-2.61,1.69-7.65h1.27c1.06,4.79,1.47,6.62,1.6,7.61h0c.14-1,.48-2.62,1.53-7.61h1.35l-2.24,9.13H297c-.65-3-1.33-6-1.55-7.37h0c-.16,1.35-.82,4-1.62,7.37h-1.44l-2.09-9.13Z"/><path class="c" d="M307.29,416.91v-4.67a.78.78,0,0,0-.07-.3l-3.12-7.26h1.52c.82,2.07,2,4.93,2.37,6.05.43-1.19,1.62-4.09,2.41-6.05h1.43l-3.14,7.26a.8.8,0,0,0-.07.32v4.65Z"/><path class="c" d="M317.51,412.24c0,3.21-1.08,4.83-3.13,4.83s-3.15-1.57-3.15-4.81,1.24-4.63,3.21-4.63S317.51,409.16,317.51,412.24Zm-4.93,0c0,2.47.61,3.65,1.8,3.65s1.78-1.2,1.78-3.67-.57-3.49-1.78-3.49S312.58,409.79,312.58,412.28Z"/><path class="c" d="M319.22,410.89c0-1.46,0-2.46,0-3.11h1.25c0,.23.06.66.06,1.62a2.5,2.5,0,0,1,2.41-1.77v1.46c-1.56.06-2.39,1.05-2.39,2.72v5.1h-1.32Z"/><path class="c" d="M325.5,412.08c.6-.9,2.15-3.06,3-4.3h1.45c-.81,1.15-1.67,2.32-2.52,3.47l2.79,5.66h-1.51l-2.18-4.59c-.25.34-.73,1-1,1.35v3.24h-1.31V404.09h1.31Z"/><path class="c" d="M341.06,413.52c-.06.7-.36,3.57-3.33,3.57-3.26,0-3.51-3.44-3.51-6.38,0-3.56.95-6.21,3.65-6.21,2.95,0,3.12,2.76,3.15,3.51h-1.35c0-.41-.11-2.3-1.82-2.3-1.92,0-2.23,2.63-2.23,5,0,2.58.29,5.19,2.14,5.19,1.64,0,1.88-1.77,1.93-2.38Z"/><path class="c" d="M342.75,406v-1.89h1.33V406Zm0,1.8h1.31v9.13h-1.31Z"/><path class="c" d="M345.29,407.78h1.29v-2.43h1.3v2.43h1.6v1.13h-1.6v6c0,.63.14,1,.83,1a3.27,3.27,0,0,0,.65-.06v1a3.71,3.71,0,0,1-1.09.14c-1.06,0-1.69-.43-1.69-1.87v-6.25h-1.29Z"/><path class="c" d="M351.67,407.78c1,3.82,1.73,6.55,1.86,7.52h0c.18-1,1-4.17,1.87-7.52h1.35l-2.66,9.6c-.74,2.66-1.44,3-2.74,3a4.8,4.8,0,0,1-.67,0v-1.17l.62,0c.95,0,1.22-.65,1.58-2.1l-2.68-9.33Z"/></g><path class="c" d="M10.12,19.48c-.07.94-.48,4.75-4.44,4.75C1.34,24.23,1,19.65,1,15.74,1,11,2.27,7.46,5.87,7.46c3.94,0,4.16,3.67,4.2,4.68H8.27c0-.56-.14-3.08-2.42-3.08-2.57,0-3,3.51-3,6.68,0,3.43.39,6.91,2.86,6.91,2.18,0,2.5-2.35,2.57-3.17Z"/><path class="c" d="M19.51,21.83c0,.77,0,1.78.09,2.16H18a7.24,7.24,0,0,1-.12-1.39A2.83,2.83,0,0,1,15,24.21c-2.35,0-3.19-1.83-3.19-3.53,0-2.21,1.51-3.89,4.71-3.89a9.12,9.12,0,0,1,1.27.05V15.21c0-.94-.19-2.16-1.83-2.16-1.8,0-1.92,1.29-2,2.11H12.28c.05-1.75.87-3.53,3.72-3.53,2.35,0,3.51,1.13,3.51,3.39Zm-1.71-3.6a7,7,0,0,0-1.2-.07c-2.16,0-3.05,1-3.05,2.4a1.92,1.92,0,0,0,1.9,2.16c1.78,0,2.35-1.27,2.35-3.84Z"/><path class="c" d="M22.41,28.46V15.38c0-1.66,0-2.79,0-3.56h1.71c0,.22.07,1,.07,1.64A2.79,2.79,0,0,1,27,11.63c2.31,0,3.55,2,3.55,6.1,0,4.39-1.51,6.48-3.88,6.48a2.55,2.55,0,0,1-2.55-1.47v5.72Zm4.1-15.29c-1.89,0-2.4,1.8-2.4,4.68s.27,4.82,2.28,4.82c1.61,0,2.43-1.87,2.43-4.85S28.1,13.17,26.51,13.17Z"/><path class="c" d="M32.9,9.42V6.9h1.77V9.42Zm0,2.4h1.75V24H32.9Z"/><path class="c" d="M36.28,11.82H38V8.58h1.73v3.24h2.13v1.52H39.74v8c0,.84.19,1.37,1.1,1.37a4.58,4.58,0,0,0,.87-.07V24a5.16,5.16,0,0,1-1.45.19c-1.41,0-2.25-.58-2.25-2.5V13.34H36.28Z"/><path class="c" d="M50.61,21.83c0,.77,0,1.78.1,2.16H49.1A6.51,6.51,0,0,1,49,22.6a2.84,2.84,0,0,1-2.88,1.61c-2.36,0-3.2-1.83-3.2-3.53,0-2.21,1.52-3.89,4.71-3.89a9.12,9.12,0,0,1,1.27.05V15.21c0-.94-.19-2.16-1.82-2.16-1.8,0-1.92,1.29-2,2.11H43.38c0-1.75.87-3.53,3.72-3.53,2.36,0,3.51,1.13,3.51,3.39Zm-1.71-3.6a6.92,6.92,0,0,0-1.2-.07c-2.16,0-3,1-3,2.4a1.92,1.92,0,0,0,1.89,2.16c1.78,0,2.35-1.27,2.35-3.84Z"/><path class="c" d="M53.51,24V6.9h1.75V24Z"/><path class="c" d="M62.75,6.9H64.5v6.53a2.92,2.92,0,0,1,2.91-1.8c2.33,0,3.55,1.95,3.55,6,0,3.74-1,6.57-3.89,6.57a2.59,2.59,0,0,1-2.64-1.63c0,.41,0,1-.05,1.44H62.73c0-.65,0-1.85,0-3.33Zm4.18,6.27c-1.87,0-2.5,1.68-2.5,4.77,0,2.91.48,4.71,2.33,4.71,1.61,0,2.4-1.59,2.4-5C69.16,14.58,68.46,13.17,66.93,13.17Z"/><path class="c" d="M80.85,20.66c0,1.53,0,2.76,0,3.33H79.19a12.48,12.48,0,0,1-.07-1.63,2.82,2.82,0,0,1-2.9,1.85c-1.42,0-3-.58-3-3.63V11.82h1.77v8.33c0,1.56.44,2.5,1.83,2.5s2.3-.82,2.3-3.43v-7.4h1.78Z"/><path class="c" d="M91.31,6.9v14c0,1.18,0,2.4,0,3.12H89.63c0-.31-.07-1.1-.07-1.63a2.66,2.66,0,0,1-2.86,1.85c-2.52,0-3.6-2.16-3.6-6.43,0-3.89,1.42-6.15,4-6.15a2.42,2.42,0,0,1,2.47,1.25v-6ZM87.18,22.65c1.9,0,2.4-1.61,2.4-4.92,0-3.55-.5-4.56-2.25-4.56-1.44,0-2.43,1.27-2.43,4.63S85.7,22.65,87.18,22.65Z"/><path class="c" d="M101.82,23.22c0,3.2-.76,5.43-4.27,5.43-3.14,0-3.81-2-3.89-3.34h1.78a2,2,0,0,0,2.18,1.85c2,0,2.45-1.49,2.45-3.94V22.1A2.76,2.76,0,0,1,97.24,24c-2.45,0-3.67-2.09-3.67-5.93,0-4.37,1.63-6.41,3.93-6.41,1.66,0,2.36.79,2.57,1.59a12.11,12.11,0,0,1,.1-1.4h1.68c0,.63,0,1.88,0,3.51Zm-4.1-.81c1.87,0,2.4-1.85,2.4-4.68s-.41-4.56-2.26-4.56c-1.61,0-2.47,1.68-2.47,4.85C95.39,21,96.21,22.41,97.72,22.41Z"/><path class="c" d="M105.9,18.23c0,2.38.41,4.47,2.33,4.47a2.23,2.23,0,0,0,2.21-2.19h1.73a3.86,3.86,0,0,1-4,3.7c-3.58,0-4.08-3.27-4.08-6.31,0-3.84,1.32-6.27,4.17-6.27,3.22,0,4,2.62,4,5.67,0,.24,0,.64,0,.93Zm4.61-1.37c0-2.11-.45-3.74-2.21-3.74-2.23,0-2.35,2.9-2.37,3.74Z"/><path class="c" d="M113.25,11.82H115V8.58h1.73v3.24h2.14v1.52H116.7v8c0,.84.19,1.37,1.11,1.37a4.47,4.47,0,0,0,.86-.07V24a5.09,5.09,0,0,1-1.44.19c-1.42,0-2.26-.58-2.26-2.5V13.34h-1.72Z"/><path class="c" d="M132.74,20.66c0,1.53,0,2.76,0,3.33h-1.68a12.48,12.48,0,0,1-.07-1.63,2.84,2.84,0,0,1-2.91,1.85c-1.41,0-3-.58-3-3.63V11.82h1.78v8.33c0,1.56.43,2.5,1.83,2.5s2.3-.82,2.3-3.43v-7.4h1.78Z"/><path class="c" d="M136.46,20.49c.07,1.29.74,2.28,2.13,2.28a1.77,1.77,0,0,0,2-1.92c0-1.25-.63-1.83-2.23-2.45-2.52-1-3.24-1.87-3.24-3.58s1-3.21,3.48-3.21a3.2,3.2,0,0,1,3.5,3.48h-1.7c-.05-.6-.17-2-1.85-2a1.54,1.54,0,0,0-1.68,1.68c0,1,.43,1.44,2.11,2.11,2.35.89,3.38,1.75,3.38,3.84s-1.39,3.53-3.81,3.53a3.48,3.48,0,0,1-3.82-3.72Z"/><path class="c" d="M145.65,18.23c0,2.38.4,4.47,2.32,4.47a2.23,2.23,0,0,0,2.21-2.19h1.73a3.85,3.85,0,0,1-4,3.7c-3.58,0-4.08-3.27-4.08-6.31,0-3.84,1.32-6.27,4.18-6.27,3.21,0,4,2.62,4,5.67,0,.24,0,.64,0,.93Zm4.6-1.37c0-2.11-.45-3.74-2.2-3.74-2.24,0-2.36,2.9-2.38,3.74Z"/><path class="c" d="M162.06,6.9v14c0,1.18,0,2.4,0,3.12h-1.71c0-.31-.07-1.1-.07-1.63a2.66,2.66,0,0,1-2.86,1.85c-2.52,0-3.6-2.16-3.6-6.43,0-3.89,1.42-6.15,4-6.15a2.42,2.42,0,0,1,2.47,1.25v-6Zm-4.13,15.75c1.9,0,2.4-1.61,2.4-4.92,0-3.55-.5-4.56-2.25-4.56-1.44,0-2.43,1.27-2.43,4.63S156.45,22.65,157.93,22.65Z"/><path class="c" d="M169.53,9.42V6.9h1.77V9.42Zm0,2.4h1.75V24h-1.75Z"/><path class="c" d="M174.18,15.59c0-2.49,0-3.21,0-3.77h1.7a14.88,14.88,0,0,1,.07,1.59,2.87,2.87,0,0,1,2.88-1.8c1.76,0,3.12,1,3.12,3.72V24h-1.77V15.66c0-1.48-.48-2.49-1.87-2.49-1.64,0-2.33,1.08-2.33,3.57V24h-1.78Z"/><path class="c" d="M189.59,24V13.34H188V11.82h1.59V10.14c0-1.8.65-3.38,2.86-3.38a4.16,4.16,0,0,1,1,.14V8.44a3.57,3.57,0,0,0-.81-.1c-1,0-1.3.6-1.3,1.85v1.63h1.92v1.52h-1.92V24Z"/><path class="c" d="M194.84,24V6.9h1.76V24Z"/><path class="c" d="M207.25,17.78c0,4.27-1.44,6.43-4.17,6.43s-4.2-2.09-4.2-6.41,1.65-6.17,4.27-6.17S207.25,13.67,207.25,17.78Zm-6.57,0c0,3.29.81,4.88,2.4,4.88s2.37-1.61,2.37-4.9c0-3.12-.77-4.66-2.37-4.66S200.68,14.51,200.68,17.82Z"/><path class="c" d="M217.38,17.78c0,4.27-1.44,6.43-4.18,6.43S209,22.12,209,17.8s1.66-6.17,4.28-6.17S217.38,13.67,217.38,17.78Zm-6.58,0c0,3.29.82,4.88,2.4,4.88s2.38-1.61,2.38-4.9c0-3.12-.77-4.66-2.38-4.66S210.8,14.51,210.8,17.82Z"/><path class="c" d="M227.34,6.9v14c0,1.18,0,2.4,0,3.12h-1.7c0-.31-.07-1.1-.07-1.63a2.66,2.66,0,0,1-2.86,1.85c-2.52,0-3.6-2.16-3.6-6.43,0-3.89,1.42-6.15,4-6.15a2.42,2.42,0,0,1,2.47,1.25v-6Zm-4.13,15.75c1.9,0,2.4-1.61,2.4-4.92,0-3.55-.5-4.56-2.25-4.56-1.44,0-2.43,1.27-2.43,4.63S221.72,22.65,223.21,22.65Z"/><path class="c" d="M230.22,28.46V15.38c0-1.66,0-2.79,0-3.56h1.7c0,.22.07,1,.07,1.64a2.79,2.79,0,0,1,2.88-1.83c2.31,0,3.55,2,3.55,6.1,0,4.39-1.51,6.48-3.88,6.48A2.55,2.55,0,0,1,232,22.74v5.72Zm4.1-15.29c-1.89,0-2.4,1.8-2.4,4.68s.27,4.82,2.28,4.82c1.61,0,2.43-1.87,2.43-4.85S235.91,13.17,234.32,13.17Z"/><path class="c" d="M240.71,24V6.9h1.75V24Z"/><path class="c" d="M252.3,21.83c0,.77,0,1.78.1,2.16h-1.61a7.24,7.24,0,0,1-.12-1.39,2.84,2.84,0,0,1-2.88,1.61c-2.35,0-3.19-1.83-3.19-3.53,0-2.21,1.51-3.89,4.7-3.89a9,9,0,0,1,1.27.05V15.21c0-.94-.19-2.16-1.82-2.16-1.8,0-1.92,1.29-2,2.11h-1.68c0-1.75.86-3.53,3.72-3.53,2.35,0,3.5,1.13,3.5,3.39Zm-1.7-3.6a7.07,7.07,0,0,0-1.2-.07c-2.16,0-3.05,1-3.05,2.4a1.92,1.92,0,0,0,1.89,2.16c1.78,0,2.36-1.27,2.36-3.84Z"/><path class="c" d="M255.2,9.42V6.9H257V9.42Zm0,2.4H257V24H255.2Z"/><path class="c" d="M259.86,15.59c0-2.49,0-3.21,0-3.77h1.71c0,.29.07.77.07,1.59a2.86,2.86,0,0,1,2.88-1.8c1.75,0,3.12,1,3.12,3.72V24h-1.77V15.66c0-1.48-.48-2.49-1.88-2.49-1.63,0-2.33,1.08-2.33,3.57V24h-1.77Z"/><path class="c" d="M274,22.7c1.25-2.12,3.67-6.39,5.35-9.34h-5V11.82h7v1.37c-1.2,2.11-3.72,6.6-5.28,9.29h5.36L281.22,24H274Z"/><path class="c" d="M290.87,17.78c0,4.27-1.44,6.43-4.18,6.43s-4.2-2.09-4.2-6.41,1.66-6.17,4.27-6.17S290.87,13.67,290.87,17.78Zm-6.58,0c0,3.29.82,4.88,2.4,4.88s2.38-1.61,2.38-4.9c0-3.12-.77-4.66-2.38-4.66S284.29,14.51,284.29,17.82Z"/><path class="c" d="M293.15,15.59c0-2.49,0-3.21,0-3.77h1.71c0,.29.07.77.07,1.59a2.85,2.85,0,0,1,2.88-1.8c1.75,0,3.12,1,3.12,3.72V24h-1.78V15.66c0-1.48-.48-2.49-1.87-2.49-1.63,0-2.33,1.08-2.33,3.57V24h-1.77Z"/><path class="c" d="M305,18.23c0,2.38.41,4.47,2.33,4.47a2.23,2.23,0,0,0,2.21-2.19h1.73a3.86,3.86,0,0,1-4,3.7c-3.58,0-4.08-3.27-4.08-6.31,0-3.84,1.32-6.27,4.17-6.27,3.22,0,4,2.62,4,5.67,0,.24,0,.64,0,.93Zm4.61-1.37c0-2.11-.45-3.74-2.21-3.74-2.23,0-2.35,2.9-2.37,3.74Z"/><path class="c" d="M314.55,20.49c.08,1.29.75,2.28,2.14,2.28a1.77,1.77,0,0,0,2-1.92c0-1.25-.63-1.83-2.23-2.45-2.52-1-3.24-1.87-3.24-3.58s1-3.21,3.48-3.21a3.2,3.2,0,0,1,3.5,3.48h-1.7c-.05-.6-.17-2-1.85-2a1.54,1.54,0,0,0-1.68,1.68c0,1,.43,1.44,2.11,2.11,2.35.89,3.38,1.75,3.38,3.84s-1.39,3.53-3.81,3.53a3.48,3.48,0,0,1-3.82-3.72Z"/><path class="d" d="M108.08,294.77a83.26,83.26,0,0,0,40.57-14.92l-48.24-68.53Z"/><path class="e" d="M100.41,295.12c2.59,0,5.14-.12,7.67-.35l-7.67-83.45Z"/><path class="f" d="M148.65,279.85A83.85,83.85,0,0,0,183,197l-82.59,14.28Z"/><path class="g" d="M183,197a83.8,83.8,0,0,0-92.42-68.95l9.83,83.23Z"/><path class="h" d="M16.61,211.32a83.8,83.8,0,0,0,83.8,83.8v-83.8l-9.83-83.23A83.81,83.81,0,0,0,16.61,211.32Z"/><path class="c" d="M237.46,62.68v5.64h-1.35V56.09h3.21a2.82,2.82,0,0,1,3.11,3.16c0,1.83-.88,2.61-1.64,2.86,1.14.39,1.5,1.4,1.5,3.11v.49a12.41,12.41,0,0,0,.18,2.61h-1.35a12.22,12.22,0,0,1-.18-2.65v-.41c0-1.73-.35-2.58-2-2.58Zm0-1.13H239c1.49,0,2.05-.85,2.05-2.27,0-1.22-.56-2.05-1.91-2.05h-1.69Z"/><path class="c" d="M250.26,63.66c0,3.2-1.08,4.82-3.13,4.82S244,66.92,244,63.67s1.24-4.62,3.2-4.62S250.26,60.58,250.26,63.66Zm-4.93,0c0,2.47.61,3.66,1.8,3.66s1.78-1.21,1.78-3.68-.58-3.49-1.78-3.49S245.33,61.21,245.33,63.69Z"/><path class="c" d="M257.86,63.66c0,3.2-1.08,4.82-3.14,4.82s-3.15-1.56-3.15-4.81,1.25-4.62,3.21-4.62S257.86,60.58,257.86,63.66Zm-4.94,0c0,2.47.62,3.66,1.8,3.66s1.79-1.21,1.79-3.68-.58-3.49-1.79-3.49S252.92,61.21,252.92,63.69Z"/><path class="c" d="M259.78,68.32v-8h-1.19V59.19h1.19V57.93c0-1.35.49-2.54,2.14-2.54a3.22,3.22,0,0,1,.76.11v1.15a3.31,3.31,0,0,0-.61-.07c-.72,0-1,.45-1,1.39v1.22h1.44v1.14H261.1v8Z"/><path class="c" d="M235.54,97.2v-.12c0-1.86,1.35-4.8,4.5-8.22,2.7-2.91,3.59-4.11,3.59-6.57,0-2-.59-4-3.09-4-2.09,0-3.17,1.59-3.29,4.2h-1.32c0-2.79,1.4-5.4,4.61-5.4,3.42,0,4.47,2.49,4.47,5.13,0,3-1.1,4.38-3.77,7.2s-3.87,5.16-4.17,6.57h8.51l-.2,1.2Z"/><path class="c" d="M253.42,97.2V91.59h-7.23v-1.2l6.86-13h1.68v13h2l-.18,1.23h-1.86V97.2Zm0-13.23c0-1.5,0-3.75.05-5.16-1.08,2.46-4.1,8.19-5.84,11.55h5.79Z"/><path class="c" d="M265.33,82.41c0,3.42-.91,5.64-3.51,5.67s-3.42-2.22-3.42-5.58c0-3.51,1.31-5.4,3.48-5.4S265.33,78.69,265.33,82.41Zm-5.67.09c0,3.21.75,4.44,2.22,4.44s2.21-1.23,2.21-4.47c0-2.7-.59-4.23-2.25-4.23C260.41,78.24,259.66,79.41,259.66,82.5Zm.92,14.7L271.5,77.34h1.32L261.88,97.2ZM275,91.83c0,3.42-.87,5.64-3.48,5.67s-3.44-2.16-3.44-5.58,1.31-5.4,3.51-5.4S275,88.2,275,91.83Zm-5.66.09c0,3.15.75,4.44,2.25,4.44s2.18-1.26,2.18-4.47c0-2.64-.6-4.23-2.22-4.23C270.13,87.66,269.38,89,269.38,91.92Z"/><path class="c" d="M285.29,98.64V97.27a2.83,2.83,0,0,1-2.78-2.9h.8a2.27,2.27,0,0,0,2,2.22V91.22c-1.51-.77-2.49-1.58-2.49-3.19a2.54,2.54,0,0,1,2.49-2.8V84.15H286v1.08a2.56,2.56,0,0,1,2.38,2.68h-.78a1.91,1.91,0,0,0-1.6-2v4.73c1.77.9,2.61,1.91,2.61,3.53s-.79,2.94-2.61,3.06v1.37Zm0-8.3V85.93a1.79,1.79,0,0,0-1.73,2C283.56,89.08,284.12,89.71,285.29,90.34Zm.68,1.24v5c1.17-.13,1.8-.81,1.8-2.36C287.77,93.08,287.25,92.34,286,91.58Z"/><path class="c" d="M291.3,97.2V86.29a5.36,5.36,0,0,1-1.95.81v-.69a6.18,6.18,0,0,0,2.17-1.17h.55v12Z"/><path class="c" d="M295.06,95a1.67,1.67,0,0,0,1.77,1.6c1.9,0,2.07-2.88,2.14-5.6a2.14,2.14,0,0,1-2.18,1.41c-1.75,0-2.63-1.34-2.63-3.53,0-2.61,1.21-3.78,2.83-3.78s2.77,1,2.77,5c0,5-.61,7.25-3,7.25A2.36,2.36,0,0,1,294.27,95ZM295,88.92c0,1.49.49,2.79,1.93,2.79s2-1.17,2-2.63-.27-3.22-1.95-3.22C295.75,85.86,295,86.85,295,88.92Z"/><path class="c" d="M306.51,86h-3.78c-.09,1.35-.31,3.71-.38,4.45a2.14,2.14,0,0,1,2-1c1.89,0,2.65,1.54,2.65,3.69s-.69,4.19-2.88,4.19-2.7-1.58-2.79-2.93h.82c.08.83.33,2.21,2,2.21s2-1.53,2-3.44c0-1.62-.43-3-1.89-3a2,2,0,0,0-2,1.63l-.75-.18c.16-1.31.43-4.48.55-6.37h4.6Z"/><path class="c" d="M307.68,99.34a13,13,0,0,0,.94-4.14h.79a10.46,10.46,0,0,1-1.05,4.14Z"/><path class="c" d="M316.46,85.28V86a35.54,35.54,0,0,0-3.65,11.24H312A35.31,35.31,0,0,1,315.65,86h-4.82v-.76Z"/><path class="c" d="M317.4,93.9c0-2.08.93-2.8,1.58-3.15a2.74,2.74,0,0,1-1.28-2.59c0-1.44.72-3,2.63-3s2.49,1.51,2.49,2.91c0,1.66-.65,2.4-1.32,2.67.92.38,1.61,1.35,1.61,3.18s-.9,3.46-2.9,3.46S317.4,95.74,317.4,93.9Zm4.91,0c0-1.8-.59-2.79-2.05-2.79s-2.07,1.22-2.07,2.72.6,2.77,2.05,2.77S322.31,95.52,322.31,93.94Zm-3.8-5.87c0,1.28.42,2.34,1.79,2.34,1.1,0,1.74-.65,1.74-2.32,0-1.12-.46-2.23-1.76-2.23S318.51,87,318.51,88.07Z"/><path class="c" d="M328.7,97.2V93.83h-4.34v-.72l4.13-7.83h1v7.81h1.22l-.11.74H329.5V97.2Zm0-7.94c0-.9,0-2.25,0-3.1-.65,1.48-2.47,4.92-3.51,6.93h3.47Z"/><path class="c" d="M331,99.34a13,13,0,0,0,.93-4.14h.8a10.64,10.64,0,0,1-1.05,4.14Z"/><path class="c" d="M338.53,87.62c0-.13-.11-1.76-1.65-1.76-2.18,0-2.24,3.45-2.29,5a2.42,2.42,0,0,1,2.3-1.41c1.93,0,2.7,1.61,2.7,3.8s-.72,4.09-2.89,4.09c-2.47,0-2.92-2.52-2.92-6,0-3.73.74-6.28,3.13-6.28a2.39,2.39,0,0,1,2.38,2.48Zm.24,5.71c0-1.8-.53-3.12-2-3.12a2.26,2.26,0,0,0-2.21,2.45c0,1.61.34,4,2.12,4C337.94,96.66,338.77,95.63,338.77,93.33Z"/><path class="c" d="M345.16,97.2V93.83h-4.34v-.72l4.12-7.83h1v7.81h1.22l-.11.74H346V97.2Zm0-7.94c0-.9,0-2.25,0-3.1-.65,1.48-2.47,4.92-3.51,6.93h3.48Z"/><path class="c" d="M349.62,97.2V86.29a5.43,5.43,0,0,1-1.95.81v-.69a6,6,0,0,0,2.16-1.17h.56v12Z"/><path class="c" d="M236.11,118.25h5.64v1.19h-4.29v4.09h4v1.19h-4v5.76h-1.35Z"/><path class="c" d="M243.08,130.48V117.66h1.31v12.82Z"/><path class="c" d="M252.39,125.82c0,3.2-1.08,4.82-3.14,4.82s-3.15-1.57-3.15-4.81,1.24-4.62,3.21-4.62S252.39,122.74,252.39,125.82Zm-4.94,0c0,2.47.61,3.66,1.8,3.66s1.79-1.21,1.79-3.68-.58-3.49-1.79-3.49S247.45,123.37,247.45,125.85Z"/><path class="c" d="M260,125.82c0,3.2-1.08,4.82-3.13,4.82s-3.15-1.57-3.15-4.81,1.24-4.62,3.2-4.62S260,122.74,260,125.82Zm-4.93,0c0,2.47.61,3.66,1.8,3.66s1.78-1.21,1.78-3.68-.58-3.49-1.78-3.49S255.05,123.37,255.05,125.85Z"/><path class="c" d="M267.45,117.66v10.48c0,.88,0,1.8,0,2.34h-1.28c0-.23-.05-.83-.05-1.23a2,2,0,0,1-2.15,1.39c-1.89,0-2.7-1.62-2.7-4.82,0-2.92,1.07-4.61,3-4.61a1.83,1.83,0,0,1,1.86.93v-4.48Zm-3.1,11.81c1.43,0,1.8-1.21,1.8-3.69,0-2.67-.37-3.42-1.69-3.42-1.08,0-1.82,1-1.82,3.47S263.24,129.47,264.35,129.47Z"/><path class="c" d="M238.29,159.36V141.18a8.87,8.87,0,0,1-3.23,1.35v-1.14a10.31,10.31,0,0,0,3.6-1.95h.92v19.92Z"/><path class="c" d="M243.13,153.87c0-3.48,1.56-4.68,2.64-5.25-1.23-.63-2.13-2.1-2.13-4.32,0-2.4,1.2-5,4.38-5s4.14,2.52,4.14,4.86c0,2.76-1.08,4-2.19,4.44,1.53.63,2.66,2.25,2.66,5.31,0,3.24-1.49,5.76-4.82,5.76S243.13,156.93,243.13,153.87Zm8.19.06c0-3-1-4.65-3.42-4.65-2.67,0-3.45,2-3.45,4.53s1,4.62,3.42,4.62S251.32,156.57,251.32,153.93ZM245,144.15c0,2.13.69,3.9,3,3.9,1.83,0,2.91-1.08,2.91-3.87,0-1.86-.79-3.72-2.94-3.72S245,142.41,245,144.15Z"/><path class="c" d="M261.67,144.57c0,3.42-.9,5.64-3.51,5.67s-3.42-2.22-3.42-5.58,1.32-5.4,3.48-5.4S261.67,140.85,261.67,144.57Zm-5.67.09c0,3.21.75,4.44,2.22,4.44s2.22-1.23,2.22-4.47c0-2.7-.61-4.23-2.25-4.23C256.75,140.4,256,141.57,256,144.66Zm.93,14.7,10.91-19.86h1.33l-10.95,19.86ZM271.38,154c0,3.42-.87,5.64-3.47,5.67s-3.45-2.16-3.45-5.58,1.32-5.4,3.5-5.4S271.38,150.36,271.38,154Zm-5.67.09c0,3.15.75,4.44,2.25,4.44s2.2-1.26,2.2-4.47c0-2.64-.61-4.23-2.22-4.23S265.71,151.17,265.71,154.08Z"/><path class="c" d="M281.63,160.8v-1.37a2.81,2.81,0,0,1-2.77-2.9h.79a2.28,2.28,0,0,0,2,2.22v-5.37c-1.51-.77-2.49-1.58-2.49-3.19a2.56,2.56,0,0,1,2.49-2.81V146.3h.68v1.08a2.56,2.56,0,0,1,2.38,2.69h-.77a1.93,1.93,0,0,0-1.61-2v4.73c1.77.9,2.61,1.91,2.61,3.53s-.79,2.93-2.61,3.06v1.37Zm0-8.3v-4.41a1.79,1.79,0,0,0-1.73,2C279.9,151.24,280.46,151.87,281.63,152.5Zm.68,1.24v5c1.17-.13,1.8-.81,1.8-2.36C284.11,155.24,283.59,154.5,282.31,153.74Z"/><path class="c" d="M287.64,159.36V148.45a5.39,5.39,0,0,1-1.94.81v-.69a6.21,6.21,0,0,0,2.16-1.17h.55v12Z"/><path class="c" d="M294.64,159.36V156H290.3v-.72l4.13-7.83h1v7.81h1.22l-.11.74h-1.11v3.37Zm0-7.94c0-.9,0-2.25,0-3.1-.65,1.48-2.47,4.92-3.51,6.93h3.47Z"/><path class="c" d="M303,148.18h-3.78c-.09,1.35-.3,3.71-.38,4.44a2.18,2.18,0,0,1,2-1c1.89,0,2.65,1.55,2.65,3.7s-.69,4.19-2.88,4.19-2.7-1.58-2.79-2.93h.83c.07.82.32,2.21,2,2.21s2-1.53,2-3.44c0-1.62-.43-3-1.89-3a2,2,0,0,0-2,1.64l-.76-.18c.16-1.31.43-4.48.56-6.37h4.59Z"/><path class="c" d="M304.18,161.5a12.82,12.82,0,0,0,.94-4.14h.79a10.65,10.65,0,0,1-1,4.14Z"/><path class="c" d="M307.57,150.07a2.56,2.56,0,0,1,2.61-2.78c1.87,0,2.46,1.37,2.46,2.9s-.66,2.34-1.44,2.61v0c1.1.38,1.8,1.26,1.8,3.15,0,1.68-.66,3.55-2.91,3.55s-2.76-1.66-2.81-3h.77a2.1,2.1,0,0,0,2.05,2.25c1.73,0,2.09-1.6,2.09-2.79,0-2.3-1.15-2.79-2.43-2.79h-.52v-.7h.52c1.19,0,2.09-.56,2.09-2.31,0-1.24-.45-2.2-1.71-2.2-1.66,0-1.8,1.61-1.84,2.06Z"/><path class="c" d="M319.86,147.44v.68a35.54,35.54,0,0,0-3.65,11.24h-.83a35.06,35.06,0,0,1,3.67-11.16h-4.83v-.76Z"/><path class="c" d="M325.67,149.78c0-.13-.1-1.77-1.65-1.77-2.18,0-2.23,3.46-2.29,5.05a2.42,2.42,0,0,1,2.31-1.41c1.92,0,2.7,1.6,2.7,3.8s-.72,4.09-2.9,4.09c-2.47,0-2.92-2.52-2.92-6,0-3.73.74-6.29,3.13-6.29a2.39,2.39,0,0,1,2.38,2.49Zm.24,5.71c0-1.8-.52-3.12-2-3.12a2.26,2.26,0,0,0-2.22,2.45c0,1.6.34,4,2.13,4C325.08,158.82,325.91,157.79,325.91,155.49Z"/><path class="c" d="M327.44,161.5a13.08,13.08,0,0,0,.93-4.14h.8a10.64,10.64,0,0,1-1.05,4.14Z"/><path class="c" d="M335,149.78c0-.13-.11-1.77-1.65-1.77-2.18,0-2.24,3.46-2.29,5.05a2.42,2.42,0,0,1,2.3-1.41c1.93,0,2.7,1.6,2.7,3.8s-.72,4.09-2.89,4.09c-2.47,0-2.92-2.52-2.92-6,0-3.73.74-6.29,3.13-6.29a2.39,2.39,0,0,1,2.38,2.49Zm.24,5.71c0-1.8-.53-3.12-2-3.12a2.26,2.26,0,0,0-2.21,2.45c0,1.6.34,4,2.12,4C334.37,158.82,335.2,157.79,335.2,155.49Z"/><path class="c" d="M337.55,150.07a2.57,2.57,0,0,1,2.61-2.78c1.88,0,2.47,1.37,2.47,2.9s-.67,2.34-1.44,2.61v0c1.1.38,1.8,1.26,1.8,3.15,0,1.68-.67,3.55-2.92,3.55s-2.75-1.66-2.81-3H338a2.09,2.09,0,0,0,2,2.25c1.73,0,2.09-1.6,2.09-2.79,0-2.3-1.15-2.79-2.43-2.79h-.52v-.7h.52c1.19,0,2.09-.56,2.09-2.31,0-1.24-.45-2.2-1.71-2.2-1.66,0-1.8,1.61-1.84,2.06Z"/><path class="c" d="M350.46,153.25c0,4.22-.72,6.29-2.92,6.29s-2.9-2.32-2.9-6.3c0-4.32,1-6,3-6C349.76,147.29,350.46,149.2,350.46,153.25Zm-5,0c0,3.67.47,5.58,2.09,5.58s2.07-1.8,2.07-5.55-.57-5.26-2.05-5.26S345.47,149.26,345.47,153.24Z"/><path class="c" d="M236.71,189.43c.1,1.25.7,2.25,2,2.25s1.92-.7,1.92-2.1-.52-2-2.19-2.78c-1.91-.91-2.76-1.76-2.76-3.53a2.87,2.87,0,0,1,3.08-3c2.36,0,3,1.69,3,3.11h-1.32c-.07-.57-.25-2-1.76-2a1.6,1.6,0,0,0-1.68,1.78c0,1.17.53,1.73,2.06,2.45,2.14,1,2.91,2.05,2.91,3.87a3.05,3.05,0,0,1-3.33,3.33c-2.45,0-3.26-1.6-3.35-3.37Z"/><path class="c" d="M249.23,191a16.05,16.05,0,0,0,.08,1.62H248.1a5.77,5.77,0,0,1-.09-1,2.13,2.13,0,0,1-2.16,1.21,2.36,2.36,0,0,1-2.39-2.65c0-1.65,1.13-2.91,3.52-2.91a8.57,8.57,0,0,1,1,0v-1.22c0-.7-.15-1.62-1.37-1.62s-1.44,1-1.49,1.58h-1.26a2.48,2.48,0,0,1,2.79-2.65c1.76,0,2.62.85,2.62,2.54Zm-1.27-2.7a4.9,4.9,0,0,0-.9-.06c-1.62,0-2.29.78-2.29,1.8a1.44,1.44,0,0,0,1.42,1.62c1.33,0,1.77-1,1.77-2.88Z"/><path class="c" d="M251.41,186.34c0-1.88,0-2.42,0-2.83h1.28a11.24,11.24,0,0,1,.06,1.19,2.13,2.13,0,0,1,2.16-1.35c1.31,0,2.34.75,2.34,2.79v6.5h-1.34v-6.25c0-1.12-.36-1.87-1.4-1.87-1.22,0-1.75.81-1.75,2.68v5.44h-1.33Z"/><path class="c" d="M265.09,179.82V190.3c0,.88,0,1.8,0,2.34h-1.28c0-.24-.05-.83-.05-1.23a2,2,0,0,1-2.14,1.39c-1.89,0-2.71-1.62-2.71-4.83,0-2.91,1.07-4.61,3-4.61a1.83,1.83,0,0,1,1.86.94v-4.48ZM262,191.63c1.42,0,1.8-1.21,1.8-3.69,0-2.67-.38-3.42-1.7-3.42-1.08,0-1.81.95-1.81,3.47S260.88,191.63,262,191.63Z"/><path class="c" d="M267.86,183.51c1,3.82,1.73,6.55,1.86,7.53h0c.18-1,1-4.18,1.87-7.53H273l-2.67,9.6c-.73,2.66-1.44,3-2.73,3a4.8,4.8,0,0,1-.67,0v-1.17l.61,0c1,0,1.23-.65,1.59-2.1l-2.69-9.33Z"/><path class="c" d="M236.2,216c0-3.48,1.56-4.68,2.63-5.25-1.22-.63-2.12-2.1-2.12-4.32,0-2.4,1.2-5,4.37-5s4.14,2.52,4.14,4.86c0,2.76-1.07,4-2.18,4.44,1.53.63,2.67,2.25,2.67,5.31,0,3.24-1.5,5.76-4.83,5.76S236.2,219.09,236.2,216Zm8.18.06c0-3-1-4.65-3.42-4.65-2.67,0-3.44,2-3.44,4.53s1,4.62,3.42,4.62S244.38,218.73,244.38,216.09Zm-6.32-9.78c0,2.13.69,3.9,3,3.9,1.83,0,2.91-1.08,2.91-3.87,0-1.86-.78-3.72-2.94-3.72S238.06,204.57,238.06,206.31Z"/><path class="c" d="M254.74,206.73c0,3.42-.91,5.64-3.51,5.67s-3.42-2.22-3.42-5.58,1.32-5.4,3.48-5.4S254.74,203,254.74,206.73Zm-5.67.09c0,3.21.75,4.44,2.22,4.44s2.21-1.23,2.21-4.47c0-2.7-.59-4.23-2.25-4.23C249.82,202.56,249.07,203.73,249.07,206.82Zm.93,14.7,10.92-19.86h1.31l-10.94,19.86Zm14.46-5.37c0,3.42-.88,5.64-3.49,5.67s-3.44-2.16-3.44-5.58,1.31-5.4,3.51-5.4S264.46,212.52,264.46,216.15Zm-5.67.09c0,3.15.75,4.44,2.25,4.44s2.18-1.26,2.18-4.47c0-2.64-.59-4.23-2.22-4.23C259.54,212,258.79,213.33,258.79,216.24Z"/><path class="c" d="M274.7,223v-1.37a2.82,2.82,0,0,1-2.77-2.9h.79a2.26,2.26,0,0,0,2,2.21v-5.36c-1.51-.77-2.49-1.59-2.49-3.19a2.56,2.56,0,0,1,2.49-2.81v-1.08h.68v1.08a2.56,2.56,0,0,1,2.38,2.69H277a2,2,0,0,0-1.61-2V215c1.77.9,2.61,1.91,2.61,3.53s-.79,2.93-2.61,3.06V223Zm0-8.3v-4.41A1.79,1.79,0,0,0,273,212.3C273,213.4,273.53,214,274.7,214.66Zm.68,1.24v5c1.17-.12,1.8-.81,1.8-2.35C277.18,217.39,276.66,216.66,275.38,215.9Z"/><path class="c" d="M284.27,211.94c0-.13-.1-1.77-1.65-1.77-2.18,0-2.23,3.46-2.29,5.05a2.44,2.44,0,0,1,2.31-1.41c1.92,0,2.7,1.6,2.7,3.8s-.72,4.09-2.9,4.09c-2.47,0-2.92-2.52-2.92-6,0-3.73.74-6.29,3.13-6.29a2.39,2.39,0,0,1,2.38,2.49Zm.24,5.71c0-1.8-.52-3.12-2-3.12a2.26,2.26,0,0,0-2.22,2.45c0,1.6.34,4,2.13,4C283.68,221,284.51,220,284.51,217.65Z"/><path class="c" d="M292,209.6v.68a35.46,35.46,0,0,0-3.65,11.24h-.83a35.12,35.12,0,0,1,3.67-11.17h-4.82v-.75Z"/><path class="c" d="M290.14,223.66a13.08,13.08,0,0,0,.94-4.14h.79a10.65,10.65,0,0,1-1,4.14Z"/><path class="c" d="M297,221.52v-3.37h-4.34v-.72l4.12-7.83h1v7.81H299l-.11.74h-1.12v3.37Zm0-7.94c0-.9,0-2.25,0-3.1-.64,1.48-2.46,4.92-3.51,6.93H297Z"/><path class="c" d="M300,221.52v-.08c0-1.11.82-2.88,2.71-4.93,1.62-1.74,2.16-2.47,2.16-3.94,0-1.17-.36-2.4-1.86-2.4-1.26,0-1.91,1-2,2.52h-.79c0-1.67.84-3.24,2.77-3.24s2.68,1.5,2.68,3.08c0,1.79-.66,2.63-2.26,4.32a9.1,9.1,0,0,0-2.51,4H306l-.13.72Z"/><path class="c" d="M307.06,221.52v-.08c0-1.11.81-2.88,2.7-4.93,1.62-1.74,2.16-2.47,2.16-3.94,0-1.17-.36-2.4-1.85-2.4-1.26,0-1.91,1-2,2.52h-.8c0-1.67.85-3.24,2.78-3.24s2.68,1.5,2.68,3.08c0,1.79-.67,2.63-2.27,4.32a9.15,9.15,0,0,0-2.5,4h5.11l-.12.72Z"/><path class="c" d="M313.77,223.66a12.82,12.82,0,0,0,.94-4.14h.79a10.65,10.65,0,0,1-1,4.14Z"/><path class="c" d="M322.58,215.41c0,4.22-.72,6.29-2.92,6.29s-2.9-2.33-2.9-6.3c0-4.33,1-6,2.95-6C321.88,209.45,322.58,211.36,322.58,215.41Zm-5,0c0,3.67.47,5.58,2.09,5.58s2.07-1.8,2.07-5.55-.58-5.26-2.05-5.26S317.59,211.42,317.59,215.4Z"/><path class="c" d="M329,211.94c0-.13-.11-1.77-1.65-1.77-2.18,0-2.24,3.46-2.29,5.05a2.42,2.42,0,0,1,2.3-1.41c1.93,0,2.7,1.6,2.7,3.8s-.72,4.09-2.9,4.09c-2.46,0-2.91-2.52-2.91-6,0-3.73.74-6.29,3.13-6.29a2.39,2.39,0,0,1,2.38,2.49Zm.23,5.71c0-1.8-.52-3.12-2-3.12a2.26,2.26,0,0,0-2.21,2.45c0,1.6.34,4,2.12,4C328.43,221,329.25,220,329.25,217.65Z"/><path class="c" d="M331.7,218.22c0-2.09.94-2.81,1.59-3.15a2.73,2.73,0,0,1-1.28-2.59c0-1.44.72-3,2.63-3s2.48,1.52,2.48,2.92c0,1.66-.65,2.4-1.31,2.66.92.38,1.6,1.36,1.6,3.19s-.9,3.46-2.9,3.46S331.7,220.06,331.7,218.22Zm4.92,0c0-1.8-.6-2.79-2.06-2.79s-2.07,1.22-2.07,2.72.6,2.77,2.06,2.77S336.62,219.84,336.62,218.26Zm-3.8-5.87c0,1.28.41,2.34,1.78,2.34,1.1,0,1.75-.65,1.75-2.32,0-1.12-.47-2.24-1.77-2.24S332.82,211.34,332.82,212.39Z"/><path class="c" d="M237.61,254.8l-2.42-12.23h1.43c.81,4.34,1.6,8.68,1.74,10.37h0c.23-1.71,1.5-7.47,2.07-10.37h1.3c.56,2.79,1.82,8.72,2,10.3h0c.25-2.14,1.4-7.53,1.91-10.3h1.35l-2.61,12.23H243c-.56-2.79-1.71-8.3-2-10.12h0c-.27,2-1.44,7.36-2,10.12Z"/><path class="c" d="M253.05,253.18c0,.57,0,1.33.07,1.62h-1.2a5,5,0,0,1-.09-1.05,2.14,2.14,0,0,1-2.16,1.21,2.37,2.37,0,0,1-2.4-2.65c0-1.65,1.14-2.92,3.53-2.92a6.36,6.36,0,0,1,.95,0v-1.22c0-.71-.14-1.62-1.36-1.62s-1.44,1-1.5,1.58h-1.26a2.49,2.49,0,0,1,2.79-2.65c1.77,0,2.63.85,2.63,2.54Zm-1.28-2.7a4.82,4.82,0,0,0-.9-.06c-1.62,0-2.28.78-2.28,1.8a1.44,1.44,0,0,0,1.42,1.62c1.33,0,1.76-1,1.76-2.88Z"/><path class="c" d="M254.09,245.67h1.3v-2.43h1.3v2.43h1.6v1.13h-1.6v6c0,.63.14,1,.82,1a3.13,3.13,0,0,0,.65-.06v1a3.6,3.6,0,0,1-1.08.14c-1.06,0-1.69-.43-1.69-1.87V246.8h-1.3Z"/><path class="c" d="M260.32,250.48c0,1.78.31,3.34,1.75,3.34a1.66,1.66,0,0,0,1.65-1.63H265a2.89,2.89,0,0,1-3,2.77c-2.68,0-3.06-2.45-3.06-4.74,0-2.88,1-4.7,3.13-4.7,2.42,0,3,2,3,4.25,0,.18,0,.49,0,.71Zm3.46-1c0-1.59-.34-2.81-1.66-2.81-1.67,0-1.76,2.18-1.78,2.81Z"/><path class="c" d="M266.77,248.78c0-1.46,0-2.46,0-3.11H268c0,.23.05.66.05,1.62a2.5,2.5,0,0,1,2.41-1.77V247c-1.56.06-2.39,1.05-2.39,2.72v5.1h-1.31Z"/><path class="c" d="M275.3,242.57h3.15a3.09,3.09,0,0,1,3.26,3.4,3.18,3.18,0,0,1-3.44,3.53h-1.62v5.3H275.3Zm1.35,5.8h1.47c1.46,0,2.22-.78,2.22-2.41a2,2,0,0,0-2.07-2.25h-1.62Z"/><path class="c" d="M283.92,250.48c0,1.78.31,3.34,1.75,3.34a1.66,1.66,0,0,0,1.65-1.63h1.3a2.89,2.89,0,0,1-3,2.77c-2.68,0-3.06-2.45-3.06-4.74,0-2.88,1-4.7,3.13-4.7,2.41,0,3,2,3,4.25,0,.18,0,.49,0,.71Zm3.46-1c0-1.59-.35-2.81-1.66-2.81-1.67,0-1.76,2.18-1.78,2.81Z"/><path class="c" d="M290.36,248.49c0-1.87,0-2.41,0-2.82h1.28a10.89,10.89,0,0,1,.06,1.19,2.12,2.12,0,0,1,2.16-1.35c1.31,0,2.34.75,2.34,2.79v6.5h-1.33v-6.25c0-1.12-.36-1.87-1.41-1.87-1.22,0-1.74.81-1.74,2.68v5.44h-1.34Z"/><path class="c" d="M299.22,250.48c0,1.78.31,3.34,1.75,3.34a1.66,1.66,0,0,0,1.65-1.63h1.3a2.89,2.89,0,0,1-3,2.77c-2.69,0-3.06-2.45-3.06-4.74,0-2.88,1-4.7,3.13-4.7,2.41,0,3,2,3,4.25,0,.18,0,.49,0,.71Zm3.46-1c0-1.59-.35-2.81-1.66-2.81-1.67,0-1.76,2.18-1.78,2.81Z"/><path class="c" d="M304.73,245.67H306v-2.43h1.3v2.43h1.6v1.13h-1.6v6c0,.63.14,1,.83,1a3.27,3.27,0,0,0,.65-.06v1a3.71,3.71,0,0,1-1.09.14c-1.06,0-1.69-.43-1.69-1.87V246.8h-1.29Z"/><path class="c" d="M310.16,248.78c0-1.46,0-2.46,0-3.11h1.26c0,.23.06.66.06,1.62a2.5,2.5,0,0,1,2.41-1.77V247c-1.57.06-2.39,1.05-2.39,2.72v5.1h-1.32Z"/><path class="c" d="M320.21,253.18c0,.57,0,1.33.07,1.62h-1.21a5.77,5.77,0,0,1-.09-1.05,2.12,2.12,0,0,1-2.16,1.21,2.36,2.36,0,0,1-2.39-2.65c0-1.65,1.13-2.92,3.53-2.92a6.36,6.36,0,0,1,1,0v-1.22c0-.71-.14-1.62-1.37-1.62s-1.44,1-1.49,1.58h-1.26a2.49,2.49,0,0,1,2.79-2.65c1.76,0,2.63.85,2.63,2.54Zm-1.28-2.7a4.9,4.9,0,0,0-.9-.06c-1.62,0-2.29.78-2.29,1.8a1.44,1.44,0,0,0,1.43,1.62c1.33,0,1.76-1,1.76-2.88Z"/><path class="c" d="M321.25,245.67h1.3v-2.43h1.29v2.43h1.61v1.13h-1.61v6c0,.63.15,1,.83,1a3.13,3.13,0,0,0,.65-.06v1a3.69,3.69,0,0,1-1.08.14c-1.06,0-1.69-.43-1.69-1.87V246.8h-1.3Z"/><path class="c" d="M326.74,243.87V242h1.33v1.89Zm0,1.8h1.31v9.13h-1.31Z"/><path class="c" d="M336.07,250.13c0,3.21-1.08,4.83-3.14,4.83s-3.15-1.57-3.15-4.81,1.24-4.63,3.21-4.63S336.07,247.05,336.07,250.13Zm-4.94,0c0,2.47.61,3.65,1.8,3.65s1.78-1.2,1.78-3.67-.57-3.49-1.78-3.49S331.13,247.68,331.13,250.17Z"/><path class="c" d="M337.77,248.49c0-1.87,0-2.41,0-2.82H339a10.89,10.89,0,0,1,.06,1.19,2.14,2.14,0,0,1,2.16-1.35c1.31,0,2.34.75,2.34,2.79v6.5h-1.33v-6.25c0-1.12-.36-1.87-1.41-1.87-1.22,0-1.74.81-1.74,2.68v5.44h-1.34Z"/><path class="c" d="M235.54,283.68v-.12c0-1.86,1.34-4.8,4.5-8.22,2.69-2.91,3.59-4.11,3.59-6.57,0-1.95-.59-4-3.09-4-2.09,0-3.17,1.59-3.29,4.2h-1.33c0-2.79,1.41-5.4,4.62-5.4,3.42,0,4.47,2.49,4.47,5.13,0,3-1.11,4.38-3.78,7.2s-3.86,5.16-4.16,6.57h8.51l-.2,1.2Z"/><path class="c" d="M254.79,268.89c0,3.42-.9,5.64-3.51,5.67s-3.42-2.22-3.42-5.58c0-3.51,1.32-5.4,3.48-5.4S254.79,265.17,254.79,268.89Zm-5.67.09c0,3.21.75,4.44,2.22,4.44s2.22-1.23,2.22-4.47c0-2.7-.6-4.23-2.25-4.23C249.87,264.72,249.12,265.89,249.12,269Zm.93,14.7L261,263.82h1.32l-11,19.86Zm14.46-5.37c0,3.42-.87,5.63-3.48,5.67s-3.45-2.16-3.45-5.58,1.32-5.4,3.51-5.4S264.51,274.68,264.51,278.31Zm-5.67.09c0,3.15.75,4.44,2.25,4.44s2.19-1.26,2.19-4.47c0-2.64-.6-4.23-2.22-4.23S258.84,275.49,258.84,278.4Z"/><path class="c" d="M274.76,285.12v-1.37a2.83,2.83,0,0,1-2.78-2.9h.8a2.24,2.24,0,0,0,2,2.21V277.7c-1.52-.78-2.49-1.59-2.49-3.19a2.56,2.56,0,0,1,2.49-2.81v-1.08h.68v1.08a2.56,2.56,0,0,1,2.38,2.68H277a1.92,1.92,0,0,0-1.6-2v4.74c1.77.9,2.61,1.91,2.61,3.53s-.79,2.93-2.61,3.06v1.37Zm0-8.3V272.4a1.79,1.79,0,0,0-1.73,2.06C273,275.56,273.59,276.19,274.76,276.82Zm.68,1.24v5c1.17-.12,1.8-.81,1.8-2.36C277.24,279.55,276.72,278.81,275.44,278.06Z"/><path class="c" d="M280.77,283.68V272.76a5.26,5.26,0,0,1-1.95.81v-.68a6,6,0,0,0,2.16-1.17h.56v12Z"/><path class="c" d="M283.31,283.68v-.08c0-1.11.81-2.88,2.7-4.93,1.62-1.75,2.16-2.47,2.16-3.94,0-1.17-.36-2.4-1.86-2.4-1.26,0-1.91,1-2,2.52h-.79c0-1.67.85-3.24,2.77-3.24s2.69,1.5,2.69,3.08c0,1.78-.67,2.63-2.27,4.32a9.14,9.14,0,0,0-2.51,3.94h5.12l-.13.73Z"/><path class="c" d="M290,285.82a13.08,13.08,0,0,0,.94-4.14h.79a10.51,10.51,0,0,1-1.05,4.14Z"/><path class="c" d="M293.84,283.68V272.76a5.26,5.26,0,0,1-1.95.81v-.68a6.12,6.12,0,0,0,2.16-1.17h.56v12Z"/><path class="c" d="M296.73,280.38c0-2.09.94-2.81,1.59-3.15a2.73,2.73,0,0,1-1.28-2.59c0-1.44.72-3,2.63-3s2.48,1.51,2.48,2.92c0,1.66-.64,2.39-1.31,2.66.92.38,1.6,1.35,1.6,3.19s-.9,3.46-2.9,3.46S296.73,282.22,296.73,280.38Zm4.92,0c0-1.8-.59-2.79-2-2.79-1.61,0-2.07,1.22-2.07,2.71s.59,2.78,2.05,2.78S301.65,282,301.65,280.42Zm-3.8-5.87c0,1.27.41,2.34,1.78,2.34,1.1,0,1.75-.65,1.75-2.32,0-1.12-.47-2.24-1.76-2.24S297.85,273.5,297.85,274.55Z"/><path class="c" d="M309.1,272.49h-3.78c-.09,1.35-.31,3.71-.38,4.45a2.14,2.14,0,0,1,2-1c1.89,0,2.65,1.55,2.65,3.69s-.69,4.2-2.88,4.2-2.7-1.59-2.79-2.94h.82c.08.83.33,2.22,2,2.22s2-1.53,2-3.44c0-1.62-.43-3-1.89-3a2,2,0,0,0-2,1.64l-.75-.18c.16-1.31.43-4.48.56-6.37h4.59Z"/><path class="c" d="M310.27,285.82a13.08,13.08,0,0,0,.94-4.14H312a10.51,10.51,0,0,1-1.05,4.14Z"/><path class="c" d="M313.2,283.68v-.08c0-1.11.81-2.88,2.7-4.93,1.62-1.75,2.17-2.47,2.17-3.94,0-1.17-.36-2.4-1.86-2.4-1.26,0-1.91,1-2,2.52h-.79c0-1.67.84-3.24,2.77-3.24s2.68,1.5,2.68,3.08c0,1.78-.66,2.63-2.26,4.32a9.14,9.14,0,0,0-2.51,3.94h5.12l-.13.73Z"/><path class="c" d="M320.37,280.38c0-2.09.93-2.81,1.58-3.15a2.73,2.73,0,0,1-1.28-2.59c0-1.44.72-3,2.63-3s2.49,1.51,2.49,2.92c0,1.66-.65,2.39-1.32,2.66.92.38,1.61,1.35,1.61,3.19s-.91,3.46-2.9,3.46S320.37,282.22,320.37,280.38Zm4.91,0c0-1.8-.59-2.79-2-2.79s-2.07,1.22-2.07,2.71.59,2.78,2,2.78S325.28,282,325.28,280.42Zm-3.8-5.87c0,1.27.42,2.34,1.79,2.34,1.09,0,1.74-.65,1.74-2.32,0-1.12-.47-2.24-1.76-2.24S321.48,273.5,321.48,274.55Z"/><path class="c" d="M331.67,283.68v-3.37h-4.34v-.72l4.13-7.83h1v7.81h1.23l-.11.74h-1.12v3.37Zm0-7.95c0-.9,0-2.25,0-3.09-.65,1.47-2.47,4.91-3.51,6.93h3.47Z"/><path class="c" d="M242.85,310.58c0,4.18-1,6.41-3.64,6.41s-3.57-2.16-3.57-6.37,1.23-6.21,3.64-6.21S242.85,306.44,242.85,310.58Zm-5.82,0c0,3.5.7,5.24,2.23,5.24s2.2-1.71,2.2-5.22-.7-5-2.22-5S237,307.25,237,310.58Z"/><path class="c" d="M243.91,307.68h1.29v-2.43h1.3v2.43h1.6v1.14h-1.6v6c0,.63.14,1,.83,1a4.06,4.06,0,0,0,.64-.05v1a3.61,3.61,0,0,1-1.08.15c-1.06,0-1.69-.43-1.69-1.87v-6.25h-1.29Z"/><path class="c" d="M250.69,304v4.81a2.16,2.16,0,0,1,2.18-1.28c1.33,0,2.3.85,2.3,2.79v6.5h-1.33v-6.23c0-1.11-.32-1.89-1.44-1.89s-1.71,1.05-1.71,2.63v5.49h-1.33V304Z"/><path class="c" d="M258.18,312.49c0,1.78.31,3.35,1.75,3.35a1.66,1.66,0,0,0,1.65-1.64h1.3a2.9,2.9,0,0,1-3,2.78c-2.68,0-3.06-2.45-3.06-4.74,0-2.88,1-4.7,3.13-4.7,2.41,0,3,2,3,4.25,0,.18,0,.49,0,.7Zm3.46-1c0-1.59-.35-2.81-1.66-2.81-1.67,0-1.76,2.18-1.78,2.81Z"/><path class="c" d="M264.62,310.8c0-1.46,0-2.47,0-3.12h1.26c0,.24.05.67.05,1.62a2.5,2.5,0,0,1,2.41-1.76V309c-1.56.05-2.39,1-2.39,2.72v5.09h-1.32Z"/><path class="c" d="M274.5,304.59v12.22h-1.35V304.59Z"/><path class="c" d="M276.65,310.51c0-1.87,0-2.41,0-2.83h1.28c0,.22,0,.58,0,1.19a2.15,2.15,0,0,1,2.16-1.35c1.32,0,2.34.76,2.34,2.79v6.5h-1.33v-6.24c0-1.12-.36-1.88-1.4-1.88-1.23,0-1.75.81-1.75,2.69v5.43h-1.33Z"/><path class="c" d="M283.49,307.68h1.29v-2.43h1.3v2.43h1.6v1.14h-1.6v6c0,.63.14,1,.83,1a4.29,4.29,0,0,0,.65-.05v1a3.72,3.72,0,0,1-1.09.15c-1.06,0-1.69-.43-1.69-1.87v-6.25h-1.29Z"/><path class="c" d="M289.71,312.49c0,1.78.31,3.35,1.75,3.35a1.68,1.68,0,0,0,1.66-1.64h1.29a2.89,2.89,0,0,1-3,2.78c-2.68,0-3.06-2.45-3.06-4.74,0-2.88,1-4.7,3.13-4.7,2.42,0,3,2,3,4.25,0,.18,0,.49,0,.7Zm3.46-1c0-1.59-.34-2.81-1.66-2.81-1.67,0-1.76,2.18-1.78,2.81Z"/><path class="c" d="M296.16,310.8c0-1.46,0-2.47,0-3.12h1.26c0,.24.06.67.06,1.62a2.48,2.48,0,0,1,2.41-1.76V309c-1.57.05-2.4,1-2.4,2.72v5.09h-1.31Z"/><path class="c" d="M302.12,307.68c.75,3,1.65,6.52,1.83,7.66h0c.13-1,1.49-5.8,1.95-7.66h1.31l-2.61,9.13H303.2l-2.49-9.13Z"/><path class="c" d="M309.3,312.49c0,1.78.3,3.35,1.74,3.35a1.66,1.66,0,0,0,1.66-1.64H314a2.9,2.9,0,0,1-3,2.78c-2.69,0-3.06-2.45-3.06-4.74,0-2.88,1-4.7,3.13-4.7,2.41,0,3,2,3,4.25,0,.18,0,.49,0,.7Zm3.46-1c0-1.59-.35-2.81-1.66-2.81-1.68,0-1.77,2.18-1.78,2.81Z"/><path class="c" d="M315.74,310.51c0-1.87,0-2.41,0-2.83H317a11.24,11.24,0,0,1,.06,1.19,2.14,2.14,0,0,1,2.16-1.35c1.31,0,2.34.76,2.34,2.79v6.5h-1.33v-6.24c0-1.12-.36-1.88-1.41-1.88-1.22,0-1.74.81-1.74,2.69v5.43h-1.34Z"/><path class="c" d="M322.58,307.68h1.3v-2.43h1.29v2.43h1.61v1.14h-1.61v6c0,.63.15,1,.83,1a4.09,4.09,0,0,0,.65-.05v1a3.66,3.66,0,0,1-1.08.15c-1.06,0-1.69-.43-1.69-1.87v-6.25h-1.3Z"/><path class="c" d="M328.07,305.88V304h1.33v1.89Zm0,1.8h1.32v9.13h-1.32Z"/><path class="c" d="M337.4,312.15c0,3.2-1.08,4.83-3.14,4.83s-3.15-1.57-3.15-4.81,1.25-4.63,3.21-4.63S337.4,309.07,337.4,312.15Zm-4.94,0c0,2.46.62,3.65,1.8,3.65s1.79-1.21,1.79-3.67-.58-3.5-1.79-3.5S332.46,309.7,332.46,312.19Z"/><path class="c" d="M339.11,310.51c0-1.87,0-2.41,0-2.83h1.28c0,.22.05.58.05,1.19a2.15,2.15,0,0,1,2.16-1.35c1.32,0,2.34.76,2.34,2.79v6.5h-1.33v-6.24c0-1.12-.36-1.88-1.41-1.88-1.22,0-1.74.81-1.74,2.69v5.43h-1.33Z"/><path class="c" d="M347.73,314.18a1.57,1.57,0,0,0,1.6,1.71,1.33,1.33,0,0,0,1.48-1.44c0-.93-.47-1.36-1.68-1.83-1.89-.72-2.43-1.41-2.43-2.68a2.34,2.34,0,0,1,2.61-2.42,2.4,2.4,0,0,1,2.63,2.61h-1.28c0-.45-.12-1.53-1.38-1.53a1.15,1.15,0,0,0-1.26,1.26c0,.74.32,1.08,1.58,1.59,1.76.66,2.54,1.31,2.54,2.88s-1.05,2.65-2.86,2.65a2.62,2.62,0,0,1-2.87-2.8Z"/><path class="c" d="M242.79,346v-5.61h-7.22v-1.2l6.86-13.05h1.68v13h2l-.18,1.23h-1.86V346Zm0-13.23c0-1.5,0-3.75.06-5.16-1.08,2.46-4.1,8.19-5.85,11.55h5.79Z"/><path class="c" d="M248.34,340.48c0-3.47,1.57-4.67,2.64-5.24-1.23-.63-2.13-2.1-2.13-4.32,0-2.4,1.2-5,4.38-5s4.15,2.52,4.15,4.86c0,2.76-1.09,4-2.2,4.44,1.53.63,2.67,2.25,2.67,5.3,0,3.25-1.5,5.76-4.83,5.76S248.34,343.55,248.34,340.48Zm8.19.07c0-3-1-4.65-3.42-4.65-2.67,0-3.44,2-3.44,4.53s1,4.62,3.41,4.62S256.53,343.19,256.53,340.55Zm-6.32-9.78c0,2.13.68,3.9,3,3.9,1.83,0,2.91-1.08,2.91-3.87,0-1.86-.78-3.72-2.94-3.72S250.21,329,250.21,330.77Z"/><path class="c" d="M266.88,331.19c0,3.42-.89,5.64-3.5,5.67s-3.42-2.22-3.42-5.58,1.32-5.4,3.48-5.4S266.88,327.47,266.88,331.19Zm-5.67.09c0,3.21.75,4.44,2.23,4.44s2.22-1.23,2.22-4.47c0-2.7-.61-4.23-2.25-4.23C262,327,261.21,328.19,261.21,331.28Zm.94,14.7,10.91-19.86h1.32L263.44,346Zm14.45-5.37c0,3.41-.87,5.63-3.47,5.66s-3.46-2.16-3.46-5.57,1.33-5.4,3.51-5.4S276.6,337,276.6,340.61Zm-5.67.09c0,3.15.75,4.44,2.25,4.44s2.2-1.26,2.2-4.47c0-2.64-.61-4.23-2.22-4.23S270.93,337.79,270.93,340.7Z"/><path class="c" d="M286.85,347.42v-1.37a2.82,2.82,0,0,1-2.77-2.9h.79a2.26,2.26,0,0,0,2,2.21V340c-1.52-.78-2.49-1.59-2.49-3.19a2.56,2.56,0,0,1,2.49-2.81v-1.08h.68V334a2.56,2.56,0,0,1,2.38,2.68h-.78a1.92,1.92,0,0,0-1.6-2v4.74c1.77.9,2.61,1.91,2.61,3.53s-.79,2.93-2.61,3.06v1.37Zm0-8.31V334.7a1.79,1.79,0,0,0-1.73,2.06C285.12,337.86,285.68,338.48,286.85,339.11Zm.68,1.25v5c1.17-.12,1.8-.81,1.8-2.36C289.33,341.85,288.81,341.11,287.53,340.36Z"/><path class="c" d="M291.53,336.68a2.56,2.56,0,0,1,2.61-2.77c1.87,0,2.46,1.37,2.46,2.9s-.66,2.34-1.44,2.61v0c1.1.38,1.8,1.26,1.8,3.15,0,1.67-.66,3.55-2.91,3.55s-2.76-1.66-2.81-3H292a2.11,2.11,0,0,0,2.06,2.25c1.72,0,2.08-1.6,2.08-2.79,0-2.31-1.15-2.79-2.43-2.79h-.52v-.71h.52c1.19,0,2.09-.56,2.09-2.3,0-1.24-.45-2.2-1.71-2.2-1.65,0-1.8,1.6-1.83,2.05Z"/><path class="c" d="M299.27,343.82a1.67,1.67,0,0,0,1.76,1.6c1.91,0,2.07-2.88,2.14-5.6a2.12,2.12,0,0,1-2.17,1.4c-1.75,0-2.63-1.33-2.63-3.53,0-2.61,1.2-3.78,2.82-3.78s2.78,1,2.78,5c0,5-.62,7.26-3,7.26a2.38,2.38,0,0,1-2.53-2.32Zm-.11-6.13c0,1.5.49,2.79,1.93,2.79s2-1.17,2-2.62-.27-3.23-1.94-3.23C300,334.63,299.16,335.62,299.16,337.69Z"/><path class="c" d="M305.26,346v-.08c0-1.11.81-2.88,2.7-4.93,1.62-1.75,2.16-2.47,2.16-3.94,0-1.17-.36-2.4-1.85-2.4-1.26,0-1.91,1-2,2.52h-.8c0-1.67.85-3.24,2.78-3.24S311,335.41,311,337c0,1.78-.67,2.63-2.27,4.32a9.09,9.09,0,0,0-2.5,3.94h5.11l-.12.73Z"/><path class="c" d="M312,348.12a12.82,12.82,0,0,0,.94-4.14h.79a10.75,10.75,0,0,1-1,4.14Z"/><path class="c" d="M315.75,343.82a1.67,1.67,0,0,0,1.77,1.6c1.91,0,2.07-2.88,2.14-5.6a2.12,2.12,0,0,1-2.18,1.4c-1.74,0-2.63-1.33-2.63-3.53,0-2.61,1.21-3.78,2.83-3.78s2.77,1,2.77,5c0,5-.61,7.26-3,7.26a2.37,2.37,0,0,1-2.52-2.32Zm-.1-6.13c0,1.5.48,2.79,1.92,2.79s2-1.17,2-2.62-.27-3.23-1.94-3.23C316.44,334.63,315.65,335.62,315.65,337.69Z"/><path class="c" d="M322.09,342.68c0-2.09.94-2.81,1.58-3.15a2.74,2.74,0,0,1-1.27-2.59c0-1.44.72-3,2.62-3s2.49,1.51,2.49,2.92c0,1.65-.65,2.39-1.31,2.66.91.38,1.6,1.35,1.6,3.19s-.9,3.46-2.9,3.46S322.09,344.52,322.09,342.68Zm4.92,0c0-1.8-.6-2.79-2.06-2.79s-2.07,1.22-2.07,2.71.6,2.78,2.05,2.78S327,344.3,327,342.72Zm-3.8-5.87c0,1.27.41,2.34,1.78,2.34,1.1,0,1.75-.65,1.75-2.33,0-1.11-.47-2.23-1.77-2.23S323.21,335.8,323.21,336.85Z"/><path class="c" d="M329,346v-.08c0-1.11.81-2.88,2.7-4.93,1.62-1.75,2.16-2.47,2.16-3.94,0-1.17-.36-2.4-1.85-2.4-1.27,0-1.91,1-2,2.52h-.79c0-1.67.85-3.24,2.78-3.24s2.68,1.5,2.68,3.08c0,1.78-.67,2.63-2.27,4.32a9.09,9.09,0,0,0-2.5,3.94H335l-.13.73Z"/><path class="c" d="M335.66,348.12a12.82,12.82,0,0,0,.94-4.14h.79a10.75,10.75,0,0,1-1,4.14Z"/><path class="c" d="M343.19,336.4c0-.13-.11-1.77-1.66-1.77-2.18,0-2.23,3.46-2.29,5a2.44,2.44,0,0,1,2.31-1.4c1.93,0,2.7,1.6,2.7,3.8s-.72,4.08-2.9,4.08c-2.47,0-2.92-2.52-2.92-5.95,0-3.73.74-6.29,3.14-6.29a2.38,2.38,0,0,1,2.37,2.49Zm.23,5.7c0-1.8-.52-3.11-2-3.11a2.27,2.27,0,0,0-2.22,2.45c0,1.6.35,4,2.13,4C342.59,345.44,343.42,344.41,343.42,342.1Z"/><path class="c" d="M345.31,346v-.08c0-1.11.81-2.88,2.7-4.93,1.62-1.75,2.16-2.47,2.16-3.94,0-1.17-.36-2.4-1.85-2.4-1.26,0-1.91,1-2,2.52h-.8c0-1.67.85-3.24,2.78-3.24S351,335.41,351,337c0,1.78-.67,2.63-2.27,4.32a9.09,9.09,0,0,0-2.5,3.94h5.11l-.12.73Z"/><path class="c" d="M357.77,334.06v.68A35.63,35.63,0,0,0,354.11,346h-.83A35.38,35.38,0,0,1,357,334.81h-4.83v-.75Z"/><polyline class="i" points="219.83 127.51 193.94 127.51 193.94 238.45 179.14 238.45"/><polyline class="i" points="219.83 61.13 184.22 61.13 184.22 169.41 173 169.41"/><polyline class="i" points="219.83 187.63 203.84 187.63 203.84 291.93 124.53 291.93"/><circle class="g" cx="219.83" cy="61.13" r="3.45"/><circle class="f" cx="219.83" cy="127.51" r="3.45"/><circle class="d" cx="219.83" cy="187.63" r="3.45"/><polyline class="i" points="219.83 249.77 212.93 249.77 212.93 314.28 104.24 314.28 104.24 295.13"/><circle class="e" cx="219.83" cy="249.77" r="3.45"/><circle class="h" cx="219.83" cy="310.83" r="3.45"/><polyline class="i" points="219.83 314.28 219.83 337.63 76.98 337.63 76.98 291.93"/></svg>