<svg xmlns="http://www.w3.org/2000/svg" viewBox="0 0 455.61 616.08"><defs><style>.a{fill:#fff;}</style></defs><rect width="455.61" height="616.08"/><path class="a" d="M2.52,45.14V31.38a7.23,7.23,0,0,1-2.26.68V30.64a6.12,6.12,0,0,0,2.81-1.42h1.2V45.14Z" transform="translate(0)"/><path class="a" d="M7,45.16V41.85H8.74v3.31Z" transform="translate(0)"/><path class="a" d="M15.84,68.67h2.79V82.78H30.2V68.67h2.73v32.64H30.2v-16H18.63v16H15.84Z" transform="translate(0)"/><path class="a" d="M54.15,88.93c0,8.4-2.69,12.82-8,12.82-5.52,0-8.07-4.28-8.07-12.77,0-8.31,3.17-12.2,8.16-12.2S54.15,80.82,54.15,88.93ZM40.9,89c0,7.11,1.92,10.33,5.28,10.33S51.36,96,51.36,89c0-6.53-1.77-9.8-5.23-9.8C42.91,79.18,40.9,82,40.9,89Z" transform="translate(0)"/><path class="a" d="M59.71,77.17C62.26,88.93,63.55,94.83,64,98.24h0c.48-3.12,1.49-7,4.8-21.07h2.69c3.22,14,4.22,18.33,4.56,20.93h.05c.38-2.69,1.44-7.35,4.51-20.93h2.79l-6,24.14h-3c-1.83-8.11-3.84-16.75-4.42-20.59h0c-.48,3.65-2.35,11.14-4.61,20.59H62.4L56.83,77.17Z" transform="translate(0)"/><path class="a" d="M96.24,101.31V68.81h6.58c6.72,18,8,21.41,8.4,23h0c-.24-3.89-.29-8.69-.29-14v-9h5.23v32.5h-6.34c-7-19.15-8.16-22.61-8.59-24.09h0c.24,4,.24,8.78.24,14.64v9.45Z" transform="translate(0)"/><path class="a" d="M126.14,90.37c0,3.17.39,6.67,3.56,6.67,2.88,0,3.21-2.45,3.36-3.26h5.47c-.1.77-.67,8-8.88,8s-9.22-6.77-9.22-13.05c0-7.88,3-12.68,9.32-12.68,7.2,0,9,5.38,9,11.86,0,.86-.05,2-.09,2.45Zm6.92-4.13c0-2.45-.29-5.52-3.31-5.52-3.32,0-3.51,3.7-3.51,5.52Z" transform="translate(0)"/><path class="a" d="M146.54,76.45c1.78,10.94,2.45,15.45,2.84,18.72h.09c.39-3.36,1.44-7,3.65-18.72h5.19c1.87,9.36,3.21,15.74,3.5,18.62h.05c.38-2.59.86-6.09,3.07-18.62h5.66l-6,24.86h-5.76c-1.54-7.58-2.74-13.44-3.27-17h-.05c-.43,3.5-1.92,9.6-3.55,17H146l-5.57-24.86Z" transform="translate(0)"/><path class="a" d="M187.82,101.31V89.84a2.68,2.68,0,0,0-.19-1.06l-8.21-20h6.48c1.83,5.09,4.08,11.38,5,14.93,1.2-4,3.41-10.08,5-14.93h6.15l-8.26,20a3.23,3.23,0,0,0-.19,1.11v11.37Z" transform="translate(0)"/><path class="a" d="M218.64,88.69c0,9-3.31,13.1-9.41,13.1s-9.26-3.88-9.26-13c0-8.83,3.69-12.77,9.55-12.77S218.64,80.38,218.64,88.69Zm-12.86.09c0,5.33.86,8.21,3.64,8.21,2.55,0,3.46-2.83,3.46-8.16s-.91-8-3.5-8S205.78,83.46,205.78,88.78Z" transform="translate(0)"/><path class="a" d="M222.62,84.9c0-4.08,0-6.68-.05-8.45h5.48c0,.43.14,1.49.14,4.13a6.27,6.27,0,0,1,6.48-4.52V82.5c-4-.1-6.34,1-6.34,5.76v13h-5.71Z" transform="translate(0)"/><path class="a" d="M243.45,87.06c1.73-3.12,4-7.11,6.1-10.61h6.29c-2,3.12-3.89,6-6,9.12l6.38,15.74h-6.48L246,90.18c-.67,1-1.87,2.73-2.5,3.64v7.49h-5.71V67.23h5.71Z" transform="translate(0)"/><path class="a" d="M286.37,91.86c-.15,1.63-.77,10-9.75,10-9.26,0-10.32-8.11-10.32-16.85,0-10.51,3.07-16.71,10.66-16.71,8.59,0,9.26,7.4,9.41,10h-5.76c-.1-1.1-.15-5.09-3.75-5.09s-4.56,4.47-4.56,11.91c0,6.14.63,11.9,4.42,11.9,3.45,0,3.74-3.93,3.89-5.18Z" transform="translate(0)"/><path class="a" d="M290.06,76.45h5.71v24.86h-5.71Zm.05-3.55V67.23h5.71V72.9Z" transform="translate(0)"/><path class="a" d="M298.7,76.45H302v-6.2h5.72v6.2h3.84v4.7h-3.84V94.79c0,1.44.29,2.25,2.06,2.25a7.22,7.22,0,0,0,1.44-.09v4.17a9.42,9.42,0,0,1-3.5.53c-4,0-5.72-1.49-5.72-6V81.15H298.7Z" transform="translate(0)"/><path class="a" d="M319.68,76.45c1.82,8,3.55,14.78,3.84,17.76h0c.58-3.51,2.21-10.75,3.89-17.76h5.76l-7.15,26c-2.11,7.77-4.9,8.21-8.35,8.21a12.14,12.14,0,0,1-2.26-.2v-4.84c.34,0,1.25.09,1.83.09,2.16,0,2.92-1.1,3.6-4l-7.49-25.2Z" transform="translate(0)"/><path class="a" d="M334.17,78.08A43.32,43.32,0,0,0,335.85,67h3.41A33.49,33.49,0,0,1,337,78.08Z" transform="translate(0)"/><path class="a" d="M343.29,94.3c.14,2.6,1.49,4.57,4.27,4.57s3.94-1.59,3.94-3.85c0-2.49-1.25-3.64-4.46-4.89-5-1.92-6.49-3.75-6.49-7.15s2-6.44,7-6.44c5.42,0,7,3.7,7,7h-3.4c-.1-1.2-.34-4.08-3.7-4.08a3.08,3.08,0,0,0-3.36,3.36c0,2,.86,2.88,4.22,4.23,4.71,1.77,6.77,3.5,6.77,7.68,0,4.46-2.78,7.06-7.63,7.06-5,0-7.54-3-7.63-7.45Z" transform="translate(0)"/><path class="a" d="M30,157.52c0,6.15-1.35,10.71-8.12,10.71-6,0-7.29-4-7.44-6.53h2.74a4.36,4.36,0,0,0,4.75,4.17c4.46,0,5.38-3.21,5.38-8.35v-2.64a5.56,5.56,0,0,1-5.76,4c-4.8,0-7.3-4-7.3-11.77,0-8.83,3.31-12.72,7.82-12.72,3.32,0,4.8,1.59,5.24,3.36a28.72,28.72,0,0,1,.19-3H30c0,1.15,0,3.65,0,6.86Zm-7.88-1.1c4.08,0,5.28-4.08,5.28-9.84,0-6.2-1-9.75-4.94-9.75-3.55,0-5.38,3.65-5.38,10.27C17,153.3,18.77,156.42,22.08,156.42Z" transform="translate(0)"/><path class="a" d="M50.88,146.53c0,8.4-2.69,12.82-8,12.82-5.52,0-8.06-4.28-8.06-12.77,0-8.31,3.17-12.2,8.16-12.2S50.88,138.42,50.88,146.53Zm-13.25.09c0,7.11,1.92,10.33,5.28,10.33s5.19-3.32,5.19-10.37c0-6.53-1.78-9.8-5.23-9.8C39.65,136.78,37.63,139.57,37.63,146.62Z" transform="translate(0)"/><path class="a" d="M56.3,134.77c2.16,8.21,4.85,18.38,5.29,20.93h0c.29-2.26,4.52-16.76,5.57-20.93h2.74l-7,24.14H60.05l-6.63-24.14Z" transform="translate(0)"/><path class="a" d="M74.88,147.2c0,5.33,1,9.75,5.09,9.75s4.7-4,4.85-4.76h2.69c-.05.58-.77,7.16-7.54,7.16s-7.83-6.48-7.83-12.49c0-7.63,2.5-12.48,8-12.48,6.1,0,7.54,5.19,7.54,11.14,0,.34,0,1,0,1.68ZM85,144.94c0-4.84-1.1-8.2-4.85-8.2-4.85,0-5.09,6.57-5.18,8.2Z" transform="translate(0)"/><path class="a" d="M92.35,143c0-3.84,0-6.52,0-8.25h2.6c0,.72.09,1.87.09,4.41a6.91,6.91,0,0,1,6.44-4.8v3c-4.28.19-6.39,3.36-6.39,7.78v13.77H92.35Z" transform="translate(0)"/><path class="a" d="M104.64,142.21c0-5,0-6.39,0-7.44h2.59a32.45,32.45,0,0,1,.15,3.41,5.74,5.74,0,0,1,5.85-3.84c3.32,0,6.2,1.82,6.2,7.39v17.18h-2.74V142.16c0-3.12-1.1-5.33-4.08-5.33-3.7,0-5.18,2.5-5.18,7.92v14.16h-2.74Z" transform="translate(0)"/><path class="a" d="M125.42,142c0-4.13,0-6.1,0-7.25H128a32.83,32.83,0,0,1,.14,3.31,5.41,5.41,0,0,1,5.43-3.7c2.49,0,4.32,1,5,3.7a5.83,5.83,0,0,1,5.81-3.7c2.83,0,5.76,1.35,5.76,6.92v17.61h-2.69V141.82c0-2.64-.77-5-3.75-5-3.36,0-4.56,3.12-4.56,6.43v15.65h-2.69v-17c0-3.31-1.1-5.09-3.64-5.09-3.17,0-4.71,3-4.71,6.87v15.21h-2.69Z" transform="translate(0)"/><path class="a" d="M157.63,147.2c0,5.33,1,9.75,5.09,9.75s4.7-4,4.85-4.76h2.69c0,.58-.77,7.16-7.54,7.16s-7.82-6.48-7.82-12.49c0-7.63,2.49-12.48,8-12.48,6.1,0,7.54,5.19,7.54,11.14,0,.34,0,1,0,1.68Zm10.08-2.26c0-4.84-1.1-8.2-4.85-8.2-4.84,0-5.08,6.57-5.18,8.2Z" transform="translate(0)"/><path class="a" d="M175.1,142.21c0-5,0-6.39,0-7.44h2.59a33.65,33.65,0,0,1,.14,3.41,5.76,5.76,0,0,1,5.86-3.84c3.31,0,6.19,1.82,6.19,7.39v17.18H187.1V142.16c0-3.12-1.1-5.33-4.08-5.33-3.69,0-5.18,2.5-5.18,7.92v14.16H175.1Z" transform="translate(0)"/><path class="a" d="M192.77,134.77h3.5v-6.58h2.64v6.58h4.37v2.4h-4.37V154c0,1.78.39,2.93,2.26,2.93a10,10,0,0,0,1.82-.15v2.12a8.61,8.61,0,0,1-2.64.38c-2.45,0-4.08-1.06-4.08-4.66V137.17h-3.5Z" transform="translate(0)"/><path class="a" d="M216,129.49v-4.8h2.69v4.8Zm0,5.28h2.69v24.14H216Z" transform="translate(0)"/><path class="a" d="M225.55,152.1c.24,2.93,1.78,4.94,4.75,4.94a4,4,0,0,0,4.32-4.32c0-2.78-1.44-4-4.75-5.33-4.7-1.82-6.19-3.55-6.19-6.86s2-6.19,6.57-6.19c5,0,6.58,3.4,6.63,6.67h-2.69c-.09-1.3-.43-4.32-4-4.32a3.4,3.4,0,0,0-3.74,3.74c0,2.07.86,3.12,4.36,4.47,4.47,1.77,6.63,3.4,6.63,7.63s-2.69,6.82-7.3,6.82-7.1-2.84-7.25-7.25Z" transform="translate(0)"/><path class="a" d="M264.53,155a32.46,32.46,0,0,0,.19,3.88h-2.5A16.22,16.22,0,0,1,262,156c-.86,2.11-2.78,3.36-5.81,3.36-4.65,0-6.28-3.6-6.28-6.92,0-4.22,2.83-7.63,9.26-7.63,1.25,0,2,0,2.74,0v-3.41c0-2.06-.44-4.75-4-4.75-4,0-4.22,2.93-4.36,4.56h-2.64c.09-3.41,1.72-6.87,7-6.87,4.51,0,6.63,2.21,6.63,6.63Zm-2.6-7.88a17.86,17.86,0,0,0-2.64-.14c-4.7,0-6.67,2.3-6.67,5.23,0,2.55,1.35,4.71,4.13,4.71,3.79,0,5.18-2.6,5.18-8.26Z" transform="translate(0)"/><path class="a" d="M270.57,158.91V124.69h2.69v34.22Z" transform="translate(0)"/><path class="a" d="M279.45,158.91V124.69h2.69v34.22Z" transform="translate(0)"/><path class="a" d="M303,146.53c0,8.4-2.68,12.82-8,12.82-5.52,0-8.06-4.28-8.06-12.77,0-8.31,3.17-12.2,8.16-12.2S303,138.42,303,146.53Zm-13.25.09c0,7.11,1.92,10.33,5.28,10.33s5.19-3.32,5.19-10.37c0-6.53-1.78-9.8-5.23-9.8C291.74,136.78,289.72,139.57,289.72,146.62Z" transform="translate(0)"/><path class="a" d="M321.74,151.86c-.1,1-.67,7.49-7.39,7.49-6.05,0-7.78-5.57-7.78-12.53s2.26-12.48,8.11-12.48c6.68,0,7.06,6.38,7.06,7.39H319c0-1-.48-5-4.28-5s-5.32,4.22-5.32,10c0,6.29,1.53,10.18,5.13,10.18,3.79,0,4.32-3.84,4.51-5.09Z" transform="translate(0)"/><path class="a" d="M339.5,155a34.78,34.78,0,0,0,.19,3.88H337.2A15.35,15.35,0,0,1,337,156c-.87,2.11-2.79,3.36-5.81,3.36-4.66,0-6.29-3.6-6.29-6.92,0-4.22,2.83-7.63,9.26-7.63,1.25,0,2,0,2.74,0v-3.41c0-2.06-.43-4.75-4-4.75-4,0-4.23,2.93-4.37,4.56h-2.64c.1-3.41,1.73-6.87,7.06-6.87,4.51,0,6.62,2.21,6.62,6.63Zm-2.59-7.88a18,18,0,0,0-2.64-.14c-4.71,0-6.67,2.3-6.67,5.23,0,2.55,1.34,4.71,4.12,4.71,3.8,0,5.19-2.6,5.19-8.26Z" transform="translate(0)"/><path class="a" d="M342.43,134.77h3.5v-6.58h2.64v6.58h4.37v2.4h-4.37V154c0,1.78.39,2.93,2.26,2.93a10,10,0,0,0,1.82-.15v2.12a8.61,8.61,0,0,1-2.64.38c-2.45,0-4.08-1.06-4.08-4.66V137.17h-3.5Z" transform="translate(0)"/><path class="a" d="M356.54,129.49v-4.8h2.69v4.8Zm0,5.28h2.69v24.14h-2.69Z" transform="translate(0)"/><path class="a" d="M365.27,142.21c0-5,0-6.39,0-7.44h2.59a33.65,33.65,0,0,1,.14,3.41,5.76,5.76,0,0,1,5.86-3.84c3.31,0,6.19,1.82,6.19,7.39v17.18h-2.73V142.16c0-3.12-1.11-5.33-4.08-5.33-3.7,0-5.19,2.5-5.19,7.92v14.16h-2.74Z" transform="translate(0)"/><path class="a" d="M400.51,157.52c0,6.15-1.35,10.71-8.12,10.71-6,0-7.29-4-7.44-6.53h2.74a4.37,4.37,0,0,0,4.75,4.17c4.47,0,5.38-3.21,5.38-8.35v-2.64a5.56,5.56,0,0,1-5.76,4c-4.8,0-7.3-4-7.3-11.77,0-8.83,3.31-12.72,7.83-12.72,3.31,0,4.8,1.59,5.23,3.36a28.72,28.72,0,0,1,.19-3h2.54c0,1.15,0,3.65,0,6.86Zm-7.88-1.1c4.08,0,5.28-4.08,5.28-9.84,0-6.2-1-9.75-4.94-9.75-3.55,0-5.38,3.65-5.38,10.27C387.59,153.3,389.32,156.42,392.63,156.42Z" transform="translate(0)"/><path class="a" d="M31.54,208.11c-.1,2-.58,8.84-8.79,8.84-7.1,0-8.88-5.72-8.88-13.06,0-6.58,2.21-12.67,9.22-12.67,8.11,0,8.4,7,8.45,8.54H25.73c-.05-1-.14-3.84-2.69-3.84s-3.36,2.83-3.36,8,.77,8.25,3.27,8.25c2.68,0,2.88-2.69,3-4.08Z" transform="translate(0)"/><path class="a" d="M51.6,211.09c0,1.25.1,4.32.19,5.42H46.61a14.28,14.28,0,0,1-.24-2.3c-1,1.58-2.59,2.74-5.62,2.74-4.75,0-6.62-3.8-6.62-7.35,0-5.09,3.5-8.21,9.79-8.21.87,0,1.49,0,2.07.05v-2.69c0-1.44-.2-3.17-2.69-3.17s-2.64,1.59-2.79,3.22H35c.1-3.65,1.83-7.54,8.5-7.54,5.33,0,8.06,2.4,8.06,7.16Zm-5.47-5.47a10.82,10.82,0,0,0-1.87-.1c-3.27,0-4.47,1.54-4.47,3.55,0,1.49.72,3.22,2.88,3.22,2.93,0,3.46-2.21,3.46-5.86Z" transform="translate(0)"/><path class="a" d="M56.74,225.49V198.85c0-3.36,0-5.62-.05-7.2h5.52c0,.57.14,1.82.14,2.73.82-1.58,2.26-3.12,5.57-3.12,4.61,0,7.3,3.94,7.3,12.44,0,9.69-3.22,13.29-8,13.29-2.59,0-4-1.05-4.75-2.4v10.9Zm9-29.38c-2.88,0-3.5,2.74-3.5,7.59,0,5.71.33,8.4,3.45,8.4,2.5,0,3.7-2.69,3.7-8.16C69.41,198,68.16,196.11,65.76,196.11Z" transform="translate(0)"/><path class="a" d="M79.15,191.65h5.72v24.86H79.15Zm0-3.55v-5.67h5.71v5.67Z" transform="translate(0)"/><path class="a" d="M87.79,191.65h3.27v-6.19h5.71v6.19h3.84v4.7H96.77V210c0,1.44.29,2.25,2.06,2.25a7.22,7.22,0,0,0,1.44-.09v4.17a9.42,9.42,0,0,1-3.5.53c-4,0-5.71-1.49-5.71-5.95V196.35H87.79Z" transform="translate(0)"/><path class="a" d="M120.14,211.09c0,1.25.1,4.32.2,5.42h-5.19a15.51,15.51,0,0,1-.24-2.3c-1,1.58-2.59,2.74-5.61,2.74-4.76,0-6.63-3.8-6.63-7.35,0-5.09,3.51-8.21,9.79-8.21.87,0,1.49,0,2.07.05v-2.69c0-1.44-.19-3.17-2.69-3.17s-2.64,1.59-2.78,3.22h-5.48c.1-3.65,1.83-7.54,8.5-7.54,5.33,0,8.06,2.4,8.06,7.16Zm-5.47-5.47a10.82,10.82,0,0,0-1.87-.1c-3.26,0-4.46,1.54-4.46,3.55,0,1.49.72,3.22,2.88,3.22,2.92,0,3.45-2.21,3.45-5.86Z" transform="translate(0)"/><path class="a" d="M125.28,216.51V182.43H131v34.08Z" transform="translate(0)"/><path class="a" d="M145,182.43h5.71v11.71c.86-1.53,2.49-2.88,5.52-2.88,5.09,0,7.25,4.47,7.25,12.15,0,7.87-1.92,13.54-8,13.54-3.22,0-4.27-1.59-4.94-2.84,0,.58-.05,1.68-.1,2.4H145c0-1.63,0-4.46,0-7Zm9.26,13.68c-2.78,0-3.74,2-3.74,8.11,0,5.81.81,7.88,3.5,7.88s3.7-2.6,3.7-8.6C157.73,198.7,157.06,196.11,154.27,196.11Z" transform="translate(0)"/><path class="a" d="M184.66,209.22c0,3.6,0,6,0,7.29h-5.47a17,17,0,0,1-.19-2.73c-1.11,2.3-2.93,3.17-5.57,3.17-3.5,0-6.19-1.73-6.19-7.45V191.65H173v16.56c0,2.45.53,3.84,2.64,3.84s3.31-1.2,3.31-5.14V191.65h5.72Z" transform="translate(0)"/><path class="a" d="M207.07,182.43V209.6c0,2.93,0,5.47.05,6.91H201.6a21.85,21.85,0,0,1-.19-2.64c-.72,1.78-2.21,3.08-5.52,3.08-5.24,0-7.35-4.71-7.35-13.06,0-7.63,2.5-12.63,8.31-12.63,2.68,0,4,1,4.46,1.92V182.43Zm-9.22,29.67c3,0,3.65-2.31,3.65-8.31,0-5.76-.48-7.68-3.41-7.68-2.3,0-3.69,1.78-3.69,7.87C194.4,209.75,195.45,212.1,197.85,212.1Z" transform="translate(0)"/><path class="a" d="M229.44,214.5c0,7.05-2.07,11.37-9.55,11.37-7.11,0-8.6-4.17-8.74-7.2h5.71c.1.77.34,2.55,3.22,2.55,3.12,0,3.69-2.35,3.69-6.72v-1.11c-1,2-2.83,2.93-5.32,2.93-5.28,0-7.54-4.61-7.54-11.95,0-8.5,3.07-13.11,8.06-13.11,3.27,0,4.42,1.54,4.8,2.6,0-.72.15-1.59.24-2.21h5.48c-.05,1.53-.05,4-.05,7.49Zm-9.07-3c2.88,0,3.5-2.78,3.5-8.06,0-4.47-.24-7.35-3.36-7.35-2.4,0-3.7,2.5-3.7,8.11C216.81,209.31,218,211.52,220.37,211.52Z" transform="translate(0)"/><path class="a" d="M239.08,205.57c0,3.17.39,6.67,3.56,6.67,2.88,0,3.21-2.45,3.36-3.26h5.47c-.1.77-.67,8-8.88,8-8.06,0-9.22-6.76-9.22-13.05,0-7.88,3-12.68,9.32-12.68,7.2,0,9,5.38,9,11.86,0,.86,0,2-.09,2.45Zm6.92-4.13c0-2.45-.29-5.52-3.31-5.52-3.32,0-3.51,3.7-3.51,5.52Z" transform="translate(0)"/><path class="a" d="M253.24,191.65h3.27v-6.19h5.71v6.19h3.84v4.7h-3.84V210c0,1.44.29,2.25,2.06,2.25a7.22,7.22,0,0,0,1.44-.09v4.17a9.42,9.42,0,0,1-3.5.53c-4,0-5.71-1.49-5.71-5.95V196.35h-3.27Z" transform="translate(0)"/><path class="a" d="M275.75,192.37h3.51v-6.58h2.64v6.58h4.37v2.4H281.9v16.8c0,1.78.38,2.93,2.25,2.93a10,10,0,0,0,1.83-.15v2.12a8.61,8.61,0,0,1-2.64.38c-2.45,0-4.08-1.06-4.08-4.66V194.77h-3.51Z" transform="translate(0)"/><path class="a" d="M304.22,204.13c0,8.4-2.69,12.82-8,12.82-5.52,0-8.06-4.28-8.06-12.77,0-8.31,3.16-12.2,8.16-12.2S304.22,196,304.22,204.13Zm-13.25.09c0,7.11,1.92,10.33,5.28,10.33s5.19-3.32,5.19-10.37c0-6.53-1.78-9.8-5.24-9.8C293,194.38,291,197.17,291,204.22Z" transform="translate(0)"/><path class="a" d="M318.33,199.62c0-4.13,0-6.1-.05-7.25h2.59a29.76,29.76,0,0,1,.15,3.31,5.39,5.39,0,0,1,5.42-3.7c2.5,0,4.32,1,5,3.7a5.84,5.84,0,0,1,5.81-3.7c2.83,0,5.76,1.35,5.76,6.92v17.61h-2.69V199.42c0-2.64-.76-5-3.74-5-3.36,0-4.56,3.12-4.56,6.43v15.65h-2.69v-17c0-3.31-1.1-5.09-3.65-5.09-3.17,0-4.7,3-4.7,6.87v15.21h-2.69Z" transform="translate(0)"/><path class="a" d="M349.05,187.09v-4.8h2.69v4.8Zm0,5.28h2.69v24.14h-2.69Z" transform="translate(0)"/><path class="a" d="M355.1,192.37h3.5v-6.58h2.64v6.58h4.37v2.4h-4.37v16.8c0,1.78.39,2.93,2.26,2.93a10,10,0,0,0,1.82-.15v2.12a8.61,8.61,0,0,1-2.64.38c-2.45,0-4.08-1.06-4.08-4.66V194.77h-3.5Z" transform="translate(0)"/><path class="a" d="M369.21,187.09v-4.8h2.69v4.8Zm0,5.28h2.69v24.14h-2.69Z" transform="translate(0)"/><path class="a" d="M392.39,215.12c0,6.15-1.34,10.71-8.11,10.71-6,0-7.3-4-7.44-6.53h2.74a4.36,4.36,0,0,0,4.75,4.17c4.46,0,5.38-3.21,5.38-8.35v-2.64a5.56,5.56,0,0,1-5.77,4c-4.8,0-7.29-4-7.29-11.77,0-8.83,3.31-12.72,7.82-12.72,3.32,0,4.8,1.59,5.24,3.36a28.72,28.72,0,0,1,.19-3h2.54c-.05,1.15-.05,3.65-.05,6.86Zm-7.87-1.1c4.08,0,5.28-4.08,5.28-9.84,0-6.2-1-9.75-4.94-9.75-3.56,0-5.38,3.65-5.38,10.27C379.48,210.9,381.21,214,384.52,214Z" transform="translate(0)"/><path class="a" d="M411.54,212.63a31.92,31.92,0,0,0,.2,3.88h-2.5a16.22,16.22,0,0,1-.24-2.92c-.86,2.11-2.78,3.36-5.81,3.36-4.65,0-6.29-3.6-6.29-6.92,0-4.22,2.84-7.63,9.27-7.63,1.25,0,2,0,2.74,0V199c0-2.06-.44-4.75-4-4.75-4,0-4.22,2.93-4.37,4.56h-2.64c.1-3.41,1.73-6.87,7.06-6.87,4.51,0,6.62,2.21,6.62,6.63ZM409,204.75a17.86,17.86,0,0,0-2.64-.14c-4.7,0-6.67,2.3-6.67,5.23,0,2.55,1.34,4.71,4.13,4.71,3.79,0,5.18-2.6,5.18-8.26Z" transform="translate(0)"/><path class="a" d="M414.47,192.37H418v-6.58h2.64v6.58H425v2.4h-4.36v16.8c0,1.78.38,2.93,2.25,2.93a10.11,10.11,0,0,0,1.83-.15v2.12a8.65,8.65,0,0,1-2.64.38c-2.45,0-4.08-1.06-4.08-4.66V194.77h-3.51Z" transform="translate(0)"/><path class="a" d="M429.64,204.8c0,5.33,1,9.75,5.09,9.75s4.7-4,4.85-4.76h2.68c0,.58-.76,7.16-7.53,7.16s-7.83-6.48-7.83-12.49c0-7.63,2.5-12.48,8-12.48,6.1,0,7.54,5.19,7.54,11.14,0,.34,0,1,0,1.68Zm10.08-2.26c0-4.84-1.1-8.2-4.85-8.2-4.85,0-5.09,6.57-5.18,8.2Z" transform="translate(0)"/><path class="a" d="M15.55,274.11V254H12.67v-4.7h2.88v-2.4c0-4.13,1.88-7.16,6.82-7.16a10.35,10.35,0,0,1,2.35.29v4.8a6.37,6.37,0,0,0-1.34-.19c-1.68,0-2.11,1-2.11,2.64v2h3.55V254H21.27v20.16Z" transform="translate(0)"/><path class="a" d="M27.55,274.11V240h5.72v34.08Z" transform="translate(0)"/><path class="a" d="M55.88,261.49c0,9-3.32,13.1-9.41,13.1s-9.27-3.88-9.27-13c0-8.83,3.7-12.77,9.55-12.77S55.88,253.18,55.88,261.49ZM43,261.58c0,5.33.86,8.21,3.65,8.21,2.54,0,3.45-2.83,3.45-8.16s-.91-8-3.5-8S43,256.26,43,261.58Z" transform="translate(0)"/><path class="a" d="M77.57,261.49c0,9-3.31,13.1-9.41,13.1s-9.26-3.88-9.26-13c0-8.83,3.69-12.77,9.55-12.77S77.57,253.18,77.57,261.49Zm-12.86.09c0,5.33.86,8.21,3.64,8.21,2.55,0,3.46-2.83,3.46-8.16s-.91-8-3.51-8S64.71,256.26,64.71,261.58Z" transform="translate(0)"/><path class="a" d="M99.07,240V267.2c0,2.93,0,5.47.05,6.91H93.6a24.09,24.09,0,0,1-.19-2.64c-.72,1.78-2.21,3.08-5.52,3.08-5.23,0-7.35-4.71-7.35-13.06,0-7.63,2.5-12.63,8.31-12.63,2.69,0,4,1,4.46,1.92V240ZM89.86,269.7c3,0,3.65-2.31,3.65-8.31,0-5.76-.48-7.68-3.41-7.68-2.31,0-3.7,1.78-3.7,7.87C86.4,267.34,87.46,269.7,89.86,269.7Z" transform="translate(0)"/><path class="a" d="M104.06,249.25h5.72v24.86h-5.72Zm0-3.56V240h5.71v5.66Z" transform="translate(0)"/><path class="a" d="M114.91,257c0-5.09,0-6.39,0-7.73h5.52c.05.62.15,1.68.15,2.59a5.85,5.85,0,0,1,5.52-3c4,0,6.34,2.54,6.34,7.58v17.71h-5.72V257.7c0-2.45-.52-4-2.83-4-2.16,0-3.21,1.25-3.21,5v15.41h-5.72Z" transform="translate(0)"/><path class="a" d="M154.85,272.1c0,7-2.07,11.37-9.55,11.37-7.11,0-8.6-4.17-8.74-7.2h5.71c.1.77.34,2.55,3.22,2.55,3.12,0,3.69-2.35,3.69-6.72V271c-1,2-2.83,2.93-5.32,2.93-5.28,0-7.54-4.61-7.54-11.95,0-8.5,3.07-13.11,8.06-13.11,3.27,0,4.42,1.54,4.8,2.6,0-.72.15-1.59.24-2.21h5.48c-.05,1.53-.05,4-.05,7.49Zm-9.07-3c2.88,0,3.5-2.78,3.5-8.06,0-4.47-.24-7.35-3.36-7.35-2.4,0-3.7,2.5-3.7,8.11C142.22,266.91,143.42,269.12,145.78,269.12Z" transform="translate(0)"/><path class="a" d="M168.86,249.25h5.72v24.86h-5.72Zm0-3.56V240h5.71v5.66Z" transform="translate(0)"/><path class="a" d="M179.76,256.74c0-5,0-6.39,0-7.49h5.47a18.35,18.35,0,0,1,.15,2.54,5.94,5.94,0,0,1,5.47-2.93c2.74,0,4.27,1.2,5,3.36a6.63,6.63,0,0,1,6.1-3.36c3.55,0,6.28,1.78,6.28,7.44v17.81h-5.61V257.17c0-2-.67-3.46-2.64-3.46-2.35,0-3.07,1.78-3.07,4.85v15.55h-5.72V257.26c0-2.3-.76-3.5-2.59-3.5-2.3,0-3.17,1.58-3.17,4.94v15.41h-5.66Z" transform="translate(0)"/><path class="a" d="M213.31,283.09V256.45c0-3.36,0-5.62-.05-7.2h5.52c.05.57.15,1.82.15,2.73.81-1.58,2.25-3.12,5.57-3.12,4.6,0,7.29,3.94,7.29,12.44,0,9.69-3.21,13.29-8,13.29-2.6,0-4-1-4.76-2.4v10.9Zm9-29.38c-2.87,0-3.5,2.74-3.5,7.59,0,5.71.34,8.4,3.46,8.4,2.49,0,3.69-2.69,3.69-8.16C226,255.58,224.74,253.71,222.33,253.71Z" transform="translate(0)"/><path class="a" d="M252,268.69c0,1.25.1,4.32.19,5.42H247a14.28,14.28,0,0,1-.24-2.3c-1,1.58-2.6,2.74-5.62,2.74-4.75,0-6.62-3.8-6.62-7.35,0-5.09,3.5-8.21,9.79-8.21.86,0,1.49,0,2.06.05v-2.69c0-1.44-.19-3.17-2.69-3.17s-2.64,1.59-2.78,3.22h-5.47c.09-3.65,1.82-7.54,8.49-7.54,5.33,0,8.07,2.4,8.07,7.16Zm-5.47-5.47a11,11,0,0,0-1.88-.1c-3.26,0-4.46,1.54-4.46,3.55,0,1.49.72,3.22,2.88,3.22,2.93,0,3.46-2.21,3.46-5.86Z" transform="translate(0)"/><path class="a" d="M273.65,265.71c-.1,2-.58,8.84-8.79,8.84-7.1,0-8.88-5.72-8.88-13.06,0-6.58,2.21-12.67,9.22-12.67,8.11,0,8.4,7,8.45,8.54h-5.81c0-1-.14-3.84-2.69-3.84s-3.36,2.83-3.36,8,.77,8.25,3.26,8.25c2.69,0,2.88-2.69,3-4.08Z" transform="translate(0)"/><path class="a" d="M275.52,249.25h3.26v-6.2h5.71v6.2h3.84V254h-3.84v13.64c0,1.43.29,2.25,2.07,2.25a7.27,7.27,0,0,0,1.44-.09v4.17a9.47,9.47,0,0,1-3.51.53c-4,0-5.71-1.49-5.71-5.95V254h-3.26Z" transform="translate(0)"/><path class="a" d="M296,266.58c0,1.72.87,3.6,3.22,3.6a2.44,2.44,0,0,0,2.78-2.64c0-1.73-.76-2.69-3.69-3.8-5.86-2.16-7.35-4.22-7.35-7.82,0-3.36,2.16-7.1,8.07-7.1,6.53,0,8.11,4.46,8.11,7.72h-5.47c0-.91-.1-3.36-2.79-3.36a2.14,2.14,0,0,0-2.3,2.31c0,1.58.86,2.3,3.84,3.41,5.28,2,7.25,3.93,7.25,8,0,4.9-3.07,7.69-8.69,7.69-5.95,0-8.59-3.56-8.59-8Z" transform="translate(0)"/><path class="a" d="M321,244.69v-4.8h2.69v4.8Zm0,5.28h2.69v24.14H321Z" transform="translate(0)"/><path class="a" d="M329.75,257.41c0-5,0-6.39,0-7.44h2.59a33.65,33.65,0,0,1,.14,3.41,5.76,5.76,0,0,1,5.86-3.84c3.31,0,6.19,1.82,6.19,7.39v17.18h-2.73V257.36c0-3.12-1.11-5.33-4.08-5.33-3.7,0-5.19,2.5-5.19,7.92v14.16h-2.74Z" transform="translate(0)"/><path class="a" d="M19.06,324.18c0,1.72.86,3.6,3.21,3.6,1.88,0,2.79-1,2.79-2.64s-.77-2.69-3.7-3.8c-5.85-2.16-7.34-4.22-7.34-7.82,0-3.36,2.16-7.1,8.06-7.1,6.53,0,8.12,4.46,8.12,7.72H24.72c0-.91-.09-3.36-2.78-3.36a2.15,2.15,0,0,0-2.31,2.31c0,1.58.87,2.3,3.84,3.41,5.28,2,7.25,3.93,7.25,8,0,4.9-3.07,7.69-8.69,7.69-6,0-8.59-3.56-8.59-8Z" transform="translate(0)"/><path class="a" d="M51,323.31c-.1,2-.58,8.84-8.79,8.84-7.1,0-8.88-5.72-8.88-13.06,0-6.58,2.21-12.67,9.22-12.67,8.11,0,8.4,7,8.45,8.54H45.22c0-1-.15-3.84-2.69-3.84s-3.36,2.83-3.36,8,.77,8.25,3.26,8.25c2.69,0,2.88-2.69,3-4.08Z" transform="translate(0)"/><path class="a" d="M60.24,297.63v11.62c.91-1.59,2.5-2.83,5.62-2.83,4.08,0,6.14,2.64,6.14,7.72v17.57H66.29V315.3c0-2.4-.43-4-2.88-4s-3.17,1.92-3.17,5.23v15.17H54.53V297.63Z" transform="translate(0)"/><path class="a" d="M94.61,319.09c0,9-3.31,13.1-9.41,13.1s-9.26-3.88-9.26-13c0-8.83,3.69-12.77,9.55-12.77S94.61,310.78,94.61,319.09Zm-12.86.09c0,5.33.86,8.21,3.64,8.21,2.55,0,3.46-2.83,3.46-8.16s-.91-8-3.51-8S81.75,313.86,81.75,319.18Z" transform="translate(0)"/><path class="a" d="M116.31,319.09c0,9-3.32,13.1-9.41,13.1s-9.27-3.88-9.27-13c0-8.83,3.7-12.77,9.55-12.77S116.31,310.78,116.31,319.09Zm-12.87.09c0,5.33.86,8.21,3.65,8.21,2.54,0,3.45-2.83,3.45-8.16s-.91-8-3.5-8S103.44,313.86,103.44,319.18Z" transform="translate(0)"/><path class="a" d="M120.29,331.71V297.63H126v34.08Z" transform="translate(0)"/><path class="a" d="M134.93,324.18c0,1.72.86,3.6,3.21,3.6,1.88,0,2.79-1,2.79-2.64s-.77-2.69-3.7-3.8c-5.85-2.16-7.34-4.22-7.34-7.82,0-3.36,2.16-7.1,8.06-7.1,6.53,0,8.12,4.46,8.12,7.72h-5.48c0-.91-.09-3.36-2.78-3.36a2.15,2.15,0,0,0-2.31,2.31c0,1.58.87,2.3,3.84,3.41,5.29,2,7.25,3.93,7.25,8,0,4.9-3.07,7.69-8.69,7.69-6,0-8.59-3.56-8.59-8Z" transform="translate(0)"/><path class="a" d="M175.44,326.29c0,1.25.1,4.32.19,5.42h-5.18a14.28,14.28,0,0,1-.24-2.3c-1,1.58-2.59,2.74-5.62,2.74-4.75,0-6.62-3.8-6.62-7.35,0-5.09,3.5-8.21,9.79-8.21.86,0,1.49,0,2.06.05V314c0-1.44-.19-3.17-2.68-3.17s-2.64,1.59-2.79,3.22h-5.47c.1-3.65,1.82-7.54,8.5-7.54,5.33,0,8.06,2.4,8.06,7.16ZM170,320.82a10.94,10.94,0,0,0-1.87-.1c-3.27,0-4.47,1.54-4.47,3.55,0,1.49.72,3.22,2.88,3.22,2.93,0,3.46-2.21,3.46-5.86Z" transform="translate(0)"/><path class="a" d="M180.58,314.58c0-5.09,0-6.39-.05-7.73h5.52c0,.62.14,1.68.14,2.59a5.85,5.85,0,0,1,5.52-3c4,0,6.34,2.54,6.34,7.58v17.71h-5.71V315.3c0-2.45-.53-4-2.84-4-2.16,0-3.21,1.25-3.21,5v15.41h-5.71Z" transform="translate(0)"/><path class="a" d="M220.46,297.63V324.8c0,2.93,0,5.47,0,6.91H215a24.09,24.09,0,0,1-.19-2.64c-.72,1.78-2.21,3.08-5.52,3.08-5.23,0-7.35-4.71-7.35-13.06,0-7.63,2.5-12.63,8.31-12.63,2.69,0,4,1,4.46,1.92V297.63Zm-9.21,29.67c3,0,3.65-2.31,3.65-8.31,0-5.76-.48-7.68-3.41-7.68-2.31,0-3.7,1.78-3.7,7.87C207.79,324.94,208.85,327.3,211.25,327.3Z" transform="translate(0)"/><path class="a" d="M238.41,324.18c0,1.72.87,3.6,3.22,3.6a2.44,2.44,0,0,0,2.78-2.64c0-1.73-.76-2.69-3.69-3.8-5.86-2.16-7.35-4.22-7.35-7.82,0-3.36,2.16-7.1,8.07-7.1,6.53,0,8.11,4.46,8.11,7.72h-5.47c0-.91-.1-3.36-2.79-3.36a2.14,2.14,0,0,0-2.3,2.31c0,1.58.86,2.3,3.84,3.41,5.28,2,7.25,3.93,7.25,8,0,4.9-3.07,7.69-8.69,7.69-5.95,0-8.59-3.56-8.59-8Z" transform="translate(0)"/><path class="a" d="M251.32,306.85h3.27v-6.2h5.71v6.2h3.84v4.7H260.3v13.63c0,1.45.29,2.26,2.07,2.26a7.27,7.27,0,0,0,1.44-.09v4.17a9.47,9.47,0,0,1-3.51.53c-4,0-5.71-1.49-5.71-5.95V311.55h-3.27Z" transform="translate(0)"/><path class="a" d="M284.49,324.42c0,3.6,0,6,.05,7.29h-5.47a16,16,0,0,1-.19-2.73c-1.11,2.3-2.93,3.17-5.57,3.17-3.51,0-6.19-1.73-6.19-7.45V306.85h5.71v16.56c0,2.45.53,3.84,2.64,3.84s3.31-1.2,3.31-5.14V306.85h5.71Z" transform="translate(0)"/><path class="a" d="M306.91,297.63V324.8c0,2.93,0,5.47,0,6.91h-5.52a21.79,21.79,0,0,1-.2-2.64c-.72,1.78-2.2,3.08-5.52,3.08-5.23,0-7.34-4.71-7.34-13.06,0-7.63,2.5-12.63,8.3-12.63,2.69,0,4,1,4.47,1.92V297.63Zm-9.22,29.67c3,0,3.65-2.31,3.65-8.31,0-5.76-.48-7.68-3.41-7.68-2.3,0-3.69,1.78-3.69,7.87C294.24,324.94,295.29,327.3,297.69,327.3Z" transform="translate(0)"/><path class="a" d="M316.46,320.77c0,3.17.38,6.67,3.55,6.67,2.88,0,3.22-2.45,3.36-3.26h5.47c-.09.76-.67,8-8.88,8-8.06,0-9.21-6.77-9.21-13.05,0-7.88,3-12.68,9.31-12.68,7.2,0,9,5.38,9,11.86,0,.86-.05,2-.1,2.45Zm6.91-4.13c0-2.45-.29-5.52-3.31-5.52-3.31,0-3.5,3.7-3.5,5.52Z" transform="translate(0)"/><path class="a" d="M332.92,314.58c0-5.09,0-6.39,0-7.73h5.52c0,.62.14,1.68.14,2.59a5.85,5.85,0,0,1,5.52-3c4,0,6.34,2.54,6.34,7.58v17.71h-5.72V315.3c0-2.45-.52-4-2.83-4s-3.21,1.25-3.21,5v15.41h-5.72Z" transform="translate(0)"/><path class="a" d="M352.75,306.85H356v-6.2h5.71v6.2h3.84v4.7h-3.84v13.63c0,1.45.29,2.26,2.07,2.26a7.27,7.27,0,0,0,1.44-.09v4.17a9.47,9.47,0,0,1-3.51.53c-4,0-5.71-1.49-5.71-5.95V311.55h-3.26Z" transform="translate(0)"/><path class="a" d="M373.19,324.18c0,1.72.87,3.6,3.22,3.6a2.44,2.44,0,0,0,2.78-2.64c0-1.73-.76-2.69-3.69-3.8-5.86-2.16-7.35-4.22-7.35-7.82,0-3.36,2.16-7.1,8.07-7.1,6.53,0,8.11,4.46,8.11,7.72h-5.47c0-.91-.1-3.36-2.79-3.36a2.14,2.14,0,0,0-2.3,2.31c0,1.58.86,2.3,3.84,3.41,5.28,2,7.25,3.93,7.25,8,0,4.9-3.07,7.69-8.69,7.69-5.95,0-8.59-3.56-8.59-8Z" transform="translate(0)"/><path class="a" d="M393.21,321.92v-.62c0-2.5.58-4.66,3.22-8.16,2-2.64,2.59-4.42,2.59-6.63,0-2.69-1-4.85-3.84-4.85-2.59,0-3.84,2.16-4,5.62h-3.31c.05-3.74,1.58-8.59,7.49-8.55,5.33,0,7.2,3.46,7.2,7.73,0,3.46-1.06,5.48-3.65,8.93a9.89,9.89,0,0,0-2.21,6.15v.38Zm0,9.84v-6.05h3.55v6.05Z" transform="translate(0)"/><path class="a" d="M.5,415.64v-.12c0-2,1.13-4.13,3.61-6.84,2-2.24,2.63-3.05,2.63-4.88,0-1.41-.4-2.73-2.06-2.73-1.51,0-2.16,1.17-2.23,3.05H.72c0-2.31,1.1-4.52,4-4.52s3.83,1.9,3.83,4.23c0,2.16-.72,3.24-2.83,5.47a12.92,12.92,0,0,0-3.17,4.78H9l-.26,1.56Z" transform="translate(0)"/><path class="a" d="M10.8,415.66v-3.31h1.78v3.31Z" transform="translate(0)"/><path class="a" d="M18.63,439.17v32.64H15.84V439.17Z" transform="translate(0)"/><path class="a" d="M25.44,465c.24,2.93,1.78,4.94,4.75,4.94a4,4,0,0,0,4.32-4.32c0-2.78-1.43-4-4.75-5.33-4.7-1.82-6.19-3.55-6.19-6.86s2-6.19,6.58-6.19c5,0,6.57,3.4,6.62,6.67H34.08c-.09-1.3-.43-4.32-4-4.32a3.4,3.4,0,0,0-3.74,3.74c0,2.07.86,3.12,4.36,4.47,4.47,1.77,6.63,3.41,6.63,7.63s-2.69,6.82-7.3,6.82-7.1-2.84-7.25-7.25Z" transform="translate(0)"/><path class="a" d="M48,447.67h3.51v-6.58H54.1v6.58h4.37v2.4H54.1v16.8c0,1.78.38,2.93,2.25,2.93a10,10,0,0,0,1.83-.15v2.12a8.61,8.61,0,0,1-2.64.38c-2.45,0-4.08-1.06-4.08-4.66V450.07H48Z" transform="translate(0)"/><path class="a" d="M64.71,437.59v13.25c.81-2.12,2.83-3.6,5.9-3.6,3.36,0,6.1,2.06,6.1,7.34v17.23H74V455.16c0-3.17-1-5.43-4.18-5.43-3.64,0-5.08,3.07-5.08,7.64v14.44H62V437.59Z" transform="translate(0)"/><path class="a" d="M84.14,460.1c0,5.33,1,9.75,5.09,9.75s4.71-4,4.85-4.76h2.69c0,.58-.77,7.16-7.54,7.16s-7.82-6.48-7.82-12.48c0-7.64,2.49-12.49,8-12.49,6.1,0,7.54,5.19,7.54,11.14,0,.34,0,1,0,1.68Zm10.09-2.25c0-4.85-1.11-8.21-4.85-8.21-4.85,0-5.09,6.57-5.19,8.21Z" transform="translate(0)"/><path class="a" d="M126.91,463.41c-.09,2-.57,8.84-8.78,8.84-7.11,0-8.88-5.72-8.88-13.06,0-6.58,2.21-12.67,9.21-12.67,8.12,0,8.41,7,8.45,8.54H121.1c0-1-.14-3.84-2.68-3.84s-3.36,2.83-3.36,8,.76,8.25,3.26,8.25c2.69,0,2.88-2.68,3-4.08Z" transform="translate(0)"/><path class="a" d="M147,466.39c0,1.25.09,4.32.19,5.42H142a15.51,15.51,0,0,1-.24-2.3c-1,1.58-2.59,2.74-5.61,2.74-4.75,0-6.63-3.8-6.63-7.35,0-5.09,3.51-8.21,9.8-8.21.86,0,1.48,0,2.06.05v-2.69c0-1.44-.19-3.17-2.69-3.17s-2.64,1.59-2.78,3.22h-5.47c.09-3.65,1.82-7.54,8.49-7.54,5.33,0,8.07,2.4,8.07,7.16Zm-5.48-5.47a10.82,10.82,0,0,0-1.87-.1c-3.26,0-4.46,1.54-4.46,3.55,0,1.49.72,3.22,2.88,3.22,2.93,0,3.45-2.21,3.45-5.86Z" transform="translate(0)"/><path class="a" d="M152.11,480.79V454.15c0-3.36,0-5.62-.05-7.2h5.52c0,.57.15,1.82.15,2.73.81-1.58,2.25-3.12,5.57-3.12,4.6,0,7.29,3.94,7.29,12.44,0,9.69-3.21,13.29-8,13.29-2.6,0-4-1.05-4.76-2.4v10.9Zm9-29.38c-2.88,0-3.51,2.74-3.51,7.59,0,5.71.34,8.4,3.46,8.4,2.49,0,3.69-2.69,3.69-8.16C164.78,453.28,163.54,451.41,161.14,451.41Z" transform="translate(0)"/><path class="a" d="M174.53,447h5.71v24.86h-5.71Zm.05-3.55v-5.67h5.71v5.67Z" transform="translate(0)"/><path class="a" d="M183.17,447h3.26v-6.19h5.71V447H196v4.7h-3.84v13.64c0,1.44.29,2.25,2.07,2.25a7.27,7.27,0,0,0,1.44-.09v4.17a9.47,9.47,0,0,1-3.51.53c-4,0-5.71-1.49-5.71-5.95V451.65h-3.26Z" transform="translate(0)"/><path class="a" d="M215.52,466.39c0,1.25.1,4.32.19,5.42h-5.18a14.28,14.28,0,0,1-.24-2.3c-1,1.58-2.6,2.74-5.62,2.74-4.75,0-6.62-3.8-6.62-7.35,0-5.09,3.5-8.21,9.79-8.21.86,0,1.49,0,2.06.05v-2.69c0-1.44-.19-3.17-2.69-3.17s-2.64,1.59-2.78,3.22H199c.09-3.65,1.82-7.54,8.49-7.54,5.33,0,8.07,2.4,8.07,7.16Zm-5.47-5.47a11,11,0,0,0-1.88-.1c-3.26,0-4.46,1.54-4.46,3.55,0,1.49.72,3.22,2.88,3.22,2.93,0,3.46-2.21,3.46-5.86Z" transform="translate(0)"/><path class="a" d="M220.65,471.81V437.73h5.72v34.08Z" transform="translate(0)"/><path class="a" d="M240.38,437.73h5.71v11.71c.87-1.53,2.5-2.88,5.52-2.88,5.09,0,7.25,4.47,7.25,12.15,0,7.87-1.92,13.54-8,13.54-3.21,0-4.27-1.59-4.94-2.84,0,.58-.05,1.68-.1,2.4h-5.47c0-1.63,0-4.46,0-7Zm9.26,13.68c-2.78,0-3.74,2-3.74,8.12,0,5.8.82,7.87,3.51,7.87s3.69-2.59,3.69-8.59C253.1,454,252.43,451.41,249.64,451.41Z" transform="translate(0)"/><path class="a" d="M280,464.52c0,3.6,0,6,.05,7.29H274.6a17,17,0,0,1-.19-2.73c-1.1,2.3-2.93,3.17-5.57,3.17-3.5,0-6.19-1.73-6.19-7.44V447h5.71v16.56c0,2.45.53,3.84,2.64,3.84s3.32-1.2,3.32-5.14V447H280Z" transform="translate(0)"/><path class="a" d="M302.44,437.73V464.9c0,2.93,0,5.47.05,6.91H297a24.09,24.09,0,0,1-.19-2.64c-.72,1.78-2.21,3.08-5.52,3.08-5.23,0-7.35-4.71-7.35-13.06,0-7.63,2.5-12.63,8.31-12.63,2.69,0,4,1,4.46,1.92V437.73Zm-9.21,29.67c3,0,3.65-2.31,3.65-8.31,0-5.76-.48-7.68-3.41-7.68-2.31,0-3.7,1.78-3.7,7.88C289.77,465.05,290.83,467.4,293.23,467.4Z" transform="translate(0)"/><path class="a" d="M324.81,469.8c0,7.06-2.06,11.38-9.55,11.38-7.1,0-8.59-4.18-8.74-7.21h5.72c.09.77.33,2.55,3.21,2.55,3.12,0,3.7-2.35,3.7-6.72v-1.11c-1,2-2.83,2.93-5.33,2.93-5.28,0-7.54-4.61-7.54-11.95,0-8.5,3.08-13.11,8.07-13.11,3.26,0,4.41,1.54,4.8,2.6.05-.72.14-1.59.24-2.21h5.47c-.05,1.53-.05,4-.05,7.49Zm-9.07-3c2.88,0,3.5-2.78,3.5-8.06,0-4.47-.24-7.35-3.36-7.35-2.4,0-3.69,2.5-3.69,8.12C312.19,464.61,313.39,466.82,315.74,466.82Z" transform="translate(0)"/><path class="a" d="M334.46,460.87c0,3.17.38,6.67,3.55,6.67,2.88,0,3.22-2.45,3.36-3.26h5.47c-.09.77-.67,8-8.88,8-8.06,0-9.21-6.76-9.21-13.05,0-7.88,3-12.68,9.31-12.68,7.2,0,9,5.38,9,11.86,0,.87-.05,2-.1,2.45Zm6.91-4.13c0-2.45-.29-5.52-3.31-5.52-3.31,0-3.51,3.7-3.51,5.52Z" transform="translate(0)"/><path class="a" d="M348.62,447h3.26v-6.19h5.71V447h3.84v4.7h-3.84v13.64c0,1.44.29,2.25,2.07,2.25a7.27,7.27,0,0,0,1.44-.09v4.17a9.47,9.47,0,0,1-3.51.53c-4,0-5.71-1.49-5.71-5.95V451.65h-3.26Z" transform="translate(0)"/><path class="a" d="M28.85,525.53a34.78,34.78,0,0,0,.19,3.88H26.55a15.35,15.35,0,0,1-.24-2.92c-.87,2.11-2.79,3.36-5.81,3.36-4.66,0-6.29-3.6-6.29-6.92,0-4.22,2.83-7.63,9.26-7.63,1.25,0,2,0,2.74.05v-3.41c0-2.06-.43-4.75-4-4.75-4,0-4.23,2.93-4.37,4.56H15.17c.1-3.41,1.73-6.87,7.06-6.87,4.51,0,6.62,2.21,6.62,6.63Zm-2.59-7.88a18,18,0,0,0-2.64-.14c-4.71,0-6.67,2.3-6.67,5.23,0,2.55,1.34,4.71,4.12,4.71,3.8,0,5.19-2.6,5.19-8.26Z" transform="translate(0)"/><path class="a" d="M34.9,529.41V495.19h2.69v34.22Z" transform="translate(0)"/><path class="a" d="M43.78,529.41V495.19h2.68v34.22Z" transform="translate(0)"/><path class="a" d="M67.3,517c0,8.4-2.69,12.82-8,12.82-5.52,0-8.07-4.28-8.07-12.77,0-8.31,3.17-12.2,8.16-12.2S67.3,508.92,67.3,517Zm-13.25.1c0,7.1,1.92,10.32,5.28,10.32s5.18-3.32,5.18-10.37c0-6.53-1.77-9.8-5.23-9.8C56.06,507.28,54.05,510.07,54.05,517.13Z" transform="translate(0)"/><path class="a" d="M86.07,522.36c-.1,1-.68,7.49-7.4,7.49-6,0-7.77-5.57-7.77-12.53s2.25-12.48,8.11-12.48c6.67,0,7.06,6.38,7.06,7.39H83.28c0-1-.48-5-4.27-5s-5.33,4.22-5.33,10c0,6.29,1.54,10.18,5.14,10.18,3.79,0,4.32-3.84,4.51-5.09Z" transform="translate(0)"/><path class="a" d="M103.83,525.53a32.46,32.46,0,0,0,.19,3.88h-2.5a16.22,16.22,0,0,1-.24-2.92c-.86,2.11-2.78,3.36-5.81,3.36-4.65,0-6.29-3.6-6.29-6.92,0-4.22,2.84-7.63,9.27-7.63,1.25,0,2,0,2.73.05v-3.41c0-2.06-.43-4.75-4-4.75-4,0-4.22,2.93-4.37,4.56H90.14c.1-3.41,1.73-6.87,7.06-6.87,4.51,0,6.63,2.21,6.63,6.63Zm-2.6-7.88a17.86,17.86,0,0,0-2.64-.14c-4.7,0-6.67,2.3-6.67,5.23,0,2.55,1.34,4.71,4.13,4.71,3.79,0,5.18-2.6,5.18-8.26Z" transform="translate(0)"/><path class="a" d="M106.75,505.27h3.5v-6.58h2.65v6.58h4.36v2.4H112.9v16.8c0,1.78.38,2.93,2.25,2.93a10.11,10.11,0,0,0,1.83-.15v2.12a8.65,8.65,0,0,1-2.64.38c-2.45,0-4.09-1.06-4.09-4.66V507.67h-3.5Z" transform="translate(0)"/><path class="a" d="M121.92,517.7c0,5.33,1,9.75,5.09,9.75s4.7-4,4.85-4.76h2.68c0,.58-.76,7.16-7.53,7.16s-7.83-6.48-7.83-12.48c0-7.64,2.5-12.49,8-12.49,6.1,0,7.54,5.19,7.54,11.14,0,.34,0,1-.05,1.68ZM132,515.45c0-4.85-1.1-8.21-4.85-8.21-4.85,0-5.09,6.57-5.18,8.21Z" transform="translate(0)"/><path class="a" d="M154.22,495.19v28.22c0,2.16,0,4.56.05,6h-2.59c-.05-.62-.14-2.35-.14-3.5-.72,2.26-2.31,3.94-5.77,3.94-5,0-7.2-4.18-7.2-12.77,0-7.83,3-12.2,7.88-12.2,3.31,0,4.51,1.44,5.09,2.74V495.19Zm-7.87,32.16c4.08,0,5.23-3.55,5.23-10.37,0-7.63-1.2-9.65-4.94-9.65-3.12,0-5.28,2.84-5.28,9.75C141.36,524.57,143.18,527.35,146.35,527.35Z" transform="translate(0)"/><path class="a" d="M166.41,505.27h3.51v-6.58h2.64v6.58h4.37v2.4h-4.37v16.8c0,1.78.38,2.93,2.25,2.93a10,10,0,0,0,1.83-.15v2.12a8.61,8.61,0,0,1-2.64.38c-2.45,0-4.08-1.06-4.08-4.66V507.67h-3.51Z" transform="translate(0)"/><path class="a" d="M194.88,517c0,8.4-2.69,12.82-8,12.82-5.52,0-8.06-4.28-8.06-12.77,0-8.31,3.16-12.2,8.16-12.2S194.88,508.92,194.88,517Zm-13.25.1c0,7.1,1.92,10.32,5.28,10.32s5.18-3.32,5.18-10.37c0-6.53-1.77-9.8-5.23-9.8C183.65,507.28,181.63,510.07,181.63,517.13Z" transform="translate(0)"/><path class="a" d="M205.87,505.27h3.5v-6.58H212v6.58h4.37v2.4H212v16.8c0,1.78.39,2.93,2.26,2.93a9.91,9.91,0,0,0,1.82-.15v2.12a8.56,8.56,0,0,1-2.64.38c-2.44,0-4.08-1.06-4.08-4.66V507.67h-3.5Z" transform="translate(0)"/><path class="a" d="M222.62,495.19v13.25c.82-2.12,2.83-3.6,5.91-3.6,3.36,0,6.09,2.06,6.09,7.34v17.23h-2.73V512.76c0-3.17-1-5.43-4.18-5.43-3.65,0-5.09,3.07-5.09,7.64v14.44h-2.74V495.19Z" transform="translate(0)"/><path class="a" d="M242.06,517.7c0,5.33,1,9.75,5.09,9.75s4.7-4,4.85-4.76h2.69c-.05.58-.77,7.16-7.54,7.16s-7.83-6.48-7.83-12.48c0-7.64,2.5-12.49,8-12.49,6.1,0,7.54,5.19,7.54,11.14,0,.34,0,1,0,1.68Zm10.08-2.25c0-4.85-1.1-8.21-4.85-8.21-4.85,0-5.09,6.57-5.18,8.21Z" transform="translate(0)"/><path class="a" d="M272.35,521.88c0,1.73.86,3.6,3.21,3.6,1.88,0,2.79-1,2.79-2.64s-.77-2.69-3.7-3.79c-5.85-2.16-7.34-4.23-7.34-7.83,0-3.36,2.16-7.1,8.06-7.1,6.53,0,8.12,4.46,8.12,7.73H278c0-.92-.09-3.37-2.78-3.37a2.15,2.15,0,0,0-2.31,2.31c0,1.58.87,2.3,3.84,3.41,5.28,2,7.25,3.93,7.25,8,0,4.89-3.07,7.68-8.69,7.68-5.95,0-8.59-3.56-8.59-8Z" transform="translate(0)"/><path class="a" d="M304.32,521c-.1,2-.58,8.84-8.79,8.84-7.1,0-8.88-5.72-8.88-13.06,0-6.58,2.21-12.67,9.22-12.67,8.11,0,8.4,7,8.45,8.54h-5.81c-.05-1-.15-3.84-2.69-3.84s-3.36,2.83-3.36,8,.77,8.25,3.26,8.25c2.69,0,2.88-2.68,3-4.08Z" transform="translate(0)"/><path class="a" d="M313.53,495.33V507c.91-1.59,2.5-2.83,5.62-2.83,4.08,0,6.14,2.64,6.14,7.73v17.56h-5.71V513c0-2.4-.43-4-2.88-4s-3.17,1.92-3.17,5.24v15.16h-5.71V495.33Z" transform="translate(0)"/><path class="a" d="M347.9,516.79c0,9-3.31,13.1-9.41,13.1s-9.26-3.88-9.26-13c0-8.83,3.69-12.77,9.55-12.77S347.9,508.48,347.9,516.79Zm-12.87.1c0,5.32.87,8.2,3.65,8.2,2.55,0,3.46-2.83,3.46-8.16s-.91-8-3.51-8S335,511.56,335,516.89Z" transform="translate(0)"/><path class="a" d="M369.59,516.79c0,9-3.31,13.1-9.4,13.1s-9.27-3.88-9.27-13c0-8.83,3.7-12.77,9.55-12.77S369.59,508.48,369.59,516.79Zm-12.86.1c0,5.32.86,8.2,3.65,8.2,2.54,0,3.45-2.83,3.45-8.16s-.91-8-3.5-8S356.73,511.56,356.73,516.89Z" transform="translate(0)"/><path class="a" d="M373.58,529.41V495.33h5.71v34.08Z" transform="translate(0)"/><path class="a" d="M388.22,521.88c0,1.73.86,3.6,3.21,3.6,1.88,0,2.79-1,2.79-2.64s-.77-2.69-3.7-3.79c-5.85-2.16-7.34-4.23-7.34-7.83,0-3.36,2.16-7.1,8.06-7.1,6.53,0,8.11,4.46,8.11,7.73h-5.47c0-.92-.09-3.37-2.78-3.37a2.15,2.15,0,0,0-2.31,2.31c0,1.58.87,2.3,3.84,3.41,5.28,2,7.25,3.93,7.25,8,0,4.89-3.07,7.68-8.69,7.68-5.95,0-8.59-3.56-8.59-8Z" transform="translate(0)"/><path class="a" d="M15,562.15h5.71V587H15Zm0-3.55v-5.67h5.72v5.67Z" transform="translate(0)"/><path class="a" d="M25.87,569.88c0-5.09,0-6.39,0-7.73h5.52c0,.62.14,1.68.14,2.59a5.85,5.85,0,0,1,5.52-3c4,0,6.34,2.54,6.34,7.58V587H37.63V570.6c0-2.45-.52-4-2.83-4-2.16,0-3.21,1.25-3.21,5V587H25.87Z" transform="translate(0)"/><path class="a" d="M57.89,587V566.85H55v-4.7h2.88v-2.4c0-4.13,1.87-7.15,6.82-7.15a10.42,10.42,0,0,1,2.35.28v4.8a6.46,6.46,0,0,0-1.35-.19c-1.68,0-2.11,1-2.11,2.64v2h3.55v4.7H63.6V587Z" transform="translate(0)"/><path class="a" d="M69.89,587V552.93H75.6V587Z" transform="translate(0)"/><path class="a" d="M98.21,574.39c0,9-3.31,13.1-9.41,13.1s-9.26-3.88-9.26-13c0-8.83,3.69-12.77,9.55-12.77S98.21,566.09,98.21,574.39Zm-12.87.1c0,5.32.87,8.2,3.65,8.2,2.55,0,3.46-2.83,3.46-8.16s-.91-8-3.51-8S85.34,569.16,85.34,574.49Z" transform="translate(0)"/><path class="a" d="M119.91,574.39c0,9-3.32,13.1-9.41,13.1s-9.27-3.88-9.27-13c0-8.83,3.7-12.77,9.55-12.77S119.91,566.09,119.91,574.39Zm-12.87.1c0,5.32.86,8.2,3.65,8.2,2.54,0,3.45-2.83,3.45-8.16s-.91-8-3.5-8S107,569.16,107,574.49Z" transform="translate(0)"/><path class="a" d="M141.41,552.93V580.1c0,2.93,0,5.47.05,6.91h-5.52a21.79,21.79,0,0,1-.2-2.64c-.72,1.78-2.2,3.08-5.52,3.08-5.23,0-7.34-4.71-7.34-13.06,0-7.63,2.5-12.63,8.3-12.63,2.69,0,4,1,4.47,1.92V552.93Zm-9.22,29.67c3,0,3.65-2.31,3.65-8.31,0-5.76-.48-7.68-3.41-7.68-2.3,0-3.69,1.78-3.69,7.88C128.74,580.25,129.79,582.6,132.19,582.6Z" transform="translate(0)"/><path class="a" d="M146.4,562.15h5.71V587H146.4Zm0-3.55v-5.67h5.71v5.67Z" transform="translate(0)"/><path class="a" d="M157.25,569.88c0-5.09,0-6.39-.05-7.73h5.52c.05.62.14,1.68.14,2.59a5.85,5.85,0,0,1,5.52-3c4,0,6.34,2.54,6.34,7.58V587H169V570.6c0-2.45-.53-4-2.83-4s-3.22,1.25-3.22,5V587h-5.71Z" transform="translate(0)"/><path class="a" d="M197.18,585c0,7.06-2.06,11.38-9.55,11.38-7.1,0-8.59-4.18-8.74-7.21h5.72c.09.77.33,2.55,3.21,2.55,3.12,0,3.7-2.35,3.7-6.72v-1.11c-1,2-2.83,2.93-5.33,2.93-5.28,0-7.54-4.61-7.54-12,0-8.5,3.08-13.11,8.07-13.11,3.26,0,4.41,1.54,4.8,2.6,0-.72.14-1.59.24-2.21h5.47c0,1.53,0,4,0,7.49Zm-9.07-3c2.88,0,3.51-2.78,3.51-8.06,0-4.47-.24-7.35-3.37-7.35-2.4,0-3.69,2.5-3.69,8.12C184.56,579.81,185.76,582,188.11,582Z" transform="translate(0)"/><path class="a" d="M211.2,570.6c0-4.08,0-6.68,0-8.45h5.47a36.75,36.75,0,0,1,.15,4.13,6.27,6.27,0,0,1,6.48-4.52v6.44c-4-.1-6.34,1-6.34,5.76v13H211.2Z" transform="translate(0)"/><path class="a" d="M226.32,562.15H232V587h-5.71Zm0-3.55v-5.67h5.72v5.67Z" transform="translate(0)"/><path class="a" d="M241,579.48c0,1.73.87,3.6,3.22,3.6a2.44,2.44,0,0,0,2.78-2.64c0-1.73-.76-2.69-3.69-3.79-5.86-2.16-7.35-4.23-7.35-7.83,0-3.36,2.16-7.1,8.07-7.1,6.53,0,8.11,4.46,8.11,7.73h-5.47c0-.92-.1-3.36-2.79-3.36a2.14,2.14,0,0,0-2.3,2.3c0,1.58.86,2.3,3.84,3.41,5.28,2,7.25,3.93,7.25,8,0,4.89-3.07,7.68-8.69,7.68-5.95,0-8.59-3.56-8.59-8Z" transform="translate(0)"/><path class="a" d="M261.79,572.76c1.73-3.12,4-7.11,6.1-10.61h6.28c-2,3.12-3.88,6-6,9.12L274.56,587h-6.48l-3.79-11.13c-.68,1-1.88,2.73-2.5,3.65V587h-5.71V552.93h5.71Z" transform="translate(0)"/><path class="a" d="M301.73,581.59c0,1.25.09,4.32.19,5.42h-5.19a15.51,15.51,0,0,1-.24-2.3c-1,1.58-2.59,2.74-5.61,2.74-4.76,0-6.63-3.8-6.63-7.35,0-5.09,3.51-8.21,9.79-8.21.87,0,1.49,0,2.07.05v-2.69c0-1.44-.19-3.16-2.69-3.16s-2.64,1.58-2.78,3.21h-5.48c.1-3.65,1.83-7.54,8.5-7.54,5.33,0,8.07,2.4,8.07,7.16Zm-5.48-5.47a10.82,10.82,0,0,0-1.87-.1c-3.26,0-4.46,1.54-4.46,3.55,0,1.49.72,3.22,2.88,3.22,2.93,0,3.45-2.21,3.45-5.86Z" transform="translate(0)"/><path class="a" d="M306.86,570.6c0-4.08,0-6.68-.05-8.45h5.47a36.75,36.75,0,0,1,.15,4.13,6.27,6.27,0,0,1,6.48-4.52v6.44c-4-.1-6.34,1-6.34,5.76v13h-5.71Z" transform="translate(0)"/><path class="a" d="M326.54,576.07c0,3.17.38,6.67,3.55,6.67,2.88,0,3.22-2.45,3.36-3.26h5.47c-.09.77-.67,8-8.88,8s-9.21-6.76-9.21-13c0-7.87,3-12.68,9.31-12.68,7.2,0,9,5.38,9,11.86,0,.87-.05,2-.1,2.45Zm6.91-4.13c0-2.45-.28-5.52-3.31-5.52-3.31,0-3.5,3.7-3.5,5.52Z" transform="translate(0)"/><path class="a" d="M359.13,581.59c0,1.25.1,4.32.19,5.42h-5.18a14.28,14.28,0,0,1-.24-2.3c-1,1.58-2.59,2.74-5.62,2.74-4.75,0-6.62-3.8-6.62-7.35,0-5.09,3.5-8.21,9.79-8.21.87,0,1.49,0,2.07.05v-2.69c0-1.44-.2-3.16-2.69-3.16s-2.64,1.58-2.79,3.21h-5.47c.1-3.65,1.82-7.54,8.5-7.54,5.33,0,8.06,2.4,8.06,7.16Zm-5.47-5.47a10.82,10.82,0,0,0-1.87-.1c-3.27,0-4.47,1.54-4.47,3.55,0,1.49.72,3.22,2.88,3.22,2.93,0,3.46-2.21,3.46-5.86Z" transform="translate(0)"/><path class="a" d="M368.11,579.48c0,1.73.86,3.6,3.21,3.6,1.88,0,2.79-1,2.79-2.64s-.77-2.69-3.7-3.79c-5.85-2.16-7.34-4.23-7.34-7.83,0-3.36,2.16-7.1,8.06-7.1,6.53,0,8.12,4.46,8.12,7.73h-5.48c0-.92-.09-3.36-2.78-3.36a2.14,2.14,0,0,0-2.31,2.3c0,1.58.87,2.3,3.84,3.41,5.28,2,7.25,3.93,7.25,8,0,4.89-3.07,7.68-8.69,7.68-5.95,0-8.59-3.56-8.59-8Z" transform="translate(0)"/><path class="a" d="M388.17,577.37v-.63c0-2.3.48-4.51,3.17-8,2.11-2.89,2.69-4.76,2.69-7,0-2.93-1.06-5.38-4.27-5.38-2.84,0-4.28,2.35-4.42,6.19h-2.59c.09-3.5,1.34-8.54,7.15-8.54,4.94,0,6.91,3.36,6.91,7.68,0,3.46-1.15,5.57-3.69,8.93a10.24,10.24,0,0,0-2.31,6.38v.39Zm-.05,9.69v-5.57h2.69v5.57Z" transform="translate(0)"/></svg>